<svg width="24" height="24" viewBox="0 0 24 24" fill="none" xmlns="http://www.w3.org/2000/svg">
<path d="M17 9H19C21 9 22 8 22 6V4C22 2 21 1 19 1H17C15 1 14 2 14 4V6C14 8 15 9 17 9Z" stroke="#323130" stroke-width="1.5" stroke-miterlimit="10" stroke-linecap="round" stroke-linejoin="round"/>
<path d="M5 21H7C9 21 10 20 10 18V16C10 14 9 13 7 13H5C3 13 2 14 2 16V18C2 20 3 21 5 21Z" stroke="#323130" stroke-width="1.5" stroke-miterlimit="10" stroke-linecap="round" stroke-linejoin="round"/>
<path d="M6 9C8.20914 9 10 7.20914 10 5C10 2.79086 8.20914 1 6 1C3.79086 1 2 2.79086 2 5C2 7.20914 3.79086 9 6 9Z" stroke="#323130" stroke-width="1.5" stroke-miterlimit="10" stroke-linecap="round" stroke-linejoin="round"/>
<path d="M18 21C20.2091 21 22 19.2091 22 17C22 14.7909 20.2091 13 18 13C15.7909 13 14 14.7909 14 17C14 19.2091 15.7909 21 18 21Z" stroke="#323130" stroke-width="1.5" stroke-miterlimit="10" stroke-linecap="round" stroke-linejoin="round"/>
</svg>
