<svg width="7" height="20" viewBox="0 0 7 20" fill="none" xmlns="http://www.w3.org/2000/svg">
<path d="M1.51855 17C1.51855 18.1 2.41855 19 3.51855 19C4.61855 19 5.51855 18.1 5.51855 17C5.51855 15.9 4.61855 15 3.51855 15C2.41855 15 1.51855 15.9 1.51855 17Z" stroke="#323130" stroke-width="1.5"/>
<path d="M1.51855 3C1.51855 4.1 2.41855 5 3.51855 5C4.61855 5 5.51855 4.1 5.51855 3C5.51855 1.9 4.61855 1 3.51855 1C2.41855 1 1.51855 1.9 1.51855 3Z" stroke="#323130" stroke-width="1.5"/>
<path d="M1.51855 10C1.51855 11.1 2.41855 12 3.51855 12C4.61855 12 5.51855 11.1 5.51855 10C5.51855 8.9 4.61855 8 3.51855 8C2.41855 8 1.51855 8.9 1.51855 10Z" stroke="#323130" stroke-width="1.5"/>
</svg>
