<svg width="20" height="20" viewBox="0 0 20 20" fill="none" xmlns="http://www.w3.org/2000/svg">
<path d="M10.0165 2.4248C7.25816 2.4248 5.0165 4.66647 5.0165 7.4248V9.83314C5.0165 10.3415 4.79983 11.1165 4.5415 11.5498L3.58316 13.1415C2.9915 14.1248 3.39983 15.2165 4.48316 15.5831C8.07483 16.7831 11.9498 16.7831 15.5415 15.5831C16.5498 15.2498 16.9915 14.0581 16.4415 13.1415L15.4832 11.5498C15.2332 11.1165 15.0165 10.3415 15.0165 9.83314V7.4248C15.0165 4.6748 12.7665 2.4248 10.0165 2.4248Z" stroke="#323130" stroke-width="1.5" stroke-miterlimit="10" stroke-linecap="round"/>
<path d="M11.5579 2.66621C11.2996 2.59121 11.0329 2.53288 10.7579 2.49954C9.95794 2.39954 9.19128 2.45788 8.47461 2.66621C8.71628 2.04954 9.31628 1.61621 10.0163 1.61621C10.7163 1.61621 11.3163 2.04954 11.5579 2.66621Z" stroke="#323130" stroke-width="1.5" stroke-miterlimit="10" stroke-linecap="round" stroke-linejoin="round"/>
<path d="M12.5166 15.8838C12.5166 17.2588 11.3916 18.3838 10.0166 18.3838C9.33327 18.3838 8.69993 18.1005 8.24993 17.6505C7.79993 17.2005 7.5166 16.5671 7.5166 15.8838" stroke="#323130" stroke-width="1.5" stroke-miterlimit="10"/>
</svg>
