<svg width="14" height="19" viewBox="0 0 14 19" fill="none" xmlns="http://www.w3.org/2000/svg">
<path d="M7.13314 8.53669C7.0498 8.52835 6.9498 8.52835 6.85814 8.53669C4.8748 8.47002 3.2998 6.84502 3.2998 4.84502C3.2998 2.80335 4.9498 1.14502 6.9998 1.14502C9.04147 1.14502 10.6998 2.80335 10.6998 4.84502C10.6915 6.84502 9.11647 8.47002 7.13314 8.53669Z" stroke="#605E5C" stroke-width="1.5" stroke-linecap="round" stroke-linejoin="round"/>
<path d="M2.9666 11.6115C0.949935 12.9615 0.949935 15.1615 2.9666 16.5032C5.25827 18.0365 9.0166 18.0365 11.3083 16.5032C13.3249 15.1532 13.3249 12.9532 11.3083 11.6115C9.02494 10.0865 5.2666 10.0865 2.9666 11.6115Z" stroke="#605E5C" stroke-width="1.5" stroke-linecap="round" stroke-linejoin="round"/>
</svg>
