<svg width="18" height="18" viewBox="0 0 18 18" fill="none" xmlns="http://www.w3.org/2000/svg">
<path d="M8.16699 16.2917C3.68366 16.2917 0.0419922 12.6501 0.0419922 8.16675C0.0419922 3.68341 3.68366 0.041748 8.16699 0.041748C12.6503 0.041748 16.292 3.68341 16.292 8.16675C16.292 12.6501 12.6503 16.2917 8.16699 16.2917ZM8.16699 1.29175C4.37533 1.29175 1.29199 4.37508 1.29199 8.16675C1.29199 11.9584 4.37533 15.0417 8.16699 15.0417C11.9587 15.0417 15.042 11.9584 15.042 8.16675C15.042 4.37508 11.9587 1.29175 8.16699 1.29175Z" fill="#323130"/>
<path d="M15.7996 17.9917C15.7329 17.9917 15.6663 17.9833 15.6079 17.975C15.2163 17.925 14.5079 17.6583 14.1079 16.4667C13.8996 15.8417 13.9746 15.2167 14.3163 14.7417C14.6579 14.2667 15.2329 14 15.8913 14C16.7413 14 17.4079 14.325 17.7079 14.9C18.0079 15.475 17.9246 16.2083 17.4496 16.9167C16.8579 17.8083 16.2163 17.9917 15.7996 17.9917ZM15.2996 16.075C15.4413 16.5083 15.6413 16.725 15.7746 16.7417C15.9079 16.7583 16.1579 16.6 16.4163 16.225C16.6579 15.8667 16.6746 15.6083 16.6163 15.4917C16.5579 15.375 16.3246 15.25 15.8913 15.25C15.6329 15.25 15.4413 15.3333 15.3329 15.475C15.2329 15.6167 15.2163 15.8333 15.2996 16.075Z" fill="#323130"/>
</svg>
