<svg width="20" height="19" viewBox="0 0 20 19" fill="none" xmlns="http://www.w3.org/2000/svg">
<path d="M10 11.9783C11.3807 11.9783 12.5 10.859 12.5 9.47827C12.5 8.09756 11.3807 6.97827 10 6.97827C8.61929 6.97827 7.5 8.09756 7.5 9.47827C7.5 10.859 8.61929 11.9783 10 11.9783Z" stroke="#323130" stroke-width="1.5" stroke-miterlimit="10" stroke-linecap="round" stroke-linejoin="round"/>
<path d="M1.66699 10.2116V8.74497C1.66699 7.8783 2.37533 7.16163 3.25033 7.16163C4.75866 7.16163 5.37533 6.09497 4.61699 4.78663C4.18366 4.03663 4.44199 3.06163 5.20033 2.6283L6.64199 1.8033C7.30033 1.41163 8.15033 1.64497 8.54199 2.3033L8.63366 2.46163C9.38366 3.76997 10.617 3.76997 11.3753 2.46163L11.467 2.3033C11.8587 1.64497 12.7087 1.41163 13.367 1.8033L14.8087 2.6283C15.567 3.06163 15.8253 4.03663 15.392 4.78663C14.6337 6.09497 15.2503 7.16163 16.7587 7.16163C17.6253 7.16163 18.342 7.86997 18.342 8.74497V10.2116C18.342 11.0783 17.6337 11.795 16.7587 11.795C15.2503 11.795 14.6337 12.8616 15.392 14.17C15.8253 14.9283 15.567 15.895 14.8087 16.3283L13.367 17.1533C12.7087 17.545 11.8587 17.3116 11.467 16.6533L11.3753 16.495C10.6253 15.1866 9.39199 15.1866 8.63366 16.495L8.54199 16.6533C8.15033 17.3116 7.30033 17.545 6.64199 17.1533L5.20033 16.3283C4.44199 15.895 4.18366 14.92 4.61699 14.17C5.37533 12.8616 4.75866 11.795 3.25033 11.795C2.37533 11.795 1.66699 11.0783 1.66699 10.2116Z" stroke="#323130" stroke-width="1.5" stroke-miterlimit="10" stroke-linecap="round" stroke-linejoin="round"/>
</svg>
