<svg width="22" height="22" viewBox="0 0 22 22" fill="none" xmlns="http://www.w3.org/2000/svg">
<path d="M8.15957 9.87C8.05957 9.86 7.93957 9.86 7.82957 9.87C5.44957 9.79 3.55957 7.84 3.55957 5.44C3.55957 2.99 5.53957 1 7.99957 1C10.4496 1 12.4396 2.99 12.4396 5.44C12.4296 7.84 10.5396 9.79 8.15957 9.87Z" stroke="#323130" stroke-width="1.5" stroke-linecap="round" stroke-linejoin="round"/>
<path d="M15.4103 3C17.3503 3 18.9103 4.57 18.9103 6.5C18.9103 8.39 17.4103 9.93 15.5403 10C15.4603 9.99 15.3703 9.99 15.2803 10" stroke="#323130" stroke-width="1.5" stroke-linecap="round" stroke-linejoin="round"/>
<path d="M3.15973 13.56C0.739727 15.18 0.739727 17.82 3.15973 19.43C5.90973 21.27 10.4197 21.27 13.1697 19.43C15.5897 17.81 15.5897 15.17 13.1697 13.56C10.4297 11.73 5.91973 11.73 3.15973 13.56Z" stroke="#323130" stroke-width="1.5" stroke-linecap="round" stroke-linejoin="round"/>
<path d="M17.3398 19C18.0598 18.85 18.7398 18.56 19.2998 18.13C20.8598 16.96 20.8598 15.03 19.2998 13.86C18.7498 13.44 18.0798 13.16 17.3698 13" stroke="#323130" stroke-width="1.5" stroke-linecap="round" stroke-linejoin="round"/>
</svg>
