<svg width="162" height="162" viewBox="0 0 162 162" fill="none" xmlns="http://www.w3.org/2000/svg">
<path d="M42.531 116.869H71.0527V94.8695H42.531V116.869Z" fill="#F5F5F5"/>
<path d="M49.6748 116.715C49.7137 116.715 49.7461 111.81 49.7461 105.764C49.7461 99.7179 49.7137 94.8125 49.6748 94.8125C49.6359 94.8125 49.6035 99.7146 49.6035 105.764C49.6035 111.813 49.6359 116.715 49.6748 116.715Z" fill="#EBEBEB"/>
<path d="M44.9439 114.332H47.1309V111.86H44.9439V114.332Z" fill="#FAFAFA"/>
<path d="M62.3494 94.9258H59.1094V99.6205H62.3494V94.9258Z" fill="#EBEBEB"/>
<path d="M62.3494 112.109H59.1094V116.804H62.3494V112.109Z" fill="#EBEBEB"/>
<path d="M12.1814 153.109H40.7031V131.11H12.1814L12.1814 153.109Z" fill="#F5F5F5"/>
<path d="M19.3291 152.953C19.368 152.953 19.4004 148.051 19.4004 142.002C19.4004 135.953 19.368 131.051 19.3291 131.051C19.2902 131.051 19.2578 135.953 19.2578 142.002C19.2578 148.051 19.2902 152.953 19.3291 152.953Z" fill="#EBEBEB"/>
<path d="M14.5982 150.576H16.7852V148.104H14.5982V150.576Z" fill="#FAFAFA"/>
<path d="M32.0037 131.168H28.7637V135.863H32.0037V131.168Z" fill="#EBEBEB"/>
<path d="M32.0037 148.35H28.7637V153.044H32.0037V148.35Z" fill="#EBEBEB"/>
<path d="M119.376 153.109H156.244V124.675H119.376V153.109Z" fill="#EBEBEB"/>
<path d="M128.628 152.909C128.68 152.909 128.722 146.571 128.722 138.756C128.722 130.942 128.68 124.598 128.628 124.598C128.576 124.598 128.537 130.935 128.537 138.756C128.537 146.578 128.566 152.909 128.628 152.909Z" fill="#E0E0E0"/>
<path d="M122.507 149.834H125.332V146.639H122.507V149.834Z" fill="#FAFAFA"/>
<path d="M144.997 124.75H140.811V130.819H144.997V124.75Z" fill="#E0E0E0"/>
<path d="M144.997 146.959H140.811V153.028H144.997V146.959Z" fill="#E0E0E0"/>
<path d="M82.9392 116.85H35.8555V153.164H82.9392V116.85Z" fill="#EBEBEB"/>
<path d="M71.1428 152.928C71.091 152.928 71.0488 144.828 71.0488 134.849C71.0488 124.87 71.091 116.77 71.1428 116.77C71.1946 116.77 71.2367 124.87 71.2367 134.849C71.2367 144.828 71.1946 152.928 71.1428 152.928Z" fill="#E0E0E0"/>
<path d="M78.9492 144.902H75.3398V148.982H78.9492V144.902Z" fill="#FAFAFA"/>
<path d="M55.568 116.943H50.2188V124.693H55.568V116.943Z" fill="#E0E0E0"/>
<path d="M55.568 145.311H50.2188V153.061H55.568V145.311Z" fill="#E0E0E0"/>
<path d="M149.492 14.3594H121.547V54.8659H149.492V14.3594Z" fill="#E0E0E0"/>
<path d="M148.09 14.3594H120.145V54.8659H148.09V14.3594Z" fill="#F5F5F5"/>
<path d="M144.621 18.7461H123.619V50.4787H144.621V18.7461Z" fill="white"/>
<path d="M144.62 50.4793C144.62 50.4793 144.62 50.4242 144.62 50.3238C144.62 50.2233 144.62 50.0711 144.62 49.8734C144.62 49.4749 144.62 48.9014 144.62 48.1335C144.62 46.614 144.62 44.3978 144.601 41.5985C144.601 36.003 144.581 28.0779 144.565 18.7467L144.636 18.818H123.638L123.715 18.7403C123.715 30.7283 123.715 41.7443 123.715 50.4728L123.654 50.4113L138.94 50.4437H143.152H144.26H144.643H144.273H143.175H138.963L123.638 50.4761H123.576V50.4145C123.576 41.6892 123.576 30.6505 123.576 18.6819V18.6074H123.654H144.652H144.724V18.6755C144.724 28.0261 144.698 35.9641 144.691 41.5725C144.691 44.3654 144.675 46.5751 144.672 48.0914C144.672 48.8431 144.672 49.4231 144.672 49.8183C144.672 50.0127 144.672 50.1585 144.672 50.2622C144.672 50.3659 144.62 50.4793 144.62 50.4793Z" fill="#E0E0E0"/>
<path d="M148.172 14.3594C148.027 14.6158 147.86 14.8587 147.673 15.0851C147.349 15.5193 146.889 16.109 146.377 16.7473C145.865 17.3855 145.359 17.9525 144.996 18.3673C144.812 18.5948 144.605 18.8041 144.381 18.9926C144.539 18.7458 144.718 18.5128 144.915 18.296L146.26 16.676L147.605 15.056C147.775 14.8089 147.964 14.576 148.172 14.3594Z" fill="#E0E0E0"/>
<path d="M144.727 50.375C145.77 52.0361 147 53.5731 148.391 54.9564L144.727 50.375Z" fill="white"/>
<path d="M148.39 54.9564C148.153 54.7886 147.935 54.594 147.742 54.3764C147.37 53.9973 146.871 53.453 146.362 52.818C145.928 52.2763 145.524 51.7117 145.15 51.1267C144.982 50.892 144.838 50.64 144.723 50.375C144.911 50.5933 145.083 50.825 145.238 51.0684C145.562 51.4993 145.98 52.0922 146.485 52.724C146.991 53.3558 147.457 53.9066 147.827 54.3019C148.029 54.5067 148.218 54.7254 148.39 54.9564Z" fill="#E0E0E0"/>
<path d="M120.143 54.833L123.804 50.3164L120.143 54.833Z" fill="white"/>
<path d="M123.804 50.3164C123.253 51.1154 122.662 51.8854 122.032 52.6233C121.441 53.3921 120.81 54.1297 120.143 54.833C120.693 54.034 121.285 53.264 121.915 52.5261C122.507 51.7581 123.137 51.0206 123.804 50.3164Z" fill="#E0E0E0"/>
<path d="M120.145 14.3594C120.776 15.0343 121.37 15.7439 121.923 16.4848C122.518 17.1915 123.071 17.9326 123.579 18.7042C122.95 18.0277 122.357 17.3183 121.803 16.5788C121.21 15.8699 120.656 15.129 120.145 14.3594Z" fill="#E0E0E0"/>
<path d="M138.076 25.1914H131.045V45.1563H138.076V25.1914Z" fill="#E0E0E0"/>
<path d="M48.5934 14.3594H20.6484V54.8659H48.5934V14.3594Z" fill="#E0E0E0"/>
<path d="M47.193 14.3594H19.248V54.8659H47.193V14.3594Z" fill="#F5F5F5"/>
<path d="M43.7224 18.7461H22.7207V50.4787H43.7224V18.7461Z" fill="white"/>
<path d="M43.7391 50.4793C43.7391 50.4793 43.7391 50.4242 43.7391 50.3238C43.7391 50.2233 43.7391 50.0711 43.7391 49.8734C43.7391 49.4749 43.7391 48.9014 43.7391 48.1335C43.7391 46.614 43.7391 44.3978 43.7197 41.5985C43.7197 36.003 43.7002 28.0779 43.684 18.7467L43.7553 18.818H22.7569L22.8314 18.7403C22.8314 30.7283 22.8314 41.7443 22.8314 50.4728L22.7698 50.4113L38.0562 50.4437H42.2682H43.3795H43.7618H43.3892H42.2941H38.0821L22.7569 50.4761H22.6953V50.4145C22.6953 41.6892 22.6953 30.6505 22.6953 18.6819V18.6074H22.7763H43.7748H43.8428V18.6755C43.8428 28.0261 43.8169 35.9641 43.8104 41.5725C43.8104 44.3654 43.7942 46.5751 43.791 48.0914C43.791 48.8431 43.791 49.4231 43.791 49.8183C43.791 50.0127 43.791 50.1585 43.791 50.2622C43.791 50.3659 43.7391 50.4793 43.7391 50.4793Z" fill="#E0E0E0"/>
<path d="M47.2738 14.3594C47.1296 14.6158 46.9626 14.8587 46.7748 15.0851C46.4508 15.5193 45.9875 16.109 45.4626 16.7473C44.9378 17.3855 44.4453 17.9525 44.0824 18.3673C43.8975 18.5948 43.6914 18.8041 43.4668 18.9926C43.6252 18.7458 43.804 18.5128 44.0014 18.296L45.346 16.676L46.6906 15.056C46.8645 14.8073 47.0596 14.5743 47.2738 14.3594Z" fill="#E0E0E0"/>
<path d="M43.8301 50.375C44.8738 52.0353 46.1021 53.5722 47.4913 54.9564L43.8301 50.375Z" fill="white"/>
<path d="M47.4906 54.9564C47.2543 54.7871 47.037 54.5926 46.8426 54.3764C45.8723 53.3859 45.004 52.3005 44.2506 51.1364C44.0834 50.9013 43.9412 50.6494 43.8262 50.3848C44.0146 50.603 44.1867 50.8348 44.3413 51.0781C44.6491 51.509 45.0833 52.102 45.5855 52.7338C46.0877 53.3656 46.5575 53.9164 46.9268 54.3116C47.1317 54.5112 47.3202 54.7268 47.4906 54.9564Z" fill="#E0E0E0"/>
<path d="M19.2441 54.833L22.9053 50.3164L19.2441 54.833Z" fill="white"/>
<path d="M22.9053 50.3164C22.3547 51.1154 21.7632 51.8854 21.1331 52.6233C20.5422 53.3921 19.9117 54.1297 19.2441 54.833C19.7947 54.034 20.3863 53.264 21.0164 52.5261C21.6083 51.7581 22.2388 51.0206 22.9053 50.3164Z" fill="#E0E0E0"/>
<path d="M19.248 14.3594C19.8799 15.0343 20.4738 15.7439 21.0268 16.4848C21.6182 17.1935 22.1698 17.9345 22.6792 18.7042C22.0501 18.0277 21.4574 17.3183 20.9037 16.5788C20.3116 15.8698 19.7589 15.1289 19.248 14.3594Z" fill="#E0E0E0"/>
<path d="M37.1773 25.1914H30.1465V45.1563H37.1773V25.1914Z" fill="#E0E0E0"/>
<path d="M96.817 14.3652H73.502V38.6685H96.817V14.3652Z" fill="#E0E0E0"/>
<path d="M95.2389 14.3652H71.9238V38.6685H95.2389V14.3652Z" fill="#FAFAFA"/>
<path d="M95.2557 38.6788H71.9277V14.3594H95.2557V38.6788ZM71.9277 38.6788H95.2298V14.3788H71.9277V38.6788Z" fill="#E0E0E0"/>
<path d="M92.1023 17.6348H75.0566V35.4029H92.1023V17.6348Z" fill="white"/>
<path d="M75.0577 35.5234C74.9392 35.7032 74.7988 35.8676 74.6397 36.0127C74.3675 36.2978 73.9917 36.6866 73.5543 37.111C73.1169 37.5355 72.7313 37.9081 72.4397 38.177C72.2937 38.3336 72.1282 38.4708 71.9473 38.5852C72.0705 38.4091 72.2116 38.2462 72.3685 38.0992C72.6406 37.8109 73.0165 37.4221 73.4539 36.9976C73.8913 36.5732 74.2768 36.1974 74.5684 35.9317C74.7144 35.7763 74.8786 35.6392 75.0577 35.5234Z" fill="#E0E0E0"/>
<path d="M92.1055 35.4785C92.2839 35.6001 92.448 35.7414 92.5947 35.8997C92.8798 36.1719 93.2686 36.5477 93.6931 36.9851C94.1175 37.4225 94.4901 37.8081 94.759 38.0964C94.9129 38.2459 95.0508 38.4109 95.1705 38.5889C94.9907 38.4705 94.8264 38.3301 94.6813 38.171C94.3962 37.8988 94.0041 37.523 93.5797 37.0856C93.1552 36.6482 92.7794 36.2594 92.5137 35.971C92.3578 35.8243 92.2207 35.6589 92.1055 35.4785Z" fill="#E0E0E0"/>
<path d="M92.0566 17.6809C92.1782 17.5025 92.3195 17.3384 92.4778 17.1917C92.75 16.9066 93.1258 16.5178 93.5632 16.0933C94.0006 15.6689 94.3862 15.2963 94.6746 15.0274C94.8221 14.8711 94.9886 14.734 95.1703 14.6191C95.0471 14.7953 94.9059 14.9581 94.7491 15.1051C94.4769 15.3935 94.1011 15.7823 93.6637 16.2067C93.2263 16.6312 92.8407 17.007 92.5491 17.2727C92.4034 17.4296 92.2378 17.5668 92.0566 17.6809Z" fill="#E0E0E0"/>
<path d="M75.0123 17.7256C74.8339 17.6041 74.6698 17.4628 74.5231 17.3044C74.2347 17.0323 73.8459 16.6564 73.4247 16.2223C73.0035 15.7881 72.6277 15.3993 72.3587 15.1077C72.2049 14.9583 72.067 14.7932 71.9473 14.6152C72.1271 14.7337 72.2914 14.8741 72.4365 15.0332C72.7216 15.3054 73.1137 15.6812 73.5349 16.1186C73.9561 16.556 74.3384 16.9448 74.6041 17.2364C74.7603 17.3815 74.8975 17.5459 75.0123 17.7256Z" fill="#E0E0E0"/>
<path d="M92.0568 35.4036C92.0568 35.4036 92.0568 35.3745 92.0568 35.3194C92.0568 35.2643 92.0568 35.1768 92.0568 35.0699C92.0568 34.8463 92.0568 34.5256 92.0568 34.0979C92.0568 33.2555 92.0568 32.0308 92.0373 30.4756C92.0373 27.3652 92.0179 22.9296 92.0049 17.6225L92.0697 17.6873H75.0727L75.1505 17.6128C75.1505 24.1349 75.1505 30.2488 75.1505 35.3809L75.0824 35.3161L87.3944 35.3485L90.8515 35.368H91.7652H92.0892C92.0892 35.368 92.0665 35.368 92.0147 35.368H91.7846H90.8839L87.4398 35.3842L75.0889 35.4166H75.0273V35.3518C75.0273 30.2067 75.0273 24.1057 75.0273 17.5836V17.5059H75.1051H92.1021H92.1702V17.5739C92.1702 22.9005 92.1443 27.349 92.1345 30.4691C92.1345 32.0178 92.1345 33.2393 92.1183 34.0752C92.1183 34.4867 92.1183 34.8042 92.1183 35.0245C92.1183 35.125 92.1183 35.206 92.1183 35.2643C92.1092 35.315 92.0881 35.3627 92.0568 35.4036Z" fill="#E0E0E0"/>
<path d="M86.4258 23.6738H80.7363V29.3633H86.4258V23.6738Z" fill="#EBEBEB"/>
<path d="M129.686 141.112C129.686 141.112 127.93 129.043 128.066 122.022C128.202 115.001 128.066 107.102 128.066 107.102H128.876C128.876 107.102 128.329 121.034 128.925 129.458C129.521 137.882 131.089 141.122 131.089 141.122H129.686" fill="#263238"/>
<path d="M134.917 93.5203C134.789 93.0924 134.531 92.7152 134.178 92.4413C133.666 92.1173 132.993 92.2534 132.419 92.4413C129.976 93.3064 127.809 97.8619 126.82 100.259L130.06 111.194C135.925 105.774 136.939 98.6459 134.917 93.5203Z" fill="#455A64"/>
<path d="M133.99 92.8849C133.979 92.9339 133.962 92.9817 133.942 93.0275L133.783 93.426C133.64 93.7695 133.443 94.2684 133.203 94.8905C132.723 96.1314 132.117 97.8681 131.583 99.825C131.048 101.782 130.666 103.58 130.436 104.892C130.319 105.54 130.235 106.078 130.177 106.448C130.151 106.619 130.128 106.772 130.109 106.869C130.103 106.919 130.092 106.969 130.076 107.018C130.068 106.967 130.068 106.916 130.076 106.866C130.076 106.755 130.102 106.613 130.122 106.441C130.16 106.068 130.232 105.534 130.335 104.876C130.887 101.443 131.821 98.0813 133.119 94.8549C133.368 94.2393 133.582 93.7435 133.737 93.4033L133.922 93.0145C133.961 92.927 133.984 92.8817 133.99 92.8849Z" fill="#263238"/>
<path d="M128.628 113.829C125.586 112.148 123.794 108.986 123.625 105.516C123.509 103.089 124.254 100.707 125.1 98.4297C125.149 98.2236 125.271 98.0421 125.443 97.9177C125.581 97.8675 125.729 97.853 125.874 97.8756C126.019 97.8983 126.156 97.9574 126.272 98.0473C128.482 99.3045 129.82 101.705 130.533 104.145C131.043 105.765 131.214 107.472 131.035 109.161C130.757 110.936 129.912 112.573 128.628 113.829Z" fill="#455A64"/>
<path d="M128.627 113.829C128.62 113.781 128.62 113.732 128.627 113.683C128.627 113.57 128.627 113.434 128.627 113.262C128.627 112.899 128.611 112.371 128.582 111.72C128.482 110.027 128.28 108.341 127.979 106.672C127.655 104.712 127.234 102.959 126.933 101.692C126.784 101.07 126.66 100.561 126.573 100.189C126.534 100.024 126.502 99.8875 126.479 99.7806C126.464 99.7332 126.456 99.6843 126.453 99.6348C126.477 99.6787 126.494 99.7255 126.505 99.7741C126.534 99.881 126.573 100.014 126.622 100.176C126.722 100.529 126.861 101.038 127.023 101.669C127.347 102.93 127.772 104.683 128.112 106.649C128.404 108.324 128.58 110.017 128.64 111.717C128.656 112.365 128.656 112.899 128.64 113.262C128.64 113.434 128.64 113.586 128.621 113.683C128.628 113.732 128.63 113.781 128.627 113.829Z" fill="#263238"/>
<g opacity="0.3">
<path d="M128.628 113.829C125.586 112.148 123.794 108.986 123.625 105.516C123.509 103.089 124.254 100.707 125.1 98.4297C125.149 98.2236 125.271 98.0421 125.443 97.9177C125.581 97.8675 125.729 97.853 125.874 97.8756C126.019 97.8983 126.156 97.9574 126.272 98.0473C128.482 99.3045 129.82 101.705 130.533 104.145C131.043 105.765 131.214 107.472 131.035 109.161C130.757 110.936 129.912 112.573 128.628 113.829Z" fill="#2E2E2E"/>
</g>
<path d="M132.055 132.293C135.048 132.941 137.514 135.063 140.401 136.09C142.313 136.77 144.47 137.01 145.996 138.358C145.63 137.435 144.762 136.819 143.92 136.291C141.542 134.806 139.004 133.596 136.354 132.681C134.997 132.212 133.522 131.82 132.142 132.205" fill="#455A64"/>
<path d="M127.726 134.963C123.978 134.901 120.031 131.723 116.299 131.519C120.203 130.258 125.795 131.289 127.726 134.963Z" fill="#455A64"/>
<path d="M129.191 125.968C131.097 125.281 133.186 125.249 135.185 125.56C137.184 125.871 139.116 126.513 141.037 127.151C140.842 125.855 139.789 124.883 138.801 124.005C138.077 123.331 137.29 122.727 136.452 122.2C135.607 121.673 134.629 121.398 133.633 121.406C133.036 121.445 132.453 121.604 131.919 121.872C131.385 122.141 130.91 122.515 130.523 122.971C129.767 123.8 129.299 124.852 129.191 125.968Z" fill="#455A64"/>
<path d="M121.499 121.826C119.141 119.814 115.567 120.008 112.463 120.079C117.447 122.456 122.149 125.385 126.479 128.811C126.602 126.621 124.477 124.376 121.499 121.826Z" fill="#455A64"/>
<g opacity="0.3">
<path d="M121.499 121.826C119.141 119.814 115.567 120.008 112.463 120.079C117.447 122.456 122.149 125.385 126.479 128.811C126.602 126.621 124.477 124.376 121.499 121.826Z" fill="#2E2E2E"/>
</g>
<path d="M130.247 119.047C131.398 118.248 132.612 117.543 133.876 116.938C135.117 116.374 136.277 115.474 137.475 114.826C139.031 113.983 140.391 112.81 141.807 111.767C143.223 110.724 144.804 109.781 146.551 109.499C145.113 109.241 143.634 109.327 142.235 109.749C140.841 110.167 139.483 110.695 138.172 111.326C136.328 112.156 134.456 113.008 132.952 114.353C131.449 115.697 130.088 117.029 130.247 119.041" fill="#455A64"/>
<path d="M140.333 134.962C140.292 134.95 140.251 134.932 140.214 134.911L139.89 134.739C139.608 134.59 139.203 134.366 138.691 134.11C138.438 133.978 138.159 133.838 137.855 133.696C137.55 133.553 137.229 133.398 136.883 133.249C136.137 132.916 135.364 132.647 134.573 132.445C133.789 132.227 132.963 132.206 132.169 132.383C131.822 132.46 131.482 132.562 131.151 132.688C130.448 132.976 129.815 133.411 129.295 133.965C129.078 134.198 128.971 134.34 128.971 134.334C128.988 134.294 129.011 134.257 129.039 134.224C129.108 134.121 129.184 134.023 129.266 133.929C129.562 133.583 129.905 133.281 130.286 133.031C130.549 132.857 130.828 132.708 131.119 132.588C131.453 132.453 131.798 132.344 132.149 132.264C132.963 132.076 133.81 132.094 134.615 132.315C135.413 132.519 136.191 132.794 136.941 133.135C137.288 133.291 137.615 133.443 137.913 133.595C138.211 133.747 138.496 133.887 138.746 134.026C139.251 134.295 139.65 134.532 139.925 134.694L140.249 134.885C140.28 134.907 140.309 134.933 140.333 134.962Z" fill="#263238"/>
<path d="M124.93 133.104C125.011 133.114 125.089 133.137 125.163 133.172C125.372 133.249 125.576 133.337 125.776 133.437C127.097 134.105 128.188 135.153 128.909 136.447C129.017 136.641 129.113 136.841 129.197 137.047C129.235 137.12 129.261 137.199 129.275 137.28C129.255 137.28 129.113 136.972 128.824 136.496C128.449 135.876 127.995 135.308 127.473 134.805C126.95 134.3 126.364 133.864 125.73 133.509C125.244 133.253 124.92 133.126 124.93 133.104Z" fill="#263238"/>
<path d="M116.639 121.641C116.693 121.652 116.746 121.669 116.797 121.689L117.248 121.848L117.957 122.11C118.233 122.214 118.534 122.366 118.874 122.515C120.637 123.327 122.283 124.372 123.767 125.623C124.571 126.319 125.329 127.068 126.035 127.865C126.61 128.518 127.151 129.202 127.655 129.912C128.082 130.518 128.41 131.024 128.627 131.374L128.883 131.775C128.916 131.821 128.944 131.87 128.967 131.921C128.929 131.881 128.894 131.837 128.863 131.792C128.795 131.704 128.701 131.571 128.585 131.403C128.348 131.059 128.011 130.564 127.577 129.967C127.143 129.371 126.605 128.671 125.957 127.946C125.248 127.159 124.491 126.418 123.689 125.726C122.215 124.485 120.591 123.434 118.855 122.6C118.531 122.444 118.207 122.276 117.948 122.178L117.248 121.897L116.807 121.715C116.748 121.697 116.692 121.672 116.639 121.641Z" fill="#263238"/>
<path d="M134.816 123.86C134.715 123.861 134.615 123.849 134.518 123.825L134.174 123.76C134.038 123.734 133.883 123.734 133.714 123.714C133.026 123.65 132.332 123.741 131.683 123.98C131.035 124.219 130.448 124.6 129.965 125.095C129.679 125.379 129.425 125.696 129.21 126.038C129.016 126.349 128.843 126.674 128.695 127.01C128.707 126.909 128.732 126.811 128.77 126.718C128.865 126.46 128.986 126.211 129.129 125.976C129.338 125.623 129.588 125.297 129.875 125.004C130.223 124.641 130.628 124.337 131.073 124.103C131.887 123.679 132.809 123.51 133.721 123.617C133.892 123.643 134.045 123.65 134.187 123.682L134.531 123.77C134.629 123.79 134.724 123.82 134.816 123.86Z" fill="#263238"/>
<path d="M138.584 112.174C138.539 112.208 138.491 112.237 138.441 112.261L138.023 112.488C137.66 112.686 137.139 112.974 136.5 113.347C135.862 113.719 135.123 114.192 134.33 114.759C133.464 115.366 132.653 116.047 131.906 116.794C131.517 117.179 131.183 117.615 130.911 118.09C130.668 118.56 130.432 119.017 130.218 119.454C129.829 120.226 129.481 121.018 129.175 121.826C128.973 122.371 128.804 122.929 128.669 123.494C128.572 123.896 128.536 124.123 128.523 124.12C128.525 124.064 128.531 124.009 128.54 123.954C128.54 123.848 128.575 123.686 128.617 123.485C128.732 122.91 128.889 122.345 129.087 121.793C129.38 120.976 129.72 120.177 130.105 119.399C130.318 118.958 130.552 118.502 130.798 118.029C131.073 117.546 131.413 117.103 131.809 116.713C132.562 115.96 133.381 115.277 134.258 114.672C135.059 114.108 135.813 113.648 136.455 113.279C137.096 112.909 137.628 112.631 138 112.456L138.431 112.248C138.479 112.218 138.53 112.193 138.584 112.174Z" fill="#263238"/>
<path d="M128.073 123.522C128.035 123.417 128.01 123.309 127.998 123.198C127.953 122.965 127.898 122.676 127.833 122.33C127.653 121.379 127.416 120.44 127.124 119.517C126.82 118.599 126.463 117.699 126.054 116.822L125.688 116.018C125.638 115.922 125.597 115.821 125.568 115.717C125.635 115.803 125.69 115.896 125.734 115.995C125.834 116.177 125.973 116.446 126.139 116.78C126.575 117.65 126.948 118.551 127.253 119.475C127.547 120.403 127.773 121.352 127.927 122.313C127.985 122.683 128.028 122.981 128.05 123.188C128.07 123.298 128.078 123.41 128.073 123.522Z" fill="#263238"/>
<path d="M127.801 114.996C127.684 113.576 127.269 112.197 126.583 110.949C125.658 109.23 124.368 107.735 122.804 106.568C121.239 105.401 119.438 104.59 117.527 104.193L125.909 116.69L127.008 118.909C127.73 117.707 127.895 116.411 127.801 114.996Z" fill="#455A64"/>
<path d="M139.827 139.619H120.332V143.073H139.827V139.619Z" fill="#3F8EFC"/>
<path d="M121.787 142.389L123.446 153.11H136.39L138.369 142.389H121.787Z" fill="#3F8EFC"/>
<path d="M139.815 143.08C139.815 143.119 135.418 143.148 129.994 143.148C124.571 143.148 120.174 143.119 120.174 143.08C120.174 143.041 124.571 143.012 129.994 143.012C135.418 143.012 139.815 143.044 139.815 143.08Z" fill="#263238"/>
<path d="M153.298 153.077C153.298 153.103 120.927 153.126 81.0037 153.126C41.0804 153.126 8.70312 153.103 8.70312 153.077C8.70312 153.051 41.0675 153.025 81.0037 153.025C120.94 153.025 153.298 153.048 153.298 153.077Z" fill="#263238"/>
<path d="M32.3881 29.0851C33.1662 24.4402 30.0315 20.0438 25.3866 19.2657C20.7416 18.4876 16.3453 21.6223 15.5671 26.2673C14.789 30.9122 17.9237 35.3085 22.5687 36.0867C27.2137 36.8648 31.61 33.7301 32.3881 29.0851Z" fill="white"/>
<path d="M32.5047 27.676C32.4999 27.6308 32.4999 27.5851 32.5047 27.5399C32.5047 27.4395 32.5047 27.3066 32.4756 27.1349C32.4756 27.0442 32.4755 26.947 32.4561 26.8368C32.4367 26.7267 32.4205 26.61 32.401 26.4804C32.3566 26.1815 32.2916 25.886 32.2066 25.5959C32.0062 24.7964 31.6862 24.0318 31.2573 23.3279C30.2454 21.6414 28.6771 20.3605 26.8225 19.7059C24.9679 19.0512 22.9431 19.0637 21.0967 19.7412C20.719 19.8771 20.3509 20.0384 19.9951 20.224C19.6358 20.4228 19.2905 20.6457 18.9615 20.8914C18.6204 21.1414 18.2958 21.413 17.9895 21.7047C17.6955 22.0108 17.4227 22.3366 17.173 22.6799C16.6472 23.385 16.2391 24.1706 15.9645 25.0062C15.3856 26.7346 15.3856 28.6045 15.9645 30.3328C16.2391 31.1714 16.6472 31.9602 17.173 32.6688C17.4257 33.0115 17.7017 33.3363 17.9992 33.6408C18.3038 33.9343 18.6286 34.2061 18.9712 34.4541C19.2989 34.7016 19.6444 34.9247 20.0048 35.1215C20.361 35.3074 20.729 35.4698 21.1064 35.6075C22.9534 36.2762 24.9754 36.2829 26.8268 35.6264C28.6782 34.9698 30.2442 33.6908 31.2573 32.0079C31.6873 31.3046 32.0074 30.5398 32.2066 29.7399C32.2859 29.4516 32.3454 29.1582 32.3848 28.8618C32.4043 28.7355 32.4302 28.6156 32.4399 28.5054C32.4496 28.3953 32.4399 28.2981 32.4594 28.2106C32.4594 28.0389 32.482 27.9028 32.4885 27.8056C32.4838 27.7593 32.4838 27.7126 32.4885 27.6663C32.4928 27.7126 32.4928 27.7593 32.4885 27.8056C32.4885 27.906 32.4885 28.0389 32.4885 28.2106V28.5119C32.4885 28.6221 32.4593 28.7387 32.4431 28.8683C32.4091 29.168 32.3528 29.4647 32.2747 29.7561C32.0844 30.5629 31.7707 31.3356 31.3448 32.0468C30.7267 33.0982 29.8914 34.0057 28.8946 34.7086C27.8979 35.4114 26.7626 35.8935 25.5646 36.1227C24.0473 36.4084 22.4812 36.2831 21.0286 35.7598C20.6434 35.6207 20.2678 35.4562 19.9044 35.2673C19.5362 35.0677 19.1832 34.8414 18.8481 34.5902C18.5065 34.3362 18.1818 34.0602 17.8761 33.764C17.5739 33.45 17.2925 33.1167 17.0337 32.766C16.4975 32.0469 16.0806 31.2461 15.7993 30.3944C15.2075 28.6304 15.2075 26.7216 15.7993 24.9576C16.0806 24.1059 16.4975 23.305 17.0337 22.586C17.2918 22.2349 17.5744 21.9025 17.8794 21.5913C18.1834 21.2922 18.5082 21.0151 18.8514 20.7618C19.1922 20.5135 19.5494 20.2883 19.9205 20.0879C20.2892 19.8983 20.6702 19.7338 21.061 19.5954C22.4082 19.1094 23.8558 18.9694 25.2711 19.1885C26.6863 19.4076 28.0239 19.9787 29.161 20.8493C30.0353 21.5178 30.7714 22.3497 31.3286 23.2988C31.7593 24.011 32.0764 24.786 32.2682 25.5959C32.3463 25.8872 32.4026 26.184 32.4367 26.4837C32.4367 26.6133 32.4723 26.7332 32.482 26.8433V27.1414C32.482 27.3142 32.482 27.4503 32.482 27.5496C32.4934 27.591 32.5009 27.6333 32.5047 27.676Z" fill="#263238"/>
<path d="M21.674 25.7416H22.9052C22.9043 25.6014 22.9316 25.4625 22.9854 25.3331C23.0392 25.2036 23.1185 25.0863 23.2185 24.9881C23.3186 24.8899 23.4373 24.8128 23.5677 24.7613C23.6981 24.7099 23.8375 24.6852 23.9777 24.6886C24.1873 24.6803 24.3943 24.7385 24.5688 24.8549C24.7434 24.9713 24.8767 25.1399 24.9497 25.3366C25.0161 25.4978 25.0428 25.6726 25.0275 25.8463C25.0123 26.0199 24.9556 26.1874 24.8622 26.3346C24.6548 26.6812 24.1948 26.9826 23.3653 26.8465V29.6134H24.5836V27.9934C25.0839 27.8472 25.5223 27.5407 25.8314 27.1209C26.1405 26.7012 26.3031 26.1915 26.2943 25.6704C26.2943 23.8689 24.6743 23.4477 23.9842 23.4477C23.4528 23.438 21.6514 23.5676 21.674 25.7416Z" fill="#263238"/>
<path d="M24.5951 30.1875H23.3574V31.3442H24.5951V30.1875Z" fill="#263238"/>
<path d="M32.79 35.8514C33.4485 35.8514 33.9823 35.3176 33.9823 34.6591C33.9823 34.0006 33.4485 33.4668 32.79 33.4668C32.1315 33.4668 31.5977 34.0006 31.5977 34.6591C31.5977 35.3176 32.1315 35.8514 32.79 35.8514Z" fill="white"/>
<path d="M33.9815 34.6694C33.9538 34.5767 33.9311 34.4826 33.9135 34.3875C33.8388 34.14 33.6852 33.9238 33.4761 33.7719C33.3096 33.649 33.1124 33.5746 32.9062 33.5572C32.7 33.5397 32.4931 33.5798 32.3084 33.673C32.1237 33.7662 31.9684 33.9089 31.86 34.0851C31.7515 34.2613 31.6941 34.4641 31.6941 34.671C31.6941 34.8779 31.7515 35.0807 31.86 35.2569C31.9684 35.4331 32.1237 35.5758 32.3084 35.669C32.4931 35.7622 32.7 35.8023 32.9062 35.7848C33.1124 35.7674 33.3096 35.693 33.4761 35.5701C33.6845 35.4175 33.838 35.2016 33.9135 34.9545C33.9653 34.7763 33.9653 34.6694 33.9815 34.6694C34.0062 34.7683 34.0062 34.8718 33.9815 34.9707C33.9277 35.246 33.7757 35.4925 33.5538 35.6641C33.389 35.7959 33.1932 35.8833 32.985 35.9179C32.7769 35.9525 32.5633 35.9331 32.3647 35.8617C32.1177 35.775 31.9037 35.6137 31.7523 35.4001C31.6009 35.1865 31.5195 34.9312 31.5195 34.6694C31.5195 34.4076 31.6009 34.1522 31.7523 33.9386C31.9037 33.725 32.1177 33.5638 32.3647 33.4771C32.5635 33.4072 32.7768 33.3886 32.9847 33.4232C33.1925 33.4577 33.3883 33.5442 33.5538 33.6747C33.7744 33.8489 33.926 34.0958 33.9815 34.3713C34.0063 34.4691 34.0063 34.5716 33.9815 34.6694Z" fill="#263238"/>
<path d="M95.2071 85.7559H90.373V153.916H95.2071V85.7559Z" fill="#E0E0E0"/>
<path opacity="0.3" d="M90.3723 93.4315L95.2064 94.5655V90.739L90.3496 89.9258L90.3723 93.4315Z" fill="#2E2E2E"/>
<path d="M118.285 85.0032L93.9365 91.0523L66.4062 84.6533V81.5429L91.6329 75.5586L118.285 81.5429V85.0032Z" fill="#455A64"/>
<path d="M118.286 85.0042L118.163 85.0431L117.8 85.1435L116.4 85.5064L111.216 86.8024L93.9599 91.1343H93.9404H93.921L92.3755 90.7779L74.008 86.4817L68.4449 85.1597L66.935 84.7936L66.543 84.6932C66.4977 84.6839 66.4533 84.6709 66.4102 84.6543C66.4562 84.6567 66.5019 84.6643 66.5462 84.677L66.9415 84.758L68.4611 85.082L74.0339 86.3521L92.4144 90.5997L93.9566 90.9593H93.9178L111.2 86.6923L116.384 85.4319L117.79 85.1079L118.156 85.0237L118.286 85.0042Z" fill="#263238"/>
<path d="M118.285 81.9717C118.246 81.9879 118.204 81.9998 118.162 82.0073L117.793 82.1013L116.374 82.4415L111.131 83.6694L93.6677 87.6708H93.6483L92.3717 87.3922L74.0171 83.3487L68.4605 82.1045L66.9507 81.7578L66.5586 81.6639L66.4258 81.625L66.5619 81.6477L66.9571 81.7254L68.4735 82.0494L74.043 83.2418L92.4073 87.2367L93.6839 87.5186H93.6353L111.112 83.5625L116.37 82.3929L117.796 82.0689L118.169 81.9911C118.207 81.9809 118.246 81.9743 118.285 81.9717Z" fill="#263238"/>
<path d="M83.4316 153.11L90.3199 150.731L94.9304 150.66L102.266 153.11C102.266 153.11 97.3442 155.562 92.4615 155.562C88.0551 155.562 83.4316 153.11 83.4316 153.11Z" fill="#E0E0E0"/>
<path d="M95.191 150.844C95.024 151.044 94.8149 151.205 94.5787 151.314C94.0256 151.62 93.401 151.774 92.7691 151.759C92.1371 151.744 91.5204 151.562 90.9823 151.23C90.753 151.108 90.5521 150.939 90.3926 150.734C90.412 150.712 90.6291 150.906 91.0406 151.126C91.572 151.418 92.1657 151.578 92.7718 151.593C93.3779 151.607 93.9787 151.476 94.5236 151.211C94.9318 151.01 95.1716 150.822 95.191 150.844Z" fill="#263238"/>
<path d="M80.6747 48.4172C80.5691 48.3199 80.4746 48.2112 80.3929 48.0932L79.6703 47.2184C79.0612 46.4764 78.2156 45.4558 77.2662 44.3412C76.3169 43.2267 75.4421 42.2352 74.8071 41.516L74.0554 40.6638C73.9583 40.5641 73.8704 40.4556 73.793 40.3398C73.9105 40.4222 74.0191 40.5167 74.117 40.6217C74.3081 40.8096 74.577 41.0915 74.9075 41.4382C75.5555 42.138 76.4562 43.1198 77.4088 44.2343C78.3614 45.3489 79.1908 46.3857 79.774 47.1503C80.0689 47.5326 80.3021 47.8437 80.4577 48.0608C80.5421 48.1718 80.6149 48.2912 80.6747 48.4172Z" fill="#263238"/>
<path d="M94.0881 30.9023C94.1335 30.9023 94.1724 34.4663 94.1724 38.8598C94.1724 43.2532 94.1335 46.8205 94.0881 46.8205C94.0428 46.8205 94.0039 43.2565 94.0039 38.8598C94.0039 34.4631 94.0395 30.9023 94.0881 30.9023Z" fill="#263238"/>
<path d="M112.702 39C112.635 39.1386 112.556 39.2709 112.465 39.3953C112.306 39.6448 112.07 39.9979 111.775 40.4321C111.179 41.3004 110.34 42.4895 109.381 43.779C108.422 45.0685 107.524 46.2155 106.863 47.019C106.539 47.4305 106.261 47.7577 106.066 47.991C105.969 48.1091 105.86 48.2176 105.742 48.315C105.818 48.1812 105.906 48.0543 106.005 47.9359L106.756 46.9445C107.404 46.1053 108.273 44.9486 109.232 43.6624C110.191 42.3761 111.046 41.2 111.665 40.3478L112.4 39.3434C112.49 39.2196 112.59 39.1045 112.702 39Z" fill="#263238"/>
<path d="M86.2195 42.3518C86.1774 42.3518 85.7108 40.8971 85.1827 39.0762C84.8348 37.9835 84.5417 36.874 84.3047 35.752C84.35 35.752 84.8134 37.2035 85.3447 39.0276C85.8761 40.8517 86.2649 42.3389 86.2195 42.3518Z" fill="#263238"/>
<path d="M103.768 35.5098C103.694 35.8482 103.596 36.1807 103.473 36.5044C103.275 37.1103 103 37.9462 102.715 38.8761C102.429 39.806 102.18 40.6549 102.002 41.2672C101.918 41.5987 101.809 41.9236 101.678 42.2392C101.712 41.8947 101.778 41.5541 101.875 41.2219C102.024 40.5998 102.254 39.7477 102.543 38.8146C102.831 37.8814 103.123 37.0488 103.35 36.4494C103.462 36.1249 103.602 35.8105 103.768 35.5098Z" fill="#263238"/>
<path d="M71.2559 54.2174L93.1032 52.1309L115.352 54.2174L93.249 56.6539L71.2559 54.2174Z" fill="#3F8EFC"/>
<path d="M93.1777 85.755L71.2559 80.72V54.2168L93.249 56.6533L93.1777 85.755Z" fill="#3F8EFC"/>
<path d="M115.353 80.9598L93.0293 85.755L93.2496 56.6533L115.353 54.2168V80.9598Z" fill="#3F8EFC"/>
<path d="M100.327 67.1613H102.433C102.434 66.925 102.483 66.6916 102.578 66.475C102.672 66.2584 102.81 66.0633 102.982 65.9015C103.154 65.7397 103.357 65.6146 103.579 65.5337C103.801 65.4528 104.037 65.4179 104.273 65.4311C104.622 65.4145 104.968 65.5058 105.264 65.6924C105.559 65.879 105.79 66.152 105.925 66.4744C106.036 66.7396 106.081 67.0279 106.055 67.3142C106.029 67.6006 105.933 67.8762 105.776 68.1171C105.417 68.6841 104.633 69.1992 103.213 68.9562V73.5246H105.3V70.8484C105.3 70.8484 108.216 70.1226 108.216 67.0284C108.216 64.0638 105.449 63.377 104.266 63.377C103.356 63.377 100.284 63.5876 100.327 67.1613Z" fill="#263238"/>
<path d="M105.323 74.4668H103.207V76.3654H105.323V74.4668Z" fill="#263238"/>
<path d="M77.6 67.216H79.7028C79.7047 66.9797 79.7544 66.7463 79.8489 66.5298C79.9434 66.3133 80.0808 66.1182 80.2527 65.9562C80.4247 65.7942 80.6277 65.6688 80.8495 65.5874C81.0712 65.506 81.3072 65.4703 81.5431 65.4826C81.8927 65.4663 82.2388 65.5579 82.5344 65.7452C82.83 65.9324 83.0608 66.2061 83.1955 66.5291C83.3063 66.7943 83.3506 67.0826 83.3246 67.3689C83.2986 67.6552 83.2031 67.9308 83.0465 68.1718C82.6868 68.7355 81.9028 69.2507 80.4836 69.0109V73.5793H82.567V70.9031C82.567 70.9031 85.483 70.1773 85.483 67.0799C85.483 64.1185 82.716 63.4316 81.5334 63.4316C80.6424 63.4316 77.5579 63.6422 77.6 67.216Z" fill="#263238"/>
<path d="M82.5962 74.5234H80.4805V76.4221H82.5962V74.5234Z" fill="#263238"/>
<path opacity="0.3" d="M93.0287 85.755L71.2559 80.72V54.2168L93.249 56.6533L93.0287 85.755Z" fill="#2E2E2E"/>
<path d="M115.342 54.2207L115.232 54.2401L114.908 54.2823L113.648 54.4345L108.982 54.9756L93.2489 56.7382L93.3234 56.6539C93.3234 57.7523 93.3072 58.9219 93.2975 60.0851C93.2359 67.171 93.1776 73.5862 93.1355 78.2291C93.1063 80.5425 93.0836 82.4217 93.0674 83.7371C93.0674 84.3851 93.0448 84.8841 93.0383 85.234C93.0383 85.3992 93.0383 85.5256 93.0383 85.6228C93.0425 85.667 93.0425 85.7114 93.0383 85.7556C93.0341 85.7114 93.0341 85.667 93.0383 85.6228C93.0383 85.5256 93.0383 85.3992 93.0383 85.234C93.0383 84.8808 93.0383 84.3786 93.0383 83.7371C93.0383 82.4411 93.0383 80.5522 93.0545 78.2291C93.0836 73.5765 93.1258 67.1613 93.1679 60.0851C93.1679 58.909 93.1873 57.7523 93.197 56.6539V56.5794H93.2716L109.008 54.8752L113.68 54.3859L114.941 54.2628L115.265 54.2337C115.29 54.227 115.316 54.2226 115.342 54.2207Z" fill="#263238"/>
<path d="M83.0957 53.0871C83.0957 53.0417 88.0821 53.505 94.2186 54.1206C100.355 54.7362 105.325 55.2773 105.322 55.3259C105.319 55.3745 100.339 54.9079 94.1992 54.2891C88.0594 53.6702 83.0925 53.1357 83.0957 53.0871Z" fill="#263238"/>
</svg>
