<svg width="120" height="120" viewBox="0 0 120 120" fill="none" xmlns="http://www.w3.org/2000/svg">
<path d="M95 80V32.5C95 27 90.5 22.5 85 22.5H57.5" stroke="#C7E0F4" stroke-width="3" stroke-linecap="round" stroke-linejoin="round"/>
<path d="M70 10L55 22.5L70 35" stroke="#C7E0F4" stroke-width="3" stroke-linecap="round" stroke-linejoin="round"/>
<path d="M95 110C103.284 110 110 103.284 110 95C110 86.7157 103.284 80 95 80C86.7157 80 80 86.7157 80 95C80 103.284 86.7157 110 95 110Z" stroke="#C7E0F4" stroke-width="3" stroke-linecap="round" stroke-linejoin="round"/>
<path d="M25 40V87.5C25 93 29.5 97.5 35 97.5H62.5" stroke="#C7E0F4" stroke-width="3" stroke-linecap="round" stroke-linejoin="round"/>
<path d="M50 110L65 97.5L50 85" stroke="#C7E0F4" stroke-width="3" stroke-linecap="round" stroke-linejoin="round"/>
<path d="M25 40C33.2843 40 40 33.2843 40 25C40 16.7157 33.2843 10 25 10C16.7157 10 10 16.7157 10 25C10 33.2843 16.7157 40 25 40Z" stroke="#C7E0F4" stroke-width="3" stroke-linecap="round" stroke-linejoin="round"/>
</svg>
