<svg width="114" height="32" viewBox="0 0 114 32" fill="none" xmlns="http://www.w3.org/2000/svg">
<path d="M58.1918 17.3881L64.8907 10.9033H59.4342L54.4104 15.8642C54.3711 15.9028 54.3213 15.9291 54.2672 15.9399C54.2131 15.9508 54.157 15.9457 54.1058 15.9252C54.0546 15.9048 54.0104 15.8699 53.9787 15.8249C53.947 15.7798 53.9292 15.7265 53.9274 15.6715V3.73853H49.6572V26.4409H53.9255V20.1796C53.9195 20.1362 53.9285 20.0921 53.9511 20.0545C53.9736 20.0169 54.0084 19.988 54.0496 19.9728C54.0908 19.9575 54.136 19.9567 54.1777 19.9705C54.2194 19.9843 54.2552 20.0119 54.2791 20.0486L59.8631 26.4409H65.4182L58.1589 18.2955C58.0457 18.1693 57.9859 18.0044 57.9921 17.8352C57.9982 17.666 58.0698 17.5058 58.1918 17.3881Z" fill="#201F1E"/>
<path fill-rule="evenodd" clip-rule="evenodd" d="M21.0397 11.0613L21.0146 20.7518C20.9991 26.2443 15.2373 30.608 5.31543 30.6311V16.839C14.0896 16.1627 20.6378 13.847 21.0397 11.0593V11.0613Z" fill="#C7E0F4"/>
<path fill-rule="evenodd" clip-rule="evenodd" d="M21.061 10.7897C21.061 13.6968 14.3717 16.1397 5.31549 16.839V22.8113C2.51186 20.8212 0 19.7308 0 16.5038V0.5C9.52383 4.38776 21.061 1.75996 21.061 10.7897Z" fill="#141AE9"/>
<path d="M40.8316 14.2825C36.9228 13.4079 36.9228 12.4754 36.9228 11.9707C36.9228 10.2773 39.3013 10.1463 40.0298 10.1463C42.2383 10.1463 43.4034 11.0094 43.4884 12.7143L43.556 14.0167H47.7934L47.7412 12.5949C47.5885 8.49906 44.6342 5.9541 40.0298 5.9541C35.6108 5.9541 32.6429 8.37191 32.6429 11.9707C32.6429 16.1686 36.49 17.5981 39.8423 18.3765H39.8597C43.7377 19.2261 43.7377 20.1893 43.7377 20.7076C43.7377 22.4935 41.2258 22.6341 40.4529 22.6341C39.3496 22.6341 36.7643 22.3625 36.6175 19.8541L36.5421 18.5633H32.3164L32.3686 19.9851C32.5232 24.1407 35.6978 26.8243 40.4548 26.8243C42.6286 26.8243 44.4874 26.2811 45.8283 25.2504C46.5298 24.715 47.0956 24.023 47.4802 23.23C47.8647 22.437 48.0574 21.5652 48.0426 20.6844C48.0426 16.4904 44.1937 15.0589 40.8316 14.2825Z" fill="#201F1E"/>
<path d="M70.3205 11.6971L70.276 10.8533H66.3672V26.5084H70.5717V19.1875C70.5717 15.3806 72.4304 14.9491 73.8294 14.9491H76.3316V10.8533H73.8796C72.4768 10.8533 71.2982 11.1307 70.3205 11.6971Z" fill="#201F1E"/>
<path d="M80.7241 3.68829C80.3684 3.67833 80.0144 3.74039 79.6835 3.87071C79.3526 4.00103 79.0516 4.1969 78.7987 4.44649C78.5459 4.69608 78.3464 4.9942 78.2124 5.32283C78.0784 5.65146 78.0126 6.00378 78.019 6.35848C78.019 7.07381 78.304 7.75984 78.8113 8.26566C79.3186 8.77147 80.0066 9.05564 80.7241 9.05564C81.4415 9.05564 82.1296 8.77147 82.6369 8.26566C83.1442 7.75984 83.4292 7.07381 83.4292 6.35848C83.4356 6.00378 83.3698 5.65146 83.2357 5.32283C83.1017 4.9942 82.9023 4.69608 82.6494 4.44649C82.3966 4.1969 82.0956 4.00103 81.7646 3.87071C81.4337 3.74039 81.0797 3.67833 80.7241 3.68829Z" fill="#201F1E"/>
<path d="M82.8256 10.8533H78.6211V26.5064H82.8256V10.8533Z" fill="#201F1E"/>
<path d="M94.0382 10.5277C92.5097 10.5091 91.0066 10.919 89.7004 11.7106L89.654 10.8533H85.749V31.5001H89.9535V25.784C91.2 26.4825 92.6083 26.8431 94.0382 26.8301C98.6755 26.8301 102.051 23.397 102.051 18.6674C102.051 13.9377 98.6813 10.5277 94.0382 10.5277ZM93.8875 14.6698C96.2931 14.6698 97.8465 16.238 97.8465 18.6674C97.8465 21.0967 96.3008 22.69 93.8875 22.69C91.4741 22.69 89.9033 21.1141 89.9033 18.6674C89.9033 16.2765 91.5051 14.6698 93.8875 14.6698Z" fill="#201F1E"/>
<path d="M110.797 22.3643C109.807 22.3643 109.342 22.1909 109.342 20.615V14.9201H113.825V10.8532H109.342V7.68018H105.522L105.329 10.8532H102.309V14.9201H105.137V20.6651C105.137 24.3255 107.234 26.5064 110.741 26.5064H114V22.3643H110.797Z" fill="#201F1E"/>
</svg>
