<svg width="486" height="444" viewBox="0 0 486 444" fill="none" xmlns="http://www.w3.org/2000/svg">
<g clip-path="url(#clip0_1665_21996)">
<path d="M215.85 107.057H0.09375V245.237H215.85V107.057Z" fill="#F2F2F2"/>
<path d="M209.679 124.387H6.26172V237.061H209.679V124.387Z" fill="white"/>
<path d="M215.756 106.934H0V116.1H215.756V106.934Z" fill="#0008FF"/>
<path d="M6.81215 113.32C7.75041 113.32 8.51102 112.559 8.51102 111.621C8.51102 110.682 7.75041 109.922 6.81215 109.922C5.87389 109.922 5.11328 110.682 5.11328 111.621C5.11328 112.559 5.87389 113.32 6.81215 113.32Z" fill="white"/>
<path d="M13.2614 113.32C14.1996 113.32 14.9602 112.559 14.9602 111.621C14.9602 110.682 14.1996 109.922 13.2614 109.922C12.3231 109.922 11.5625 110.682 11.5625 111.621C11.5625 112.559 12.3231 113.32 13.2614 113.32Z" fill="white"/>
<path d="M19.7106 113.32C20.6488 113.32 21.4095 112.559 21.4095 111.621C21.4095 110.682 20.6488 109.922 19.7106 109.922C18.7723 109.922 18.0117 110.682 18.0117 111.621C18.0117 112.559 18.7723 113.32 19.7106 113.32Z" fill="white"/>
<path d="M77.0147 136.078H24.7461V225.37H77.0147V136.078Z" fill="#F2F2F2"/>
<path d="M129.592 136.078H86.0352V160.657H129.592V136.078Z" fill="#0008FF"/>
<path d="M129.592 167.502H86.0352V193.947H129.592V167.502Z" fill="#F2F2F2"/>
<path d="M129.592 200.791H86.0352V225.37H129.592V200.791Z" fill="#F2F2F2"/>
<path d="M191.194 136.078H138.926V174.991H191.194V136.078Z" fill="#F2F2F2"/>
<path d="M191.194 186.457H138.926V225.37H191.194V186.457Z" fill="#F2F2F2"/>
<path d="M485.998 107.057H270.242V245.237H485.998V107.057Z" fill="#F2F2F2"/>
<path d="M479.831 124.387H276.414V237.061H479.831V124.387Z" fill="white"/>
<path d="M485.909 106.934H270.152V116.1H485.909V106.934Z" fill="#0008FF"/>
<path d="M276.961 113.32C277.899 113.32 278.659 112.559 278.659 111.621C278.659 110.682 277.899 109.922 276.961 109.922C276.022 109.922 275.262 110.682 275.262 111.621C275.262 112.559 276.022 113.32 276.961 113.32Z" fill="white"/>
<path d="M283.41 113.32C284.348 113.32 285.109 112.559 285.109 111.621C285.109 110.682 284.348 109.922 283.41 109.922C282.472 109.922 281.711 110.682 281.711 111.621C281.711 112.559 282.472 113.32 283.41 113.32Z" fill="white"/>
<path d="M289.859 113.32C290.797 113.32 291.558 112.559 291.558 111.621C291.558 110.682 290.797 109.922 289.859 109.922C288.921 109.922 288.16 110.682 288.16 111.621C288.16 112.559 288.921 113.32 289.859 113.32Z" fill="white"/>
<path d="M461.3 136.078H409.031V225.37H461.3V136.078Z" fill="#F2F2F2"/>
<path d="M400.373 136.076H294.945V160.655H400.373V136.076Z" fill="#0008FF"/>
<path d="M400.373 167.5H294.945V193.945H400.373V167.5Z" fill="#F2F2F2"/>
<path d="M400.373 200.789H294.945V225.368H400.373V200.789Z" fill="#F2F2F2"/>
<path d="M241.78 0H240.574V65.8902H241.78V0Z" fill="#CCCCCC"/>
<path d="M362.382 106.895H361.176V66.4931H121.175V106.895H119.969V65.2871H362.382V106.895Z" fill="#CCCCCC"/>
<path d="M250.048 184.203L249.14 179.662C249.14 179.662 235.783 175.122 234.289 184.203H250.048Z" fill="#E6E6E6"/>
<path d="M224.414 434.201L215.658 434.2L211.492 400.426L224.415 400.426L224.414 434.201Z" fill="#FFB8B8"/>
<path d="M226.648 442.687L198.414 442.686V442.329C198.414 439.415 199.572 436.62 201.633 434.559C203.694 432.498 206.489 431.34 209.404 431.34H209.404L226.649 431.341L226.648 442.687Z" fill="#2F2E41"/>
<path d="M254.521 434.201L263.277 434.2L267.443 400.426L254.52 400.426L254.521 434.201Z" fill="#FFB8B8"/>
<path d="M252.285 431.341L269.53 431.34H269.53C272.445 431.34 275.24 432.498 277.301 434.559C279.362 436.62 280.52 439.415 280.52 442.329V442.686L252.286 442.687L252.285 431.341Z" fill="#2F2E41"/>
<path d="M262.763 203.271L272.751 202.363L279.107 232.33L278.199 259.571L268.211 295.894L254.59 287.722L261.854 250.491L262.763 203.271Z" fill="#2F2E41"/>
<path d="M269.083 292.716L266.847 311.785L269.571 356.281V422.587L252.318 421.661L248.686 352.648L238.697 320.866L231.432 357.189L226.892 425.293L209.185 423.874V356.949L208.73 308.153L215.087 289.084L269.083 292.716Z" fill="#2F2E41"/>
<path d="M231.889 185.109C231.889 185.109 238.246 176.029 250.05 182.385L255.499 189.65L272.752 202.363L269.12 245.042L273.66 298.618L209.188 297.71L220.084 244.134V186.926L231.889 185.109Z" fill="#2F2E41"/>
<path opacity="0.25" d="M266.847 217.436L272.053 279.69L265.484 245.95L266.847 217.436Z" fill="black"/>
<path d="M219.487 310.195C220.116 309.444 220.572 308.565 220.824 307.619C221.076 306.672 221.117 305.683 220.945 304.719C220.773 303.755 220.391 302.84 219.828 302.04C219.264 301.239 218.532 300.572 217.682 300.085L219.623 284.904L210.686 281.475L208.245 302.951C207.522 304.433 207.367 306.128 207.81 307.716C208.253 309.304 209.263 310.674 210.649 311.566C212.035 312.459 213.7 312.813 215.329 312.56C216.958 312.307 218.437 311.466 219.487 310.195Z" fill="#FFB8B8"/>
<path d="M208.28 294.986H222.809V288.63H208.28V294.986Z" fill="#E6E6E6"/>
<path d="M229.616 194.646L220.081 186.927C220.081 186.927 213.271 186.473 212.362 196.462C211.454 206.45 210.35 249.129 210.35 249.129L206.914 291.808L225.983 292.717L229.616 246.523V194.646Z" fill="#2F2E41"/>
<path d="M257.993 165.133C262.823 156.297 259.576 145.217 250.739 140.387C241.903 135.556 230.823 138.804 225.993 147.64C221.162 156.477 224.41 167.557 233.246 172.387C242.083 177.218 253.162 173.97 257.993 165.133Z" fill="#FFB8B8"/>
<path d="M240.63 172.473C245.091 173.544 249.791 172.919 253.817 170.719C257.843 168.519 260.908 164.901 262.417 160.568C263.925 156.235 263.769 151.496 261.979 147.272C260.189 143.047 256.893 139.639 252.731 137.708C249.526 136.278 246.021 135.649 242.519 135.875C237.065 136.162 231.765 138.178 226.306 138.029L225.514 139.301L222.532 138.578L221.893 140.945L221.108 140.918C219.701 143.533 221.965 147.276 224.934 147.244C226.109 147.232 227.221 146.742 228.37 146.496C229.52 146.25 230.873 146.311 231.666 147.179C232.696 148.307 232.248 150.068 232.033 151.58C231.818 153.093 232.354 155.13 233.881 155.18C234.661 155.205 235.403 154.646 236.17 154.793C237.062 154.964 237.514 156.042 237.383 156.942C237.162 157.824 236.802 158.666 236.315 159.435C234.102 163.854 235.971 169.864 240.3 172.248" fill="#2F2E41"/>
<path d="M356.052 443.378H126.302C126.142 443.378 125.989 443.314 125.876 443.201C125.763 443.088 125.699 442.935 125.699 442.775C125.699 442.615 125.763 442.462 125.876 442.349C125.989 442.235 126.142 442.172 126.302 442.172H356.052C356.212 442.172 356.365 442.235 356.478 442.349C356.591 442.462 356.655 442.615 356.655 442.775C356.655 442.935 356.591 443.088 356.478 443.201C356.365 443.314 356.212 443.378 356.052 443.378Z" fill="#CCCCCC"/>
</g>
<defs>
<clipPath id="clip0_1665_21996">
<rect width="486" height="443.379" fill="white"/>
</clipPath>
</defs>
</svg>
