<svg width="244" height="162" viewBox="0 0 244 162" fill="none" xmlns="http://www.w3.org/2000/svg">
<path d="M22.1621 70.1227C22.1621 70.1227 19.4567 69.925 19.7061 75.9968C19.9556 82.0686 20.5874 85.3021 20.5874 85.3021C20.5874 85.3021 20.5064 86.6467 19.4664 86.3842C18.4263 86.1218 16.4597 84.8096 15.4941 85.7881C14.5286 86.7666 14.8461 88.3606 16.1778 90.1977C17.5094 92.0348 20.2634 96.1593 20.5194 96.5319C20.7753 96.9045 20.8596 97.5882 20.1209 97.5234C19.3821 97.4586 14.3958 95.764 13.7348 98.1714C13.0739 100.579 17.6228 105.086 18.1153 105.588C18.6078 106.09 18.6272 106.407 18.4393 106.709C18.2514 107.01 16.6184 106.288 15.1799 105.863C13.7413 105.439 12.0014 105.215 11.7357 106.628C11.4701 108.04 13.4594 112.236 20.9762 116.62L24.5856 118.421L28.0038 116.241C35.0378 111.128 36.6157 106.777 36.2107 105.387C35.8057 103.997 34.095 104.415 32.705 104.969C31.3151 105.523 29.7728 106.42 29.546 106.139C29.3192 105.857 29.3127 105.539 29.7501 104.988C30.1875 104.438 34.2635 99.5062 33.366 97.1702C32.4685 94.8342 27.6733 97.0147 26.9443 97.154C26.2153 97.2933 26.2445 96.6 26.4518 96.2112C26.6592 95.8224 29.0049 91.4289 30.1487 89.472C31.2924 87.515 31.49 85.9274 30.3884 85.017C29.2868 84.1065 27.5081 85.639 26.5004 86.0052C25.4928 86.3713 25.2757 85.0332 25.2757 85.0332C25.2757 85.0332 25.5673 81.7543 25.2077 75.689C24.848 69.6237 22.1102 70.113 22.1102 70.113" fill="#EBEBEB"/>
<path d="M22.3766 75.5605C22.3766 75.5605 22.3766 75.6027 22.3766 75.6869C22.3766 75.7711 22.3928 75.9007 22.4025 76.0595C22.4252 76.3835 22.4609 76.876 22.4997 77.4916C22.584 78.739 22.6909 80.5404 22.8237 82.7663C23.07 87.2213 23.3616 93.3805 23.6564 100.181C23.9513 106.982 24.2299 113.141 24.4502 117.6C24.5636 119.822 24.6543 121.624 24.7191 122.878C24.7515 123.496 24.7742 123.976 24.7904 124.313C24.7904 124.472 24.7904 124.595 24.8066 124.685C24.8088 124.728 24.8088 124.77 24.8066 124.812C24.8066 124.812 24.8066 124.77 24.7904 124.685C24.7742 124.601 24.7904 124.472 24.7645 124.313C24.7418 123.989 24.7062 123.496 24.6673 122.881C24.5831 121.637 24.4761 119.832 24.3433 117.606C24.0971 113.151 23.8055 106.992 23.5106 100.188C23.2158 93.3838 22.9371 87.2278 22.7168 82.7728C22.6034 80.5501 22.5127 78.7487 22.4479 77.4948C22.4155 76.876 22.3928 76.3965 22.3766 76.0595C22.3766 75.9007 22.3766 75.7776 22.3766 75.6869C22.3745 75.6448 22.3745 75.6026 22.3766 75.5605Z" fill="#E0E0E0"/>
<path d="M18.1484 87.7324C18.2323 87.7831 18.3086 87.8453 18.3752 87.9171C18.5146 88.0435 18.6992 88.2411 18.9487 88.4679C19.425 88.9409 20.0665 89.6116 20.7599 90.3633L22.5257 92.3073L23.0635 92.8905C23.134 92.958 23.197 93.033 23.2514 93.1141C23.1683 93.0624 23.0921 93.0003 23.0246 92.9294C22.8853 92.803 22.7006 92.6054 22.4544 92.3753C21.9814 91.8991 21.3496 91.2219 20.6562 90.4702L18.8774 88.5489L18.3364 87.9689C18.2651 87.8974 18.2021 87.818 18.1484 87.7324Z" fill="#E0E0E0"/>
<path d="M23.6098 92.9874C23.5807 92.9583 24.9058 91.5748 26.5582 89.8965C28.2106 88.2182 29.5812 86.8768 29.6071 86.9027C29.633 86.9286 28.3111 88.3154 26.6554 89.9937C24.9998 91.672 23.6358 93.0101 23.6098 92.9874Z" fill="#E0E0E0"/>
<path d="M23.5938 103.45C23.6707 103.386 23.7557 103.333 23.8465 103.291L24.5528 102.892C25.1489 102.568 25.9687 102.092 26.8564 101.548C27.7442 101.003 28.5348 100.482 29.105 100.103L29.7789 99.6523C29.8585 99.5924 29.9443 99.5413 30.0349 99.5C30.0349 99.5 29.9604 99.5778 29.8113 99.6976C29.6623 99.8175 29.4387 99.9828 29.1633 100.184C28.6093 100.585 27.8252 101.12 26.9342 101.664C26.0432 102.209 25.2105 102.665 24.6014 102.98C24.2968 103.135 24.0474 103.258 23.8724 103.336C23.7848 103.386 23.6912 103.424 23.5938 103.45Z" fill="#E0E0E0"/>
<path d="M17.6094 99.791C17.6981 99.8168 17.7822 99.8561 17.8589 99.9077C18.0144 99.9887 18.2412 100.115 18.5069 100.271C19.0577 100.595 19.8029 101.022 20.642 101.515C21.4812 102.007 22.2167 102.464 22.7545 102.811C23.0234 102.976 23.2405 103.112 23.4025 103.212C23.4836 103.257 23.5587 103.311 23.6261 103.374C23.5376 103.348 23.4536 103.309 23.3766 103.258L22.7286 102.895C22.1778 102.571 21.4326 102.14 20.5934 101.648C19.7543 101.155 19.0188 100.701 18.4809 100.368C18.212 100.199 17.9949 100.063 17.8329 99.966C17.7519 99.9164 17.6769 99.8577 17.6094 99.791Z" fill="#E0E0E0"/>
<path d="M16.4238 109.025C16.5371 109.064 16.6458 109.115 16.7478 109.178L17.587 109.644C18.2933 110.04 19.2653 110.597 20.3345 111.219C21.4037 111.841 22.3692 112.408 23.0626 112.839L23.8823 113.338C23.9847 113.395 24.0812 113.463 24.1707 113.539C24.0574 113.5 23.9487 113.449 23.8467 113.386L23.0075 112.923C22.3012 112.525 21.3292 111.971 20.26 111.348C19.1908 110.726 18.2253 110.156 17.5319 109.728L16.6992 109.226C16.6005 109.169 16.5082 109.102 16.4238 109.025Z" fill="#E0E0E0"/>
<path d="M24.0098 113.371C24.1107 113.291 24.2192 113.22 24.3338 113.161L25.2118 112.626C25.9538 112.176 26.9744 111.547 28.0824 110.825C29.1905 110.102 30.182 109.425 30.8915 108.929L31.7372 108.343C31.8384 108.265 31.9469 108.196 32.0612 108.139C31.9717 108.228 31.8753 108.311 31.7728 108.385C31.5816 108.537 31.303 108.748 30.9531 109.007C30.2565 109.525 29.2748 110.219 28.1634 110.951C27.0521 111.683 26.0218 112.289 25.2669 112.72C24.8878 112.934 24.58 113.106 24.3662 113.216C24.253 113.28 24.1336 113.332 24.0098 113.371Z" fill="#E0E0E0"/>
<path d="M29.4394 119.605H19.4473L22.7067 144.294H26.1767L29.4394 119.605Z" fill="#E0E0E0"/>
<path d="M19.9648 122.641C19.9648 122.641 19.9648 122.673 20.0167 122.728C20.0833 122.804 20.1665 122.862 20.2597 122.9C20.4335 122.96 20.6187 122.979 20.8012 122.957C20.9836 122.934 21.1586 122.871 21.3127 122.77C21.7177 122.547 22.0676 122.122 22.6087 121.918C23.2089 121.725 23.8567 121.737 24.449 121.954C25.0514 122.164 25.6259 122.447 26.1597 122.796C26.6059 123.075 27.0703 123.324 27.5497 123.542C27.8766 123.688 28.2223 123.788 28.5768 123.84C28.6724 123.852 28.7687 123.859 28.8651 123.859C28.9332 123.859 28.9688 123.859 28.9688 123.859C28.4949 123.787 28.0335 123.648 27.5983 123.448C27.1297 123.218 26.6753 122.96 26.2375 122.676C25.6962 122.317 25.1102 122.029 24.4944 121.821C23.8676 121.594 23.1822 121.586 22.5504 121.798C22.2831 121.907 22.0365 122.06 21.8214 122.252C21.6401 122.411 21.4486 122.559 21.2479 122.693C21.1078 122.79 20.9484 122.855 20.7807 122.885C20.6129 122.914 20.4407 122.907 20.2759 122.864C20.1598 122.809 20.0545 122.733 19.9648 122.641Z" fill="#F5F5F5"/>
<path d="M20.3281 127.186C20.3281 127.186 20.4091 127.086 20.5646 126.92C20.7911 126.697 21.0629 126.525 21.3617 126.415C21.8067 126.254 22.279 126.183 22.7516 126.204C23.3357 126.249 23.9167 126.328 24.4915 126.441C25.0771 126.557 25.677 126.582 26.2703 126.515C26.7553 126.454 27.2283 126.32 27.6732 126.117C27.9719 125.982 28.2544 125.813 28.5156 125.615C28.6165 125.55 28.7062 125.469 28.7813 125.375C28.4132 125.619 28.0277 125.836 27.6278 126.023C27.189 126.206 26.7265 126.326 26.2541 126.379C25.6742 126.435 25.0892 126.407 24.5174 126.295C23.9369 126.179 23.3491 126.103 22.7581 126.068C22.2662 126.05 21.7759 126.136 21.3196 126.321C21.0108 126.444 20.7363 126.64 20.5193 126.891C20.4611 126.959 20.41 127.033 20.367 127.112C20.3504 127.134 20.3372 127.159 20.3281 127.186Z" fill="#F5F5F5"/>
<path d="M28.309 129.619C28.2255 129.557 28.1325 129.508 28.0336 129.476C27.7672 129.377 27.4878 129.317 27.2042 129.298C26.786 129.274 26.3664 129.298 25.9535 129.369C25.487 129.447 24.9815 129.573 24.4631 129.693C23.9747 129.808 23.4745 129.864 22.9727 129.862C22.5671 129.851 22.167 129.764 21.7934 129.606C21.4567 129.443 21.1567 129.214 20.9121 128.932C20.9497 129.029 21.0071 129.117 21.0806 129.191C21.2693 129.407 21.501 129.581 21.761 129.703C22.1442 129.883 22.5594 129.985 22.9825 130.004C23.497 130.018 24.011 129.964 24.5117 129.845C25.0431 129.732 25.5388 129.599 25.9924 129.521C26.3947 129.443 26.8042 129.408 27.2139 129.418C27.5857 129.44 27.9534 129.508 28.309 129.619Z" fill="#F5F5F5"/>
<path d="M21.2133 133.045C21.5192 132.912 21.8591 132.878 22.1853 132.948C22.5377 133.035 22.8791 133.162 23.2027 133.327C23.6163 133.524 24.0616 133.647 24.5181 133.69C25.3537 133.763 26.191 133.569 26.9092 133.136C27.1237 133.005 27.3236 132.852 27.5054 132.679C27.6253 132.549 27.6868 132.475 27.6803 132.465C27.4152 132.671 27.1383 132.861 26.8509 133.035C26.1439 133.423 25.3381 133.595 24.5343 133.528C23.585 133.489 22.856 132.909 22.208 132.841C21.9561 132.796 21.6969 132.819 21.4563 132.905C21.2781 132.964 21.2068 133.038 21.2133 133.045Z" fill="#F5F5F5"/>
<path d="M21.7696 137.785C22.0561 137.79 22.3405 137.733 22.6022 137.616C23.1044 137.451 23.7265 137.065 24.4523 136.777C24.7902 136.639 25.1502 136.563 25.515 136.553C25.8099 136.555 26.1009 136.621 26.3671 136.748C26.6098 136.879 26.821 137.061 26.986 137.282C26.9722 137.205 26.9387 137.132 26.8888 137.072C26.768 136.895 26.607 136.75 26.419 136.647C26.141 136.493 25.8295 136.41 25.5118 136.404C25.1273 136.404 24.7465 136.479 24.3907 136.625C23.639 136.923 23.0364 137.321 22.5569 137.509C22.0774 137.697 21.7663 137.759 21.7696 137.785Z" fill="#F5F5F5"/>
<path d="M22.2598 139.987C22.4645 140.087 22.6829 140.156 22.9078 140.191C23.4277 140.318 23.9561 140.408 24.4889 140.46C25.0271 140.514 25.5685 140.529 26.1089 140.506C26.3274 140.509 26.5454 140.483 26.7569 140.428C26.7569 140.379 25.746 140.428 24.5083 140.298C23.2706 140.169 22.2727 139.939 22.2598 139.987Z" fill="#F5F5F5"/>
<path d="M224.766 17.5543L206.372 10.9512L188.154 17.4668C185.827 18.5652 183.789 19.2229 183.789 21.384V32.1764C183.757 39.7509 185.835 47.1847 189.79 53.6447C193.738 60.1756 199.592 65.3406 206.563 68.445C214.015 66.0279 219.569 59.5771 222.964 54.0626C226.922 47.6049 229.001 40.1716 228.968 32.5976V22.8971C228.955 19.8061 227.316 18.2995 224.766 17.5543Z" fill="#F5F5F5"/>
<path d="M206.563 62.1853C200.155 59.3308 195.991 54.7333 193.302 50.3787C190.173 45.2683 188.529 39.387 188.555 33.3947V25.8293C188.555 24.1153 189.589 22.5083 191.643 21.5492L206.388 16.0412V10.9512L188.154 17.4668C186.242 18.3027 183.789 19.2229 183.789 21.3905V32.1764C183.757 39.7509 185.835 47.1847 189.79 53.6447C193.738 60.1756 199.592 65.3406 206.563 68.445V62.1853Z" fill="#EBEBEB"/>
<path d="M206.564 68.445C207.812 68.0367 209.021 67.5184 210.177 66.8963C213.014 65.2859 215.593 63.2576 217.826 60.8796C219.853 58.6962 221.636 56.2997 223.147 53.7321C227.158 47.2294 229.185 39.6975 228.979 32.0598V23.153C228.979 18.7175 226.711 18.3902 224.767 17.5543L206.373 10.9512V16.038L221.277 21.6399C223.331 22.6119 224.365 24.2028 224.365 25.9167V33.4821C224.39 39.4749 222.746 45.3562 219.615 50.4662C216.932 54.8305 212.96 59.3308 206.564 62.1853V68.445Z" fill="#E0E0E0"/>
<path d="M211.251 32.9083L211.271 31.4535C211.271 30.1869 210.767 28.9722 209.872 28.0765C208.976 27.1809 207.761 26.6777 206.495 26.6777C205.228 26.6777 204.014 27.1809 203.118 28.0765C202.222 28.9722 201.719 30.1869 201.719 31.4535L201.7 32.9342C201.069 33.0309 200.493 33.3504 200.077 33.8347C199.661 34.319 199.432 34.9363 199.432 35.5748V44.1608C199.432 44.8697 199.713 45.5496 200.215 46.0509C200.716 46.5522 201.396 46.8338 202.105 46.8338H211.021C211.73 46.8338 212.41 46.5522 212.911 46.0509C213.413 45.5496 213.694 44.8697 213.694 44.1608V35.5748C213.695 34.9051 213.444 34.2595 212.992 33.7657C212.54 33.2719 211.918 32.9659 211.251 32.9083ZM207.768 42.0191H205.439L205.801 40.3343C205.542 40.1723 205.341 39.9305 205.23 39.6452C205.119 39.3598 205.103 39.0462 205.185 38.7511C205.267 38.456 205.442 38.1953 205.684 38.0079C205.926 37.8205 206.223 37.7165 206.529 37.7114C206.835 37.7062 207.135 37.8002 207.383 37.9794C207.631 38.1585 207.815 38.4132 207.907 38.7054C207.998 38.9975 207.993 39.3115 207.892 39.6004C207.79 39.8894 207.598 40.1377 207.344 40.3084L207.768 42.0191ZM210.221 32.8953H202.73L202.749 31.4535C202.778 30.4788 203.185 29.5536 203.885 28.8743C204.585 28.195 205.521 27.815 206.496 27.815C207.472 27.815 208.408 28.195 209.108 28.8743C209.808 29.5536 210.215 30.4788 210.244 31.4535L210.221 32.8953Z" fill="#E0E0E0"/>
<path d="M191.522 32.8058C191.367 32.3217 191.275 31.8198 191.247 31.3122C191.11 30.0958 191.061 28.8712 191.098 27.6477C191.117 26.9317 191.166 26.2513 191.231 25.6325C191.26 25.0706 191.4 24.5201 191.642 24.0125C191.82 23.6661 192.101 23.3832 192.446 23.2025C192.695 23.0858 192.851 23.0923 192.854 23.1085C192.41 23.3152 192.053 23.6705 191.843 24.1129C191.644 24.6079 191.534 25.1346 191.519 25.6681C191.471 26.2805 191.432 26.9641 191.412 27.6639C191.37 29.0831 191.412 30.3693 191.467 31.2992C191.522 32.2291 191.571 32.7993 191.522 32.8058Z" fill="white"/>
<path d="M191.796 37.4998C191.705 37.4998 191.624 37.0592 191.614 36.5084C191.605 35.9576 191.666 35.5137 191.754 35.5137C191.841 35.5137 191.925 35.9543 191.935 36.4857C191.945 37.017 191.883 37.4966 191.796 37.4998Z" fill="white"/>
<path d="M233.009 144.313C233.009 144.361 183.551 144.397 122.558 144.397C61.5647 144.397 12.0996 144.361 12.0996 144.313C12.0996 144.264 61.5453 144.229 122.558 144.229C183.57 144.229 233.009 144.267 233.009 144.313Z" fill="#263238"/>
<path d="M193.604 20.1074H52.9879C51.8258 20.11 50.7121 20.5732 49.891 21.3956C49.0699 22.2179 48.6083 23.3323 48.6074 24.4944V123.797C48.6074 124.96 49.0686 126.075 49.8898 126.898C50.7111 127.721 51.8252 128.185 52.9879 128.187H106.957C106.957 128.187 110.388 138.802 99.7476 144.293H150.204C150.204 144.293 138.2 140.175 141.278 128.187H193.604C194.768 128.186 195.884 127.724 196.706 126.9C197.529 126.077 197.991 124.961 197.991 123.797V24.4944C197.991 23.3309 197.529 22.215 196.706 21.3923C195.883 20.5696 194.767 20.1074 193.604 20.1074Z" fill="#455A64"/>
<path d="M125.173 117.741C127.084 120.475 124.09 123.469 121.356 121.557C121.265 121.493 121.186 121.413 121.123 121.321C119.214 118.59 122.205 115.599 124.936 117.507C125.027 117.572 125.107 117.65 125.173 117.741Z" fill="#263238"/>
<path d="M54.1696 21.9258H192.414C193.247 21.9258 194.047 22.2569 194.636 22.8463C195.226 23.4357 195.557 24.2351 195.557 25.0686V110.021H51.043V25.0686C51.043 24.2379 51.3718 23.4409 51.9577 22.852C52.5436 22.2631 53.3389 21.9301 54.1696 21.9258Z" fill="white"/>
<path d="M53.9946 21.9258H193.12C193.765 21.9284 194.382 22.1862 194.837 22.6428C195.292 23.0995 195.547 23.7177 195.547 24.3623V29.2449H51.043V24.8904C51.043 24.1064 51.3535 23.3543 51.9067 22.7987C52.4599 22.2431 53.2106 21.9292 53.9946 21.9258Z" fill="#EBEBEB"/>
<path d="M55.6313 26.7529C56.1914 26.7529 56.6454 26.2988 56.6454 25.7387C56.6454 25.1786 56.1914 24.7246 55.6313 24.7246C55.0712 24.7246 54.6172 25.1786 54.6172 25.7387C54.6172 26.2988 55.0712 26.7529 55.6313 26.7529Z" fill="#E0E0E0"/>
<path d="M58.6587 26.7529C59.2187 26.7529 59.6728 26.2988 59.6728 25.7387C59.6728 25.1786 59.2187 24.7246 58.6587 24.7246C58.0986 24.7246 57.6445 25.1786 57.6445 25.7387C57.6445 26.2988 58.0986 26.7529 58.6587 26.7529Z" fill="#E0E0E0"/>
<path d="M61.5356 26.7529C62.0957 26.7529 62.5497 26.2988 62.5497 25.7387C62.5497 25.1786 62.0957 24.7246 61.5356 24.7246C60.9755 24.7246 60.5215 25.1786 60.5215 25.7387C60.5215 26.2988 60.9755 26.7529 61.5356 26.7529Z" fill="#E0E0E0"/>
<path d="M168.456 128.199C168.456 128.248 148.449 128.284 123.776 128.284C99.1033 128.284 79.0898 128.248 79.0898 128.199C79.0898 128.151 99.0936 128.115 123.776 128.115C148.458 128.115 168.456 128.154 168.456 128.199Z" fill="#263238"/>
<path d="M145.617 41.6396L123.585 33.5234L101.763 41.5327C98.9768 42.8806 96.5338 43.6906 96.5338 46.3506V59.6152C96.4884 68.8985 98.974 78.0187 103.723 85.9952C107.793 92.7701 114.091 99.7458 123.811 104.181C132.731 101.21 139.389 93.2885 143.459 86.5104C148.208 78.5352 150.694 69.4159 150.648 60.1336V48.2039C150.632 44.4066 148.672 42.5533 145.617 41.6396Z" fill="#3F8EFC"/>
<g opacity="0.8">
<path d="M145.617 41.6396L123.585 33.5234L101.763 41.5327C98.9768 42.8806 96.5338 43.6906 96.5338 46.3506V59.6152C96.4884 68.8985 98.974 78.0187 103.723 85.9952C107.793 92.7701 114.091 99.7458 123.811 104.181C132.731 101.21 139.389 93.2885 143.459 86.5104C148.208 78.5352 150.694 69.4159 150.648 60.1336V48.2039C150.632 44.4066 148.672 42.5533 145.617 41.6396Z" fill="white"/>
</g>
<path d="M137.037 75.1939H132.987V53.1619C132.987 50.6669 131.996 48.2741 130.232 46.5099C128.468 44.7457 126.075 43.7546 123.58 43.7546C121.085 43.7546 118.692 44.7457 116.928 46.5099C115.164 48.2741 114.173 50.6669 114.173 53.1619V75.1939H110.123V53.1619C110.095 51.3771 110.423 49.6046 111.087 47.9476C111.75 46.2906 112.737 44.7823 113.99 43.5103C115.242 42.2383 116.735 41.2282 118.381 40.5387C120.028 39.8492 121.795 39.4941 123.58 39.4941C125.365 39.4941 127.132 39.8492 128.779 40.5387C130.425 41.2282 131.918 42.2383 133.171 43.5103C134.423 44.7823 135.41 46.2906 136.074 47.9476C136.737 49.6046 137.065 51.3771 137.037 53.1619V75.1939Z" fill="#3F8EFC"/>
<g opacity="0.4">
<path d="M137.037 75.1939H132.987V53.1619C132.987 50.6669 131.996 48.2741 130.232 46.5099C128.468 44.7457 126.075 43.7546 123.58 43.7546C121.085 43.7546 118.692 44.7457 116.928 46.5099C115.164 48.2741 114.173 50.6669 114.173 53.1619V75.1939H110.123V53.1619C110.095 51.3771 110.423 49.6046 111.087 47.9476C111.75 46.2906 112.737 44.7823 113.99 43.5103C115.242 42.2383 116.735 41.2282 118.381 40.5387C120.028 39.8492 121.795 39.4941 123.58 39.4941C125.365 39.4941 127.132 39.8492 128.779 40.5387C130.425 41.2282 131.918 42.2383 133.171 43.5103C134.423 44.7823 135.41 46.2906 136.074 47.9476C136.737 49.6046 137.065 51.3771 137.037 53.1619V75.1939Z" fill="#2E2E2E"/>
</g>
<path d="M139.833 65.3906H107.326C106.286 65.3906 105.443 66.2334 105.443 67.2731V86.7779C105.443 87.8175 106.286 88.6603 107.326 88.6603H139.833C140.872 88.6603 141.715 87.8175 141.715 86.7779V67.2731C141.715 66.2334 140.872 65.3906 139.833 65.3906Z" fill="#3F8EFC"/>
<g opacity="0.5">
<path d="M126.61 73.9955C126.611 73.4312 126.453 72.878 126.157 72.3981C125.86 71.9182 125.435 71.5307 124.93 71.2791C124.425 71.0275 123.859 70.9218 123.298 70.9739C122.736 71.026 122.199 71.2339 121.749 71.5741C121.299 71.9143 120.953 72.3733 120.749 72.8996C120.546 73.4259 120.493 73.9986 120.597 74.5532C120.701 75.1078 120.958 75.6224 121.339 76.039C121.719 76.4556 122.208 76.7578 122.751 76.9115V81.4475H124.407V76.9115C125.042 76.7326 125.601 76.3507 125.999 75.8242C126.397 75.2976 126.612 74.6554 126.61 73.9955Z" fill="#2E2E2E"/>
</g>
<path d="M107.378 86.4531C107.293 86.4531 107.229 82.5651 107.229 77.7861C107.229 73.0071 107.293 69.1191 107.378 69.1191C107.462 69.1191 107.53 73.0071 107.53 77.7861C107.53 82.5651 107.462 86.4531 107.378 86.4531Z" fill="#FAFAFA"/>
<path d="M121.206 77.8798C121.206 77.8798 121.064 77.8344 120.85 77.6789C120.55 77.4549 120.287 77.1861 120.069 76.8818C119.691 76.3827 119.428 75.8062 119.299 75.1935C119.169 74.5809 119.177 73.9472 119.321 73.3378C119.466 72.7285 119.743 72.1586 120.133 71.669C120.523 71.1793 121.017 70.782 121.579 70.5055C121.915 70.3321 122.276 70.2108 122.648 70.1459C122.781 70.1095 122.92 70.1017 123.056 70.1232C123.056 70.1815 122.483 70.2366 121.696 70.6934C121.182 70.9776 120.733 71.366 120.378 71.8339C120.023 72.3017 119.77 72.8386 119.635 73.41C119.5 73.9815 119.485 74.5749 119.593 75.1521C119.701 75.7294 119.928 76.2777 120.26 76.762C120.545 77.1597 120.861 77.5336 121.206 77.8798Z" fill="#FAFAFA"/>
<path d="M150.836 99.0346C150.836 99.0346 150.923 98.9114 151.098 98.6814L151.244 98.487C151.296 98.4125 151.341 98.325 151.393 98.231C151.522 98.0206 151.631 97.7982 151.717 97.5668C151.769 97.434 151.831 97.2979 151.882 97.1489C151.934 96.9998 151.97 96.8249 152.015 96.6693C152.068 96.4949 152.105 96.3159 152.125 96.1347C152.164 95.9398 152.192 95.743 152.21 95.5451C152.286 94.5962 152.243 93.6415 152.08 92.7036C151.756 90.5749 150.849 88.0736 149.469 85.352C147.867 82.2834 145.991 79.3663 143.863 76.6364C141.301 73.3117 138.508 70.1719 135.504 67.2404C132.073 63.8634 128.407 60.7333 124.534 57.8736C122.483 56.3702 120.322 54.909 118.054 53.532C115.735 52.1191 113.328 50.8572 110.848 49.7541C108.291 48.5861 105.598 47.7425 102.832 47.2431C101.42 46.9921 99.9781 46.9561 98.5553 47.1362C97.8437 47.2431 97.1495 47.4446 96.4914 47.7356C95.8288 48.0304 95.236 48.4619 94.7519 49.0019C94.2678 49.5418 93.9033 50.178 93.6823 50.8687C93.4674 51.5556 93.3464 52.2684 93.3227 52.9877C93.3026 54.4218 93.5003 55.8508 93.9091 57.2256C94.7197 59.9177 95.8648 62.4974 97.3176 64.9044C98.6956 67.245 100.224 69.494 101.892 71.6371C103.512 73.7431 105.217 75.7227 106.944 77.5858C110.226 81.1105 113.753 84.3987 117.5 87.4256C120.753 90.0747 124.188 92.4923 127.78 94.6606C130.734 96.4631 133.845 97.9943 137.076 99.2354C139.937 100.298 142.525 100.907 144.677 100.992C145.627 101.049 146.581 100.984 147.515 100.797C147.708 100.758 147.9 100.71 148.088 100.651C148.266 100.607 148.441 100.549 148.61 100.48L149.07 100.292C149.213 100.224 149.342 100.146 149.465 100.081C149.686 99.9639 149.895 99.8273 150.091 99.6728C150.175 99.608 150.259 99.5562 150.327 99.4979L150.502 99.3294L150.826 99.0281L150.518 99.3521L150.343 99.527C150.275 99.5854 150.194 99.6404 150.107 99.7085C149.912 99.8649 149.704 100.004 149.485 100.123C149.362 100.191 149.232 100.269 149.09 100.34L148.626 100.531C148.458 100.604 148.283 100.663 148.105 100.706C147.915 100.768 147.723 100.82 147.528 100.862C146.59 101.053 145.632 101.124 144.677 101.073C142.516 100.998 139.917 100.392 137.046 99.3391C133.806 98.1036 130.685 96.5756 127.722 94.774C124.119 92.6127 120.674 90.1971 117.415 87.5455C113.66 84.52 110.124 81.2318 106.833 77.7056C105.1 75.8394 103.399 73.8565 101.769 71.7473C100.096 69.5997 98.5621 67.3465 97.1783 65.0016C95.7186 62.5819 94.567 59.9892 93.7504 57.2839C93.3385 55.8898 93.1408 54.4412 93.1639 52.9877C93.187 52.2516 93.3113 51.5223 93.5333 50.8201C93.7583 50.1068 94.1319 49.4492 94.6295 48.8907C95.1271 48.3323 95.7374 47.8856 96.4201 47.5801C97.092 47.2808 97.8017 47.0748 98.5294 46.9678C99.9693 46.7828 101.429 46.8188 102.858 47.0747C105.638 47.5757 108.344 48.4248 110.913 49.6019C113.393 50.71 115.798 51.9796 118.112 53.4024C120.38 54.7826 122.557 56.2471 124.592 57.7537C128.469 60.6233 132.138 63.7631 135.572 67.1497C138.575 70.0878 141.366 73.2341 143.925 76.5651C146.051 79.3056 147.924 82.2337 149.52 85.3131C150.894 88.0445 151.788 90.5587 152.112 92.6939C152.272 93.6377 152.31 94.5981 152.226 95.5516C152.209 95.7506 152.181 95.9485 152.142 96.1445C152.116 96.3264 152.077 96.5061 152.025 96.6823C151.976 96.8508 151.931 97.0063 151.889 97.1651C151.847 97.3238 151.769 97.4502 151.717 97.583C151.625 97.8154 151.51 98.038 151.374 98.2472C151.319 98.3412 151.273 98.4287 151.221 98.5032L151.069 98.6943C150.917 98.9211 150.836 99.0346 150.836 99.0346Z" fill="#3F8EFC"/>
<path d="M161.205 73.9986C161.205 73.9986 161.189 73.8496 161.166 73.5612C161.166 73.4878 161.159 73.4068 161.146 73.3182C161.146 73.2275 161.108 73.1335 161.088 73.0266C161.046 72.7813 160.981 72.5406 160.894 72.3073C160.845 72.1745 160.8 72.0319 160.741 71.8861C160.683 71.7403 160.596 71.5978 160.518 71.439C160.436 71.2705 160.341 71.109 160.233 70.9563C160.126 70.8007 160.035 70.6322 159.909 70.4638C159.335 69.7037 158.666 69.0199 157.919 68.429C156.257 67.0618 153.918 65.7917 151.08 64.6804C147.842 63.4569 144.499 62.5286 141.094 61.9069C136.971 61.1334 132.798 60.6516 128.607 60.4651C123.797 60.2338 118.977 60.3421 114.183 60.7891C111.652 61.0289 109.067 61.3788 106.452 61.868C103.781 62.3558 101.145 63.016 98.5594 63.8445C95.871 64.6741 93.2968 65.8365 90.8968 67.3048C89.6843 68.0596 88.5921 68.9923 87.6568 70.0717C87.1957 70.6241 86.8121 71.2367 86.5163 71.8926C86.219 72.5549 86.0653 73.2726 86.0653 73.9986C86.0653 74.7246 86.219 75.4423 86.5163 76.1046C86.8133 76.7599 87.1968 77.3723 87.6568 77.9255C88.5924 79.0001 89.6846 79.9275 90.8968 80.6763C93.2953 82.146 95.8685 83.3095 98.5562 84.1398C101.141 84.969 103.778 85.6292 106.449 86.1162C109.063 86.6087 111.649 86.9554 114.179 87.1951C118.974 87.6438 123.794 87.7521 128.604 87.5191C132.795 87.3329 136.968 86.8511 141.091 86.0773C144.496 85.4565 147.839 84.5282 151.077 83.3039C153.918 82.1926 156.261 80.9225 157.916 79.5552C158.664 78.9652 159.333 78.2813 159.906 77.5205C160.022 77.3623 160.131 77.1979 160.23 77.028C160.334 76.8783 160.425 76.7201 160.502 76.555L160.725 76.1078C160.784 75.962 160.829 75.8195 160.878 75.6867C160.964 75.4534 161.03 75.2126 161.072 74.9674C161.091 74.8637 161.117 74.7665 161.13 74.679C161.143 74.5915 161.13 74.5073 161.15 74.436C161.172 74.1444 161.189 73.9986 161.189 73.9986C161.189 73.9986 161.189 74.1477 161.166 74.436C161.166 74.5105 161.166 74.5915 161.166 74.6823C161.166 74.773 161.13 74.8669 161.111 74.9738C161.071 75.22 161.008 75.4618 160.923 75.6964C160.874 75.8325 160.832 75.975 160.771 76.124L160.554 76.5744C160.476 76.7403 160.385 76.8996 160.281 77.0507C160.174 77.2094 160.084 77.3909 159.957 77.5529C159.384 78.3206 158.715 79.011 157.965 79.607C156.303 80.9873 153.96 82.2703 151.119 83.3914C147.876 84.6226 144.528 85.5574 141.117 86.1842C136.989 86.9672 132.811 87.4577 128.614 87.652C123.797 87.8927 118.969 87.792 114.166 87.3507C111.633 87.1109 109.044 86.7642 106.42 86.275C103.742 85.7872 101.1 85.1271 98.5076 84.2986C95.8063 83.4646 93.22 82.2956 90.8093 80.8188C89.5756 80.0553 88.4637 79.1105 87.511 78.0162C87.0391 77.4501 86.6467 76.8222 86.3446 76.15C86.0402 75.4685 85.8828 74.7304 85.8828 73.984C85.8828 73.2376 86.0402 72.4996 86.3446 71.8181C86.6479 71.1475 87.0403 70.5209 87.511 69.9551C88.4633 68.86 89.5765 67.9161 90.8126 67.1557C93.2216 65.6788 95.8069 64.5108 98.5076 63.6792C101.099 62.8481 103.742 62.1868 106.42 61.6996C109.041 61.2103 111.63 60.8637 114.163 60.6239C118.966 60.1835 123.794 60.0839 128.61 60.3258C132.809 60.5205 136.988 61.0132 141.117 61.8C144.527 62.4298 147.872 63.3678 151.112 64.6026C153.957 65.7269 156.296 67.0067 157.962 68.3869C158.709 68.9853 159.376 69.6767 159.948 70.4443C160.065 70.6047 160.173 70.7713 160.272 70.9433C160.374 71.0953 160.465 71.2544 160.544 71.4196L160.761 71.8732C160.822 72.019 160.865 72.1648 160.913 72.2976C160.998 72.5331 161.061 72.7761 161.101 73.0234C161.121 73.1271 161.143 73.2242 161.156 73.315C161.169 73.4057 161.156 73.4867 161.156 73.558C161.205 73.8496 161.205 73.9986 161.205 73.9986Z" fill="#3F8EFC"/>
<path d="M147.453 42.8337C147.453 42.8337 147.324 42.7559 147.084 42.5971L146.88 42.4643C146.802 42.4189 146.708 42.3801 146.614 42.3315C146.394 42.2158 146.164 42.1204 145.927 42.0463C145.791 42.0042 145.652 41.9491 145.5 41.907L145.004 41.7969C144.826 41.7578 144.645 41.7329 144.463 41.7223C144.272 41.7223 144.077 41.6737 143.87 41.6802C142.917 41.669 141.967 41.7778 141.041 42.0042C138.945 42.4773 136.505 43.5497 133.891 45.1146C130.939 46.9227 128.157 48.9951 125.58 51.3063C122.442 54.0905 119.505 57.0928 116.79 60.2908C113.658 63.9481 110.788 67.822 108.201 71.8835C106.84 74.0316 105.531 76.2867 104.313 78.6551C103.063 81.0663 101.97 83.5554 101.04 86.1071C100.054 88.739 99.4007 91.4841 99.0964 94.2784C98.9429 95.7043 99.0073 97.1454 99.2875 98.5519C99.4407 99.2553 99.6893 99.9344 100.026 100.57C100.366 101.209 100.838 101.769 101.41 102.213C101.982 102.657 102.641 102.975 103.344 103.146C104.044 103.314 104.763 103.386 105.482 103.36C106.914 103.281 108.326 102.985 109.668 102.482C112.299 101.487 114.795 100.167 117.098 98.5519C119.337 97.0161 121.475 95.3364 123.497 93.5235C125.486 91.7577 127.346 89.9271 129.086 88.0738C132.37 84.5568 135.402 80.8117 138.158 76.8666C140.582 73.4432 142.761 69.853 144.68 66.1228C146.274 63.0506 147.587 59.8408 148.604 56.5324C149.465 53.6164 149.9 50.9823 149.832 48.8309C149.824 47.8785 149.693 46.9311 149.443 46.0121C149.39 45.8209 149.328 45.6327 149.255 45.4483C149.2 45.2747 149.132 45.1057 149.051 44.9429C148.973 44.7874 148.902 44.6189 148.834 44.4958C148.766 44.3727 148.668 44.2333 148.594 44.1167C148.463 43.9044 148.312 43.7048 148.143 43.5205C148.075 43.4395 148.014 43.3618 147.952 43.297L147.771 43.1317C147.557 42.9373 147.447 42.8337 147.447 42.8337L147.771 43.1188L147.952 43.2808C148.017 43.3456 148.079 43.4233 148.15 43.5043C148.322 43.6857 148.475 43.8844 148.607 44.0973C148.685 44.2171 148.772 44.3403 148.853 44.4763L149.073 44.9235C149.159 45.0867 149.23 45.2569 149.287 45.4321C149.346 45.6136 149.433 45.795 149.478 45.9991C149.734 46.9208 149.871 47.8713 149.887 48.8277C149.961 50.9887 149.537 53.6229 148.681 56.5583C147.673 59.8765 146.365 63.0963 144.774 66.1779C142.863 69.9196 140.69 73.5218 138.271 76.9573C135.516 80.911 132.484 84.6647 129.199 88.1904C127.456 90.0502 125.596 91.884 123.604 93.6563C121.577 95.4741 119.434 97.1581 117.189 98.6977C114.88 100.322 112.376 101.649 109.737 102.647C108.371 103.161 106.933 103.462 105.476 103.538C104.74 103.564 104.005 103.49 103.289 103.318C102.563 103.141 101.883 102.813 101.293 102.355C100.703 101.898 100.216 101.32 99.8643 100.661C99.5196 100.011 99.2656 99.3165 99.1093 98.5973C98.8267 97.1747 98.7612 95.7174 98.9149 94.2751C99.2248 91.4659 99.8855 88.7066 100.882 86.0617C101.815 83.5096 102.913 81.0204 104.167 78.6097C105.385 76.2381 106.697 73.9798 108.055 71.8284C110.648 67.7637 113.526 63.8876 116.667 60.2292C119.392 57.0305 122.339 54.0282 125.486 51.2447C128.078 48.9247 130.878 46.8467 133.849 45.0369C136.479 43.4752 138.926 42.4092 141.035 41.9427C141.964 41.712 142.919 41.6031 143.876 41.6187C144.076 41.6234 144.275 41.6385 144.473 41.664C144.656 41.6756 144.838 41.7016 145.017 41.7418L145.509 41.8455C145.662 41.8908 145.801 41.9427 145.937 41.988C146.175 42.0638 146.405 42.1626 146.624 42.2829C146.721 42.3315 146.812 42.3736 146.89 42.4189L147.09 42.555C147.333 42.7462 147.453 42.8337 147.453 42.8337Z" fill="#3F8EFC"/>
<path d="M84.5683 91.9062C85.3395 91.9062 85.9648 91.281 85.9648 90.5097C85.9648 89.7385 85.3395 89.1133 84.5683 89.1133C83.7971 89.1133 83.1719 89.7385 83.1719 90.5097C83.1719 91.281 83.7971 91.9062 84.5683 91.9062Z" fill="#3F8EFC"/>
<path d="M164.373 46.2356C164.372 46.5117 164.29 46.7813 164.136 47.0106C163.982 47.2398 163.764 47.4183 163.509 47.5234C163.253 47.6286 162.973 47.6558 162.702 47.6016C162.431 47.5473 162.183 47.4141 161.988 47.2187C161.793 47.0232 161.66 46.7744 161.607 46.5036C161.553 46.2328 161.581 45.9522 161.687 45.6972C161.792 45.4423 161.971 45.2244 162.201 45.0711C162.431 44.9178 162.7 44.8359 162.977 44.8359C163.16 44.8359 163.342 44.8722 163.512 44.9425C163.681 45.0129 163.835 45.1161 163.965 45.2461C164.095 45.3761 164.198 45.5304 164.268 45.7002C164.338 45.87 164.373 46.052 164.373 46.2356Z" fill="#3F8EFC"/>
<path d="M94.3749 94.1162C94.3749 94.1868 94.3539 94.2558 94.3146 94.3145C94.2753 94.3732 94.2195 94.4189 94.1541 94.4457C94.0888 94.4726 94.017 94.4795 93.9478 94.4655C93.8786 94.4515 93.8151 94.4172 93.7653 94.367C93.7156 94.3169 93.682 94.2531 93.6686 94.1837C93.6552 94.1144 93.6627 94.0426 93.6902 93.9775C93.7176 93.9125 93.7638 93.857 93.8229 93.8183C93.8819 93.7795 93.9511 93.7591 94.0217 93.7598C94.1157 93.7606 94.2055 93.7986 94.2717 93.8653C94.3378 93.932 94.3749 94.0222 94.3749 94.1162Z" fill="#3F8EFC"/>
<path d="M101.955 54.9697C101.955 55.0402 101.934 55.1091 101.895 55.1677C101.856 55.2263 101.8 55.272 101.735 55.299C101.67 55.3259 101.598 55.333 101.529 55.3192C101.46 55.3055 101.396 55.2715 101.347 55.2217C101.297 55.1719 101.263 55.1083 101.249 55.0392C101.235 54.9701 101.242 54.8984 101.269 54.8333C101.296 54.7682 101.342 54.7125 101.401 54.6733C101.459 54.6342 101.528 54.6133 101.599 54.6133C101.693 54.6133 101.784 54.6508 101.851 54.7177C101.917 54.7845 101.955 54.8752 101.955 54.9697Z" fill="#3F8EFC"/>
<path d="M157.355 73.999C157.355 74.0696 157.334 74.1387 157.295 74.1973C157.256 74.256 157.2 74.3017 157.135 74.3286C157.069 74.3554 156.997 74.3623 156.928 74.3483C156.859 74.3343 156.796 74.3 156.746 74.2498C156.696 74.1997 156.662 74.1359 156.649 74.0665C156.636 73.9972 156.643 73.9254 156.671 73.8603C156.698 73.7953 156.744 73.7398 156.803 73.7011C156.862 73.6623 156.932 73.642 157.002 73.6426C157.049 73.6426 157.095 73.6518 157.138 73.6698C157.181 73.6877 157.22 73.714 157.253 73.7472C157.286 73.7803 157.312 73.8196 157.329 73.8629C157.347 73.9061 157.356 73.9523 157.355 73.999Z" fill="#3F8EFC"/>
<path d="M162.289 57.445C162.29 57.5157 162.269 57.5851 162.23 57.6442C162.191 57.7033 162.136 57.7495 162.07 57.7768C162.005 57.8042 161.933 57.8116 161.864 57.7979C161.794 57.7843 161.731 57.7502 161.681 57.7002C161.631 57.6502 161.597 57.5864 161.583 57.5169C161.569 57.4475 161.577 57.3756 161.604 57.3103C161.631 57.2451 161.677 57.1894 161.737 57.1505C161.796 57.1116 161.865 57.0912 161.936 57.0918C162.029 57.0918 162.119 57.129 162.186 57.1952C162.252 57.2615 162.289 57.3513 162.289 57.445Z" fill="#3F8EFC"/>
<path d="M219.369 110.452C220.939 109.471 222.712 108.863 224.553 108.673C225.396 108.586 226.319 108.612 226.999 109.124C227.077 109.169 227.141 109.235 227.185 109.313C227.229 109.392 227.251 109.481 227.249 109.571C227.21 109.699 227.124 109.807 227.009 109.876C224.906 111.479 221.725 111.683 219.382 110.452" fill="#3F8EFC"/>
<path d="M219.502 110.306C220.7 109.426 221.817 108.443 222.842 107.367C223.869 106.284 224.591 104.948 224.935 103.495C225.003 103.28 225.023 103.053 224.995 102.829C224.966 102.605 224.889 102.391 224.77 102.199C222.107 104.279 220.017 106.968 219.502 110.299" fill="#3F8EFC"/>
<path d="M219.399 110.432C219.645 108.98 219.623 107.494 219.334 106.049C219.038 104.593 218.205 103.301 217.001 102.43C216.541 103.505 216.739 104.743 217.063 105.867C217.565 107.607 218.346 109.254 219.376 110.744" fill="#3F8EFC"/>
<path d="M216.787 115.107C218.371 115.302 219.752 116.135 220.934 117.207C222.123 118.289 222.951 119.709 223.306 121.276C221.751 121.182 220.435 120.087 219.476 118.856C218.517 117.625 217.856 116.28 216.81 115.133" fill="#3F8EFC"/>
<path d="M216.219 115.856C216.842 114.273 217.061 112.559 216.855 110.87C216.649 109.18 216.025 107.569 215.04 106.182C214.136 109.392 214.469 113.018 216.219 115.856Z" fill="#3F8EFC"/>
<path d="M212.773 119.962C214.221 119.871 215.665 120.208 216.923 120.932C218.182 121.655 219.199 122.733 219.849 124.031C219.936 124.206 220.014 124.43 219.897 124.585C219.836 124.645 219.761 124.689 219.68 124.713C219.598 124.737 219.511 124.741 219.428 124.725C218.034 124.634 216.8 123.795 215.783 122.842C214.765 121.89 213.874 120.785 212.75 119.959" fill="#3F8EFC"/>
<path d="M212.883 119.739C213.624 117.349 213.67 114.798 213.016 112.384C212.757 111.435 212.319 110.44 211.444 109.996C211.409 109.973 211.37 109.957 211.329 109.95C211.288 109.943 211.245 109.944 211.205 109.954C211.134 109.991 211.08 110.054 211.052 110.129C210.759 110.791 210.632 111.515 210.683 112.238C210.733 112.958 210.841 113.674 211.007 114.376C211.282 115.672 211.428 117.085 212.144 118.209C212.313 118.481 212.466 118.762 212.601 119.052C212.737 119.34 212.737 119.441 212.86 119.667" fill="#3F8EFC"/>
<path d="M203.756 121.099C204.433 118.526 203.717 115.409 202.094 113.3C201.977 113.145 201.818 112.976 201.624 112.996C201.323 113.025 201.248 113.42 201.261 113.721C201.383 116.366 202.248 118.923 203.756 121.099Z" fill="#3F8EFC"/>
<path d="M202.932 121.66C199.809 122.473 196.225 121.683 193.627 119.768C195.184 118.985 196.965 118.766 198.665 119.149C200.347 119.535 201.886 120.29 202.932 121.66Z" fill="#3F8EFC"/>
<path d="M202.24 119.948C200.49 117.094 197.137 115.231 193.793 115.062C194.179 116.423 195.296 117.48 196.557 118.118C197.817 118.756 199.223 119.035 200.61 119.304C201.151 119.407 201.906 119.524 202.23 119.952" fill="#3F8EFC"/>
<path d="M203.584 111.639C203.111 110.019 202.631 108.379 202.502 106.691C202.372 105.003 202.612 103.244 203.474 101.799C205.094 104.961 205.275 108.658 203.619 111.807" fill="#3F8EFC"/>
<path d="M198.079 108.865C196.168 105.389 192.267 102.615 188.32 102.227C189.843 106.017 193.997 108.946 198.079 108.865Z" fill="#3F8EFC"/>
<path d="M199.281 109.539C196.43 109.973 194.003 111.807 191.337 112.895C190.779 113.165 190.16 113.285 189.542 113.242C189.254 113.239 188.974 113.147 188.74 112.98C188.506 112.812 188.329 112.577 188.233 112.305C188.137 112.034 188.126 111.74 188.203 111.462C188.279 111.185 188.439 110.938 188.661 110.754C189.035 110.406 189.476 110.137 189.957 109.963C192.873 108.755 195.97 108.726 199.029 109.458" fill="#3F8EFC"/>
<path d="M200.932 111.537C200.284 111.722 200.064 112.056 199.552 112.49C197.81 113.972 195.749 115.031 193.529 115.584C193.299 115.642 192.998 115.665 192.881 115.458C192.764 115.25 192.907 115.056 193.037 114.894C194.006 113.759 195.264 112.907 196.678 112.428C198.068 111.91 199.27 111.288 200.932 111.421" fill="#3F8EFC"/>
<path d="M202.792 99.4677C201.623 100.547 200.24 101.369 198.733 101.881C197.227 102.394 195.629 102.585 194.044 102.442C193.899 102.445 193.759 102.394 193.649 102.299C193.429 102.06 193.691 101.69 193.947 101.493C196.516 99.4871 199.63 98.6577 202.786 99.4677" fill="#3F8EFC"/>
<path d="M200.587 98.653C199.04 97.5144 197.246 96.758 195.35 96.4455C193.455 96.1329 191.512 96.2732 189.682 96.8548C191.055 98.2059 192.961 98.9349 194.866 99.1228C196.782 99.2981 198.715 99.1347 200.575 98.64" fill="#3F8EFC"/>
<path d="M201.465 93.1022C201.718 90.5394 201.552 88.5144 201.731 85.9353C201.731 85.7312 201.789 85.4817 201.98 85.4072C202.249 85.3068 202.472 85.634 202.56 85.9094C202.932 87.1024 203.027 88.3644 202.838 89.5996C202.649 90.8348 202.18 92.0105 201.468 93.0374" fill="#3F8EFC"/>
<path d="M201.65 93.3866C199.973 92.3052 198.528 90.9009 197.4 89.2556C196.56 88.1087 195.854 86.7317 196.045 85.3223C196.635 85.3371 197.215 85.4798 197.745 85.7404C198.275 86.0011 198.742 86.3736 199.113 86.8321C199.845 87.7608 200.377 88.8308 200.675 89.9749C201.015 91.1024 201.252 92.2623 201.647 93.3737" fill="#3F8EFC"/>
<path d="M197.473 92.2274C193.65 90.8122 190.11 88.7276 187.018 86.0714C188.265 85.5692 189.697 85.8673 190.944 86.3727C193.799 87.5229 196.128 89.4669 197.528 92.2047" fill="#3F8EFC"/>
<path d="M200.474 94.789C198.53 94.9996 196.586 95.1357 194.668 94.8182C192.749 94.5007 191.006 93.7555 189.247 93.0168C189.093 92.973 188.962 92.8721 188.881 92.7349C188.853 92.6537 188.85 92.5657 188.873 92.4829C188.896 92.4001 188.944 92.3263 189.01 92.2716C189.147 92.1666 189.305 92.0926 189.474 92.0545C191.385 91.5199 193.449 91.7726 195.332 92.4044C197.124 93.0176 198.848 93.8168 200.474 94.789Z" fill="#3F8EFC"/>
<path d="M211.496 99.5454C212.814 96.8886 212.727 93.7879 211.59 91.0469C210.789 92.2684 210.692 93.8203 210.838 95.2589C210.984 96.6974 211.428 98.2073 211.453 99.6653" fill="#3F8EFC"/>
<path d="M216.758 96.8956C218.407 96.8736 220.042 97.196 221.559 97.842C223.076 98.4881 224.441 99.4436 225.568 100.648C223.925 100.903 222.237 100.482 220.744 99.7533C219.25 99.0243 217.925 98.0004 216.609 96.9863" fill="#3F8EFC"/>
<path d="M220.295 95.7108C221.915 95.5812 223.451 95.3868 224.996 95.8566C226.542 96.3264 227.951 97.4054 228.58 98.8958C227.063 99.018 225.541 98.7304 224.173 98.0631C222.809 97.3977 221.508 96.6104 220.285 95.7108" fill="#3F8EFC"/>
<path d="M215.056 95.766C216.505 94.8167 217.972 93.8512 219.673 93.4591C221.374 93.0671 223.312 93.3587 224.488 94.6288C223.124 95.429 221.468 95.523 219.887 95.5198C218.306 95.5165 216.369 95.5003 214.875 96.0284" fill="#3F8EFC"/>
<path d="M215.05 95.8438C217.523 93.4138 218.462 89.0398 217.464 85.7285C215.511 88.7184 214.658 92.2941 215.05 95.8438Z" fill="#3F8EFC"/>
<path d="M208.245 88.9586C207.779 87.8765 207.451 86.736 207.033 85.6344C206.651 84.5136 206.064 83.4734 205.303 82.5661C204.531 81.6537 203.429 81.0831 202.238 80.9785C202.619 82.6518 203.345 84.2273 204.368 85.6047C205.392 86.982 206.691 88.1309 208.184 88.9781" fill="#3F8EFC"/>
<path d="M209.48 90.3964C210.252 89.3336 211.146 87.8918 212.192 87.098C213.239 86.3042 214.603 85.8247 215.879 86.126C215.218 87.2861 214.295 88.2761 213.185 89.0173C212.074 89.7586 210.806 90.2308 209.48 90.3964Z" fill="#3F8EFC"/>
<path d="M209.23 89.0485C209.784 87.7806 210.193 86.4548 210.452 85.0957C210.656 83.7284 210.53 82.2704 209.833 81.0781C208.475 83.6442 208.038 86.3982 209.162 89.0777" fill="#3F8EFC"/>
<path d="M208.233 81.0775C207.465 78.5309 205.136 76.6582 202.618 75.7963C202.31 75.6716 201.977 75.6217 201.646 75.6505C201.479 75.6694 201.322 75.7369 201.193 75.8446C201.064 75.9523 200.969 76.0955 200.921 76.2564C200.83 76.6873 201.186 77.0761 201.523 77.3645C203.491 79.0427 205.778 80.3057 208.246 81.0775" fill="#3F8EFC"/>
<path d="M208.208 78.995C208.108 77.3556 208.007 75.6902 207.473 74.135C206.938 72.5798 205.911 71.1218 204.414 70.4414C204.161 72.1003 204.89 73.7494 205.772 75.175C206.653 76.6006 207.716 77.9452 208.247 79.5361" fill="#3F8EFC"/>
<path d="M208.246 80.1254C208.894 78.2689 208.949 75.9134 210.057 74.2934C210.835 73.1627 212.079 72.3948 212.746 71.1992C213.149 72.3462 213.094 73.6045 212.591 74.7114C212.084 75.805 211.389 76.8008 210.537 77.6533C209.714 78.5313 209.011 79.1891 208.246 80.1189" fill="#3F8EFC"/>
<path d="M208.234 134.74C208.282 134.74 208.328 122.37 208.331 107.112C208.334 91.8553 208.295 79.4785 208.247 79.4785C208.198 79.4785 208.156 91.8488 208.153 107.112C208.149 122.376 208.185 134.74 208.234 134.74Z" fill="#3F8EFC"/>
<path d="M197.422 97.6797C197.571 97.753 197.728 97.8116 197.888 97.8546L199.168 98.2856C200.247 98.6549 201.731 99.1863 203.341 99.8472C204.952 100.508 206.436 101.085 207.291 101.827C207.633 102.111 207.904 102.47 208.085 102.877C208.208 103.168 208.231 103.346 208.247 103.343C208.254 103.3 208.254 103.256 208.247 103.214C208.228 103.09 208.198 102.968 208.156 102.851C207.993 102.42 207.724 102.037 207.375 101.736C206.859 101.299 206.281 100.94 205.661 100.67C204.974 100.346 204.216 100.022 203.393 99.6982C201.773 99.0502 200.286 98.5221 199.181 98.1819C198.637 98.0134 198.19 97.887 197.885 97.806C197.734 97.7517 197.579 97.7095 197.422 97.6797Z" fill="#3F8EFC"/>
<path d="M193.881 88.9773C193.881 88.9773 193.92 89.0291 194.01 89.1166L194.406 89.4892L195.89 90.8338L200.821 95.2272C202.765 96.9412 204.411 98.5774 205.564 99.8118C206.141 100.427 206.598 100.936 206.906 101.293L207.265 101.704C207.306 101.753 207.35 101.798 207.398 101.84C207.398 101.84 207.369 101.782 207.294 101.681C207.22 101.581 207.11 101.432 206.97 101.25C206.676 100.878 206.235 100.353 205.674 99.7243C204.184 98.0992 202.61 96.5537 200.957 95.0944C199.013 93.3837 197.267 91.8544 195.99 90.7398L194.471 89.4438L194.049 89.0939C193.929 89.0097 193.884 88.9708 193.881 88.9773Z" fill="#3F8EFC"/>
<path d="M202.9 96.9709C202.948 96.9482 202.547 96.0183 202.148 94.8454C201.749 93.6725 201.552 92.6779 201.5 92.6876C201.543 93.4454 201.704 94.1919 201.976 94.9005C202.147 95.4073 202.348 95.9038 202.576 96.3876C202.654 96.5971 202.763 96.7937 202.9 96.9709Z" fill="#3F8EFC"/>
<path d="M208.223 104.458C208.331 104.352 208.43 104.238 208.518 104.114L209.279 103.142C209.927 102.316 210.798 101.175 211.79 99.9313C212.781 98.6871 213.689 97.5661 214.346 96.7561C214.67 96.3705 214.92 96.0498 215.124 95.7841C215.226 95.6715 215.316 95.5488 215.393 95.418C215.273 95.5138 215.165 95.6225 215.069 95.742C214.871 95.9558 214.589 96.2733 214.246 96.6686C213.562 97.4559 212.626 98.564 211.654 99.8114C210.682 101.059 209.794 102.212 209.182 103.051C208.858 103.476 208.631 103.819 208.466 104.062C208.37 104.185 208.289 104.317 208.223 104.458Z" fill="#3F8EFC"/>
<path d="M210.592 101.413C211.071 100.884 211.412 100.245 211.586 99.553C211.773 98.9462 211.849 98.3107 211.81 97.677H211.732C211.768 97.8196 211.794 97.8973 211.807 97.8941C211.82 97.8909 211.823 97.8131 211.807 97.6641H211.729C211.687 98.282 211.578 98.8935 211.405 99.4882C211.183 100.149 210.911 100.793 210.592 101.413Z" fill="#3F8EFC"/>
<path d="M213.654 97.5626C213.868 97.4012 214.101 97.2663 214.348 97.1608C214.972 96.9765 215.627 96.9246 216.272 97.0086C216.928 97.0623 217.578 97.1707 218.216 97.3326C218.478 97.4148 218.746 97.4797 219.016 97.527C218.78 97.3801 218.522 97.2708 218.252 97.203C217.619 97.0084 216.968 96.8846 216.308 96.8336C215.638 96.7446 214.957 96.8179 214.322 97.0474C214.045 97.1343 213.808 97.3169 213.654 97.5626Z" fill="#3F8EFC"/>
<path d="M214.379 96.6334C214.379 96.6593 214.781 96.4714 215.442 96.2446C217.163 95.6571 219.004 95.5166 220.794 95.8363C221.478 95.9595 221.893 96.0891 221.903 96.0567C221.814 96.005 221.719 95.9647 221.621 95.9368C221.358 95.8456 221.089 95.7709 220.817 95.7132C219.918 95.5155 218.994 95.4511 218.076 95.5221C217.158 95.5922 216.256 95.7952 215.397 96.1247C215.137 96.2238 214.883 96.3396 214.638 96.4714C214.467 96.5524 214.373 96.6204 214.379 96.6334Z" fill="#3F8EFC"/>
<path d="M208.246 92.6868C208.562 91.807 208.821 90.9076 209.02 89.9943C209.279 89.0965 209.48 88.1831 209.623 87.2598C209.307 88.1395 209.048 89.0389 208.849 89.9522C208.588 90.8496 208.387 91.7631 208.246 92.6868Z" fill="#3F8EFC"/>
<path d="M208.184 92.6875C208.43 92.1272 208.717 91.5858 209.042 91.0675C209.406 90.5831 209.831 90.1476 210.306 89.7715C210.125 89.8155 209.957 89.9021 209.817 90.0242C209.458 90.2862 209.147 90.6072 208.896 90.9735C208.51 91.471 208.264 92.0628 208.184 92.6875Z" fill="#3F8EFC"/>
<path d="M208.233 128.146C208.252 128.146 208.288 127.848 208.427 127.323C208.633 126.584 208.911 125.866 209.257 125.181C210.109 123.431 211.664 121.219 213.64 118.999C214.612 117.881 215.584 116.825 216.378 115.814C217.097 114.925 217.747 113.981 218.322 112.992C218.706 112.324 219.031 111.623 219.294 110.899C219.385 110.643 219.453 110.439 219.489 110.3C219.514 110.231 219.531 110.159 219.54 110.086C219.54 110.086 219.433 110.371 219.216 110.873C218.925 111.584 218.58 112.272 218.186 112.931C217.595 113.903 216.934 114.832 216.21 115.711C215.4 116.712 214.45 117.762 213.469 118.883C211.486 121.105 209.934 123.351 209.101 125.126C208.763 125.821 208.502 126.551 208.323 127.303C208.275 127.508 208.239 127.716 208.213 127.925C208.211 127.999 208.218 128.073 208.233 128.146Z" fill="#3F8EFC"/>
<path d="M198.465 117.11C198.629 117.217 198.8 117.313 198.977 117.399C199.44 117.659 199.884 117.952 200.305 118.277C200.928 118.76 201.51 119.292 202.048 119.867C202.661 120.515 203.292 121.264 203.934 122.067C205.23 123.687 206.426 125.11 207.145 126.25C207.511 126.817 207.793 127.294 207.952 127.627C208.034 127.806 208.128 127.979 208.233 128.146C208.227 128.095 208.212 128.045 208.188 128C208.149 127.906 208.097 127.77 208.013 127.598C207.79 127.111 207.536 126.639 207.252 126.185C206.552 125.016 205.36 123.568 204.073 121.973C203.425 121.167 202.777 120.415 202.168 119.767C201.617 119.192 201.019 118.664 200.38 118.189C199.948 117.871 199.489 117.592 199.009 117.353C198.841 117.266 198.701 117.214 198.611 117.175C198.52 117.136 198.465 117.104 198.465 117.11Z" fill="#3F8EFC"/>
<path d="M198.273 120.69C198.63 120.768 198.992 120.82 199.356 120.846C200.225 120.936 201.083 121.105 201.922 121.351C202.749 121.621 203.526 122.029 204.219 122.556C204.75 122.968 205 123.305 205.026 123.285C204.985 123.194 204.93 123.11 204.864 123.036C204.693 122.831 204.503 122.642 204.297 122.472C203.611 121.902 202.822 121.469 201.974 121.196C201.125 120.941 200.25 120.786 199.365 120.732C199.003 120.685 198.638 120.671 198.273 120.69Z" fill="#3F8EFC"/>
<path d="M204.708 122.894C204.766 122.862 204.277 122.117 203.898 121.116C203.519 120.114 203.46 119.217 203.396 119.227C203.371 119.42 203.377 119.616 203.415 119.807C203.471 120.274 203.58 120.734 203.739 121.177C203.904 121.616 204.115 122.036 204.368 122.431C204.455 122.603 204.57 122.759 204.708 122.894Z" fill="#3F8EFC"/>
<path d="M195.299 107.5C195.355 107.535 195.413 107.565 195.474 107.591L195.982 107.821C196.206 107.918 196.475 108.038 196.78 108.2C197.084 108.362 197.444 108.524 197.813 108.744L198.403 109.068C198.61 109.188 198.811 109.327 199.028 109.46C199.462 109.726 199.9 110.05 200.363 110.384C202.357 111.868 204.095 113.667 205.511 115.71C205.835 116.186 206.137 116.634 206.386 117.077C206.512 117.298 206.645 117.505 206.759 117.725L207.083 118.328C207.293 118.707 207.442 119.067 207.588 119.378C207.734 119.689 207.851 119.964 207.938 120.188L208.152 120.706C208.173 120.768 208.203 120.827 208.239 120.881C208.23 120.817 208.213 120.753 208.188 120.693L208.003 120.165C207.91 119.884 207.801 119.608 207.679 119.339C207.54 119.015 207.397 118.655 207.193 118.27C207.092 118.075 206.992 117.871 206.885 117.661C206.778 117.45 206.645 117.236 206.522 117.013C206.276 116.562 205.968 116.109 205.654 115.626C204.242 113.557 202.489 111.742 200.47 110.26C200 109.936 199.556 109.612 199.116 109.347C198.898 109.214 198.691 109.075 198.468 108.958L197.868 108.634C197.489 108.417 197.126 108.261 196.815 108.112C196.551 107.981 196.279 107.864 196.002 107.762L195.48 107.562C195.423 107.532 195.362 107.512 195.299 107.5Z" fill="#3F8EFC"/>
<path d="M203.034 112.681C202.964 112.425 202.816 112.198 202.609 112.033C202.131 111.623 201.525 111.393 200.895 111.385C200.277 111.383 199.665 111.503 199.094 111.738C198.852 111.813 198.621 111.922 198.41 112.062C198.657 112.015 198.899 111.945 199.133 111.851C199.698 111.658 200.291 111.559 200.889 111.557C201.476 111.573 202.043 111.775 202.509 112.133C202.697 112.303 202.872 112.486 203.034 112.681Z" fill="#3F8EFC"/>
<path d="M204.187 113.873C204.239 113.844 203.802 113.206 203.701 112.289C203.668 111.736 203.705 111.181 203.811 110.637C203.709 110.773 203.64 110.932 203.61 111.1C203.403 111.896 203.501 112.741 203.886 113.468C203.954 113.625 204.057 113.763 204.187 113.873Z" fill="#3F8EFC"/>
<path d="M216.777 129.924C216.511 134.651 215.085 139.459 212.889 144.319H203.366C201.277 139.508 199.948 134.706 199.715 129.924H216.777Z" fill="#263238"/>
<path d="M201.258 137.567C201.258 137.616 204.397 137.658 208.266 137.658C212.134 137.658 215.274 137.616 215.274 137.567C215.274 137.519 212.138 137.477 208.266 137.477C204.394 137.477 201.258 137.519 201.258 137.567Z" fill="#FAFAFA"/>
<path d="M201.471 139.282C201.471 139.331 204.413 139.37 208.041 139.37C211.67 139.37 214.609 139.331 214.609 139.282C214.609 139.234 211.67 139.191 208.041 139.191C204.413 139.191 201.471 139.23 201.471 139.282Z" fill="#FAFAFA"/>
<path d="M212.743 133.021C212.622 134.482 212.622 135.951 212.743 137.412C212.86 135.951 212.86 134.483 212.743 133.021Z" fill="#FAFAFA"/>
<path d="M207.637 133.021C207.517 134.531 207.517 136.048 207.637 137.557C207.753 136.048 207.753 134.531 207.637 133.021Z" fill="#FAFAFA"/>
<path d="M202.841 132.982C202.725 134.526 202.725 136.076 202.841 137.619C202.962 136.076 202.962 134.526 202.841 132.982Z" fill="#FAFAFA"/>
<path d="M200.016 133.022C200.016 133.071 203.696 133.11 208.236 133.11C212.775 133.11 216.452 133.071 216.452 133.022C216.452 132.974 212.775 132.932 208.236 132.932C203.696 132.932 200.016 132.974 200.016 133.022Z" fill="#FAFAFA"/>
</svg>
