<svg width="119" height="33" viewBox="0 0 119 33" fill="none" xmlns="http://www.w3.org/2000/svg">
<path d="M60.7448 17.6291L67.7376 10.8599H62.0417L56.7976 16.0383C56.7566 16.0786 56.7046 16.1061 56.6481 16.1174C56.5917 16.1287 56.5331 16.1234 56.4796 16.1021C56.4261 16.0807 56.38 16.0443 56.347 15.9973C56.3139 15.9503 56.2953 15.8947 56.2934 15.8372V3.38086H51.8359V27.079H56.2914V20.5431C56.2851 20.4978 56.2945 20.4517 56.3181 20.4124C56.3417 20.3731 56.3779 20.3431 56.4209 20.3271C56.4639 20.3112 56.5111 20.3104 56.5547 20.3248C56.5982 20.3392 56.6355 20.3679 56.6605 20.4063L62.4895 27.079H68.2882L60.7105 18.5763C60.5924 18.4446 60.53 18.2724 60.5363 18.0958C60.5427 17.9192 60.6174 17.752 60.7448 17.6291Z" fill="#201F1E"/>
<path fill-rule="evenodd" clip-rule="evenodd" d="M21.9628 11.0235L21.9365 21.139C21.9204 26.8725 15.9059 31.4275 5.54883 31.4516V17.0546C14.7078 16.3487 21.5432 13.9315 21.9628 11.0215V11.0235Z" fill="#C7E0F4"/>
<path fill-rule="evenodd" clip-rule="evenodd" d="M21.9847 10.741C21.9847 13.7756 15.0021 16.3256 5.54863 17.0556V23.2899C2.62203 21.2125 0 20.0742 0 16.7057V0C9.94154 4.05828 21.9847 1.31522 21.9847 10.741Z" fill="#141AE9"/>
<path d="M42.6231 14.3871C38.5428 13.4741 38.5428 12.5007 38.5428 11.9738C38.5428 10.2061 41.0256 10.0694 41.786 10.0694C44.0914 10.0694 45.3076 10.9703 45.3964 12.7501L45.467 14.1096H49.8901L49.8357 12.6254C49.6763 8.34994 46.5924 5.69336 41.786 5.69336C37.1733 5.69336 34.0752 8.21722 34.0752 11.9738C34.0752 16.3559 38.091 17.8481 41.5904 18.6605H41.6085C45.6566 19.5474 45.6566 20.5529 45.6566 21.0939C45.6566 22.9581 43.0345 23.1049 42.2277 23.1049C41.0761 23.1049 38.3774 22.8214 38.2241 20.203L38.1454 18.8556H33.7344L33.7888 20.3398C33.9502 24.6776 37.264 27.479 42.2298 27.479C44.4988 27.479 46.4391 26.9118 47.8389 25.8359C48.5712 25.2771 49.1618 24.5548 49.5632 23.727C49.9647 22.8992 50.1657 21.9891 50.1503 21.0698C50.1503 16.6917 46.1326 15.1975 42.6231 14.3871Z" fill="#201F1E"/>
<path d="M73.404 11.6875L73.3576 10.8066H69.2773V27.1484H73.6662V19.5064C73.6662 15.5326 75.6065 15.0821 77.0668 15.0821H79.6787V10.8066H77.1192C75.6549 10.8066 74.4246 11.0962 73.404 11.6875Z" fill="#201F1E"/>
<path d="M84.2636 3.32725C83.8924 3.31686 83.5228 3.38164 83.1774 3.51767C82.832 3.65371 82.5178 3.85817 82.2538 4.11871C81.9899 4.37925 81.7817 4.69044 81.6418 5.03348C81.5019 5.37653 81.4332 5.74429 81.4399 6.11455C81.4399 6.86126 81.7374 7.57738 82.2669 8.10538C82.7965 8.63338 83.5147 8.93001 84.2636 8.93001C85.0125 8.93001 85.7308 8.63338 86.2603 8.10538C86.7899 7.57738 87.0874 6.86126 87.0874 6.11455C87.094 5.74429 87.0254 5.37653 86.8855 5.03348C86.7456 4.69044 86.5374 4.37925 86.2734 4.11871C86.0095 3.85817 85.6953 3.65371 85.3498 3.51767C85.0044 3.38164 84.6349 3.31686 84.2636 3.32725Z" fill="#201F1E"/>
<path d="M86.4592 10.8066H82.0703V27.1463H86.4592V10.8066Z" fill="#201F1E"/>
<path d="M98.1625 10.4674C96.5669 10.448 94.998 10.8758 93.6344 11.7022L93.586 10.8073H89.5098V32.3596H93.8986V26.3929C95.1999 27.122 96.6699 27.4985 98.1625 27.4849C103.003 27.4849 106.527 23.9012 106.527 18.9641C106.527 14.027 103.009 10.4674 98.1625 10.4674ZM98.0052 14.7912C100.516 14.7912 102.138 16.4282 102.138 18.9641C102.138 21.5 100.524 23.1631 98.0052 23.1631C95.486 23.1631 93.8462 21.5181 93.8462 18.9641C93.8462 16.4684 95.5183 14.7912 98.0052 14.7912Z" fill="#201F1E"/>
<path d="M115.655 22.8223C114.623 22.8223 114.137 22.6413 114.137 20.9963V15.0516H118.816V10.8063H114.137V7.49414H110.149L109.947 10.8063H106.795V15.0516H109.748V21.0486C109.748 24.8695 111.936 27.146 115.597 27.146H118.999V22.8223H115.655Z" fill="#201F1E"/>
</svg>
