<svg width="162" height="162" viewBox="0 0 162 162" fill="none" xmlns="http://www.w3.org/2000/svg">
<path d="M26.0528 30.9582C26.734 30.8042 27.4393 30.7893 28.1263 30.9146C28.8134 31.0399 29.468 31.3027 30.051 31.6872C31.2155 32.4625 32.1856 33.4958 32.886 34.7069C34.3051 36.9976 34.7846 40.0626 34.83 42.7551C31.8394 42.606 29.322 40.2311 28.0972 38.9481C26.1792 36.9133 23.976 32.076 26.0528 30.9582Z" fill="#F5F5F5"/>
<path d="M39.6188 44.6051C39.0235 44.0994 38.5726 43.4451 38.312 42.7088C38.0513 41.9724 37.9902 41.1802 38.1349 40.4126C38.2932 39.649 38.6015 38.9244 39.042 38.2809C39.4825 37.6374 40.0464 37.0878 40.701 36.6639C41.3004 36.2654 42.0358 35.9478 42.726 36.1584C43.0418 36.2764 43.3205 36.4764 43.5335 36.7377C43.7464 36.9991 43.886 37.3125 43.9377 37.6456C44.0282 38.316 43.9422 38.9983 43.6882 39.6252C42.9106 41.796 41.7637 43.7562 39.6188 44.6051Z" fill="#F5F5F5"/>
<path d="M41.3553 51.1207C41.0212 50.6279 40.7378 50.1025 40.5097 49.5526C40.2372 48.961 40.037 48.3388 39.9135 47.6993C39.7337 46.9289 39.6049 46.1474 39.528 45.36C39.4016 43.9082 39.633 42.4475 40.2019 41.1059C40.3796 40.7073 40.5967 40.3274 40.8499 39.9719C41.0443 39.7289 41.1739 39.6058 41.1739 39.6187C41.1739 39.6317 40.7851 40.1825 40.3801 41.1901C39.8845 42.5131 39.6897 43.9297 39.8099 45.3373C39.8813 46.1142 39.996 46.8865 40.1533 47.6507C40.2621 48.2751 40.4358 48.8865 40.6717 49.4748C41.1221 50.476 41.4007 51.1013 41.3553 51.1207Z" fill="#E0E0E0"/>
<path d="M28.0681 34.4898C28.2966 34.6866 28.507 34.9034 28.6967 35.1378C29.0822 35.5687 29.6363 36.2005 30.3167 36.9846C31.6678 38.556 33.5113 40.7462 35.5007 43.2119C37.49 45.6775 39.204 47.9682 40.4028 49.6465C41.0087 50.4889 41.4914 51.1726 41.8154 51.6521C41.9978 51.8928 42.1594 52.1486 42.2982 52.4167C42.0869 52.2022 41.8939 51.9703 41.7215 51.7234L40.2311 49.7794C38.974 48.1334 37.2244 45.8719 35.248 43.4063L30.1482 37.1207L28.606 35.2156C28.4077 34.9883 28.2279 34.7456 28.0681 34.4898Z" fill="#E0E0E0"/>
<path d="M37.584 47.5179C36.2246 46.5881 34.6633 45.9956 33.0293 45.7894C31.3954 45.5832 29.7358 45.7692 28.188 46.332C27.4039 46.6236 26.568 47.1712 26.5291 48.0071C26.4903 48.843 27.3262 49.4392 28.1005 49.7632C29.7253 50.4049 31.5036 50.5513 33.2114 50.1841C34.9192 49.8168 36.4801 48.9522 37.6974 47.6993" fill="#F5F5F5"/>
<path d="M30.2842 47.628C30.4251 47.5526 30.5771 47.5002 30.7345 47.4725C31.0261 47.3915 31.4571 47.2975 31.9917 47.1971C33.3978 46.9258 34.8417 46.9137 36.2523 47.1614C37.0297 47.3221 37.7759 47.6077 38.4619 48.0071C39.3908 48.5631 40.18 49.3245 40.7688 50.233C40.8672 50.358 40.9449 50.498 40.9989 50.6477C40.9503 50.6833 40.5809 50.1163 39.8163 49.3517C38.8186 48.3765 37.559 47.7124 36.1907 47.4401C34.8132 47.2031 33.4067 47.1867 32.0241 47.3915C30.9549 47.5308 30.2939 47.6604 30.2842 47.628Z" fill="#E0E0E0"/>
<path d="M41.9677 113.293C51.6294 108.602 55.3975 97.6407 56.6644 87.4509C56.8782 85.7499 57.348 83.9971 56.7778 82.3835C56.2075 80.77 54.4936 79.4675 52.8638 79.9309C51.516 80.3197 50.7352 81.6967 49.8409 82.7918C48.6445 84.2538 47.0599 85.3487 45.2693 85.9508C44.1029 86.3363 42.7162 86.4659 41.7442 85.711C40.4125 84.6742 40.5616 82.6298 40.8402 80.9482L42.3954 71.5522C42.674 69.8707 42.9527 68.1535 42.6838 66.4719C42.4148 64.7903 41.4947 63.125 39.9654 62.4219C38.4361 61.7188 36.3107 62.3279 35.7113 63.9188C35.4586 64.583 35.4877 65.3152 35.329 66.0086C35.1702 66.7019 34.7231 67.418 34.033 67.5087C33.3428 67.5994 32.737 67.0162 32.3093 66.4427C30.8448 64.4663 30.0121 62.0914 29.2572 59.7392C28.5023 57.3869 27.7895 54.9893 26.5064 52.8866C25.2234 50.7838 23.2664 48.9662 20.8915 48.4445C18.5166 47.9229 15.7075 49.0051 14.7161 51.2731C13.7246 53.5411 14.7161 56.1752 15.9278 58.3363C17.709 61.5397 19.9439 64.4687 22.5634 67.0324C23.0332 67.4957 23.5354 68.0044 23.6455 68.6524C23.8334 69.8318 22.5925 70.7779 21.4261 70.969C20.1074 71.1861 18.7661 70.8394 17.428 70.7876C16.0898 70.7357 14.58 71.0857 13.8866 72.2456C12.9146 73.8656 14.0746 75.8873 15.3025 77.2935C17.759 80.1085 20.6821 82.4792 23.9436 84.3016C25.1068 84.9496 26.3477 85.5555 27.2063 86.5858C28.0649 87.6161 28.4278 89.2232 27.6372 90.3118C26.8466 91.4004 25.2364 91.5333 23.9792 91.0862C22.7221 90.6391 21.6724 89.7481 20.5092 89.1001C18.3384 87.8591 15.3252 87.5416 13.527 89.3042C12.3444 90.4641 11.9686 92.2785 12.2116 93.9244C12.4546 95.5703 13.2386 97.0737 14.1005 98.4863C17.1137 103.424 21.2998 107.681 26.3704 110.393C31.441 113.105 36.3269 114.404 41.9677 113.309" fill="#EBEBEB"/>
<path d="M40.5971 113.831C40.8693 109.758 41.0507 111.871 40.3638 106.521C39.6769 101.172 38.4555 95.3662 36.9618 89.3495L35.8375 84.888C35.4649 83.4268 35.0988 81.972 34.6485 80.5788C33.7833 77.8991 32.7698 75.2695 31.6126 72.7024C30.5272 70.2432 29.4061 67.9493 28.3402 65.8141C27.2742 63.679 26.2439 61.6961 25.2201 59.94C23.6255 57.1592 21.813 54.5092 19.7995 52.015C19.09 51.1337 18.5035 50.4695 18.1212 50.0224L17.6676 49.5169C17.6195 49.4564 17.5652 49.401 17.5056 49.3517C17.546 49.4186 17.5927 49.4815 17.6449 49.5396C17.7519 49.6692 17.8944 49.8409 18.0726 50.0645C18.4517 50.5213 19.009 51.2017 19.6926 52.0927C21.6629 54.6099 23.4423 57.2709 25.0159 60.0534C26.0203 61.8127 27.0377 63.7859 28.0972 65.921C29.1567 68.0562 30.2583 70.3566 31.3372 72.8125C32.4834 75.3764 33.4871 78.0015 34.3439 80.676C34.7878 82.066 35.1507 83.5045 35.5233 84.9722C35.8959 86.44 36.2652 87.9239 36.6443 89.4272C38.1379 95.4504 39.3724 101.24 40.0657 106.573C40.7591 111.906 40.6068 109.771 40.3638 113.831" fill="#E0E0E0"/>
<path d="M34.5642 80.5432C34.6806 80.3222 34.7739 80.0899 34.8428 79.8498C35.0048 79.3995 35.2187 78.7418 35.4682 77.922C35.9736 76.2826 36.5924 73.9984 37.2664 71.4777C37.9403 68.957 38.5915 66.6825 39.1196 65.0592C39.3788 64.246 39.5992 63.5883 39.7676 63.1379C39.8641 62.9077 39.9347 62.6676 39.9782 62.4219C39.8471 62.6335 39.7385 62.8583 39.6542 63.0926C39.4631 63.5332 39.2104 64.178 38.922 64.988C38.3388 66.608 37.6519 68.876 36.978 71.3934C36.3041 73.9109 35.7241 76.1368 35.2673 77.8734C35.0599 78.6478 34.8817 79.3023 34.7392 79.8174C34.6518 80.0514 34.5931 80.2951 34.5642 80.5432Z" fill="#E0E0E0"/>
<path d="M13.5723 73.0555C13.8468 73.1635 14.1311 73.2448 14.4211 73.2985C14.9655 73.4346 15.7593 73.6225 16.7313 73.9012C18.6753 74.4325 21.3418 75.2555 24.2416 76.2955C27.1414 77.3356 29.7237 78.3983 31.5705 79.2115C32.4971 79.6165 33.2391 79.9632 33.751 80.1835C34.0102 80.3243 34.2826 80.4394 34.5642 80.527C34.3262 80.3524 34.0724 80.2006 33.8061 80.0734C33.3071 79.8045 32.5781 79.4254 31.6612 78.9945C29.8338 78.1229 27.2548 77.0278 24.3485 75.9813C21.8689 75.0815 19.3449 74.3094 16.7863 73.6679C15.8143 73.4249 15.0011 73.2597 14.4438 73.1592C14.157 73.0988 13.8653 73.0641 13.5723 73.0555Z" fill="#E0E0E0"/>
<path d="M40.176 106.081C40.176 106.081 40.2505 106.006 40.3672 105.841L40.8629 105.119C41.2873 104.487 41.8803 103.56 42.5995 102.403C44.0381 100.09 45.9238 96.8339 47.9553 93.2116C49.9867 89.5892 51.8433 86.3201 53.23 83.9808C53.9104 82.8468 54.4677 81.9104 54.8824 81.2171C55.0606 80.9158 55.2064 80.6663 55.3295 80.4622C55.3871 80.3769 55.4329 80.2843 55.4656 80.1868C55.4656 80.1868 55.3911 80.2613 55.2744 80.4265L54.756 81.149C54.3283 81.7808 53.7354 82.7075 53.0161 83.8642C51.5873 86.184 49.7016 89.424 47.6701 93.056C45.6387 96.6881 43.7821 99.9475 42.3954 102.287C41.715 103.421 41.1577 104.357 40.743 105.051L40.2991 105.805C40.2456 105.891 40.2042 105.984 40.176 106.081Z" fill="#E0E0E0"/>
<path d="M12.8887 92.2428C12.9695 92.3086 13.0589 92.3631 13.1544 92.4048L13.932 92.8163L16.848 94.3034C19.3136 95.5606 22.6994 97.3361 26.4351 99.3028C30.1708 101.269 33.5631 103.013 36.0709 104.221C37.315 104.824 38.3389 105.3 39.0355 105.618L39.852 105.977C39.9442 106.024 40.0422 106.059 40.1436 106.081C40.0627 106.015 39.9734 105.961 39.8779 105.919L39.0873 105.507L36.1713 104.02C33.7057 102.763 30.3199 100.988 26.5842 99.0209C22.8484 97.0542 19.4562 95.3078 16.9516 94.1026C15.7042 93.4999 14.6836 93.0236 13.9838 92.7061L13.1803 92.34C13.0877 92.295 12.9897 92.2624 12.8887 92.2428Z" fill="#E0E0E0"/>
<path d="M150.777 140.94C150.777 140.985 120.104 141.024 82.2766 141.024C44.4496 141.024 13.77 140.989 13.77 140.94C13.77 140.891 44.4366 140.856 82.2766 140.856C120.117 140.856 150.777 140.895 150.777 140.94Z" fill="#263238"/>
<path d="M21.2965 87.2824C21.2965 87.2824 23.5321 85.7725 26.3249 91.1283C29.1178 96.484 30.187 99.5782 30.187 99.5782C30.187 99.5782 30.9225 100.699 31.6904 99.954C32.4583 99.2088 33.4983 97.1093 34.8202 97.4754C36.1421 97.8415 36.6541 99.3708 36.4143 101.613C36.1745 103.855 35.8311 108.786 35.8019 109.23C35.7728 109.674 36.0287 110.309 36.6314 109.878C37.234 109.447 40.6976 105.527 42.4634 107.286C44.2292 109.045 42.5379 115.176 42.3662 115.849C42.1945 116.523 42.3273 116.821 42.6481 116.974C42.9688 117.126 44.0089 115.707 45.0392 114.631C46.0695 113.556 47.453 112.483 48.3861 113.581C49.3192 114.68 49.6594 119.268 45.3599 126.765L43.1405 130.109L39.1132 129.924C30.5175 129.001 27.0021 126.036 26.6651 124.633C26.3282 123.23 28 122.741 29.4775 122.54C30.9549 122.339 32.7175 122.336 32.779 121.98C32.8406 121.623 32.6818 121.348 32.0338 121.092C31.3858 120.836 25.4275 118.603 25.0451 116.144C24.6628 113.685 29.8727 113.189 30.5726 112.946C31.2724 112.703 30.8966 112.123 30.5272 111.89C30.1579 111.657 25.9556 109.036 24.0019 107.911C22.0481 106.787 21.0859 105.524 21.5881 104.192C22.0676 102.896 24.3777 103.301 25.4339 103.116C26.4902 102.932 26.0107 101.678 26.0107 101.678C26.0107 101.678 24.1315 98.9982 21.439 93.5777C18.7466 88.1572 21.3451 87.237 21.3451 87.237" fill="#3F8EFC"/>
<path d="M23.8074 92.0743C23.8275 92.1046 23.8459 92.136 23.8625 92.1683L24.0147 92.4567L24.5817 93.5615L26.6553 97.6374C28.4211 101.078 30.8673 105.818 33.5403 111.057C36.2133 116.297 38.666 121.046 40.3897 124.5C41.2451 126.224 41.9352 127.624 42.4179 128.599L42.959 129.717L43.0983 130.012C43.1275 130.076 43.1404 130.112 43.1404 130.112C43.1404 130.112 43.1178 130.083 43.0821 130.018L42.9331 129.733C42.797 129.47 42.6091 129.085 42.3661 128.625C41.8704 127.653 41.1641 126.266 40.2925 124.549C38.5559 121.108 36.1032 116.365 33.4043 111.132C30.7053 105.899 28.2818 101.14 26.5679 97.686L24.5267 93.5874C24.2966 93.1079 24.1152 92.7321 23.9856 92.4696C23.9273 92.3465 23.8819 92.2493 23.8495 92.1748C23.8307 92.1435 23.8165 92.1097 23.8074 92.0743Z" fill="#263238"/>
<path d="M33.4822 100.472C33.4315 100.829 33.3569 101.182 33.2586 101.529C33.1031 102.219 32.9022 103.094 32.6787 104.066C32.4551 105.038 32.2445 105.948 32.076 106.596C31.9885 106.92 31.914 107.176 31.8557 107.354C31.8337 107.449 31.7976 107.539 31.7488 107.623C31.8038 107.267 31.8773 106.915 31.9691 106.567L32.5296 104.027C32.7564 103.035 32.9767 102.141 33.1549 101.496C33.2457 101.172 33.3234 100.916 33.3817 100.741C33.402 100.647 33.4358 100.557 33.4822 100.472Z" fill="#263238"/>
<path d="M31.3794 107.704C31.3794 107.743 29.5261 107.27 27.2646 106.641C25.0031 106.013 23.1822 105.475 23.1951 105.433C23.2081 105.391 25.0452 105.867 27.3067 106.492C29.5682 107.118 31.3891 107.662 31.3794 107.704Z" fill="#263238"/>
<path d="M36.5764 116.718C36.4805 116.745 36.3813 116.759 36.2816 116.76C36.0937 116.779 35.8183 116.799 35.4781 116.815C34.7977 116.847 33.8581 116.87 32.8148 116.841C31.7715 116.812 30.8384 116.737 30.1612 116.666C29.8372 116.63 29.5489 116.595 29.3577 116.566C29.2592 116.558 29.1621 116.538 29.0693 116.504C29.4362 116.498 29.803 116.516 30.1677 116.556C30.8481 116.601 31.7877 116.656 32.8213 116.685C33.8548 116.715 34.7944 116.711 35.4748 116.705C35.8419 116.686 36.2099 116.69 36.5764 116.718Z" fill="#263238"/>
<path d="M39.92 110.594C39.7936 110.91 39.643 111.215 39.4696 111.508C39.1715 112.062 38.7536 112.823 38.2838 113.659C37.814 114.495 37.3798 115.25 37.059 115.791C36.8993 116.091 36.7162 116.378 36.5115 116.65C36.6379 116.334 36.7884 116.029 36.9618 115.736C37.2599 115.182 37.6779 114.421 38.1477 113.585C38.6175 112.749 39.0516 111.994 39.3724 111.456C39.5327 111.155 39.7157 110.867 39.92 110.594Z" fill="#263238"/>
<path d="M45.5186 117.968C45.4839 118.082 45.4349 118.191 45.3728 118.292L44.916 119.132C44.5272 119.835 43.9796 120.803 43.3673 121.869C42.7549 122.935 42.1912 123.898 41.7764 124.588C41.582 124.912 41.4136 125.181 41.2807 125.404C41.2256 125.507 41.1581 125.603 41.0798 125.689C41.1155 125.576 41.1645 125.467 41.2256 125.365L41.6825 124.526C42.0713 123.82 42.6188 122.851 43.2312 121.785C43.8436 120.719 44.4073 119.76 44.822 119.07L45.3178 118.254C45.3751 118.152 45.4424 118.057 45.5186 117.968Z" fill="#263238"/>
<path d="M41.148 125.472C41.0256 125.499 40.9004 125.509 40.7754 125.505C40.5324 125.505 40.1824 125.521 39.7515 125.524C38.8897 125.524 37.6941 125.524 36.3787 125.437C35.0632 125.349 33.8709 125.252 33.0156 125.152C32.5846 125.103 32.238 125.054 32.0014 125.019C31.8758 125.008 31.7519 124.983 31.6321 124.944C31.7571 124.933 31.8829 124.933 32.0079 124.944L33.0253 125.028C33.8839 125.103 35.073 125.197 36.3852 125.268C37.6974 125.339 38.8897 125.378 39.7515 125.401L40.7754 125.43C40.9006 125.432 41.0254 125.446 41.148 125.472Z" fill="#263238"/>
<path d="M146.487 85.5004L135.642 96.0595L125.65 115.127L114.414 136.689L100.608 130.209L85.6849 122.569L95.2299 104.334L101.162 83.9225C96.9698 86.7024 89.1744 90.49 79.8756 88.5135C69.7862 86.3752 74.63 48.3376 74.63 48.3376L85.7173 48.0524L86.8319 74.8699L99.3545 69.336L99.3739 69.3813C100.129 69.0574 100.79 68.7333 101.14 68.5551C108.07 64.7741 112.619 64.3172 120.055 66.9708L130.782 70.5348C133.54 71.8308 143.704 76.8366 146.487 85.5004Z" fill="#3F8EFC"/>
<path d="M108.54 66.1738C108.54 66.1738 108.29 66.3163 107.869 66.6176C107.279 67.0471 106.755 67.5613 106.314 68.1437C105.667 69.0126 105.152 69.9723 104.785 70.9916C104.338 72.2445 103.957 73.5195 103.641 74.8116L101.736 81.8197C101.486 82.6978 101.286 83.417 101.136 83.9354C101.068 84.172 101.01 84.3631 100.968 84.5089C100.952 84.5774 100.928 84.6438 100.897 84.7066C100.901 84.6371 100.914 84.5686 100.936 84.5024C100.971 84.3502 101.017 84.159 101.075 83.9192C101.208 83.3944 101.399 82.6718 101.619 81.7873C102.099 79.9729 102.753 77.5008 103.479 74.7662C103.797 73.4698 104.184 72.1914 104.639 70.9366C105.018 69.9073 105.551 68.9415 106.22 68.0724C106.677 67.4864 107.223 66.9767 107.84 66.5626C108.006 66.4501 108.179 66.3484 108.358 66.258C108.417 66.2256 108.477 66.1975 108.54 66.1738Z" fill="#263238"/>
<g opacity="0.3">
<path d="M104.493 71.5489C101.393 79.9437 95.8165 84.6353 87.9207 88.8408C92.5823 88.3244 97.0498 86.6881 100.942 84.0715" fill="#2E2E2E"/>
</g>
<g opacity="0.3">
<path d="M114.372 65.5743C115.685 86.6084 116.998 107.641 118.312 128.673L114.424 136.689L114.372 65.5743Z" fill="#2E2E2E"/>
</g>
<path d="M126.58 87.3957C126.535 87.4152 126.14 86.4237 125.586 85.2282C125.031 84.0326 124.539 83.0833 124.581 83.0606C124.734 83.2391 124.863 83.4361 124.967 83.6471C125.184 84.0229 125.462 84.5542 125.738 85.1569C126.013 85.7595 126.24 86.3136 126.386 86.7218C126.481 86.9365 126.547 87.1633 126.58 87.3957Z" fill="#FAFAFA"/>
<path d="M135.406 82.9602C134.738 83.4797 134.034 83.9518 133.3 84.3729C132.597 84.8447 131.863 85.269 131.103 85.6429C131.775 85.1274 132.48 84.6555 133.213 84.2303C133.915 83.7589 134.648 83.3346 135.406 82.9602Z" fill="#FAFAFA"/>
<path d="M131.576 79.7655C131.464 79.1988 131.406 78.6228 131.401 78.0451C131.347 77.4686 131.347 76.8882 131.401 76.3117C131.518 76.8789 131.576 77.4564 131.576 78.0354C131.633 78.6107 131.633 79.1902 131.576 79.7655Z" fill="#FAFAFA"/>
<path d="M140.386 79.1499C139.299 78.6107 138.264 77.9718 137.295 77.2416C137.851 77.4859 138.384 77.7809 138.886 78.1229C139.417 78.4176 139.919 78.7615 140.386 79.1499Z" fill="#FAFAFA"/>
<path d="M126.917 96.6265C127.157 95.8598 127.449 95.1106 127.792 94.3844C128.086 93.6371 128.43 92.9108 128.822 92.2104C128.584 92.9775 128.292 93.7267 127.948 94.4525C127.655 95.2001 127.311 95.9265 126.917 96.6265Z" fill="#FAFAFA"/>
<path d="M122.993 100.599C122.682 100.163 122.417 99.6961 122.203 99.2055C121.937 98.7388 121.72 98.2459 121.555 97.7346C121.867 98.1705 122.133 98.6374 122.349 99.1278C122.615 99.5938 122.831 100.087 122.993 100.599Z" fill="#FAFAFA"/>
<path d="M126.276 105.948C125.747 106.177 125.184 106.32 124.61 106.372C124.044 106.482 123.465 106.499 122.893 106.424C122.893 106.376 123.654 106.34 124.588 106.207C125.521 106.074 126.263 105.896 126.276 105.948Z" fill="#FAFAFA"/>
<path d="M130.484 100.097C130.625 99.5553 130.818 99.029 131.061 98.5252C131.253 97.9996 131.497 97.4948 131.79 97.0186C131.651 97.56 131.459 98.0864 131.217 98.59C131.026 99.1166 130.781 99.6216 130.484 100.097Z" fill="#FAFAFA"/>
<path d="M120.249 112.454C120.207 112.48 119.731 111.822 119.076 111.067C118.422 110.312 117.839 109.745 117.874 109.71C118.847 110.45 119.656 111.385 120.249 112.454Z" fill="#FAFAFA"/>
<path d="M118.393 99.1667C118.163 99.7325 117.88 100.275 117.547 100.787C117.264 101.33 116.931 101.847 116.552 102.329C116.787 101.765 117.071 101.223 117.401 100.709C117.684 100.166 118.016 99.6493 118.393 99.1667Z" fill="#FAFAFA"/>
<path d="M119.715 94.608C119.101 94.5339 118.495 94.406 117.904 94.2257C117.299 94.0982 116.706 93.916 116.135 93.6813C116.749 93.7535 117.355 93.8815 117.946 94.0637C118.551 94.1899 119.143 94.3721 119.715 94.608Z" fill="#FAFAFA"/>
<path d="M119.637 85.212C119.993 85.628 120.318 86.0698 120.609 86.5339C120.943 86.9644 121.244 87.4193 121.51 87.8947C121.111 87.5188 120.762 87.093 120.473 86.6279C120.133 86.1952 119.851 85.719 119.637 85.212Z" fill="#FAFAFA"/>
<path d="M116.64 84.7422C115.933 85.5082 115.144 86.1949 114.288 86.7899C114.62 86.387 114.996 86.0219 115.409 85.7012C115.784 85.3389 116.197 85.0174 116.64 84.7422Z" fill="#FAFAFA"/>
<path d="M119.008 79.8271C117.914 78.9643 117.002 77.8927 116.326 76.6746C116.368 76.6487 116.899 77.4068 117.641 78.2752C118.383 79.1435 119.044 79.7915 119.008 79.8271Z" fill="#FAFAFA"/>
<path d="M127.296 78.314C126.711 78.583 126.102 78.7999 125.479 78.962C124.872 79.1771 124.247 79.3376 123.612 79.4415C124.199 79.1751 124.807 78.9584 125.43 78.7935C126.037 78.5791 126.661 78.4186 127.296 78.314Z" fill="#FAFAFA"/>
<path d="M115.629 70.4214C115.58 70.4214 115.603 69.6794 115.487 68.7787C115.37 67.878 115.163 67.1587 115.221 67.1587C115.661 68.1898 115.802 69.3236 115.629 70.4311V70.4214Z" fill="#FAFAFA"/>
<path d="M108.255 93.9146C108.016 94.1219 107.761 94.3104 107.493 94.4784C107.014 94.8024 106.359 95.2851 105.66 95.8359C104.96 96.3867 104.344 96.9084 103.904 97.2907C103.676 97.5111 103.432 97.7146 103.175 97.8998C103.365 97.6453 103.582 97.4117 103.823 97.2032C104.374 96.6734 104.953 96.1727 105.556 95.7031C106.157 95.2305 106.781 94.7882 107.425 94.3779C107.687 94.1977 107.964 94.0425 108.255 93.9146Z" fill="#FAFAFA"/>
<path d="M107.83 91.3162C107.788 91.3389 107.244 90.4932 106.489 89.505C105.734 88.5168 105.067 87.7651 105.102 87.7295C105.287 87.8548 105.451 88.0065 105.591 88.1799C105.956 88.5693 106.301 88.977 106.625 89.4013C107.001 89.9003 107.315 90.3733 107.526 90.7233C107.654 90.9057 107.757 91.1053 107.83 91.3162Z" fill="#FAFAFA"/>
<path d="M109.804 81.0745C108.802 81.7558 107.739 82.3426 106.628 82.8274C107.115 82.4642 107.633 82.1464 108.177 81.878C108.693 81.5596 109.237 81.2906 109.804 81.0745Z" fill="#FAFAFA"/>
<path d="M107.85 76.6033C107.646 76.4839 107.459 76.3367 107.296 76.1659C106.876 75.7827 106.485 75.369 106.126 74.9282C105.764 74.4882 105.433 74.0226 105.138 73.535C105.001 73.3416 104.892 73.13 104.814 72.9065C104.859 72.8806 105.413 73.8007 106.253 74.8213C107.092 75.8419 107.892 76.5644 107.85 76.6033Z" fill="#FAFAFA"/>
<path d="M111.213 76.5093C111.36 76.0174 111.56 75.5427 111.809 75.0934C112.009 74.6195 112.26 74.1686 112.557 73.7488C112.412 74.2414 112.212 74.7162 111.961 75.1647C111.763 75.6394 111.512 76.0904 111.213 76.5093Z" fill="#FAFAFA"/>
<path d="M110.315 71.3934C110.264 71.3934 110.315 70.3857 110.127 69.1707C109.94 67.9557 109.58 67.0161 109.628 66.9967C109.751 67.1822 109.844 67.3855 109.904 67.5993C110.083 68.1011 110.214 68.6185 110.296 69.1448C110.377 69.6711 110.41 70.2035 110.396 70.7357C110.405 70.9578 110.378 71.1799 110.315 71.3934Z" fill="#FAFAFA"/>
<path d="M111.132 97.2C111.11 96.8839 111.11 96.5667 111.132 96.2506C111.155 95.6674 111.171 94.8607 111.148 93.9826C111.126 93.1046 111.067 92.2881 111.019 91.7146C110.975 91.4013 110.955 91.085 110.96 90.7686C111.05 91.073 111.11 91.3856 111.138 91.7017C111.239 92.4604 111.299 93.224 111.317 93.9891C111.337 94.7533 111.316 95.518 111.252 96.2798C111.244 96.5899 111.204 96.8982 111.132 97.2Z" fill="#FAFAFA"/>
<path d="M110.652 105.264C110.2 104.848 109.72 104.461 109.217 104.108C108.685 103.8 108.135 103.527 107.568 103.291C108.189 103.397 108.782 103.625 109.313 103.964C109.844 104.303 110.302 104.745 110.659 105.264H110.652Z" fill="#FAFAFA"/>
<path d="M114.696 110.254C113.983 110.719 113.239 111.135 112.47 111.501C111.728 111.918 110.958 112.284 110.167 112.596C110.881 112.134 111.624 111.719 112.392 111.352C113.135 110.935 113.905 110.568 114.696 110.254Z" fill="#FAFAFA"/>
<path d="M103.298 112.467C102.706 111.809 102.159 111.113 101.658 110.384C101.111 109.687 100.609 108.957 100.155 108.197C100.745 108.857 101.292 109.554 101.794 110.283C102.34 110.979 102.842 111.709 103.298 112.467Z" fill="#FAFAFA"/>
<path d="M99.7918 103.252C99.7359 103.036 99.7108 102.812 99.7173 102.588C99.7011 102.177 99.6946 101.616 99.7173 100.968C99.74 100.32 99.8048 99.7726 99.8599 99.3481C99.8754 99.1272 99.92 98.9093 99.9927 98.7001C100.041 98.7001 99.9441 99.7175 99.8858 100.968C99.8275 102.219 99.8242 103.252 99.7918 103.252Z" fill="#FAFAFA"/>
<path d="M95.9753 118.983C95.3115 118.539 94.6793 118.049 94.0831 117.518C93.4515 117.029 92.8549 116.496 92.2979 115.924C92.9618 116.368 93.5941 116.857 94.19 117.388C94.8217 117.877 95.4183 118.41 95.9753 118.983Z" fill="#FAFAFA"/>
<path d="M98.2562 118.5C98.1516 117.657 98.1028 116.809 98.1104 115.96C98.0636 115.112 98.0723 114.262 98.1364 113.416C98.241 114.259 98.2897 115.107 98.2822 115.956C98.329 116.804 98.3203 117.653 98.2562 118.5Z" fill="#FAFAFA"/>
<path d="M102.76 128.255C102.76 128.281 102.355 128.122 101.703 127.912C100.007 127.366 98.2284 127.124 96.4482 127.196C95.7645 127.222 95.3433 127.27 95.3401 127.241C95.4335 127.205 95.5317 127.182 95.6317 127.173C95.8196 127.138 96.0982 127.105 96.4417 127.076C98.2379 126.94 100.042 127.188 101.736 127.802C101.994 127.895 102.246 128.003 102.491 128.126C102.587 128.155 102.677 128.199 102.76 128.255Z" fill="#FAFAFA"/>
<path d="M106.469 130.037C106.733 130.175 106.979 130.344 107.202 130.54C108.323 131.427 109.337 132.442 110.225 133.562C110.421 133.786 110.589 134.031 110.727 134.295C110.513 134.094 110.313 133.877 110.131 133.647C109.774 133.235 109.269 132.675 108.682 132.088C108.096 131.502 107.535 131 107.124 130.64C106.891 130.456 106.672 130.254 106.469 130.037Z" fill="#FAFAFA"/>
<path d="M108.086 113.157C107.757 112.55 107.477 111.919 107.247 111.268C106.967 110.64 106.739 109.989 106.563 109.324C106.892 109.931 107.173 110.562 107.403 111.213C107.682 111.842 107.911 112.492 108.086 113.157Z" fill="#FAFAFA"/>
<path d="M95.0713 80.3196C94.9333 80.5232 94.7663 80.7055 94.5755 80.8607C94.1435 81.2624 93.6798 81.6287 93.1888 81.9558C92.6972 82.2853 92.1792 82.5735 91.6401 82.8176C91.4231 82.9331 91.1907 83.0171 90.95 83.0671C90.9305 83.0185 91.9576 82.5779 93.0949 81.8165C94.2321 81.0551 95.0356 80.2807 95.0713 80.3196Z" fill="#FAFAFA"/>
<path d="M95.904 76.8852C95.8369 75.922 95.8826 74.9542 96.0401 74.0016C96.1071 74.9648 96.0615 75.9326 95.904 76.8852Z" fill="#FAFAFA"/>
<path d="M89.4402 79.7688C88.8598 79.5961 88.2968 79.3694 87.7587 79.0917C87.1942 78.8645 86.6519 78.5858 86.1387 78.259C86.7185 78.4334 87.2813 78.6601 87.8202 78.9361C88.3847 79.1633 88.927 79.442 89.4402 79.7688Z" fill="#FAFAFA"/>
<path d="M100.971 75.3754C100.934 74.7777 100.952 74.1778 101.026 73.5836C101.042 72.985 101.116 72.3892 101.247 71.8049C101.284 72.4024 101.267 73.0022 101.195 73.5966C101.177 74.1953 101.102 74.7908 100.971 75.3754Z" fill="#FAFAFA"/>
<path d="M86.0056 86.6376C85.3493 86.4719 84.7252 86.1982 84.1588 85.8276C83.5631 85.5044 83.0272 85.0813 82.5745 84.5769C82.6069 84.538 83.297 85.118 84.2431 85.685C85.1891 86.252 86.0251 86.589 86.0056 86.6376Z" fill="#FAFAFA"/>
<path d="M81.2007 80.0442C80.7834 80.6192 80.322 81.1608 79.8205 81.6642C79.3592 82.2095 78.8566 82.7186 78.3171 83.187C79.1944 82.0603 80.1586 81.0041 81.2007 80.028V80.0442Z" fill="#FAFAFA"/>
<path d="M80.7893 74.1377C80.2373 73.951 79.7244 73.6644 79.2762 73.292C78.7961 72.9645 78.3781 72.5542 78.0417 72.0803C78.0774 72.0446 78.6217 72.5922 79.3799 73.1559C80.138 73.7197 80.812 74.0955 80.7893 74.1377Z" fill="#FAFAFA"/>
<path d="M77.7598 75.3754C77.5763 75.7222 77.3439 76.0408 77.0697 76.3214C76.837 76.638 76.561 76.9205 76.25 77.1606C76.6652 76.4963 77.1737 75.8951 77.7598 75.3754Z" fill="#FAFAFA"/>
<path d="M84.2399 64.4112C83.8627 65.0033 83.4391 65.5645 82.9731 66.0895C82.5516 66.6518 82.0845 67.1785 81.5767 67.6642C81.9543 67.0713 82.3778 66.5091 82.8435 65.9826C83.2666 65.4226 83.7336 64.8972 84.2399 64.4112Z" fill="#FAFAFA"/>
<path d="M78.6897 65.6586C78.1901 65.2151 77.7284 64.7307 77.3095 64.2103C76.8502 63.7275 76.4318 63.2073 76.0588 62.6551C76.559 63.0968 77.0208 63.5802 77.4391 64.1001C77.8986 64.5839 78.3169 65.1052 78.6897 65.6586Z" fill="#FAFAFA"/>
<path d="M81.4697 58.6213C81.0981 58.1412 80.7726 57.627 80.4977 57.0856C80.1767 56.5711 79.9023 56.0289 79.678 55.4656C80.0491 55.9472 80.3746 56.4625 80.65 57.0046C80.9713 57.5177 81.2457 58.0589 81.4697 58.6213Z" fill="#FAFAFA"/>
<path d="M81.324 54.0821C81.2851 54.0497 81.7711 53.4341 82.1567 52.5625C82.5422 51.6909 82.6815 50.9231 82.7334 50.9425C82.6527 52.1264 82.1531 53.2429 81.324 54.0918V54.0821Z" fill="#FAFAFA"/>
<path d="M75.9811 53.8132C75.9307 53.1282 76.0686 52.4426 76.3796 51.8303C76.5807 51.3909 76.8473 50.9845 77.1702 50.625C77.2938 50.4667 77.4467 50.3336 77.6205 50.233C77.1999 50.7481 76.835 51.3064 76.5319 51.8983C76.2801 52.515 76.0955 53.157 75.9811 53.8132Z" fill="#FAFAFA"/>
<path d="M122.695 46.1052C122.547 44.7622 122.53 43.4078 122.647 42.0616C122.768 40.7073 123.286 39.4189 124.137 38.3583C125.022 37.3345 126.383 36.6768 127.721 36.8485C128.55 36.9554 129.341 37.3636 130.167 37.341C131.139 37.3118 131.972 36.7156 132.85 36.3171C134.234 35.6888 135.784 35.5262 137.269 35.8538C138.051 36.0013 138.776 36.3675 139.359 36.91C139.646 37.1838 139.859 37.526 139.977 37.9047C140.096 38.2833 140.116 38.6858 140.036 39.0744C141.015 39.0314 141.995 39.1174 142.952 39.3303C143.91 39.5462 144.746 40.1274 145.281 40.9503C145.764 41.796 145.732 42.9721 145.038 43.6557C145.495 43.5946 145.958 43.7043 146.338 43.9639C146.719 44.2235 146.99 44.6145 147.099 45.0619C147.185 45.5146 147.139 45.9825 146.967 46.4098C146.795 46.8372 146.503 47.2061 146.127 47.4724C145.221 48.0272 144.148 48.243 143.098 48.0816C142.197 47.9098 141.154 47.6571 140.431 47.1096" fill="#263238"/>
<path d="M121.992 76.626C123.78 77.0851 125.676 76.8189 127.268 75.8854C128.86 74.952 130.019 73.4269 130.491 71.6429C131.038 69.5661 131.486 67.8262 131.486 67.8262C131.486 67.8262 136.9 68.7561 138.691 63.6142C140.483 58.4723 143.551 46.3741 143.551 46.3741C141.048 44.1352 137.992 42.6049 134.699 41.9414C131.406 41.2779 127.996 41.5051 124.821 42.5995L123.849 42.9235L116.97 67.9785C116.721 68.8761 116.654 69.8145 116.773 70.7385C116.891 71.6625 117.194 72.5535 117.661 73.3591C118.129 74.1647 118.753 74.8687 119.497 75.4297C120.241 75.9907 121.089 76.3975 121.992 76.626Z" fill="#B78876"/>
<path d="M131.518 67.7549C129.128 67.0017 127.015 65.5547 125.449 63.598C125.449 63.598 125.793 67.8326 131.084 69.106L131.518 67.7549Z" fill="#AA6550"/>
<path d="M122.712 48.4898C122.637 48.4218 119.527 46.2574 118.461 49.815C117.395 53.3725 121.182 53.703 121.218 53.609C121.254 53.515 122.712 48.4898 122.712 48.4898Z" fill="#B78876"/>
<path d="M120.528 51.934C120.528 51.934 120.453 51.9599 120.334 51.9761C120.171 51.9896 120.009 51.941 119.88 51.84C119.556 51.5905 119.41 50.8972 119.585 50.2524C119.666 49.9445 119.816 49.6588 120.023 49.4165C120.091 49.3178 120.182 49.2368 120.288 49.1805C120.394 49.1241 120.512 49.0939 120.632 49.0925C120.71 49.0917 120.786 49.1195 120.846 49.1708C120.906 49.2221 120.945 49.2933 120.956 49.3711C120.975 49.4845 120.93 49.5493 120.956 49.5623C120.982 49.5752 121.05 49.5234 121.063 49.3679C121.07 49.2748 121.044 49.1822 120.991 49.1054C120.953 49.0529 120.905 49.0086 120.849 48.9752C120.793 48.9418 120.732 48.92 120.667 48.911C120.513 48.8955 120.356 48.9201 120.214 48.9825C120.071 49.0449 119.948 49.1431 119.854 49.2674C119.61 49.5293 119.434 49.8477 119.342 50.1941C119.148 50.9166 119.313 51.6974 119.783 52.002C119.87 52.0581 119.969 52.0939 120.072 52.1068C120.176 52.1197 120.28 52.1094 120.379 52.0765C120.505 52.0182 120.547 51.9469 120.528 51.934Z" fill="#AA6550"/>
<path d="M139.193 53.8002C139.13 53.9951 138.993 54.1571 138.811 54.2511C138.629 54.3452 138.417 54.3636 138.221 54.3024C138.126 54.2783 138.035 54.2353 137.956 54.1759C137.877 54.1165 137.811 54.0419 137.761 53.9565C137.711 53.871 137.679 53.7765 137.666 53.6785C137.654 53.5804 137.661 53.4808 137.687 53.3855C137.749 53.1937 137.884 53.0338 138.063 52.9394C138.241 52.8451 138.449 52.8238 138.643 52.88C138.74 52.9027 138.832 52.9447 138.913 53.0037C138.994 53.0626 139.062 53.1373 139.113 53.2232C139.165 53.309 139.198 53.4044 139.212 53.5035C139.226 53.6027 139.22 53.7036 139.193 53.8002Z" fill="#263238"/>
<path d="M140.153 53.3013C140.03 53.3661 139.612 52.7699 138.821 52.5042C138.03 52.2385 137.314 52.4427 137.263 52.3163C137.233 52.2612 137.386 52.1187 137.7 52.0182C138.125 51.8929 138.578 51.9043 138.996 52.0506C139.408 52.187 139.766 52.4515 140.017 52.8055C140.188 53.0745 140.211 53.2753 140.153 53.3013Z" fill="#263238"/>
<path d="M131.417 51.192C131.355 51.3838 131.22 51.5437 131.042 51.638C130.863 51.7323 130.655 51.7536 130.462 51.6974C130.366 51.6733 130.276 51.6303 130.197 51.5709C130.118 51.5115 130.051 51.4369 130.001 51.3515C129.952 51.2661 129.919 51.1716 129.907 51.0735C129.894 50.9754 129.901 50.8758 129.927 50.7805C129.989 50.5882 130.124 50.4278 130.302 50.3334C130.481 50.2389 130.689 50.218 130.883 50.2751C130.979 50.2991 131.069 50.3421 131.148 50.4015C131.227 50.461 131.293 50.5356 131.343 50.621C131.393 50.7064 131.425 50.8009 131.438 50.899C131.451 50.997 131.444 51.0967 131.417 51.192Z" fill="#263238"/>
<path d="M132.331 50.8388C132.208 50.9069 131.787 50.3075 130.996 50.0418C130.206 49.7761 129.493 49.9802 129.438 49.8539C129.412 49.7988 129.561 49.6562 129.879 49.559C130.303 49.4336 130.756 49.4438 131.175 49.5882C131.587 49.7256 131.945 49.9898 132.198 50.3431C132.364 50.612 132.39 50.8129 132.331 50.8388Z" fill="#263238"/>
<path d="M133.232 57.672C133.232 57.6266 133.763 57.7044 134.593 57.8696C134.803 57.9182 135.007 57.9409 135.088 57.8145C135.175 57.61 135.198 57.3841 135.153 57.1665C135.127 56.6125 135.101 56.0325 135.072 55.4266C134.978 52.961 134.982 50.9587 135.072 50.9554C135.163 50.9522 135.328 52.9513 135.422 55.4169C135.442 56.0228 135.458 56.6028 135.474 57.1568C135.521 57.4423 135.464 57.7351 135.315 57.983C135.262 58.0445 135.196 58.0931 135.121 58.1251C135.046 58.1571 134.965 58.1717 134.884 58.1677C134.762 58.1615 134.641 58.1387 134.525 58.0996C133.718 57.8761 133.219 57.7141 133.232 57.672Z" fill="#263238"/>
<path d="M130.721 57.4355C130.851 57.4711 130.566 58.3297 131.097 59.1851C131.628 60.0404 132.571 60.2543 132.539 60.3742C132.539 60.4325 132.276 60.4746 131.891 60.3547C131.386 60.1931 130.954 59.858 130.672 59.4086C130.4 58.9785 130.307 58.4584 130.413 57.9604C130.497 57.591 130.663 57.4096 130.721 57.4355Z" fill="#263238"/>
<path d="M140.327 51.8141C140.13 51.9469 139.647 51.5776 138.996 51.3475C138.345 51.1175 137.745 51.0624 137.68 50.8324C137.654 50.7222 137.803 50.5699 138.102 50.4824C138.496 50.3877 138.909 50.4122 139.289 50.553C139.67 50.6937 139.999 50.9444 140.237 51.273C140.405 51.5354 140.418 51.746 140.327 51.8141Z" fill="#263238"/>
<path d="M132.26 47.628C132.14 47.6928 131.936 47.5859 131.706 47.4465C131.408 47.2687 131.096 47.1159 130.773 46.9897C130.445 46.8718 130.108 46.7829 129.765 46.724C129.49 46.6689 129.276 46.6268 129.227 46.4972C129.179 46.3676 129.334 46.1732 129.684 46.0436C130.15 45.8965 130.652 45.9091 131.109 46.0793C131.567 46.2495 131.955 46.5676 132.211 46.9832C132.39 47.3234 132.373 47.5761 132.26 47.628Z" fill="#263238"/>
<path d="M143.283 48.0557C140.577 47.8982 137.991 46.8824 135.902 45.1559C133.576 43.2507 130.663 41.9159 129.869 42.2917C129.075 42.6675 128.32 45.3373 125.54 45.5317C125.54 45.5317 124.549 50.7319 122.534 50.0677C120.518 49.4035 123.619 41.7182 123.619 41.7182L129.208 40.4028L134.933 40.6134L140.075 41.7798L144.523 44.3361L143.283 48.0557Z" fill="#263238"/>
<path d="M114.414 27.6599H41.6663V140.943H114.414V27.6599Z" fill="#FAFAFA"/>
<path d="M114.414 140.94C114.414 140.243 114.382 94.2354 114.336 27.6566L114.414 27.7344H41.676L41.7635 27.6501C41.7635 70.5089 41.7635 109.972 41.7441 140.934L41.676 140.865L114.424 140.934L41.676 140.998H41.6112V140.94C41.6112 109.979 41.6112 70.5153 41.5918 27.6566V27.5724H41.6858H114.424H114.502V27.6501C114.446 94.2386 114.414 140.247 114.414 140.94Z" fill="#263238"/>
<path d="M61.1646 52.8865H51.8561C51.5473 52.8865 51.2511 52.764 51.0325 52.546C50.8138 52.328 50.6906 52.0321 50.6897 51.7233V38.8378C50.6906 38.5291 50.8138 38.2332 51.0325 38.0152C51.2511 37.7971 51.5473 37.6747 51.8561 37.6747H57.7594L62.3278 42.3824V51.7233C62.3278 52.0318 62.2052 52.3277 61.9871 52.5458C61.769 52.7639 61.4731 52.8865 61.1646 52.8865Z" fill="#3F8EFC"/>
<path d="M57.7595 37.6747V41.3002C57.7604 41.587 57.8747 41.8617 58.0774 42.0645C58.2802 42.2673 58.5549 42.3815 58.8417 42.3824H62.3279L57.7595 37.6747Z" fill="#3F8EFC"/>
<g opacity="0.2">
<path d="M57.8081 41.6178C57.8095 41.8922 57.9048 42.1579 58.0781 42.3706C58.2514 42.5834 58.4922 42.7305 58.7607 42.7874L58.8773 42.8134C59.3309 42.8944 62.3279 43.4257 62.3279 43.3577V42.3857H58.8417C58.8417 42.3857 57.9733 42.3533 57.8081 41.6178Z" fill="#2E2E2E"/>
</g>
<g opacity="0.3">
<path d="M57.7595 37.6747V41.3002C57.7604 41.587 57.8747 41.8617 58.0774 42.0645C58.2802 42.2673 58.5549 42.3815 58.8417 42.3824H62.3279L57.7595 37.6747Z" fill="white"/>
</g>
<path d="M56.9786 41.148C56.2636 41.2313 55.5433 41.2594 54.824 41.2322C54.1057 41.2595 53.3865 41.2313 52.6726 41.148C53.3865 41.0646 54.1057 41.0364 54.824 41.0637C55.5433 41.0365 56.2636 41.0647 56.9786 41.148Z" fill="#FAFAFA"/>
<path d="M59.7585 43.2022C59.7585 43.2475 58.1741 43.2864 56.2172 43.2864C54.2602 43.2864 52.6726 43.2475 52.6726 43.2022C52.6726 43.1568 54.2602 43.1179 56.2172 43.1179C58.1741 43.1179 59.7585 43.1536 59.7585 43.2022Z" fill="#FAFAFA"/>
<path d="M60.3968 44.9129C60.3968 44.9615 58.6698 44.9971 56.5347 44.9971C54.3995 44.9971 52.6726 44.9615 52.6726 44.9129C52.6726 44.8643 54.4028 44.8286 56.5347 44.8286C58.6666 44.8286 60.3968 44.8675 60.3968 44.9129Z" fill="#FAFAFA"/>
<path d="M60.3968 46.5296C60.3968 46.575 58.6698 46.6138 56.5347 46.6138C54.3995 46.6138 52.6726 46.575 52.6726 46.5296C52.6726 46.4843 54.4028 46.4454 56.5347 46.4454C58.6666 46.4454 60.3968 46.481 60.3968 46.5296Z" fill="#FAFAFA"/>
<path d="M60.3968 48.1431C60.3968 48.1917 58.6698 48.2274 56.5347 48.2274C54.3995 48.2274 52.6726 48.1917 52.6726 48.1431C52.6726 48.0945 54.4028 48.0589 56.5347 48.0589C58.6666 48.0589 60.3968 48.0978 60.3968 48.1431Z" fill="#FAFAFA"/>
<path d="M60.3968 49.7599C60.3968 49.8053 58.6698 49.8441 56.5347 49.8441C54.3995 49.8441 52.6726 49.8053 52.6726 49.7599C52.6726 49.7145 54.4028 49.6757 56.5347 49.6757C58.6666 49.6757 60.3968 49.7113 60.3968 49.7599Z" fill="#FAFAFA"/>
<path d="M65.5841 44.294H64.6121V43.9376H66.9805V44.294H66.0085V46.8018H65.6035L65.5841 44.294Z" fill="#263238"/>
<path d="M69.4946 46.4454V46.8018H67.4177V43.9376H69.4362V44.294H67.8162V45.1721H69.2516V45.522H67.8162V46.4454H69.4946Z" fill="#263238"/>
<path d="M72.0706 46.8018L71.4518 45.9205C71.3924 45.9239 71.3329 45.9239 71.2736 45.9205H70.5672V46.7921H70.1558V43.9279H71.28C72.0252 43.9279 72.4724 44.3038 72.4724 44.9258C72.4823 45.1248 72.426 45.3215 72.3123 45.485C72.1985 45.6486 72.0338 45.7698 71.8438 45.8298L72.5242 46.8018H72.0706ZM72.0706 44.9356C72.0706 44.5273 71.7984 44.2876 71.2736 44.2876H70.5672V45.5836H71.2606C71.7855 45.5836 72.0576 45.36 72.0576 44.9356H72.0706Z" fill="#263238"/>
<path d="M75.7836 46.8018V44.712L74.7468 46.4486H74.5589L73.5253 44.7249V46.7985H73.1333V43.9344H73.4573L74.6496 45.9464L75.8257 43.9344H76.1497V46.7985L75.7836 46.8018Z" fill="#263238"/>
<path d="M76.7878 46.4746L76.9369 46.1506C77.2046 46.366 77.5394 46.4806 77.883 46.4746C78.3787 46.4746 78.5893 46.2802 78.5893 46.0307C78.5893 45.3308 76.8559 45.7747 76.8559 44.712C76.8559 44.2681 77.1993 43.8923 77.951 43.8923C78.2761 43.8859 78.596 43.9749 78.8712 44.1482L78.7383 44.4722C78.5028 44.323 78.2299 44.2432 77.951 44.2422C77.465 44.2422 77.2576 44.4463 77.2576 44.6958C77.2576 45.3924 78.991 44.955 78.991 45.9918C78.991 46.4292 78.6379 46.805 77.883 46.805C77.4908 46.8243 77.1039 46.7076 76.7878 46.4746Z" fill="#263238"/>
<path d="M80.4425 45.36C80.4309 45.0566 80.5102 44.7566 80.6703 44.4987C80.8304 44.2407 81.064 44.0365 81.341 43.9122C81.6181 43.788 81.9259 43.7494 82.225 43.8014C82.5242 43.8534 82.8009 43.9936 83.0198 44.2041C83.2386 44.4145 83.3895 44.6856 83.4532 44.9825C83.5168 45.2794 83.4903 45.5885 83.3769 45.8701C83.2636 46.1518 83.0686 46.3932 82.8171 46.5632C82.5656 46.7333 82.2689 46.8242 81.9653 46.8245C81.7678 46.8337 81.5705 46.8026 81.3854 46.7331C81.2003 46.6635 81.0314 46.5569 80.8888 46.4199C80.7463 46.2828 80.6332 46.1181 80.5565 45.9359C80.4798 45.7537 80.441 45.5577 80.4425 45.36ZM83.0734 45.36C83.0753 45.1397 83.0117 44.9237 82.8906 44.7396C82.7696 44.5555 82.5965 44.4116 82.3934 44.326C82.1903 44.2405 81.9664 44.2173 81.7501 44.2594C81.5338 44.3014 81.3349 44.4068 81.1786 44.5622C81.0223 44.7175 80.9158 44.9158 80.8725 45.1319C80.8292 45.3479 80.8511 45.572 80.9354 45.7755C81.0197 45.9791 81.1626 46.153 81.346 46.2752C81.5294 46.3973 81.745 46.4622 81.9653 46.4616C82.1116 46.4665 82.2574 46.4414 82.3936 46.3879C82.5298 46.3344 82.6537 46.2535 82.7575 46.1503C82.8613 46.0471 82.9429 45.9238 82.9972 45.7878C83.0515 45.6519 83.0775 45.5063 83.0734 45.36Z" fill="#263238"/>
<path d="M84.5186 44.294V45.2919H85.9539V45.6451H84.5186V46.8018H84.1104V43.9376H86.1289V44.294H84.5186Z" fill="#263238"/>
<path d="M87.5447 46.4746L87.697 46.1506C87.9637 46.3655 88.2973 46.4802 88.6398 46.4746C89.1355 46.4746 89.3494 46.2802 89.3494 46.0307C89.3494 45.3309 87.616 45.7747 87.616 44.712C87.616 44.2681 87.9594 43.8923 88.7111 43.8923C89.0361 43.8865 89.3559 43.9754 89.6312 44.1483L89.4952 44.4723C89.2606 44.3234 88.9889 44.2437 88.7111 44.2422C88.2251 44.2422 88.0145 44.4463 88.0145 44.6958C88.0145 45.3924 89.7479 44.955 89.7479 45.9918C89.7479 46.4292 89.3979 46.8051 88.6398 46.8051C88.2476 46.8238 87.861 46.7071 87.5447 46.4746Z" fill="#263238"/>
<path d="M92.4243 46.4454V46.8018H90.3474V43.9376H92.3659V44.294H90.7459V45.1721H92.1813V45.522H90.7459V46.4454H92.4243Z" fill="#263238"/>
<path d="M95 46.8018L94.3844 45.9205C94.3239 45.9238 94.2634 45.9238 94.2029 45.9205H93.4966V46.7921H93.0884V43.9279H94.2029C94.9481 43.9279 95.3985 44.3038 95.3985 44.9258C95.4082 45.1252 95.3515 45.3222 95.2371 45.4858C95.1228 45.6494 94.9573 45.7704 94.7667 45.8298L95.4471 46.8018H95ZM95 44.9356C95 44.5273 94.7278 44.2876 94.2029 44.2876H93.5096V45.5836H94.2029C94.7149 45.5836 94.987 45.36 94.987 44.9356H95Z" fill="#263238"/>
<path d="M98.5444 43.9376L97.2906 46.8018H96.8758L95.6155 43.9376H96.0594L97.0897 46.2899L98.1265 43.9376H98.5444Z" fill="#263238"/>
<path d="M98.9106 43.9376H99.3189V46.8018H98.9106V43.9376Z" fill="#263238"/>
<path d="M99.9442 45.36C99.9417 45.1626 99.9797 44.9668 100.056 44.7846C100.132 44.6024 100.244 44.4376 100.386 44.3005C100.528 44.1633 100.697 44.0566 100.882 43.987C101.066 43.9174 101.263 43.8862 101.46 43.8955C101.663 43.8874 101.866 43.9232 102.054 44.0003C102.241 44.0775 102.41 44.1942 102.549 44.3426L102.283 44.5986C102.18 44.4904 102.054 44.4056 101.915 44.3498C101.776 44.2939 101.626 44.2683 101.477 44.2746C101.294 44.2754 101.115 44.3214 100.955 44.4085C100.795 44.4957 100.658 44.6213 100.559 44.774C100.459 44.9267 100.399 45.1018 100.384 45.2835C100.368 45.4653 100.398 45.648 100.471 45.8152C100.544 45.9825 100.657 46.1291 100.8 46.2419C100.943 46.3547 101.112 46.4301 101.292 46.4614C101.472 46.4928 101.656 46.479 101.829 46.4213C102.002 46.3637 102.158 46.264 102.283 46.1311L102.549 46.3871C102.41 46.5362 102.241 46.6535 102.052 46.7313C101.864 46.809 101.661 46.8452 101.457 46.8374C101.259 46.8464 101.061 46.8145 100.876 46.7439C100.691 46.6733 100.522 46.5654 100.38 46.4268C100.238 46.2883 100.127 46.1222 100.052 45.9387C99.9765 45.7552 99.94 45.5582 99.9442 45.36Z" fill="#263238"/>
<path d="M105.212 46.4454V46.8018H103.135V43.9376H105.154V44.294H103.534V45.1721H104.976V45.522H103.54V46.4454H105.212Z" fill="#263238"/>
<path d="M68.1533 49.7405L67.3887 52.0085H67.0485L66.4199 50.2006L65.7946 52.0214H65.4479L64.6865 49.7534H65.0105L65.6261 51.61L66.2741 49.7534H66.5754L67.204 51.6197L67.8326 49.7534L68.1533 49.7405Z" fill="#E0E0E0"/>
<path d="M69.9288 51.2632H68.5259C68.5469 51.4116 68.6235 51.5464 68.7403 51.6402C68.857 51.7341 69.0051 51.78 69.1545 51.7687C69.2471 51.7716 69.3393 51.7546 69.4248 51.7188C69.5104 51.683 69.5872 51.6293 69.6502 51.5613L69.8252 51.7622C69.7384 51.8557 69.6323 51.929 69.5142 51.9772C69.3961 52.0253 69.2689 52.047 69.1415 52.0408C69.0214 52.0499 68.9006 52.0337 68.7871 51.9933C68.6736 51.9528 68.5698 51.889 68.4825 51.806C68.3952 51.7229 68.3262 51.6225 68.2801 51.5111C68.234 51.3998 68.2118 51.28 68.2149 51.1596C68.21 51.0439 68.2289 50.9285 68.2704 50.8204C68.3119 50.7123 68.3752 50.6139 68.4563 50.5313C68.5374 50.4487 68.6346 50.3836 68.7419 50.3401C68.8491 50.2966 68.9642 50.2755 69.08 50.2783C69.1961 50.2753 69.3117 50.2966 69.4192 50.3408C69.5267 50.3851 69.6238 50.4512 69.7043 50.535C69.7847 50.6189 69.8469 50.7186 69.8866 50.8278C69.9264 50.937 69.943 51.0533 69.9353 51.1693C69.9353 51.192 69.9321 51.2341 69.9288 51.2632ZM68.5259 51.0397H69.634C69.6192 50.9031 69.5545 50.7768 69.4522 50.685C69.3499 50.5932 69.2174 50.5424 69.08 50.5424C68.9425 50.5424 68.81 50.5932 68.7077 50.685C68.6055 50.7768 68.5407 50.9031 68.5259 51.0397Z" fill="#E0E0E0"/>
<path d="M70.3694 49.6044H70.6934V52.0214H70.3694V49.6044Z" fill="#E0E0E0"/>
<path d="M71.1179 51.1596C71.1154 51.0404 71.1377 50.922 71.1832 50.8119C71.2286 50.7017 71.2964 50.6021 71.3822 50.5194C71.468 50.4366 71.5699 50.3725 71.6817 50.331C71.7934 50.2895 71.9125 50.2716 72.0315 50.2783C72.1712 50.2706 72.3102 50.3009 72.434 50.366C72.5578 50.431 72.6617 50.5283 72.7346 50.6477L72.4949 50.7999C72.445 50.722 72.3758 50.6584 72.2941 50.6153C72.2123 50.5721 72.1207 50.5509 72.0283 50.5537C71.8748 50.5649 71.7313 50.6338 71.6266 50.7465C71.5218 50.8592 71.4636 51.0073 71.4636 51.1612C71.4636 51.3151 71.5218 51.4632 71.6266 51.5759C71.7313 51.6886 71.8748 51.7575 72.0283 51.7687C72.1207 51.7715 72.2123 51.7503 72.2941 51.7071C72.3758 51.664 72.445 51.6003 72.4949 51.5225L72.7346 51.6715C72.6617 51.7908 72.5578 51.8881 72.434 51.9532C72.3102 52.0182 72.1712 52.0485 72.0315 52.0409C71.9125 52.0476 71.7934 52.0296 71.6817 51.9882C71.5699 51.9467 71.468 51.8825 71.3822 51.7998C71.2964 51.717 71.2286 51.6175 71.1832 51.5073C71.1377 51.3971 71.1154 51.2787 71.1179 51.1596Z" fill="#E0E0E0"/>
<path d="M72.9517 51.1596C72.9484 50.9816 72.9983 50.8066 73.0948 50.657C73.1912 50.5073 73.3301 50.3898 73.4936 50.3193C73.6571 50.2488 73.8378 50.2285 74.0129 50.261C74.1879 50.2935 74.3494 50.3774 74.4766 50.5019C74.6039 50.6264 74.6913 50.786 74.7276 50.9603C74.7639 51.1346 74.7476 51.3158 74.6807 51.4807C74.6137 51.6457 74.4992 51.7871 74.3517 51.8868C74.2042 51.9866 74.0304 52.0402 73.8524 52.0409C73.7343 52.0462 73.6164 52.0273 73.506 51.9851C73.3956 51.943 73.295 51.8786 73.2105 51.7959C73.1261 51.7133 73.0595 51.6141 73.0149 51.5047C72.9704 51.3952 72.9489 51.2777 72.9517 51.1596ZM74.4323 51.1596C74.4272 51.0453 74.3887 50.9351 74.3215 50.8426C74.2542 50.7501 74.1613 50.6794 74.0542 50.6393C73.9471 50.5992 73.8306 50.5915 73.7191 50.6171C73.6077 50.6427 73.5062 50.7005 73.4273 50.7834C73.3485 50.8662 73.2957 50.9704 73.2756 51.0829C73.2555 51.1955 73.2689 51.3115 73.3142 51.4165C73.3595 51.5215 73.4347 51.6109 73.5304 51.6735C73.626 51.7361 73.738 51.7692 73.8524 51.7687C73.9316 51.7707 74.0104 51.7561 74.0836 51.7259C74.1568 51.6956 74.2229 51.6503 74.2776 51.5929C74.3322 51.5355 74.3742 51.4673 74.4009 51.3926C74.4275 51.318 74.4382 51.2386 74.4323 51.1596Z" fill="#E0E0E0"/>
<path d="M78.0483 51.03V52.0214H77.7243V51.0656C77.7243 50.7254 77.5591 50.5602 77.2772 50.5602C76.9953 50.5602 76.7588 50.7578 76.7588 51.1337V52.0214H76.4348V51.0656C76.4348 50.7254 76.2695 50.5602 75.9877 50.5602C75.7058 50.5602 75.4693 50.7578 75.4693 51.1337V52.0214H75.1453V50.2945H75.4919V50.5537C75.5614 50.4627 75.652 50.3901 75.7559 50.3421C75.8598 50.2941 75.9738 50.2722 76.0881 50.2783C76.2082 50.2713 76.328 50.2979 76.4338 50.3552C76.5397 50.4124 76.6275 50.498 76.6875 50.6023C76.7629 50.4976 76.8629 50.4133 76.9788 50.3568C77.0947 50.3002 77.2229 50.2733 77.3517 50.2783C77.4503 50.2695 77.5495 50.2835 77.6418 50.319C77.7341 50.3545 77.8171 50.4107 77.8844 50.4833C77.9516 50.5559 78.0013 50.6429 78.0298 50.7376C78.0582 50.8324 78.0645 50.9324 78.0483 51.03Z" fill="#E0E0E0"/>
<path d="M80.1899 51.2633H78.7902C78.8097 51.4116 78.8854 51.5469 79.0018 51.641C79.1182 51.735 79.2663 51.7808 79.4155 51.7687C79.5087 51.7721 79.6015 51.7553 79.6877 51.7195C79.7738 51.6837 79.8511 51.6298 79.9145 51.5613L80.0862 51.7622C79.9588 51.8943 79.7956 51.9863 79.6167 52.027C79.4378 52.0677 79.2509 52.0553 79.0789 51.9913C78.9069 51.9273 78.7573 51.8146 78.6485 51.6668C78.5397 51.5191 78.4763 51.3428 78.4662 51.1596C78.4617 51.0437 78.4811 50.9282 78.523 50.8202C78.5648 50.7121 78.6284 50.6137 78.7098 50.5312C78.7911 50.4486 78.8885 50.3836 78.996 50.3401C79.1034 50.2966 79.2186 50.2756 79.3345 50.2783C79.4506 50.2753 79.566 50.2966 79.6733 50.3408C79.7807 50.3851 79.8776 50.4513 79.9578 50.5352C80.038 50.6191 80.0999 50.7188 80.1393 50.828C80.1787 50.9372 80.1948 51.0535 80.1866 51.1693C80.1964 51.192 80.1931 51.2341 80.1899 51.2633ZM78.7902 51.0397H79.8983C79.8835 50.9031 79.8187 50.7768 79.7165 50.685C79.6142 50.5932 79.4817 50.5424 79.3442 50.5424C79.2068 50.5424 79.0743 50.5932 78.972 50.685C78.8697 50.7768 78.805 50.9031 78.7902 51.0397Z" fill="#E0E0E0"/>
<path d="M80.5593 51.84C80.5593 51.8122 80.5649 51.7847 80.5757 51.7591C80.5865 51.7335 80.6024 51.7104 80.6223 51.691C80.6423 51.6717 80.6659 51.6565 80.6918 51.6465C80.7177 51.6365 80.7454 51.6318 80.7732 51.6326C80.8282 51.6326 80.8809 51.6545 80.9198 51.6934C80.9587 51.7323 80.9805 51.785 80.9805 51.84C80.9805 51.895 80.9587 51.9477 80.9198 51.9866C80.8809 52.0255 80.8282 52.0474 80.7732 52.0474C80.7454 52.0482 80.7177 52.0435 80.6918 52.0335C80.6659 52.0234 80.6423 52.0083 80.6223 51.989C80.6024 51.9696 80.5865 51.9465 80.5757 51.9209C80.5649 51.8953 80.5593 51.8678 80.5593 51.84ZM80.5885 49.7469H80.9578L80.8963 51.3086H80.6468L80.5885 49.7469Z" fill="#E0E0E0"/>
<path d="M109.745 34.6323H109.363C109.125 34.6323 108.932 34.8253 108.932 35.0632V129.318C108.932 129.556 109.125 129.749 109.363 129.749H109.745C109.983 129.749 110.176 129.556 110.176 129.318V35.0632C110.176 34.8253 109.983 34.6323 109.745 34.6323Z" fill="#E0E0E0"/>
<path d="M109.745 34.6323H109.363C109.125 34.6323 108.932 34.8253 108.932 35.0632V83.2388C108.932 83.4768 109.125 83.6697 109.363 83.6697H109.745C109.983 83.6697 110.176 83.4768 110.176 83.2388V35.0632C110.176 34.8253 109.983 34.6323 109.745 34.6323Z" fill="#3F8EFC"/>
<path d="M53.055 63.0245V65.2925H52.731V63.3096H52.2158V63.0245H53.055Z" fill="#263238"/>
<path d="M53.5475 65.1013C53.5481 65.0579 53.5616 65.0156 53.5862 64.9798C53.6108 64.944 53.6454 64.9163 53.6857 64.9001C53.726 64.8839 53.7702 64.88 53.8127 64.8889C53.8552 64.8977 53.8942 64.919 53.9247 64.9499C53.9552 64.9808 53.9758 65.0201 53.9841 65.0627C53.9923 65.1054 53.9878 65.1495 53.971 65.1896C53.9542 65.2297 53.926 65.2639 53.8898 65.2879C53.8537 65.312 53.8112 65.3249 53.7678 65.3249C53.7384 65.3253 53.7093 65.3198 53.6822 65.3087C53.655 65.2976 53.6304 65.2811 53.6098 65.2602C53.5892 65.2393 53.5731 65.2144 53.5624 65.1871C53.5517 65.1598 53.5466 65.1306 53.5475 65.1013Z" fill="#263238"/>
<path d="M55.809 63.3096H55.0249V63.0245H56.9138V63.3096H56.1297V65.3054H55.8057L55.809 63.3096Z" fill="#263238"/>
<path d="M58.5985 64.5472H57.1956C57.2158 64.6953 57.2918 64.8301 57.408 64.924C57.5242 65.0179 57.6719 65.064 57.8209 65.0527C57.9144 65.0556 58.0073 65.0384 58.0935 65.002C58.1796 64.9657 58.2568 64.9111 58.3199 64.8421L58.4916 65.0462C58.3648 65.1798 58.2016 65.2731 58.0222 65.3147C57.8428 65.3562 57.6552 65.3441 57.4826 65.2799C57.31 65.2157 57.1601 65.1022 57.0514 64.9535C56.9428 64.8048 56.8803 64.6275 56.8716 64.4436C56.8667 64.3279 56.8856 64.2125 56.9271 64.1044C56.9686 63.9963 57.0319 63.8979 57.113 63.8153C57.1941 63.7327 57.2913 63.6676 57.3986 63.6241C57.5059 63.5805 57.621 63.5595 57.7367 63.5623C57.8529 63.5593 57.9684 63.5806 58.0759 63.6248C58.1834 63.669 58.2805 63.7352 58.361 63.819C58.4415 63.9029 58.5036 64.0026 58.5434 64.1118C58.5832 64.221 58.5997 64.3373 58.5921 64.4533C58.605 64.476 58.6018 64.5181 58.5985 64.5472ZM57.1956 64.3204H58.3199C58.3051 64.1838 58.2403 64.0575 58.1381 63.9657C58.0358 63.8739 57.9033 63.8232 57.7658 63.8232C57.6284 63.8232 57.4959 63.8739 57.3936 63.9657C57.2914 64.0575 57.2266 64.1838 57.2118 64.3204H57.1956Z" fill="#263238"/>
<path d="M59.9657 63.5623V63.8669H59.8944C59.8183 63.8619 59.7419 63.8738 59.6709 63.902C59.6 63.9301 59.5361 63.9736 59.484 64.0294C59.4319 64.0852 59.3929 64.1519 59.3697 64.2247C59.3466 64.2974 59.3399 64.3744 59.3501 64.4501V65.3087H59.0261V63.5818H59.3242V63.8734C59.389 63.7645 59.4843 63.677 59.5983 63.6217C59.7124 63.5664 59.8401 63.5458 59.9657 63.5623Z" fill="#263238"/>
<path d="M63.2189 64.3107V65.3054H62.8949V64.3334C62.8949 64.0094 62.7329 63.8312 62.4478 63.8312C62.1627 63.8312 61.9326 64.0289 61.9326 64.4047V65.2925H61.6086V64.3205C61.6086 63.9965 61.4466 63.8183 61.1615 63.8183C61.0877 63.8151 61.0142 63.8283 60.9461 63.8568C60.8781 63.8853 60.8171 63.9285 60.7676 63.9832C60.7181 64.038 60.6813 64.103 60.6598 64.1736C60.6382 64.2442 60.6325 64.3187 60.6431 64.3917V65.2795H60.3191V63.5526H60.6172V63.8118C60.6864 63.7206 60.777 63.6478 60.8809 63.5998C60.9849 63.5518 61.099 63.53 61.2133 63.5364C61.3335 63.5294 61.4532 63.556 61.5591 63.6132C61.6649 63.6705 61.7528 63.756 61.8127 63.8604C61.8884 63.7553 61.989 63.6706 62.1055 63.614C62.222 63.5575 62.3508 63.5308 62.4802 63.5364C62.5842 63.5193 62.6909 63.5279 62.7909 63.5614C62.8909 63.5949 62.9812 63.6522 63.054 63.7285C63.1267 63.8048 63.1798 63.8977 63.2086 63.9992C63.2373 64.1007 63.2408 64.2076 63.2189 64.3107Z" fill="#263238"/>
<path d="M53.9492 100.414V100.696H52.3292V100.476L53.2559 99.5781C53.4989 99.3449 53.5442 99.2023 53.5442 99.0565C53.5442 98.8232 53.3757 98.6807 53.0582 98.6807C52.9486 98.6743 52.8391 98.6931 52.7379 98.7358C52.6368 98.7785 52.5469 98.8439 52.475 98.9269L52.2515 98.7357C52.3563 98.6194 52.4857 98.528 52.6303 98.468C52.7749 98.408 52.931 98.3811 53.0874 98.3891C53.5637 98.3891 53.8682 98.6353 53.8682 99.0371C53.8646 99.1769 53.8292 99.314 53.7646 99.4381C53.7001 99.5622 53.6081 99.6699 53.4956 99.7531L52.7958 100.427L53.9492 100.414Z" fill="#263238"/>
<path d="M54.244 100.492C54.2431 100.463 54.2482 100.433 54.2589 100.406C54.2696 100.379 54.2858 100.354 54.3064 100.333C54.327 100.312 54.3516 100.296 54.3787 100.284C54.4059 100.273 54.435 100.268 54.4643 100.268C54.5236 100.268 54.5805 100.292 54.6224 100.334C54.6643 100.376 54.6879 100.433 54.6879 100.492C54.6879 100.551 54.6643 100.608 54.6224 100.65C54.5805 100.692 54.5236 100.715 54.4643 100.715C54.4351 100.715 54.4062 100.71 54.3792 100.698C54.3523 100.687 54.3279 100.671 54.3074 100.65C54.2869 100.629 54.2707 100.604 54.2598 100.577C54.2489 100.55 54.2436 100.521 54.244 100.492Z" fill="#263238"/>
<path d="M56.052 98.415H56.376V100.414H57.6104V100.696H56.052V98.415Z" fill="#263238"/>
<path d="M57.8889 98.4344C57.8889 98.4071 57.8944 98.38 57.905 98.3548C57.9157 98.3296 57.9313 98.3068 57.951 98.2878C57.9706 98.2687 57.9939 98.2538 58.0194 98.244C58.0449 98.2341 58.0722 98.2295 58.0995 98.2303C58.1396 98.2316 58.1784 98.2446 58.2111 98.2678C58.2438 98.291 58.269 98.3233 58.2834 98.3607C58.2979 98.3981 58.301 98.4389 58.2924 98.4781C58.2838 98.5173 58.2639 98.553 58.2351 98.5809C58.2063 98.6088 58.1699 98.6276 58.1305 98.635C58.0911 98.6424 58.0504 98.638 58.0135 98.6223C57.9766 98.6067 57.9451 98.5806 57.9229 98.5471C57.9008 98.5137 57.8889 98.4745 57.8889 98.4344ZM57.944 98.969H58.268V100.696H57.944V98.969Z" fill="#263238"/>
<path d="M58.6926 99.8341C58.6902 99.7152 58.7123 99.5971 58.7576 99.4872C58.8029 99.3772 58.8704 99.2778 58.9558 99.1951C59.0412 99.1124 59.1428 99.0482 59.2541 99.0065C59.3655 98.9648 59.4843 98.9465 59.603 98.9528C59.7432 98.9442 59.8831 98.974 60.0076 99.0391C60.1321 99.1042 60.2364 99.2021 60.3093 99.3222L60.0696 99.4744C60.0197 99.3966 59.9505 99.3329 59.8688 99.2898C59.787 99.2466 59.6954 99.2254 59.603 99.2282C59.4495 99.2394 59.306 99.3083 59.2013 99.421C59.0965 99.5337 59.0383 99.6818 59.0383 99.8357C59.0383 99.9896 59.0965 100.138 59.2013 100.25C59.306 100.363 59.4495 100.432 59.603 100.443C59.6957 100.445 59.7873 100.424 59.8691 100.38C59.9508 100.336 60.0199 100.272 60.0696 100.194L60.3093 100.343C60.2365 100.463 60.1323 100.561 60.0079 100.627C59.8834 100.693 59.7435 100.723 59.603 100.715C59.4843 100.722 59.3655 100.703 59.2541 100.662C59.1428 100.62 59.0412 100.556 58.9558 100.473C58.8704 100.39 58.8029 100.291 58.7576 100.181C58.7123 100.071 58.6902 99.953 58.6926 99.8341Z" fill="#263238"/>
<path d="M62.2404 99.9378H60.8407C60.861 100.086 60.9369 100.221 61.0531 100.315C61.1694 100.409 61.3171 100.455 61.4661 100.443C61.5595 100.446 61.6525 100.429 61.7386 100.393C61.8247 100.356 61.902 100.302 61.965 100.233L62.1367 100.437C62.0093 100.569 61.8462 100.661 61.6673 100.702C61.4883 100.742 61.3014 100.73 61.1294 100.666C60.9574 100.602 60.8079 100.489 60.699 100.341C60.5902 100.194 60.5268 100.017 60.5167 99.8341C60.5123 99.7183 60.5316 99.6028 60.5735 99.4947C60.6154 99.3866 60.679 99.2883 60.7603 99.2057C60.8417 99.1231 60.9391 99.0581 61.0465 99.0146C61.154 98.9711 61.2692 98.9501 61.3851 98.9529C61.5011 98.9499 61.6165 98.9712 61.7239 99.0154C61.8312 99.0596 61.9281 99.1258 62.0083 99.2097C62.0886 99.2936 62.1504 99.3934 62.1898 99.5026C62.2292 99.6118 62.2454 99.728 62.2372 99.8439C62.2469 99.8698 62.2437 99.9087 62.2404 99.9378ZM60.8407 99.711H61.9488C61.934 99.5744 61.8693 99.4481 61.767 99.3563C61.6648 99.2645 61.5322 99.2137 61.3948 99.2137C61.2574 99.2137 61.1248 99.2645 61.0225 99.3563C60.9203 99.4481 60.8555 99.5744 60.8407 99.711Z" fill="#263238"/>
<path d="M64.3205 99.7013V100.696H63.9965V99.724C63.9965 99.4 63.828 99.2217 63.5332 99.2217C63.4575 99.2159 63.3815 99.2269 63.3106 99.2541C63.2398 99.2812 63.1758 99.3237 63.1234 99.3786C63.071 99.4335 63.0314 99.4994 63.0076 99.5714C62.9838 99.6435 62.9763 99.7199 62.9856 99.7952V100.683H62.6616V98.9561H62.9629V99.2153C63.037 99.1229 63.1321 99.0496 63.2404 99.0017C63.3487 98.9538 63.4669 98.9326 63.585 98.9399C63.6867 98.9283 63.7896 98.9403 63.8859 98.9749C63.9822 99.0095 64.0693 99.0658 64.1404 99.1393C64.2115 99.2129 64.2647 99.3019 64.2959 99.3993C64.3271 99.4968 64.3356 99.6001 64.3205 99.7013Z" fill="#263238"/>
<path d="M64.7512 99.8341C64.7484 99.7151 64.7702 99.5968 64.8153 99.4866C64.8604 99.3764 64.9279 99.2768 65.0134 99.194C65.0989 99.1112 65.2007 99.047 65.3123 99.0055C65.4238 98.964 65.5428 98.9461 65.6617 98.9528C65.8019 98.9442 65.9418 98.974 66.0663 99.0391C66.1907 99.1042 66.2951 99.2021 66.368 99.3222L66.1282 99.4744C66.0779 99.3963 66.0081 99.3325 65.9258 99.2894C65.8435 99.2462 65.7513 99.2251 65.6584 99.2282C65.505 99.2394 65.3614 99.3083 65.2567 99.421C65.1519 99.5337 65.0937 99.6818 65.0937 99.8357C65.0937 99.9896 65.1519 100.138 65.2567 100.25C65.3614 100.363 65.505 100.432 65.6584 100.443C65.7516 100.446 65.8438 100.424 65.9261 100.38C66.0084 100.336 66.078 100.272 66.1282 100.194L66.368 100.343C66.2952 100.463 66.191 100.561 66.0666 100.627C65.9421 100.693 65.8021 100.723 65.6617 100.715C65.5429 100.722 65.4242 100.703 65.3128 100.662C65.2015 100.62 65.0999 100.556 65.0145 100.473C64.929 100.39 64.8616 100.291 64.8163 100.181C64.771 100.071 64.7488 99.953 64.7512 99.8341Z" fill="#263238"/>
<path d="M68.299 99.9378H66.8993C66.9195 100.086 66.9955 100.221 67.1117 100.315C67.228 100.409 67.3756 100.455 67.5247 100.443C67.6181 100.446 67.7111 100.429 67.7972 100.393C67.8833 100.356 67.9606 100.302 68.0236 100.233L68.1953 100.437C68.0679 100.569 67.9048 100.661 67.7258 100.702C67.5469 100.742 67.36 100.73 67.188 100.666C67.016 100.602 66.8665 100.489 66.7576 100.341C66.6488 100.194 66.5854 100.017 66.5753 99.8341C66.5709 99.7183 66.5902 99.6028 66.6321 99.4947C66.674 99.3866 66.7376 99.2883 66.8189 99.2057C66.9003 99.1231 66.9977 99.0581 67.1051 99.0146C67.2126 98.9711 67.3278 98.9501 67.4437 98.9529C67.5597 98.9499 67.6751 98.9712 67.7825 99.0154C67.8898 99.0596 67.9867 99.1258 68.0669 99.2097C68.1472 99.2936 68.209 99.3934 68.2484 99.5026C68.2878 99.6118 68.3039 99.728 68.2958 99.8439C68.3055 99.8698 68.3023 99.9087 68.299 99.9378ZM66.8993 99.711H68.0074C67.9926 99.5744 67.9279 99.4481 67.8256 99.3563C67.7234 99.2645 67.5908 99.2137 67.4534 99.2137C67.316 99.2137 67.1834 99.2645 67.0811 99.3563C66.9789 99.4481 66.9141 99.5744 66.8993 99.711Z" fill="#263238"/>
<path d="M102.135 70.4343C102.135 70.4829 90.9533 70.5186 77.1639 70.5186C63.3744 70.5186 52.1899 70.4829 52.1899 70.4343C52.1899 70.3857 63.3712 70.3501 77.1639 70.3501C90.9565 70.3501 102.135 70.389 102.135 70.4343Z" fill="#263238"/>
<path d="M102.135 74.2154C102.135 74.2608 90.9533 74.2996 77.1639 74.2996C63.3744 74.2996 52.1899 74.2608 52.1899 74.2154C52.1899 74.17 63.3712 74.1312 77.1639 74.1312C90.9565 74.1312 102.135 74.1668 102.135 74.2154Z" fill="#263238"/>
<path d="M102.135 77.9933C102.135 78.0419 90.9533 78.0775 77.1639 78.0775C63.3744 78.0775 52.1899 78.0419 52.1899 77.9933C52.1899 77.9447 63.3712 77.9091 77.1639 77.9091C90.9565 77.9091 102.135 77.9479 102.135 77.9933Z" fill="#263238"/>
<path d="M102.135 81.7744C102.135 81.8197 90.9533 81.8586 77.1639 81.8586C63.3744 81.8586 52.1899 81.8197 52.1899 81.7744C52.1899 81.729 63.3712 81.6901 77.1639 81.6901C90.9565 81.6901 102.135 81.7258 102.135 81.7744Z" fill="#263238"/>
<path d="M102.135 85.5522C102.135 85.6008 90.9533 85.6364 77.1639 85.6364C63.3744 85.6364 52.1899 85.6008 52.1899 85.5522C52.1899 85.5036 63.3712 85.468 77.1639 85.468C90.9565 85.468 102.135 85.5068 102.135 85.5522Z" fill="#263238"/>
<path d="M102.135 89.3333C102.135 89.3786 90.9533 89.4175 77.1639 89.4175C63.3744 89.4175 52.1899 89.3786 52.1899 89.3333C52.1899 89.2879 63.3712 89.249 77.1639 89.249C90.9565 89.249 102.135 89.2847 102.135 89.3333Z" fill="#263238"/>
<path d="M102.135 103.68C102.135 103.725 90.9533 103.764 77.1639 103.764C63.3744 103.764 52.1899 103.725 52.1899 103.68C52.1899 103.635 63.3712 103.596 77.1639 103.596C90.9565 103.596 102.135 103.641 102.135 103.68Z" fill="#263238"/>
<path d="M102.135 106.92C102.135 106.969 90.9533 107.004 77.1639 107.004C63.3744 107.004 52.1899 106.969 52.1899 106.92C52.1899 106.871 63.3712 106.836 77.1639 106.836C90.9565 106.836 102.135 106.875 102.135 106.92Z" fill="#E0E0E0"/>
<path d="M102.135 110.16C102.135 110.205 90.9533 110.244 77.1639 110.244C63.3744 110.244 52.1899 110.205 52.1899 110.16C52.1899 110.115 63.3712 110.076 77.1639 110.076C90.9565 110.076 102.135 110.108 102.135 110.16Z" fill="#EBEBEB"/>
<path d="M105.78 119.825H79.3606V129.668H105.78V119.825Z" fill="#3F8EFC"/>
<path d="M88.1604 125.255H86.8644L86.5955 125.867H86.2358L87.3439 123.421H87.6874L88.7987 125.867H88.4326L88.1604 125.255ZM88.0373 124.976L87.5092 123.778L86.9843 124.976H88.0373Z" fill="white"/>
<path d="M88.9218 124.941C88.9194 124.814 88.9432 124.688 88.9916 124.57C89.0399 124.453 89.1119 124.347 89.2031 124.258C89.2942 124.17 89.4026 124.101 89.5214 124.056C89.6402 124.012 89.767 123.992 89.8938 123.998C90.0437 123.989 90.1931 124.021 90.3261 124.091C90.4592 124.16 90.5707 124.265 90.6487 124.393L90.3927 124.555C90.3391 124.471 90.2646 124.403 90.1766 124.356C90.0886 124.31 89.9901 124.287 89.8905 124.29C89.7187 124.29 89.5539 124.358 89.4323 124.479C89.3108 124.601 89.2425 124.766 89.2425 124.938C89.2425 125.11 89.3108 125.274 89.4323 125.396C89.5539 125.517 89.7187 125.586 89.8905 125.586C89.9901 125.588 90.0886 125.565 90.1766 125.519C90.2646 125.472 90.3391 125.404 90.3927 125.32L90.6487 125.479C90.5708 125.607 90.4594 125.712 90.3264 125.783C90.1935 125.853 90.0439 125.885 89.8938 125.877C89.7675 125.883 89.6413 125.864 89.5229 125.819C89.4046 125.775 89.2965 125.707 89.2055 125.619C89.1144 125.531 89.0423 125.426 88.9935 125.309C88.9447 125.193 88.9203 125.067 88.9218 124.941Z" fill="white"/>
<path d="M90.8883 124.941C90.886 124.814 90.9097 124.688 90.9581 124.57C91.0065 124.453 91.0785 124.347 91.1697 124.258C91.2608 124.17 91.3691 124.101 91.488 124.056C91.6068 124.012 91.7335 123.992 91.8603 123.998C92.0103 123.989 92.1599 124.021 92.293 124.09C92.426 124.16 92.5375 124.265 92.6153 124.393L92.3593 124.555C92.3057 124.471 92.2312 124.403 92.1432 124.356C92.0552 124.31 91.9566 124.287 91.8571 124.29C91.6853 124.29 91.5204 124.358 91.3989 124.479C91.2774 124.601 91.2091 124.766 91.2091 124.938C91.2091 125.109 91.2774 125.274 91.3989 125.396C91.5204 125.517 91.6853 125.586 91.8571 125.586C91.9566 125.588 92.0552 125.565 92.1432 125.519C92.2312 125.472 92.3057 125.404 92.3593 125.32L92.6153 125.479C92.5376 125.608 92.4263 125.713 92.2933 125.783C92.1602 125.853 92.0105 125.886 91.8603 125.877C91.7341 125.883 91.6079 125.864 91.4895 125.819C91.3711 125.775 91.2631 125.707 91.172 125.619C91.081 125.531 91.0088 125.426 90.9601 125.309C90.9113 125.193 90.8869 125.067 90.8883 124.941Z" fill="white"/>
<path d="M94.6953 125.064H93.1919C93.2137 125.223 93.2953 125.367 93.4199 125.468C93.5446 125.568 93.7029 125.617 93.8626 125.605C93.9626 125.609 94.0621 125.59 94.1544 125.552C94.2466 125.513 94.3295 125.455 94.3972 125.382L94.5819 125.599C94.489 125.699 94.3753 125.777 94.2488 125.829C94.1223 125.88 93.986 125.903 93.8496 125.897C93.7207 125.906 93.5912 125.889 93.4694 125.845C93.3477 125.802 93.2364 125.733 93.1427 125.644C93.049 125.555 92.975 125.447 92.9255 125.328C92.8759 125.208 92.8519 125.08 92.855 124.951C92.85 124.827 92.8706 124.703 92.9155 124.587C92.9603 124.471 93.0284 124.366 93.1155 124.278C93.2027 124.189 93.3071 124.12 93.4222 124.073C93.5373 124.027 93.6607 124.005 93.7848 124.008C93.9094 124.004 94.0333 124.026 94.1488 124.073C94.2642 124.12 94.3684 124.191 94.4548 124.28C94.5413 124.37 94.6079 124.477 94.6504 124.594C94.6929 124.711 94.7104 124.836 94.7018 124.96C94.7018 124.98 94.6985 125.022 94.6953 125.064ZM93.1919 124.821H94.3778C94.3624 124.674 94.2933 124.539 94.1838 124.44C94.0744 124.341 93.9322 124.287 93.7848 124.287C93.6375 124.287 93.4953 124.341 93.3858 124.44C93.2763 124.539 93.2073 124.674 93.1919 124.821Z" fill="white"/>
<path d="M97.0832 124.941C97.0901 125.066 97.0707 125.191 97.0262 125.309C96.9817 125.426 96.9132 125.533 96.8249 125.622C96.7367 125.711 96.6308 125.78 96.514 125.826C96.3972 125.872 96.2721 125.893 96.1468 125.887C96.0231 125.891 95.9001 125.866 95.7876 125.814C95.6751 125.763 95.5762 125.685 95.4988 125.589V126.545H95.1748V124.014H95.4988V124.309C95.5728 124.207 95.6703 124.124 95.7831 124.068C95.8959 124.011 96.0207 123.983 96.1468 123.985C96.273 123.979 96.3989 124 96.5164 124.047C96.6339 124.093 96.7404 124.163 96.8287 124.254C96.9171 124.344 96.9855 124.452 97.0293 124.57C97.0732 124.688 97.0915 124.815 97.0832 124.941ZM96.743 124.941C96.7385 124.818 96.6981 124.7 96.6267 124.6C96.5554 124.5 96.4562 124.423 96.3416 124.38C96.2271 124.336 96.1021 124.326 95.9823 124.353C95.8626 124.38 95.7533 124.441 95.6681 124.529C95.5829 124.618 95.5255 124.729 95.5032 124.85C95.4808 124.97 95.4945 125.095 95.5424 125.208C95.5903 125.321 95.6704 125.417 95.7727 125.485C95.875 125.553 95.995 125.589 96.1176 125.589C96.2022 125.591 96.2863 125.575 96.3646 125.543C96.4428 125.511 96.5135 125.463 96.5723 125.402C96.6311 125.341 96.6766 125.269 96.7059 125.189C96.7353 125.11 96.7479 125.025 96.743 124.941Z" fill="white"/>
<path d="M98.5899 125.757C98.4725 125.846 98.3285 125.891 98.1817 125.887C98.103 125.896 98.0233 125.888 97.9484 125.862C97.8735 125.836 97.8054 125.794 97.7491 125.738C97.6928 125.682 97.6497 125.615 97.6231 125.54C97.5964 125.465 97.5869 125.386 97.5952 125.307V124.29H97.2712V124.014H97.5952V123.609H97.9192V124.014H98.4506V124.29H97.9192V125.294C97.9111 125.335 97.9126 125.378 97.9237 125.418C97.9347 125.459 97.955 125.496 97.9829 125.528C98.0109 125.559 98.0457 125.584 98.0847 125.599C98.1236 125.615 98.1657 125.621 98.2076 125.618C98.3025 125.62 98.395 125.589 98.47 125.531L98.5899 125.757Z" fill="white"/>
<path d="M50.9554 129.746C50.9554 129.746 50.9328 129.746 50.8906 129.704L50.7027 129.558L49.9154 128.952L49.8862 128.929L49.9219 128.913C53.11 127.692 63.5072 123.791 76.3214 119.015L76.3667 118.999L76.4024 119.028L77.4262 119.851L77.4586 119.877V129.843H77.3744L58.4852 129.811L52.948 129.788H51.4641H51.0818C51.0397 129.79 50.9975 129.79 50.9554 129.788H51.0883H51.4738H52.9675L58.5111 129.765L77.3744 129.733L77.2934 129.814C77.2934 127.53 77.2934 125.138 77.2934 122.686V119.971L77.3258 120.035L76.302 119.209H76.3829C63.5655 123.979 53.1521 127.834 49.9413 128.994V128.958L50.706 129.59L50.8939 129.746H50.9554Z" fill="#3F8EFC"/>
<path d="M76.3472 119.08H49.9282V128.923H76.3472V119.08Z" fill="white"/>
<path d="M76.3505 128.923C76.3505 128.923 76.3505 128.861 76.3505 128.745C76.3505 128.628 76.3505 128.456 76.3505 128.236C76.3505 127.786 76.3505 127.128 76.3505 126.292C76.3505 124.597 76.3311 122.145 76.3181 119.089L76.3764 119.148L49.9575 119.174L50.0417 119.089C50.0417 122.524 50.0417 125.848 50.0417 128.933L49.9607 128.852L68.8726 128.89L74.3806 128.913H75.8613H76.2468H76.3797H76.2565H75.8807H74.4195L68.9277 128.936L49.9575 128.975H49.8765V128.894C49.8765 125.809 49.8765 122.485 49.8765 119.051V118.966H49.9639L76.3829 118.992H76.4412V119.051C76.4412 122.119 76.4153 124.584 76.4088 126.289C76.4088 127.128 76.4088 127.779 76.4088 128.233C76.4088 128.447 76.4088 128.612 76.4088 128.732C76.4088 128.852 76.3505 128.923 76.3505 128.923Z" fill="#3F8EFC"/>
<path d="M57.1697 123.305H58.2C58.3683 123.292 58.5374 123.315 58.6966 123.371C58.8558 123.427 59.0017 123.515 59.1253 123.63C59.2489 123.745 59.3475 123.884 59.4149 124.039C59.4823 124.194 59.5171 124.361 59.5171 124.529C59.5171 124.698 59.4823 124.865 59.4149 125.02C59.3475 125.175 59.2489 125.314 59.1253 125.429C59.0017 125.544 58.8558 125.632 58.6966 125.688C58.5374 125.744 58.3683 125.766 58.2 125.754H57.1697V123.305ZM58.1806 125.45C58.3079 125.46 58.436 125.444 58.5569 125.403C58.6778 125.362 58.7888 125.296 58.8829 125.209C58.9769 125.123 59.052 125.018 59.1034 124.901C59.1547 124.784 59.1812 124.657 59.1812 124.529C59.1812 124.402 59.1547 124.275 59.1034 124.158C59.052 124.041 58.9769 123.936 58.8829 123.85C58.7888 123.763 58.6778 123.697 58.5569 123.656C58.436 123.614 58.3079 123.598 58.1806 123.609H57.5326V125.45H58.1806Z" fill="#3F8EFC"/>
<path d="M61.6734 124.938H60.17C60.1919 125.097 60.2739 125.242 60.3992 125.342C60.5246 125.443 60.6837 125.492 60.8439 125.479C60.944 125.483 61.0437 125.465 61.1361 125.426C61.2285 125.388 61.3112 125.329 61.3785 125.255L61.5632 125.472C61.426 125.611 61.2517 125.707 61.0613 125.748C60.8709 125.79 60.6725 125.776 60.49 125.707C60.3076 125.639 60.1488 125.519 60.0328 125.362C59.9168 125.206 59.8485 125.019 59.8363 124.824C59.8309 124.7 59.8512 124.576 59.8958 124.46C59.9404 124.344 60.0084 124.238 60.0957 124.149C60.1829 124.06 60.2874 123.991 60.4027 123.944C60.5181 123.897 60.6418 123.875 60.7662 123.878C60.8909 123.875 61.0149 123.897 61.1303 123.945C61.2457 123.992 61.35 124.063 61.4363 124.153C61.5227 124.243 61.5892 124.35 61.6317 124.467C61.6742 124.585 61.6917 124.71 61.6831 124.834C61.6831 124.866 61.6766 124.905 61.6734 124.938ZM60.17 124.698H61.3591C61.3406 124.553 61.27 124.42 61.1605 124.324C61.0511 124.228 60.9103 124.175 60.7646 124.175C60.6188 124.175 60.478 124.228 60.3686 124.324C60.2591 124.42 60.1885 124.553 60.17 124.698Z" fill="#3F8EFC"/>
<path d="M61.9746 124.827C61.9718 124.7 61.9952 124.574 62.0434 124.456C62.0916 124.338 62.1635 124.232 62.2547 124.143C62.3459 124.054 62.4544 123.985 62.5734 123.94C62.6925 123.895 62.8195 123.875 62.9466 123.881C63.0965 123.872 63.2459 123.905 63.3789 123.974C63.512 124.044 63.6235 124.148 63.7015 124.277L63.4456 124.442C63.3917 124.358 63.3172 124.29 63.2292 124.243C63.1413 124.197 63.0428 124.174 62.9434 124.176C62.7715 124.176 62.6067 124.244 62.4851 124.366C62.3636 124.488 62.2954 124.652 62.2954 124.824C62.2954 124.996 62.3636 125.161 62.4851 125.282C62.6067 125.404 62.7715 125.472 62.9434 125.472C63.0428 125.475 63.1413 125.452 63.2292 125.405C63.3172 125.359 63.3917 125.29 63.4456 125.207L63.7015 125.369C63.6236 125.497 63.5122 125.602 63.3793 125.672C63.2463 125.743 63.0967 125.775 62.9466 125.767C62.82 125.773 62.6936 125.753 62.575 125.709C62.4564 125.664 62.3482 125.596 62.2571 125.508C62.166 125.42 62.0939 125.314 62.0453 125.197C61.9967 125.08 61.9727 124.954 61.9746 124.827Z" fill="#3F8EFC"/>
<path d="M64.1162 123.159H64.4402V125.751H64.1162V123.159Z" fill="#3F8EFC"/>
<path d="M65.03 123.327C65.0305 123.298 65.0367 123.269 65.0483 123.242C65.0599 123.215 65.0767 123.191 65.0978 123.17C65.1189 123.15 65.1437 123.134 65.171 123.123C65.1983 123.112 65.2275 123.107 65.2568 123.107C65.3001 123.108 65.342 123.122 65.3774 123.147C65.4128 123.172 65.44 123.207 65.4557 123.247C65.4714 123.288 65.4748 123.332 65.4656 123.374C65.4564 123.417 65.4349 123.455 65.4039 123.485C65.3728 123.516 65.3336 123.536 65.291 123.544C65.2484 123.552 65.2045 123.547 65.1646 123.53C65.1247 123.513 65.0907 123.485 65.0668 123.449C65.0428 123.413 65.03 123.371 65.03 123.327ZM65.0916 123.901H65.4156V125.754H65.0916V123.901Z" fill="#3F8EFC"/>
<path d="M67.8228 124.688V125.754H67.4988V124.74C67.4988 124.377 67.3141 124.199 66.9966 124.199C66.9156 124.193 66.8342 124.205 66.7584 124.235C66.6826 124.264 66.6142 124.31 66.5582 124.368C66.5021 124.427 66.4598 124.498 66.4342 124.575C66.4086 124.652 66.4004 124.734 66.4102 124.815V125.77H66.0862V123.917H66.4102V124.196C66.4894 124.096 66.5914 124.017 66.7075 123.965C66.8237 123.913 66.9506 123.89 67.0776 123.898C67.1805 123.893 67.2832 123.911 67.3786 123.95C67.474 123.989 67.5599 124.048 67.6305 124.123C67.7012 124.198 67.7549 124.287 67.7881 124.385C67.8213 124.482 67.8331 124.586 67.8228 124.688Z" fill="#3F8EFC"/>
<path d="M70.1231 124.938H68.6198C68.6416 125.096 68.7232 125.241 68.8478 125.341C68.9725 125.442 69.1308 125.491 69.2905 125.479C69.3905 125.483 69.4902 125.465 69.5826 125.426C69.675 125.388 69.7578 125.329 69.8251 125.255L70.0097 125.472C69.8726 125.611 69.6983 125.707 69.5079 125.748C69.3175 125.79 69.1191 125.776 68.9366 125.707C68.7541 125.639 68.5953 125.519 68.4793 125.362C68.3633 125.206 68.2951 125.019 68.2828 124.824C68.2775 124.7 68.2977 124.576 68.3423 124.46C68.3869 124.344 68.455 124.238 68.5422 124.149C68.6294 124.06 68.7339 123.991 68.8493 123.944C68.9646 123.897 69.0883 123.875 69.2127 123.878C69.3374 123.875 69.4614 123.897 69.5768 123.945C69.6923 123.992 69.7965 124.063 69.8828 124.153C69.9692 124.243 70.0358 124.35 70.0783 124.467C70.1208 124.585 70.1383 124.71 70.1296 124.834C70.1296 124.866 70.1264 124.905 70.1231 124.938ZM68.6198 124.698H69.8056C69.7903 124.551 69.7212 124.416 69.6117 124.317C69.5022 124.218 69.3601 124.164 69.2127 124.164C69.0653 124.164 68.9232 124.218 68.8137 124.317C68.7042 124.416 68.6351 124.551 68.6198 124.698Z" fill="#3F8EFC"/>
<path d="M77.3744 129.746C77.342 129.781 77.086 129.587 76.8042 129.315C76.5223 129.043 76.3181 128.797 76.3505 128.761C76.3829 128.725 76.6389 128.923 76.9208 129.195C77.2027 129.467 77.4068 129.713 77.3744 129.746Z" fill="#3F8EFC"/>
<path d="M115.117 127.287L118.889 125.472L116.815 119.342L112.26 118.289C111.835 118.192 111.362 118.079 110.837 117.933C110.22 117.761 109.636 117.486 109.11 117.12C108.44 116.694 107.832 116.178 107.302 115.587C106.871 115.001 105.958 115.221 105.958 115.872C105.958 116.523 107.108 118.166 109.152 119.329C111.197 120.492 107.581 121.053 106.272 121.273C104.963 121.494 100.939 122.397 100.699 122.854C100.349 123.522 101.023 124.034 102.319 123.778C103.615 123.522 107.597 123.016 107.701 123.71V123.729C107.381 124.229 107.226 124.816 107.257 125.409C107.288 126.002 107.503 126.57 107.873 127.034C108.605 127.951 109.703 129.101 110.51 128.926C112.026 128.605 115.117 127.287 115.117 127.287Z" fill="#B78876"/>
<path d="M114.887 116.501L118.422 128.453L145.868 120.113C147.269 119.685 148.57 118.982 149.696 118.045C150.822 117.108 151.75 115.955 152.425 114.655C153.1 113.355 153.51 111.934 153.629 110.474C153.748 109.014 153.575 107.544 153.119 106.152L146.389 85.212L131.774 88.8408L139.796 108.216L114.887 116.501Z" fill="#3F8EFC"/>
<path d="M146.487 119.903L146.354 119.951L145.959 120.078L144.423 120.554L138.672 122.316L118.694 128.379L118.619 128.398L118.594 128.327C117.372 124.672 116.186 120.654 114.816 116.527L114.79 116.449L114.871 116.42L115.561 116.193L139.783 108.148L139.744 108.235C137.8 103.537 136.226 99.6883 135.124 97.0056C134.58 95.6707 134.152 94.6274 133.86 93.9114C133.721 93.5582 133.611 93.2861 133.536 93.0982C133.462 92.9102 133.433 92.8195 133.433 92.8195C133.433 92.8195 133.478 92.9102 133.556 93.0917L133.899 93.8952C134.197 94.608 134.635 95.648 135.195 96.9764C136.31 99.6527 137.91 103.495 139.867 108.187L139.893 108.252L139.825 108.274L115.603 116.352L114.913 116.582L114.965 116.475C116.339 120.606 117.518 124.623 118.736 128.275L118.639 128.223L138.633 122.223L144.407 120.502L145.949 120.052L146.351 119.938L146.487 119.903Z" fill="#263238"/>
<path d="M144.87 111.699C144.844 111.699 144.663 111.398 144.296 110.941C143.335 109.747 142.028 108.88 140.554 108.459C139.991 108.297 139.628 108.252 139.631 108.222C139.717 108.207 139.804 108.207 139.89 108.222C140.124 108.244 140.356 108.283 140.583 108.339C141.34 108.522 142.059 108.836 142.709 109.266C143.359 109.695 143.928 110.236 144.39 110.863C144.531 111.052 144.656 111.251 144.766 111.459C144.815 111.532 144.85 111.613 144.87 111.699Z" fill="#263238"/>
<path d="M138.218 89.8582C138.133 89.2715 138.105 88.678 138.134 88.0859C138.105 87.4938 138.133 86.9003 138.218 86.3136C138.331 87.4924 138.331 88.6793 138.218 89.8582Z" fill="#FAFAFA"/>
<path d="M143.73 90.14C143.477 89.5943 143.278 89.0259 143.133 88.4423C142.934 87.8751 142.789 87.2904 142.699 86.6959C143.15 87.8091 143.495 88.9622 143.73 90.14Z" fill="#FAFAFA"/>
<path d="M140.311 95.1134C139.177 95.1047 138.067 94.7792 137.107 94.1738C137.13 94.1285 137.807 94.4492 138.691 94.7052C139.576 94.9611 140.315 95.0648 140.311 95.1134Z" fill="#FAFAFA"/>
<path d="M146.545 97.848C146.558 97.2787 146.627 96.7122 146.753 96.1567C146.822 95.5907 146.947 95.0329 147.125 94.4913C147.11 95.0615 147.041 95.629 146.918 96.1858C146.849 96.7509 146.724 97.3077 146.545 97.848Z" fill="#FAFAFA"/>
<path d="M144.316 102.313C143.728 101.302 143.241 100.237 142.861 99.131C143.447 100.143 143.934 101.208 144.316 102.313Z" fill="#FAFAFA"/>
<path d="M143.402 106.22C142.869 106.057 142.353 105.84 141.863 105.572C141.35 105.356 140.86 105.086 140.402 104.769C140.933 104.936 141.448 105.153 141.938 105.417C142.452 105.634 142.943 105.903 143.402 106.22Z" fill="#FAFAFA"/>
<path d="M150.414 105.18C150.239 105.688 150.032 106.185 149.795 106.667C149.61 107.171 149.393 107.662 149.147 108.138C149.377 107.081 149.807 106.077 150.414 105.18Z" fill="#FAFAFA"/>
<path d="M148.463 114.592C148.229 113.393 148.109 112.175 148.104 110.954C148.244 111.548 148.332 112.155 148.366 112.765C148.454 113.37 148.486 113.981 148.463 114.592Z" fill="#FAFAFA"/>
<path d="M143.513 117.563C143.045 117.252 142.611 116.894 142.217 116.494C141.787 116.137 141.394 115.737 141.044 115.302C141.511 115.613 141.946 115.971 142.34 116.371C142.769 116.728 143.162 117.128 143.513 117.563Z" fill="#FAFAFA"/>
<path d="M134.959 118.416C134.346 119.444 133.637 120.412 132.84 121.306C133.121 120.777 133.453 120.277 133.831 119.812C134.163 119.312 134.54 118.845 134.959 118.416Z" fill="#FAFAFA"/>
<path d="M137.671 114.408C137.179 114.09 136.737 113.701 136.359 113.254C135.94 112.846 135.586 112.376 135.309 111.861C135.348 111.832 135.83 112.441 136.482 113.141C137.133 113.841 137.7 114.372 137.671 114.408Z" fill="#FAFAFA"/>
<path d="M131.22 115.318C130.809 115.484 130.362 115.538 129.924 115.477C129.482 115.471 129.05 115.353 128.667 115.133C128.686 115.085 129.234 115.26 129.934 115.308C130.633 115.357 131.22 115.27 131.22 115.318Z" fill="#FAFAFA"/>
<path d="M127.134 122.407C126.973 121.957 126.864 121.489 126.81 121.014C126.701 120.548 126.648 120.07 126.652 119.592C126.922 120.508 127.084 121.453 127.134 122.407Z" fill="#FAFAFA"/>
<path d="M122.313 124.85C121.195 124.279 120.132 123.608 119.135 122.845C119.707 123.106 120.254 123.419 120.771 123.778C121.315 124.089 121.832 124.448 122.313 124.85Z" fill="#FAFAFA"/>
<path d="M124.034 116.225C124.069 116.258 123.599 116.815 123.078 117.541C122.556 118.266 122.167 118.885 122.125 118.863C122.321 118.349 122.595 117.869 122.938 117.44C123.237 116.98 123.607 116.57 124.034 116.225Z" fill="#FAFAFA"/>
<path d="M120.308 117.861C119.973 117.788 119.652 117.66 119.358 117.482C119.041 117.355 118.748 117.175 118.49 116.951C119.142 117.151 119.757 117.459 120.308 117.861Z" fill="#FAFAFA"/>
<g opacity="0.2">
<path d="M139.566 107.72C141.031 107.869 142.498 108.022 143.96 108.206C144.469 108.243 144.971 108.352 145.45 108.53C145.688 108.623 145.905 108.763 146.088 108.942C146.27 109.12 146.415 109.334 146.513 109.57C146.604 109.81 146.614 110.072 146.541 110.318C146.468 110.563 146.315 110.778 146.108 110.928C145.9 111.034 145.669 111.085 145.436 111.074C145.203 111.064 144.977 110.994 144.779 110.869C144.387 110.62 144.02 110.332 143.684 110.011C143.025 109.466 142.259 109.065 141.436 108.835C141.06 108.763 140.698 108.637 140.36 108.459C140.191 108.365 140.056 108.221 139.972 108.047C139.889 107.873 139.861 107.677 139.893 107.487" fill="#2E2E2E"/>
</g>
</svg>
