<svg width="162" height="162" viewBox="0 0 162 162" fill="none" xmlns="http://www.w3.org/2000/svg">
<path d="M26.0513 30.9578C26.7325 30.8037 27.4378 30.7889 28.1248 30.9142C28.8119 31.0394 29.4665 31.3022 30.0495 31.6868C31.214 32.4621 32.1842 33.4954 32.8845 34.7065C34.3036 36.9972 34.7831 40.0622 34.8285 42.7546C31.838 42.6056 29.3205 40.2307 28.0958 38.9476C26.1777 36.9129 23.9745 32.0756 26.0513 30.9578Z" fill="#F5F5F5"/>
<path d="M39.6171 44.6056C39.0218 44.0998 38.5709 43.4456 38.3103 42.7092C38.0496 41.9728 37.9885 41.1806 38.1332 40.413C38.2915 39.6494 38.5998 38.9248 39.0403 38.2813C39.4808 37.6378 40.0447 37.0882 40.6993 36.6643C41.2987 36.2658 42.0341 35.9483 42.7243 36.1589C43.0401 36.2768 43.3188 36.4768 43.5318 36.7382C43.7447 36.9995 43.8843 37.3129 43.936 37.646C44.0265 38.3164 43.9405 38.9987 43.6865 39.6257C42.9089 41.7965 41.762 43.7567 39.6171 44.6056Z" fill="#F5F5F5"/>
<path d="M41.3551 51.1201C41.0209 50.6273 40.7376 50.1019 40.5095 49.552C40.2369 48.9604 40.0368 48.3382 39.9133 47.6987C39.7335 46.9282 39.6047 46.1468 39.5277 45.3594C39.4014 43.9076 39.6327 42.4469 40.2017 41.1053C40.3794 40.7066 40.5964 40.3268 40.8497 39.9713C41.0441 39.7283 41.1737 39.6052 41.1737 39.6181C41.1737 39.6311 40.7849 40.1819 40.3799 41.1895C39.8843 42.5124 39.6895 43.9291 39.8096 45.3367C39.8811 46.1136 39.9957 46.8859 40.1531 47.6501C40.2618 48.2745 40.4356 48.8859 40.6715 49.4742C41.1218 50.4754 41.4005 51.1007 41.3551 51.1201Z" fill="#E0E0E0"/>
<path d="M28.0684 34.4902C28.2969 34.687 28.5072 34.9038 28.6969 35.1382C29.0825 35.5692 29.6365 36.201 30.3169 36.985C31.668 38.5564 33.5116 40.7467 35.5009 43.2123C37.4903 45.678 39.2042 47.9686 40.403 49.647C41.0089 50.4894 41.4917 51.173 41.8157 51.6525C41.9981 51.8932 42.1596 52.149 42.2984 52.4172C42.0871 52.2026 41.8942 51.9707 41.7217 51.7238L40.2313 49.7798C38.9742 48.1339 37.2246 45.8724 35.2482 43.4067L30.1484 37.1211L28.6062 35.216C28.4079 34.9887 28.2281 34.746 28.0684 34.4902Z" fill="#E0E0E0"/>
<path d="M37.5835 47.5171C36.2241 46.5873 34.6628 45.9948 33.0288 45.7886C31.3949 45.5824 29.7353 45.7684 28.1875 46.3312C27.4035 46.6228 26.5675 47.1704 26.5287 48.0063C26.4898 48.8422 27.3257 49.4384 28.1001 49.7624C29.7248 50.4041 31.5031 50.5505 33.2109 50.1833C34.9188 49.816 36.4797 48.9514 37.6969 47.6985" fill="#F5F5F5"/>
<path d="M30.2832 47.6282C30.4241 47.5528 30.5762 47.5003 30.7336 47.4727C31.0252 47.3917 31.4561 47.2977 31.9907 47.1973C33.3969 46.9259 34.8408 46.9139 36.2513 47.1616C37.0287 47.3223 37.7749 47.6079 38.461 48.0073C39.3899 48.5633 40.179 49.3247 40.7678 50.2331C40.8663 50.3582 40.9439 50.4982 40.9979 50.6479C40.9493 50.6835 40.5799 50.1165 39.8153 49.3519C38.8176 48.3767 37.558 47.7125 36.1897 47.4403C34.8122 47.2033 33.4058 47.1869 32.0231 47.3917C30.9539 47.531 30.2929 47.6606 30.2832 47.6282Z" fill="#E0E0E0"/>
<path d="M41.967 113.292C51.6287 108.601 55.3968 97.6397 56.6636 87.4499C56.8775 85.7489 57.3473 83.9961 56.777 82.3826C56.2068 80.769 54.4928 79.4666 52.8631 79.9299C51.5153 80.3187 50.7344 81.6957 49.8402 82.7908C48.6437 84.2528 47.0592 85.3477 45.2685 85.9498C44.1021 86.3354 42.7154 86.465 41.7434 85.71C40.4118 84.6732 40.5608 82.6288 40.8395 80.9472L42.3947 71.5512C42.6733 69.8697 42.9519 68.1525 42.683 66.4709C42.4141 64.7894 41.4939 63.124 39.9647 62.4209C38.4354 61.7178 36.3099 62.327 35.7105 63.9178C35.4578 64.582 35.487 65.3142 35.3282 66.0076C35.1695 66.701 34.7223 67.417 34.0322 67.5077C33.3421 67.5984 32.7362 67.0152 32.3085 66.4418C30.8441 64.4654 30.0114 62.0904 29.2565 59.7382C28.5015 57.386 27.7887 54.9884 26.5057 52.8856C25.2227 50.7828 23.2657 48.9652 20.8908 48.4436C18.5159 47.9219 15.7068 49.0041 14.7153 51.2721C13.7239 53.5401 14.7153 56.1742 15.9271 58.3353C17.7082 61.5387 19.9432 64.4677 22.5626 67.0314C23.0324 67.4948 23.5346 68.0034 23.6448 68.6514C23.8327 69.8308 22.5918 70.7769 21.4254 70.968C20.1067 71.1851 18.7653 70.8384 17.4272 70.7866C16.0891 70.7348 14.5793 71.0847 13.8859 72.2446C12.9139 73.8646 14.0738 75.8864 15.3018 77.2925C17.7583 80.1075 20.6814 82.4782 23.9429 84.3006C25.106 84.9486 26.3469 85.5545 27.2055 86.5848C28.0641 87.6152 28.427 89.2222 27.6365 90.3108C26.8459 91.3995 25.2356 91.5323 23.9785 91.0852C22.7214 90.6381 21.6716 89.7471 20.5085 89.0991C18.3377 87.8582 15.3245 87.5406 13.5263 89.3032C12.3437 90.4631 11.9678 92.2775 12.2108 93.9234C12.4538 95.5694 13.2379 97.0727 14.0997 98.4854C17.1129 103.423 21.299 107.68 26.3696 110.392C31.4402 113.104 36.3261 114.403 41.967 113.308" fill="#EBEBEB"/>
<path d="M40.5973 113.831C40.8695 109.758 41.0509 111.871 40.3641 106.521C39.6772 101.172 38.4557 95.366 36.9621 89.3494L35.8378 84.8879C35.4652 83.4266 35.0991 81.9719 34.6487 80.5787C33.7835 77.899 32.77 75.2694 31.6128 72.7022C30.5274 70.2431 29.4064 67.9492 28.3404 65.814C27.2745 63.6788 26.2441 61.696 25.2203 59.9399C23.6258 57.1591 21.8133 54.5091 19.7998 52.0148C19.0902 51.1336 18.5038 50.4694 18.1215 50.0222L17.6679 49.5168C17.6198 49.4562 17.5655 49.4009 17.5059 49.3516C17.5462 49.4185 17.5929 49.4814 17.6452 49.5395C17.7521 49.6691 17.8947 49.8408 18.0729 50.0644C18.4519 50.5212 19.0092 51.2016 19.6929 52.0926C21.6632 54.6098 23.4426 57.2708 25.0162 60.0533C26.0206 61.8126 27.0379 63.7858 28.0974 65.9209C29.1569 68.0561 30.2585 70.3565 31.3374 72.8124C32.4836 75.3762 33.4874 78.0014 34.3441 80.6759C34.788 82.0658 35.1509 83.5044 35.5235 84.9721C35.8961 86.4398 36.2655 87.9238 36.6445 89.4271C38.1382 95.4503 39.3726 101.24 40.066 106.573C40.7593 111.906 40.6071 109.771 40.3641 113.831" fill="#E0E0E0"/>
<path d="M34.5645 80.5432C34.6808 80.3222 34.7742 80.0899 34.8431 79.8498C35.0051 79.3995 35.2189 78.7418 35.4684 77.922C35.9739 76.2826 36.5927 73.9984 37.2666 71.4777C37.9405 68.957 38.5918 66.6825 39.1199 65.0592C39.3791 64.246 39.5994 63.5883 39.7679 63.1379C39.8643 62.9077 39.935 62.6676 39.9785 62.4219C39.8474 62.6335 39.7388 62.8583 39.6545 63.0926C39.4633 63.5332 39.2106 64.178 38.9223 64.988C38.3391 66.608 37.6522 68.876 36.9783 71.3934C36.3043 73.9109 35.7244 76.1368 35.2675 77.8734C35.0602 78.6478 34.882 79.3023 34.7394 79.8174C34.652 80.0514 34.5933 80.2951 34.5645 80.5432Z" fill="#E0E0E0"/>
<path d="M13.5723 73.0547C13.8468 73.1626 14.1311 73.244 14.4211 73.2977C14.9655 73.4338 15.7593 73.6217 16.7313 73.9003C18.6753 74.4317 21.3418 75.2546 24.2416 76.2947C27.1414 77.3347 29.7237 78.3974 31.5705 79.2107C32.4971 79.6157 33.2391 79.9624 33.751 80.1827C34.0102 80.3235 34.2826 80.4385 34.5642 80.5261C34.3262 80.3516 34.0724 80.1997 33.8061 80.0725C33.3071 79.8036 32.5781 79.4245 31.6612 78.9936C29.8338 78.122 27.2548 77.0269 24.3485 75.9804C21.8689 75.0807 19.3449 74.3085 16.7863 73.667C15.8143 73.424 15.0011 73.2588 14.4438 73.1584C14.157 73.0979 13.8653 73.0632 13.5723 73.0547Z" fill="#E0E0E0"/>
<path d="M40.1758 106.08C40.1758 106.08 40.2503 106.005 40.3669 105.84L40.8627 105.117C41.2871 104.486 41.88 103.559 42.5993 102.402C44.0379 100.089 45.9235 96.8327 47.955 93.2103C49.9865 89.588 51.843 86.3189 53.2297 83.9796C53.9101 82.8456 54.4674 81.9092 54.8821 81.2159C55.0603 80.9145 55.2061 80.6651 55.3293 80.4609C55.3868 80.3757 55.4326 80.2831 55.4653 80.1855C55.4653 80.1855 55.3908 80.2601 55.2742 80.4253L54.7558 81.1478C54.3281 81.7796 53.7352 82.7063 53.0159 83.8629C51.5871 86.1828 49.7014 89.4228 47.6699 93.0548C45.6384 96.6869 43.7819 99.9463 42.3952 102.286C41.7148 103.42 41.1575 104.356 40.7428 105.049L40.2989 105.804C40.2454 105.89 40.204 105.983 40.1758 106.08Z" fill="#E0E0E0"/>
<path d="M12.8887 92.2422C12.9695 92.308 13.0589 92.3625 13.1544 92.4042L13.932 92.8157L16.848 94.3028C19.3136 95.5599 22.6994 97.3355 26.4351 99.3021C30.1708 101.269 33.5631 103.012 36.0709 104.22C37.315 104.823 38.3389 105.299 39.0355 105.617L39.852 105.977C39.9442 106.024 40.0422 106.059 40.1436 106.08C40.0627 106.014 39.9734 105.96 39.8779 105.918L39.0873 105.507L36.1713 104.02C33.7057 102.762 30.3199 100.987 26.5842 99.0203C22.8484 97.0536 19.4562 95.3072 16.9516 94.1019C15.7042 93.4993 14.6836 93.023 13.9838 92.7055L13.1803 92.3394C13.0877 92.2944 12.9897 92.2618 12.8887 92.2422Z" fill="#E0E0E0"/>
<path d="M150.776 140.94C150.776 140.985 120.103 141.024 82.2761 141.024C44.4491 141.024 13.7695 140.988 13.7695 140.94C13.7695 140.891 44.4361 140.855 82.2761 140.855C120.116 140.855 150.776 140.894 150.776 140.94Z" fill="#263238"/>
<path d="M21.2957 87.2822C21.2957 87.2822 23.5313 85.7724 26.3242 91.1281C29.1171 96.4838 30.1863 99.578 30.1863 99.578C30.1863 99.578 30.9218 100.699 31.6897 99.9538C32.4575 99.2086 33.4976 97.1091 34.8195 97.4752C36.1414 97.8414 36.6533 99.3706 36.4136 101.613C36.1738 103.855 35.8304 108.786 35.8012 109.23C35.7721 109.674 36.028 110.309 36.6307 109.878C37.2333 109.447 40.6969 105.527 42.4627 107.286C44.2285 109.045 42.5372 115.175 42.3655 115.849C42.1937 116.523 42.3266 116.821 42.6473 116.974C42.9681 117.126 44.0081 115.707 45.0385 114.631C46.0688 113.555 47.4523 112.483 48.3854 113.581C49.3185 114.68 49.6587 119.267 45.3592 126.765L43.1398 130.109L39.1125 129.924C30.5168 129 27.0014 126.036 26.6644 124.633C26.3275 123.23 27.9993 122.741 29.4767 122.54C30.9542 122.339 32.7167 122.336 32.7783 121.979C32.8399 121.623 32.6811 121.348 32.0331 121.092C31.3851 120.836 25.4267 118.603 25.0444 116.144C24.6621 113.685 29.872 113.189 30.5719 112.946C31.2717 112.703 30.8959 112.123 30.5265 111.89C30.1571 111.657 25.9549 109.036 24.0011 107.911C22.0474 106.787 21.0851 105.523 21.5873 104.192C22.0669 102.896 24.377 103.301 25.4332 103.116C26.4895 102.931 26.0099 101.678 26.0099 101.678C26.0099 101.678 24.1307 98.998 21.4383 93.5775C18.7459 88.157 21.3443 87.2368 21.3443 87.2368" fill="#3F8EFC"/>
<path d="M23.8066 92.0742C23.8267 92.1045 23.8451 92.1359 23.8617 92.1682L24.014 92.4565L24.581 93.5614L26.6546 97.6373C28.4204 101.078 30.8666 105.818 33.5396 111.057C36.2126 116.296 38.6653 121.046 40.389 124.5C41.2443 126.224 41.9344 127.624 42.4172 128.599L42.9583 129.717L43.0976 130.011C43.1268 130.076 43.1397 130.112 43.1397 130.112C43.1397 130.112 43.117 130.083 43.0814 130.018L42.9324 129.733C42.7963 129.47 42.6084 129.085 42.3654 128.625C41.8696 127.653 41.1633 126.266 40.2918 124.549C38.5551 121.108 36.1024 116.365 33.4035 111.132C30.7046 105.899 28.2811 101.14 26.5671 97.6859L24.5259 93.5873C24.2959 93.1078 24.1144 92.7319 23.9848 92.4695C23.9265 92.3464 23.8812 92.2492 23.8488 92.1747C23.83 92.1434 23.8158 92.1096 23.8066 92.0742Z" fill="#263238"/>
<path d="M33.4814 100.473C33.4308 100.829 33.3561 101.182 33.2579 101.529C33.1024 102.219 32.9015 103.094 32.6779 104.066C32.4544 105.038 32.2438 105.948 32.0753 106.596C31.9878 106.92 31.9133 107.176 31.855 107.354C31.8329 107.449 31.7969 107.54 31.748 107.623C31.8031 107.268 31.8766 106.915 31.9684 106.567L32.5289 104.027C32.7557 103.035 32.976 102.141 33.1542 101.496C33.2449 101.172 33.3227 100.917 33.381 100.742C33.4012 100.648 33.4351 100.557 33.4814 100.473Z" fill="#263238"/>
<path d="M31.3777 107.704C31.3777 107.742 29.5244 107.269 27.2629 106.641C25.0013 106.012 23.1805 105.474 23.1934 105.432C23.2064 105.39 25.0435 105.866 27.305 106.492C29.5665 107.117 31.3874 107.661 31.3777 107.704Z" fill="#263238"/>
<path d="M36.5754 116.717C36.4795 116.744 36.3803 116.758 36.2806 116.759C36.0927 116.778 35.8173 116.798 35.4771 116.814C34.7967 116.846 33.8571 116.869 32.8138 116.84C31.7705 116.811 30.8374 116.736 30.1602 116.665C29.8362 116.629 29.5479 116.594 29.3567 116.565C29.2582 116.557 29.1612 116.537 29.0684 116.503C29.4352 116.497 29.802 116.515 30.1667 116.555C30.8471 116.6 31.7867 116.655 32.8203 116.684C33.8538 116.714 34.7934 116.71 35.4738 116.704C35.8409 116.685 36.2089 116.689 36.5754 116.717Z" fill="#263238"/>
<path d="M39.9202 110.594C39.7938 110.909 39.6432 111.215 39.4698 111.507C39.1718 112.061 38.7538 112.823 38.284 113.659C37.8142 114.495 37.38 115.25 37.0593 115.791C36.8996 116.091 36.7165 116.378 36.5117 116.649C36.6381 116.334 36.7887 116.028 36.9621 115.736C37.2602 115.182 37.6781 114.42 38.1479 113.584C38.6177 112.748 39.0519 111.993 39.3726 111.456C39.5329 111.155 39.716 110.867 39.9202 110.594Z" fill="#263238"/>
<path d="M45.5189 117.969C45.4841 118.082 45.4351 118.191 45.3731 118.293L44.9162 119.132C44.5274 119.835 43.9799 120.804 43.3675 121.87C42.7552 122.936 42.1914 123.898 41.7767 124.588C41.5823 124.912 41.4138 125.181 41.281 125.405C41.2258 125.507 41.1584 125.603 41.0801 125.69C41.1158 125.576 41.1647 125.468 41.2259 125.366L41.6827 124.527C42.0715 123.82 42.6191 122.851 43.2314 121.785C43.8438 120.72 44.4076 119.76 44.8223 119.07L45.318 118.254C45.3754 118.152 45.4427 118.057 45.5189 117.969Z" fill="#263238"/>
<path d="M41.1467 125.472C41.0244 125.499 40.8992 125.509 40.7741 125.505C40.5311 125.505 40.1812 125.521 39.7503 125.524C38.8885 125.524 37.6929 125.524 36.3775 125.437C35.062 125.349 33.8697 125.252 33.0143 125.152C32.5834 125.103 32.2367 125.054 32.0002 125.019C31.8746 125.008 31.7507 124.983 31.6309 124.944C31.7559 124.933 31.8817 124.933 32.0067 124.944L33.0241 125.028C33.8827 125.103 35.0717 125.197 36.3839 125.268C37.6961 125.339 38.8885 125.378 39.7503 125.401L40.7741 125.43C40.8994 125.432 41.0242 125.446 41.1467 125.472Z" fill="#263238"/>
<path d="M146.488 85.5007L135.643 96.0598L125.651 115.127L114.415 136.689L100.609 130.209L85.6859 122.569L95.2309 104.335L101.163 83.9228C96.9708 86.7027 89.1754 90.4903 79.8766 88.5139C69.7872 86.3755 74.631 48.3379 74.631 48.3379L85.7183 48.0527L86.8328 74.8702L99.3554 69.3363L99.3749 69.3817C100.13 69.0577 100.791 68.7337 101.141 68.5555C108.071 64.7744 112.62 64.3175 120.056 66.9711L130.783 70.5351C133.541 71.8311 143.705 76.8369 146.488 85.5007Z" fill="#3F8EFC"/>
<path d="M108.54 66.1738C108.54 66.1738 108.29 66.3164 107.869 66.6177C107.278 67.0472 106.754 67.5614 106.314 68.1437C105.667 69.0127 105.151 69.9724 104.784 70.9917C104.338 72.2446 103.956 73.5196 103.641 74.8117L101.736 81.8198C101.486 82.6978 101.285 83.4171 101.136 83.9355C101.068 84.172 101.01 84.3632 100.968 84.509C100.952 84.5775 100.928 84.6438 100.896 84.7066C100.901 84.6372 100.914 84.5686 100.935 84.5025C100.971 84.3502 101.016 84.1591 101.075 83.9193C101.208 83.3944 101.399 82.6719 101.619 81.7874C102.099 79.973 102.753 77.5009 103.479 74.7663C103.796 73.4698 104.184 72.1914 104.639 70.9366C105.018 69.9073 105.551 68.9416 106.22 68.0725C106.676 67.4864 107.223 66.9768 107.84 66.5626C108.006 66.4502 108.179 66.3484 108.358 66.2581C108.417 66.2257 108.477 66.1975 108.54 66.1738Z" fill="#263238"/>
<g opacity="0.3">
<path d="M104.493 71.5488C101.392 79.9437 95.8158 84.6352 87.9199 88.8407C92.5815 88.3243 97.0491 86.688 100.941 84.0714" fill="#2E2E2E"/>
</g>
<g opacity="0.3">
<path d="M114.371 65.5742C115.684 86.6083 116.998 107.641 118.311 128.673L114.423 136.689L114.371 65.5742Z" fill="#2E2E2E"/>
</g>
<path d="M126.58 87.3957C126.534 87.4151 126.139 86.4237 125.585 85.2281C125.031 84.0325 124.539 83.0832 124.581 83.0605C124.733 83.239 124.863 83.436 124.966 83.647C125.183 84.0228 125.462 84.5542 125.737 85.1568C126.013 85.7595 126.24 86.3135 126.385 86.7218C126.481 86.9364 126.546 87.1632 126.58 87.3957Z" fill="#FAFAFA"/>
<path d="M135.406 82.9609C134.738 83.4805 134.034 83.9525 133.3 84.3736C132.597 84.8454 131.863 85.2697 131.104 85.6437C131.776 85.1281 132.48 84.6563 133.213 84.231C133.915 83.7596 134.648 83.3353 135.406 82.9609Z" fill="#FAFAFA"/>
<path d="M131.577 79.7663C131.465 79.1996 131.406 78.6236 131.402 78.0459C131.348 77.4694 131.348 76.889 131.402 76.3125C131.518 76.8797 131.577 77.4572 131.577 78.0362C131.634 78.6115 131.634 79.191 131.577 79.7663Z" fill="#FAFAFA"/>
<path d="M140.386 79.1505C139.299 78.6113 138.264 77.9724 137.295 77.2422C137.851 77.4865 138.384 77.7815 138.886 78.1235C139.417 78.4182 139.919 78.7621 140.386 79.1505Z" fill="#FAFAFA"/>
<path d="M126.918 96.6271C127.157 95.8604 127.45 95.1112 127.793 94.385C128.086 93.6377 128.431 92.9113 128.823 92.2109C128.585 92.978 128.292 93.7273 127.948 94.453C127.656 95.2007 127.311 95.9271 126.918 96.6271Z" fill="#FAFAFA"/>
<path d="M122.993 100.599C122.682 100.163 122.417 99.696 122.203 99.2053C121.937 98.7386 121.72 98.2457 121.555 97.7344C121.866 98.1703 122.132 98.6372 122.348 99.1276C122.615 99.5936 122.831 100.087 122.993 100.599Z" fill="#FAFAFA"/>
<path d="M126.275 105.949C125.746 106.178 125.184 106.321 124.61 106.373C124.044 106.482 123.464 106.5 122.893 106.425C122.893 106.376 123.654 106.341 124.587 106.208C125.52 106.075 126.262 105.897 126.275 105.949Z" fill="#FAFAFA"/>
<path d="M130.484 100.096C130.625 99.5543 130.818 99.028 131.061 98.5242C131.253 97.9986 131.497 97.4939 131.79 97.0176C131.651 97.5591 131.459 98.0855 131.217 98.589C131.026 99.1156 130.781 99.6207 130.484 100.096Z" fill="#FAFAFA"/>
<path d="M120.25 112.453C120.207 112.479 119.731 111.821 119.077 111.067C118.422 110.312 117.839 109.745 117.875 109.709C118.847 110.45 119.656 111.384 120.25 112.453Z" fill="#FAFAFA"/>
<path d="M118.393 99.166C118.164 99.7318 117.88 100.274 117.547 100.786C117.264 101.33 116.931 101.846 116.553 102.328C116.787 101.764 117.071 101.222 117.402 100.708C117.684 100.165 118.016 99.6486 118.393 99.166Z" fill="#FAFAFA"/>
<path d="M119.715 94.6083C119.101 94.5342 118.495 94.4063 117.904 94.226C117.299 94.0985 116.707 93.9163 116.135 93.6816C116.749 93.7538 117.355 93.8818 117.946 94.064C118.551 94.1902 119.143 94.3724 119.715 94.6083Z" fill="#FAFAFA"/>
<path d="M119.637 85.2109C119.993 85.627 120.318 86.0688 120.609 86.5329C120.942 86.9633 121.244 87.4182 121.509 87.8937C121.111 87.5178 120.762 87.092 120.473 86.6268C120.132 86.1941 119.851 85.718 119.637 85.2109Z" fill="#FAFAFA"/>
<path d="M116.639 84.7422C115.932 85.5082 115.143 86.1949 114.287 86.7899C114.62 86.387 114.996 86.0219 115.408 85.7012C115.783 85.3389 116.196 85.0174 116.639 84.7422Z" fill="#FAFAFA"/>
<path d="M119.009 79.827C117.915 78.9642 117.003 77.8926 116.326 76.6745C116.368 76.6486 116.9 77.4067 117.642 78.275C118.384 79.1434 119.045 79.7914 119.009 79.827Z" fill="#FAFAFA"/>
<path d="M127.297 78.3145C126.712 78.5834 126.103 78.8003 125.48 78.9625C124.873 79.1776 124.248 79.338 123.613 79.442C124.2 79.1755 124.808 78.9588 125.431 78.794C126.038 78.5795 126.662 78.419 127.297 78.3145Z" fill="#FAFAFA"/>
<path d="M115.629 70.4209C115.581 70.4209 115.603 69.6789 115.487 68.7782C115.37 67.8775 115.163 67.1582 115.221 67.1582C115.661 68.1893 115.802 69.3231 115.629 70.4306V70.4209Z" fill="#FAFAFA"/>
<path d="M108.254 93.9141C108.015 94.1213 107.761 94.3098 107.493 94.4778C107.013 94.8018 106.359 95.2846 105.659 95.8354C104.959 96.3862 104.343 96.9078 103.903 97.2901C103.675 97.5105 103.431 97.7141 103.174 97.8993C103.364 97.6447 103.582 97.4112 103.822 97.2027C104.373 96.6729 104.952 96.1722 105.555 95.7025C106.156 95.2299 106.78 94.7876 107.425 94.3774C107.686 94.1971 107.964 94.042 108.254 93.9141Z" fill="#FAFAFA"/>
<path d="M107.831 91.3152C107.789 91.3379 107.245 90.4922 106.49 89.504C105.735 88.5158 105.067 87.7642 105.103 87.7285C105.287 87.8538 105.452 88.0055 105.592 88.1789C105.957 88.5683 106.302 88.976 106.626 89.4004C107.002 89.8993 107.316 90.3724 107.526 90.7223C107.655 90.9047 107.758 91.1043 107.831 91.3152Z" fill="#FAFAFA"/>
<path d="M109.804 81.0742C108.802 81.7555 107.739 82.3423 106.629 82.8271C107.115 82.4639 107.633 82.1461 108.178 81.8777C108.693 81.5593 109.238 81.2903 109.804 81.0742Z" fill="#FAFAFA"/>
<path d="M107.85 76.6036C107.646 76.4842 107.46 76.337 107.296 76.1662C106.877 75.783 106.486 75.3693 106.127 74.9285C105.764 74.4885 105.434 74.0229 105.138 73.5353C105.002 73.3419 104.893 73.1303 104.814 72.9068C104.86 72.8809 105.414 73.801 106.253 74.8216C107.092 75.8422 107.892 76.5647 107.85 76.6036Z" fill="#FAFAFA"/>
<path d="M111.213 76.5085C111.36 76.0166 111.56 75.5419 111.809 75.0926C112.009 74.6187 112.26 74.1678 112.557 73.748C112.412 74.2406 112.212 74.7155 111.961 75.1639C111.763 75.6386 111.512 76.0896 111.213 76.5085Z" fill="#FAFAFA"/>
<path d="M110.316 71.3928C110.265 71.3928 110.316 70.3851 110.128 69.1701C109.941 67.9551 109.581 67.0155 109.629 66.9961C109.752 67.1816 109.845 67.3849 109.905 67.5987C110.084 68.1005 110.215 68.6179 110.297 69.1442C110.378 69.6705 110.411 70.2028 110.397 70.7351C110.406 70.9572 110.378 71.1793 110.316 71.3928Z" fill="#FAFAFA"/>
<path d="M111.132 97.199C111.11 96.8829 111.11 96.5657 111.132 96.2497C111.154 95.6665 111.17 94.8597 111.148 93.9817C111.125 93.1036 111.067 92.2871 111.018 91.7137C110.974 91.4003 110.955 91.084 110.96 90.7676C111.05 91.0721 111.109 91.3846 111.138 91.7007C111.239 92.4594 111.298 93.223 111.316 93.9881C111.337 94.7523 111.315 95.517 111.251 96.2788C111.244 96.5889 111.203 96.8973 111.132 97.199Z" fill="#FAFAFA"/>
<path d="M110.653 105.264C110.2 104.848 109.721 104.461 109.218 104.108C108.686 103.8 108.135 103.527 107.568 103.291C108.189 103.396 108.783 103.625 109.314 103.964C109.845 104.303 110.302 104.745 110.659 105.264H110.653Z" fill="#FAFAFA"/>
<path d="M114.696 110.254C113.982 110.719 113.238 111.135 112.47 111.501C111.728 111.918 110.958 112.284 110.166 112.596C110.881 112.134 111.624 111.719 112.392 111.352C113.134 110.935 113.904 110.568 114.696 110.254Z" fill="#FAFAFA"/>
<path d="M103.297 112.468C102.706 111.81 102.158 111.114 101.658 110.384C101.111 109.688 100.609 108.957 100.154 108.197C100.744 108.858 101.292 109.555 101.794 110.284C102.339 110.98 102.841 111.709 103.297 112.468Z" fill="#FAFAFA"/>
<path d="M99.7923 103.251C99.7364 103.035 99.7113 102.811 99.7178 102.587C99.7016 102.176 99.6951 101.615 99.7178 100.967C99.7405 100.319 99.8053 99.7717 99.8604 99.3472C99.8758 99.1263 99.9205 98.9084 99.9932 98.6992C100.042 98.6992 99.9446 99.7166 99.8863 100.967C99.828 102.218 99.8247 103.251 99.7923 103.251Z" fill="#FAFAFA"/>
<path d="M95.9743 118.982C95.3106 118.538 94.6783 118.049 94.0821 117.518C93.4505 117.029 92.8539 116.496 92.2969 115.924C92.9608 116.367 93.5931 116.857 94.189 117.388C94.8207 117.877 95.4173 118.41 95.9743 118.982Z" fill="#FAFAFA"/>
<path d="M98.2555 118.5C98.1508 117.657 98.1021 116.808 98.1097 115.959C98.0629 115.112 98.0716 114.262 98.1356 113.416C98.2403 114.259 98.289 115.107 98.2814 115.956C98.3282 116.804 98.3196 117.653 98.2555 118.5Z" fill="#FAFAFA"/>
<path d="M102.759 128.255C102.759 128.281 102.354 128.122 101.703 127.911C100.007 127.365 98.2282 127.123 96.4479 127.195C95.7643 127.221 95.3431 127.27 95.3398 127.24C95.4333 127.204 95.5315 127.181 95.6314 127.172C95.8194 127.137 96.098 127.104 96.4414 127.075C98.2376 126.939 100.042 127.187 101.736 127.801C101.993 127.894 102.245 128.002 102.491 128.125C102.586 128.154 102.677 128.198 102.759 128.255Z" fill="#FAFAFA"/>
<path d="M106.469 130.037C106.732 130.175 106.978 130.343 107.201 130.539C108.322 131.427 109.336 132.441 110.224 133.562C110.42 133.785 110.589 134.031 110.726 134.294C110.512 134.093 110.313 133.877 110.13 133.646C109.774 133.235 109.268 132.674 108.682 132.088C108.095 131.502 107.535 130.999 107.123 130.64C106.89 130.455 106.672 130.254 106.469 130.037Z" fill="#FAFAFA"/>
<path d="M108.087 113.157C107.758 112.551 107.478 111.919 107.248 111.268C106.968 110.64 106.74 109.99 106.564 109.324C106.893 109.931 107.174 110.562 107.404 111.213C107.683 111.842 107.912 112.492 108.087 113.157Z" fill="#FAFAFA"/>
<path d="M95.0708 80.3198C94.9328 80.5234 94.7658 80.7057 94.5751 80.8608C94.143 81.2626 93.6793 81.6288 93.1883 81.956C92.6967 82.2855 92.1787 82.5737 91.6396 82.8178C91.4226 82.9333 91.1902 83.0173 90.9495 83.0673C90.9301 83.0187 91.9571 82.578 93.0944 81.8166C94.2316 81.0552 95.0351 80.2809 95.0708 80.3198Z" fill="#FAFAFA"/>
<path d="M95.903 76.8856C95.8359 75.9223 95.8816 74.9546 96.0391 74.002C96.1061 74.9652 96.0605 75.9329 95.903 76.8856Z" fill="#FAFAFA"/>
<path d="M89.4402 79.7696C88.8598 79.5969 88.2968 79.3702 87.7587 79.0924C87.1942 78.8653 86.6519 78.5866 86.1387 78.2598C86.7185 78.4342 87.2813 78.6609 87.8202 78.9369C88.3847 79.1641 88.927 79.4428 89.4402 79.7696Z" fill="#FAFAFA"/>
<path d="M100.972 75.3752C100.934 74.7775 100.953 74.1777 101.027 73.5834C101.043 72.9848 101.116 72.389 101.247 71.8047C101.285 72.4023 101.268 73.002 101.196 73.5964C101.178 74.1951 101.103 74.7907 100.972 75.3752Z" fill="#FAFAFA"/>
<path d="M86.0054 86.6367C85.3491 86.4711 84.725 86.1973 84.1586 85.8267C83.5628 85.5035 83.0269 85.0805 82.5742 84.5761C82.6066 84.5372 83.2967 85.1171 84.2428 85.6841C85.1889 86.2511 86.0248 86.5881 86.0054 86.6367Z" fill="#FAFAFA"/>
<path d="M81.2 80.0435C80.7827 80.6186 80.3212 81.1602 79.8198 81.6635C79.3584 82.2089 78.8558 82.718 78.3164 83.1863C79.1937 82.0597 80.1579 81.0035 81.2 80.0273V80.0435Z" fill="#FAFAFA"/>
<path d="M80.7885 74.1372C80.2365 73.9506 79.7236 73.6639 79.2755 73.2915C78.7954 72.964 78.3774 72.5537 78.041 72.0798C78.0767 72.0441 78.621 72.5917 79.3791 73.1555C80.1373 73.7192 80.8112 74.0951 80.7885 74.1372Z" fill="#FAFAFA"/>
<path d="M77.7598 75.375C77.5763 75.7218 77.3439 76.0404 77.0697 76.3211C76.837 76.6377 76.561 76.9201 76.25 77.1602C76.6652 76.4959 77.1737 75.8947 77.7598 75.375Z" fill="#FAFAFA"/>
<path d="M84.2395 64.4102C83.8623 65.0022 83.4386 65.5634 82.9726 66.0885C82.5511 66.6508 82.084 67.1774 81.5762 67.6631C81.9538 67.0703 82.3773 66.508 82.843 65.9816C83.2661 65.4216 83.7331 64.8961 84.2395 64.4102Z" fill="#FAFAFA"/>
<path d="M78.6895 65.6578C78.1898 65.2143 77.7282 64.7299 77.3092 64.2095C76.8499 63.7267 76.4316 63.2065 76.0586 62.6543C76.5588 63.096 77.0205 63.5794 77.4388 64.0993C77.8984 64.5831 78.3167 65.1044 78.6895 65.6578Z" fill="#FAFAFA"/>
<path d="M81.4695 58.6206C81.0978 58.1404 80.7724 57.6262 80.4975 57.0848C80.1764 56.5704 79.9021 56.0282 79.6777 55.4648C80.0489 55.9465 80.3743 56.4617 80.6497 57.0038C80.9711 57.517 81.2454 58.0581 81.4695 58.6206Z" fill="#FAFAFA"/>
<path d="M81.3245 54.0813C81.2856 54.0489 81.7716 53.4333 82.1571 52.5618C82.5427 51.6902 82.682 50.9223 82.7339 50.9418C82.6532 52.1257 82.1536 53.2421 81.3245 54.091V54.0813Z" fill="#FAFAFA"/>
<path d="M75.9808 53.8126C75.9305 53.1277 76.0683 52.442 76.3794 51.8297C76.5805 51.3903 76.847 50.984 77.1699 50.6245C77.2935 50.4661 77.4464 50.3331 77.6203 50.2324C77.1997 50.7476 76.8348 51.3058 76.5316 51.8978C76.2799 52.5145 76.0952 53.1564 75.9808 53.8126Z" fill="#FAFAFA"/>
<path d="M122.696 46.106C122.547 44.763 122.53 43.4086 122.647 42.0624C122.768 40.7081 123.287 39.4197 124.137 38.3591C125.022 37.3353 126.383 36.6776 127.721 36.8493C128.55 36.9562 129.341 37.3644 130.167 37.3418C131.139 37.3126 131.972 36.7164 132.85 36.3179C134.234 35.6895 135.785 35.527 137.269 35.8546C138.052 36.0021 138.776 36.3683 139.359 36.9108C139.646 37.1846 139.859 37.5268 139.977 37.9055C140.096 38.2841 140.116 38.6866 140.036 39.0752C141.015 39.0322 141.996 39.1182 142.952 39.3311C143.91 39.547 144.746 40.1282 145.282 40.9511C145.764 41.7968 145.732 42.9729 145.039 43.6565C145.495 43.5954 145.958 43.7051 146.339 43.9647C146.719 44.2243 146.99 44.6153 147.099 45.0627C147.185 45.5154 147.14 45.9833 146.967 46.4106C146.795 46.838 146.503 47.2068 146.127 47.4732C145.221 48.028 144.148 48.2438 143.098 48.0824C142.197 47.9106 141.154 47.6579 140.431 47.1104" fill="#263238"/>
<path d="M121.993 76.6249C123.781 77.084 125.677 76.8178 127.269 75.8843C128.861 74.9509 130.02 73.4258 130.492 71.6418C131.039 69.565 131.487 67.8251 131.487 67.8251C131.487 67.8251 136.901 68.755 138.692 63.6131C140.484 58.4712 143.552 46.373 143.552 46.373C141.049 44.1341 137.993 42.6038 134.7 41.9403C131.407 41.2768 127.997 41.504 124.822 42.5984L123.85 42.9224L116.971 67.9774C116.722 68.875 116.655 69.8134 116.774 70.7374C116.892 71.6614 117.195 72.5524 117.662 73.358C118.13 74.1636 118.754 74.8676 119.498 75.4286C120.242 75.9896 121.09 76.3964 121.993 76.6249Z" fill="#B78876"/>
<path d="M131.518 67.7546C129.127 67.0014 127.015 65.5544 125.449 63.5977C125.449 63.5977 125.793 67.8323 131.084 69.1057L131.518 67.7546Z" fill="#AA6550"/>
<path d="M122.711 48.4893C122.637 48.4213 119.527 46.257 118.461 49.8145C117.395 53.372 121.182 53.7025 121.218 53.6085C121.253 53.5146 122.711 48.4893 122.711 48.4893Z" fill="#B78876"/>
<path d="M120.527 51.9337C120.527 51.9337 120.453 51.9596 120.333 51.9758C120.17 51.9893 120.008 51.9407 119.879 51.8398C119.555 51.5903 119.41 50.8969 119.585 50.2522C119.666 49.9442 119.815 49.6585 120.022 49.4162C120.09 49.3175 120.181 49.2366 120.287 49.1802C120.393 49.1239 120.511 49.0937 120.631 49.0922C120.71 49.0915 120.786 49.1193 120.846 49.1706C120.905 49.2218 120.944 49.293 120.955 49.3709C120.975 49.4843 120.929 49.5491 120.955 49.562C120.981 49.575 121.049 49.5232 121.062 49.3676C121.069 49.2746 121.044 49.182 120.991 49.1052C120.953 49.0527 120.904 49.0084 120.849 48.975C120.793 48.9416 120.731 48.9197 120.667 48.9108C120.512 48.8952 120.356 48.9198 120.213 48.9823C120.071 49.0447 119.947 49.1428 119.854 49.2672C119.609 49.5291 119.433 49.8474 119.342 50.1938C119.147 50.9164 119.312 51.6972 119.782 52.0018C119.87 52.0579 119.969 52.0937 120.072 52.1066C120.175 52.1195 120.28 52.1091 120.378 52.0763C120.505 52.018 120.547 51.9467 120.527 51.9337Z" fill="#AA6550"/>
<path d="M139.193 53.8005C139.13 53.9954 138.993 54.1575 138.811 54.2515C138.629 54.3455 138.417 54.364 138.221 54.3028C138.126 54.2787 138.035 54.2357 137.956 54.1763C137.877 54.1169 137.811 54.0423 137.761 53.9568C137.711 53.8714 137.679 53.7769 137.666 53.6788C137.654 53.5808 137.661 53.4812 137.687 53.3858C137.749 53.1941 137.884 53.0341 138.063 52.9398C138.241 52.8455 138.449 52.8242 138.643 52.8804C138.74 52.903 138.832 52.9451 138.913 53.004C138.994 53.063 139.062 53.1376 139.113 53.2235C139.165 53.3094 139.198 53.4047 139.212 53.5039C139.226 53.603 139.22 53.7039 139.193 53.8005Z" fill="#263238"/>
<path d="M140.153 53.301C140.03 53.3658 139.612 52.7697 138.822 52.504C138.031 52.2383 137.315 52.4424 137.263 52.3161C137.234 52.261 137.386 52.1184 137.701 52.018C138.125 51.8927 138.579 51.904 138.997 52.0504C139.409 52.1867 139.766 52.4513 140.017 52.8053C140.189 53.0742 140.212 53.2751 140.153 53.301Z" fill="#263238"/>
<path d="M131.417 51.1926C131.355 51.3844 131.22 51.5443 131.042 51.6386C130.863 51.7329 130.655 51.7542 130.462 51.698C130.366 51.674 130.276 51.631 130.197 51.5716C130.118 51.5121 130.051 51.4375 130.001 51.3521C129.952 51.2667 129.919 51.1722 129.907 51.0741C129.894 50.9761 129.901 50.8764 129.927 50.7811C129.989 50.5888 130.124 50.4284 130.302 50.334C130.481 50.2395 130.689 50.2186 130.883 50.2757C130.979 50.2998 131.069 50.3428 131.148 50.4022C131.227 50.4616 131.293 50.5362 131.343 50.6216C131.393 50.707 131.425 50.8015 131.438 50.8996C131.451 50.9977 131.444 51.0973 131.417 51.1926Z" fill="#263238"/>
<path d="M132.332 50.8396C132.209 50.9077 131.787 50.3083 130.997 50.0426C130.206 49.7769 129.494 49.981 129.438 49.8547C129.413 49.7996 129.562 49.657 129.879 49.5598C130.304 49.4344 130.757 49.4446 131.175 49.589C131.587 49.7264 131.946 49.9906 132.199 50.3439C132.364 50.6128 132.39 50.8137 132.332 50.8396Z" fill="#263238"/>
<path d="M133.233 57.6716C133.233 57.6262 133.764 57.704 134.593 57.8692C134.804 57.9178 135.008 57.9405 135.089 57.8142C135.176 57.6097 135.198 57.3837 135.154 57.1662C135.128 56.6121 135.102 56.0322 135.073 55.4263C134.979 52.9606 134.982 50.9583 135.073 50.9551C135.164 50.9518 135.329 52.9509 135.423 55.4166C135.442 56.0224 135.459 56.6024 135.475 57.1564C135.521 57.442 135.465 57.7347 135.316 57.9826C135.263 58.0441 135.197 58.0927 135.122 58.1247C135.047 58.1567 134.966 58.1713 134.885 58.1673C134.763 58.1612 134.642 58.1383 134.525 58.0993C133.719 57.8757 133.22 57.7137 133.233 57.6716Z" fill="#263238"/>
<path d="M130.72 57.436C130.85 57.4717 130.565 58.3303 131.096 59.1856C131.627 60.041 132.57 60.2548 132.538 60.3747C132.538 60.433 132.275 60.4751 131.89 60.3553C131.385 60.1937 130.953 59.8585 130.671 59.4092C130.399 58.979 130.306 58.459 130.412 57.9609C130.496 57.5915 130.662 57.4101 130.72 57.436Z" fill="#263238"/>
<path d="M140.328 51.8141C140.13 51.9469 139.647 51.5776 138.996 51.3475C138.345 51.1175 137.745 51.0624 137.681 50.8324C137.655 50.7222 137.804 50.5699 138.102 50.4824C138.496 50.3877 138.909 50.4122 139.29 50.553C139.67 50.6937 140 50.9444 140.237 51.273C140.405 51.5354 140.418 51.746 140.328 51.8141Z" fill="#263238"/>
<path d="M132.26 47.6276C132.14 47.6924 131.936 47.5855 131.706 47.4462C131.408 47.2684 131.096 47.1156 130.773 46.9893C130.445 46.8714 130.108 46.7825 129.765 46.7237C129.49 46.6686 129.276 46.6264 129.227 46.4968C129.179 46.3672 129.334 46.1728 129.684 46.0432C130.15 45.8962 130.652 45.9087 131.109 46.0789C131.567 46.2491 131.955 46.5672 132.211 46.9828C132.39 47.323 132.373 47.5758 132.26 47.6276Z" fill="#263238"/>
<path d="M143.283 48.0552C140.577 47.8978 137.992 46.882 135.903 45.1554C133.576 43.2503 130.663 41.9154 129.87 42.2913C129.076 42.6671 128.321 45.3369 125.541 45.5313C125.541 45.5313 124.55 50.7315 122.534 50.0673C120.519 49.4031 123.62 41.7178 123.62 41.7178L129.209 40.4023L134.934 40.6129L140.076 41.7793L144.524 44.3357L143.283 48.0552Z" fill="#263238"/>
<path d="M114.414 27.6602H41.666V140.944H114.414V27.6602Z" fill="#FAFAFA"/>
<path d="M114.414 140.94C114.414 140.243 114.382 94.2353 114.336 27.6565L114.414 27.7343H41.676L41.7635 27.65C41.7635 70.5087 41.7635 109.972 41.7441 140.933L41.676 140.865L114.424 140.933L41.676 140.998H41.6112V140.94C41.6112 109.978 41.6112 70.5152 41.5918 27.6565V27.5723H41.6858H114.424H114.502V27.65C114.446 94.2385 114.414 140.247 114.414 140.94Z" fill="#263238"/>
<path d="M61.1644 52.8856H51.8559C51.5471 52.8856 51.2509 52.7632 51.0322 52.5451C50.8136 52.3271 50.6903 52.0313 50.6895 51.7225V38.837C50.6903 38.5282 50.8136 38.2324 51.0322 38.0143C51.2509 37.7963 51.5471 37.6738 51.8559 37.6738H57.7591L62.3275 42.3815V51.7225C62.3275 52.031 62.205 52.3268 61.9869 52.5449C61.7687 52.7631 61.4729 52.8856 61.1644 52.8856Z" fill="#3F8EFC"/>
<path d="M57.7598 37.6738V41.2994C57.7606 41.5861 57.8749 41.8609 58.0777 42.0636C58.2804 42.2664 58.5552 42.3807 58.8419 42.3815H62.3282L57.7598 37.6738Z" fill="#3F8EFC"/>
<g opacity="0.2">
<path d="M57.8086 41.6172C57.81 41.8916 57.9053 42.1573 58.0786 42.37C58.2519 42.5828 58.4927 42.7299 58.7612 42.7868L58.8778 42.8127C59.3314 42.8937 62.3284 43.4251 62.3284 43.3571V42.3851H58.8422C58.8422 42.3851 57.9738 42.3527 57.8086 41.6172Z" fill="#2E2E2E"/>
</g>
<g opacity="0.3">
<path d="M57.7598 37.6738V41.2994C57.7606 41.5861 57.8749 41.8609 58.0777 42.0636C58.2804 42.2664 58.5552 42.3807 58.8419 42.3815H62.3282L57.7598 37.6738Z" fill="white"/>
</g>
<path d="M56.9778 41.147C56.2629 41.2303 55.5425 41.2585 54.8232 41.2313C54.105 41.2586 53.3858 41.2304 52.6719 41.147C53.3858 41.0637 54.105 41.0355 54.8232 41.0628C55.5425 41.0356 56.2629 41.0638 56.9778 41.147Z" fill="#FAFAFA"/>
<path d="M59.7578 43.2014C59.7578 43.2468 58.1734 43.2857 56.2164 43.2857C54.2595 43.2857 52.6719 43.2468 52.6719 43.2014C52.6719 43.1561 54.2595 43.1172 56.2164 43.1172C58.1734 43.1172 59.7578 43.1528 59.7578 43.2014Z" fill="#FAFAFA"/>
<path d="M60.396 44.9124C60.396 44.961 58.6691 44.9966 56.534 44.9966C54.3988 44.9966 52.6719 44.961 52.6719 44.9124C52.6719 44.8638 54.402 44.8281 56.534 44.8281C58.6659 44.8281 60.396 44.867 60.396 44.9124Z" fill="#FAFAFA"/>
<path d="M60.396 46.5296C60.396 46.5749 58.6691 46.6138 56.534 46.6138C54.3988 46.6138 52.6719 46.5749 52.6719 46.5296C52.6719 46.4842 54.402 46.4453 56.534 46.4453C58.6659 46.4453 60.396 46.481 60.396 46.5296Z" fill="#FAFAFA"/>
<path d="M60.396 48.1428C60.396 48.1914 58.6691 48.2271 56.534 48.2271C54.3988 48.2271 52.6719 48.1914 52.6719 48.1428C52.6719 48.0942 54.402 48.0586 56.534 48.0586C58.6659 48.0586 60.396 48.0975 60.396 48.1428Z" fill="#FAFAFA"/>
<path d="M60.396 49.76C60.396 49.8054 58.6691 49.8443 56.534 49.8443C54.3988 49.8443 52.6719 49.8054 52.6719 49.76C52.6719 49.7147 54.402 49.6758 56.534 49.6758C58.6659 49.6758 60.396 49.7114 60.396 49.76Z" fill="#FAFAFA"/>
<path d="M65.5833 44.2939H64.6113V43.9375H66.9798V44.2939H66.0078V46.8017H65.6028L65.5833 44.2939Z" fill="#263238"/>
<path d="M69.4948 46.4453V46.8017H67.418V43.9375H69.4365V44.2939H67.8165V45.1719H69.2518V45.5219H67.8165V46.4453H69.4948Z" fill="#263238"/>
<path d="M72.0711 46.8016L71.4523 45.9203C71.3929 45.9237 71.3334 45.9237 71.274 45.9203H70.5677V46.7919H70.1562V43.9277H71.2805C72.0257 43.9277 72.4728 44.3036 72.4728 44.9257C72.4828 45.1246 72.4265 45.3213 72.3128 45.4849C72.199 45.6484 72.0343 45.7697 71.8443 45.8296L72.5247 46.8016H72.0711ZM72.0711 44.9354C72.0711 44.5271 71.7989 44.2874 71.274 44.2874H70.5677V45.5834H71.2611C71.786 45.5834 72.0581 45.3598 72.0581 44.9354H72.0711Z" fill="#263238"/>
<path d="M75.7831 46.801V44.7112L74.7463 46.4478H74.5584L73.5248 44.7241V46.7978H73.1328V43.9336H73.4568L74.6491 45.9456L75.8253 43.9336H76.1493V46.7978L75.7831 46.801Z" fill="#263238"/>
<path d="M76.7871 46.4752L76.9362 46.1512C77.2039 46.3666 77.5387 46.4813 77.8822 46.4752C78.378 46.4752 78.5885 46.2808 78.5885 46.0313C78.5885 45.3315 76.8552 45.7753 76.8552 44.7126C76.8552 44.2687 77.1986 43.8929 77.9503 43.8929C78.2754 43.8865 78.5953 43.9755 78.8704 44.1489L78.7376 44.4729C78.502 44.3236 78.2291 44.2438 77.9503 44.2428C77.4643 44.2428 77.2569 44.4469 77.2569 44.6964C77.2569 45.393 78.9903 44.9556 78.9903 45.9924C78.9903 46.4298 78.6372 46.8057 77.8822 46.8057C77.49 46.825 77.1032 46.7082 76.7871 46.4752Z" fill="#263238"/>
<path d="M80.4425 45.3604C80.4309 45.057 80.5102 44.7571 80.6703 44.4991C80.8304 44.2411 81.064 44.0369 81.341 43.9127C81.6181 43.7884 81.9259 43.7498 82.225 43.8018C82.5242 43.8538 82.8009 43.994 83.0198 44.2045C83.2386 44.415 83.3895 44.686 83.4532 44.9829C83.5168 45.2798 83.4903 45.5889 83.3769 45.8706C83.2636 46.1522 83.0686 46.3936 82.8171 46.5636C82.5656 46.7337 82.2689 46.8247 81.9653 46.8249C81.7678 46.8342 81.5705 46.803 81.3854 46.7335C81.2003 46.6639 81.0314 46.5573 80.8888 46.4203C80.7463 46.2832 80.6332 46.1186 80.5565 45.9363C80.4798 45.7541 80.441 45.5581 80.4425 45.3604ZM83.0734 45.3604C83.0753 45.1401 83.0117 44.9241 82.8906 44.74C82.7696 44.5559 82.5965 44.412 82.3934 44.3265C82.1903 44.241 81.9664 44.2178 81.7501 44.2598C81.5338 44.3018 81.3349 44.4072 81.1786 44.5626C81.0223 44.7179 80.9158 44.9162 80.8725 45.1323C80.8292 45.3483 80.8511 45.5724 80.9354 45.776C81.0197 45.9795 81.1626 46.1535 81.346 46.2756C81.5294 46.3978 81.745 46.4627 81.9653 46.462C82.1116 46.4669 82.2574 46.4419 82.3936 46.3883C82.5298 46.3348 82.6537 46.2539 82.7575 46.1507C82.8613 46.0475 82.9429 45.9242 82.9972 45.7883C83.0515 45.6523 83.0775 45.5067 83.0734 45.3604Z" fill="#263238"/>
<path d="M84.5176 44.2939V45.2918H85.9529V45.645H84.5176V46.8017H84.1094V43.9375H86.1279V44.2939H84.5176Z" fill="#263238"/>
<path d="M87.5449 46.4751L87.6972 46.1511C87.9639 46.3661 88.2975 46.4807 88.64 46.4751C89.1358 46.4751 89.3496 46.2807 89.3496 46.0312C89.3496 45.3314 87.6162 45.7753 87.6162 44.7126C87.6162 44.2687 87.9596 43.8928 88.7113 43.8928C89.0364 43.8871 89.3561 43.976 89.6315 44.1488L89.4954 44.4728C89.2609 44.3239 88.9891 44.2442 88.7113 44.2428C88.2253 44.2428 88.0147 44.4469 88.0147 44.6964C88.0147 45.393 89.7481 44.9556 89.7481 45.9924C89.7481 46.4298 89.3982 46.8056 88.64 46.8056C88.2479 46.8244 87.8612 46.7077 87.5449 46.4751Z" fill="#263238"/>
<path d="M92.4245 46.4453V46.8017H90.3477V43.9375H92.3662V44.2939H90.7462V45.1719H92.1815V45.5219H90.7462V46.4453H92.4245Z" fill="#263238"/>
<path d="M94.9995 46.8016L94.3839 45.9203C94.3235 45.9236 94.2629 45.9236 94.2025 45.9203H93.4961V46.7919H93.0879V43.9277H94.2025C94.9477 43.9277 95.398 44.3036 95.398 44.9257C95.4078 45.125 95.351 45.322 95.2366 45.4856C95.1223 45.6493 94.9568 45.7703 94.7662 45.8296L95.4466 46.8016H94.9995ZM94.9995 44.9354C94.9995 44.5271 94.7273 44.2874 94.2025 44.2874H93.5091V45.5834H94.2025C94.7144 45.5834 94.9865 45.3598 94.9865 44.9354H94.9995Z" fill="#263238"/>
<path d="M98.5442 43.9375L97.2903 46.8017H96.8756L95.6152 43.9375H96.0591L97.0894 46.2897L98.1262 43.9375H98.5442Z" fill="#263238"/>
<path d="M98.9102 43.9375H99.3184V46.8017H98.9102V43.9375Z" fill="#263238"/>
<path d="M99.9437 45.3606C99.9413 45.1632 99.9792 44.9674 100.055 44.7852C100.131 44.603 100.244 44.4382 100.386 44.3011C100.528 44.1639 100.696 44.0572 100.881 43.9876C101.066 43.918 101.263 43.8868 101.46 43.8961C101.663 43.888 101.865 43.9238 102.053 44.0009C102.241 44.0781 102.41 44.1949 102.549 44.3433L102.283 44.5992C102.179 44.4911 102.054 44.4062 101.914 44.3504C101.775 44.2945 101.626 44.2689 101.476 44.2752C101.294 44.276 101.114 44.322 100.954 44.4091C100.794 44.4963 100.658 44.6219 100.558 44.7746C100.459 44.9273 100.398 45.1024 100.383 45.2841C100.368 45.4659 100.398 45.6486 100.47 45.8159C100.543 45.9831 100.656 46.1297 100.799 46.2425C100.943 46.3553 101.112 46.4307 101.292 46.4621C101.471 46.4934 101.656 46.4796 101.829 46.4219C102.002 46.3643 102.158 46.2646 102.283 46.1317L102.549 46.3877C102.41 46.5368 102.24 46.6542 102.052 46.7319C101.863 46.8096 101.66 46.8458 101.457 46.8381C101.259 46.847 101.061 46.8151 100.876 46.7445C100.69 46.6739 100.522 46.566 100.38 46.4275C100.238 46.289 100.126 46.1228 100.051 45.9393C99.976 45.7558 99.9395 45.5588 99.9437 45.3606Z" fill="#263238"/>
<path d="M105.212 46.4453V46.8017H103.135V43.9375H105.153V44.2939H103.533V45.1719H104.975V45.5219H103.54V46.4453H105.212Z" fill="#263238"/>
<path d="M68.1524 49.7402L67.3877 52.0082H67.0475L66.4189 50.2003L65.7936 52.0212H65.4469L64.6855 49.7532H65.0095L65.6251 51.6097L66.2731 49.7532H66.5745L67.203 51.6194L67.8316 49.7532L68.1524 49.7402Z" fill="#E0E0E0"/>
<path d="M69.9296 51.2626H68.5266C68.5476 51.4109 68.6243 51.5457 68.741 51.6396C68.8577 51.7334 69.0058 51.7794 69.1552 51.768C69.2479 51.7709 69.3401 51.7539 69.4256 51.7181C69.5111 51.6824 69.5879 51.6287 69.6509 51.5607L69.8259 51.7615C69.7391 51.855 69.633 51.9284 69.5149 51.9765C69.3968 52.0246 69.2696 52.0464 69.1422 52.0402C69.0221 52.0493 68.9013 52.0331 68.7878 51.9926C68.6743 51.9522 68.5706 51.8884 68.4832 51.8053C68.3959 51.7223 68.327 51.6218 68.2809 51.5105C68.2348 51.3991 68.2125 51.2794 68.2156 51.1589C68.2107 51.0432 68.2296 50.9278 68.2711 50.8197C68.3126 50.7116 68.3759 50.6133 68.457 50.5306C68.5381 50.448 68.6353 50.3829 68.7426 50.3394C68.8499 50.2959 68.9649 50.2748 69.0807 50.2776C69.1969 50.2747 69.3124 50.296 69.4199 50.3402C69.5274 50.3844 69.6245 50.4505 69.705 50.5344C69.7855 50.6182 69.8476 50.7179 69.8874 50.8271C69.9272 50.9363 69.9437 51.0526 69.936 51.1686C69.936 51.1913 69.9328 51.2334 69.9296 51.2626ZM68.5266 51.039H69.6347C69.6199 50.9024 69.5552 50.7761 69.4529 50.6843C69.3507 50.5925 69.2181 50.5417 69.0807 50.5417C68.9433 50.5417 68.8107 50.5925 68.7085 50.6843C68.6062 50.7761 68.5414 50.9024 68.5266 51.039Z" fill="#E0E0E0"/>
<path d="M70.3691 49.6035H70.6931V52.0206H70.3691V49.6035Z" fill="#E0E0E0"/>
<path d="M71.1174 51.16C71.1149 51.0408 71.1372 50.9225 71.1827 50.8123C71.2282 50.7021 71.2959 50.6025 71.3817 50.5198C71.4675 50.437 71.5695 50.3729 71.6812 50.3314C71.7929 50.2899 71.912 50.272 72.031 50.2787C72.1707 50.2711 72.3098 50.3014 72.4335 50.3664C72.5573 50.4314 72.6612 50.5288 72.7341 50.6481L72.4944 50.8004C72.4445 50.7225 72.3754 50.6588 72.2936 50.6157C72.2118 50.5725 72.1202 50.5513 72.0278 50.5541C71.8744 50.5653 71.7308 50.6342 71.6261 50.7469C71.5213 50.8596 71.4631 51.0078 71.4631 51.1616C71.4631 51.3155 71.5213 51.4636 71.6261 51.5763C71.7308 51.689 71.8744 51.7579 72.0278 51.7691C72.1202 51.7719 72.2118 51.7507 72.2936 51.7076C72.3754 51.6644 72.4445 51.6008 72.4944 51.5229L72.7341 51.6719C72.6612 51.7912 72.5573 51.8886 72.4335 51.9536C72.3098 52.0186 72.1707 52.0489 72.031 52.0413C71.912 52.048 71.7929 52.0301 71.6812 51.9886C71.5695 51.9471 71.4675 51.883 71.3817 51.8002C71.2959 51.7175 71.2282 51.6179 71.1827 51.5077C71.1372 51.3976 71.1149 51.2792 71.1174 51.16Z" fill="#E0E0E0"/>
<path d="M72.9514 51.1598C72.9482 50.9817 72.998 50.8068 73.0945 50.6572C73.191 50.5075 73.3298 50.39 73.4933 50.3195C73.6568 50.249 73.8376 50.2287 74.0126 50.2612C74.1877 50.2937 74.3491 50.3776 74.4764 50.5021C74.6037 50.6266 74.691 50.7862 74.7273 50.9605C74.7637 51.1348 74.7473 51.3159 74.6804 51.4809C74.6135 51.6459 74.499 51.7873 74.3515 51.887C74.204 51.9868 74.0302 52.0404 73.8521 52.041C73.7341 52.0464 73.6162 52.0274 73.5057 51.9853C73.3953 51.9432 73.2948 51.8788 73.2103 51.7961C73.1258 51.7135 73.0592 51.6143 73.0147 51.5049C72.9702 51.3954 72.9486 51.2779 72.9514 51.1598ZM74.4321 51.1598C74.427 51.0455 74.3884 50.9353 74.3212 50.8428C74.254 50.7503 74.161 50.6796 74.0539 50.6395C73.9468 50.5994 73.8303 50.5917 73.7189 50.6173C73.6074 50.6429 73.506 50.7007 73.4271 50.7835C73.3482 50.8664 73.2955 50.9705 73.2754 51.0831C73.2552 51.1957 73.2687 51.3117 73.314 51.4167C73.3593 51.5217 73.4344 51.6111 73.5301 51.6737C73.6258 51.7363 73.7378 51.7694 73.8521 51.7689C73.9314 51.7709 74.0101 51.7563 74.0834 51.726C74.1566 51.6957 74.2227 51.6504 74.2773 51.5931C74.332 51.5357 74.374 51.4674 74.4006 51.3928C74.4273 51.3182 74.438 51.2388 74.4321 51.1598Z" fill="#E0E0E0"/>
<path d="M78.0476 51.0296V52.0211H77.7236V51.0653C77.7236 50.7251 77.5583 50.5598 77.2765 50.5598C76.9946 50.5598 76.7581 50.7575 76.7581 51.1333V52.0211H76.4341V51.0653C76.4341 50.7251 76.2688 50.5598 75.9869 50.5598C75.7051 50.5598 75.4685 50.7575 75.4685 51.1333V52.0211H75.1445V50.2941H75.4912V50.5533C75.5607 50.4624 75.6513 50.3898 75.7552 50.3418C75.8591 50.2938 75.9731 50.2719 76.0874 50.2779C76.2075 50.271 76.3272 50.2976 76.4331 50.3548C76.539 50.412 76.6268 50.4976 76.6868 50.6019C76.7621 50.4973 76.8622 50.4129 76.9781 50.3564C77.094 50.2998 77.2221 50.2729 77.351 50.2779C77.4495 50.2692 77.5488 50.2831 77.6411 50.3186C77.7334 50.3542 77.8164 50.4104 77.8836 50.4829C77.9509 50.5555 78.0006 50.6425 78.029 50.7373C78.0574 50.832 78.0638 50.932 78.0476 51.0296Z" fill="#E0E0E0"/>
<path d="M80.1892 51.2626H78.7895C78.8089 51.411 78.8847 51.5462 79.0011 51.6403C79.1175 51.7344 79.2656 51.7801 79.4148 51.768C79.508 51.7714 79.6008 51.7546 79.6869 51.7188C79.773 51.683 79.8504 51.6291 79.9138 51.5607L80.0855 51.7615C79.9581 51.8936 79.7949 51.9856 79.616 52.0263C79.4371 52.067 79.2501 52.0546 79.0782 51.9906C78.9062 51.9267 78.7566 51.8139 78.6478 51.6662C78.5389 51.5184 78.4756 51.3421 78.4655 51.1589C78.461 51.0431 78.4803 50.9276 78.5222 50.8195C78.5641 50.7114 78.6277 50.613 78.709 50.5305C78.7904 50.4479 78.8878 50.3829 78.9952 50.3394C79.1027 50.2959 79.2179 50.2749 79.3338 50.2776C79.4499 50.2746 79.5653 50.2959 79.6726 50.3402C79.7799 50.3844 79.8768 50.4506 79.9571 50.5345C80.0373 50.6184 80.0991 50.7182 80.1385 50.8274C80.1779 50.9366 80.1941 51.0528 80.1859 51.1686C80.1956 51.1913 80.1924 51.2334 80.1892 51.2626ZM78.7895 51.039H79.8976C79.8828 50.9024 79.818 50.7761 79.7158 50.6843C79.6135 50.5925 79.4809 50.5418 79.3435 50.5418C79.2061 50.5418 79.0735 50.5925 78.9713 50.6843C78.869 50.7761 78.8043 50.9024 78.7895 51.039Z" fill="#E0E0E0"/>
<path d="M80.5586 51.8391C80.5586 51.8114 80.5641 51.7838 80.575 51.7583C80.5858 51.7327 80.6017 51.7095 80.6216 51.6902C80.6415 51.6708 80.6652 51.6557 80.6911 51.6457C80.717 51.6356 80.7447 51.6309 80.7724 51.6318C80.8274 51.6318 80.8802 51.6536 80.9191 51.6925C80.9579 51.7314 80.9798 51.7841 80.9798 51.8391C80.9798 51.8941 80.9579 51.9469 80.9191 51.9858C80.8802 52.0246 80.8274 52.0465 80.7724 52.0465C80.7447 52.0474 80.717 52.0426 80.6911 52.0326C80.6652 52.0226 80.6415 52.0074 80.6216 51.9881C80.6017 51.9688 80.5858 51.9456 80.575 51.92C80.5641 51.8944 80.5586 51.8669 80.5586 51.8391ZM80.5878 49.7461H80.9571L80.8956 51.3078H80.6461L80.5878 49.7461Z" fill="#E0E0E0"/>
<path d="M109.745 34.6328H109.363C109.125 34.6328 108.932 34.8257 108.932 35.0637V129.319C108.932 129.557 109.125 129.749 109.363 129.749H109.745C109.983 129.749 110.176 129.557 110.176 129.319V35.0637C110.176 34.8257 109.983 34.6328 109.745 34.6328Z" fill="#E0E0E0"/>
<path d="M109.745 34.6328H109.363C109.125 34.6328 108.932 34.8257 108.932 35.0637V83.2393C108.932 83.4773 109.125 83.6702 109.363 83.6702H109.745C109.983 83.6702 110.176 83.4773 110.176 83.2393V35.0637C110.176 34.8257 109.983 34.6328 109.745 34.6328Z" fill="#3F8EFC"/>
<path d="M53.054 63.0234V65.2914H52.73V63.3086H52.2148V63.0234H53.054Z" fill="#263238"/>
<path d="M53.547 65.1018C53.5476 65.0584 53.5611 65.0161 53.5857 64.9803C53.6103 64.9445 53.6449 64.9168 53.6852 64.9006C53.7255 64.8844 53.7697 64.8805 53.8122 64.8894C53.8547 64.8983 53.8937 64.9195 53.9242 64.9504C53.9547 64.9814 53.9753 65.0206 53.9836 65.0633C53.9918 65.1059 53.9873 65.1501 53.9705 65.1901C53.9537 65.2302 53.9255 65.2644 53.8893 65.2885C53.8532 65.3126 53.8107 65.3254 53.7673 65.3254C53.738 65.3259 53.7088 65.3204 53.6817 65.3092C53.6545 65.2981 53.6299 65.2816 53.6093 65.2607C53.5887 65.2398 53.5726 65.215 53.5619 65.1877C53.5512 65.1604 53.5461 65.1312 53.547 65.1018Z" fill="#263238"/>
<path d="M55.8095 63.3086H55.0254V63.0234H56.9143V63.3086H56.1302V65.3044H55.8062L55.8095 63.3086Z" fill="#263238"/>
<path d="M58.5988 64.5477H57.1959C57.2161 64.6958 57.292 64.8306 57.4083 64.9245C57.5245 65.0184 57.6722 65.0645 57.8212 65.0532C57.9146 65.0561 58.0076 65.0389 58.0937 65.0025C58.1798 64.9661 58.2571 64.9116 58.3201 64.8426L58.4919 65.0467C58.3651 65.1802 58.2018 65.2736 58.0225 65.3152C57.8431 65.3567 57.6554 65.3446 57.4828 65.2804C57.3102 65.2162 57.1603 65.1027 57.0517 64.954C56.9431 64.8053 56.8805 64.628 56.8719 64.4441C56.8669 64.3284 56.8858 64.2129 56.9274 64.1049C56.9689 63.9968 57.0322 63.8984 57.1133 63.8158C57.1944 63.7332 57.2916 63.6681 57.3988 63.6246C57.5061 63.581 57.6212 63.56 57.7369 63.5628C57.8531 63.5598 57.9687 63.5811 58.0762 63.6253C58.1836 63.6695 58.2807 63.7357 58.3612 63.8195C58.4417 63.9034 58.5038 64.0031 58.5436 64.1123C58.5834 64.2215 58.6 64.3378 58.5923 64.4538C58.6053 64.4765 58.602 64.5186 58.5988 64.5477ZM57.1959 64.3209H58.3201C58.3053 64.1843 58.2406 64.058 58.1383 63.9662C58.0361 63.8744 57.9035 63.8237 57.7661 63.8237C57.6287 63.8237 57.4961 63.8744 57.3939 63.9662C57.2916 64.058 57.2269 64.1843 57.2121 64.3209H57.1959Z" fill="#263238"/>
<path d="M59.965 63.5622V63.8668H59.8937C59.8175 63.8617 59.7412 63.8737 59.6702 63.9018C59.5992 63.93 59.5354 63.9735 59.4833 64.0293C59.4312 64.0851 59.3922 64.1518 59.369 64.2246C59.3458 64.2973 59.3391 64.3743 59.3494 64.45V65.3086H59.0254V63.5816H59.3235V63.8732C59.3883 63.7643 59.4836 63.6768 59.5976 63.6216C59.7116 63.5663 59.8394 63.5456 59.965 63.5622Z" fill="#263238"/>
<path d="M63.2182 64.3103V65.3049H62.8942V64.3329C62.8942 64.0089 62.7322 63.8307 62.447 63.8307C62.1619 63.8307 61.9319 64.0284 61.9319 64.4042V65.292H61.6079V64.32C61.6079 63.996 61.4459 63.8178 61.1608 63.8178C61.087 63.8146 61.0135 63.8278 60.9454 63.8563C60.8773 63.8848 60.8164 63.928 60.7669 63.9827C60.7174 64.0375 60.6805 64.1025 60.659 64.1731C60.6375 64.2437 60.6318 64.3182 60.6424 64.3913V65.279H60.3184V63.5521H60.6164V63.8113C60.6857 63.7201 60.7763 63.6473 60.8802 63.5993C60.9842 63.5513 61.0983 63.5295 61.2126 63.5359C61.3327 63.5289 61.4525 63.5555 61.5583 63.6128C61.6642 63.67 61.752 63.7556 61.812 63.8599C61.8877 63.7548 61.9883 63.6701 62.1048 63.6136C62.2213 63.557 62.35 63.5303 62.4794 63.5359C62.5835 63.5188 62.6901 63.5274 62.7901 63.5609C62.8901 63.5944 62.9804 63.6518 63.0532 63.7281C63.126 63.8044 63.1791 63.8973 63.2078 63.9987C63.2366 64.1002 63.2401 64.2071 63.2182 64.3103Z" fill="#263238"/>
<path d="M53.9497 100.413V100.695H52.3297V100.475L53.2564 99.5772C53.4994 99.3439 53.5447 99.2013 53.5447 99.0555C53.5447 98.8222 53.3762 98.6797 53.0587 98.6797C52.9491 98.6733 52.8395 98.6922 52.7384 98.7349C52.6373 98.7775 52.5473 98.8429 52.4755 98.9259L52.252 98.7348C52.3568 98.6185 52.4862 98.527 52.6308 98.467C52.7754 98.4071 52.9315 98.3801 53.0879 98.3881C53.5642 98.3881 53.8687 98.6343 53.8687 99.0361C53.8651 99.1759 53.8297 99.3131 53.7651 99.4371C53.7006 99.5612 53.6086 99.6689 53.4961 99.7521L52.7963 100.426L53.9497 100.413Z" fill="#263238"/>
<path d="M54.2442 100.491C54.2434 100.462 54.2484 100.433 54.2592 100.405C54.2699 100.378 54.286 100.353 54.3066 100.332C54.3272 100.311 54.3518 100.295 54.379 100.284C54.4061 100.273 54.4352 100.267 54.4646 100.268C54.5239 100.268 54.5807 100.291 54.6226 100.333C54.6646 100.375 54.6881 100.432 54.6881 100.491C54.6881 100.55 54.6646 100.607 54.6226 100.649C54.5807 100.691 54.5239 100.715 54.4646 100.715C54.4354 100.715 54.4064 100.709 54.3795 100.698C54.3525 100.686 54.3281 100.67 54.3076 100.649C54.2871 100.628 54.2709 100.604 54.2601 100.576C54.2492 100.549 54.2438 100.52 54.2442 100.491Z" fill="#263238"/>
<path d="M56.0527 98.4141H56.3767V100.413H57.6112V100.695H56.0527V98.4141Z" fill="#263238"/>
<path d="M57.8887 98.4347C57.8887 98.4073 57.8941 98.3803 57.9048 98.3551C57.9155 98.3299 57.9311 98.3071 57.9507 98.288C57.9704 98.269 57.9937 98.2541 58.0192 98.2442C58.0447 98.2343 58.0719 98.2297 58.0993 98.2306C58.1393 98.2318 58.1782 98.2449 58.2109 98.2681C58.2436 98.2913 58.2687 98.3236 58.2832 98.361C58.2976 98.3984 58.3008 98.4392 58.2922 98.4783C58.2836 98.5175 58.2636 98.5533 58.2349 98.5812C58.2061 98.6091 58.1697 98.6279 58.1303 98.6352C58.0909 98.6426 58.0502 98.6382 58.0133 98.6226C57.9763 98.607 57.9448 98.5808 57.9227 98.5474C57.9005 98.514 57.8887 98.4748 57.8887 98.4347ZM57.9438 98.9693H58.2678V100.696H57.9438V98.9693Z" fill="#263238"/>
<path d="M58.6916 99.8339C58.6892 99.715 58.7113 99.5969 58.7566 99.487C58.8019 99.377 58.8694 99.2776 58.9548 99.1949C59.0403 99.1122 59.1418 99.048 59.2532 99.0063C59.3645 98.9647 59.4833 98.9464 59.602 98.9526C59.7422 98.944 59.8821 98.9739 60.0066 99.039C60.1311 99.1041 60.2354 99.2019 60.3083 99.322L60.0686 99.4743C60.0187 99.3964 59.9496 99.3327 59.8678 99.2896C59.786 99.2464 59.6944 99.2252 59.602 99.228C59.4486 99.2392 59.305 99.3081 59.2003 99.4208C59.0955 99.5335 59.0373 99.6817 59.0373 99.8355C59.0373 99.9894 59.0955 100.138 59.2003 100.25C59.305 100.363 59.4486 100.432 59.602 100.443C59.6947 100.445 59.7864 100.423 59.8681 100.38C59.9498 100.336 60.0189 100.272 60.0686 100.194L60.3083 100.343C60.2356 100.463 60.1314 100.561 60.0069 100.627C59.8825 100.693 59.7425 100.723 59.602 100.715C59.4833 100.721 59.3645 100.703 59.2532 100.661C59.1418 100.62 59.0403 100.556 58.9548 100.473C58.8694 100.39 58.8019 100.291 58.7566 100.181C58.7113 100.071 58.6892 99.9528 58.6916 99.8339Z" fill="#263238"/>
<path d="M62.2399 99.9384H60.8403C60.8605 100.086 60.9364 100.221 61.0527 100.315C61.1689 100.409 61.3166 100.455 61.4656 100.444C61.559 100.447 61.652 100.429 61.7381 100.393C61.8242 100.357 61.9015 100.302 61.9645 100.233L62.1363 100.437C62.0089 100.569 61.8457 100.661 61.6668 100.702C61.4878 100.743 61.3009 100.73 61.1289 100.666C60.9569 100.602 60.8074 100.49 60.6985 100.342C60.5897 100.194 60.5264 100.018 60.5163 99.8347C60.5118 99.7189 60.5311 99.6033 60.573 99.4953C60.6149 99.3872 60.6785 99.2888 60.7598 99.2063C60.8412 99.1237 60.9386 99.0587 61.046 99.0152C61.1535 98.9717 61.2687 98.9507 61.3846 98.9534C61.5006 98.9504 61.616 98.9717 61.7234 99.0159C61.8307 99.0602 61.9276 99.1264 62.0079 99.2103C62.0881 99.2942 62.1499 99.3939 62.1893 99.5031C62.2287 99.6124 62.2449 99.7286 62.2367 99.8444C62.2464 99.8703 62.2432 99.9092 62.2399 99.9384ZM60.8403 99.7116H61.9483C61.9335 99.575 61.8688 99.4486 61.7665 99.3568C61.6643 99.2651 61.5317 99.2143 61.3943 99.2143C61.2569 99.2143 61.1243 99.2651 61.0221 99.3568C60.9198 99.4486 60.855 99.575 60.8403 99.7116Z" fill="#263238"/>
<path d="M64.321 99.7012V100.696H63.997V99.7239C63.997 99.3999 63.8285 99.2217 63.5337 99.2217C63.458 99.2158 63.382 99.2269 63.3111 99.254C63.2402 99.2811 63.1763 99.3237 63.1239 99.3786C63.0715 99.4335 63.0319 99.4993 63.0081 99.5714C62.9843 99.6434 62.9768 99.7199 62.9861 99.7952V100.683H62.6621V98.956H62.9634V99.2152C63.0375 99.1228 63.1326 99.0496 63.2409 99.0016C63.3491 98.9537 63.4673 98.9325 63.5855 98.9398C63.6872 98.9283 63.7901 98.9403 63.8864 98.9748C63.9827 99.0094 64.0698 99.0657 64.1409 99.1393C64.212 99.2129 64.2652 99.3018 64.2964 99.3993C64.3276 99.4967 64.3361 99.6 64.321 99.7012Z" fill="#263238"/>
<path d="M64.7522 99.8339C64.7493 99.7149 64.7711 99.5966 64.8163 99.4864C64.8614 99.3762 64.9288 99.2766 65.0144 99.1938C65.0999 99.111 65.2017 99.0468 65.3132 99.0053C65.4248 98.9638 65.5438 98.9459 65.6626 98.9526C65.8029 98.944 65.9427 98.9739 66.0672 99.039C66.1917 99.1041 66.296 99.2019 66.369 99.322L66.1292 99.4743C66.0789 99.3961 66.0091 99.3324 65.9268 99.2892C65.8444 99.246 65.7523 99.225 65.6594 99.228C65.5059 99.2392 65.3624 99.3081 65.2577 99.4208C65.1529 99.5335 65.0947 99.6817 65.0947 99.8355C65.0947 99.9894 65.1529 100.138 65.2577 100.25C65.3624 100.363 65.5059 100.432 65.6594 100.443C65.7526 100.445 65.8448 100.424 65.9271 100.38C66.0094 100.336 66.079 100.272 66.1292 100.194L66.369 100.343C66.2962 100.463 66.192 100.561 66.0675 100.627C65.9431 100.693 65.8031 100.723 65.6626 100.715C65.5439 100.721 65.4252 100.703 65.3138 100.661C65.2024 100.62 65.1009 100.556 65.0154 100.473C64.93 100.39 64.8625 100.291 64.8172 100.181C64.772 100.071 64.7498 99.9528 64.7522 99.8339Z" fill="#263238"/>
<path d="M68.2985 99.9384H66.8988C66.9191 100.086 66.995 100.221 67.1112 100.315C67.2275 100.409 67.3752 100.455 67.5242 100.444C67.6176 100.447 67.7106 100.429 67.7967 100.393C67.8828 100.357 67.9601 100.302 68.0231 100.233L68.1948 100.437C68.0675 100.569 67.9043 100.661 67.7254 100.702C67.5464 100.743 67.3595 100.73 67.1875 100.666C67.0155 100.602 66.866 100.49 66.7571 100.342C66.6483 100.194 66.585 100.018 66.5748 99.8347C66.5704 99.7189 66.5897 99.6033 66.6316 99.4953C66.6735 99.3872 66.7371 99.2888 66.8184 99.2063C66.8998 99.1237 66.9972 99.0587 67.1046 99.0152C67.2121 98.9717 67.3273 98.9507 67.4432 98.9534C67.5592 98.9504 67.6746 98.9717 67.782 99.0159C67.8893 99.0602 67.9862 99.1264 68.0664 99.2103C68.1467 99.2942 68.2085 99.3939 68.2479 99.5031C68.2873 99.6124 68.3035 99.7286 68.2953 99.8444C68.305 99.8703 68.3018 99.9092 68.2985 99.9384ZM66.8988 99.7116H68.0069C67.9921 99.575 67.9274 99.4486 67.8251 99.3568C67.7229 99.2651 67.5903 99.2143 67.4529 99.2143C67.3155 99.2143 67.1829 99.2651 67.0807 99.3568C66.9784 99.4486 66.9136 99.575 66.8988 99.7116Z" fill="#263238"/>
<path d="M102.134 70.4338C102.134 70.4824 90.9528 70.5181 77.1634 70.5181C63.3739 70.5181 52.1895 70.4824 52.1895 70.4338C52.1895 70.3852 63.3707 70.3496 77.1634 70.3496C90.9561 70.3496 102.134 70.3885 102.134 70.4338Z" fill="#263238"/>
<path d="M102.134 74.2151C102.134 74.2605 90.9528 74.2993 77.1634 74.2993C63.3739 74.2993 52.1895 74.2605 52.1895 74.2151C52.1895 74.1697 63.3707 74.1309 77.1634 74.1309C90.9561 74.1309 102.134 74.1665 102.134 74.2151Z" fill="#263238"/>
<path d="M102.134 77.9924C102.134 78.041 90.9528 78.0767 77.1634 78.0767C63.3739 78.0767 52.1895 78.041 52.1895 77.9924C52.1895 77.9438 63.3707 77.9082 77.1634 77.9082C90.9561 77.9082 102.134 77.9471 102.134 77.9924Z" fill="#263238"/>
<path d="M102.134 81.7737C102.134 81.8191 90.9528 81.8579 77.1634 81.8579C63.3739 81.8579 52.1895 81.8191 52.1895 81.7737C52.1895 81.7283 63.3707 81.6895 77.1634 81.6895C90.9561 81.6895 102.134 81.7251 102.134 81.7737Z" fill="#263238"/>
<path d="M102.134 85.553C102.134 85.6016 90.9528 85.6372 77.1634 85.6372C63.3739 85.6372 52.1895 85.6016 52.1895 85.553C52.1895 85.5044 63.3707 85.4688 77.1634 85.4688C90.9561 85.4688 102.134 85.5076 102.134 85.553Z" fill="#263238"/>
<path d="M102.134 89.3323C102.134 89.3777 90.9528 89.4165 77.1634 89.4165C63.3739 89.4165 52.1895 89.3777 52.1895 89.3323C52.1895 89.2869 63.3707 89.248 77.1634 89.248C90.9561 89.248 102.134 89.2837 102.134 89.3323Z" fill="#263238"/>
<path d="M102.134 103.68C102.134 103.725 90.9528 103.764 77.1634 103.764C63.3739 103.764 52.1895 103.725 52.1895 103.68C52.1895 103.635 63.3707 103.596 77.1634 103.596C90.9561 103.596 102.134 103.641 102.134 103.68Z" fill="#263238"/>
<path d="M102.134 106.92C102.134 106.969 90.9528 107.004 77.1634 107.004C63.3739 107.004 52.1895 106.969 52.1895 106.92C52.1895 106.872 63.3707 106.836 77.1634 106.836C90.9561 106.836 102.134 106.875 102.134 106.92Z" fill="#E0E0E0"/>
<path d="M102.134 110.16C102.134 110.206 90.9528 110.245 77.1634 110.245C63.3739 110.245 52.1895 110.206 52.1895 110.16C52.1895 110.115 63.3707 110.076 77.1634 110.076C90.9561 110.076 102.134 110.109 102.134 110.16Z" fill="#EBEBEB"/>
<path d="M105.78 119.824H79.3613V129.667H105.78V119.824Z" fill="#3F8EFC"/>
<path d="M88.1609 125.256H86.8649L86.596 125.868H86.2363L87.3444 123.422H87.6879L88.7992 125.868H88.433L88.1609 125.256ZM88.0378 124.977L87.5096 123.778L86.9848 124.977H88.0378Z" fill="white"/>
<path d="M88.922 124.94C88.9197 124.813 88.9434 124.687 88.9918 124.57C89.0402 124.453 89.1122 124.346 89.2033 124.258C89.2945 124.17 89.4028 124.101 89.5216 124.056C89.6405 124.011 89.7672 123.991 89.894 123.998C90.0439 123.989 90.1934 124.021 90.3264 124.09C90.4594 124.16 90.5709 124.265 90.649 124.393L90.393 124.555C90.3393 124.471 90.2649 124.402 90.1769 124.356C90.0889 124.309 89.9903 124.286 89.8908 124.289C89.7189 124.289 89.5541 124.357 89.4326 124.479C89.3111 124.6 89.2428 124.765 89.2428 124.937C89.2428 125.109 89.3111 125.274 89.4326 125.395C89.5541 125.517 89.7189 125.585 89.8908 125.585C89.9903 125.588 90.0889 125.565 90.1769 125.518C90.2649 125.472 90.3393 125.403 90.393 125.319L90.649 125.478C90.5711 125.607 90.4597 125.712 90.3267 125.782C90.1937 125.852 90.0442 125.885 89.894 125.877C89.7678 125.883 89.6416 125.863 89.5232 125.819C89.4048 125.774 89.2968 125.706 89.2057 125.619C89.1147 125.531 89.0425 125.425 88.9938 125.309C88.945 125.192 88.9206 125.067 88.922 124.94Z" fill="white"/>
<path d="M90.8888 124.941C90.8865 124.814 90.9102 124.687 90.9586 124.57C91.007 124.453 91.079 124.346 91.1701 124.258C91.2613 124.17 91.3696 124.101 91.4884 124.056C91.6073 124.011 91.734 123.991 91.8608 123.998C92.0108 123.988 92.1604 124.02 92.2934 124.09C92.4265 124.16 92.538 124.264 92.6158 124.393L92.3598 124.555C92.3061 124.471 92.2317 124.403 92.1437 124.356C92.0557 124.309 91.9571 124.286 91.8576 124.289C91.6857 124.289 91.5209 124.358 91.3994 124.479C91.2779 124.601 91.2096 124.765 91.2096 124.937C91.2096 125.109 91.2779 125.274 91.3994 125.395C91.5209 125.517 91.6857 125.585 91.8576 125.585C91.9571 125.588 92.0557 125.565 92.1437 125.519C92.2317 125.472 92.3061 125.403 92.3598 125.32L92.6158 125.478C92.5381 125.607 92.4268 125.712 92.2938 125.783C92.1607 125.853 92.011 125.885 91.8608 125.877C91.7346 125.883 91.6084 125.863 91.49 125.819C91.3716 125.775 91.2636 125.706 91.1725 125.619C91.0815 125.531 91.0093 125.426 90.9605 125.309C90.9118 125.192 90.8874 125.067 90.8888 124.941Z" fill="white"/>
<path d="M94.6945 125.064H93.1912C93.213 125.223 93.2946 125.367 93.4192 125.468C93.5439 125.569 93.7022 125.618 93.8619 125.606C93.9618 125.609 94.0614 125.591 94.1536 125.552C94.2459 125.514 94.3288 125.456 94.3965 125.382L94.5812 125.599C94.4882 125.699 94.3745 125.778 94.248 125.829C94.1215 125.881 93.9853 125.904 93.8489 125.897C93.72 125.907 93.5905 125.889 93.4687 125.846C93.347 125.802 93.2357 125.734 93.142 125.644C93.0483 125.555 92.9743 125.448 92.9247 125.328C92.8752 125.209 92.8512 125.08 92.8542 124.951C92.8493 124.827 92.8699 124.703 92.9147 124.588C92.9595 124.472 93.0276 124.366 93.1148 124.278C93.202 124.19 93.3063 124.12 93.4215 124.074C93.5366 124.027 93.66 124.005 93.7841 124.008C93.9086 124.004 94.0326 124.027 94.148 124.074C94.2634 124.12 94.3677 124.191 94.4541 124.281C94.5405 124.371 94.6071 124.478 94.6497 124.595C94.6922 124.712 94.7097 124.837 94.701 124.961C94.701 124.98 94.6978 125.022 94.6945 125.064ZM93.1912 124.821H94.377C94.3617 124.675 94.2926 124.539 94.1831 124.441C94.0736 124.342 93.9315 124.287 93.7841 124.287C93.6367 124.287 93.4946 124.342 93.3851 124.441C93.2756 124.539 93.2065 124.675 93.1912 124.821Z" fill="white"/>
<path d="M97.0841 124.941C97.0911 125.066 97.0717 125.192 97.0272 125.309C96.9827 125.426 96.9141 125.533 96.8259 125.622C96.7377 125.711 96.6318 125.781 96.515 125.826C96.3981 125.872 96.2731 125.893 96.1478 125.887C96.024 125.891 95.9011 125.866 95.7886 125.815C95.6761 125.763 95.5772 125.686 95.4998 125.589V126.545H95.1758V124.014H95.4998V124.309C95.5738 124.207 95.6713 124.124 95.7841 124.068C95.8969 124.012 96.0217 123.983 96.1478 123.985C96.2739 123.98 96.3999 124.001 96.5174 124.047C96.6349 124.093 96.7413 124.164 96.8297 124.254C96.9181 124.344 96.9864 124.452 97.0303 124.57C97.0741 124.689 97.0925 124.815 97.0841 124.941ZM96.7439 124.941C96.7395 124.818 96.6991 124.7 96.6277 124.6C96.5564 124.5 96.4572 124.424 96.3426 124.38C96.228 124.336 96.1031 124.327 95.9833 124.353C95.8636 124.38 95.7543 124.441 95.6691 124.53C95.5839 124.618 95.5265 124.729 95.5042 124.85C95.4818 124.971 95.4955 125.095 95.5434 125.208C95.5913 125.321 95.6714 125.417 95.7737 125.485C95.876 125.553 95.9959 125.589 96.1186 125.589C96.2032 125.591 96.2873 125.575 96.3655 125.543C96.4438 125.511 96.5145 125.463 96.5733 125.402C96.632 125.341 96.6775 125.269 96.7069 125.189C96.7363 125.11 96.7489 125.026 96.7439 124.941Z" fill="white"/>
<path d="M98.5902 125.757C98.4727 125.846 98.3288 125.891 98.1819 125.887C98.1033 125.896 98.0235 125.888 97.9487 125.862C97.8738 125.836 97.8057 125.794 97.7493 125.738C97.693 125.682 97.6499 125.615 97.6233 125.54C97.5967 125.466 97.5872 125.386 97.5955 125.307V124.29H97.2715V124.014H97.5955V123.609H97.9195V124.014H98.4508V124.29H97.9195V125.294C97.9114 125.335 97.9129 125.378 97.9239 125.418C97.935 125.459 97.9553 125.496 97.9832 125.528C98.0111 125.559 98.0459 125.584 98.0849 125.599C98.1239 125.615 98.166 125.621 98.2078 125.618C98.3027 125.62 98.3953 125.589 98.4703 125.531L98.5902 125.757Z" fill="white"/>
<path d="M50.9559 129.745C50.9559 129.745 50.9332 129.745 50.8911 129.703L50.7032 129.557L49.9159 128.951L49.8867 128.929L49.9224 128.912C53.1105 127.691 63.5077 123.79 76.3219 119.014L76.3672 118.998L76.4029 119.027L77.4267 119.85L77.4591 119.876V129.842H77.3749L58.4857 129.81L52.9485 129.787H51.4646H51.0823C51.0402 129.789 50.998 129.789 50.9559 129.787H51.0888H51.4743H52.968L58.5116 129.765L77.3749 129.732L77.2939 129.813C77.2939 127.529 77.2939 125.138 77.2939 122.685V119.97L77.3263 120.035L76.3024 119.209H76.3834C63.566 123.978 53.1526 127.834 49.9418 128.993V128.958L50.7064 129.59L50.8944 129.745H50.9559Z" fill="#3F8EFC"/>
<path d="M76.3467 119.08H49.9277V128.923H76.3467V119.08Z" fill="white"/>
<path d="M76.351 128.923C76.351 128.923 76.351 128.862 76.351 128.745C76.351 128.628 76.351 128.457 76.351 128.236C76.351 127.786 76.351 127.128 76.351 126.292C76.351 124.598 76.3316 122.145 76.3186 119.09L76.3769 119.148L49.958 119.174L50.0422 119.09C50.0422 122.524 50.0422 125.849 50.0422 128.933L49.9612 128.852L68.8731 128.891L74.3811 128.914H75.8618H76.2473H76.3802H76.257H75.8812H74.42L68.9282 128.936L49.958 128.975H49.877V128.894C49.877 125.81 49.877 122.485 49.877 119.051V118.967H49.9644L76.3834 118.993H76.4417V119.051C76.4417 122.119 76.4158 124.585 76.4093 126.289C76.4093 127.128 76.4093 127.78 76.4093 128.233C76.4093 128.447 76.4093 128.612 76.4093 128.732C76.4093 128.852 76.351 128.923 76.351 128.923Z" fill="#3F8EFC"/>
<path d="M57.1699 123.304H58.2002C58.3686 123.292 58.5376 123.314 58.6968 123.37C58.856 123.426 59.002 123.515 59.1256 123.629C59.2492 123.744 59.3477 123.884 59.4152 124.038C59.4826 124.193 59.5173 124.36 59.5173 124.529C59.5173 124.698 59.4826 124.864 59.4152 125.019C59.3477 125.174 59.2492 125.313 59.1256 125.428C59.002 125.543 58.856 125.631 58.6968 125.687C58.5376 125.743 58.3686 125.766 58.2002 125.753H57.1699V123.304ZM58.1808 125.449C58.3081 125.46 58.4363 125.444 58.5572 125.402C58.6781 125.361 58.7891 125.295 58.8831 125.208C58.9772 125.122 59.0522 125.017 59.1036 124.9C59.155 124.783 59.1815 124.657 59.1815 124.529C59.1815 124.401 59.155 124.275 59.1036 124.158C59.0522 124.041 58.9772 123.936 58.8831 123.849C58.7891 123.763 58.6781 123.697 58.5572 123.655C58.4363 123.614 58.3081 123.598 58.1808 123.609H57.5328V125.449H58.1808Z" fill="#3F8EFC"/>
<path d="M61.6739 124.937H60.1705C60.1923 125.096 60.2744 125.241 60.3997 125.342C60.5251 125.442 60.6842 125.491 60.8444 125.478C60.9445 125.482 61.0442 125.464 61.1366 125.426C61.229 125.387 61.3117 125.328 61.379 125.254L61.5637 125.471C61.4265 125.61 61.2522 125.706 61.0618 125.747C60.8714 125.789 60.673 125.775 60.4905 125.706C60.308 125.638 60.1492 125.518 60.0333 125.361C59.9173 125.205 59.849 125.018 59.8368 124.823C59.8314 124.699 59.8517 124.575 59.8963 124.459C59.9409 124.343 60.0089 124.237 60.0961 124.148C60.1834 124.06 60.2879 123.99 60.4032 123.943C60.5186 123.896 60.6423 123.874 60.7667 123.877C60.8914 123.874 61.0154 123.897 61.1308 123.944C61.2462 123.991 61.3505 124.062 61.4368 124.152C61.5232 124.242 61.5897 124.349 61.6322 124.467C61.6747 124.584 61.6922 124.709 61.6836 124.833C61.6836 124.866 61.6771 124.904 61.6739 124.937ZM60.1705 124.697H61.3596C61.3411 124.552 61.2705 124.42 61.161 124.323C61.0516 124.227 60.9108 124.174 60.765 124.174C60.6193 124.174 60.4785 124.227 60.3691 124.323C60.2596 124.42 60.189 124.552 60.1705 124.697Z" fill="#3F8EFC"/>
<path d="M61.9748 124.826C61.972 124.699 61.9954 124.573 62.0436 124.455C62.0918 124.337 62.1637 124.231 62.2549 124.142C62.3461 124.053 62.4546 123.984 62.5737 123.939C62.6927 123.894 62.8197 123.874 62.9468 123.88C63.0967 123.871 63.2462 123.904 63.3792 123.973C63.5122 124.043 63.6237 124.147 63.7018 124.276L63.4458 124.441C63.3919 124.357 63.3174 124.289 63.2295 124.242C63.1415 124.196 63.0431 124.173 62.9436 124.175C62.7717 124.175 62.6069 124.243 62.4854 124.365C62.3639 124.487 62.2956 124.651 62.2956 124.823C62.2956 124.995 62.3639 125.16 62.4854 125.281C62.6069 125.403 62.7717 125.471 62.9436 125.471C63.0431 125.474 63.1415 125.451 63.2295 125.404C63.3174 125.358 63.3919 125.289 63.4458 125.206L63.7018 125.368C63.6239 125.496 63.5125 125.601 63.3795 125.671C63.2465 125.742 63.097 125.774 62.9468 125.766C62.8203 125.772 62.6938 125.752 62.5752 125.708C62.4566 125.663 62.3484 125.595 62.2573 125.507C62.1662 125.419 62.0942 125.313 62.0456 125.196C61.997 125.079 61.9729 124.953 61.9748 124.826Z" fill="#3F8EFC"/>
<path d="M64.1172 123.158H64.4412V125.75H64.1172V123.158Z" fill="#3F8EFC"/>
<path d="M65.0293 123.328C65.0297 123.298 65.0359 123.269 65.0475 123.242C65.0592 123.216 65.076 123.191 65.0971 123.171C65.1181 123.15 65.143 123.134 65.1703 123.123C65.1976 123.112 65.2267 123.107 65.2561 123.107C65.2994 123.109 65.3413 123.123 65.3767 123.148C65.4121 123.173 65.4393 123.207 65.455 123.248C65.4707 123.288 65.4741 123.332 65.4649 123.375C65.4557 123.417 65.4342 123.456 65.4031 123.486C65.3721 123.516 65.3328 123.536 65.2903 123.544C65.2477 123.552 65.2038 123.547 65.1639 123.531C65.124 123.514 65.09 123.486 65.066 123.449C65.0421 123.413 65.0293 123.371 65.0293 123.328ZM65.0909 123.901H65.4149V125.755H65.0909V123.901Z" fill="#3F8EFC"/>
<path d="M67.8226 124.688V125.754H67.4986V124.74C67.4986 124.377 67.3139 124.199 66.9964 124.199C66.9153 124.193 66.834 124.205 66.7582 124.235C66.6824 124.264 66.614 124.31 66.5579 124.369C66.5019 124.427 66.4595 124.498 66.434 124.575C66.4084 124.652 66.4002 124.734 66.4099 124.815V125.771H66.0859V123.917H66.4099V124.196C66.4892 124.096 66.5911 124.017 66.7073 123.965C66.8235 123.914 66.9504 123.89 67.0774 123.898C67.1803 123.894 67.2829 123.912 67.3783 123.95C67.4737 123.989 67.5596 124.048 67.6303 124.123C67.701 124.198 67.7547 124.287 67.7879 124.385C67.821 124.482 67.8329 124.586 67.8226 124.688Z" fill="#3F8EFC"/>
<path d="M70.1224 124.937H68.6191C68.6409 125.095 68.7224 125.24 68.8471 125.34C68.9717 125.441 69.1301 125.49 69.2897 125.478C69.3898 125.482 69.4895 125.464 69.5819 125.426C69.6743 125.387 69.757 125.328 69.8243 125.254L70.009 125.471C69.8718 125.61 69.6975 125.706 69.5071 125.747C69.3167 125.789 69.1183 125.775 68.9358 125.706C68.7534 125.638 68.5946 125.518 68.4786 125.361C68.3626 125.205 68.2943 125.018 68.2821 124.823C68.2767 124.699 68.297 124.575 68.3416 124.459C68.3862 124.343 68.4542 124.237 68.5414 124.148C68.6287 124.06 68.7332 123.99 68.8485 123.943C68.9639 123.896 69.0876 123.874 69.212 123.877C69.3367 123.874 69.4607 123.897 69.5761 123.944C69.6915 123.991 69.7958 124.062 69.8821 124.152C69.9685 124.242 70.035 124.349 70.0775 124.467C70.12 124.584 70.1375 124.709 70.1289 124.833C70.1289 124.866 70.1257 124.904 70.1224 124.937ZM68.6191 124.697H69.8049C69.7896 124.55 69.7205 124.415 69.611 124.316C69.5015 124.218 69.3593 124.163 69.212 124.163C69.0646 124.163 68.9225 124.218 68.813 124.316C68.7035 124.415 68.6344 124.55 68.6191 124.697Z" fill="#3F8EFC"/>
<path d="M77.3749 129.745C77.3425 129.781 77.0865 129.586 76.8046 129.314C76.5228 129.042 76.3186 128.796 76.351 128.76C76.3834 128.724 76.6394 128.922 76.9213 129.194C77.2032 129.466 77.4073 129.713 77.3749 129.745Z" fill="#3F8EFC"/>
<path d="M115.117 127.286L118.889 125.472L116.815 119.342L112.26 118.289C111.835 118.192 111.362 118.078 110.837 117.932C110.22 117.76 109.636 117.485 109.11 117.119C108.44 116.693 107.832 116.178 107.302 115.587C106.871 115 105.958 115.221 105.958 115.872C105.958 116.523 107.108 118.166 109.152 119.329C111.197 120.492 107.581 121.053 106.272 121.273C104.963 121.493 100.939 122.397 100.699 122.854C100.349 123.521 101.023 124.033 102.319 123.777C103.615 123.521 107.597 123.016 107.701 123.709V123.729C107.381 124.229 107.226 124.816 107.257 125.409C107.288 126.001 107.503 126.569 107.873 127.034C108.605 127.95 109.703 129.101 110.51 128.926C112.026 128.605 115.117 127.286 115.117 127.286Z" fill="#B78876"/>
<path d="M114.887 116.5L118.422 128.452L145.868 120.112C147.269 119.684 148.57 118.981 149.696 118.044C150.822 117.107 151.75 115.954 152.425 114.654C153.1 113.354 153.509 111.933 153.628 110.473C153.748 109.013 153.574 107.543 153.119 106.151L146.389 85.2109L131.774 88.8397L139.796 108.215L114.887 116.5Z" fill="#3F8EFC"/>
<path d="M146.486 119.903L146.353 119.952L145.958 120.078L144.422 120.555L138.671 122.317L118.693 128.379L118.619 128.399L118.593 128.327C117.371 124.673 116.185 120.655 114.815 116.527L114.789 116.45L114.87 116.42L115.56 116.194L139.782 108.149L139.744 108.236C137.8 103.538 136.225 99.6891 135.123 97.0064C134.579 95.6715 134.151 94.6282 133.86 93.9122C133.72 93.559 133.61 93.2869 133.536 93.0989C133.461 92.911 133.432 92.8203 133.432 92.8203C133.432 92.8203 133.477 92.911 133.555 93.0925L133.899 93.896C134.197 94.6088 134.634 95.6488 135.195 96.9772C136.309 99.6535 137.91 103.496 139.867 108.188L139.893 108.252L139.825 108.275L115.602 116.352L114.912 116.582L114.964 116.476C116.338 120.607 117.517 124.624 118.735 128.276L118.638 128.224L138.632 122.223L144.406 120.503L145.948 120.053L146.35 119.939L146.486 119.903Z" fill="#263238"/>
<path d="M144.87 111.699C144.844 111.699 144.663 111.398 144.296 110.941C143.335 109.747 142.028 108.88 140.554 108.459C139.991 108.297 139.628 108.252 139.631 108.222C139.717 108.207 139.804 108.207 139.89 108.222C140.124 108.244 140.356 108.283 140.583 108.339C141.34 108.522 142.059 108.836 142.709 109.266C143.359 109.695 143.928 110.236 144.39 110.863C144.531 111.052 144.656 111.251 144.766 111.459C144.815 111.532 144.85 111.613 144.87 111.699Z" fill="#263238"/>
<path d="M138.218 89.8571C138.133 89.2704 138.105 88.6769 138.134 88.0848C138.105 87.4927 138.133 86.8992 138.218 86.3125C138.331 87.4914 138.331 88.6782 138.218 89.8571Z" fill="#FAFAFA"/>
<path d="M143.73 90.1394C143.477 89.5937 143.278 89.0252 143.133 88.4417C142.934 87.8745 142.789 87.2898 142.699 86.6953C143.15 87.8085 143.495 88.9616 143.73 90.1394Z" fill="#FAFAFA"/>
<path d="M140.312 95.1138C139.177 95.1051 138.067 94.7797 137.107 94.1742C137.13 94.1289 137.807 94.4496 138.692 94.7056C139.576 94.9616 140.315 95.0652 140.312 95.1138Z" fill="#FAFAFA"/>
<path d="M146.545 97.8488C146.558 97.2796 146.627 96.713 146.752 96.1575C146.822 95.5915 146.946 95.0337 147.125 94.4922C147.11 95.0624 147.041 95.6298 146.918 96.1867C146.849 96.7518 146.724 97.3086 146.545 97.8488Z" fill="#FAFAFA"/>
<path d="M144.316 102.313C143.728 101.302 143.241 100.236 142.861 99.1309C143.447 100.142 143.934 101.208 144.316 102.313Z" fill="#FAFAFA"/>
<path d="M143.403 106.219C142.869 106.056 142.353 105.839 141.864 105.571C141.35 105.354 140.86 105.085 140.402 104.768C140.934 104.935 141.448 105.151 141.938 105.416C142.452 105.633 142.943 105.902 143.403 106.219Z" fill="#FAFAFA"/>
<path d="M150.413 105.18C150.239 105.688 150.032 106.185 149.794 106.667C149.609 107.17 149.393 107.661 149.146 108.138C149.377 107.08 149.807 106.076 150.413 105.18Z" fill="#FAFAFA"/>
<path d="M148.463 114.592C148.229 113.393 148.109 112.175 148.104 110.953C148.244 111.548 148.332 112.154 148.366 112.764C148.454 113.369 148.486 113.981 148.463 114.592Z" fill="#FAFAFA"/>
<path d="M143.512 117.562C143.044 117.251 142.61 116.893 142.216 116.493C141.786 116.136 141.393 115.736 141.043 115.301C141.511 115.612 141.945 115.97 142.339 116.37C142.769 116.727 143.162 117.127 143.512 117.562Z" fill="#FAFAFA"/>
<path d="M134.959 118.416C134.346 119.445 133.637 120.412 132.84 121.306C133.121 120.777 133.453 120.277 133.831 119.812C134.163 119.313 134.54 118.845 134.959 118.416Z" fill="#FAFAFA"/>
<path d="M137.671 114.407C137.179 114.089 136.737 113.701 136.358 113.254C135.94 112.845 135.586 112.375 135.309 111.86C135.347 111.831 135.83 112.44 136.481 113.14C137.133 113.84 137.7 114.371 137.671 114.407Z" fill="#FAFAFA"/>
<path d="M131.219 115.318C130.808 115.484 130.362 115.538 129.923 115.477C129.482 115.471 129.049 115.353 128.666 115.133C128.685 115.085 129.233 115.26 129.933 115.308C130.633 115.357 131.219 115.27 131.219 115.318Z" fill="#FAFAFA"/>
<path d="M127.133 122.407C126.972 121.957 126.863 121.49 126.809 121.014C126.7 120.548 126.647 120.071 126.651 119.592C126.921 120.508 127.083 121.453 127.133 122.407Z" fill="#FAFAFA"/>
<path d="M122.313 124.849C121.195 124.278 120.132 123.607 119.135 122.844C119.707 123.106 120.254 123.418 120.771 123.777C121.315 124.089 121.832 124.447 122.313 124.849Z" fill="#FAFAFA"/>
<path d="M124.033 116.225C124.069 116.257 123.599 116.814 123.078 117.54C122.556 118.266 122.167 118.885 122.125 118.862C122.321 118.349 122.595 117.869 122.938 117.44C123.237 116.979 123.606 116.569 124.033 116.225Z" fill="#FAFAFA"/>
<path d="M120.308 117.862C119.973 117.788 119.652 117.66 119.359 117.483C119.042 117.355 118.748 117.175 118.49 116.951C119.143 117.151 119.757 117.459 120.308 117.862Z" fill="#FAFAFA"/>
<g opacity="0.2">
<path d="M139.566 107.72C141.031 107.869 142.499 108.021 143.96 108.206C144.469 108.243 144.971 108.352 145.45 108.53C145.688 108.622 145.905 108.762 146.088 108.941C146.27 109.12 146.415 109.334 146.513 109.57C146.604 109.809 146.614 110.072 146.541 110.317C146.468 110.563 146.316 110.777 146.108 110.927C145.9 111.033 145.669 111.084 145.436 111.074C145.203 111.064 144.977 110.993 144.78 110.869C144.387 110.619 144.02 110.332 143.684 110.01C143.025 109.465 142.259 109.065 141.436 108.834C141.061 108.763 140.698 108.636 140.36 108.458C140.191 108.365 140.056 108.221 139.972 108.047C139.889 107.872 139.861 107.677 139.894 107.486" fill="#2E2E2E"/>
</g>
</svg>
