<svg width="20" height="21" viewBox="0 0 20 21" fill="none" xmlns="http://www.w3.org/2000/svg">
<path d="M10.1341 9.5362C10.0508 9.52786 9.95078 9.52786 9.85911 9.5362C7.87578 9.46953 6.30078 7.84453 6.30078 5.84453C6.30078 3.80286 7.95078 2.14453 10.0008 2.14453C12.0424 2.14453 13.7008 3.80286 13.7008 5.84453C13.6924 7.84453 12.1174 9.46953 10.1341 9.5362Z" stroke="#605E5C" stroke-width="1.5" stroke-linecap="round" stroke-linejoin="round"/>
<path d="M5.96563 12.6115C3.94896 13.9615 3.94896 16.1615 5.96563 17.5032C8.25729 19.0365 12.0156 19.0365 14.3073 17.5032C16.324 16.1532 16.324 13.9532 14.3073 12.6115C12.024 11.0865 8.26562 11.0865 5.96563 12.6115Z" stroke="#605E5C" stroke-width="1.5" stroke-linecap="round" stroke-linejoin="round"/>
</svg>
