<svg width="25" height="25" viewBox="0 0 25 25" fill="none" xmlns="http://www.w3.org/2000/svg">
<path d="M15.8968 6.01469L17.3068 8.83468C17.4968 9.22468 18.0068 9.59468 18.4368 9.67468L20.9868 10.0947C22.6168 10.3647 22.9968 11.5447 21.8268 12.7247L19.8368 14.7147C19.5068 15.0447 19.3168 15.6947 19.4268 16.1647L19.9968 18.6247C20.4468 20.5647 19.4068 21.3247 17.6968 20.3047L15.3068 18.8847C14.8768 18.6247 14.1568 18.6247 13.7268 18.8847L11.3368 20.3047C9.62677 21.3147 8.58679 20.5647 9.03679 18.6247L9.60679 16.1647C9.71679 15.7047 9.52679 15.0547 9.19679 14.7147L7.2068 12.7247C6.0368 11.5547 6.4168 10.3747 8.0468 10.0947L10.5968 9.67468C11.0268 9.60468 11.5368 9.22468 11.7268 8.83468L13.1368 6.01469C13.8868 4.48469 15.1268 4.48469 15.8968 6.01469Z" stroke="#108A00" stroke-width="1.5" stroke-linecap="round" stroke-linejoin="round"/>
<path d="M8.50781 5.80469H2.50781" stroke="#108A00" stroke-width="1.5" stroke-linecap="round" stroke-linejoin="round"/>
<path d="M5.50781 19.8047H2.50781" stroke="#108A00" stroke-width="1.5" stroke-linecap="round" stroke-linejoin="round"/>
<path d="M3.50781 12.8047H2.50781" stroke="#108A00" stroke-width="1.5" stroke-linecap="round" stroke-linejoin="round"/>
</svg>
