<svg width="158" height="158" viewBox="0 0 158 158" fill="none" xmlns="http://www.w3.org/2000/svg">
<path opacity="0.5" d="M79.0004 13.1667C65.9797 13.1667 53.2515 17.0277 42.4253 24.2616C31.5991 31.4954 23.1611 41.7772 18.1783 53.8067C13.1955 65.8361 11.8918 79.073 14.432 91.8434C16.9722 104.614 23.2422 116.344 32.4492 125.551C41.6561 134.758 53.3865 141.028 66.1569 143.568C78.9273 146.109 92.1642 144.805 104.194 139.822C116.223 134.839 126.505 126.401 133.739 115.575C140.973 104.749 144.834 92.0206 144.834 79C144.834 70.3546 143.131 61.7939 139.822 53.8067C136.514 45.8194 131.665 38.562 125.552 32.4488C119.438 26.3356 112.181 21.4864 104.194 18.1779C96.2064 14.8695 87.6457 13.1667 79.0004 13.1667ZM79.0004 131.667C68.5839 131.667 58.4013 128.578 49.7403 122.791C41.0793 117.004 34.3289 108.778 30.3427 99.1546C26.3565 89.5311 25.3135 78.9416 27.3457 68.7252C29.3778 58.5089 34.3938 49.1246 41.7594 41.759C49.125 34.3935 58.5093 29.3775 68.7256 27.3453C78.9419 25.3131 89.5314 26.3561 99.155 30.3423C108.779 34.3286 117.004 41.079 122.791 49.74C128.578 58.4009 131.667 68.5835 131.667 79C131.667 92.9681 126.118 106.364 116.241 116.241C106.364 126.118 92.9684 131.667 79.0004 131.667Z" fill="#2667FF"/>
<path d="M131.667 79H144.833C144.833 70.3546 143.131 61.7939 139.822 53.8067C136.514 45.8194 131.664 38.562 125.551 32.4488C119.438 26.3356 112.181 21.4864 104.193 18.1779C96.2061 14.8695 87.6454 13.1667 79 13.1667V26.3333C92.9681 26.3333 106.364 31.8821 116.241 41.759C126.118 51.6359 131.667 65.0319 131.667 79Z" fill="#2667FF"/>
</svg>
