<svg width="159" height="158" viewBox="0 0 159 158" fill="none" xmlns="http://www.w3.org/2000/svg">
<g filter="url(#filter0_dd_607_12068)">
<path d="M79.4996 8.77777C65.611 8.77777 52.0342 12.8962 40.4862 20.6123C28.9382 28.3285 19.9377 39.2957 14.6227 52.1271C9.30777 64.9585 7.91714 79.0779 10.6267 92.6997C13.3362 106.321 20.0242 118.834 29.845 128.655C39.6657 138.475 52.1781 145.163 65.7999 147.873C79.4217 150.582 93.541 149.192 106.372 143.877C119.204 138.562 130.171 129.561 137.887 118.013C145.603 106.465 149.722 92.8886 149.722 79C149.722 60.3759 142.323 42.5146 129.154 29.3454C115.985 16.1762 98.1237 8.77777 79.4996 8.77777ZM79.4996 140.444C67.347 140.444 55.4674 136.841 45.3629 130.089C35.2584 123.338 27.3829 113.741 22.7323 102.514C18.0817 91.2863 16.8649 78.9318 19.2358 67.0128C21.6066 55.0937 27.4587 44.1454 36.0518 35.5522C44.645 26.959 55.5933 21.107 67.5124 18.7362C79.4314 16.3653 91.7859 17.5821 103.013 22.2327C114.241 26.8833 123.837 34.7588 130.589 44.8633C137.34 54.9678 140.944 66.8474 140.944 79C140.944 95.2961 134.47 110.925 122.947 122.448C111.424 133.971 95.7957 140.444 79.4996 140.444Z" fill="#4ECB71"/>
<path d="M123.389 53.1055C122.566 52.2881 121.454 51.8293 120.294 51.8293C119.135 51.8293 118.023 52.2881 117.2 53.1055L68.4836 101.603L42.1502 75.2694C41.3471 74.4022 40.2323 73.8896 39.0512 73.8444C37.8701 73.7991 36.7194 74.2249 35.8522 75.028C34.985 75.8312 34.4724 76.946 34.4271 78.1271C34.3818 79.3082 34.8076 80.4589 35.6108 81.3261L68.4836 114.111L123.389 59.3378C123.8 58.9298 124.126 58.4443 124.349 57.9095C124.572 57.3747 124.687 56.801 124.687 56.2217C124.687 55.6423 124.572 55.0686 124.349 54.5338C124.126 53.999 123.8 53.5135 123.389 53.1055Z" fill="#4ECB71"/>
</g>
<defs>
<filter id="filter0_dd_607_12068" x="-3.5" y="0" width="166" height="166" filterUnits="userSpaceOnUse" color-interpolation-filters="sRGB">
<feFlood flood-opacity="0" result="BackgroundImageFix"/>
<feColorMatrix in="SourceAlpha" type="matrix" values="0 0 0 0 0 0 0 0 0 0 0 0 0 0 0 0 0 0 127 0" result="hardAlpha"/>
<feOffset dy="4"/>
<feGaussianBlur stdDeviation="2"/>
<feComposite in2="hardAlpha" operator="out"/>
<feColorMatrix type="matrix" values="0 0 0 0 0 0 0 0 0 0 0 0 0 0 0 0 0 0 0.25 0"/>
<feBlend mode="normal" in2="BackgroundImageFix" result="effect1_dropShadow_607_12068"/>
<feColorMatrix in="SourceAlpha" type="matrix" values="0 0 0 0 0 0 0 0 0 0 0 0 0 0 0 0 0 0 127 0" result="hardAlpha"/>
<feOffset dy="4"/>
<feGaussianBlur stdDeviation="2"/>
<feComposite in2="hardAlpha" operator="out"/>
<feColorMatrix type="matrix" values="0 0 0 0 0 0 0 0 0 0 0 0 0 0 0 0 0 0 0.25 0"/>
<feBlend mode="normal" in2="effect1_dropShadow_607_12068" result="effect2_dropShadow_607_12068"/>
<feBlend mode="normal" in="SourceGraphic" in2="effect2_dropShadow_607_12068" result="shape"/>
</filter>
</defs>
</svg>
