<svg width="121" height="113" viewBox="0 0 121 113" fill="none" xmlns="http://www.w3.org/2000/svg">
<path fill-rule="evenodd" clip-rule="evenodd" d="M33.545 10.065C41.0411 3.60101 50.6018 0.0310389 60.5 0C80.675 0 97.4225 15 99.245 34.3425C111.185 36.03 120.5 46.0275 120.5 58.2975C120.5 71.7675 109.265 82.5 95.6525 82.5H75.5C74.5054 82.5 73.5516 82.1049 72.8483 81.4017C72.1451 80.6984 71.75 79.7446 71.75 78.75C71.75 77.7554 72.1451 76.8016 72.8483 76.0983C73.5516 75.3951 74.5054 75 75.5 75H95.66C105.342 75 113 67.41 113 58.2975C113 49.1775 105.35 41.5875 95.6525 41.5875H91.9025V37.8375C91.91 21.1875 77.96 7.5 60.5 7.5C52.3991 7.53236 44.5763 10.4583 38.4425 15.75C32.765 20.64 29.795 26.535 29.795 31.1625V34.5225L26.4575 34.89C15.98 36.0375 8 44.64 8 54.885C8 65.8875 17.225 75 28.8575 75H45.5C46.4946 75 47.4484 75.3951 48.1516 76.0983C48.8549 76.8016 49.25 77.7554 49.25 78.75C49.25 79.7446 48.8549 80.6984 48.1516 81.4017C47.4484 82.1049 46.4946 82.5 45.5 82.5H28.8575C13.31 82.5 0.5 70.245 0.5 54.885C0.5 41.6625 9.995 30.7125 22.565 27.9375C23.6375 21.465 27.8 15.015 33.545 10.065Z" fill="#605E5C"/>
<path fill-rule="evenodd" clip-rule="evenodd" d="M57.8449 31.0949C58.1932 30.7456 58.607 30.4686 59.0626 30.2795C59.5182 30.0905 60.0066 29.9932 60.4999 29.9932C60.9931 29.9932 61.4815 30.0905 61.9371 30.2795C62.3927 30.4686 62.8065 30.7456 63.1549 31.0949L85.6549 53.5949C86.359 54.299 86.7546 55.254 86.7546 56.2499C86.7546 57.2457 86.359 58.2007 85.6549 58.9049C84.9507 59.609 83.9957 60.0046 82.9999 60.0046C82.004 60.0046 81.049 59.609 80.3449 58.9049L64.2499 42.8024V108.75C64.2499 109.744 63.8548 110.698 63.1515 111.402C62.4482 112.105 61.4944 112.5 60.4999 112.5C59.5053 112.5 58.5515 112.105 57.8482 111.402C57.1449 110.698 56.7499 109.744 56.7499 108.75V42.8024L40.6549 58.9049C39.9507 59.609 38.9957 60.0046 37.9999 60.0046C37.004 60.0046 36.049 59.609 35.3449 58.9049C34.6407 58.2007 34.2451 57.2457 34.2451 56.2499C34.2451 55.254 34.6407 54.299 35.3449 53.5949L57.8449 31.0949Z" fill="#605E5C"/>
</svg>
