<svg width="33" height="32" viewBox="0 0 33 32" fill="none" xmlns="http://www.w3.org/2000/svg">
<path d="M29.8333 8.33268V15.1327C29.8333 16.826 29.2733 18.2527 28.2733 19.2393C27.2867 20.2393 25.86 20.7993 24.1667 20.7993V23.2126C24.1667 24.1193 23.1533 24.666 22.4067 24.1593L21.1133 23.306C21.2333 22.8927 21.2867 22.4393 21.2867 21.9593V16.5327C21.2867 13.8127 19.4733 11.9993 16.7533 11.9993H7.69999C7.51332 11.9993 7.34 12.0127 7.16666 12.026V8.33268C7.16666 4.93268 9.43333 2.66602 12.8333 2.66602H24.1667C27.5667 2.66602 29.8333 4.93268 29.8333 8.33268Z" stroke="#141AE9" stroke-width="3.37759" stroke-miterlimit="10" stroke-linecap="round" stroke-linejoin="round"/>
<path d="M21.2867 16.5353V21.9619C21.2867 22.4419 21.2333 22.8953 21.1133 23.3086C20.62 25.2686 18.9933 26.4953 16.7533 26.4953H13.1267L9.1 29.1753C8.5 29.5886 7.7 29.1486 7.7 28.4286V26.4953C6.34 26.4953 5.20668 26.042 4.42001 25.2553C3.62001 24.4553 3.16667 23.3219 3.16667 21.9619V16.5353C3.16667 14.002 4.74001 12.2553 7.16667 12.0286C7.34001 12.0153 7.51333 12.002 7.7 12.002H16.7533C19.4733 12.002 21.2867 13.8153 21.2867 16.5353Z" stroke="#141AE9" stroke-width="3.37759" stroke-miterlimit="10" stroke-linecap="round" stroke-linejoin="round"/>
</svg>
