<svg width="33" height="32" viewBox="0 0 33 32" fill="none" xmlns="http://www.w3.org/2000/svg">
<path d="M21.02 6.94797L22.9 10.708C23.1533 11.228 23.8333 11.7213 24.4067 11.828L27.8067 12.388C29.98 12.748 30.4867 14.3213 28.9267 15.8946L26.2733 18.548C25.8333 18.988 25.58 19.8546 25.7267 20.4813L26.4867 23.7613C27.0867 26.348 25.7 27.3613 23.42 26.0013L20.2333 24.108C19.66 23.7613 18.7 23.7613 18.1267 24.108L14.94 26.0013C12.66 27.348 11.2734 26.348 11.8734 23.7613L12.6334 20.4813C12.78 19.868 12.5267 19.0013 12.0867 18.548L9.43337 15.8946C7.87337 14.3346 8.38003 12.7613 10.5534 12.388L13.9533 11.828C14.5267 11.7346 15.2067 11.228 15.46 10.708L17.34 6.94797C18.34 4.90797 19.9934 4.90797 21.02 6.94797Z" stroke="#108A00" stroke-width="2.16557" stroke-linecap="round" stroke-linejoin="round"/>
<path d="M11.1667 6.66602H3.16666" stroke="#108A00" stroke-width="2.16557" stroke-linecap="round" stroke-linejoin="round"/>
<path d="M7.16666 25.332H3.16666" stroke="#108A00" stroke-width="2.16557" stroke-linecap="round" stroke-linejoin="round"/>
<path d="M4.5 16H3.16666" stroke="#108A00" stroke-width="2.16557" stroke-linecap="round" stroke-linejoin="round"/>
</svg>
