<svg width="606" height="451" viewBox="0 0 606 451" fill="none" xmlns="http://www.w3.org/2000/svg">
<g clip-path="url(#clip0_579_15256)">
<path d="M606 396.34H0V396.642H606V396.34Z" fill="#EBEBEB"/>
<path d="M545.278 415.812H519.002V416.115H545.278V415.812Z" fill="#EBEBEB"/>
<path d="M417.74 409.531H376.398V409.834H417.74V409.531Z" fill="#EBEBEB"/>
<path d="M534.638 404.582H480.668V404.885H534.638V404.582Z" fill="#EBEBEB"/>
<path d="M209.701 410.684H196.199V410.986H209.701V410.684Z" fill="#EBEBEB"/>
<path d="M185.4 410.684H138.871V410.986H185.4V410.684Z" fill="#EBEBEB"/>
<path d="M113.94 405.574H80.3672V405.877H113.94V405.574Z" fill="#EBEBEB"/>
<path d="M287.257 342.356H53.2193C49.4015 342.356 46.2988 339.258 46.2988 335.445V6.91127C46.2988 3.09858 49.4015 0 53.2193 0H287.257C291.074 0 294.177 3.09858 294.177 6.91127V335.445C294.177 339.258 291.074 342.356 287.257 342.356ZM53.2193 0.302595C49.5712 0.302595 46.6018 3.26803 46.6018 6.91127V335.445C46.6018 339.088 49.5712 342.054 53.2193 342.054H287.257C290.905 342.054 293.874 339.088 293.874 335.445V6.91127C293.874 3.26803 290.905 0.302595 287.257 0.302595H53.2193Z" fill="#EBEBEB"/>
<path d="M549.411 342.356H315.374C311.556 342.356 308.453 339.258 308.453 335.445V6.91127C308.453 3.09858 311.556 0 315.374 0H549.411C553.229 0 556.331 3.09858 556.331 6.91127V335.445C556.331 339.258 553.229 342.356 549.411 342.356ZM315.374 0.302595C311.726 0.302595 308.756 3.26803 308.756 6.91127V335.445C308.756 339.088 311.726 342.054 315.374 342.054H549.411C553.059 342.054 556.028 339.088 556.028 335.445V6.91127C556.028 3.26803 553.059 0.302595 549.411 0.302595H315.374Z" fill="#EBEBEB"/>
<path d="M261.878 176.631L262.423 160.727L252.642 157.531C252.242 152.097 251.333 146.735 250.036 141.554L258.326 135.454L252.703 120.518L242.449 121.341C240.001 116.512 237.129 111.912 233.917 107.603L239.225 98.7552L228.305 87.1235L219.142 91.8076C215.01 88.3096 210.658 85.1263 206.004 82.3304L207.483 72.1753L192.939 65.5787L186.273 73.3735C181.195 71.7274 175.935 70.4928 170.493 69.6819L168.02 59.7205L152.046 59.1758L148.895 68.9436C143.405 69.3914 138.084 70.2508 132.897 71.5459L126.74 63.3153L111.784 68.8951L112.608 79.135C107.772 81.6162 103.166 84.4848 98.8515 87.6924L90.0281 82.3909L78.3323 93.248L83.0228 102.447C79.5201 106.526 76.3325 110.92 73.5692 115.567L63.4005 114.042L56.7587 128.567L64.6125 135.224C62.9642 140.296 61.6916 145.585 60.9159 150.983L50.9048 153.501L50.3594 169.405L60.1766 172.601C60.5765 178.072 61.4855 183.397 62.7824 188.565L54.4923 194.666L60.116 209.602L70.3695 208.779C72.8177 213.608 75.6902 218.208 78.902 222.517L73.5934 231.365L84.5135 242.996L93.6763 238.312C97.7607 241.81 102.16 244.993 106.814 247.802L105.287 257.957L119.831 264.553L126.534 256.758C131.612 258.404 136.872 259.639 142.314 260.45L144.786 270.411L160.76 270.956L163.912 261.188C169.39 260.741 174.723 259.881 179.898 258.586L186.006 266.817L200.962 261.237L200.175 250.997C205.011 248.516 209.568 245.647 213.931 242.427L222.754 247.729L234.45 236.872L229.76 227.673C233.262 223.594 236.45 219.2 239.213 214.552L249.382 216.077L256.024 201.553L248.17 194.896C249.818 189.824 251.091 184.571 251.866 179.137L261.841 176.619L261.878 176.631ZM154.252 228.157C119.371 226.959 92.0643 197.752 93.2521 162.918C94.4519 128.046 123.697 100.764 158.579 101.963C193.46 103.161 220.767 132.368 219.579 167.239C218.379 202.073 189.133 229.343 154.252 228.157Z" fill="#EBEBEB"/>
<path d="M534.444 124.028L538.456 120.288L536.856 117.129C538.08 115.701 539.171 114.176 540.116 112.602L543.631 113.135L545.91 108.124L543.207 105.824C543.789 104.057 544.213 102.229 544.48 100.402L547.934 99.5423L548.116 94.0472L544.734 92.9578C544.589 91.0939 544.298 89.2662 543.849 87.4506L546.698 85.3324L544.758 80.1883L541.231 80.4667C540.395 78.8327 539.413 77.2471 538.286 75.722L540.116 72.6961L536.359 68.6776L533.208 70.2874C531.766 69.0649 530.251 67.9756 528.675 67.0315L529.184 63.5214L524.179 61.2338L521.876 63.9329C520.094 63.364 518.264 62.9404 516.434 62.6741L515.573 59.2366L510.071 59.043L508.968 62.432C507.114 62.5773 505.271 62.8678 503.453 63.3277L501.345 60.4833L496.181 62.4078L496.472 65.9421C494.836 66.7773 493.224 67.7577 491.721 68.8834L488.667 67.0557L484.655 70.7958L486.267 73.967C485.031 75.3952 483.952 76.9203 483.007 78.4938L479.492 77.9612L477.214 82.9722L479.916 85.2719C479.335 87.0391 478.91 88.8668 478.644 90.6944L475.19 91.5538L475.008 97.0489L478.389 98.1383C478.535 99.9902 478.826 101.83 479.274 103.646L476.426 105.752L478.365 110.896L481.904 110.629C482.74 112.263 483.722 113.849 484.849 115.374L483.019 118.4L486.776 122.419L489.928 120.809C491.37 122.031 492.885 123.121 494.46 124.065L493.939 127.563L498.945 129.85L501.248 127.163C503.029 127.732 504.847 128.144 506.689 128.422L507.55 131.859L513.052 132.053L514.155 128.664C516.01 128.519 517.852 128.228 519.67 127.768L521.779 130.613L526.942 128.688L526.651 125.154C528.287 124.319 529.887 123.351 531.402 122.213L534.444 124.028ZM505.817 100.874C502.86 97.7146 503.029 92.7521 506.193 89.8109C509.356 86.8575 514.325 87.027 517.282 90.1861C520.24 93.3452 520.07 98.3077 516.895 101.261C513.731 104.214 508.762 104.045 505.817 100.886V100.874Z" fill="#EBEBEB"/>
<path d="M387.828 287.323L375.296 278.681V278.656C374.06 274.105 372.351 269.736 370.254 265.621L373.466 253.033L355.286 233.594L342.487 235.93C338.524 233.57 334.27 231.56 329.822 230.023C329.822 230.023 329.797 230.023 329.785 230.023L322.004 216.939L295.389 216.031L286.735 228.547C286.735 228.547 286.699 228.547 286.687 228.547C282.142 229.781 277.754 231.488 273.645 233.57L261.053 230.362L241.588 248.518L243.927 261.275C241.515 265.282 239.552 269.53 238.013 273.972L224.911 281.743L224.002 308.335L236.546 316.989C237.782 321.564 239.443 325.934 241.576 330.085L238.376 342.637L256.556 362.076L269.27 359.752C273.282 362.124 277.548 364.121 282.057 365.671L289.826 378.731L316.441 379.638L325.095 367.135C329.7 365.901 334.088 364.194 338.245 362.1L350.789 365.295L370.254 347.14L367.915 334.382C370.327 330.376 372.29 326.128 373.829 321.673L386.931 313.903L387.84 287.311L387.828 287.323ZM304.867 327.737C288.323 327.168 275.391 313.297 275.96 296.812C276.53 280.29 290.371 267.376 306.927 267.944C323.471 268.513 336.403 282.336 335.833 298.87C335.264 315.343 321.423 328.306 304.867 327.737Z" fill="#EBEBEB"/>
<path d="M416.384 211.819C416.384 211.819 416.324 211.819 416.299 211.819L395.308 211.105C394.435 211.08 393.635 210.608 393.199 209.858L387.551 200.356C384.545 199.267 381.588 197.899 378.727 196.265L369.625 197.924C368.765 198.081 367.892 197.79 367.298 197.149L352.96 181.826C352.366 181.184 352.136 180.288 352.354 179.453L354.645 170.484C353.251 167.64 352.088 164.614 351.179 161.443L342.052 155.149C341.337 154.652 340.913 153.829 340.949 152.958L341.665 131.994C341.689 131.123 342.161 130.324 342.913 129.888L352.451 124.236C353.578 121.149 354.948 118.196 356.536 115.46L354.863 106.346C354.706 105.487 354.997 104.615 355.639 104.022L370.995 89.7035C371.637 89.1104 372.534 88.8804 373.37 89.0983L382.376 91.398C385.297 89.9818 388.314 88.8199 391.405 87.9242L397.707 78.81C398.204 78.0959 399.016 77.6481 399.901 77.7086L420.893 78.4227C421.766 78.4469 422.566 78.919 423.002 79.6694L428.662 89.1951C431.668 90.2965 434.613 91.6643 437.425 93.2741L446.575 91.6038C447.436 91.4464 448.308 91.7369 448.902 92.3784L463.24 107.714C463.834 108.355 464.064 109.251 463.846 110.086L461.543 119.092C462.961 122.009 464.125 125.022 465.022 128.109L474.136 134.403C474.851 134.899 475.263 135.722 475.239 136.594L474.524 157.557C474.5 158.429 474.027 159.228 473.276 159.663L463.737 165.316C462.61 168.402 461.24 171.344 459.653 174.079L461.325 183.205C461.483 184.065 461.192 184.936 460.55 185.529L445.206 199.836C444.563 200.429 443.679 200.659 442.83 200.441L433.861 198.154C430.904 199.582 427.862 200.744 424.783 201.627L418.493 210.729C418.008 211.419 417.233 211.831 416.384 211.831V211.819ZM396.883 206.033L415.075 206.65L421.099 197.936C421.438 197.439 421.96 197.076 422.541 196.919C425.886 196.023 429.219 194.752 432.419 193.131C432.419 193.131 432.419 193.131 432.431 193.131C432.964 192.864 433.595 192.792 434.201 192.949L442.733 195.116L456.041 182.709L454.453 174.031C454.344 173.413 454.453 172.784 454.78 172.251C456.538 169.347 458.029 166.151 459.204 162.774C459.398 162.169 459.81 161.673 460.344 161.358L469.458 155.948L470.076 137.78L461.35 131.764C460.889 131.45 460.55 130.99 460.38 130.469C460.356 130.409 460.344 130.336 460.319 130.263C459.41 126.923 458.138 123.643 456.55 120.52C456.271 119.963 456.199 119.334 456.356 118.728L458.538 110.159L446.115 96.8689L437.4 98.4666C436.794 98.5755 436.164 98.4666 435.631 98.1519C432.601 96.3484 429.401 94.8597 426.117 93.7098C425.935 93.6493 425.741 93.5646 425.583 93.4556C425.232 93.2378 424.941 92.9352 424.723 92.5842L419.305 83.47L401.113 82.8527L395.089 91.5674C394.726 92.0879 394.193 92.451 393.587 92.5963C390.217 93.5162 386.945 94.775 383.83 96.3606C383.272 96.6389 382.642 96.7116 382.036 96.5542L373.455 94.3755L360.148 106.782L361.735 115.46C361.832 116.005 361.759 116.574 361.505 117.058C361.469 117.131 361.432 117.191 361.384 117.264C359.626 120.181 358.136 123.388 356.96 126.777C356.766 127.346 356.366 127.83 355.845 128.133L346.719 133.543L346.1 151.711L354.839 157.739C355.336 158.078 355.699 158.586 355.857 159.179C356.802 162.665 358.063 165.97 359.626 169.008C359.711 169.177 359.784 169.371 359.832 169.552C359.929 169.964 359.929 170.387 359.832 170.799L357.651 179.332L370.074 192.622L378.727 191.037C379.333 190.928 379.964 191.037 380.485 191.351C383.575 193.167 386.787 194.668 390.048 195.793C390.641 195.975 391.15 196.374 391.466 196.919L396.871 206.021L396.883 206.033ZM408.118 183.084C407.67 183.084 407.222 183.084 406.773 183.06C385.624 182.334 369.019 164.566 369.734 143.456C370.462 122.335 388.278 105.753 409.391 106.467C430.54 107.193 447.145 124.962 446.43 146.071C446.078 156.287 441.764 165.764 434.273 172.748C427.111 179.441 417.863 183.072 408.106 183.072L408.118 183.084ZM408.07 111.563C390.254 111.563 375.467 125.724 374.849 143.638C374.219 161.939 388.617 177.335 406.943 177.964C415.827 178.267 424.287 175.096 430.783 169.032C437.267 162.98 441.012 154.761 441.315 145.914C441.945 127.613 427.547 112.217 409.221 111.587C408.834 111.575 408.446 111.563 408.07 111.563Z" fill="#EBEBEB"/>
<path d="M464.73 60.9664L456.04 58.6304L453.701 49.952L457.107 46.5508L460.694 53.9825L468.136 57.5653L464.73 60.9664Z" fill="#E0E0E0"/>
<path d="M465.264 55.1581C466.852 53.5725 466.852 50.9943 465.264 49.4209C463.676 47.8353 461.107 47.8474 459.531 49.4209L463.858 42.9453L469.664 45.8744L470.936 51.9627L465.276 55.1581H465.264Z" fill="#E0E0E0"/>
<path d="M456.416 47.2416L462.791 40.875L471.481 43.211L473.82 51.8895L467.445 58.2561L458.755 55.92L456.416 47.2416ZM467.991 52.4462C469.578 50.8606 469.578 48.2825 467.991 46.709C466.403 45.1234 463.833 45.1355 462.258 46.709C460.67 48.2946 460.67 50.8485 462.258 52.422C463.846 54.0076 466.415 54.0197 467.991 52.422V52.4462Z" fill="#F0F0F0"/>
<path d="M109.348 292.625L114.014 291.366L115.262 286.706L113.444 284.891L111.517 288.873L107.518 290.797L109.348 292.625Z" fill="#E0E0E0"/>
<path d="M109.055 289.502C108.207 288.654 108.207 287.275 109.055 286.415C109.904 285.556 111.285 285.568 112.134 286.415L109.819 282.941L106.704 284.515L106.025 287.783L109.055 289.502Z" fill="#E0E0E0"/>
<path d="M113.807 285.253L110.389 281.84L105.723 283.087L104.475 287.746L107.892 291.16L112.559 289.913L113.807 285.253ZM107.602 288.049C106.753 287.202 106.753 285.822 107.602 284.963C108.45 284.103 109.832 284.115 110.68 284.963C111.528 285.81 111.528 287.178 110.68 288.037C109.832 288.896 108.45 288.896 107.602 288.037V288.049Z" fill="#F0F0F0"/>
<path d="M92.5494 37.1705L96.4157 41.0316C97.4216 42.0363 99.07 42.0363 100.076 41.0316C101.082 40.027 101.082 38.3809 100.076 37.3763L96.2096 33.5152C95.2037 32.5106 93.5554 32.5106 92.5494 33.5152C91.5434 34.5198 91.5434 36.1659 92.5494 37.1705Z" fill="#F0F0F0"/>
<path d="M89.8234 27.5375C92.8049 26.4724 96.0409 27.8643 97.0469 30.6603C98.0529 33.4563 96.453 36.5912 93.4715 37.6684C90.49 38.7336 87.2539 37.3416 86.248 34.5456C85.242 31.7497 86.8419 28.6148 89.8234 27.5375Z" fill="#E0E0E0"/>
<path d="M85.5988 33.8964L86.1602 35.457L97.6806 31.324L97.1192 29.7635L85.5988 33.8964Z" fill="#F0F0F0"/>
<path d="M303.001 451.001C432.785 451.001 537.995 444.866 537.995 437.299C537.995 429.732 432.785 423.598 303.001 423.598C173.217 423.598 68.0059 429.732 68.0059 437.299C68.0059 444.866 173.217 451.001 303.001 451.001Z" fill="#F5F5F5"/>
<path d="M105.104 79.5108C103.892 74.1851 104.437 69.6946 106.728 66.0514C109.031 62.4081 112.824 59.9874 118.133 58.777C123.575 57.5424 128.096 58.0507 131.707 60.302C135.319 62.5534 137.719 66.3055 138.919 71.5586C139.791 75.3713 139.852 78.6514 139.125 81.3869C138.398 84.1223 136.967 86.4463 134.846 88.3587C132.725 90.2711 129.853 91.6388 126.217 92.4619C122.533 93.297 119.345 93.406 116.666 92.7766C113.988 92.1472 111.6 90.7431 109.528 88.5402C107.443 86.3373 105.977 83.3356 105.104 79.5229V79.5108ZM115.212 77.2595C115.963 80.5517 117.115 82.7909 118.666 83.9408C120.218 85.1028 122.048 85.4417 124.169 84.9575C126.338 84.4613 127.853 83.384 128.726 81.7016C129.598 80.0192 129.611 77.3563 128.786 73.701C128.083 70.6266 126.956 68.5205 125.393 67.3828C123.829 66.245 121.987 65.9182 119.854 66.4024C117.818 66.8623 116.339 67.9517 115.442 69.6704C114.533 71.3891 114.461 73.9188 115.224 77.2353L115.212 77.2595Z" fill="#263238"/>
<path d="M143.73 75.5137C142.906 71.9068 143.451 68.6509 145.354 65.7581C147.257 62.8653 150.287 60.9529 154.432 60.0088C159.171 58.9315 163.073 59.4883 166.115 61.6912C168.564 63.4583 170.163 65.9638 170.903 69.2077C171.727 72.8509 171.206 76.1068 169.315 78.9754C167.424 81.844 164.346 83.7685 160.08 84.7368C156.274 85.5962 152.977 85.342 150.19 83.938C146.76 82.2071 144.602 79.3991 143.718 75.5258L143.73 75.5137ZM152.82 73.4319C153.305 75.5379 154.08 77.0025 155.171 77.8135C156.25 78.6244 157.45 78.8907 158.734 78.6002C160.043 78.2976 161.001 77.5593 161.619 76.3731C162.237 75.1869 162.285 73.4924 161.789 71.3016C161.316 69.2561 160.552 67.8157 159.474 67.0169C158.395 66.2059 157.231 65.9396 155.983 66.2301C154.662 66.5327 153.68 67.2832 153.05 68.5056C152.42 69.716 152.335 71.3621 152.82 73.444V73.4319Z" fill="#263238"/>
<path d="M180.078 89.0963L172.648 56.4402L181.145 54.5157L181.944 58.0137C182.781 56.2829 183.641 55.0362 184.502 54.2978C185.665 53.3053 187.047 52.6154 188.659 52.2523C191.822 51.5382 194.549 52.1918 196.828 54.2131C199.106 56.2345 200.658 59.0304 201.47 62.6011C202.367 66.5348 202.1 69.7544 200.694 72.2478C199.276 74.7533 197.131 76.3268 194.246 76.9804C192.852 77.2951 191.519 77.3435 190.259 77.1377C188.998 76.9199 187.811 76.4478 186.683 75.7216L189.253 87.0144L180.09 89.0963H180.078ZM184.453 66.2685C184.878 68.1446 185.593 69.4397 186.586 70.1659C187.58 70.8922 188.683 71.1221 189.883 70.8438C190.938 70.6017 191.725 69.9723 192.246 68.9435C192.768 67.9146 192.78 66.3532 192.307 64.2835C191.871 62.3711 191.18 61.0518 190.235 60.3134C189.289 59.5872 188.283 59.3451 187.205 59.5872C186.041 59.8535 185.181 60.5192 184.611 61.6086C184.041 62.6858 183.993 64.2472 184.453 66.2806V66.2685Z" fill="#263238"/>
<path d="M205.349 66.9941L214.16 64.1013C214.779 65.0817 215.469 65.7353 216.245 66.0379C217.021 66.3405 217.966 66.3768 219.081 66.1226C220.305 65.8442 221.19 65.3722 221.735 64.7065C222.172 64.1981 222.317 63.6655 222.184 63.0845C222.038 62.4309 221.578 62.0073 220.814 61.8015C220.269 61.6563 218.899 61.6442 216.694 61.7531C213.421 61.9226 211.106 61.9105 209.773 61.7168C208.44 61.5232 207.228 60.9664 206.137 60.0465C205.046 59.1266 204.331 57.9525 204.016 56.5243C203.665 54.9629 203.81 53.5225 204.464 52.1911C205.119 50.8597 206.173 49.734 207.64 48.8142C209.106 47.8943 211.179 47.1317 213.845 46.5265C216.669 45.885 218.802 45.6309 220.245 45.7519C221.687 45.8729 222.96 46.2966 224.062 46.9865C225.165 47.6885 226.196 48.7415 227.141 50.1577L218.73 52.9537C218.33 52.2516 217.833 51.7796 217.239 51.5375C216.415 51.2228 215.506 51.1865 214.488 51.4165C213.457 51.6464 212.755 51.9975 212.367 52.4695C211.979 52.9416 211.846 53.4378 211.967 53.9583C212.1 54.5393 212.5 54.9024 213.154 55.0718C213.821 55.2292 215.166 55.205 217.215 54.9871C220.305 54.6482 222.669 54.6119 224.269 54.8782C225.88 55.1565 227.202 55.7617 228.244 56.7179C229.286 57.6741 229.953 58.824 230.256 60.1675C230.571 61.5353 230.45 62.9514 229.929 64.4281C229.395 65.9047 228.329 67.224 226.729 68.3981C225.129 69.5601 222.79 70.4921 219.736 71.1941C215.409 72.1745 212.185 72.2592 210.076 71.4483C207.955 70.6373 206.379 69.1485 205.349 66.9941Z" fill="#263238"/>
<path d="M234.945 37.0488L244.896 36.9883L244.944 44.6137L243.114 59.9492L236.957 59.9855L234.994 44.6742L234.945 37.0488ZM235.43 62.3337L244.714 62.2852L244.763 70.4795L235.479 70.5279L235.43 62.3337Z" fill="#263238"/>
<path d="M155.961 141.167C155.888 141.167 155.815 141.155 155.743 141.131C150.289 139.025 147.028 136.955 145.332 134.486C144.095 134.728 142.726 134.57 141.417 133.953C140.144 133.348 138.92 132.295 138.048 130.782C137.223 131.411 136.217 131.581 135.102 131.242C133.866 130.854 132.594 129.826 131.527 128.325C130.848 128.809 130.157 128.882 129.648 128.845C126.049 128.555 121.164 121.389 120.813 113.752C120.801 113.413 121.055 113.135 121.395 113.122C121.722 113.098 122.013 113.364 122.025 113.703C122.352 120.954 127.006 127.417 129.745 127.635C130.194 127.683 130.557 127.538 130.873 127.296C129.224 124.415 128.376 120.3 129.636 115.906C130.679 112.275 131.6 110.847 132.703 111.113C134.787 111.634 134.521 119.55 133.406 124.778C133.151 125.965 132.787 126.812 132.375 127.417C133.333 128.833 134.46 129.777 135.454 130.092C136.339 130.37 136.993 130.14 137.478 129.668C136.52 127.32 136.327 124.137 137.623 120.058C139.32 114.696 140.011 114.551 140.423 114.466C140.714 114.405 141.005 114.502 141.199 114.732C142.314 115.991 140.981 124.318 139.575 128.434C139.393 128.966 139.163 129.438 138.896 129.838C139.647 131.314 140.762 132.319 141.914 132.864C142.847 133.312 143.805 133.469 144.665 133.384C144.556 133.154 144.459 132.924 144.374 132.682C143.417 130.08 143.877 127.078 145.804 123.507C147.089 121.135 148.131 120.034 149.089 120.034C149.38 120.034 149.901 120.143 150.289 120.833C151.343 122.781 150.58 129.208 148.495 132.392C147.998 133.142 147.319 133.711 146.532 134.086C148.156 136.216 151.234 138.093 156.167 140.005C156.482 140.126 156.64 140.477 156.518 140.792C156.421 141.034 156.191 141.179 155.949 141.179L155.961 141.167ZM149.113 121.232C149.113 121.232 148.422 121.232 146.895 124.076C145.138 127.32 144.701 129.995 145.526 132.259C145.623 132.537 145.744 132.803 145.889 133.069C146.532 132.791 147.089 132.343 147.489 131.738C149.186 129.148 149.998 123.822 149.368 121.74C149.234 121.317 149.101 121.244 149.101 121.244L149.113 121.232ZM140.423 116.136C140.108 116.729 139.587 117.928 138.799 120.409C137.757 123.689 137.757 126.316 138.338 128.337C138.375 128.24 138.411 128.131 138.448 128.034C139.878 123.871 140.569 118.145 140.423 116.136ZM132.436 112.324C132.23 112.517 131.648 113.28 130.8 116.221C129.685 120.106 130.376 123.653 131.685 126.207C131.939 125.686 132.109 125.081 132.23 124.512C133.49 118.569 133.127 113.195 132.436 112.336V112.324Z" fill="#263238"/>
<path d="M202.041 204.603C200.199 204.603 198.248 204.179 196.515 203.162C196.224 202.993 196.127 202.618 196.296 202.339C196.466 202.049 196.842 201.952 197.121 202.121C201.447 204.651 207.035 202.884 208.186 201.044C208.319 200.826 208.441 200.548 208.368 200.233C206.659 200.415 204.55 199.967 202.15 198.454C199.072 196.529 198.829 195.961 198.842 195.501C198.842 195.234 199.011 194.992 199.254 194.871C200.466 194.266 205.932 196.772 208.21 198.272C208.513 198.466 208.756 198.684 208.962 198.902C209.968 198.66 210.756 198.139 211.265 197.51C211.616 197.086 211.858 196.614 211.98 196.154C211.895 196.154 211.822 196.178 211.737 196.178C209.798 196.372 207.859 195.537 205.786 193.637C204.368 192.317 203.811 191.422 203.993 190.695C204.053 190.465 204.247 190.054 204.865 189.909C206.538 189.497 210.683 191.252 212.368 193.104C212.743 193.516 213.01 194.012 213.143 194.532C214.719 193.794 216.403 192.124 218.379 189.364C218.573 189.098 218.949 189.025 219.227 189.219C219.494 189.412 219.567 189.788 219.373 190.066C217.082 193.261 215.179 195.077 213.252 195.815C213.18 196.663 212.828 197.534 212.198 198.285C211.58 199.023 210.683 199.652 209.556 199.991C209.677 200.536 209.556 201.117 209.216 201.674C208.198 203.32 205.265 204.603 202.041 204.603ZM200.963 196.203C201.375 196.505 201.956 196.905 202.793 197.425C204.441 198.454 205.908 198.926 207.156 199.023C205.144 197.776 202.526 196.675 200.963 196.203ZM205.192 191.059C205.265 191.252 205.532 191.748 206.61 192.741C208.416 194.399 210.053 195.15 211.616 194.968C211.749 194.956 211.871 194.932 212.004 194.908C211.919 194.544 211.737 194.206 211.483 193.903C209.774 192.039 206.029 190.853 205.205 191.046L205.192 191.059Z" fill="#263238"/>
<path d="M218.087 202.946L199.204 206.371L182.055 112.918L145.622 119.527L86.2461 224.83L92.6212 259.58L168.783 245.769L173.995 274.189L210.428 267.58L205.216 239.161L224.099 235.735L218.087 202.958V202.946ZM122.521 220.279L153.985 165.122L162.76 212.98L122.521 220.279Z" fill="#407BFF"/>
<path d="M370.181 106.562C369.478 100.111 368.181 94.3738 366.302 89.3507C364.424 84.3397 361.6 79.4135 357.831 74.5962C354.061 69.7789 348.922 65.5909 342.438 62.0445C335.942 58.4981 327.373 56.0289 316.72 54.6491C294.552 51.7684 277.269 55.69 264.87 66.4382C252.471 77.1864 244.315 97.7629 240.388 128.18C238.788 140.55 238.4 151.988 239.2 162.482C240 172.988 241.939 181.424 244.993 187.815C249.175 196.796 255.089 203.962 262.749 209.324C270.397 214.686 280.881 218.232 294.201 219.963C317.956 223.049 335.554 218.498 347.007 206.298C358.461 194.097 366.06 173.484 369.805 144.447C371.478 131.496 371.599 118.86 370.193 106.538L370.181 106.562Z" fill="#407BFF"/>
<path d="M305.146 207.555C302.237 207.458 299.134 207.192 295.923 206.78C284.833 205.34 276.24 202.532 270.41 198.441C264.653 194.41 260.29 189.096 257.09 182.209L257.029 182.088C254.702 177.223 253.175 170.287 252.509 161.476C251.769 151.926 252.145 141.298 253.624 129.885C257.951 96.3328 266.883 82.3287 273.622 76.4947C281.476 69.6924 292.068 66.618 306.019 67.09C308.879 67.1869 311.909 67.4411 315.012 67.8526C323.968 69.0145 331.046 70.9996 336.064 73.735C340.924 76.3858 344.718 79.4359 347.348 82.8008C350.257 86.5288 352.438 90.293 353.832 94.021C355.311 97.979 356.365 102.687 356.947 108.013C358.244 119.282 358.11 130.95 356.595 142.775C353.238 168.847 346.742 187.16 337.3 197.218C330.295 204.686 319.787 208.063 305.17 207.567L305.146 207.555Z" fill="#263238"/>
<path d="M328.864 106.913L329.022 102.325L326.198 101.405C326.076 99.8439 325.822 98.2947 325.446 96.8059L327.834 95.0508L326.21 90.7419L323.252 90.9839C322.549 89.592 321.725 88.2727 320.792 87.026L322.319 84.4721L319.168 81.1193L316.526 82.475C315.338 81.4704 314.078 80.5505 312.744 79.7395L313.169 76.8104L308.975 74.9101L307.06 77.1614C305.594 76.6894 304.079 76.3383 302.515 76.0963L301.8 73.2277L297.194 73.0703L296.285 75.8905C294.71 76.0236 293.171 76.2657 291.68 76.6409L289.91 74.2686L285.596 75.8784L285.838 78.8317C284.444 79.5458 283.123 80.3689 281.875 81.3009L279.33 79.7758L275.96 82.9107L277.318 85.5614C276.312 86.7355 275.391 88.0064 274.591 89.3378L271.658 88.9021L269.743 93.09L272.009 95.0024C271.536 96.467 271.161 97.9921 270.943 99.5413L268.058 100.268L267.9 104.855L270.736 105.775C270.858 107.348 271.112 108.885 271.488 110.374L269.1 112.129L270.724 116.438L273.682 116.196C274.385 117.588 275.209 118.907 276.142 120.154L274.615 122.708L277.766 126.061L280.408 124.705C281.584 125.71 282.856 126.63 284.19 127.441L283.753 130.37L287.947 132.27L289.874 130.019C291.34 130.491 292.855 130.842 294.419 131.084L295.134 133.952L299.74 134.11L300.649 131.29C302.224 131.156 303.763 130.914 305.254 130.539L307.012 132.912L311.326 131.302L311.096 128.348C312.49 127.634 313.811 126.811 315.059 125.879L317.605 127.404L320.974 124.269L319.616 121.619C320.622 120.445 321.544 119.174 322.343 117.842L325.276 118.278L327.191 114.09L324.925 112.178C325.398 110.713 325.761 109.2 325.992 107.639L328.864 106.913ZM297.837 121.764C287.777 121.425 279.911 113.001 280.251 102.955C280.59 92.8963 289.026 85.041 299.085 85.3799C309.145 85.7188 317.011 94.143 316.671 104.201C316.332 114.247 307.896 122.103 297.837 121.764Z" fill="#407BFF"/>
<path opacity="0.3" d="M347.989 191.13L348.316 188.044L346.462 187.281C346.462 186.216 346.365 185.163 346.183 184.146L347.88 183.069L347.019 180.079H345.008C344.595 179.123 344.123 178.179 343.553 177.295L344.705 175.649L342.753 173.229L340.899 174.003C340.16 173.265 339.36 172.587 338.487 171.982L338.935 170.009L336.208 168.508L334.778 169.948C333.797 169.537 332.791 169.234 331.773 168.992L331.433 167.007L328.343 166.656L327.579 168.508C326.512 168.508 325.47 168.617 324.44 168.799L323.361 167.092L320.368 167.963V169.973C319.422 170.384 318.477 170.856 317.58 171.425L315.932 170.263L313.508 172.212L314.283 174.064C313.568 174.802 312.865 175.601 312.259 176.472L310.308 176.037L308.805 178.76L310.235 180.164C309.835 181.157 309.52 182.149 309.278 183.178L307.29 183.505L306.963 186.591L308.817 187.366C308.817 188.419 308.914 189.46 309.096 190.489L307.387 191.566L308.26 194.556H310.272C310.684 195.512 311.156 196.456 311.726 197.339L310.563 198.986L312.502 201.418L314.368 200.632C315.108 201.37 315.907 202.048 316.78 202.653L316.332 204.626L319.059 206.127L320.489 204.699C321.471 205.098 322.476 205.401 323.495 205.643L323.834 207.628L326.925 207.979L327.688 206.115C328.743 206.115 329.797 206.006 330.827 205.824L331.906 207.531L334.887 206.659V204.65C335.845 204.239 336.79 203.767 337.687 203.198L339.323 204.36L341.759 202.423L340.972 200.571C341.711 199.833 342.39 199.034 343.008 198.162L344.959 198.598L346.462 195.875L345.032 194.471C345.432 193.478 345.735 192.486 345.977 191.469L347.977 191.13H347.989ZM332.391 189.932C330.948 192.546 327.664 193.515 325.046 192.074C322.428 190.634 321.483 187.354 322.913 184.739C324.355 182.125 327.627 181.181 330.245 182.609C332.863 184.049 333.833 187.317 332.391 189.932Z" fill="#407BFF"/>
<path d="M365.163 138.83L361.551 136.336C361.2 135.029 360.703 133.758 360.097 132.584L361.018 128.953L355.782 123.349L352.098 124.027C350.958 123.349 349.734 122.768 348.449 122.32L346.207 118.544L338.535 118.277L336.039 121.884C336.039 121.884 336.039 121.884 336.026 121.884C334.717 122.235 333.457 122.732 332.269 123.337L328.633 122.417L323.022 127.646L323.7 131.325C323.01 132.475 322.44 133.71 321.991 134.981L318.21 137.22L317.943 144.882L321.555 147.375C321.907 148.694 322.391 149.953 323.01 151.151L322.088 154.77L327.324 160.374L330.984 159.709C332.136 160.386 333.372 160.967 334.669 161.415L336.911 165.18L344.583 165.446L347.08 161.839C348.401 161.488 349.674 160.992 350.873 160.386L354.485 161.306L360.097 156.078L359.418 152.398C360.109 151.248 360.678 150.014 361.127 148.731L364.908 146.491L365.175 138.83H365.163ZM341.25 150.473C336.475 150.316 332.754 146.31 332.912 141.565C333.069 136.796 337.069 133.08 341.832 133.238C346.607 133.395 350.328 137.389 350.17 142.146C350.013 146.891 346.013 150.631 341.25 150.473Z" fill="white"/>
<path d="M391.525 77.6725L392.155 76.1474C392.604 75.9174 393.04 75.627 393.428 75.3244L394.834 75.3728L396.482 73.0125L395.949 71.7174C396.106 71.2454 396.227 70.7491 396.288 70.2408L397.5 69.1272L396.991 66.2949L395.464 65.6655C395.234 65.2177 394.955 64.794 394.64 64.4067L394.688 63.0027L392.325 61.3566L391.028 61.8891C390.543 61.7197 390.058 61.6107 389.549 61.5502L388.434 60.3398L385.598 60.8482L384.968 62.3733C384.507 62.6033 384.083 62.8816 383.695 63.1963L382.289 63.1479L380.641 65.5082L381.174 66.8033C381.017 67.2753 380.896 67.7716 380.835 68.292L379.623 69.4056L380.132 72.2379L381.659 72.8673C381.889 73.3272 382.18 73.7509 382.495 74.1382L382.447 75.5301L384.81 77.1762L386.107 76.6437C386.592 76.8131 387.077 76.9221 387.586 76.9826L388.713 78.193L391.549 77.6846L391.525 77.6725ZM385.356 69.8171C385.041 68.05 386.216 66.3796 387.974 66.0649C389.743 65.7502 391.416 66.9243 391.731 68.6794C392.046 70.4344 390.87 72.1169 389.113 72.4316C387.356 72.7462 385.671 71.5722 385.356 69.8171Z" fill="#407BFF"/>
<path d="M358.279 69.6441L357.357 68.8695C358.969 66.9692 361.248 64.5605 364.642 62.7812L365.199 63.8585C361.587 65.7467 359.272 68.4821 358.279 69.6562V69.6441Z" fill="#407BFF"/>
<path d="M367.951 62.7595L367.479 61.646C372.06 59.6851 376.847 58.9226 381.707 59.3704L381.598 60.5808C376.944 60.133 372.363 60.8834 367.963 62.7595H367.951Z" fill="#407BFF"/>
<path d="M365.66 71.1348L364.654 70.457C367.139 66.8016 372.06 63.6304 376.617 62.7227L376.847 63.9088C372.581 64.7561 367.975 67.7215 365.648 71.1348H365.66Z" fill="#407BFF"/>
<path d="M285.232 187.608C285.075 187.608 284.917 187.547 284.796 187.426L282.251 184.812C280.954 184.691 279.681 184.449 278.433 184.098L274.47 185.841C274.276 185.925 274.058 185.901 273.888 185.792L267.246 181.399C267.077 181.29 266.968 181.096 266.98 180.89L267.04 176.581C266.228 175.577 265.513 174.487 264.895 173.337L261.489 172.018C261.295 171.945 261.15 171.776 261.114 171.57L259.526 163.775C259.49 163.57 259.55 163.364 259.696 163.219L262.314 160.677C262.435 159.394 262.677 158.111 263.016 156.864L261.271 152.918C261.186 152.725 261.211 152.507 261.32 152.337L265.719 145.704C265.828 145.535 265.998 145.426 266.228 145.438L270.543 145.499C271.561 144.688 272.652 143.974 273.791 143.368L275.112 139.967C275.185 139.774 275.355 139.628 275.561 139.592L283.366 138.006C283.572 137.97 283.778 138.031 283.923 138.176L286.457 140.79C287.741 140.911 289.026 141.153 290.274 141.492L294.225 139.749C294.419 139.665 294.638 139.689 294.807 139.798L301.449 144.191C301.619 144.3 301.728 144.494 301.716 144.7L301.655 149.021C302.467 150.025 303.182 151.115 303.788 152.253L307.194 153.572C307.388 153.645 307.533 153.814 307.57 154.02L309.157 161.815C309.194 162.02 309.133 162.226 308.988 162.371L306.37 164.913C306.249 166.184 306.006 167.467 305.655 168.714L307.4 172.672C307.485 172.865 307.461 173.083 307.351 173.253L302.952 179.873C302.843 180.043 302.661 180.128 302.443 180.14L298.128 180.079C297.122 180.878 296.031 181.592 294.88 182.209L293.559 185.611C293.486 185.804 293.316 185.95 293.11 185.986L285.305 187.571C285.305 187.571 285.22 187.571 285.184 187.571L285.232 187.608ZM278.397 182.851C278.397 182.851 278.506 182.851 278.566 182.875C279.863 183.25 281.209 183.505 282.578 183.626C282.724 183.626 282.857 183.698 282.966 183.807L285.438 186.349L292.589 184.897L293.874 181.592C293.922 181.459 294.032 181.338 294.165 181.278C295.377 180.648 296.528 179.898 297.583 179.038C297.692 178.954 297.813 178.893 297.971 178.905L302.176 178.966L306.212 172.89L304.515 169.041C304.455 168.907 304.455 168.762 304.491 168.629C304.879 167.31 305.121 165.954 305.243 164.623C305.243 164.477 305.315 164.344 305.424 164.235L307.97 161.766L306.515 154.625L303.206 153.342C303.061 153.294 302.952 153.185 302.879 153.051C302.249 151.841 301.497 150.703 300.637 149.65C300.54 149.541 300.492 149.396 300.504 149.251L300.564 145.051L294.48 141.02L290.626 142.715C290.493 142.775 290.347 142.775 290.214 142.739C288.905 142.352 287.547 142.11 286.19 141.989C286.044 141.989 285.911 141.916 285.802 141.807L283.342 139.265L276.191 140.718L274.906 144.022C274.858 144.155 274.749 144.276 274.615 144.337C273.403 144.966 272.264 145.717 271.197 146.576C271.088 146.661 270.943 146.733 270.798 146.709L266.592 146.649L262.556 152.725L264.253 156.574C264.325 156.743 264.325 156.925 264.241 157.094C263.901 158.304 263.647 159.648 263.538 161.004C263.538 161.149 263.465 161.282 263.356 161.391L260.811 163.86L262.265 171.001L265.574 172.284C265.719 172.345 265.84 172.454 265.901 172.599C266.531 173.797 267.283 174.935 268.131 175.976C268.228 176.085 268.277 176.23 268.277 176.375L268.216 180.575L274.3 184.606L278.154 182.912C278.227 182.875 278.312 182.863 278.397 182.863V182.851ZM284.36 178.929C281.293 178.929 278.203 178.058 275.464 176.254C271.864 173.87 269.416 170.239 268.555 166.015C267.695 161.79 268.531 157.494 270.919 153.899C275.852 146.491 285.887 144.446 293.304 149.36C300.722 154.274 302.758 164.308 297.837 171.715C294.735 176.388 289.596 178.929 284.36 178.929ZM271.925 154.564C269.719 157.881 268.943 161.863 269.743 165.773C270.543 169.682 272.809 173.035 276.13 175.238C283.002 179.777 292.286 177.901 296.831 171.05C301.376 164.199 299.498 154.915 292.638 150.364C285.778 145.825 276.482 147.702 271.925 154.564Z" fill="white"/>
<path d="M516.106 213.876L497.09 211.31L509.671 117.13L472.971 112.18L383.95 194.038L379.271 229.054L455.979 239.391L452.149 268.028L488.848 272.979L492.678 244.341L511.695 246.907L516.106 213.876ZM419.849 200.901L466.826 158.138L460.379 206.359L419.849 200.901Z" fill="#407BFF"/>
<path d="M477.686 272.084C477.686 272.084 477.613 272.084 477.577 272.084C477.25 272.024 477.032 271.709 477.092 271.382L505.368 116.538C505.429 116.211 505.744 116.005 506.071 116.054C506.398 116.114 506.616 116.429 506.556 116.756L478.28 271.6C478.231 271.89 477.977 272.096 477.686 272.096V272.084Z" fill="#263238"/>
<path d="M502.774 119.127C502.75 119.672 502.301 120.108 501.744 120.084C501.186 120.059 500.762 119.612 500.786 119.055C500.81 118.498 501.259 118.074 501.816 118.099C502.362 118.123 502.798 118.571 502.774 119.127Z" fill="#263238"/>
<path d="M498.739 140.069C498.714 140.614 498.266 141.049 497.708 141.025C497.151 141.001 496.727 140.553 496.751 139.996C496.775 139.439 497.224 139.016 497.781 139.04C498.327 139.064 498.763 139.512 498.739 140.069Z" fill="#263238"/>
<path d="M494.702 161.006C494.677 161.551 494.229 161.987 493.671 161.963C493.114 161.938 492.69 161.491 492.714 160.934C492.738 160.377 493.187 159.953 493.744 159.978C494.289 160.002 494.726 160.45 494.702 161.006Z" fill="#263238"/>
<path d="M486.752 182.807C486.728 183.352 486.28 183.788 485.722 183.763C485.165 183.739 484.74 183.291 484.765 182.735C484.789 182.178 485.237 181.754 485.795 181.778C486.352 181.803 486.777 182.25 486.752 182.807Z" fill="#263238"/>
<path d="M486.618 202.885C486.593 203.43 486.145 203.866 485.587 203.841C485.03 203.817 484.606 203.369 484.63 202.813C484.654 202.256 485.103 201.832 485.66 201.856C486.218 201.881 486.642 202.328 486.618 202.885Z" fill="#263238"/>
<path d="M482.582 223.827C482.558 224.371 482.11 224.807 481.552 224.783C480.995 224.759 480.57 224.311 480.595 223.754C480.619 223.209 481.067 222.774 481.625 222.798C482.182 222.822 482.607 223.27 482.582 223.827Z" fill="#263238"/>
<path d="M478.547 244.764C478.523 245.309 478.075 245.745 477.517 245.72C476.96 245.696 476.535 245.248 476.56 244.692C476.584 244.135 477.032 243.711 477.59 243.735C478.147 243.76 478.571 244.207 478.547 244.764Z" fill="#263238"/>
<path d="M474.498 265.706C474.474 266.25 474.026 266.686 473.468 266.662C472.911 266.638 472.487 266.19 472.511 265.633C472.535 265.076 472.983 264.653 473.541 264.677C474.098 264.701 474.523 265.149 474.498 265.706Z" fill="#263238"/>
<path d="M485.757 183.374C485.478 183.374 485.224 183.181 485.163 182.89C485.09 182.563 485.296 182.236 485.624 182.176L488.629 181.534C488.957 181.474 489.284 181.668 489.344 181.994C489.417 182.321 489.211 182.648 488.884 182.709L485.878 183.35C485.878 183.35 485.793 183.362 485.745 183.362L485.757 183.374Z" fill="#263238"/>
<path d="M495.804 172.227C495.804 172.227 493.09 179.283 492.181 183.556C491.272 187.828 491.211 197.378 491.211 197.378" fill="#263238"/>
<path d="M491.211 197.983C490.872 197.983 490.605 197.705 490.605 197.378C490.605 196.991 490.666 187.719 491.587 183.422C492.496 179.15 495.126 172.287 495.235 171.996C495.356 171.682 495.708 171.536 496.023 171.645C496.338 171.766 496.496 172.117 496.375 172.432C496.35 172.505 493.672 179.489 492.775 183.676C491.89 187.84 491.817 197.293 491.817 197.378C491.817 197.717 491.539 197.983 491.211 197.983Z" fill="#263238"/>
<path d="M269.61 302.46C271.294 275.348 268.192 226.049 319.229 232.573C373.939 239.569 358.28 303.453 358.28 303.453L269.598 302.46H269.61Z" fill="#263238"/>
<path d="M304.831 286.169C317.134 286.169 327.108 276.209 327.108 263.923C327.108 251.636 317.134 241.676 304.831 241.676C292.528 241.676 282.555 251.636 282.555 263.923C282.555 276.209 292.528 286.169 304.831 286.169Z" fill="white"/>
<path d="M307.763 241.713C297.219 239.909 285.935 247.68 284.82 255.547L326.646 259.384C325.168 250.415 316.138 243.141 307.763 241.713Z" fill="#263238"/>
<path d="M321.882 263.367C321.579 269.176 318.416 273.74 314.792 273.558C311.168 273.376 308.49 268.511 308.793 262.689C309.096 256.879 312.259 252.316 315.883 252.497C319.507 252.679 322.185 257.545 321.882 263.367Z" fill="#263238"/>
<path d="M304.83 287.367C291.886 287.367 281.342 276.849 281.342 263.91C281.342 250.971 291.874 240.453 304.83 240.453C317.787 240.453 328.319 250.971 328.319 263.91C328.319 276.849 317.787 287.367 304.83 287.367ZM304.83 242.886C293.219 242.886 283.766 252.315 283.766 263.922C283.766 275.53 293.207 284.959 304.83 284.959C316.453 284.959 325.895 275.53 325.895 263.922C325.895 252.315 316.453 242.886 304.83 242.886Z" fill="#407BFF"/>
<path opacity="0.3" d="M352.074 301.769C352.074 301.769 351.977 301.769 351.928 301.757C351.601 301.684 351.407 301.358 351.48 301.031C351.516 300.874 355.382 284.461 351.371 267.866C351.298 267.54 351.492 267.213 351.819 267.14C352.134 267.068 352.474 267.261 352.546 267.588C356.631 284.473 352.692 301.152 352.655 301.321C352.583 301.6 352.34 301.781 352.062 301.781L352.074 301.769Z" fill="white"/>
<path opacity="0.3" d="M348.691 258.792C348.461 258.792 348.243 258.658 348.146 258.441C346.582 255.039 344.655 251.929 342.401 249.169C342.195 248.915 342.231 248.528 342.486 248.322C342.74 248.104 343.128 248.152 343.334 248.406C345.649 251.239 347.649 254.446 349.249 257.932C349.394 258.235 349.249 258.598 348.946 258.731C348.861 258.767 348.776 258.792 348.691 258.792Z" fill="white"/>
<path d="M156.021 429.647C155.876 429.647 155.718 429.647 155.573 429.647C152.227 429.55 149.585 426.766 149.682 423.426C149.779 420.085 152.53 417.507 155.912 417.543C155.948 417.543 155.985 417.543 156.033 417.543C159.536 417.543 167.959 413.295 185.582 385.553C186.527 384.064 188.078 383.06 189.824 382.805C191.569 382.551 193.351 383.072 194.672 384.234C216.415 403.164 239.455 414.953 239.685 415.074C242.667 416.587 243.855 420.23 242.34 423.208C240.825 426.185 237.177 427.384 234.195 425.871C233.274 425.411 213.143 415.123 192.017 397.85C177.243 420.025 166.287 429.647 156.021 429.647Z" fill="#263238"/>
<path d="M193.519 383.143C193.349 383.143 193.18 383.143 192.998 383.106C191.01 382.828 189.628 380.988 189.907 379.003C190.768 372.976 189.701 350.402 182.066 332.851C181.375 331.254 181.908 329.39 183.35 328.397C199.955 317.104 235.321 315.749 236.812 315.7C238.811 315.652 240.496 317.201 240.569 319.198C240.641 321.208 239.066 322.878 237.066 322.951C236.739 322.951 205.821 324.149 189.931 332.876C196.694 350.354 198.234 372.14 197.106 380.02C196.852 381.836 195.288 383.143 193.507 383.143H193.519Z" fill="#263238"/>
<path d="M199.629 378.437C197.205 372.736 186.309 373.389 179.91 378.267C176.492 380.882 171.862 388.725 171.377 391.569C170.893 394.414 172.868 396.992 176.25 396.701C180.431 396.338 186.164 390.274 186.164 390.274C182.346 394.014 187.267 396.653 194.624 391.242C198.696 388.241 202.332 384.815 199.629 378.437Z" fill="#407BFF"/>
<path d="M408.092 304.057C408.092 304.057 407.983 304.057 407.922 304.033C407.595 303.936 407.413 303.61 407.51 303.283C409.122 297.667 410.892 294.241 413.207 292.329C412.855 291.118 412.892 289.739 413.389 288.383C413.873 287.064 414.819 285.756 416.249 284.752C415.546 283.989 415.291 282.997 415.534 281.871C415.813 280.612 416.722 279.245 418.128 278.046C417.582 277.417 417.449 276.727 417.437 276.219C417.4 272.612 424.115 267.105 431.69 266.076C432.017 266.015 432.332 266.257 432.369 266.596C432.417 266.923 432.187 267.238 431.847 267.274C424.648 268.254 418.612 273.459 418.637 276.207C418.637 276.654 418.806 277.005 419.073 277.296C421.8 275.396 425.824 274.173 430.32 275.045C434.041 275.759 435.556 276.545 435.374 277.671C435.047 279.789 427.121 280.237 421.812 279.596C420.612 279.45 419.727 279.172 419.085 278.809C417.764 279.886 416.916 281.097 416.697 282.113C416.503 283.021 416.794 283.65 417.303 284.098C419.558 282.936 422.721 282.452 426.902 283.384C432.405 284.595 432.611 285.26 432.732 285.66C432.817 285.95 432.744 286.241 432.538 286.459C431.375 287.681 422.951 287.1 418.721 286.071C418.176 285.938 417.679 285.756 417.267 285.527C415.861 286.41 414.964 287.596 414.516 288.807C414.164 289.775 414.079 290.731 414.237 291.591C414.455 291.457 414.673 291.336 414.904 291.24C417.412 290.053 420.442 290.247 424.175 291.845C426.648 292.91 427.848 293.842 427.933 294.798C427.957 295.076 427.908 295.621 427.242 296.057C425.4 297.279 418.915 297.098 415.546 295.306C414.746 294.883 414.128 294.253 413.679 293.503C411.704 295.306 410.104 298.55 408.638 303.622C408.565 303.888 408.322 304.057 408.056 304.057H408.092ZM414.673 292.765C415.013 293.382 415.51 293.89 416.152 294.241C418.891 295.694 424.272 296.033 426.284 295.21C426.696 295.04 426.757 294.907 426.757 294.907C426.757 294.907 426.696 294.229 423.727 292.958C420.333 291.506 417.618 291.3 415.449 292.329C415.182 292.45 414.928 292.595 414.673 292.765ZM418.709 284.812C418.818 284.849 418.915 284.873 419.024 284.897C423.303 285.938 429.084 286.12 431.06 285.793C430.441 285.539 429.193 285.115 426.648 284.558C423.291 283.82 420.661 284.05 418.697 284.8L418.709 284.812ZM420.236 278.01C420.782 278.216 421.4 278.337 421.982 278.397C428.017 279.111 433.35 278.264 434.15 277.514C433.944 277.332 433.132 276.812 430.114 276.231C426.139 275.48 422.66 276.473 420.236 277.998V278.01Z" fill="#263238"/>
<path d="M250.313 427.624C251.113 427.37 250.847 426.595 249.95 426.595H233.539C202.294 423.291 180.466 427.721 194.222 428.762C207.978 429.803 193.253 429.585 183.205 433.385C173.158 437.186 257.925 438.142 265.645 433.385C272.76 429.004 239.248 431.17 250.313 427.624Z" fill="#263238"/>
<path d="M367.806 432.455L225.032 427.722L219.105 289.473L387.707 293.237L367.806 432.455Z" fill="#407BFF"/>
<path d="M269.609 429.805C269.294 429.805 269.028 429.563 269.003 429.248L257.562 290.394C257.538 290.055 257.78 289.764 258.12 289.74C258.459 289.716 258.75 289.958 258.774 290.297L270.215 429.152C270.24 429.491 269.997 429.781 269.658 429.805C269.646 429.805 269.622 429.805 269.609 429.805Z" fill="#263238"/>
<path d="M367.805 432.456L406.177 426.622L418.26 298.068L387.706 293.238L367.805 432.456Z" fill="#407BFF"/>
<path opacity="0.2" d="M367.805 432.456L406.177 426.622L418.26 298.068L387.706 293.238L367.805 432.456Z" fill="black"/>
<path d="M237.224 401.07L233.709 318.934C233.345 310.364 240.302 303.259 248.895 303.453L355.624 305.838C364.532 306.031 371.271 313.971 370.01 322.783L358.181 405.561C357.115 413.065 350.558 418.56 342.971 418.306L251.598 415.28C243.829 415.026 237.563 408.829 237.236 401.07H237.224Z" fill="#263238"/>
<path d="M248.763 328.664L265.27 329.185L265.137 333.433L254.799 333.106L254.702 336.265L264.289 336.568L264.155 340.635L254.569 340.332L254.447 344.254L265.089 344.593L264.943 349.107L248.133 348.575L248.763 328.664Z" fill="white"/>
<path d="M268.336 349.215L268.967 329.305L279.232 329.631C281.135 329.692 282.589 329.898 283.583 330.261C284.577 330.624 285.377 331.253 285.959 332.149C286.553 333.057 286.819 334.134 286.783 335.405C286.747 336.506 286.48 337.451 285.983 338.237C285.486 339.024 284.82 339.653 283.971 340.125C283.438 340.428 282.711 340.67 281.777 340.84C282.505 341.106 283.026 341.372 283.353 341.626C283.571 341.796 283.886 342.159 284.311 342.704C284.735 343.248 285.001 343.672 285.135 343.962L287.934 349.833L280.978 349.615L277.875 343.43C277.487 342.631 277.123 342.111 276.808 341.856C276.372 341.53 275.875 341.36 275.317 341.348H274.772L274.518 349.409L268.324 349.215H268.336ZM274.905 337.572L277.499 337.656C277.778 337.656 278.323 337.596 279.135 337.438C279.547 337.366 279.887 337.172 280.153 336.845C280.42 336.519 280.565 336.143 280.578 335.708C280.602 335.066 280.408 334.57 280.008 334.207C279.608 333.844 278.844 333.65 277.729 333.614L275.027 333.529L274.893 337.572H274.905Z" fill="white"/>
<path d="M290.008 349.907L290.638 329.996L300.904 330.323C302.807 330.383 304.261 330.589 305.255 330.952C306.249 331.315 307.049 331.945 307.631 332.84C308.225 333.748 308.491 334.825 308.455 336.096C308.418 337.198 308.152 338.142 307.655 338.929C307.158 339.715 306.491 340.345 305.643 340.817C305.11 341.119 304.383 341.362 303.449 341.531C304.176 341.797 304.698 342.064 305.025 342.318C305.243 342.487 305.558 342.85 305.982 343.395C306.394 343.94 306.673 344.363 306.807 344.654L309.606 350.524L302.649 350.306L299.547 344.121C299.159 343.322 298.795 342.802 298.48 342.548C298.044 342.221 297.547 342.051 296.989 342.039H296.444L296.189 350.101L289.996 349.907H290.008ZM296.577 338.263L299.171 338.348C299.45 338.348 299.995 338.287 300.807 338.13C301.219 338.057 301.559 337.864 301.825 337.537C302.092 337.21 302.237 336.835 302.249 336.399C302.274 335.757 302.08 335.261 301.68 334.898C301.28 334.535 300.516 334.341 299.401 334.305L296.698 334.22L296.565 338.263H296.577Z" fill="white"/>
<path d="M310.659 340.61C310.768 337.355 311.75 334.861 313.617 333.106C315.483 331.351 318.04 330.528 321.276 330.625C324.597 330.734 327.118 331.702 328.864 333.542C330.597 335.382 331.421 337.899 331.324 341.107C331.251 343.431 330.791 345.331 329.967 346.795C329.13 348.26 327.967 349.386 326.452 350.16C324.937 350.947 323.082 351.298 320.864 351.225C318.61 351.153 316.768 350.741 315.313 349.979C313.859 349.216 312.708 348.042 311.835 346.469C310.962 344.895 310.575 342.934 310.647 340.61H310.659ZM316.816 340.828C316.756 342.838 317.083 344.29 317.798 345.198C318.513 346.106 319.519 346.566 320.804 346.614C322.125 346.65 323.167 346.263 323.919 345.416C324.67 344.581 325.082 343.043 325.155 340.816C325.216 338.94 324.876 337.56 324.149 336.677C323.422 335.793 322.404 335.321 321.107 335.285C319.858 335.248 318.853 335.648 318.077 336.507C317.301 337.367 316.877 338.807 316.804 340.828H316.816Z" fill="white"/>
<path d="M334.403 351.309L335.033 331.398L345.299 331.725C347.201 331.786 348.656 331.992 349.65 332.355C350.644 332.718 351.443 333.347 352.025 334.243C352.619 335.151 352.886 336.228 352.849 337.499C352.813 338.6 352.546 339.544 352.049 340.331C351.553 341.118 350.886 341.747 350.038 342.219C349.504 342.522 348.777 342.764 347.844 342.933C348.571 343.2 349.092 343.466 349.419 343.72C349.638 343.89 349.953 344.253 350.377 344.797C350.789 345.342 351.068 345.766 351.201 346.056L354.001 351.927L347.044 351.709L343.941 345.524C343.553 344.725 343.19 344.204 342.875 343.95C342.438 343.623 341.941 343.454 341.384 343.442H340.838L340.584 351.503L334.391 351.309H334.403ZM340.972 339.665L343.565 339.75C343.844 339.75 344.39 339.69 345.202 339.532C345.614 339.46 345.953 339.266 346.22 338.939C346.486 338.612 346.632 338.237 346.644 337.801C346.668 337.16 346.474 336.664 346.074 336.301C345.674 335.937 344.911 335.744 343.796 335.707L341.093 335.623L340.96 339.665H340.972Z" fill="white"/>
<path d="M344.207 385.152C343.771 385.152 343.347 384.983 343.031 384.632L332.657 373.29L321.458 383.506C320.803 384.099 319.797 384.051 319.216 383.409L308.841 372.068L297.642 382.283C296.988 382.876 295.982 382.828 295.4 382.187L285.025 370.845L273.826 381.061C273.511 381.351 273.099 381.497 272.687 381.472C272.263 381.448 271.863 381.267 271.584 380.952L261.209 369.611L250.01 379.826C249.368 380.419 248.35 380.371 247.768 379.729C247.174 379.076 247.223 378.071 247.865 377.49L260.24 366.197C260.882 365.604 261.9 365.653 262.482 366.294L272.857 377.636L284.056 367.42C284.371 367.129 284.783 366.984 285.195 367.008C285.619 367.033 286.019 367.214 286.298 367.529L296.672 378.87L307.871 368.654C308.514 368.061 309.532 368.11 310.114 368.751L320.488 380.093L331.687 369.877C332.33 369.284 333.335 369.332 333.929 369.974L345.383 382.489C345.977 383.143 345.928 384.147 345.286 384.728C344.983 385.007 344.595 385.14 344.219 385.14L344.207 385.152Z" fill="white"/>
<path d="M152.409 435.383L144.822 431.776L138.059 398.89L141.731 394.859L152.409 435.383Z" fill="#407BFF"/>
<path d="M152.408 435.383L162.468 429.513L153.85 402.424L141.73 394.859L152.408 435.383Z" fill="#407BFF"/>
<path opacity="0.2" d="M152.408 435.383L162.468 429.513L153.85 402.424L141.73 394.859L152.408 435.383Z" fill="black"/>
<path d="M317.483 441.363C317.192 441.363 316.913 441.363 316.647 441.363C313.302 441.267 310.66 438.483 310.756 435.142C310.853 431.801 313.617 429.175 316.986 429.26C326.319 429.562 346.086 423.837 357.37 412.895C358.073 412.218 358.921 411.721 359.855 411.443C378.992 405.706 386.107 417.289 386.41 417.785L375.974 423.946C375.974 423.946 376.011 424.031 376.12 424.164C375.998 424.007 373.296 420.484 364.666 422.663C350.498 435.578 328.755 441.363 317.507 441.363H317.483Z" fill="#263238"/>
<path d="M316.804 449.411L294.733 448.019L293 407.387L322.658 408.488L316.804 449.411Z" fill="#407BFF"/>
<path d="M316.803 449.411L321.966 444.279L325.166 418.946L322.657 408.488L316.803 449.411Z" fill="#407BFF"/>
<path opacity="0.2" d="M316.803 449.411L321.966 444.279L325.166 418.946L322.657 408.488L316.803 449.411Z" fill="black"/>
<path d="M444.694 434.016C443.931 434.016 443.155 433.774 442.5 433.277C429.908 423.715 412.867 406.734 406.334 390.357C406.237 390.115 406.165 389.873 406.128 389.619C402.941 370.701 399.899 330.867 399.765 329.185C399.608 327.187 401.111 325.444 403.11 325.287C405.11 325.142 406.855 326.631 407.013 328.628C407.049 329.039 410.116 369.26 413.231 388.021C419.751 403.95 437.422 420.302 446.9 427.492C448.5 428.702 448.815 430.978 447.591 432.575C446.876 433.519 445.785 434.004 444.694 434.004V434.016Z" fill="#263238"/>
<path d="M461.505 435.856C458.693 435.856 455.505 434.585 452.039 432.079C450.415 430.905 450.051 428.63 451.227 427.008C452.403 425.386 454.681 425.023 456.305 426.197C459.311 428.363 460.947 428.605 461.517 428.605C463.529 428.605 465.153 430.227 465.153 432.237C465.153 434.246 463.529 435.868 461.517 435.868L461.505 435.856Z" fill="#263238"/>
<path d="M453.046 431.971C456.936 420.424 472.886 422.712 478.376 424.419C483.867 426.137 488.812 428.292 491.793 430.228C494.763 432.165 494.811 435.421 490.848 437.273C485.951 439.56 473.686 437.527 473.686 437.527C480.037 440.299 473.674 444.753 462.523 440.384C458.9 438.955 451.664 436.196 453.034 431.959L453.046 431.971Z" fill="#407BFF"/>
<path d="M414.334 334.16C412.891 343.964 404.759 351.202 398.141 350.222C391.524 349.253 391.257 340.49 392.7 330.686C394.142 320.882 396.76 313.741 403.377 314.709C409.995 315.677 415.788 324.344 414.334 334.148V334.16Z" fill="#263238"/>
<path d="M254.375 295.016C254.924 295.016 255.369 294.572 255.369 294.024C255.369 293.476 254.924 293.031 254.375 293.031C253.826 293.031 253.381 293.476 253.381 294.024C253.381 294.572 253.826 295.016 254.375 295.016Z" fill="#263238"/>
<path d="M264.47 301.176C264.47 301.721 264.022 302.169 263.476 302.169C262.931 302.169 262.482 301.721 262.482 301.176C262.482 300.631 262.931 300.184 263.476 300.184C264.022 300.184 264.47 300.631 264.47 301.176Z" fill="#263238"/>
<path d="M265.574 418.461C265.574 419.006 265.125 419.454 264.58 419.454C264.034 419.454 263.586 419.006 263.586 418.461C263.586 417.917 264.034 417.469 264.58 417.469C265.125 417.469 265.574 417.917 265.574 418.461Z" fill="#263238"/>
<path d="M274.687 425.606C274.687 426.15 274.238 426.598 273.693 426.598C273.148 426.598 272.699 426.15 272.699 425.606C272.699 425.061 273.148 424.613 273.693 424.613C274.238 424.613 274.687 425.061 274.687 425.606Z" fill="#263238"/>
<path d="M100.003 437.518C97.1181 437.518 93.2154 435.775 91.1187 432.737C90.9247 432.459 90.9974 432.084 91.2762 431.89C91.555 431.696 91.9307 431.769 92.1246 432.047C94.3911 435.303 99.3724 437.046 101.59 436.017C101.821 435.908 102.015 435.775 102.16 435.606C100.184 434.698 98.3785 432.907 97.8816 430.183C97.6029 428.646 97.3847 426.576 98.6573 426.286C100.39 425.898 102.669 430.098 103.542 433.282C103.699 433.875 103.76 434.42 103.699 434.904C104.463 435.109 105.214 435.17 105.869 435.073C106.39 435.001 107.141 434.783 107.529 434.165C106.063 433.173 105.069 431.418 104.742 429.094C104.269 425.79 104.62 425.209 104.996 424.93C105.238 424.749 105.541 424.712 105.832 424.833C107.129 425.39 108.705 430.074 108.996 432.737C109.032 433.028 109.032 433.306 108.996 433.572C109.493 433.766 110.038 433.875 110.632 433.887C111.686 433.947 112.716 433.609 113.553 433.124C113.383 433.015 113.213 432.894 113.068 432.761C111.807 431.684 111.298 429.977 111.517 427.52C111.686 425.62 112.11 424.591 112.874 424.264C113.141 424.143 113.686 424.034 114.341 424.555C115.65 425.596 116.874 428.912 116.437 431.285C116.34 431.781 116.134 432.241 115.831 432.677C118.049 433.064 121.188 432.435 123.879 431.769C124.206 431.684 124.533 431.89 124.618 432.217C124.703 432.543 124.497 432.87 124.17 432.955C120.885 433.766 117.346 434.42 114.85 433.705C113.735 434.589 112.171 435.122 110.608 435.109C109.893 435.097 109.226 434.964 108.62 434.734C108.147 435.545 107.25 436.09 106.05 436.271C105.251 436.392 104.293 436.32 103.336 436.041C103.057 436.501 102.657 436.865 102.111 437.119C101.53 437.385 100.815 437.518 100.027 437.518H100.003ZM98.9603 427.496C98.8876 427.678 98.7664 428.295 99.0573 429.965C99.4572 432.192 100.899 433.669 102.499 434.456C102.499 434.202 102.439 433.911 102.354 433.596C101.396 430.135 99.5905 427.75 98.9482 427.496H98.9603ZM105.711 426.443C105.711 426.903 105.747 427.666 105.929 428.937C106.172 430.667 106.814 431.987 107.772 432.834C107.493 430.401 106.414 427.593 105.711 426.443ZM113.335 425.39C113.335 425.39 112.874 425.62 112.704 427.641C112.523 429.675 112.898 431.055 113.832 431.854C114.05 432.035 114.292 432.192 114.559 432.313C114.898 431.938 115.14 431.515 115.213 431.067C115.54 429.312 114.704 426.746 113.759 425.705C113.516 425.439 113.359 425.378 113.322 425.378L113.335 425.39Z" fill="#263238"/>
<path d="M277.39 446.671L280.674 440.982L277.39 435.293H273.875L275.863 440.982L273.875 446.671H277.39Z" fill="#263238"/>
<path d="M274.105 443.946C272.469 443.946 271.136 442.615 271.136 440.981C271.136 439.347 272.469 438.028 274.105 438.028L268.518 436.914L267.039 441.417L269.536 445.217L274.105 443.946Z" fill="#263238"/>
<path d="M274.59 435.293H268.009L264.725 440.982L268.009 446.671H274.59L277.875 440.982L274.59 435.293ZM271.306 443.947C269.67 443.947 268.336 442.616 268.336 440.982C268.336 439.348 269.67 438.028 271.306 438.028C272.942 438.028 274.263 439.348 274.263 440.982C274.263 442.616 272.942 443.947 271.306 443.947Z" fill="#407BFF"/>
<path d="M506.483 434.906L504.047 430.681L506.483 426.457H509.089L507.622 430.681L509.089 434.906H506.483Z" fill="#407BFF"/>
<path d="M508.92 432.885C510.132 432.885 511.126 431.892 511.126 430.682C511.126 429.471 510.132 428.491 508.92 428.491L513.065 427.668L514.168 431.009L512.314 433.829L508.92 432.885Z" fill="#407BFF"/>
<path d="M508.567 426.457H513.451L515.887 430.681L513.451 434.906H508.567L506.131 430.681L508.567 426.457ZM511.003 432.884C512.215 432.884 513.209 431.892 513.209 430.681C513.209 429.471 512.215 428.49 511.003 428.49C509.791 428.49 508.809 429.471 508.809 430.681C508.809 431.892 509.791 432.884 511.003 432.884Z" fill="#263238"/>
<path d="M415.654 440.52H421.132C422.563 440.52 423.726 439.358 423.726 437.93C423.726 436.502 422.563 435.34 421.132 435.34H415.654C414.224 435.34 413.061 436.502 413.061 437.93C413.061 439.358 414.224 440.52 415.654 440.52Z" fill="#263238"/>
<path d="M406.904 435.631C408.262 432.763 411.534 431.467 414.225 432.738C416.915 434.009 418.006 437.35 416.649 440.219C415.291 443.087 412.019 444.382 409.328 443.111C406.638 441.84 405.547 438.5 406.904 435.631Z" fill="#407BFF"/>
<path d="M408.393 443.102L409.895 443.809L415.114 432.751L413.612 432.044L408.393 443.102Z" fill="#263238"/>
</g>
<defs>
<clipPath id="clip0_579_15256">
<rect width="606" height="451" fill="white"/>
</clipPath>
</defs>
</svg>
