<svg width="312" height="266" viewBox="0 0 312 266" fill="none" xmlns="http://www.w3.org/2000/svg">
<path fill-rule="evenodd" clip-rule="evenodd" d="M165.421 18.1641L222.975 33.5856L265.107 75.7181L280.529 133.272L265.107 190.826L222.975 232.959L165.421 248.38L107.867 232.959L65.7341 190.826L50.3125 133.272L65.7341 75.7181L107.867 33.5856L165.421 18.1641Z" fill="#D9D9D9" stroke="#E5E6EB" stroke-width="0.548134"/>
<path fill-rule="evenodd" clip-rule="evenodd" d="M165.42 41.1875L211.464 53.5247L245.17 87.2307L257.507 133.274L245.17 179.317L211.464 213.023L165.42 225.36L119.377 213.023L85.6712 179.317L73.334 133.274L85.6712 87.2307L119.377 53.5247L165.42 41.1875Z" fill="white" stroke="#E5E6EB" stroke-width="0.548134"/>
<path fill-rule="evenodd" clip-rule="evenodd" d="M165.42 64.207L199.953 73.46L225.232 98.7394L234.485 133.272L225.232 167.804L199.953 193.084L165.42 202.337L130.888 193.084L105.608 167.804L96.3555 133.272L105.608 98.7394L130.888 73.46L165.42 64.207Z" fill="#D9D9D9" stroke="#E5E6EB" stroke-width="0.548134"/>
<path fill-rule="evenodd" clip-rule="evenodd" d="M165.42 87.2305L188.442 93.3991L205.295 110.252L211.463 133.274L205.295 156.295L188.442 173.148L165.42 179.317L142.399 173.148L125.546 156.295L119.377 133.274L125.546 110.252L142.399 93.3991L165.42 87.2305Z" fill="white" stroke="#E5E6EB" stroke-width="0.548134"/>
<path fill-rule="evenodd" clip-rule="evenodd" d="M165.422 110.25L176.933 113.334L185.359 121.761L188.444 133.272L185.359 144.782L176.933 153.209L165.422 156.293L153.911 153.209L145.485 144.782L142.4 133.272L145.485 121.761L153.911 113.334L165.422 110.25Z" fill="#D9D9D9" stroke="#E5E6EB" stroke-width="0.548134"/>
<path d="M165.422 133.272V18.1641" stroke="#E5E6EB" stroke-width="0.548134"/>
<path d="M165.422 133.272L222.976 33.5859" stroke="#E5E6EB" stroke-width="0.548134"/>
<path d="M165.422 133.273L265.108 75.7188" stroke="#E5E6EB" stroke-width="0.548134"/>
<path d="M165.422 133.273H280.53" stroke="#E5E6EB" stroke-width="0.548134"/>
<path d="M165.422 133.273L265.108 190.827" stroke="#E5E6EB" stroke-width="0.548134"/>
<path d="M165.422 133.273L222.976 232.96" stroke="#E5E6EB" stroke-width="0.548134"/>
<path d="M165.422 133.273V248.381" stroke="#E5E6EB" stroke-width="0.548134"/>
<path d="M165.419 133.273L107.865 232.96" stroke="#E5E6EB" stroke-width="0.548134"/>
<path d="M165.419 133.273L65.7324 190.827" stroke="#E5E6EB" stroke-width="0.548134"/>
<path d="M165.421 133.273H50.3125" stroke="#E5E6EB" stroke-width="0.548134"/>
<path d="M165.419 133.273L65.7324 75.7188" stroke="#E5E6EB" stroke-width="0.548134"/>
<path d="M165.419 133.272L107.865 33.5859" stroke="#E5E6EB" stroke-width="0.548134"/>
<path d="M163.571 22.8514C163.312 22.8514 163.08 22.8027 162.875 22.7054C162.67 22.6068 162.507 22.4718 162.386 22.3005C162.267 22.1292 162.203 21.9333 162.195 21.7127H162.896C162.909 21.8762 162.98 22.0098 163.108 22.1137C163.237 22.2162 163.391 22.2674 163.571 22.2674C163.713 22.2674 163.839 22.235 163.949 22.1701C164.059 22.1052 164.146 22.015 164.21 21.8995C164.273 21.784 164.305 21.6523 164.303 21.5044C164.305 21.3539 164.273 21.2202 164.208 21.1034C164.143 20.9866 164.054 20.8951 163.941 20.829C163.828 20.7615 163.699 20.7277 163.552 20.7277C163.433 20.7265 163.315 20.7485 163.2 20.7939C163.084 20.8393 162.993 20.899 162.925 20.973L162.273 20.8659L162.481 18.8104H164.794V19.4139H163.079L162.964 20.4708H162.987C163.061 20.3839 163.166 20.3118 163.301 20.2547C163.436 20.1964 163.584 20.1672 163.745 20.1672C163.986 20.1672 164.201 20.2243 164.391 20.3384C164.58 20.4513 164.73 20.6071 164.839 20.8056C164.948 21.0042 165.002 21.2312 165.002 21.4869C165.002 21.7503 164.941 21.9852 164.819 22.1915C164.698 22.3965 164.53 22.5581 164.315 22.6762C164.101 22.793 163.853 22.8514 163.571 22.8514ZM167.128 22.8728C166.807 22.8728 166.532 22.7917 166.302 22.6295C166.074 22.466 165.898 22.2304 165.775 21.9229C165.653 21.6141 165.592 21.2423 165.592 20.8076C165.593 20.3728 165.655 20.003 165.777 19.6981C165.9 19.3918 166.076 19.1582 166.304 18.9973C166.534 18.8364 166.808 18.7559 167.128 18.7559C167.447 18.7559 167.721 18.8364 167.951 18.9973C168.181 19.1582 168.357 19.3918 168.479 19.6981C168.602 20.0043 168.663 20.3741 168.663 20.8076C168.663 21.2436 168.602 21.616 168.479 21.9248C168.357 22.2324 168.181 22.4673 167.951 22.6295C167.723 22.7917 167.448 22.8728 167.128 22.8728ZM167.128 22.2635C167.377 22.2635 167.573 22.1409 167.717 21.8956C167.863 21.6491 167.935 21.2864 167.935 20.8076C167.935 20.4909 167.902 20.2249 167.836 20.0095C167.77 19.7941 167.677 19.6319 167.556 19.5229C167.435 19.4126 167.292 19.3574 167.128 19.3574C166.88 19.3574 166.684 19.4807 166.54 19.7272C166.396 19.9725 166.323 20.3326 166.322 20.8076C166.321 21.1255 166.352 21.3928 166.417 21.6095C166.483 21.8262 166.577 21.9897 166.697 22.1C166.818 22.209 166.962 22.2635 167.128 22.2635Z" fill="#1D2129"/>
<path d="M162.022 44.1314V43.5572L163.714 40.8847H164.193V41.7022H163.901L162.762 43.5066V43.5377H165.123V44.1314H162.022ZM163.924 44.8711V43.9562L163.932 43.6993V40.8847H164.613V44.8711H163.924ZM167.219 44.947C166.898 44.947 166.623 44.8659 166.393 44.7037C166.165 44.5402 165.989 44.3047 165.866 43.9971C165.744 43.6883 165.683 43.3165 165.683 42.8818C165.684 42.4471 165.746 42.0772 165.868 41.7723C165.991 41.466 166.167 41.2324 166.395 41.0715C166.625 40.9106 166.899 40.8302 167.219 40.8302C167.538 40.8302 167.812 40.9106 168.042 41.0715C168.272 41.2324 168.448 41.466 168.57 41.7723C168.693 42.0785 168.754 42.4484 168.754 42.8818C168.754 43.3178 168.693 43.6902 168.57 43.9991C168.448 44.3066 168.272 44.5415 168.042 44.7037C167.814 44.8659 167.539 44.947 167.219 44.947ZM167.219 44.3378C167.468 44.3378 167.664 44.2151 167.808 43.9699C167.954 43.7233 168.026 43.3606 168.026 42.8818C168.026 42.5651 167.993 42.2991 167.927 42.0837C167.861 41.8683 167.768 41.7061 167.647 41.5971C167.526 41.4868 167.383 41.4316 167.219 41.4316C166.971 41.4316 166.775 41.5549 166.631 41.8015C166.487 42.0467 166.414 42.4068 166.413 42.8818C166.412 43.1997 166.443 43.467 166.508 43.6837C166.574 43.9004 166.668 44.0639 166.788 44.1742C166.909 44.2833 167.053 44.3378 167.219 44.3378Z" fill="#1D2129"/>
<path d="M163.565 66.9998C163.285 66.9998 163.036 66.9518 162.818 66.8558C162.601 66.7597 162.43 66.6261 162.304 66.4548C162.178 66.2835 162.111 66.0856 162.104 65.8611H162.835C162.842 65.9688 162.878 66.0629 162.942 66.1434C163.007 66.2225 163.094 66.2842 163.201 66.3283C163.309 66.3724 163.43 66.3945 163.563 66.3945C163.706 66.3945 163.833 66.3698 163.943 66.3205C164.053 66.2699 164.14 66.1998 164.202 66.1103C164.264 66.0207 164.295 65.9176 164.293 65.8008C164.295 65.6801 164.263 65.5737 164.2 65.4815C164.136 65.3894 164.044 65.3174 163.923 65.2655C163.804 65.2136 163.66 65.1876 163.491 65.1876H163.139V64.6309H163.491C163.63 64.6309 163.752 64.6069 163.855 64.5589C163.96 64.5109 164.043 64.4434 164.103 64.3565C164.162 64.2682 164.191 64.1664 164.19 64.0509C164.191 63.938 164.166 63.84 164.114 63.757C164.064 63.6726 163.992 63.6071 163.898 63.5604C163.806 63.5136 163.698 63.4903 163.573 63.4903C163.451 63.4903 163.338 63.5123 163.234 63.5565C163.131 63.6006 163.047 63.6635 162.983 63.7453C162.92 63.8257 162.886 63.9218 162.882 64.0334H162.187C162.192 63.8102 162.257 63.6142 162.38 63.4455C162.504 63.2755 162.671 63.1432 162.878 63.0484C163.086 62.9524 163.319 62.9044 163.577 62.9044C163.843 62.9044 164.074 62.9543 164.27 63.0543C164.467 63.1529 164.62 63.2859 164.727 63.4533C164.835 63.6207 164.889 63.8056 164.889 64.008C164.89 64.2325 164.824 64.4207 164.69 64.5725C164.558 64.7244 164.384 64.8236 164.169 64.8703V64.9015C164.449 64.9404 164.664 65.0442 164.813 65.2129C164.964 65.3803 165.038 65.5886 165.037 65.8378C165.037 66.061 164.973 66.2608 164.846 66.4373C164.72 66.6125 164.546 66.75 164.324 66.8499C164.104 66.9499 163.851 66.9998 163.565 66.9998ZM167.179 67.0212C166.858 67.0212 166.583 66.9401 166.353 66.7779C166.125 66.6144 165.949 66.3789 165.826 66.0713C165.704 65.7625 165.643 65.3907 165.643 64.956C165.644 64.5213 165.706 64.1514 165.828 63.8465C165.951 63.5402 166.127 63.3067 166.355 63.1457C166.585 62.9848 166.859 62.9044 167.179 62.9044C167.498 62.9044 167.772 62.9848 168.002 63.1457C168.232 63.3067 168.407 63.5402 168.529 63.8465C168.653 64.1527 168.714 64.5226 168.714 64.956C168.714 65.392 168.653 65.7644 168.529 66.0733C168.407 66.3808 168.232 66.6157 168.002 66.7779C167.773 66.9401 167.499 67.0212 167.179 67.0212ZM167.179 66.412C167.428 66.412 167.624 66.2893 167.768 66.0441C167.914 65.7975 167.986 65.4348 167.986 64.956C167.986 64.6394 167.953 64.3733 167.887 64.1579C167.821 63.9425 167.727 63.7803 167.607 63.6713C167.486 63.561 167.343 63.5059 167.179 63.5059C166.931 63.5059 166.735 63.6291 166.591 63.8757C166.447 64.1209 166.374 64.481 166.373 64.956C166.371 65.2739 166.403 65.5412 166.468 65.7579C166.534 65.9747 166.628 66.1382 166.748 66.2485C166.869 66.3575 167.012 66.412 167.179 66.412Z" fill="#1D2129"/>
<path d="M162.218 89.0195V88.4979L163.602 87.1412C163.734 87.0075 163.844 86.8888 163.932 86.785C164.021 86.6811 164.087 86.5806 164.131 86.4832C164.175 86.3859 164.197 86.2821 164.197 86.1718C164.197 86.0459 164.169 85.9382 164.112 85.8487C164.054 85.7579 163.976 85.6878 163.876 85.6385C163.776 85.5892 163.663 85.5645 163.535 85.5645C163.404 85.5645 163.289 85.5917 163.191 85.6463C163.092 85.6995 163.016 85.7754 162.961 85.874C162.908 85.9726 162.881 86.0901 162.881 86.2263H162.194C162.194 85.9733 162.252 85.7533 162.368 85.5664C162.483 85.3796 162.642 85.2349 162.844 85.1324C163.048 85.0299 163.282 84.9786 163.545 84.9786C163.812 84.9786 164.047 85.0286 164.25 85.1285C164.452 85.2284 164.609 85.3653 164.721 85.5392C164.834 85.7131 164.89 85.9116 164.89 86.1348C164.89 86.2841 164.862 86.4307 164.805 86.5747C164.747 86.7188 164.647 86.8784 164.503 87.0536C164.36 87.2288 164.16 87.4409 163.901 87.6901L163.214 88.3889V88.4161H164.951V89.0195H162.218ZM167.096 89.0954C166.775 89.0954 166.5 89.0143 166.27 88.8521C166.042 88.6886 165.866 88.4531 165.743 88.1456C165.621 87.8367 165.56 87.4649 165.56 87.0302C165.561 86.5955 165.623 86.2257 165.745 85.9207C165.868 85.6145 166.044 85.3809 166.272 85.22C166.502 85.0591 166.776 84.9786 167.096 84.9786C167.415 84.9786 167.689 85.0591 167.919 85.22C168.149 85.3809 168.324 85.6145 168.446 85.9207C168.57 86.227 168.631 86.5968 168.631 87.0302C168.631 87.4662 168.57 87.8387 168.446 88.1475C168.324 88.455 168.149 88.6899 167.919 88.8521C167.691 89.0143 167.416 89.0954 167.096 89.0954ZM167.096 88.4862C167.345 88.4862 167.541 88.3636 167.685 88.1183C167.831 87.8717 167.903 87.509 167.903 87.0302C167.903 86.7136 167.87 86.4476 167.804 86.2321C167.738 86.0167 167.644 85.8545 167.524 85.7455C167.403 85.6352 167.26 85.5801 167.096 85.5801C166.848 85.5801 166.652 85.7033 166.508 85.9499C166.364 86.1952 166.291 86.5553 166.29 87.0302C166.288 87.3481 166.32 87.6155 166.385 87.8322C166.451 88.0489 166.545 88.2124 166.665 88.3227C166.786 88.4317 166.929 88.4862 167.096 88.4862Z" fill="#1D2129"/>
<path d="M164.224 107.107V111.094H163.502V107.81H163.479L162.547 108.406V107.744L163.537 107.107H164.224ZM166.71 111.17C166.39 111.17 166.115 111.089 165.885 110.926C165.656 110.763 165.481 110.527 165.357 110.22C165.235 109.911 165.174 109.539 165.174 109.104C165.176 108.67 165.237 108.3 165.359 107.995C165.483 107.689 165.658 107.455 165.887 107.294C166.116 107.133 166.391 107.053 166.71 107.053C167.029 107.053 167.304 107.133 167.534 107.294C167.763 107.455 167.939 107.689 168.061 107.995C168.184 108.301 168.246 108.671 168.246 109.104C168.246 109.54 168.184 109.913 168.061 110.222C167.939 110.529 167.763 110.764 167.534 110.926C167.305 111.089 167.031 111.17 166.71 111.17ZM166.71 110.56C166.959 110.56 167.156 110.438 167.3 110.193C167.445 109.946 167.518 109.583 167.518 109.104C167.518 108.788 167.485 108.522 167.419 108.306C167.352 108.091 167.259 107.929 167.138 107.82C167.018 107.709 166.875 107.654 166.71 107.654C166.462 107.654 166.266 107.778 166.122 108.024C165.978 108.269 165.906 108.629 165.904 109.104C165.903 109.422 165.935 109.69 166 109.906C166.066 110.123 166.159 110.287 166.28 110.397C166.401 110.506 166.544 110.56 166.71 110.56Z" fill="#1D2129"/>
<path fill-rule="evenodd" clip-rule="evenodd" d="M165.418 87.2319L194.195 83.4318L225.23 98.7427L245.994 133.275L245.167 179.318L168.296 138.259L165.418 218.455L132.612 190.096L139.499 148.239L147.001 133.275L154.452 126.944L126.281 65.4883L165.418 87.2319Z" stroke="#142245" stroke-width="1.09627"/>
<circle cx="165.693" cy="87.5038" r="1.91847" fill="#090909" stroke="white" stroke-width="0.548134"/>
<circle cx="194.471" cy="83.703" r="1.91847" fill="#090909" stroke="white" stroke-width="0.548134"/>
<circle cx="225.506" cy="99.0155" r="1.91847" fill="#090909" stroke="white" stroke-width="0.548134"/>
<circle cx="246.271" cy="133.547" r="1.91847" fill="#090909" stroke="white" stroke-width="0.548134"/>
<circle cx="245.443" cy="179.59" r="1.91847" fill="#090909" stroke="white" stroke-width="0.548134"/>
<circle cx="168.572" cy="138.531" r="1.91847" fill="#090909" stroke="white" stroke-width="0.548134"/>
<circle cx="165.693" cy="218.73" r="1.91847" fill="#090909" stroke="white" stroke-width="0.548134"/>
<circle cx="132.887" cy="190.371" r="1.91847" fill="#090909" stroke="white" stroke-width="0.548134"/>
<circle cx="139.775" cy="148.512" r="1.91847" fill="#090909" stroke="white" stroke-width="0.548134"/>
<circle cx="147.275" cy="133.547" r="1.91847" fill="#090909" stroke="white" stroke-width="0.548134"/>
<circle cx="154.726" cy="127.219" r="1.91847" fill="#090909" stroke="white" stroke-width="0.548134"/>
<circle cx="126.557" cy="65.7616" r="1.91847" fill="#090909" stroke="white" stroke-width="0.548134"/>
<path fill-rule="evenodd" clip-rule="evenodd" d="M165.42 130.971L170.024 125.298L197.32 114.855L247.147 133.273L169.408 135.575L186.14 169.16L165.42 170.107L158.514 145.235L127.539 155.143L122.83 133.273L148.473 123.489L157.362 119.317L165.42 130.971Z" stroke="#B3B3B3" stroke-width="1.09627"/>
<circle cx="165.689" cy="131.25" r="1.91847" fill="#142245" stroke="white" stroke-width="0.548134"/>
<circle cx="170.295" cy="125.574" r="1.91847" fill="#142245" stroke="white" stroke-width="0.548134"/>
<circle cx="197.592" cy="115.133" r="1.91847" fill="#142245" stroke="white" stroke-width="0.548134"/>
<circle cx="247.418" cy="133.551" r="1.91847" fill="#142245" stroke="white" stroke-width="0.548134"/>
<circle cx="169.68" cy="135.851" r="1.91847" fill="#142245" stroke="white" stroke-width="0.548134"/>
<circle cx="186.412" cy="169.437" r="1.91847" fill="#142245" stroke="white" stroke-width="0.548134"/>
<circle cx="165.689" cy="170.383" r="1.91847" fill="#142245" stroke="white" stroke-width="0.548134"/>
<circle cx="158.785" cy="145.512" r="1.91847" fill="#142245" stroke="white" stroke-width="0.548134"/>
<circle cx="127.81" cy="155.422" r="1.91847" fill="#142245" stroke="white" stroke-width="0.548134"/>
<circle cx="123.101" cy="133.551" r="1.91847" fill="#142245" stroke="white" stroke-width="0.548134"/>
<circle cx="148.744" cy="123.765" r="1.91847" fill="#142245" stroke="white" stroke-width="0.548134"/>
<circle cx="157.635" cy="119.594" r="1.91847" fill="#142245" stroke="white" stroke-width="0.548134"/>
<path d="M149.333 3.26219V6.93093C149.333 7.38495 149.194 7.74377 148.916 8.00739C148.643 8.27101 148.281 8.40282 147.832 8.40282C147.383 8.40282 147.019 8.27101 146.741 8.00739C146.468 7.74377 146.331 7.38495 146.331 6.93093H147.173C147.178 7.1555 147.234 7.33369 147.342 7.4655C147.454 7.59731 147.617 7.66322 147.832 7.66322C148.047 7.66322 148.211 7.59731 148.323 7.4655C148.435 7.32881 148.491 7.15062 148.491 6.93093V3.26219H149.333ZM150.413 6.31581C150.413 5.91062 150.496 5.5518 150.662 5.23936C150.833 4.92692 151.062 4.68526 151.35 4.5144C151.643 4.33865 151.966 4.25077 152.317 4.25077C152.634 4.25077 152.91 4.31424 153.145 4.44117C153.384 4.56322 153.574 4.717 153.716 4.90251V4.31668H154.558V8.35156H153.716V7.75109C153.574 7.94148 153.381 8.10015 153.137 8.22707C152.893 8.354 152.615 8.41747 152.302 8.41747C151.956 8.41747 151.638 8.32959 151.35 8.15385C151.062 7.97322 150.833 7.72424 150.662 7.40692C150.496 7.08471 150.413 6.72101 150.413 6.31581ZM153.716 6.33046C153.716 6.05219 153.657 5.81054 153.54 5.6055C153.428 5.40046 153.279 5.24424 153.093 5.13684C152.908 5.02944 152.708 4.97574 152.493 4.97574C152.278 4.97574 152.078 5.02944 151.892 5.13684C151.707 5.23936 151.556 5.39314 151.438 5.59818C151.326 5.79833 151.27 6.03755 151.27 6.31581C151.27 6.59408 151.326 6.83818 151.438 7.0481C151.556 7.25802 151.707 7.41912 151.892 7.5314C152.083 7.63881 152.283 7.69251 152.493 7.69251C152.708 7.69251 152.908 7.63881 153.093 7.5314C153.279 7.424 153.428 7.26778 153.54 7.06274C153.657 6.85282 153.716 6.60873 153.716 6.33046ZM157.214 7.60463L158.356 4.31668H159.243L157.705 8.35156H156.709L155.178 4.31668H156.072L157.214 7.60463ZM159.595 6.31581C159.595 5.91062 159.678 5.5518 159.844 5.23936C160.015 4.92692 160.245 4.68526 160.533 4.5144C160.826 4.33865 161.148 4.25077 161.499 4.25077C161.817 4.25077 162.092 4.31424 162.327 4.44117C162.566 4.56322 162.756 4.717 162.898 4.90251V4.31668H163.74V8.35156H162.898V7.75109C162.756 7.94148 162.563 8.10015 162.319 8.22707C162.075 8.354 161.797 8.41747 161.485 8.41747C161.138 8.41747 160.821 8.32959 160.533 8.15385C160.245 7.97322 160.015 7.72424 159.844 7.40692C159.678 7.08471 159.595 6.72101 159.595 6.31581ZM162.898 6.33046C162.898 6.05219 162.839 5.81054 162.722 5.6055C162.61 5.40046 162.461 5.24424 162.275 5.13684C162.09 5.02944 161.89 4.97574 161.675 4.97574C161.46 4.97574 161.26 5.02944 161.075 5.13684C160.889 5.23936 160.738 5.39314 160.62 5.59818C160.508 5.79833 160.452 6.03755 160.452 6.31581C160.452 6.59408 160.508 6.83818 160.62 7.0481C160.738 7.25802 160.889 7.41912 161.075 7.5314C161.265 7.63881 161.465 7.69251 161.675 7.69251C161.89 7.69251 162.09 7.63881 162.275 7.5314C162.461 7.424 162.61 7.26778 162.722 7.06274C162.839 6.85282 162.898 6.60873 162.898 6.33046ZM166.513 8.40282C166.172 8.40282 165.864 8.34424 165.591 8.22707C165.317 8.10503 165.103 7.93416 164.946 7.71448C164.79 7.49479 164.712 7.23849 164.712 6.94558H165.605C165.625 7.16526 165.71 7.34589 165.862 7.48747C166.018 7.62904 166.235 7.69983 166.513 7.69983C166.801 7.69983 167.026 7.63148 167.187 7.49479C167.348 7.35322 167.429 7.17259 167.429 6.9529C167.429 6.78203 167.378 6.6429 167.275 6.5355C167.177 6.4281 167.053 6.34511 166.902 6.28652C166.755 6.22794 166.55 6.16448 166.286 6.09613C165.954 6.00826 165.683 5.92038 165.474 5.83251C165.269 5.73975 165.093 5.59818 164.946 5.40778C164.8 5.21739 164.727 4.96353 164.727 4.64621C164.727 4.35329 164.8 4.097 164.946 3.87731C165.093 3.65763 165.298 3.4892 165.561 3.37203C165.825 3.25487 166.13 3.19629 166.477 3.19629C166.97 3.19629 167.373 3.32077 167.685 3.56975C168.002 3.81385 168.178 4.1507 168.212 4.5803H167.29C167.275 4.39479 167.187 4.23613 167.026 4.10432C166.865 3.97251 166.653 3.9066 166.389 3.9066C166.15 3.9066 165.954 3.96762 165.803 4.08967C165.652 4.21172 165.576 4.38747 165.576 4.61692C165.576 4.77314 165.622 4.90251 165.715 5.00503C165.813 5.10266 165.935 5.18077 166.081 5.23936C166.228 5.29794 166.428 5.3614 166.682 5.42975C167.019 5.52251 167.292 5.61526 167.502 5.70802C167.717 5.80077 167.897 5.94479 168.044 6.14007C168.195 6.33046 168.271 6.58676 168.271 6.90896C168.271 7.1677 168.2 7.4118 168.059 7.64125C167.922 7.8707 167.719 8.05621 167.451 8.19778C167.187 8.33448 166.875 8.40282 166.513 8.40282ZM168.978 6.33046C168.978 5.9155 169.061 5.5518 169.227 5.23936C169.398 4.92203 169.632 4.67794 169.93 4.50707C170.227 4.33621 170.569 4.25077 170.955 4.25077C171.443 4.25077 171.846 4.36794 172.163 4.60227C172.485 4.83172 172.703 5.16125 172.815 5.59085H171.914C171.841 5.3907 171.724 5.23448 171.563 5.12219C171.402 5.00991 171.199 4.95377 170.955 4.95377C170.613 4.95377 170.34 5.07581 170.135 5.31991C169.935 5.55912 169.834 5.89597 169.834 6.33046C169.834 6.76495 169.935 7.10424 170.135 7.34833C170.34 7.59243 170.613 7.71448 170.955 7.71448C171.438 7.71448 171.758 7.50211 171.914 7.07739H172.815C172.698 7.48747 172.478 7.81455 172.156 8.05865C171.834 8.29786 171.433 8.41747 170.955 8.41747C170.569 8.41747 170.227 8.33203 169.93 8.16117C169.632 7.98542 169.398 7.74133 169.227 7.42889C169.061 7.11156 168.978 6.74542 168.978 6.33046ZM174.482 4.90251C174.604 4.69747 174.765 4.53881 174.965 4.42652C175.17 4.30936 175.412 4.25077 175.69 4.25077V5.11487H175.477C175.15 5.11487 174.901 5.19786 174.731 5.36385C174.565 5.52983 174.482 5.81786 174.482 6.22794V8.35156H173.647V4.31668H174.482V4.90251ZM176.882 3.78211C176.731 3.78211 176.604 3.73085 176.501 3.62833C176.399 3.52581 176.347 3.39889 176.347 3.24755C176.347 3.09621 176.399 2.96928 176.501 2.86676C176.604 2.76424 176.731 2.71298 176.882 2.71298C177.028 2.71298 177.153 2.76424 177.255 2.86676C177.358 2.96928 177.409 3.09621 177.409 3.24755C177.409 3.39889 177.358 3.52581 177.255 3.62833C177.153 3.73085 177.028 3.78211 176.882 3.78211ZM177.292 4.31668V8.35156H176.457V4.31668H177.292ZM179.223 4.90983C179.364 4.72432 179.557 4.5681 179.801 4.44117C180.045 4.31424 180.321 4.25077 180.629 4.25077C180.98 4.25077 181.3 4.33865 181.588 4.5144C181.881 4.68526 182.11 4.92692 182.276 5.23936C182.442 5.5518 182.525 5.91062 182.525 6.31581C182.525 6.72101 182.442 7.08471 182.276 7.40692C182.11 7.72424 181.881 7.97322 181.588 8.15385C181.3 8.32959 180.98 8.41747 180.629 8.41747C180.321 8.41747 180.048 8.35644 179.809 8.2344C179.569 8.10747 179.374 7.95125 179.223 7.76574V10.2701H178.388V4.31668H179.223V4.90983ZM181.676 6.31581C181.676 6.03755 181.617 5.79833 181.5 5.59818C181.388 5.39314 181.237 5.23936 181.046 5.13684C180.861 5.02944 180.661 4.97574 180.446 4.97574C180.236 4.97574 180.036 5.02944 179.845 5.13684C179.66 5.24424 179.508 5.40046 179.391 5.6055C179.279 5.81054 179.223 6.05219 179.223 6.33046C179.223 6.60873 179.279 6.85282 179.391 7.06274C179.508 7.26778 179.66 7.424 179.845 7.5314C180.036 7.63881 180.236 7.69251 180.446 7.69251C180.661 7.69251 180.861 7.63881 181.046 7.5314C181.237 7.41912 181.388 7.25802 181.5 7.0481C181.617 6.83818 181.676 6.59408 181.676 6.31581ZM184.325 4.9977V7.23117C184.325 7.38251 184.359 7.49235 184.427 7.5607C184.501 7.62416 184.623 7.65589 184.794 7.65589H185.306V8.35156H184.647C184.271 8.35156 183.983 8.26369 183.783 8.08794C183.583 7.91219 183.483 7.6266 183.483 7.23117V4.9977H183.007V4.31668H183.483V3.31345H184.325V4.31668H185.306V4.9977H184.325Z" fill="#142245"/>
<path d="M233.968 30.188C233.627 30.188 233.319 30.1294 233.046 30.0122C232.772 29.8902 232.557 29.7193 232.401 29.4996C232.245 29.2799 232.167 29.0236 232.167 28.7307H233.06C233.08 28.9504 233.165 29.131 233.317 29.2726C233.473 29.4142 233.69 29.485 233.968 29.485C234.256 29.485 234.481 29.4166 234.642 29.2799C234.803 29.1384 234.884 28.9577 234.884 28.7381C234.884 28.5672 234.832 28.4281 234.73 28.3207C234.632 28.2133 234.508 28.1303 234.356 28.0717C234.21 28.0131 234.005 27.9496 233.741 27.8813C233.409 27.7934 233.138 27.7055 232.928 27.6177C232.723 27.5249 232.548 27.3833 232.401 27.1929C232.255 27.0025 232.182 26.7487 232.182 26.4314C232.182 26.1385 232.255 25.8822 232.401 25.6625C232.548 25.4428 232.753 25.2744 233.016 25.1572C233.28 25.04 233.585 24.9814 233.932 24.9814C234.425 24.9814 234.828 25.1059 235.14 25.3549C235.457 25.599 235.633 25.9359 235.667 26.3655H234.745C234.73 26.1799 234.642 26.0213 234.481 25.8895C234.32 25.7577 234.107 25.6918 233.844 25.6918C233.605 25.6918 233.409 25.7528 233.258 25.8748C233.107 25.9969 233.031 26.1726 233.031 26.4021C233.031 26.5583 233.077 26.6877 233.17 26.7902C233.268 26.8878 233.39 26.9659 233.536 27.0245C233.683 27.0831 233.883 27.1466 234.137 27.2149C234.474 27.3077 234.747 27.4004 234.957 27.4932C235.172 27.5859 235.352 27.7299 235.499 27.9252C235.65 28.1156 235.726 28.3719 235.726 28.6941C235.726 28.9529 235.655 29.197 235.513 29.4264C235.377 29.6559 235.174 29.8414 234.906 29.9829C234.642 30.1196 234.33 30.188 233.968 30.188ZM240.651 31.0594L239.757 30.0928C239.537 30.1562 239.296 30.188 239.032 30.188C238.559 30.188 238.122 30.0781 237.721 29.8585C237.326 29.6339 237.011 29.3239 236.777 28.9285C236.547 28.5281 236.433 28.079 236.433 27.581C236.433 27.0831 236.547 26.6364 236.777 26.241C237.011 25.8455 237.326 25.538 237.721 25.3183C238.122 25.0937 238.559 24.9814 239.032 24.9814C239.511 24.9814 239.948 25.0937 240.343 25.3183C240.743 25.538 241.058 25.8455 241.288 26.241C241.517 26.6364 241.632 27.0831 241.632 27.581C241.632 28.0497 241.529 28.4744 241.324 28.8552C241.124 29.2311 240.846 29.5338 240.489 29.7633L241.712 31.0594H240.651ZM237.289 27.581C237.289 27.957 237.363 28.2889 237.509 28.577C237.66 28.8601 237.868 29.0798 238.131 29.236C238.395 29.3873 238.695 29.463 239.032 29.463C239.369 29.463 239.669 29.3873 239.933 29.236C240.197 29.0798 240.402 28.8601 240.548 28.577C240.699 28.2889 240.775 27.957 240.775 27.581C240.775 27.2051 240.699 26.8756 240.548 26.5925C240.402 26.3093 240.197 26.0921 239.933 25.9407C239.669 25.7894 239.369 25.7137 239.032 25.7137C238.695 25.7137 238.395 25.7894 238.131 25.9407C237.868 26.0921 237.66 26.3093 237.509 26.5925C237.363 26.8756 237.289 27.2051 237.289 27.581ZM243.31 29.463H245.03V30.1367H242.475V25.0473H243.31V29.463Z" fill="#142245"/>
<path d="M280.391 71.1022C280.391 71.361 280.33 71.6051 280.208 71.8345C280.086 72.064 279.891 72.2519 279.622 72.3984C279.354 72.54 279.01 72.6107 278.59 72.6107H277.667V74.6758H276.832V69.5864H278.59C278.98 69.5864 279.31 69.6548 279.578 69.7914C279.852 69.9233 280.054 70.1039 280.186 70.3333C280.323 70.5628 280.391 70.8191 280.391 71.1022ZM278.59 71.9297C278.907 71.9297 279.144 71.8589 279.3 71.7174C279.456 71.5709 279.535 71.3659 279.535 71.1022C279.535 70.5457 279.22 70.2674 278.59 70.2674H277.667V71.9297H278.59ZM284.82 70.6409L282.345 76.5724H281.48L282.301 74.6099L280.712 70.6409H281.642L282.777 73.7165L283.956 70.6409H284.82ZM286.424 71.3219V73.5554C286.424 73.7067 286.458 73.8166 286.526 73.8849C286.599 73.9484 286.721 73.9801 286.892 73.9801H287.405V74.6758H286.746C286.37 74.6758 286.082 74.5879 285.882 74.4122C285.682 74.2364 285.581 73.9508 285.581 73.5554V71.3219H285.105V70.6409H285.581V69.6377H286.424V70.6409H287.405V71.3219H286.424ZM290.261 70.575C290.569 70.575 290.842 70.6409 291.081 70.7727C291.325 70.9045 291.516 71.0998 291.653 71.3585C291.794 71.6173 291.865 71.9297 291.865 72.2959V74.6758H291.037V72.4203C291.037 72.0591 290.947 71.7833 290.767 71.5929C290.586 71.3976 290.339 71.3 290.027 71.3C289.714 71.3 289.465 71.3976 289.28 71.5929C289.099 71.7833 289.009 72.0591 289.009 72.4203V74.6758H288.174V69.2569H289.009V71.1096C289.151 70.9387 289.329 70.8069 289.544 70.7141C289.763 70.6214 290.002 70.575 290.261 70.575ZM294.68 74.7417C294.299 74.7417 293.955 74.6563 293.647 74.4854C293.34 74.3096 293.098 74.0655 292.922 73.7531C292.747 73.4358 292.659 73.0696 292.659 72.6547C292.659 72.2446 292.749 71.8809 292.93 71.5636C293.11 71.2463 293.357 71.0022 293.669 70.8313C293.982 70.6604 294.331 70.575 294.717 70.575C295.102 70.575 295.451 70.6604 295.764 70.8313C296.076 71.0022 296.323 71.2463 296.503 71.5636C296.684 71.8809 296.774 72.2446 296.774 72.6547C296.774 73.0648 296.682 73.4285 296.496 73.7458C296.31 74.0631 296.057 74.3096 295.734 74.4854C295.417 74.6563 295.066 74.7417 294.68 74.7417ZM294.68 74.0167C294.895 74.0167 295.095 73.9655 295.28 73.8629C295.471 73.7604 295.625 73.6066 295.742 73.4016C295.859 73.1966 295.917 72.9476 295.917 72.6547C295.917 72.3618 295.861 72.1152 295.749 71.9151C295.637 71.71 295.488 71.5563 295.302 71.4537C295.117 71.3512 294.917 71.3 294.702 71.3C294.487 71.3 294.287 71.3512 294.101 71.4537C293.921 71.5563 293.777 71.71 293.669 71.9151C293.562 72.1152 293.508 72.3618 293.508 72.6547C293.508 73.0892 293.618 73.426 293.838 73.6652C294.062 73.8996 294.343 74.0167 294.68 74.0167ZM299.635 70.575C299.953 70.575 300.236 70.6409 300.485 70.7727C300.739 70.9045 300.936 71.0998 301.078 71.3585C301.219 71.6173 301.29 71.9297 301.29 72.2959V74.6758H300.463V72.4203C300.463 72.0591 300.372 71.7833 300.192 71.5929C300.011 71.3976 299.765 71.3 299.452 71.3C299.14 71.3 298.891 71.3976 298.705 71.5929C298.525 71.7833 298.434 72.0591 298.434 72.4203V74.6758H297.6V70.6409H298.434V71.1022C298.571 70.9363 298.744 70.8069 298.954 70.7141C299.169 70.6214 299.396 70.575 299.635 70.575Z" fill="#142245"/>
<path d="M297.197 130.43V135.52H296.363V133.293H293.968V135.52H293.133V130.43H293.968V132.612H296.363V130.43H297.197ZM301.584 130.43V131.111H300.23V135.52H299.395V131.111H298.033V130.43H301.584ZM307.79 130.43V135.52H306.955V132.034L305.403 135.52H304.824L303.265 132.034V135.52H302.43V130.43H303.33L305.117 134.421L306.897 130.43H307.79ZM309.722 134.846H311.443V135.52H308.887V130.43H309.722V134.846Z" fill="#142245"/>
<path d="M276.554 193.808C276.554 193.31 276.669 192.863 276.898 192.468C277.133 192.072 277.448 191.765 277.843 191.545C278.243 191.32 278.68 191.208 279.154 191.208C279.696 191.208 280.177 191.342 280.596 191.611C281.021 191.874 281.329 192.25 281.519 192.738H280.516C280.384 192.47 280.201 192.27 279.967 192.138C279.732 192.006 279.461 191.94 279.154 191.94C278.817 191.94 278.517 192.016 278.253 192.167C277.989 192.319 277.782 192.536 277.631 192.819C277.484 193.102 277.411 193.432 277.411 193.808C277.411 194.184 277.484 194.513 277.631 194.796C277.782 195.079 277.989 195.299 278.253 195.455C278.517 195.607 278.817 195.682 279.154 195.682C279.461 195.682 279.732 195.616 279.967 195.485C280.201 195.353 280.384 195.153 280.516 194.884H281.519C281.329 195.372 281.021 195.748 280.596 196.012C280.177 196.275 279.696 196.407 279.154 196.407C278.675 196.407 278.238 196.297 277.843 196.078C277.448 195.853 277.133 195.543 276.898 195.148C276.669 194.752 276.554 194.306 276.554 193.808ZM286.429 194.071H284.949V195.587H284.173V194.071H282.694V193.368H284.173V191.852H284.949V193.368H286.429V194.071ZM291.656 194.071H290.177V195.587H289.401V194.071H287.921V193.368H289.401V191.852H290.177V193.368H291.656V194.071Z" fill="#142245"/>
<path d="M234.935 240.902L233.763 238.867H233.126V240.902H232.291V235.813H234.049C234.439 235.813 234.769 235.881 235.037 236.018C235.311 236.155 235.513 236.338 235.645 236.567C235.782 236.797 235.85 237.053 235.85 237.336C235.85 237.668 235.753 237.971 235.557 238.244C235.367 238.513 235.072 238.696 234.671 238.793L235.931 240.902H234.935ZM233.126 238.2H234.049C234.361 238.2 234.596 238.122 234.752 237.966C234.913 237.81 234.994 237.6 234.994 237.336C234.994 237.073 234.915 236.867 234.759 236.721C234.603 236.57 234.366 236.494 234.049 236.494H233.126V238.2ZM240.572 236.867V240.902H239.738V240.426C239.606 240.592 239.432 240.724 239.218 240.822C239.008 240.915 238.783 240.961 238.544 240.961C238.227 240.961 237.941 240.895 237.687 240.763C237.438 240.631 237.24 240.436 237.094 240.177C236.952 239.919 236.882 239.606 236.882 239.24V236.867H237.709V239.116C237.709 239.477 237.799 239.755 237.98 239.95C238.161 240.141 238.407 240.236 238.72 240.236C239.032 240.236 239.279 240.141 239.459 239.95C239.645 239.755 239.738 239.477 239.738 239.116V236.867H240.572ZM242.509 237.468C242.65 237.273 242.843 237.114 243.087 236.992C243.336 236.865 243.612 236.802 243.915 236.802C244.271 236.802 244.593 236.887 244.881 237.058C245.169 237.229 245.396 237.473 245.562 237.79C245.728 238.103 245.811 238.461 245.811 238.867C245.811 239.272 245.728 239.635 245.562 239.958C245.396 240.275 245.167 240.524 244.874 240.705C244.586 240.88 244.266 240.968 243.915 240.968C243.602 240.968 243.324 240.907 243.08 240.785C242.841 240.663 242.65 240.507 242.509 240.317V240.902H241.674V235.483H242.509V237.468ZM244.962 238.867C244.962 238.588 244.903 238.349 244.786 238.149C244.674 237.944 244.522 237.79 244.332 237.688C244.146 237.58 243.946 237.527 243.731 237.527C243.522 237.527 243.321 237.58 243.131 237.688C242.946 237.795 242.794 237.951 242.677 238.156C242.565 238.361 242.509 238.603 242.509 238.881C242.509 239.16 242.565 239.404 242.677 239.614C242.794 239.819 242.946 239.975 243.131 240.082C243.321 240.19 243.522 240.243 243.731 240.243C243.946 240.243 244.146 240.19 244.332 240.082C244.522 239.97 244.674 239.809 244.786 239.599C244.903 239.389 244.962 239.145 244.962 238.867ZM250.269 236.867L247.794 242.799H246.93L247.75 240.836L246.161 236.867H247.091L248.226 239.943L249.405 236.867H250.269Z" fill="#142245"/>
<path d="M129.949 259.238C130.071 259.033 130.232 258.875 130.432 258.762C130.637 258.645 130.879 258.587 131.157 258.587V259.451H130.945C130.618 259.451 130.369 259.534 130.198 259.7C130.032 259.866 129.949 260.154 129.949 260.564V262.688H129.114V258.653H129.949V259.238ZM135.622 260.571C135.622 260.723 135.613 260.859 135.593 260.981H132.51C132.535 261.303 132.654 261.562 132.869 261.757C133.084 261.953 133.348 262.05 133.66 262.05C134.109 262.05 134.426 261.862 134.612 261.487H135.513C135.391 261.858 135.168 262.163 134.846 262.402C134.529 262.636 134.134 262.753 133.66 262.753C133.274 262.753 132.928 262.668 132.62 262.497C132.317 262.321 132.078 262.077 131.902 261.765C131.732 261.447 131.646 261.081 131.646 260.666C131.646 260.251 131.729 259.888 131.895 259.575C132.066 259.258 132.303 259.014 132.605 258.843C132.913 258.672 133.265 258.587 133.66 258.587C134.041 258.587 134.38 258.67 134.678 258.836C134.976 259.002 135.208 259.236 135.374 259.539C135.54 259.836 135.622 260.181 135.622 260.571ZM134.751 260.308C134.746 260 134.636 259.753 134.422 259.568C134.207 259.382 133.941 259.29 133.623 259.29C133.335 259.29 133.089 259.382 132.884 259.568C132.679 259.749 132.557 259.995 132.518 260.308H134.751ZM138.004 261.941L139.146 258.653H140.032L138.494 262.688H137.499L135.968 258.653H136.861L138.004 261.941ZM144.361 260.571C144.361 260.723 144.352 260.859 144.332 260.981H141.249C141.273 261.303 141.393 261.562 141.608 261.757C141.823 261.953 142.086 262.05 142.399 262.05C142.848 262.05 143.165 261.862 143.351 261.487H144.251C144.129 261.858 143.907 262.163 143.585 262.402C143.268 262.636 142.872 262.753 142.399 262.753C142.013 262.753 141.666 262.668 141.359 262.497C141.056 262.321 140.817 262.077 140.641 261.765C140.47 261.447 140.385 261.081 140.385 260.666C140.385 260.251 140.468 259.888 140.634 259.575C140.805 259.258 141.042 259.014 141.344 258.843C141.652 258.672 142.003 258.587 142.399 258.587C142.78 258.587 143.119 258.67 143.417 258.836C143.714 259.002 143.946 259.236 144.112 259.539C144.278 259.836 144.361 260.181 144.361 260.571ZM143.49 260.308C143.485 260 143.375 259.753 143.16 259.568C142.946 259.382 142.679 259.29 142.362 259.29C142.074 259.29 141.828 259.382 141.623 259.568C141.417 259.749 141.295 259.995 141.256 260.308H143.49ZM146.018 259.238C146.14 259.033 146.301 258.875 146.501 258.762C146.706 258.645 146.948 258.587 147.226 258.587V259.451H147.014C146.686 259.451 146.437 259.534 146.267 259.7C146.101 259.866 146.018 260.154 146.018 260.564V262.688H145.183V258.653H146.018V259.238ZM149.458 262.753C149.14 262.753 148.855 262.697 148.601 262.585C148.352 262.468 148.154 262.312 148.008 262.116C147.861 261.916 147.783 261.694 147.774 261.45H148.638C148.652 261.621 148.733 261.765 148.879 261.882C149.031 261.994 149.219 262.05 149.443 262.05C149.677 262.05 149.858 262.006 149.985 261.919C150.117 261.826 150.183 261.709 150.183 261.567C150.183 261.416 150.11 261.303 149.963 261.23C149.821 261.157 149.594 261.076 149.282 260.989C148.979 260.906 148.733 260.825 148.542 260.747C148.352 260.669 148.186 260.549 148.044 260.388C147.908 260.227 147.839 260.015 147.839 259.751C147.839 259.536 147.903 259.341 148.03 259.165C148.157 258.985 148.337 258.843 148.572 258.74C148.811 258.638 149.084 258.587 149.392 258.587C149.851 258.587 150.219 258.704 150.498 258.938C150.781 259.168 150.932 259.483 150.952 259.883H150.117C150.102 259.702 150.029 259.558 149.897 259.451C149.765 259.343 149.587 259.29 149.363 259.29C149.143 259.29 148.974 259.331 148.857 259.414C148.74 259.497 148.682 259.607 148.682 259.744C148.682 259.851 148.721 259.941 148.799 260.015C148.877 260.088 148.972 260.146 149.084 260.19C149.197 260.229 149.363 260.281 149.582 260.344C149.875 260.422 150.114 260.503 150.3 260.586C150.49 260.664 150.654 260.781 150.791 260.937C150.927 261.094 150.998 261.301 151.003 261.56C151.003 261.789 150.939 261.994 150.813 262.175C150.686 262.356 150.505 262.497 150.271 262.6C150.041 262.702 149.77 262.753 149.458 262.753ZM155.603 260.571C155.603 260.723 155.593 260.859 155.574 260.981H152.491C152.515 261.303 152.635 261.562 152.85 261.757C153.064 261.953 153.328 262.05 153.64 262.05C154.09 262.05 154.407 261.862 154.592 261.487H155.493C155.371 261.858 155.149 262.163 154.827 262.402C154.509 262.636 154.114 262.753 153.64 262.753C153.255 262.753 152.908 262.668 152.601 262.497C152.298 262.321 152.059 262.077 151.883 261.765C151.712 261.447 151.627 261.081 151.627 260.666C151.627 260.251 151.71 259.888 151.876 259.575C152.047 259.258 152.283 259.014 152.586 258.843C152.894 258.672 153.245 258.587 153.64 258.587C154.021 258.587 154.361 258.67 154.658 258.836C154.956 259.002 155.188 259.236 155.354 259.539C155.52 259.836 155.603 260.181 155.603 260.571ZM154.732 260.308C154.727 260 154.617 259.753 154.402 259.568C154.187 259.382 153.921 259.29 153.604 259.29C153.316 259.29 153.069 259.382 152.864 259.568C152.659 259.749 152.537 259.995 152.498 260.308H154.732ZM162.025 260.571C162.025 260.723 162.015 260.859 161.995 260.981H158.913C158.937 261.303 159.057 261.562 159.271 261.757C159.486 261.953 159.75 262.05 160.062 262.05C160.511 262.05 160.829 261.862 161.014 261.487H161.915C161.793 261.858 161.571 262.163 161.249 262.402C160.931 262.636 160.536 262.753 160.062 262.753C159.677 262.753 159.33 262.668 159.022 262.497C158.72 262.321 158.48 262.077 158.305 261.765C158.134 261.447 158.048 261.081 158.048 260.666C158.048 260.251 158.131 259.888 158.297 259.575C158.468 259.258 158.705 259.014 159.008 258.843C159.315 258.672 159.667 258.587 160.062 258.587C160.443 258.587 160.782 258.67 161.08 258.836C161.378 259.002 161.61 259.236 161.776 259.539C161.942 259.836 162.025 260.181 162.025 260.571ZM161.153 260.308C161.148 260 161.039 259.753 160.824 259.568C160.609 259.382 160.343 259.29 160.026 259.29C159.738 259.29 159.491 259.382 159.286 259.568C159.081 259.749 158.959 259.995 158.92 260.308H161.153ZM164.882 258.587C165.199 258.587 165.482 258.653 165.731 258.784C165.985 258.916 166.183 259.112 166.325 259.37C166.466 259.629 166.537 259.941 166.537 260.308V262.688H165.71V260.432C165.71 260.071 165.619 259.795 165.439 259.605C165.258 259.409 165.011 259.312 164.699 259.312C164.387 259.312 164.138 259.409 163.952 259.605C163.771 259.795 163.681 260.071 163.681 260.432V262.688H162.846V258.653H163.681V259.114C163.818 258.948 163.991 258.819 164.201 258.726C164.416 258.633 164.643 258.587 164.882 258.587ZM169.227 258.587C169.54 258.587 169.816 258.65 170.055 258.777C170.299 258.899 170.489 259.053 170.626 259.238V258.653H171.468V262.753C171.468 263.124 171.39 263.454 171.234 263.742C171.078 264.035 170.851 264.264 170.553 264.43C170.26 264.596 169.909 264.679 169.498 264.679C168.952 264.679 168.498 264.55 168.136 264.291C167.775 264.037 167.57 263.691 167.521 263.251H168.349C168.412 263.461 168.546 263.63 168.752 263.757C168.961 263.888 169.21 263.954 169.498 263.954C169.835 263.954 170.106 263.852 170.311 263.647C170.521 263.442 170.626 263.144 170.626 262.753V262.08C170.485 262.27 170.292 262.431 170.048 262.563C169.808 262.69 169.535 262.753 169.227 262.753C168.876 262.753 168.554 262.666 168.261 262.49C167.973 262.309 167.743 262.06 167.573 261.743C167.407 261.421 167.324 261.057 167.324 260.652C167.324 260.247 167.407 259.888 167.573 259.575C167.743 259.263 167.973 259.021 168.261 258.85C168.554 258.675 168.876 258.587 169.227 258.587ZM170.626 260.666C170.626 260.388 170.568 260.146 170.45 259.941C170.338 259.736 170.189 259.58 170.004 259.473C169.818 259.365 169.618 259.312 169.403 259.312C169.188 259.312 168.988 259.365 168.803 259.473C168.617 259.575 168.466 259.729 168.349 259.934C168.236 260.134 168.18 260.373 168.18 260.652C168.18 260.93 168.236 261.174 168.349 261.384C168.466 261.594 168.617 261.755 168.803 261.867C168.993 261.975 169.193 262.028 169.403 262.028C169.618 262.028 169.818 261.975 170.004 261.867C170.189 261.76 170.338 261.604 170.45 261.399C170.568 261.189 170.626 260.945 170.626 260.666ZM172.989 258.118C172.838 258.118 172.711 258.067 172.609 257.964C172.506 257.862 172.455 257.735 172.455 257.583C172.455 257.432 172.506 257.305 172.609 257.203C172.711 257.1 172.838 257.049 172.989 257.049C173.136 257.049 173.26 257.1 173.363 257.203C173.465 257.305 173.517 257.432 173.517 257.583C173.517 257.735 173.465 257.862 173.363 257.964C173.26 258.067 173.136 258.118 172.989 258.118ZM173.4 258.653V262.688H172.565V258.653H173.4ZM176.531 258.587C176.849 258.587 177.132 258.653 177.381 258.784C177.635 258.916 177.832 259.112 177.974 259.37C178.116 259.629 178.186 259.941 178.186 260.308V262.688H177.359V260.432C177.359 260.071 177.269 259.795 177.088 259.605C176.907 259.409 176.661 259.312 176.348 259.312C176.036 259.312 175.787 259.409 175.601 259.605C175.421 259.795 175.33 260.071 175.33 260.432V262.688H174.496V258.653H175.33V259.114C175.467 258.948 175.64 258.819 175.85 258.726C176.065 258.633 176.292 258.587 176.531 258.587ZM182.949 260.571C182.949 260.723 182.939 260.859 182.92 260.981H179.837C179.861 261.303 179.981 261.562 180.196 261.757C180.411 261.953 180.674 262.05 180.987 262.05C181.436 262.05 181.753 261.862 181.939 261.487H182.839C182.717 261.858 182.495 262.163 182.173 262.402C181.856 262.636 181.46 262.753 180.987 262.753C180.601 262.753 180.254 262.668 179.947 262.497C179.644 262.321 179.405 262.077 179.229 261.765C179.058 261.447 178.973 261.081 178.973 260.666C178.973 260.251 179.056 259.888 179.222 259.575C179.393 259.258 179.629 259.014 179.932 258.843C180.24 258.672 180.591 258.587 180.987 258.587C181.367 258.587 181.707 258.67 182.005 258.836C182.302 259.002 182.534 259.236 182.7 259.539C182.866 259.836 182.949 260.181 182.949 260.571ZM182.078 260.308C182.073 260 181.963 259.753 181.748 259.568C181.533 259.382 181.267 259.29 180.95 259.29C180.662 259.29 180.415 259.382 180.21 259.568C180.005 259.749 179.883 259.995 179.844 260.308H182.078ZM187.469 260.571C187.469 260.723 187.459 260.859 187.439 260.981H184.357C184.381 261.303 184.501 261.562 184.715 261.757C184.93 261.953 185.194 262.05 185.506 262.05C185.955 262.05 186.273 261.862 186.458 261.487H187.359C187.237 261.858 187.015 262.163 186.693 262.402C186.375 262.636 185.98 262.753 185.506 262.753C185.121 262.753 184.774 262.668 184.466 262.497C184.164 262.321 183.924 262.077 183.749 261.765C183.578 261.447 183.492 261.081 183.492 260.666C183.492 260.251 183.575 259.888 183.741 259.575C183.912 259.258 184.149 259.014 184.452 258.843C184.759 258.672 185.111 258.587 185.506 258.587C185.887 258.587 186.226 258.67 186.524 258.836C186.822 259.002 187.054 259.236 187.22 259.539C187.386 259.836 187.469 260.181 187.469 260.571ZM186.597 260.308C186.592 260 186.483 259.753 186.268 259.568C186.053 259.382 185.787 259.29 185.47 259.29C185.182 259.29 184.935 259.382 184.73 259.568C184.525 259.749 184.403 259.995 184.364 260.308H186.597ZM189.125 259.238C189.247 259.033 189.408 258.875 189.608 258.762C189.813 258.645 190.055 258.587 190.333 258.587V259.451H190.121C189.794 259.451 189.545 259.534 189.374 259.7C189.208 259.866 189.125 260.154 189.125 260.564V262.688H188.29V258.653H189.125V259.238ZM191.525 258.118C191.374 258.118 191.247 258.067 191.145 257.964C191.042 257.862 190.991 257.735 190.991 257.583C190.991 257.432 191.042 257.305 191.145 257.203C191.247 257.1 191.374 257.049 191.525 257.049C191.672 257.049 191.796 257.1 191.899 257.203C192.001 257.305 192.053 257.432 192.053 257.583C192.053 257.735 192.001 257.862 191.899 257.964C191.796 258.067 191.672 258.118 191.525 258.118ZM191.935 258.653V262.688H191.101V258.653H191.935ZM195.067 258.587C195.385 258.587 195.668 258.653 195.917 258.784C196.171 258.916 196.368 259.112 196.51 259.37C196.651 259.629 196.722 259.941 196.722 260.308V262.688H195.895V260.432C195.895 260.071 195.804 259.795 195.624 259.605C195.443 259.409 195.197 259.312 194.884 259.312C194.572 259.312 194.323 259.409 194.137 259.605C193.957 259.795 193.866 260.071 193.866 260.432V262.688H193.032V258.653H193.866V259.114C194.003 258.948 194.176 258.819 194.386 258.726C194.601 258.633 194.828 258.587 195.067 258.587ZM199.413 258.587C199.725 258.587 200.001 258.65 200.24 258.777C200.484 258.899 200.675 259.053 200.811 259.238V258.653H201.654V262.753C201.654 263.124 201.575 263.454 201.419 263.742C201.263 264.035 201.036 264.264 200.738 264.43C200.445 264.596 200.094 264.679 199.684 264.679C199.137 264.679 198.683 264.55 198.322 264.291C197.96 264.037 197.755 263.691 197.707 263.251H198.534C198.597 263.461 198.732 263.63 198.937 263.757C199.147 263.888 199.396 263.954 199.684 263.954C200.021 263.954 200.291 263.852 200.497 263.647C200.706 263.442 200.811 263.144 200.811 262.753V262.08C200.67 262.27 200.477 262.431 200.233 262.563C199.994 262.69 199.72 262.753 199.413 262.753C199.061 262.753 198.739 262.666 198.446 262.49C198.158 262.309 197.929 262.06 197.758 261.743C197.592 261.421 197.509 261.057 197.509 260.652C197.509 260.247 197.592 259.888 197.758 259.575C197.929 259.263 198.158 259.021 198.446 258.85C198.739 258.675 199.061 258.587 199.413 258.587ZM200.811 260.666C200.811 260.388 200.753 260.146 200.636 259.941C200.523 259.736 200.374 259.58 200.189 259.473C200.003 259.365 199.803 259.312 199.588 259.312C199.374 259.312 199.174 259.365 198.988 259.473C198.802 259.575 198.651 259.729 198.534 259.934C198.422 260.134 198.366 260.373 198.366 260.652C198.366 260.93 198.422 261.174 198.534 261.384C198.651 261.594 198.802 261.755 198.988 261.867C199.178 261.975 199.379 262.028 199.588 262.028C199.803 262.028 200.003 261.975 200.189 261.867C200.374 261.76 200.523 261.604 200.636 261.399C200.753 261.189 200.811 260.945 200.811 260.666Z" fill="#142245"/>
<path d="M18.5274 235.813V239.057C18.5274 239.443 18.6275 239.733 18.8277 239.928C19.0327 240.124 19.3159 240.221 19.6771 240.221C20.0433 240.221 20.3264 240.124 20.5266 239.928C20.7316 239.733 20.8341 239.443 20.8341 239.057V235.813H21.6689V239.042C21.6689 239.457 21.5786 239.809 21.398 240.097C21.2174 240.385 20.9757 240.6 20.673 240.741C20.3704 240.883 20.036 240.954 19.6698 240.954C19.3037 240.954 18.9693 240.883 18.6666 240.741C18.3688 240.6 18.132 240.385 17.9563 240.097C17.7805 239.809 17.6926 239.457 17.6926 239.042V235.813H18.5274ZM25.0919 238.361L26.6736 240.902H25.7363L24.5866 239.057L23.5101 240.902H22.5801L24.1619 238.361L22.5728 235.813H23.5101L24.6671 237.673L25.7509 235.813H26.6809L25.0919 238.361ZM29.214 238.867C29.214 238.461 29.297 238.103 29.463 237.79C29.6339 237.478 29.8633 237.236 30.1514 237.065C30.4443 236.889 30.7665 236.802 31.118 236.802C31.4353 236.802 31.7111 236.865 31.9455 236.992C32.1847 237.114 32.3751 237.268 32.5166 237.453V236.867H33.3588V240.902H32.5166V240.302C32.3751 240.492 32.1822 240.651 31.9381 240.778C31.694 240.905 31.4158 240.968 31.1033 240.968C30.7567 240.968 30.4394 240.88 30.1514 240.705C29.8633 240.524 29.6339 240.275 29.463 239.958C29.297 239.635 29.214 239.272 29.214 238.867ZM32.5166 238.881C32.5166 238.603 32.4581 238.361 32.3409 238.156C32.2286 237.951 32.0797 237.795 31.8942 237.688C31.7087 237.58 31.5085 237.527 31.2937 237.527C31.0789 237.527 30.8788 237.58 30.6933 237.688C30.5077 237.79 30.3564 237.944 30.2392 238.149C30.127 238.349 30.0708 238.588 30.0708 238.867C30.0708 239.145 30.127 239.389 30.2392 239.599C30.3564 239.809 30.5077 239.97 30.6933 240.082C30.8836 240.19 31.0838 240.243 31.2937 240.243C31.5085 240.243 31.7087 240.19 31.8942 240.082C32.0797 239.975 32.2286 239.819 32.3409 239.614C32.4581 239.404 32.5166 239.16 32.5166 238.881ZM36.491 236.802C36.8083 236.802 37.0915 236.867 37.3404 236.999C37.5943 237.131 37.792 237.326 37.9336 237.585C38.0752 237.844 38.146 238.156 38.146 238.522V240.902H37.3185V238.647C37.3185 238.286 37.2282 238.01 37.0475 237.819C36.8669 237.624 36.6204 237.527 36.3079 237.527C35.9955 237.527 35.7465 237.624 35.561 237.819C35.3804 238.01 35.29 238.286 35.29 238.647V240.902H34.4552V236.867H35.29V237.329C35.4267 237.163 35.6 237.033 35.81 236.941C36.0248 236.848 36.2518 236.802 36.491 236.802ZM38.9325 238.867C38.9325 238.461 39.0155 238.103 39.1815 237.79C39.3524 237.478 39.5818 237.236 39.8699 237.065C40.1628 236.889 40.4874 236.802 40.8438 236.802C41.1074 236.802 41.3662 236.86 41.62 236.977C41.8788 237.09 42.0838 237.241 42.2351 237.431V235.483H43.0773V240.902H42.2351V240.295C42.0984 240.49 41.908 240.651 41.6639 240.778C41.4247 240.905 41.1489 240.968 40.8365 240.968C40.485 240.968 40.1628 240.88 39.8699 240.705C39.5818 240.524 39.3524 240.275 39.1815 239.958C39.0155 239.635 38.9325 239.272 38.9325 238.867ZM42.2351 238.881C42.2351 238.603 42.1765 238.361 42.0594 238.156C41.9471 237.951 41.7982 237.795 41.6127 237.688C41.4272 237.58 41.227 237.527 41.0122 237.527C40.7974 237.527 40.5973 237.58 40.4117 237.688C40.2262 237.79 40.0749 237.944 39.9577 238.149C39.8454 238.349 39.7893 238.588 39.7893 238.867C39.7893 239.145 39.8454 239.389 39.9577 239.599C40.0749 239.809 40.2262 239.97 40.4117 240.082C40.6021 240.19 40.8023 240.243 41.0122 240.243C41.227 240.243 41.4272 240.19 41.6127 240.082C41.7982 239.975 41.9471 239.819 42.0594 239.614C42.1765 239.404 42.2351 239.16 42.2351 238.881ZM46.9034 235.813V239.057C46.9034 239.443 47.0035 239.733 47.2037 239.928C47.4087 240.124 47.6919 240.221 48.0531 240.221C48.4193 240.221 48.7024 240.124 48.9026 239.928C49.1076 239.733 49.2101 239.443 49.2101 239.057V235.813H50.0449V239.042C50.0449 239.457 49.9546 239.809 49.774 240.097C49.5934 240.385 49.3517 240.6 49.049 240.741C48.7463 240.883 48.4119 240.954 48.0458 240.954C47.6797 240.954 47.3452 240.883 47.0426 240.741C46.7448 240.6 46.508 240.385 46.3323 240.097C46.1565 239.809 46.0686 239.457 46.0686 239.042V235.813H46.9034ZM51.9667 235.813V240.902H51.1319V235.813H51.9667ZM56.6565 237.548H55.9095V240.902H55.0674V237.548H54.5914V236.867H55.0674V236.582C55.0674 236.118 55.1895 235.781 55.4336 235.571C55.6825 235.357 56.0707 235.249 56.5979 235.249V235.945C56.344 235.945 56.1658 235.994 56.0633 236.091C55.9608 236.184 55.9095 236.348 55.9095 236.582V236.867H56.6565V237.548ZM58.2311 237.453C58.3532 237.248 58.5143 237.09 58.7144 236.977C58.9195 236.86 59.1611 236.802 59.4394 236.802V237.666H59.227C58.8999 237.666 58.651 237.749 58.4801 237.915C58.3141 238.081 58.2311 238.369 58.2311 238.779V240.902H57.3963V236.867H58.2311V237.453ZM59.9285 238.867C59.9285 238.461 60.0115 238.103 60.1774 237.79C60.3483 237.478 60.5778 237.236 60.8658 237.065C61.1587 236.889 61.4809 236.802 61.8324 236.802C62.1497 236.802 62.4256 236.865 62.6599 236.992C62.8991 237.114 63.0895 237.268 63.2311 237.453V236.867H64.0732V240.902H63.2311V240.302C63.0895 240.492 62.8967 240.651 62.6526 240.778C62.4085 240.905 62.1302 240.968 61.8178 240.968C61.4711 240.968 61.1538 240.88 60.8658 240.705C60.5778 240.524 60.3483 240.275 60.1774 239.958C60.0115 239.635 59.9285 239.272 59.9285 238.867ZM63.2311 238.881C63.2311 238.603 63.1725 238.361 63.0553 238.156C62.943 237.951 62.7941 237.795 62.6086 237.688C62.4231 237.58 62.223 237.527 62.0082 237.527C61.7934 237.527 61.5932 237.58 61.4077 237.688C61.2222 237.79 61.0708 237.944 60.9537 238.149C60.8414 238.349 60.7852 238.588 60.7852 238.867C60.7852 239.145 60.8414 239.389 60.9537 239.599C61.0708 239.809 61.2222 239.97 61.4077 240.082C61.5981 240.19 61.7982 240.243 62.0082 240.243C62.223 240.243 62.4231 240.19 62.6086 240.082C62.7941 239.975 62.943 239.819 63.0553 239.614C63.1725 239.404 63.2311 239.16 63.2311 238.881ZM70.054 236.802C70.3713 236.802 70.6545 236.867 70.9035 236.999C71.1573 237.131 71.355 237.326 71.4966 237.585C71.6431 237.844 71.7163 238.156 71.7163 238.522V240.902H70.8888V238.647C70.8888 238.286 70.7985 238.01 70.6179 237.819C70.4372 237.624 70.1907 237.527 69.8783 237.527C69.5658 237.527 69.3168 237.624 69.1313 237.819C68.9507 238.01 68.8604 238.286 68.8604 238.647V240.902H68.0329V238.647C68.0329 238.286 67.9426 238.01 67.762 237.819C67.5813 237.624 67.3348 237.527 67.0224 237.527C66.7099 237.527 66.4609 237.624 66.2754 237.819C66.0948 238.01 66.0045 238.286 66.0045 238.647V240.902H65.1697V236.867H66.0045V237.329C66.1412 237.163 66.3145 237.033 66.5244 236.941C66.7343 236.848 66.9589 236.802 67.1981 236.802C67.5203 236.802 67.8083 236.87 68.0622 237.007C68.3161 237.143 68.5113 237.341 68.648 237.6C68.7701 237.356 68.9605 237.163 69.2192 237.021C69.4779 236.875 69.7562 236.802 70.054 236.802ZM76.4766 238.786C76.4766 238.937 76.4668 239.074 76.4473 239.196H73.3644C73.3888 239.518 73.5084 239.777 73.7232 239.972C73.938 240.168 74.2016 240.265 74.5141 240.265C74.9632 240.265 75.2805 240.077 75.466 239.701H76.3667C76.2447 240.072 76.0226 240.378 75.7004 240.617C75.383 240.851 74.9876 240.968 74.5141 240.968C74.1284 240.968 73.7818 240.883 73.4742 240.712C73.1715 240.536 72.9323 240.292 72.7566 239.98C72.5857 239.662 72.5003 239.296 72.5003 238.881C72.5003 238.466 72.5833 238.103 72.7493 237.79C72.9201 237.473 73.1569 237.229 73.4596 237.058C73.7671 236.887 74.1186 236.802 74.5141 236.802C74.8949 236.802 75.2341 236.885 75.5319 237.051C75.8297 237.217 76.0616 237.451 76.2276 237.754C76.3936 238.051 76.4766 238.395 76.4766 238.786ZM75.6052 238.522C75.6003 238.215 75.4904 237.968 75.2756 237.783C75.0608 237.597 74.7948 237.505 74.4775 237.505C74.1894 237.505 73.9429 237.597 73.7378 237.783C73.5328 237.963 73.4108 238.21 73.3717 238.522H75.6052ZM82.717 236.867L81.4648 240.902H80.5861L79.7732 237.922L78.9604 240.902H78.0817L76.8221 236.867H77.6716L78.5137 240.111L79.3705 236.867H80.2419L81.0621 240.097L81.8969 236.867H82.717ZM85.091 240.968C84.7103 240.968 84.3661 240.883 84.0585 240.712C83.751 240.536 83.5093 240.292 83.3336 239.98C83.1578 239.662 83.0699 239.296 83.0699 238.881C83.0699 238.471 83.1603 238.107 83.3409 237.79C83.5215 237.473 83.7681 237.229 84.0805 237.058C84.3929 236.887 84.742 236.802 85.1277 236.802C85.5133 236.802 85.8624 236.887 86.1748 237.058C86.4873 237.229 86.7338 237.473 86.9144 237.79C87.0951 238.107 87.1854 238.471 87.1854 238.881C87.1854 239.291 87.0926 239.655 86.9071 239.972C86.7216 240.29 86.4677 240.536 86.1455 240.712C85.8282 240.883 85.4767 240.968 85.091 240.968ZM85.091 240.243C85.3059 240.243 85.506 240.192 85.6915 240.09C85.8819 239.987 86.0357 239.833 86.1529 239.628C86.27 239.423 86.3286 239.174 86.3286 238.881C86.3286 238.588 86.2725 238.342 86.1602 238.142C86.0479 237.937 85.899 237.783 85.7135 237.68C85.528 237.578 85.3278 237.527 85.113 237.527C84.8982 237.527 84.6981 237.578 84.5125 237.68C84.3319 237.783 84.1879 237.937 84.0805 238.142C83.9731 238.342 83.9194 238.588 83.9194 238.881C83.9194 239.316 84.0292 239.653 84.2489 239.892C84.4735 240.126 84.7542 240.243 85.091 240.243ZM88.8454 237.453C88.9675 237.248 89.1286 237.09 89.3287 236.977C89.5338 236.86 89.7754 236.802 90.0537 236.802V237.666H89.8413C89.5142 237.666 89.2653 237.749 89.0944 237.915C88.9284 238.081 88.8454 238.369 88.8454 238.779V240.902H88.0106V236.867H88.8454V237.453ZM92.4174 238.889L94.2774 240.902H93.1497L91.6559 239.167V240.902H90.821V235.483H91.6559V238.632L93.1204 236.867H94.2774L92.4174 238.889ZM96.3403 240.968C96.023 240.968 95.7374 240.912 95.4836 240.8C95.2346 240.683 95.0369 240.526 94.8904 240.331C94.744 240.131 94.6659 239.909 94.6561 239.665H95.5202C95.5348 239.836 95.6154 239.98 95.7618 240.097C95.9132 240.209 96.1011 240.265 96.3257 240.265C96.56 240.265 96.7407 240.221 96.8676 240.133C96.9994 240.041 97.0653 239.924 97.0653 239.782C97.0653 239.631 96.9921 239.518 96.8456 239.445C96.704 239.372 96.477 239.291 96.1646 239.203C95.8619 239.12 95.6154 239.04 95.425 238.962C95.2346 238.884 95.0686 238.764 94.927 238.603C94.7903 238.442 94.722 238.23 94.722 237.966C94.722 237.751 94.7855 237.556 94.9124 237.38C95.0393 237.199 95.22 237.058 95.4543 236.955C95.6935 236.853 95.9669 236.802 96.2744 236.802C96.7333 236.802 97.1019 236.919 97.3802 237.153C97.6633 237.383 97.8147 237.697 97.8342 238.098H96.9994C96.9848 237.917 96.9115 237.773 96.7797 237.666C96.6479 237.558 96.4697 237.505 96.2452 237.505C96.0255 237.505 95.857 237.546 95.7399 237.629C95.6227 237.712 95.5641 237.822 95.5641 237.959C95.5641 238.066 95.6032 238.156 95.6813 238.23C95.7594 238.303 95.8546 238.361 95.9669 238.405C96.0792 238.444 96.2452 238.496 96.4648 238.559C96.7578 238.637 96.997 238.718 97.1825 238.801C97.3729 238.879 97.5364 238.996 97.6731 239.152C97.8098 239.308 97.8806 239.516 97.8855 239.775C97.8855 240.004 97.822 240.209 97.6951 240.39C97.5681 240.57 97.3875 240.712 97.1532 240.814C96.9237 240.917 96.6528 240.968 96.3403 240.968Z" fill="#142245"/>
<path d="M3.41049 195.323H1.27955L0.913405 196.363H0.0419871L1.86537 191.267H2.83199L4.65537 196.363H3.77663L3.41049 195.323ZM3.17616 194.642L2.34868 192.277L1.51388 194.642H3.17616ZM6.28299 192.922C6.42456 192.736 6.6174 192.58 6.86149 192.453C7.10559 192.326 7.38141 192.262 7.68897 192.262C8.04047 192.262 8.36023 192.35 8.64826 192.526C8.94118 192.697 9.17063 192.939 9.33661 193.251C9.50259 193.564 9.58559 193.922 9.58559 194.328C9.58559 194.733 9.50259 195.096 9.33661 195.419C9.17063 195.736 8.94118 195.985 8.64826 196.166C8.36023 196.341 8.04047 196.429 7.68897 196.429C7.38141 196.429 7.10803 196.368 6.86881 196.246C6.6296 196.119 6.43433 195.963 6.28299 195.777V198.282H5.44818V192.328H6.28299V192.922ZM8.73614 194.328C8.73614 194.049 8.67756 193.81 8.56039 193.61C8.44811 193.405 8.29677 193.251 8.10637 193.149C7.92086 193.041 7.7207 192.987 7.5059 192.987C7.29598 192.987 7.09582 193.041 6.90543 193.149C6.71992 193.256 6.56858 193.412 6.45141 193.617C6.33913 193.822 6.28299 194.064 6.28299 194.342C6.28299 194.62 6.33913 194.865 6.45141 195.074C6.56858 195.28 6.71992 195.436 6.90543 195.543C7.09582 195.651 7.29598 195.704 7.5059 195.704C7.7207 195.704 7.92086 195.651 8.10637 195.543C8.29677 195.431 8.44811 195.27 8.56039 195.06C8.67756 194.85 8.73614 194.606 8.73614 194.328ZM10.1329 194.328C10.1329 193.922 10.2158 193.564 10.3818 193.251C10.5527 192.939 10.7821 192.697 11.0702 192.526C11.3631 192.35 11.6853 192.262 12.0368 192.262C12.3541 192.262 12.6299 192.326 12.8643 192.453C13.1035 192.575 13.2939 192.729 13.4355 192.914V192.328H14.2776V196.363H13.4355V195.763C13.2939 195.953 13.101 196.112 12.8569 196.239C12.6129 196.366 12.3346 196.429 12.0221 196.429C11.6755 196.429 11.3582 196.341 11.0702 196.166C10.7821 195.985 10.5527 195.736 10.3818 195.419C10.2158 195.096 10.1329 194.733 10.1329 194.328ZM13.4355 194.342C13.4355 194.064 13.3769 193.822 13.2597 193.617C13.1474 193.412 12.9985 193.256 12.813 193.149C12.6275 193.041 12.4273 192.987 12.2125 192.987C11.9977 192.987 11.7976 193.041 11.6121 193.149C11.4266 193.251 11.2752 193.405 11.1581 193.61C11.0458 193.81 10.9896 194.049 10.9896 194.328C10.9896 194.606 11.0458 194.85 11.1581 195.06C11.2752 195.27 11.4266 195.431 11.6121 195.543C11.8025 195.651 12.0026 195.704 12.2125 195.704C12.4273 195.704 12.6275 195.651 12.813 195.543C12.9985 195.436 13.1474 195.28 13.2597 195.074C13.3769 194.865 13.4355 194.62 13.4355 194.342ZM15.0958 194.342C15.0958 193.927 15.1788 193.564 15.3448 193.251C15.5156 192.934 15.75 192.69 16.0478 192.519C16.3456 192.348 16.6873 192.262 17.073 192.262C17.5611 192.262 17.9639 192.38 18.2812 192.614C18.6034 192.843 18.8207 193.173 18.933 193.603H18.0322C17.959 193.402 17.8419 193.246 17.6808 193.134C17.5196 193.022 17.3171 192.965 17.073 192.965C16.7312 192.965 16.4578 193.088 16.2528 193.332C16.0526 193.571 15.9526 193.908 15.9526 194.342C15.9526 194.777 16.0526 195.116 16.2528 195.36C16.4578 195.604 16.7312 195.726 17.073 195.726C17.5563 195.726 17.876 195.514 18.0322 195.089H18.933C18.8158 195.499 18.5961 195.826 18.2739 196.07C17.9517 196.31 17.5514 196.429 17.073 196.429C16.6873 196.429 16.3456 196.344 16.0478 196.173C15.75 195.997 15.5156 195.753 15.3448 195.441C15.1788 195.123 15.0958 194.757 15.0958 194.342ZM21.8519 192.262C22.1595 192.262 22.4329 192.328 22.6721 192.46C22.9162 192.592 23.1066 192.787 23.2432 193.046C23.3848 193.305 23.4556 193.617 23.4556 193.983V196.363H22.6281V194.108C22.6281 193.747 22.5378 193.471 22.3572 193.28C22.1766 193.085 21.93 192.987 21.6176 192.987C21.3051 192.987 21.0562 193.085 20.8706 193.28C20.69 193.471 20.5997 193.747 20.5997 194.108V196.363H19.7649V190.944H20.5997V192.797C20.7413 192.626 20.9195 192.494 21.1343 192.402C21.354 192.309 21.5932 192.262 21.8519 192.262ZM28.2185 194.247C28.2185 194.398 28.2087 194.535 28.1892 194.657H25.1063C25.1307 194.979 25.2503 195.238 25.4651 195.433C25.6799 195.629 25.9435 195.726 26.256 195.726C26.7051 195.726 27.0224 195.538 27.2079 195.162H28.1086C27.9866 195.533 27.7645 195.838 27.4423 196.078C27.1249 196.312 26.7295 196.429 26.256 196.429C25.8703 196.429 25.5237 196.344 25.2161 196.173C24.9134 195.997 24.6742 195.753 24.4985 195.441C24.3276 195.123 24.2422 194.757 24.2422 194.342C24.2422 193.927 24.3252 193.564 24.4912 193.251C24.662 192.934 24.8988 192.69 25.2015 192.519C25.509 192.348 25.8605 192.262 26.256 192.262C26.6367 192.262 26.976 192.345 27.2738 192.511C27.5716 192.677 27.8035 192.912 27.9695 193.214C28.1355 193.512 28.2185 193.856 28.2185 194.247ZM27.3471 193.983C27.3422 193.676 27.2323 193.429 27.0175 193.244C26.8027 193.058 26.5367 192.965 26.2193 192.965C25.9313 192.965 25.6848 193.058 25.4797 193.244C25.2747 193.424 25.1527 193.671 25.1136 193.983H27.3471ZM36.3025 191.274V196.363H35.4677V192.878L33.9153 196.363H33.3368L31.777 192.878V196.363H30.9422V191.274H31.8429L33.6297 195.265L35.4092 191.274H36.3025ZM41.0978 194.247C41.0978 194.398 41.088 194.535 41.0685 194.657H37.9856C38.01 194.979 38.1296 195.238 38.3444 195.433C38.5592 195.629 38.8228 195.726 39.1353 195.726C39.5844 195.726 39.9017 195.538 40.0873 195.162H40.988C40.8659 195.533 40.6438 195.838 40.3216 196.078C40.0043 196.312 39.6088 196.429 39.1353 196.429C38.7496 196.429 38.403 196.344 38.0954 196.173C37.7928 195.997 37.5536 195.753 37.3778 195.441C37.2069 195.123 37.1215 194.757 37.1215 194.342C37.1215 193.927 37.2045 193.564 37.3705 193.251C37.5413 192.934 37.7781 192.69 38.0808 192.519C38.3884 192.348 38.7399 192.262 39.1353 192.262C39.5161 192.262 39.8554 192.345 40.1532 192.511C40.451 192.677 40.6828 192.912 40.8488 193.214C41.0148 193.512 41.0978 193.856 41.0978 194.247ZM40.2264 193.983C40.2215 193.676 40.1117 193.429 39.8969 193.244C39.6821 193.058 39.416 192.965 39.0987 192.965C38.8106 192.965 38.5641 193.058 38.3591 193.244C38.154 193.424 38.032 193.671 37.9929 193.983H40.2264ZM43.3839 196.429C43.0666 196.429 42.781 196.373 42.5271 196.261C42.2782 196.144 42.0804 195.987 41.934 195.792C41.7875 195.592 41.7094 195.37 41.6996 195.126H42.5637C42.5784 195.297 42.6589 195.441 42.8054 195.558C42.9567 195.67 43.1447 195.726 43.3693 195.726C43.6036 195.726 43.7842 195.682 43.9111 195.594C44.043 195.502 44.1089 195.384 44.1089 195.243C44.1089 195.092 44.0356 194.979 43.8892 194.906C43.7476 194.833 43.5206 194.752 43.2082 194.664C42.9055 194.581 42.6589 194.501 42.4685 194.423C42.2782 194.345 42.1122 194.225 41.9706 194.064C41.8339 193.903 41.7656 193.69 41.7656 193.427C41.7656 193.212 41.829 193.017 41.9559 192.841C42.0829 192.66 42.2635 192.519 42.4978 192.416C42.7371 192.314 43.0104 192.262 43.318 192.262C43.7769 192.262 44.1455 192.38 44.4237 192.614C44.7069 192.843 44.8582 193.158 44.8778 193.559H44.043C44.0283 193.378 43.9551 193.234 43.8233 193.127C43.6915 193.019 43.5133 192.965 43.2887 192.965C43.069 192.965 42.9006 193.007 42.7834 193.09C42.6663 193.173 42.6077 193.283 42.6077 193.42C42.6077 193.527 42.6467 193.617 42.7248 193.69C42.803 193.764 42.8982 193.822 43.0104 193.866C43.1227 193.905 43.2887 193.957 43.5084 194.02C43.8013 194.098 44.0405 194.179 44.226 194.262C44.4164 194.34 44.58 194.457 44.7167 194.613C44.8533 194.769 44.9241 194.977 44.929 195.236C44.929 195.465 44.8656 195.67 44.7386 195.851C44.6117 196.031 44.4311 196.173 44.1967 196.275C43.9673 196.378 43.6963 196.429 43.3839 196.429ZM47.5812 196.429C47.2004 196.429 46.8562 196.344 46.5487 196.173C46.2411 195.997 45.9995 195.753 45.8237 195.441C45.648 195.123 45.5601 194.757 45.5601 194.342C45.5601 193.932 45.6504 193.568 45.831 193.251C46.0117 192.934 46.2582 192.69 46.5707 192.519C46.8831 192.348 47.2321 192.262 47.6178 192.262C48.0035 192.262 48.3525 192.348 48.665 192.519C48.9774 192.69 49.224 192.934 49.4046 193.251C49.5852 193.568 49.6755 193.932 49.6755 194.342C49.6755 194.752 49.5828 195.116 49.3973 195.433C49.2118 195.751 48.9579 195.997 48.6357 196.173C48.3184 196.344 47.9669 196.429 47.5812 196.429ZM47.5812 195.704C47.796 195.704 47.9962 195.653 48.1817 195.55C48.3721 195.448 48.5258 195.294 48.643 195.089C48.7602 194.884 48.8188 194.635 48.8188 194.342C48.8188 194.049 48.7626 193.803 48.6503 193.603C48.5381 193.398 48.3892 193.244 48.2036 193.141C48.0181 193.039 47.818 192.987 47.6032 192.987C47.3884 192.987 47.1882 193.039 47.0027 193.141C46.8221 193.244 46.6781 193.398 46.5707 193.603C46.4633 193.803 46.4096 194.049 46.4096 194.342C46.4096 194.777 46.5194 195.114 46.7391 195.353C46.9636 195.587 47.2444 195.704 47.5812 195.704ZM51.9653 196.429C51.648 196.429 51.3624 196.373 51.1086 196.261C50.8596 196.144 50.6619 195.987 50.5154 195.792C50.369 195.592 50.2909 195.37 50.2811 195.126H51.1452C51.1598 195.297 51.2404 195.441 51.3868 195.558C51.5382 195.67 51.7261 195.726 51.9507 195.726C52.185 195.726 52.3657 195.682 52.4926 195.594C52.6244 195.502 52.6903 195.384 52.6903 195.243C52.6903 195.092 52.6171 194.979 52.4706 194.906C52.329 194.833 52.102 194.752 51.7896 194.664C51.4869 194.581 51.2404 194.501 51.05 194.423C50.8596 194.345 50.6936 194.225 50.552 194.064C50.4153 193.903 50.347 193.69 50.347 193.427C50.347 193.212 50.4105 193.017 50.5374 192.841C50.6643 192.66 50.845 192.519 51.0793 192.416C51.3185 192.314 51.5919 192.262 51.8994 192.262C52.3583 192.262 52.7269 192.38 53.0052 192.614C53.2883 192.843 53.4397 193.158 53.4592 193.559H52.6244C52.6098 193.378 52.5365 193.234 52.4047 193.127C52.2729 193.019 52.0947 192.965 51.8702 192.965C51.6505 192.965 51.482 193.007 51.3649 193.09C51.2477 193.173 51.1891 193.283 51.1891 193.42C51.1891 193.527 51.2282 193.617 51.3063 193.69C51.3844 193.764 51.4796 193.822 51.5919 193.866C51.7042 193.905 51.8702 193.957 52.0898 194.02C52.3828 194.098 52.622 194.179 52.8075 194.262C52.9979 194.34 53.1614 194.457 53.2981 194.613C53.4348 194.769 53.5056 194.977 53.5105 195.236C53.5105 195.465 53.447 195.67 53.3201 195.851C53.1931 196.031 53.0125 196.173 52.7782 196.275C52.5487 196.378 52.2778 196.429 51.9653 196.429Z" fill="#142245"/>
<path d="M28.2246 131.946C28.2246 132.205 28.1636 132.449 28.0416 132.678C27.9195 132.908 27.7242 133.096 27.4557 133.242C27.1872 133.384 26.8431 133.454 26.4232 133.454H25.5005V135.52H24.6657V130.43H26.4232C26.8138 130.43 27.1433 130.499 27.4118 130.635C27.6852 130.767 27.8878 130.948 28.0196 131.177C28.1563 131.407 28.2246 131.663 28.2246 131.946ZM26.4232 132.773C26.7405 132.773 26.9773 132.703 27.1335 132.561C27.2898 132.415 27.3679 132.21 27.3679 131.946C27.3679 131.389 27.053 131.111 26.4232 131.111H25.5005V132.773H26.4232ZM32.7189 133.403C32.7189 133.555 32.7091 133.691 32.6896 133.813H29.6066C29.6311 134.136 29.7507 134.394 29.9655 134.59C30.1803 134.785 30.4439 134.882 30.7563 134.882C31.2055 134.882 31.5228 134.694 31.7083 134.319H32.609C32.487 134.69 32.2648 134.995 31.9426 135.234C31.6253 135.468 31.2299 135.585 30.7563 135.585C30.3707 135.585 30.0241 135.5 29.7165 135.329C29.4138 135.153 29.1746 134.909 28.9989 134.597C28.828 134.28 28.7426 133.913 28.7426 133.498C28.7426 133.083 28.8255 132.72 28.9915 132.407C29.1624 132.09 29.3992 131.846 29.7018 131.675C30.0094 131.504 30.3609 131.419 30.7563 131.419C31.1371 131.419 31.4764 131.502 31.7742 131.668C32.072 131.834 32.3039 132.068 32.4699 132.371C32.6359 132.669 32.7189 133.013 32.7189 133.403ZM31.8474 133.14C31.8426 132.832 31.7327 132.586 31.5179 132.4C31.3031 132.214 31.037 132.122 30.7197 132.122C30.4317 132.122 30.1852 132.214 29.9801 132.4C29.7751 132.581 29.653 132.827 29.614 133.14H31.8474ZM34.3752 132.07C34.4972 131.865 34.6583 131.707 34.8585 131.594C35.0635 131.477 35.3052 131.419 35.5835 131.419V132.283H35.3711C35.044 132.283 34.795 132.366 34.6242 132.532C34.4582 132.698 34.3752 132.986 34.3752 133.396V135.52H33.5404V131.485H34.3752V132.07ZM37.1856 130.101V135.52H36.3508V130.101H37.1856Z" fill="#142245"/>
<path d="M29.1257 69.5864C29.6675 69.5864 30.1411 69.6914 30.5463 69.9013C30.9564 70.1063 31.2712 70.4041 31.4909 70.7947C31.7155 71.1803 31.8278 71.6319 31.8278 72.1494C31.8278 72.6669 31.7155 73.116 31.4909 73.4968C31.2712 73.8776 30.9564 74.1705 30.5463 74.3755C30.1411 74.5757 29.6675 74.6758 29.1257 74.6758H27.4634V69.5864H29.1257ZM29.1257 73.9948C29.7212 73.9948 30.1777 73.8337 30.495 73.5115C30.8123 73.1892 30.971 72.7352 30.971 72.1494C30.971 71.5587 30.8123 71.0974 30.495 70.7654C30.1777 70.4334 29.7212 70.2674 29.1257 70.2674H28.2982V73.9948H29.1257ZM33.0799 70.1063C32.9285 70.1063 32.8016 70.0551 32.6991 69.9526C32.5966 69.85 32.5453 69.7231 32.5453 69.5718C32.5453 69.4204 32.5966 69.2935 32.6991 69.191C32.8016 69.0885 32.9285 69.0372 33.0799 69.0372C33.2263 69.0372 33.3508 69.0885 33.4533 69.191C33.5559 69.2935 33.6071 69.4204 33.6071 69.5718C33.6071 69.7231 33.5559 69.85 33.4533 69.9526C33.3508 70.0551 33.2263 70.1063 33.0799 70.1063ZM33.4899 70.6409V74.6758H32.6551V70.6409H33.4899ZM35.4208 71.2267C35.5428 71.0217 35.7039 70.863 35.9041 70.7507C36.1091 70.6336 36.3508 70.575 36.629 70.575V71.4391H36.4167C36.0896 71.4391 35.8406 71.5221 35.6697 71.6881C35.5038 71.854 35.4208 72.1421 35.4208 72.5522V74.6758H34.586V70.6409H35.4208V71.2267ZM41.0944 72.5595C41.0944 72.7108 41.0847 72.8475 41.0651 72.9696H37.9822C38.0066 73.2918 38.1262 73.5505 38.341 73.7458C38.5558 73.9411 38.8195 74.0387 39.1319 74.0387C39.581 74.0387 39.8984 73.8507 40.0839 73.4748H40.9846C40.8625 73.8459 40.6404 74.151 40.3182 74.3902C40.0009 74.6245 39.6054 74.7417 39.1319 74.7417C38.7462 74.7417 38.3996 74.6563 38.0921 74.4854C37.7894 74.3096 37.5502 74.0655 37.3744 73.7531C37.2036 73.4358 37.1181 73.0696 37.1181 72.6547C37.1181 72.2397 37.2011 71.876 37.3671 71.5636C37.538 71.2463 37.7747 71.0022 38.0774 70.8313C38.385 70.6604 38.7365 70.575 39.1319 70.575C39.5127 70.575 39.852 70.658 40.1498 70.824C40.4476 70.99 40.6795 71.2243 40.8454 71.527C41.0114 71.8248 41.0944 72.1689 41.0944 72.5595ZM40.223 72.2959C40.2181 71.9883 40.1083 71.7418 39.8935 71.5563C39.6787 71.3707 39.4126 71.278 39.0953 71.278C38.8073 71.278 38.5607 71.3707 38.3557 71.5563C38.1506 71.7369 38.0286 71.9834 37.9895 72.2959H40.223ZM41.6377 72.6547C41.6377 72.2397 41.7207 71.876 41.8867 71.5636C42.0575 71.2463 42.2919 71.0022 42.5897 70.8313C42.8875 70.6604 43.2292 70.575 43.6149 70.575C44.103 70.575 44.5058 70.6922 44.8231 70.9265C45.1453 71.1559 45.3626 71.4855 45.4749 71.9151H44.5741C44.5009 71.7149 44.3837 71.5587 44.2226 71.4464C44.0615 71.3341 43.8589 71.278 43.6149 71.278C43.2731 71.278 42.9997 71.4 42.7947 71.6441C42.5945 71.8833 42.4945 72.2202 42.4945 72.6547C42.4945 73.0892 42.5945 73.4285 42.7947 73.6726C42.9997 73.9166 43.2731 74.0387 43.6149 74.0387C44.0982 74.0387 44.4179 73.8263 44.5741 73.4016H45.4749C45.3577 73.8117 45.138 74.1388 44.8158 74.3829C44.4936 74.6221 44.0933 74.7417 43.6149 74.7417C43.2292 74.7417 42.8875 74.6563 42.5897 74.4854C42.2919 74.3096 42.0575 74.0655 41.8867 73.7531C41.7207 73.4358 41.6377 73.0696 41.6377 72.6547ZM47.2807 71.3219V73.5554C47.2807 73.7067 47.3149 73.8166 47.3833 73.8849C47.4565 73.9484 47.5785 73.9801 47.7494 73.9801H48.262V74.6758H47.6029C47.227 74.6758 46.939 74.5879 46.7388 74.4122C46.5387 74.2364 46.4386 73.9508 46.4386 73.5554V71.3219H45.9626V70.6409H46.4386V69.6377H47.2807V70.6409H48.262V71.3219H47.2807ZM51.3674 72.1348L52.9491 74.6758H52.0118L50.8621 72.8304L49.7857 74.6758H48.8557L50.4374 72.1348L48.8483 69.5864H49.7857L50.9427 71.4464L52.0264 69.5864H52.9564L51.3674 72.1348Z" fill="#142245"/>
<path d="M69.403 25.0473V28.2914C69.403 28.677 69.5031 28.9675 69.7033 29.1628C69.9083 29.3581 70.1914 29.4557 70.5527 29.4557C70.9188 29.4557 71.202 29.3581 71.4022 29.1628C71.6072 28.9675 71.7097 28.677 71.7097 28.2914V25.0473H72.5445V28.2767C72.5445 28.6917 72.4542 29.0432 72.2736 29.3312C72.0929 29.6192 71.8513 29.834 71.5486 29.9756C71.2459 30.1172 70.9115 30.188 70.5454 30.188C70.1792 30.188 69.8448 30.1172 69.5422 29.9756C69.2444 29.834 69.0076 29.6192 68.8318 29.3312C68.6561 29.0432 68.5682 28.6917 68.5682 28.2767V25.0473H69.403ZM75.6672 26.0359C75.9845 26.0359 76.2677 26.1018 76.5166 26.2336C76.7705 26.3655 76.9682 26.5607 77.1098 26.8195C77.2514 27.0782 77.3222 27.3907 77.3222 27.7568V30.1367H76.4947V27.8813C76.4947 27.52 76.4044 27.2442 76.2237 27.0538C76.0431 26.8585 75.7966 26.7609 75.4841 26.7609C75.1717 26.7609 74.9227 26.8585 74.7372 27.0538C74.5566 27.2442 74.4662 27.52 74.4662 27.8813V30.1367H73.6314V26.1018H74.4662V26.5632C74.6029 26.3972 74.7762 26.2678 74.9862 26.1751C75.201 26.0823 75.428 26.0359 75.6672 26.0359ZM78.8117 25.5673C78.6604 25.5673 78.5335 25.516 78.4309 25.4135C78.3284 25.311 78.2772 25.184 78.2772 25.0327C78.2772 24.8814 78.3284 24.7544 78.4309 24.6519C78.5335 24.5494 78.6604 24.4981 78.8117 24.4981C78.9582 24.4981 79.0827 24.5494 79.1852 24.6519C79.2877 24.7544 79.339 24.8814 79.339 25.0327C79.339 25.184 79.2877 25.311 79.1852 25.4135C79.0827 25.516 78.9582 25.5673 78.8117 25.5673ZM79.2218 26.1018V30.1367H78.387V26.1018H79.2218ZM81.2918 26.7829V29.0163C81.2918 29.1677 81.3259 29.2775 81.3943 29.3459C81.4675 29.4093 81.5896 29.441 81.7604 29.441H82.273V30.1367H81.614C81.2381 30.1367 80.95 30.0488 80.7499 29.8731C80.5497 29.6973 80.4496 29.4118 80.4496 29.0163V26.7829H79.9736V26.1018H80.4496V25.0986H81.2918V26.1018H82.273V26.7829H81.2918ZM86.6746 26.1018L84.1994 32.0333H83.3353L84.1555 30.0708L82.5664 26.1018H83.4964L84.6315 29.1774L85.8105 26.1018H86.6746ZM89.0823 26.1165C89.1116 25.6625 89.2849 25.3085 89.6022 25.0547C89.9244 24.8008 90.3345 24.6739 90.8324 24.6739C91.1742 24.6739 91.4695 24.7349 91.7185 24.857C91.9675 24.979 92.1554 25.145 92.2824 25.3549C92.4093 25.5648 92.4728 25.8016 92.4728 26.0652C92.4728 26.3679 92.3922 26.6266 92.2311 26.8414C92.07 27.0562 91.8772 27.2003 91.6526 27.2735V27.3028C91.9406 27.3907 92.1652 27.5518 92.3263 27.7861C92.4874 28.0155 92.568 28.3109 92.568 28.6722C92.568 28.9602 92.502 29.2165 92.3702 29.441C92.2384 29.6656 92.0431 29.8438 91.7844 29.9756C91.5257 30.1025 91.2157 30.166 90.8544 30.166C90.3272 30.166 89.8927 30.0318 89.5509 29.7633C89.2141 29.4899 89.0335 29.0993 89.0091 28.5916H89.8146C89.8341 28.8503 89.9342 29.0627 90.1148 29.2287C90.2954 29.3898 90.5395 29.4703 90.8471 29.4703C91.1449 29.4703 91.3743 29.3898 91.5354 29.2287C91.6965 29.0627 91.7771 28.8503 91.7771 28.5916C91.7771 28.2499 91.6672 28.0082 91.4476 27.8666C91.2328 27.7202 90.9008 27.647 90.4517 27.647H90.2613V26.9586H90.459C90.8544 26.9537 91.1546 26.8878 91.3597 26.7609C91.5696 26.634 91.6746 26.4338 91.6746 26.1604C91.6746 25.9261 91.5989 25.7406 91.4476 25.6039C91.2962 25.4623 91.0814 25.3915 90.8031 25.3915C90.5298 25.3915 90.3174 25.4623 90.1661 25.6039C90.0147 25.7406 89.9244 25.9114 89.8951 26.1165H89.0823ZM95.217 25.0473C95.7589 25.0473 96.2324 25.1523 96.6376 25.3622C97.0477 25.5673 97.3626 25.8651 97.5823 26.2556C97.8068 26.6413 97.9191 27.0929 97.9191 27.6103C97.9191 28.1278 97.8068 28.577 97.5823 28.9577C97.3626 29.3385 97.0477 29.6314 96.6376 29.8365C96.2324 30.0366 95.7589 30.1367 95.217 30.1367H93.5547V25.0473H95.217ZM95.217 29.4557C95.8126 29.4557 96.269 29.2946 96.5864 28.9724C96.9037 28.6502 97.0623 28.1962 97.0623 27.6103C97.0623 27.0196 96.9037 26.5583 96.5864 26.2263C96.269 25.8944 95.8126 25.7284 95.217 25.7284H94.3895V29.4557H95.217Z" fill="#142245"/>
</svg>
