<svg width="24" height="25" viewBox="0 0 24 25" fill="none" xmlns="http://www.w3.org/2000/svg">
<path d="M22 8.77V4.23C22 2.82 21.36 2.25 19.77 2.25H15.73C14.14 2.25 13.5 2.82 13.5 4.23V8.76C13.5 10.18 14.14 10.74 15.73 10.74H19.77C21.36 10.75 22 10.18 22 8.77Z" stroke="#292D32" stroke-width="1.53125" stroke-linecap="round" stroke-linejoin="round"/>
<path d="M22 20.02V15.98C22 14.39 21.36 13.75 19.77 13.75H15.73C14.14 13.75 13.5 14.39 13.5 15.98V20.02C13.5 21.61 14.14 22.25 15.73 22.25H19.77C21.36 22.25 22 21.61 22 20.02Z" stroke="#292D32" stroke-width="1.53125" stroke-linecap="round" stroke-linejoin="round"/>
<path d="M10.5 8.77V4.23C10.5 2.82 9.86 2.25 8.27 2.25H4.23C2.64 2.25 2 2.82 2 4.23V8.76C2 10.18 2.64 10.74 4.23 10.74H8.27C9.86 10.75 10.5 10.18 10.5 8.77Z" stroke="#292D32" stroke-width="1.53125" stroke-linecap="round" stroke-linejoin="round"/>
<path d="M10.5 20.02V15.98C10.5 14.39 9.86 13.75 8.27 13.75H4.23C2.64 13.75 2 14.39 2 15.98V20.02C2 21.61 2.64 22.25 4.23 22.25H8.27C9.86 22.25 10.5 21.61 10.5 20.02Z" stroke="#292D32" stroke-width="1.53125" stroke-linecap="round" stroke-linejoin="round"/>
</svg>
