<svg width="360" height="327" viewBox="0 0 360 327" fill="none" xmlns="http://www.w3.org/2000/svg">
<rect x="0.5" y="0.5" width="359" height="326" rx="7.5" fill="white"/>
<path opacity="0.2" d="M93.0301 136.644L156 100.289L218.97 136.644V209.356L156 245.711L93.0301 209.356V136.644Z" stroke="#323130" stroke-width="0.5"/>
<path opacity="0.2" d="M105.155 143.644L156 114.289L206.845 143.644V202.356L156 231.711L105.155 202.356V143.644Z" stroke="#323130" stroke-width="0.5"/>
<path opacity="0.2" d="M116.413 150.144L156 127.289L195.587 150.144V195.856L156 218.711L116.413 195.856V150.144Z" stroke="#323130" stroke-width="0.5"/>
<path opacity="0.2" d="M128.537 157.144L156 141.289L183.463 157.144V188.856L156 204.711L128.537 188.856V157.144Z" stroke="#323130" stroke-width="0.5"/>
<line opacity="0.2" x1="156.25" y1="100" x2="156.25" y2="246" stroke="#323130" stroke-width="0.5"/>
<line opacity="0.2" x1="92.876" y1="208.783" x2="218.876" y2="136.783" stroke="#323130" stroke-width="0.5"/>
<line opacity="0.2" x1="94.1248" y1="136.783" x2="219.125" y2="208.783" stroke="#323130" stroke-width="0.5"/>
<path d="M156 114.5L105.5 143.5V202L156 245L182.5 188L207.5 143.5L156 114.5Z" fill="#5FD255" fill-opacity="0.2" stroke="#107C10"/>
<rect x="192" y="32" width="135" height="24" rx="2" fill="white"/>
<path d="M206.102 43.9091C206.102 45.0062 205.897 45.9458 205.486 46.728C205.078 47.5069 204.521 48.1035 203.815 48.5178C203.113 48.9321 202.316 49.1392 201.424 49.1392C200.532 49.1392 199.734 48.9321 199.028 48.5178C198.325 48.1001 197.768 47.5019 197.357 46.723C196.95 45.9408 196.746 45.0028 196.746 43.9091C196.746 42.812 196.95 41.8741 197.357 41.0952C197.768 40.313 198.325 39.7147 199.028 39.3004C199.734 38.8861 200.532 38.679 201.424 38.679C202.316 38.679 203.113 38.8861 203.815 39.3004C204.521 39.7147 205.078 40.313 205.486 41.0952C205.897 41.8741 206.102 42.812 206.102 43.9091ZM204.248 43.9091C204.248 43.1368 204.127 42.4856 203.885 41.9553C203.646 41.4216 203.315 41.0189 202.891 40.7472C202.466 40.4721 201.978 40.3345 201.424 40.3345C200.871 40.3345 200.382 40.4721 199.957 40.7472C199.533 41.0189 199.2 41.4216 198.958 41.9553C198.719 42.4856 198.6 43.1368 198.6 43.9091C198.6 44.6813 198.719 45.3343 198.958 45.8679C199.2 46.3982 199.533 46.8009 199.957 47.076C200.382 47.3478 200.871 47.4837 201.424 47.4837C201.978 47.4837 202.466 47.3478 202.891 47.076C203.315 46.8009 203.646 46.3982 203.885 45.8679C204.127 45.3343 204.248 44.6813 204.248 43.9091ZM214.588 41.3636L211.868 49H209.879L207.16 41.3636H209.079L210.834 47.0362H210.914L212.673 41.3636H214.588ZM218.954 49.1491C218.188 49.1491 217.527 48.9901 216.97 48.6719C216.417 48.3504 215.991 47.8963 215.692 47.3097C215.394 46.7197 215.245 46.0253 215.245 45.2266C215.245 44.4411 215.394 43.7517 215.692 43.1584C215.994 42.5618 216.415 42.0978 216.955 41.7663C217.496 41.4316 218.13 41.2642 218.859 41.2642C219.33 41.2642 219.774 41.3404 220.192 41.4929C220.613 41.642 220.984 41.8741 221.305 42.1889C221.63 42.5038 221.885 42.9048 222.071 43.392C222.257 43.8759 222.349 44.4527 222.349 45.1222V45.674H216.09V44.4609H220.624C220.621 44.1162 220.546 43.8097 220.401 43.5412C220.255 43.2694 220.051 43.0556 219.789 42.8999C219.531 42.7441 219.229 42.6662 218.884 42.6662C218.516 42.6662 218.193 42.7557 217.915 42.9347C217.636 43.1103 217.419 43.3423 217.263 43.6307C217.111 43.9157 217.033 44.2289 217.03 44.5703V45.6293C217.03 46.0734 217.111 46.4545 217.273 46.7727C217.436 47.0876 217.663 47.3295 217.955 47.4986C218.246 47.6643 218.588 47.7472 218.979 47.7472C219.241 47.7472 219.478 47.7107 219.69 47.6378C219.902 47.5616 220.086 47.4505 220.241 47.3047C220.397 47.1589 220.515 46.9782 220.594 46.7628L222.275 46.9517C222.169 47.3958 221.967 47.7836 221.668 48.1151C221.373 48.4432 220.996 48.6984 220.535 48.8807C220.074 49.0597 219.547 49.1491 218.954 49.1491ZM223.872 49V41.3636H225.617V42.6364H225.697C225.836 42.1955 226.074 41.8558 226.412 41.6172C226.754 41.3752 227.143 41.2543 227.581 41.2543C227.68 41.2543 227.791 41.2592 227.914 41.2692C228.04 41.2758 228.144 41.2874 228.227 41.304V42.9595C228.151 42.933 228.03 42.9098 227.864 42.8899C227.702 42.8667 227.544 42.8551 227.392 42.8551C227.064 42.8551 226.769 42.9264 226.507 43.0689C226.248 43.2081 226.045 43.402 225.895 43.6506C225.746 43.8991 225.672 44.1858 225.672 44.5107V49H223.872ZM231.483 49.1541C231 49.1541 230.564 49.0679 230.176 48.8956C229.791 48.7199 229.487 48.4614 229.261 48.12C229.039 47.7786 228.928 47.3577 228.928 46.8572C228.928 46.4264 229.008 46.0701 229.167 45.7884C229.326 45.5066 229.543 45.2812 229.818 45.1122C230.093 44.9432 230.403 44.8156 230.748 44.7294C231.096 44.6399 231.455 44.5753 231.827 44.5355C232.274 44.4891 232.637 44.4477 232.915 44.4112C233.194 44.3714 233.396 44.3118 233.522 44.2322C233.651 44.1494 233.716 44.0218 233.716 43.8494V43.8196C233.716 43.4451 233.605 43.1551 233.383 42.9496C233.161 42.7441 232.841 42.6413 232.423 42.6413C231.982 42.6413 231.633 42.7375 231.374 42.9297C231.119 43.1219 230.947 43.349 230.857 43.6108L229.177 43.3722C229.309 42.9081 229.528 42.5204 229.833 42.2088C230.138 41.8939 230.511 41.6586 230.952 41.5028C231.392 41.3438 231.88 41.2642 232.413 41.2642C232.781 41.2642 233.147 41.3073 233.512 41.3935C233.876 41.4796 234.21 41.6222 234.511 41.821C234.813 42.0166 235.055 42.2834 235.237 42.6214C235.423 42.9595 235.515 43.3821 235.515 43.8892V49H233.785V47.951H233.726C233.616 48.1631 233.462 48.362 233.263 48.5476C233.068 48.7299 232.821 48.8774 232.523 48.9901C232.228 49.0994 231.881 49.1541 231.483 49.1541ZM231.951 47.8317C232.312 47.8317 232.625 47.7604 232.89 47.6179C233.156 47.4721 233.359 47.2798 233.502 47.0412C233.648 46.8026 233.721 46.5424 233.721 46.2607V45.3608C233.664 45.4072 233.568 45.4503 233.432 45.4901C233.3 45.5298 233.151 45.5646 232.985 45.5945C232.819 45.6243 232.655 45.6508 232.493 45.674C232.33 45.6972 232.189 45.7171 232.07 45.7337C231.802 45.7701 231.561 45.8298 231.349 45.9126C231.137 45.9955 230.97 46.1115 230.847 46.2607C230.724 46.4065 230.663 46.5954 230.663 46.8274C230.663 47.1589 230.784 47.4091 231.026 47.5781C231.268 47.7472 231.576 47.8317 231.951 47.8317ZM239.125 38.8182V49H237.325V38.8182H239.125ZM242.775 38.8182V49H240.975V38.8182H242.775Z" fill="#323130"/>
<path d="M317 47L311 41H323L317 47Z" fill="#2667FF"/>
<path d="M234.228 130H233.347C233.295 129.747 233.204 129.524 233.074 129.332C232.946 129.141 232.79 128.98 232.605 128.849C232.423 128.717 232.22 128.617 231.998 128.551C231.775 128.485 231.543 128.452 231.302 128.452C230.862 128.452 230.463 128.563 230.105 128.786C229.75 129.008 229.467 129.336 229.256 129.769C229.048 130.202 228.944 130.734 228.944 131.364C228.944 131.993 229.048 132.525 229.256 132.958C229.467 133.391 229.75 133.719 230.105 133.942C230.463 134.164 230.862 134.276 231.302 134.276C231.543 134.276 231.775 134.242 231.998 134.176C232.22 134.11 232.423 134.012 232.605 133.881C232.79 133.749 232.946 133.587 233.074 133.395C233.204 133.201 233.295 132.978 233.347 132.727H234.228C234.162 133.099 234.041 133.432 233.866 133.725C233.691 134.019 233.473 134.268 233.212 134.474C232.952 134.678 232.66 134.833 232.335 134.94C232.013 135.046 231.669 135.099 231.302 135.099C230.682 135.099 230.13 134.948 229.647 134.645C229.164 134.342 228.784 133.911 228.507 133.352C228.23 132.794 228.092 132.131 228.092 131.364C228.092 130.597 228.23 129.934 228.507 129.375C228.784 128.816 229.164 128.385 229.647 128.082C230.13 127.779 230.682 127.628 231.302 127.628C231.669 127.628 232.013 127.681 232.335 127.788C232.66 127.894 232.952 128.05 233.212 128.256C233.473 128.46 233.691 128.709 233.866 129.002C234.041 129.293 234.162 129.626 234.228 130ZM237.753 135.114C237.261 135.114 236.829 134.996 236.457 134.762C236.088 134.528 235.799 134.2 235.591 133.778C235.385 133.357 235.282 132.865 235.282 132.301C235.282 131.733 235.385 131.237 235.591 130.813C235.799 130.389 236.088 130.06 236.457 129.826C236.829 129.592 237.261 129.474 237.753 129.474C238.246 129.474 238.677 129.592 239.046 129.826C239.418 130.06 239.707 130.389 239.913 130.813C240.121 131.237 240.225 131.733 240.225 132.301C240.225 132.865 240.121 133.357 239.913 133.778C239.707 134.2 239.418 134.528 239.046 134.762C238.677 134.996 238.246 135.114 237.753 135.114ZM237.753 134.361C238.128 134.361 238.435 134.265 238.677 134.073C238.918 133.881 239.097 133.629 239.213 133.317C239.329 133.004 239.387 132.666 239.387 132.301C239.387 131.937 239.329 131.597 239.213 131.282C239.097 130.967 238.918 130.713 238.677 130.518C238.435 130.324 238.128 130.227 237.753 130.227C237.379 130.227 237.072 130.324 236.83 130.518C236.589 130.713 236.41 130.967 236.294 131.282C236.178 131.597 236.12 131.937 236.12 132.301C236.12 132.666 236.178 133.004 236.294 133.317C236.41 133.629 236.589 133.881 236.83 134.073C237.072 134.265 237.379 134.361 237.753 134.361ZM241.504 135V129.545H242.314V130.398H242.385C242.499 130.107 242.682 129.88 242.935 129.719C243.189 129.556 243.493 129.474 243.848 129.474C244.208 129.474 244.507 129.556 244.747 129.719C244.988 129.88 245.176 130.107 245.311 130.398H245.368C245.508 130.116 245.717 129.892 245.997 129.727C246.276 129.558 246.611 129.474 247.002 129.474C247.489 129.474 247.888 129.627 248.198 129.933C248.508 130.236 248.663 130.708 248.663 131.349V135H247.825V131.349C247.825 130.947 247.715 130.659 247.495 130.487C247.275 130.314 247.016 130.227 246.717 130.227C246.334 130.227 246.037 130.343 245.826 130.575C245.615 130.805 245.51 131.096 245.51 131.449V135H244.658V131.264C244.658 130.954 244.557 130.704 244.356 130.515C244.155 130.323 243.895 130.227 243.578 130.227C243.36 130.227 243.157 130.285 242.967 130.401C242.78 130.517 242.629 130.678 242.513 130.884C242.399 131.088 242.342 131.323 242.342 131.591V135H241.504ZM253.633 132.77V129.545H254.471V135H253.633V134.077H253.576C253.449 134.354 253.25 134.589 252.98 134.783C252.71 134.975 252.369 135.071 251.957 135.071C251.616 135.071 251.313 134.996 251.048 134.847C250.783 134.696 250.575 134.469 250.423 134.165C250.272 133.86 250.196 133.475 250.196 133.011V129.545H251.034V132.955C251.034 133.352 251.145 133.67 251.368 133.906C251.593 134.143 251.879 134.261 252.227 134.261C252.435 134.261 252.647 134.208 252.863 134.102C253.08 133.995 253.263 133.832 253.41 133.612C253.559 133.391 253.633 133.111 253.633 132.77ZM256.844 131.719V135H256.006V129.545H256.816V130.398H256.887C257.015 130.121 257.209 129.898 257.469 129.73C257.73 129.56 258.066 129.474 258.478 129.474C258.847 129.474 259.17 129.55 259.447 129.702C259.724 129.851 259.94 130.078 260.094 130.384C260.248 130.687 260.324 131.07 260.324 131.534V135H259.486V131.591C259.486 131.162 259.375 130.829 259.153 130.589C258.93 130.348 258.625 130.227 258.236 130.227C257.969 130.227 257.73 130.285 257.519 130.401C257.311 130.517 257.146 130.687 257.025 130.909C256.905 131.132 256.844 131.402 256.844 131.719ZM261.856 135V129.545H262.694V135H261.856ZM262.282 128.636C262.119 128.636 261.978 128.581 261.859 128.469C261.743 128.358 261.685 128.224 261.685 128.068C261.685 127.912 261.743 127.778 261.859 127.667C261.978 127.556 262.119 127.5 262.282 127.5C262.445 127.5 262.585 127.556 262.701 127.667C262.819 127.778 262.879 127.912 262.879 128.068C262.879 128.224 262.819 128.358 262.701 128.469C262.585 128.581 262.445 128.636 262.282 128.636ZM266.445 135.114C265.934 135.114 265.493 134.993 265.124 134.751C264.755 134.51 264.47 134.177 264.272 133.754C264.073 133.33 263.973 132.846 263.973 132.301C263.973 131.747 264.075 131.258 264.279 130.835C264.485 130.408 264.771 130.076 265.138 129.837C265.507 129.595 265.938 129.474 266.431 129.474C266.814 129.474 267.16 129.545 267.468 129.688C267.775 129.83 268.027 130.028 268.224 130.284C268.42 130.54 268.542 130.838 268.59 131.179H267.752C267.688 130.93 267.546 130.71 267.326 130.518C267.108 130.324 266.814 130.227 266.445 130.227C266.118 130.227 265.832 130.312 265.585 130.483C265.342 130.651 265.151 130.889 265.014 131.197C264.879 131.502 264.811 131.861 264.811 132.273C264.811 132.694 264.878 133.061 265.01 133.374C265.145 133.686 265.335 133.929 265.578 134.102C265.825 134.274 266.113 134.361 266.445 134.361C266.663 134.361 266.86 134.323 267.038 134.247C267.215 134.171 267.366 134.062 267.489 133.92C267.612 133.778 267.7 133.608 267.752 133.409H268.59C268.542 133.731 268.425 134.021 268.238 134.279C268.054 134.535 267.809 134.738 267.503 134.89C267.2 135.039 266.847 135.114 266.445 135.114ZM271.42 135.128C271.074 135.128 270.761 135.063 270.479 134.933C270.197 134.8 269.974 134.609 269.808 134.361C269.642 134.11 269.559 133.807 269.559 133.452C269.559 133.139 269.621 132.886 269.744 132.692C269.867 132.495 270.032 132.341 270.237 132.23C270.443 132.119 270.671 132.036 270.919 131.982C271.17 131.925 271.422 131.88 271.676 131.847C272.007 131.804 272.276 131.772 272.482 131.751C272.69 131.727 272.842 131.688 272.936 131.634C273.033 131.579 273.082 131.484 273.082 131.349V131.321C273.082 130.971 272.986 130.698 272.794 130.504C272.605 130.31 272.317 130.213 271.931 130.213C271.531 130.213 271.218 130.301 270.99 130.476C270.763 130.651 270.603 130.838 270.511 131.037L269.715 130.753C269.858 130.421 270.047 130.163 270.284 129.979C270.523 129.792 270.783 129.661 271.065 129.588C271.349 129.512 271.628 129.474 271.903 129.474C272.078 129.474 272.279 129.496 272.507 129.538C272.736 129.579 272.958 129.663 273.171 129.79C273.386 129.918 273.565 130.111 273.707 130.369C273.849 130.627 273.92 130.973 273.92 131.406V135H273.082V134.261H273.039C272.983 134.38 272.888 134.506 272.755 134.641C272.623 134.776 272.446 134.891 272.226 134.986C272.006 135.08 271.737 135.128 271.42 135.128ZM271.548 134.375C271.879 134.375 272.159 134.31 272.386 134.18C272.616 134.049 272.788 133.881 272.904 133.675C273.023 133.469 273.082 133.253 273.082 133.026V132.259C273.046 132.301 272.968 132.34 272.848 132.376C272.729 132.409 272.592 132.438 272.436 132.464C272.282 132.488 272.131 132.509 271.985 132.528C271.84 132.545 271.723 132.559 271.633 132.571C271.415 132.599 271.212 132.646 271.022 132.71C270.835 132.771 270.684 132.865 270.568 132.99C270.454 133.113 270.397 133.281 270.397 133.494C270.397 133.786 270.505 134.006 270.72 134.155C270.938 134.302 271.214 134.375 271.548 134.375ZM277.822 129.545V130.256H274.995V129.545H277.822ZM275.819 128.239H276.657V133.438C276.657 133.674 276.691 133.852 276.76 133.97C276.831 134.086 276.921 134.164 277.03 134.205C277.141 134.242 277.258 134.261 277.381 134.261C277.474 134.261 277.55 134.257 277.609 134.247C277.668 134.235 277.715 134.226 277.751 134.219L277.921 134.972C277.864 134.993 277.785 135.014 277.683 135.036C277.582 135.059 277.453 135.071 277.296 135.071C277.06 135.071 276.828 135.02 276.6 134.918C276.375 134.817 276.188 134.661 276.039 134.453C275.892 134.245 275.819 133.982 275.819 133.665V128.239ZM279.082 135V129.545H279.921V135H279.082ZM279.509 128.636C279.345 128.636 279.204 128.581 279.086 128.469C278.97 128.358 278.912 128.224 278.912 128.068C278.912 127.912 278.97 127.778 279.086 127.667C279.204 127.556 279.345 127.5 279.509 127.5C279.672 127.5 279.812 127.556 279.928 127.667C280.046 127.778 280.105 127.912 280.105 128.068C280.105 128.224 280.046 128.358 279.928 128.469C279.812 128.581 279.672 128.636 279.509 128.636ZM283.671 135.114C283.179 135.114 282.747 134.996 282.375 134.762C282.006 134.528 281.717 134.2 281.509 133.778C281.303 133.357 281.2 132.865 281.2 132.301C281.2 131.733 281.303 131.237 281.509 130.813C281.717 130.389 282.006 130.06 282.375 129.826C282.747 129.592 283.179 129.474 283.671 129.474C284.164 129.474 284.595 129.592 284.964 129.826C285.336 130.06 285.625 130.389 285.831 130.813C286.039 131.237 286.143 131.733 286.143 132.301C286.143 132.865 286.039 133.357 285.831 133.778C285.625 134.2 285.336 134.528 284.964 134.762C284.595 134.996 284.164 135.114 283.671 135.114ZM283.671 134.361C284.045 134.361 284.353 134.265 284.595 134.073C284.836 133.881 285.015 133.629 285.131 133.317C285.247 133.004 285.305 132.666 285.305 132.301C285.305 131.937 285.247 131.597 285.131 131.282C285.015 130.967 284.836 130.713 284.595 130.518C284.353 130.324 284.045 130.227 283.671 130.227C283.297 130.227 282.99 130.324 282.748 130.518C282.507 130.713 282.328 130.967 282.212 131.282C282.096 131.597 282.038 131.937 282.038 132.301C282.038 132.666 282.096 133.004 282.212 133.317C282.328 133.629 282.507 133.881 282.748 134.073C282.99 134.265 283.297 134.361 283.671 134.361ZM288.26 131.719V135H287.422V129.545H288.232V130.398H288.303C288.431 130.121 288.625 129.898 288.885 129.73C289.146 129.56 289.482 129.474 289.894 129.474C290.263 129.474 290.586 129.55 290.863 129.702C291.14 129.851 291.356 130.078 291.51 130.384C291.664 130.687 291.741 131.07 291.741 131.534V135H290.902V131.591C290.902 131.162 290.791 130.829 290.569 130.589C290.346 130.348 290.041 130.227 289.652 130.227C289.385 130.227 289.146 130.285 288.935 130.401C288.727 130.517 288.562 130.687 288.441 130.909C288.321 131.132 288.26 131.402 288.26 131.719Z" fill="#323130"/>
<path d="M229.881 213V205.727H234.27V206.509H230.761V208.966H234.043V209.747H230.761V212.219H234.327V213H229.881ZM236.369 207.545L237.675 209.776L238.982 207.545H239.948L238.187 210.273L239.948 213H238.982L237.675 210.884L236.369 213H235.403L237.136 210.273L235.403 207.545H236.369ZM241.144 215.045V207.545H241.954V208.412H242.053C242.115 208.317 242.2 208.196 242.309 208.05C242.42 207.901 242.579 207.768 242.785 207.652C242.993 207.534 243.275 207.474 243.63 207.474C244.089 207.474 244.494 207.589 244.844 207.819C245.195 208.049 245.468 208.374 245.665 208.795C245.861 209.217 245.959 209.714 245.959 210.287C245.959 210.865 245.861 211.365 245.665 211.789C245.468 212.21 245.196 212.537 244.848 212.769C244.5 212.999 244.099 213.114 243.644 213.114C243.294 213.114 243.013 213.056 242.802 212.94C242.592 212.821 242.43 212.687 242.316 212.538C242.202 212.387 242.115 212.261 242.053 212.162H241.982V215.045H241.144ZM241.968 210.273C241.968 210.685 242.028 211.048 242.149 211.363C242.27 211.675 242.446 211.92 242.678 212.098C242.91 212.273 243.194 212.361 243.53 212.361C243.881 212.361 244.173 212.268 244.407 212.084C244.644 211.897 244.822 211.646 244.94 211.331C245.061 211.014 245.121 210.661 245.121 210.273C245.121 209.889 245.062 209.544 244.944 209.236C244.828 208.926 244.651 208.681 244.415 208.501C244.18 208.318 243.885 208.227 243.53 208.227C243.189 208.227 242.903 208.314 242.671 208.487C242.439 208.657 242.264 208.896 242.145 209.204C242.027 209.509 241.968 209.866 241.968 210.273ZM249.525 213.114C248.999 213.114 248.546 212.998 248.165 212.766C247.786 212.531 247.493 212.205 247.287 211.786C247.084 211.364 246.982 210.874 246.982 210.315C246.982 209.757 247.084 209.264 247.287 208.838C247.493 208.41 247.78 208.076 248.147 207.837C248.516 207.595 248.947 207.474 249.439 207.474C249.724 207.474 250.004 207.522 250.281 207.616C250.558 207.711 250.81 207.865 251.037 208.078C251.265 208.289 251.446 208.568 251.581 208.916C251.716 209.264 251.783 209.693 251.783 210.202V210.557H247.579V209.832H250.931C250.931 209.525 250.869 209.25 250.746 209.009C250.626 208.767 250.453 208.576 250.228 208.437C250.005 208.297 249.742 208.227 249.439 208.227C249.106 208.227 248.817 208.31 248.573 208.476C248.331 208.639 248.146 208.852 248.015 209.115C247.885 209.378 247.82 209.66 247.82 209.96V210.443C247.82 210.855 247.891 211.204 248.033 211.491C248.178 211.775 248.378 211.991 248.633 212.141C248.889 212.287 249.186 212.361 249.525 212.361C249.745 212.361 249.944 212.33 250.121 212.268C250.301 212.205 250.456 212.11 250.586 211.984C250.717 211.857 250.817 211.698 250.888 211.509L251.698 211.736C251.613 212.01 251.47 212.252 251.268 212.46C251.067 212.666 250.818 212.827 250.523 212.943C250.227 213.057 249.894 213.114 249.525 213.114ZM253.058 213V207.545H253.868V208.369H253.925C254.024 208.099 254.204 207.88 254.464 207.712C254.725 207.544 255.018 207.46 255.345 207.46C255.407 207.46 255.483 207.461 255.576 207.464C255.668 207.466 255.738 207.47 255.785 207.474V208.327C255.757 208.32 255.692 208.309 255.59 208.295C255.491 208.278 255.385 208.27 255.274 208.27C255.009 208.27 254.772 208.326 254.564 208.437C254.358 208.546 254.194 208.697 254.074 208.891C253.955 209.083 253.896 209.302 253.896 209.548V213H253.058ZM256.779 213V207.545H257.617V213H256.779ZM257.205 206.636C257.042 206.636 256.901 206.581 256.782 206.469C256.666 206.358 256.608 206.224 256.608 206.068C256.608 205.912 256.666 205.778 256.782 205.667C256.901 205.556 257.042 205.5 257.205 205.5C257.368 205.5 257.508 205.556 257.624 205.667C257.742 205.778 257.801 205.912 257.801 206.068C257.801 206.224 257.742 206.358 257.624 206.469C257.508 206.581 257.368 206.636 257.205 206.636ZM261.439 213.114C260.913 213.114 260.46 212.998 260.079 212.766C259.7 212.531 259.407 212.205 259.202 211.786C258.998 211.364 258.896 210.874 258.896 210.315C258.896 209.757 258.998 209.264 259.202 208.838C259.407 208.41 259.694 208.076 260.061 207.837C260.43 207.595 260.861 207.474 261.354 207.474C261.638 207.474 261.918 207.522 262.195 207.616C262.472 207.711 262.724 207.865 262.952 208.078C263.179 208.289 263.36 208.568 263.495 208.916C263.63 209.264 263.697 209.693 263.697 210.202V210.557H259.493V209.832H262.845C262.845 209.525 262.783 209.25 262.66 209.009C262.54 208.767 262.367 208.576 262.142 208.437C261.919 208.297 261.657 208.227 261.354 208.227C261.02 208.227 260.731 208.31 260.487 208.476C260.246 208.639 260.06 208.852 259.93 209.115C259.799 209.378 259.734 209.66 259.734 209.96V210.443C259.734 210.855 259.805 211.204 259.947 211.491C260.092 211.775 260.292 211.991 260.547 212.141C260.803 212.287 261.1 212.361 261.439 212.361C261.659 212.361 261.858 212.33 262.035 212.268C262.215 212.205 262.37 212.11 262.501 211.984C262.631 211.857 262.731 211.698 262.802 211.509L263.612 211.736C263.527 212.01 263.384 212.252 263.182 212.46C262.981 212.666 262.733 212.827 262.437 212.943C262.141 213.057 261.808 213.114 261.439 213.114ZM265.81 209.719V213H264.972V207.545H265.782V208.398H265.853C265.981 208.121 266.175 207.898 266.435 207.73C266.696 207.56 267.032 207.474 267.444 207.474C267.813 207.474 268.136 207.55 268.413 207.702C268.69 207.851 268.906 208.078 269.059 208.384C269.213 208.687 269.29 209.07 269.29 209.534V213H268.452V209.591C268.452 209.162 268.341 208.829 268.118 208.589C267.896 208.348 267.59 208.227 267.202 208.227C266.935 208.227 266.696 208.285 266.485 208.401C266.277 208.517 266.112 208.687 265.991 208.909C265.871 209.132 265.81 209.402 265.81 209.719ZM273.038 213.114C272.526 213.114 272.086 212.993 271.717 212.751C271.347 212.51 271.063 212.177 270.864 211.754C270.665 211.33 270.566 210.846 270.566 210.301C270.566 209.747 270.668 209.258 270.871 208.835C271.077 208.408 271.364 208.076 271.731 207.837C272.1 207.595 272.531 207.474 273.023 207.474C273.407 207.474 273.753 207.545 274.06 207.688C274.368 207.83 274.62 208.028 274.817 208.284C275.013 208.54 275.135 208.838 275.183 209.179H274.344C274.281 208.93 274.138 208.71 273.918 208.518C273.701 208.324 273.407 208.227 273.038 208.227C272.711 208.227 272.424 208.312 272.178 208.483C271.934 208.651 271.744 208.889 271.607 209.197C271.472 209.502 271.404 209.861 271.404 210.273C271.404 210.694 271.47 211.061 271.603 211.374C271.738 211.686 271.927 211.929 272.171 212.102C272.417 212.274 272.706 212.361 273.038 212.361C273.255 212.361 273.453 212.323 273.631 212.247C273.808 212.171 273.959 212.062 274.082 211.92C274.205 211.778 274.292 211.608 274.344 211.409H275.183C275.135 211.731 275.018 212.021 274.831 212.279C274.646 212.535 274.401 212.738 274.096 212.89C273.793 213.039 273.44 213.114 273.038 213.114ZM278.695 213.114C278.169 213.114 277.716 212.998 277.335 212.766C276.956 212.531 276.663 212.205 276.457 211.786C276.254 211.364 276.152 210.874 276.152 210.315C276.152 209.757 276.254 209.264 276.457 208.838C276.663 208.41 276.95 208.076 277.317 207.837C277.686 207.595 278.117 207.474 278.609 207.474C278.893 207.474 279.174 207.522 279.451 207.616C279.728 207.711 279.98 207.865 280.207 208.078C280.435 208.289 280.616 208.568 280.751 208.916C280.886 209.264 280.953 209.693 280.953 210.202V210.557H276.749V209.832H280.101C280.101 209.525 280.039 209.25 279.916 209.009C279.795 208.767 279.623 208.576 279.398 208.437C279.175 208.297 278.912 208.227 278.609 208.227C278.276 208.227 277.987 208.31 277.743 208.476C277.501 208.639 277.316 208.852 277.185 209.115C277.055 209.378 276.99 209.66 276.99 209.96V210.443C276.99 210.855 277.061 211.204 277.203 211.491C277.348 211.775 277.548 211.991 277.803 212.141C278.059 212.287 278.356 212.361 278.695 212.361C278.915 212.361 279.114 212.33 279.291 212.268C279.471 212.205 279.626 212.11 279.756 211.984C279.887 211.857 279.987 211.698 280.058 211.509L280.868 211.736C280.783 212.01 280.639 212.252 280.438 212.46C280.237 212.666 279.988 212.827 279.692 212.943C279.397 213.057 279.064 213.114 278.695 213.114Z" fill="#323130"/>
<path d="M145.858 255.545C145.815 255.186 145.643 254.906 145.339 254.707C145.036 254.509 144.665 254.409 144.224 254.409C143.902 254.409 143.621 254.461 143.379 254.565C143.14 254.67 142.953 254.813 142.818 254.995C142.686 255.177 142.619 255.384 142.619 255.616C142.619 255.811 142.665 255.978 142.758 256.117C142.853 256.254 142.973 256.369 143.12 256.462C143.267 256.552 143.421 256.626 143.582 256.685C143.743 256.742 143.891 256.788 144.026 256.824L144.764 257.023C144.954 257.072 145.164 257.141 145.396 257.229C145.631 257.316 145.854 257.436 146.067 257.587C146.283 257.737 146.46 257.928 146.6 258.163C146.74 258.397 146.81 258.685 146.81 259.026C146.81 259.419 146.707 259.774 146.501 260.091C146.297 260.408 145.999 260.66 145.606 260.847C145.215 261.034 144.741 261.128 144.182 261.128C143.661 261.128 143.21 261.044 142.829 260.876C142.45 260.708 142.152 260.473 141.934 260.173C141.719 259.872 141.597 259.523 141.568 259.125H142.477C142.501 259.4 142.593 259.627 142.754 259.807C142.918 259.984 143.124 260.117 143.372 260.205C143.623 260.29 143.893 260.332 144.182 260.332C144.518 260.332 144.82 260.278 145.087 260.169C145.355 260.058 145.567 259.904 145.723 259.707C145.879 259.509 145.957 259.277 145.957 259.011C145.957 258.77 145.89 258.573 145.755 258.422C145.62 258.27 145.442 258.147 145.222 258.053C145.002 257.958 144.764 257.875 144.509 257.804L143.614 257.548C143.045 257.385 142.596 257.152 142.264 256.849C141.933 256.546 141.767 256.149 141.767 255.659C141.767 255.252 141.877 254.897 142.097 254.594C142.32 254.288 142.618 254.052 142.992 253.884C143.369 253.713 143.789 253.628 144.253 253.628C144.722 253.628 145.138 253.712 145.503 253.88C145.867 254.046 146.156 254.273 146.369 254.562C146.585 254.851 146.698 255.179 146.71 255.545H145.858ZM150.36 261.114C149.867 261.114 149.435 260.996 149.064 260.762C148.694 260.528 148.406 260.2 148.197 259.778C147.991 259.357 147.888 258.865 147.888 258.301C147.888 257.733 147.991 257.237 148.197 256.813C148.406 256.389 148.694 256.06 149.064 255.826C149.435 255.592 149.867 255.474 150.36 255.474C150.852 255.474 151.283 255.592 151.653 255.826C152.024 256.06 152.313 256.389 152.519 256.813C152.727 257.237 152.831 257.733 152.831 258.301C152.831 258.865 152.727 259.357 152.519 259.778C152.313 260.2 152.024 260.528 151.653 260.762C151.283 260.996 150.852 261.114 150.36 261.114ZM150.36 260.361C150.734 260.361 151.042 260.265 151.283 260.073C151.525 259.881 151.703 259.629 151.819 259.317C151.935 259.004 151.993 258.666 151.993 258.301C151.993 257.937 151.935 257.597 151.819 257.282C151.703 256.967 151.525 256.713 151.283 256.518C151.042 256.324 150.734 256.227 150.36 256.227C149.986 256.227 149.678 256.324 149.437 256.518C149.195 256.713 149.016 256.967 148.9 257.282C148.784 257.597 148.726 257.937 148.726 258.301C148.726 258.666 148.784 259.004 148.9 259.317C149.016 259.629 149.195 259.881 149.437 260.073C149.678 260.265 149.986 260.361 150.36 260.361ZM156.54 255.545V256.256H153.599V255.545H156.54ZM154.48 261V254.793C154.48 254.48 154.554 254.22 154.7 254.011C154.847 253.803 155.038 253.647 155.272 253.543C155.506 253.438 155.754 253.386 156.014 253.386C156.22 253.386 156.388 253.403 156.518 253.436C156.649 253.469 156.746 253.5 156.81 253.528L156.568 254.253C156.526 254.239 156.466 254.221 156.391 254.2C156.317 254.178 156.22 254.168 156.099 254.168C155.822 254.168 155.622 254.237 155.499 254.377C155.379 254.517 155.318 254.722 155.318 254.991V261H154.48ZM160.086 255.545V256.256H157.26V255.545H160.086ZM158.084 254.239H158.922V259.438C158.922 259.674 158.956 259.852 159.025 259.97C159.096 260.086 159.186 260.164 159.295 260.205C159.406 260.242 159.523 260.261 159.646 260.261C159.738 260.261 159.814 260.257 159.873 260.247C159.933 260.235 159.98 260.226 160.015 260.219L160.186 260.972C160.129 260.993 160.05 261.014 159.948 261.036C159.846 261.059 159.717 261.071 159.561 261.071C159.324 261.071 159.092 261.02 158.865 260.918C158.64 260.817 158.453 260.661 158.304 260.453C158.157 260.245 158.084 259.982 158.084 259.665V254.239ZM168.251 255.545C168.208 255.186 168.035 254.906 167.732 254.707C167.429 254.509 167.057 254.409 166.617 254.409C166.295 254.409 166.013 254.461 165.772 254.565C165.533 254.67 165.346 254.813 165.211 254.995C165.078 255.177 165.012 255.384 165.012 255.616C165.012 255.811 165.058 255.978 165.15 256.117C165.245 256.254 165.366 256.369 165.513 256.462C165.659 256.552 165.813 256.626 165.974 256.685C166.135 256.742 166.283 256.788 166.418 256.824L167.157 257.023C167.346 257.072 167.557 257.141 167.789 257.229C168.023 257.316 168.247 257.436 168.46 257.587C168.675 257.737 168.853 257.928 168.993 258.163C169.132 258.397 169.202 258.685 169.202 259.026C169.202 259.419 169.099 259.774 168.893 260.091C168.69 260.408 168.391 260.66 167.998 260.847C167.608 261.034 167.133 261.128 166.574 261.128C166.054 261.128 165.603 261.044 165.221 260.876C164.843 260.708 164.544 260.473 164.327 260.173C164.111 259.872 163.989 259.523 163.961 259.125H164.87C164.894 259.4 164.986 259.627 165.147 259.807C165.31 259.984 165.516 260.117 165.765 260.205C166.016 260.29 166.286 260.332 166.574 260.332C166.911 260.332 167.212 260.278 167.48 260.169C167.747 260.058 167.959 259.904 168.116 259.707C168.272 259.509 168.35 259.277 168.35 259.011C168.35 258.77 168.282 258.573 168.148 258.422C168.013 258.27 167.835 258.147 167.615 258.053C167.395 257.958 167.157 257.875 166.901 257.804L166.006 257.548C165.438 257.385 164.988 257.152 164.657 256.849C164.325 256.546 164.16 256.149 164.16 255.659C164.16 255.252 164.27 254.897 164.49 254.594C164.712 254.288 165.011 254.052 165.385 253.884C165.761 253.713 166.181 253.628 166.645 253.628C167.114 253.628 167.531 253.712 167.895 253.88C168.26 254.046 168.549 254.273 168.762 254.562C168.977 254.851 169.091 255.179 169.103 255.545H168.251ZM171.318 259.011L171.304 257.974H171.474L173.86 255.545H174.897L172.355 258.116H172.284L171.318 259.011ZM170.537 261V253.727H171.375V261H170.537ZM174.002 261L171.872 258.301L172.468 257.719L175.068 261H174.002ZM175.976 261V255.545H176.814V261H175.976ZM176.402 254.636C176.239 254.636 176.098 254.581 175.98 254.469C175.864 254.358 175.806 254.224 175.806 254.068C175.806 253.912 175.864 253.778 175.98 253.667C176.098 253.556 176.239 253.5 176.402 253.5C176.566 253.5 176.705 253.556 176.821 253.667C176.94 253.778 176.999 253.912 176.999 254.068C176.999 254.224 176.94 254.358 176.821 254.469C176.705 254.581 176.566 254.636 176.402 254.636ZM179.187 253.727V261H178.349V253.727H179.187ZM181.56 253.727V261H180.722V253.727H181.56Z" fill="#323130"/>
<path d="M33.0936 215V207.727H33.9743V214.219H37.3549V215H33.0936ZM40.21 215.128C39.8644 215.128 39.5507 215.063 39.269 214.933C38.9873 214.8 38.7636 214.609 38.5978 214.361C38.4321 214.11 38.3493 213.807 38.3493 213.452C38.3493 213.139 38.4108 212.886 38.5339 212.692C38.657 212.495 38.8216 212.341 39.0275 212.23C39.2335 212.119 39.4608 212.036 39.7093 211.982C39.9603 211.925 40.2124 211.88 40.4657 211.847C40.7972 211.804 41.0659 211.772 41.2718 211.751C41.4802 211.727 41.6317 211.688 41.7264 211.634C41.8234 211.579 41.872 211.484 41.872 211.349V211.321C41.872 210.971 41.7761 210.698 41.5843 210.504C41.3949 210.31 41.1073 210.213 40.7214 210.213C40.3213 210.213 40.0076 210.301 39.7804 210.476C39.5531 210.651 39.3933 210.838 39.301 211.037L38.5055 210.753C38.6475 210.421 38.8369 210.163 39.0737 209.979C39.3128 209.792 39.5732 209.661 39.8549 209.588C40.139 209.512 40.4184 209.474 40.693 209.474C40.8682 209.474 41.0694 209.496 41.2967 209.538C41.5263 209.579 41.7477 209.663 41.9608 209.79C42.1762 209.918 42.3549 210.111 42.497 210.369C42.639 210.627 42.71 210.973 42.71 211.406V215H41.872V214.261H41.8294C41.7725 214.38 41.6779 214.506 41.5453 214.641C41.4127 214.776 41.2363 214.891 41.0162 214.986C40.796 215.08 40.5273 215.128 40.21 215.128ZM40.3379 214.375C40.6693 214.375 40.9487 214.31 41.176 214.18C41.4056 214.049 41.5784 213.881 41.6944 213.675C41.8128 213.469 41.872 213.253 41.872 213.026V212.259C41.8365 212.301 41.7583 212.34 41.6376 212.376C41.5192 212.409 41.3819 212.438 41.2257 212.464C41.0718 212.488 40.9215 212.509 40.7747 212.528C40.6303 212.545 40.5131 212.559 40.4231 212.571C40.2053 212.599 40.0017 212.646 39.8123 212.71C39.6253 212.771 39.4738 212.865 39.3578 212.99C39.2441 213.113 39.1873 213.281 39.1873 213.494C39.1873 213.786 39.295 214.006 39.5105 214.155C39.7283 214.302 40.0041 214.375 40.3379 214.375ZM45.0778 211.719V215H44.2397V209.545H45.0494V210.398H45.1204C45.2482 210.121 45.4424 209.898 45.7028 209.73C45.9632 209.56 46.2994 209.474 46.7113 209.474C47.0806 209.474 47.4038 209.55 47.6808 209.702C47.9577 209.851 48.1732 210.078 48.3271 210.384C48.4809 210.687 48.5579 211.07 48.5579 211.534V215H47.7198V211.591C47.7198 211.162 47.6085 210.829 47.386 210.589C47.1635 210.348 46.8581 210.227 46.4698 210.227C46.2023 210.227 45.9632 210.285 45.7525 210.401C45.5442 210.517 45.3796 210.687 45.2589 210.909C45.1381 211.132 45.0778 211.402 45.0778 211.719ZM52.291 217.159C51.8862 217.159 51.5382 217.107 51.247 217.003C50.9558 216.901 50.7131 216.766 50.519 216.598C50.3272 216.432 50.1745 216.255 50.0609 216.065L50.7285 215.597C50.8043 215.696 50.9002 215.81 51.0162 215.938C51.1322 216.068 51.2908 216.18 51.492 216.275C51.6956 216.372 51.9619 216.42 52.291 216.42C52.7314 216.42 53.0948 216.314 53.3812 216.101C53.6677 215.888 53.8109 215.554 53.8109 215.099V213.991H53.7399C53.6783 214.091 53.5907 214.214 53.4771 214.361C53.3658 214.505 53.2048 214.634 52.9941 214.748C52.7858 214.859 52.5041 214.915 52.149 214.915C51.7086 214.915 51.3133 214.811 50.9629 214.602C50.6149 214.394 50.3391 214.091 50.1355 213.693C49.9342 213.295 49.8336 212.812 49.8336 212.244C49.8336 211.686 49.9319 211.199 50.1284 210.785C50.3249 210.368 50.5983 210.046 50.9487 209.819C51.2991 209.589 51.7039 209.474 52.1632 209.474C52.5183 209.474 52.8 209.534 53.0083 209.652C53.219 209.768 53.38 209.901 53.4913 210.05C53.6049 210.196 53.6925 210.317 53.7541 210.412H53.8393V209.545H54.649V215.156C54.649 215.625 54.5424 216.006 54.3294 216.3C54.1187 216.596 53.8346 216.812 53.4771 216.95C53.122 217.089 52.7266 217.159 52.291 217.159ZM52.2626 214.162C52.5988 214.162 52.8829 214.085 53.1149 213.931C53.3469 213.777 53.5233 213.556 53.644 213.267C53.7647 212.978 53.8251 212.633 53.8251 212.23C53.8251 211.837 53.7659 211.49 53.6475 211.19C53.5292 210.889 53.354 210.653 53.122 210.483C52.89 210.312 52.6035 210.227 52.2626 210.227C51.9075 210.227 51.6116 210.317 51.3748 210.497C51.1404 210.677 50.9641 210.919 50.8457 211.222C50.7297 211.525 50.6717 211.861 50.6717 212.23C50.6717 212.609 50.7309 212.944 50.8493 213.235C50.97 213.524 51.1475 213.751 51.3819 213.917C51.6187 214.08 51.9122 214.162 52.2626 214.162ZM59.6206 212.77V209.545H60.4586V215H59.6206V214.077H59.5637C59.4359 214.354 59.237 214.589 58.9672 214.783C58.6973 214.975 58.3564 215.071 57.9444 215.071C57.6035 215.071 57.3005 214.996 57.0353 214.847C56.7702 214.696 56.5618 214.469 56.4103 214.165C56.2588 213.86 56.1831 213.475 56.1831 213.011V209.545H57.0211V212.955C57.0211 213.352 57.1324 213.67 57.3549 213.906C57.5798 214.143 57.8663 214.261 58.2143 214.261C58.4226 214.261 58.6345 214.208 58.85 214.102C59.0678 213.995 59.2501 213.832 59.3968 213.612C59.546 213.391 59.6206 213.111 59.6206 212.77ZM63.5987 215.128C63.2531 215.128 62.9394 215.063 62.6577 214.933C62.3759 214.8 62.1522 214.609 61.9865 214.361C61.8208 214.11 61.7379 213.807 61.7379 213.452C61.7379 213.139 61.7995 212.886 61.9226 212.692C62.0457 212.495 62.2102 212.341 62.4162 212.23C62.6222 212.119 62.8494 212.036 63.098 211.982C63.349 211.925 63.6011 211.88 63.8544 211.847C64.1858 211.804 64.4545 211.772 64.6605 211.751C64.8688 211.727 65.0204 211.688 65.1151 211.634C65.2121 211.579 65.2607 211.484 65.2607 211.349V211.321C65.2607 210.971 65.1648 210.698 64.973 210.504C64.7836 210.31 64.496 210.213 64.1101 210.213C63.71 210.213 63.3963 210.301 63.169 210.476C62.9418 210.651 62.782 210.838 62.6896 211.037L61.8942 210.753C62.0362 210.421 62.2256 210.163 62.4624 209.979C62.7015 209.792 62.9619 209.661 63.2436 209.588C63.5277 209.512 63.8071 209.474 64.0817 209.474C64.2569 209.474 64.4581 209.496 64.6854 209.538C64.915 209.579 65.1364 209.663 65.3494 209.79C65.5649 209.918 65.7436 210.111 65.8857 210.369C66.0277 210.627 66.0987 210.973 66.0987 211.406V215H65.2607V214.261H65.218C65.1612 214.38 65.0665 214.506 64.9339 214.641C64.8014 214.776 64.625 214.891 64.4048 214.986C64.1847 215.08 63.916 215.128 63.5987 215.128ZM63.7266 214.375C64.058 214.375 64.3374 214.31 64.5646 214.18C64.7943 214.049 64.9671 213.881 65.0831 213.675C65.2015 213.469 65.2607 213.253 65.2607 213.026V212.259C65.2251 212.301 65.147 212.34 65.0263 212.376C64.9079 212.409 64.7706 212.438 64.6143 212.464C64.4605 212.488 64.3101 212.509 64.1634 212.528C64.0189 212.545 63.9018 212.559 63.8118 212.571C63.594 212.599 63.3904 212.646 63.201 212.71C63.014 212.771 62.8625 212.865 62.7464 212.99C62.6328 213.113 62.576 213.281 62.576 213.494C62.576 213.786 62.6837 214.006 62.8991 214.155C63.117 214.302 63.3928 214.375 63.7266 214.375ZM69.8301 217.159C69.4252 217.159 69.0772 217.107 68.786 217.003C68.4949 216.901 68.2522 216.766 68.0581 216.598C67.8663 216.432 67.7136 216.255 67.6 216.065L68.2676 215.597C68.3433 215.696 68.4392 215.81 68.5552 215.938C68.6712 216.068 68.8298 216.18 69.0311 216.275C69.2347 216.372 69.501 216.42 69.8301 216.42C70.2704 216.42 70.6338 216.314 70.9203 216.101C71.2067 215.888 71.35 215.554 71.35 215.099V213.991H71.2789C71.2174 214.091 71.1298 214.214 71.0162 214.361C70.9049 214.505 70.7439 214.634 70.5332 214.748C70.3249 214.859 70.0431 214.915 69.688 214.915C69.2477 214.915 68.8523 214.811 68.502 214.602C68.1539 214.394 67.8781 214.091 67.6745 213.693C67.4733 213.295 67.3727 212.812 67.3727 212.244C67.3727 211.686 67.4709 211.199 67.6674 210.785C67.8639 210.368 68.1374 210.046 68.4877 209.819C68.8381 209.589 69.243 209.474 69.7022 209.474C70.0574 209.474 70.3391 209.534 70.5474 209.652C70.7581 209.768 70.9191 209.901 71.0304 210.05C71.144 210.196 71.2316 210.317 71.2931 210.412H71.3784V209.545H72.188V215.156C72.188 215.625 72.0815 216.006 71.8684 216.3C71.6577 216.596 71.3736 216.812 71.0162 216.95C70.661 217.089 70.2657 217.159 69.8301 217.159ZM69.8017 214.162C70.1378 214.162 70.4219 214.085 70.6539 213.931C70.8859 213.777 71.0623 213.556 71.1831 213.267C71.3038 212.978 71.3642 212.633 71.3642 212.23C71.3642 211.837 71.305 211.49 71.1866 211.19C71.0682 210.889 70.8931 210.653 70.661 210.483C70.429 210.312 70.1426 210.227 69.8017 210.227C69.4466 210.227 69.1506 210.317 68.9139 210.497C68.6795 210.677 68.5031 210.919 68.3848 211.222C68.2688 211.525 68.2108 211.861 68.2108 212.23C68.2108 212.609 68.2699 212.944 68.3883 213.235C68.5091 213.524 68.6866 213.751 68.921 213.917C69.1577 214.08 69.4513 214.162 69.8017 214.162ZM76.0091 215.114C75.4835 215.114 75.0301 214.998 74.649 214.766C74.2702 214.531 73.9778 214.205 73.7718 213.786C73.5682 213.364 73.4664 212.874 73.4664 212.315C73.4664 211.757 73.5682 211.264 73.7718 210.838C73.9778 210.41 74.2643 210.076 74.6312 209.837C75.0005 209.595 75.4314 209.474 75.9238 209.474C76.2079 209.474 76.4885 209.522 76.7654 209.616C77.0424 209.711 77.2946 209.865 77.5218 210.078C77.7491 210.289 77.9302 210.568 78.0652 210.916C78.2001 211.264 78.2676 211.693 78.2676 212.202V212.557H74.063V211.832H77.4153C77.4153 211.525 77.3538 211.25 77.2306 211.009C77.1099 210.767 76.9371 210.576 76.7122 210.437C76.4896 210.297 76.2269 210.227 75.9238 210.227C75.59 210.227 75.3012 210.31 75.0574 210.476C74.8159 210.639 74.63 210.852 74.4998 211.115C74.3696 211.378 74.3045 211.66 74.3045 211.96V212.443C74.3045 212.855 74.3755 213.204 74.5176 213.491C74.662 213.775 74.862 213.991 75.1177 214.141C75.3734 214.287 75.6705 214.361 76.0091 214.361C76.2292 214.361 76.4281 214.33 76.6056 214.268C76.7856 214.205 76.9406 214.11 77.0708 213.984C77.2011 213.857 77.3017 213.698 77.3727 213.509L78.1824 213.736C78.0971 214.01 77.9539 214.252 77.7527 214.46C77.5514 214.666 77.3029 214.827 77.0069 214.943C76.711 215.057 76.3784 215.114 76.0091 215.114ZM83.4061 210.767L82.6532 210.98C82.6059 210.855 82.536 210.733 82.4437 210.614C82.3538 210.494 82.2306 210.394 82.0744 210.316C81.9181 210.238 81.7181 210.199 81.4743 210.199C81.1404 210.199 80.8623 210.276 80.6397 210.43C80.4196 210.581 80.3095 210.774 80.3095 211.009C80.3095 211.217 80.3852 211.381 80.5368 211.502C80.6883 211.623 80.925 211.723 81.247 211.804L82.0566 212.003C82.5443 212.121 82.9077 212.302 83.1468 212.546C83.3859 212.788 83.5055 213.099 83.5055 213.48C83.5055 213.793 83.4155 214.072 83.2356 214.318C83.0581 214.564 82.8095 214.759 82.4899 214.901C82.1703 215.043 81.7986 215.114 81.3748 215.114C80.8185 215.114 80.358 214.993 79.9934 214.751C79.6288 214.51 79.398 214.157 79.301 213.693L80.0964 213.494C80.1722 213.788 80.3154 214.008 80.5261 214.155C80.7392 214.302 81.0173 214.375 81.3606 214.375C81.7512 214.375 82.0614 214.292 82.291 214.126C82.523 213.958 82.639 213.757 82.639 213.523C82.639 213.333 82.5727 213.175 82.4402 213.047C82.3076 212.917 82.104 212.82 81.8294 212.756L80.9203 212.543C80.4208 212.424 80.0538 212.241 79.8194 211.992C79.5874 211.741 79.4714 211.428 79.4714 211.051C79.4714 210.743 79.5578 210.471 79.7306 210.234C79.9058 209.998 80.1438 209.812 80.4444 209.677C80.7475 209.542 81.0907 209.474 81.4743 209.474C82.014 209.474 82.4378 209.593 82.7456 209.83C83.0557 210.066 83.2759 210.379 83.4061 210.767Z" fill="#323130"/>
<path d="M32.7271 128.509V127.727H38.1816V128.509H35.8947V135H35.014V128.509H32.7271ZM40.9231 135.114C40.3975 135.114 39.9442 134.998 39.563 134.766C39.1842 134.531 38.8919 134.205 38.6859 133.786C38.4823 133.364 38.3805 132.874 38.3805 132.315C38.3805 131.757 38.4823 131.264 38.6859 130.838C38.8919 130.41 39.1783 130.076 39.5453 129.837C39.9146 129.595 40.3455 129.474 40.8379 129.474C41.122 129.474 41.4025 129.522 41.6795 129.616C41.9565 129.711 42.2086 129.865 42.4359 130.078C42.6632 130.289 42.8443 130.568 42.9792 130.916C43.1142 131.264 43.1816 131.693 43.1816 132.202V132.557H38.9771V131.832H42.3294C42.3294 131.525 42.2678 131.25 42.1447 131.009C42.024 130.767 41.8511 130.576 41.6262 130.437C41.4037 130.297 41.1409 130.227 40.8379 130.227C40.5041 130.227 40.2153 130.31 39.9714 130.476C39.7299 130.639 39.5441 130.852 39.4139 131.115C39.2837 131.378 39.2186 131.66 39.2186 131.96V132.443C39.2186 132.855 39.2896 133.204 39.4316 133.491C39.5761 133.775 39.7761 133.991 40.0318 134.141C40.2875 134.287 40.5846 134.361 40.9231 134.361C41.1433 134.361 41.3422 134.33 41.5197 134.268C41.6996 134.205 41.8547 134.11 41.9849 133.984C42.1151 133.857 42.2157 133.698 42.2868 133.509L43.0964 133.736C43.0112 134.01 42.868 134.252 42.6667 134.46C42.4655 134.666 42.2169 134.827 41.921 134.943C41.6251 135.057 41.2924 135.114 40.9231 135.114ZM46.6724 135.114C46.161 135.114 45.7207 134.993 45.3514 134.751C44.9821 134.51 44.698 134.177 44.4991 133.754C44.3002 133.33 44.2008 132.846 44.2008 132.301C44.2008 131.747 44.3026 131.258 44.5062 130.835C44.7122 130.408 44.9986 130.076 45.3656 129.837C45.7349 129.595 46.1658 129.474 46.6582 129.474C47.0417 129.474 47.3874 129.545 47.6951 129.688C48.0029 129.83 48.255 130.028 48.4515 130.284C48.648 130.54 48.7699 130.838 48.8173 131.179H47.9792C47.9153 130.93 47.7733 130.71 47.5531 130.518C47.3353 130.324 47.0417 130.227 46.6724 130.227C46.3457 130.227 46.0592 130.312 45.813 130.483C45.5692 130.651 45.3786 130.889 45.2413 131.197C45.1064 131.502 45.0389 131.861 45.0389 132.273C45.0389 132.694 45.1052 133.061 45.2377 133.374C45.3727 133.686 45.5621 133.929 45.8059 134.102C46.0521 134.274 46.341 134.361 46.6724 134.361C46.8902 134.361 47.0879 134.323 47.2654 134.247C47.443 134.171 47.5933 134.062 47.7164 133.92C47.8395 133.778 47.9271 133.608 47.9792 133.409H48.8173C48.7699 133.731 48.6528 134.021 48.4657 134.279C48.2811 134.535 48.036 134.738 47.7306 134.89C47.4276 135.039 47.0749 135.114 46.6724 135.114ZM50.8805 131.719V135H50.0424V127.727H50.8805V130.398H50.9515C51.0794 130.116 51.2711 129.892 51.5268 129.727C51.7849 129.558 52.1281 129.474 52.5566 129.474C52.9283 129.474 53.2538 129.549 53.5332 129.698C53.8126 129.845 54.0292 130.071 54.1831 130.376C54.3393 130.679 54.4174 131.065 54.4174 131.534V135H53.5794V131.591C53.5794 131.158 53.4669 130.823 53.242 130.586C53.0195 130.347 52.7105 130.227 52.3152 130.227C52.0405 130.227 51.7943 130.285 51.5765 130.401C51.3611 130.517 51.1906 130.687 51.0652 130.909C50.9421 131.132 50.8805 131.402 50.8805 131.719ZM56.7887 131.719V135H55.9506V129.545H56.7603V130.398H56.8313C56.9592 130.121 57.1533 129.898 57.4137 129.73C57.6741 129.56 58.0103 129.474 58.4222 129.474C58.7915 129.474 59.1147 129.55 59.3917 129.702C59.6687 129.851 59.8841 130.078 60.038 130.384C60.1919 130.687 60.2688 131.07 60.2688 131.534V135H59.4308V131.591C59.4308 131.162 59.3195 130.829 59.0969 130.589C58.8744 130.348 58.569 130.227 58.1808 130.227C57.9132 130.227 57.6741 130.285 57.4634 130.401C57.2551 130.517 57.0906 130.687 56.9698 130.909C56.8491 131.132 56.7887 131.402 56.7887 131.719ZM61.8002 135V129.545H62.6383V135H61.8002ZM62.2264 128.636C62.063 128.636 61.9222 128.581 61.8038 128.469C61.6878 128.358 61.6298 128.224 61.6298 128.068C61.6298 127.912 61.6878 127.778 61.8038 127.667C61.9222 127.556 62.063 127.5 62.2264 127.5C62.3897 127.5 62.5294 127.556 62.6454 127.667C62.7638 127.778 62.823 127.912 62.823 128.068C62.823 128.224 62.7638 128.358 62.6454 128.469C62.5294 128.581 62.3897 128.636 62.2264 128.636ZM66.3892 135.114C65.8778 135.114 65.4375 134.993 65.0682 134.751C64.6989 134.51 64.4148 134.177 64.2159 133.754C64.017 133.33 63.9176 132.846 63.9176 132.301C63.9176 131.747 64.0194 131.258 64.223 130.835C64.429 130.408 64.7154 130.076 65.0824 129.837C65.4517 129.595 65.8826 129.474 66.375 129.474C66.7585 129.474 67.1042 129.545 67.4119 129.688C67.7197 129.83 67.9718 130.028 68.1683 130.284C68.3648 130.54 68.4867 130.838 68.5341 131.179H67.696C67.6321 130.93 67.4901 130.71 67.2699 130.518C67.0521 130.324 66.7585 130.227 66.3892 130.227C66.0625 130.227 65.776 130.312 65.5298 130.483C65.286 130.651 65.0954 130.889 64.9581 131.197C64.8232 131.502 64.7557 131.861 64.7557 132.273C64.7557 132.694 64.822 133.061 64.9545 133.374C65.0895 133.686 65.2789 133.929 65.5227 134.102C65.7689 134.274 66.0578 134.361 66.3892 134.361C66.607 134.361 66.8047 134.323 66.9822 134.247C67.1598 134.171 67.3101 134.062 67.4332 133.92C67.5563 133.778 67.6439 133.608 67.696 133.409H68.5341C68.4867 133.731 68.3696 134.021 68.1825 134.279C67.9979 134.535 67.7528 134.738 67.4474 134.89C67.1444 135.039 66.7917 135.114 66.3892 135.114ZM71.3643 135.128C71.0187 135.128 70.705 135.063 70.4233 134.933C70.1416 134.8 69.9179 134.609 69.7521 134.361C69.5864 134.11 69.5036 133.807 69.5036 133.452C69.5036 133.139 69.5651 132.886 69.6882 132.692C69.8113 132.495 69.9759 132.341 70.1818 132.23C70.3878 132.119 70.6151 132.036 70.8636 131.982C71.1146 131.925 71.3667 131.88 71.62 131.847C71.9515 131.804 72.2202 131.772 72.4261 131.751C72.6345 131.727 72.786 131.688 72.8807 131.634C72.9777 131.579 73.0263 131.484 73.0263 131.349V131.321C73.0263 130.971 72.9304 130.698 72.7386 130.504C72.5492 130.31 72.2616 130.213 71.8757 130.213C71.4756 130.213 71.1619 130.301 70.9347 130.476C70.7074 130.651 70.5476 130.838 70.4553 131.037L69.6598 130.753C69.8018 130.421 69.9912 130.163 70.228 129.979C70.4671 129.792 70.7275 129.661 71.0092 129.588C71.2933 129.512 71.5727 129.474 71.8473 129.474C72.0225 129.474 72.2237 129.496 72.451 129.538C72.6806 129.579 72.902 129.663 73.1151 129.79C73.3305 129.918 73.5092 130.111 73.6513 130.369C73.7933 130.627 73.8643 130.973 73.8643 131.406V135H73.0263V134.261H72.9837C72.9268 134.38 72.8321 134.506 72.6996 134.641C72.567 134.776 72.3906 134.891 72.1705 134.986C71.9503 135.08 71.6816 135.128 71.3643 135.128ZM71.4922 134.375C71.8236 134.375 72.103 134.31 72.3303 134.18C72.5599 134.049 72.7327 133.881 72.8487 133.675C72.9671 133.469 73.0263 133.253 73.0263 133.026V132.259C72.9908 132.301 72.9126 132.34 72.7919 132.376C72.6735 132.409 72.5362 132.438 72.38 132.464C72.2261 132.488 72.0758 132.509 71.929 132.528C71.7846 132.545 71.6674 132.559 71.5774 132.571C71.3596 132.599 71.156 132.646 70.9666 132.71C70.7796 132.771 70.6281 132.865 70.5121 132.99C70.3984 133.113 70.3416 133.281 70.3416 133.494C70.3416 133.786 70.4493 134.006 70.6648 134.155C70.8826 134.302 71.1584 134.375 71.4922 134.375ZM76.2321 127.727V135H75.394V127.727H76.2321Z" fill="#323130"/>
<path d="M136.644 93H135.721L138.391 85.7273H139.3L141.971 93H141.047L138.874 86.8778H138.817L136.644 93ZM136.985 90.1591H140.706V90.9403H136.985V90.1591ZM146.766 87.5455L144.749 93H143.897L141.88 87.5455H142.789L144.295 91.892H144.352L145.857 87.5455H146.766ZM149.964 93.1136C149.439 93.1136 148.985 92.9976 148.604 92.7656C148.225 92.5312 147.933 92.2045 147.727 91.7855C147.523 91.3641 147.422 90.8741 147.422 90.3153C147.422 89.7566 147.523 89.2642 147.727 88.8381C147.933 88.4096 148.219 88.0758 148.586 87.8366C148.956 87.5952 149.386 87.4744 149.879 87.4744C150.163 87.4744 150.444 87.5218 150.721 87.6165C150.998 87.7112 151.25 87.8651 151.477 88.0781C151.704 88.2888 151.885 88.5682 152.02 88.9162C152.155 89.2642 152.223 89.6927 152.223 90.2017V90.5568H148.018V89.8324H151.37C151.37 89.5246 151.309 89.25 151.186 89.0085C151.065 88.767 150.892 88.5765 150.667 88.4368C150.445 88.2971 150.182 88.2273 149.879 88.2273C149.545 88.2273 149.256 88.3101 149.012 88.4759C148.771 88.6392 148.585 88.8523 148.455 89.1151C148.325 89.3778 148.26 89.6596 148.26 89.9602V90.4432C148.26 90.8551 148.331 91.2043 148.473 91.4908C148.617 91.7749 148.817 91.9915 149.073 92.1406C149.328 92.2874 149.626 92.3608 149.964 92.3608C150.184 92.3608 150.383 92.33 150.561 92.2685C150.741 92.2045 150.896 92.1098 151.026 91.9844C151.156 91.8565 151.257 91.6979 151.328 91.5085L152.137 91.7358C152.052 92.0104 151.909 92.2519 151.708 92.4602C151.507 92.6662 151.258 92.8272 150.962 92.9432C150.666 93.0568 150.333 93.1136 149.964 93.1136ZM153.498 93V87.5455H154.307V88.3693H154.364C154.463 88.0994 154.643 87.8804 154.904 87.7124C155.164 87.5443 155.458 87.4602 155.784 87.4602C155.846 87.4602 155.923 87.4614 156.015 87.4638C156.108 87.4661 156.177 87.4697 156.225 87.4744V88.3267C156.196 88.3196 156.131 88.3089 156.029 88.2947C155.93 88.2782 155.825 88.2699 155.713 88.2699C155.448 88.2699 155.212 88.3255 155.003 88.4368C154.797 88.5457 154.634 88.6972 154.513 88.8913C154.395 89.0831 154.336 89.3021 154.336 89.5483V93H153.498ZM158.823 93.1278C158.478 93.1278 158.164 93.0627 157.882 92.9325C157.601 92.8 157.377 92.6094 157.211 92.3608C157.045 92.1098 156.963 91.8068 156.963 91.4517C156.963 91.1392 157.024 90.8859 157.147 90.6918C157.27 90.4953 157.435 90.3414 157.641 90.2301C157.847 90.1188 158.074 90.036 158.323 89.9815C158.574 89.9247 158.826 89.8797 159.079 89.8466C159.41 89.804 159.679 89.772 159.885 89.7507C160.093 89.727 160.245 89.688 160.34 89.6335C160.437 89.5791 160.485 89.4844 160.485 89.3494V89.321C160.485 88.9706 160.389 88.6984 160.198 88.5043C160.008 88.3101 159.721 88.2131 159.335 88.2131C158.935 88.2131 158.621 88.3007 158.394 88.4759C158.166 88.651 158.007 88.8381 157.914 89.0369L157.119 88.7528C157.261 88.4214 157.45 88.1634 157.687 87.9787C157.926 87.7917 158.186 87.6615 158.468 87.5881C158.752 87.5123 159.032 87.4744 159.306 87.4744C159.481 87.4744 159.683 87.4957 159.91 87.5384C160.14 87.5786 160.361 87.6626 160.574 87.7905C160.789 87.9183 160.968 88.1113 161.11 88.3693C161.252 88.6274 161.323 88.973 161.323 89.4062V93H160.485V92.2614H160.443C160.386 92.3797 160.291 92.5064 160.159 92.6413C160.026 92.7763 159.85 92.8911 159.629 92.9858C159.409 93.0805 159.141 93.1278 158.823 93.1278ZM158.951 92.375C159.283 92.375 159.562 92.3099 159.789 92.1797C160.019 92.0495 160.192 91.8814 160.308 91.6754C160.426 91.4695 160.485 91.2528 160.485 91.0256V90.2585C160.45 90.3011 160.372 90.3402 160.251 90.3757C160.133 90.4089 159.995 90.4384 159.839 90.4645C159.685 90.4882 159.535 90.5095 159.388 90.5284C159.244 90.545 159.126 90.5592 159.036 90.571C158.819 90.5994 158.615 90.6456 158.426 90.7095C158.239 90.7711 158.087 90.8646 157.971 90.9901C157.857 91.1132 157.801 91.2812 157.801 91.4943C157.801 91.7855 157.908 92.0057 158.124 92.1548C158.342 92.3016 158.617 92.375 158.951 92.375ZM165.055 95.1591C164.65 95.1591 164.302 95.107 164.011 95.0028C163.719 94.901 163.477 94.7661 163.283 94.598C163.091 94.4323 162.938 94.2547 162.825 94.0653L163.492 93.5966C163.568 93.696 163.664 93.8097 163.78 93.9375C163.896 94.0677 164.054 94.1802 164.256 94.2749C164.459 94.3719 164.726 94.4205 165.055 94.4205C165.495 94.4205 165.858 94.3139 166.145 94.1009C166.431 93.8878 166.575 93.554 166.575 93.0994V91.9915H166.504C166.442 92.0909 166.354 92.214 166.241 92.3608C166.129 92.5052 165.969 92.6342 165.758 92.7479C165.549 92.8591 165.268 92.9148 164.913 92.9148C164.472 92.9148 164.077 92.8106 163.727 92.6023C163.379 92.3939 163.103 92.0909 162.899 91.6932C162.698 91.2955 162.597 90.8125 162.597 90.2443C162.597 89.6856 162.696 89.1991 162.892 88.7848C163.089 88.3681 163.362 88.0462 163.712 87.8189C164.063 87.5893 164.468 87.4744 164.927 87.4744C165.282 87.4744 165.564 87.5336 165.772 87.652C165.983 87.768 166.144 87.9006 166.255 88.0497C166.369 88.1965 166.456 88.3172 166.518 88.4119H166.603V87.5455H167.413V93.1562C167.413 93.625 167.306 94.0062 167.093 94.2997C166.882 94.5956 166.598 94.8123 166.241 94.9496C165.886 95.0893 165.49 95.1591 165.055 95.1591ZM165.026 92.1619C165.362 92.1619 165.647 92.085 165.879 91.9311C166.111 91.7772 166.287 91.5559 166.408 91.267C166.528 90.9782 166.589 90.6326 166.589 90.2301C166.589 89.8371 166.53 89.4903 166.411 89.1896C166.293 88.889 166.118 88.6534 165.886 88.483C165.654 88.3125 165.367 88.2273 165.026 88.2273C164.671 88.2273 164.375 88.3172 164.138 88.4972C163.904 88.6771 163.728 88.9186 163.609 89.2216C163.493 89.5246 163.435 89.8608 163.435 90.2301C163.435 90.6089 163.495 90.9439 163.613 91.2351C163.734 91.5239 163.911 91.7512 164.146 91.9169C164.382 92.0803 164.676 92.1619 165.026 92.1619ZM171.234 93.1136C170.708 93.1136 170.255 92.9976 169.874 92.7656C169.495 92.5312 169.202 92.2045 168.996 91.7855C168.793 91.3641 168.691 90.8741 168.691 90.3153C168.691 89.7566 168.793 89.2642 168.996 88.8381C169.202 88.4096 169.489 88.0758 169.856 87.8366C170.225 87.5952 170.656 87.4744 171.148 87.4744C171.433 87.4744 171.713 87.5218 171.99 87.6165C172.267 87.7112 172.519 87.8651 172.746 88.0781C172.974 88.2888 173.155 88.5682 173.29 88.9162C173.425 89.2642 173.492 89.6927 173.492 90.2017V90.5568H169.288V89.8324H172.64C172.64 89.5246 172.578 89.25 172.455 89.0085C172.335 88.767 172.162 88.5765 171.937 88.4368C171.714 88.2971 171.451 88.2273 171.148 88.2273C170.815 88.2273 170.526 88.3101 170.282 88.4759C170.04 88.6392 169.855 88.8523 169.724 89.1151C169.594 89.3778 169.529 89.6596 169.529 89.9602V90.4432C169.529 90.8551 169.6 91.2043 169.742 91.4908C169.887 91.7749 170.087 91.9915 170.342 92.1406C170.598 92.2874 170.895 92.3608 171.234 92.3608C171.454 92.3608 171.653 92.33 171.83 92.2685C172.01 92.2045 172.165 92.1098 172.295 91.9844C172.426 91.8565 172.526 91.6979 172.597 91.5085L173.407 91.7358C173.322 92.0104 173.179 92.2519 172.977 92.4602C172.776 92.6662 172.527 92.8272 172.232 92.9432C171.936 93.0568 171.603 93.1136 171.234 93.1136Z" fill="#323130"/>
<rect x="0.5" y="0.5" width="359" height="326" rx="7.5" stroke="#F8FBFD"/>
</svg>
