<svg width="11" height="18" viewBox="0 0 11 18" fill="none" xmlns="http://www.w3.org/2000/svg">
<path d="M10.1666 3H7.16663C6.61433 3 6.16663 3.44772 6.16663 4V7H10.1666C10.2803 6.99748 10.3882 7.0504 10.4558 7.1419C10.5234 7.2334 10.5424 7.352 10.5066 7.46L9.76663 9.66C9.69843 9.8619 9.50973 9.9984 9.29663 10H6.16663V17.5C6.16663 17.7761 5.94273 18 5.66663 18H3.16663C2.89049 18 2.66663 17.7761 2.66663 17.5V10H1.16663C0.890486 10 0.666626 9.7761 0.666626 9.5V7.5C0.666626 7.2239 0.890486 7 1.16663 7H2.66663V4C2.66663 1.79086 4.45753 0 6.66663 0H10.1666C10.4427 0 10.6666 0.22386 10.6666 0.5V2.5C10.6666 2.77614 10.4427 3 10.1666 3Z" fill="#393A32"/>
</svg>
