<svg width="175" height="48" viewBox="0 0 175 48" fill="none" xmlns="http://www.w3.org/2000/svg">
<path d="M89.3317 26.1485L99.6152 16.1076H91.2389L83.5271 23.7889C83.4667 23.8486 83.3903 23.8894 83.3072 23.9062C83.2242 23.923 83.1381 23.915 83.0594 23.8834C82.9808 23.8518 82.913 23.7978 82.8643 23.728C82.8157 23.6582 82.7883 23.5757 82.7856 23.4906V5.01367H76.2305V40.1657H82.7826V30.4709C82.7734 30.4037 82.7872 30.3353 82.8219 30.2771C82.8565 30.2188 82.9099 30.1742 82.9731 30.1506C83.0364 30.1269 83.1057 30.1257 83.1698 30.147C83.2338 30.1684 83.2887 30.2111 83.3254 30.268L91.8974 40.1657H100.425L89.2813 27.5535C89.1076 27.3581 89.0158 27.1027 89.0252 26.8408C89.0346 26.5788 89.1445 26.3307 89.3317 26.1485Z" fill="#212121"/>
<path fill-rule="evenodd" clip-rule="evenodd" d="M32.2983 16.3526L32.2597 31.3573C32.236 39.8619 23.3911 46.6185 8.16016 46.6543V25.2987C21.6292 24.2517 31.6813 20.6661 32.2983 16.3496V16.3526Z" fill="#DEECF9"/>
<path fill-rule="evenodd" clip-rule="evenodd" d="M32.3305 15.9324C32.3305 20.4338 22.0619 24.2163 8.15975 25.2991V34.5465C3.85593 31.465 0 29.7766 0 24.7801V0C14.6199 6.01976 32.3305 1.9509 32.3305 15.9324Z" fill="#2667FF"/>
<path d="M62.681 21.341C56.6806 19.9867 56.6806 18.5429 56.6806 17.7613C56.6806 15.1392 60.3318 14.9364 61.4501 14.9364C64.8403 14.9364 66.6289 16.2728 66.7594 18.9128L66.8632 20.9293H73.3679L73.2878 18.7278C73.0534 12.3859 68.5183 8.44531 61.4501 8.44531C54.6666 8.44531 50.1106 12.189 50.1106 17.7613C50.1106 24.2614 56.0162 26.4748 61.1623 27.6799H61.189C67.142 28.9954 67.142 30.487 67.142 31.2894C67.142 34.0547 63.2861 34.2724 62.0996 34.2724C60.406 34.2724 56.4373 33.8518 56.2119 29.9679L56.0962 27.9693H49.6094L49.6895 30.1707C49.9267 36.6052 54.8001 40.7605 62.1026 40.7605C65.4395 40.7605 68.2928 39.9193 70.3513 38.3234C71.4282 37.4944 72.2967 36.423 72.8871 35.1951C73.4774 33.9673 73.7731 32.6173 73.7505 31.2536C73.7505 24.7595 67.842 22.5431 62.681 21.341Z" fill="#191919"/>
<path d="M107.948 17.3378L107.879 16.0312H101.879V40.2714H108.333V28.9359C108.333 23.0414 111.187 22.3732 113.334 22.3732H117.175V16.0312H113.411C111.258 16.0312 109.448 16.4608 107.948 17.3378Z" fill="#191919"/>
<path d="M123.919 4.93715C123.373 4.92173 122.829 5.01782 122.321 5.21961C121.813 5.42139 121.351 5.72468 120.963 6.11114C120.575 6.4976 120.269 6.95921 120.063 7.46805C119.857 7.9769 119.756 8.52242 119.766 9.07163C119.766 10.1792 120.204 11.2415 120.983 12.0247C121.761 12.8079 122.818 13.2479 123.919 13.2479C125.02 13.2479 126.076 12.8079 126.855 12.0247C127.634 11.2415 128.071 10.1792 128.071 9.07163C128.081 8.52242 127.98 7.9769 127.774 7.46805C127.569 6.95921 127.263 6.4976 126.874 6.11114C126.486 5.72468 126.024 5.42139 125.516 5.21961C125.008 5.01782 124.465 4.92173 123.919 4.93715Z" fill="#191919"/>
<path d="M127.146 16.0312H120.691V40.2684H127.146V16.0312Z" fill="#191919"/>
<path d="M144.357 15.5263C142.011 15.4975 139.704 16.1321 137.698 17.3579L137.627 16.0305H131.633V47.9996H138.087V39.149C140.001 40.2305 142.162 40.7889 144.357 40.7688C151.476 40.7688 156.658 35.453 156.658 28.1297C156.658 20.8063 151.485 15.5263 144.357 15.5263ZM144.126 21.9399C147.819 21.9399 150.204 24.368 150.204 28.1297C150.204 31.8913 147.831 34.3582 144.126 34.3582C140.421 34.3582 138.01 31.9181 138.01 28.1297C138.01 24.4277 140.469 21.9399 144.126 21.9399Z" fill="#191919"/>
<path d="M170.081 33.8539C168.562 33.8539 167.847 33.5854 167.847 31.1453V22.3274H174.729V16.0302H167.847V11.1172H161.983L161.687 16.0302H157.051V22.3274H161.393V31.2228C161.393 36.8906 164.611 40.2674 169.995 40.2674H174.999V33.8539H170.081Z" fill="#191919"/>
</svg>
