<svg width="19" height="18" viewBox="0 0 19 18" fill="none" xmlns="http://www.w3.org/2000/svg">
<path fill-rule="evenodd" clip-rule="evenodd" d="M13.6666 0H5.66663C2.90521 0 0.666626 2.23858 0.666626 5V13C0.666626 15.7614 2.90521 18 5.66663 18H13.6666C16.428 18 18.6666 15.7614 18.6666 13V5C18.6666 2.23858 16.428 0 13.6666 0ZM16.9166 13C16.9111 14.7926 15.4592 16.2445 13.6666 16.25H5.66663C3.87398 16.2445 2.42212 14.7926 2.41663 13V5C2.42212 3.20735 3.87398 1.75549 5.66663 1.75H13.6666C15.4592 1.75549 16.9111 3.20735 16.9166 5V13ZM14.4166 5.25C14.9689 5.25 15.4166 4.80228 15.4166 4.25C15.4166 3.69772 14.9689 3.25 14.4166 3.25C13.8643 3.25 13.4166 3.69772 13.4166 4.25C13.4166 4.80228 13.8643 5.25 14.4166 5.25ZM9.66663 4.5C7.18135 4.5 5.16663 6.51472 5.16663 9C5.16663 11.4853 7.18135 13.5 9.66663 13.5C12.1519 13.5 14.1666 11.4853 14.1666 9C14.1693 7.8057 13.696 6.65957 12.8515 5.81508C12.007 4.97059 10.8609 4.49734 9.66663 4.5ZM6.91663 9C6.91663 10.5188 8.14783 11.75 9.66663 11.75C11.1854 11.75 12.4166 10.5188 12.4166 9C12.4166 7.4812 11.1854 6.25 9.66663 6.25C8.14783 6.25 6.91663 7.4812 6.91663 9Z" fill="#393A32"/>
</svg>
