<svg width="19" height="18" viewBox="0 0 19 18" fill="none" xmlns="http://www.w3.org/2000/svg">
<path fill-rule="evenodd" clip-rule="evenodd" d="M13.668 0H5.66797C2.90655 0 0.667969 2.23858 0.667969 5V13C0.667969 15.7614 2.90655 18 5.66797 18H13.668C16.4294 18 18.668 15.7614 18.668 13V5C18.668 2.23858 16.4294 0 13.668 0ZM16.918 13C16.9125 14.7926 15.4606 16.2445 13.668 16.25H5.66797C3.87532 16.2445 2.42346 14.7926 2.41797 13V5C2.42346 3.20735 3.87532 1.75549 5.66797 1.75H13.668C15.4606 1.75549 16.9125 3.20735 16.918 5V13ZM14.418 5.25C14.9703 5.25 15.418 4.80228 15.418 4.25C15.418 3.69772 14.9703 3.25 14.418 3.25C13.8657 3.25 13.418 3.69772 13.418 4.25C13.418 4.80228 13.8657 5.25 14.418 5.25ZM9.66797 4.5C7.18269 4.5 5.16797 6.51472 5.16797 9C5.16797 11.4853 7.18269 13.5 9.66797 13.5C12.1533 13.5 14.168 11.4853 14.168 9C14.1707 7.8057 13.6974 6.65957 12.8529 5.81508C12.0084 4.97059 10.8623 4.49734 9.66797 4.5ZM6.91797 9C6.91797 10.5188 8.14917 11.75 9.66797 11.75C11.1868 11.75 12.418 10.5188 12.418 9C12.418 7.4812 11.1868 6.25 9.66797 6.25C8.14917 6.25 6.91797 7.4812 6.91797 9Z" fill="#393A32"/>
</svg>
