<svg width="120" height="120" viewBox="0 0 120 120" fill="none" xmlns="http://www.w3.org/2000/svg">
<path d="M10 100C7.25 100 4.89667 99.0217 2.94 97.065C0.98 95.105 0 92.75 0 90H20C17.25 90 14.8967 89.0217 12.94 87.065C10.98 85.105 10 82.75 10 80V25C10 22.25 10.98 19.895 12.94 17.935C14.8967 15.9783 17.25 15 20 15H100C102.75 15 105.105 15.9783 107.065 17.935C109.022 19.895 110 22.25 110 25V80C110 82.75 109.022 85.105 107.065 87.065C105.105 89.0217 102.75 90 100 90H120C120 92.75 119.022 95.105 117.065 97.065C115.105 99.0217 112.75 100 110 100H10ZM60 95C61.4167 95 62.605 94.52 63.565 93.56C64.5217 92.6033 65 91.4167 65 90C65 88.5833 64.5217 87.3967 63.565 86.44C62.605 85.48 61.4167 85 60 85C58.5833 85 57.3967 85.48 56.44 86.44C55.48 87.3967 55 88.5833 55 90C55 91.4167 55.48 92.6033 56.44 93.56C57.3967 94.52 58.5833 95 60 95ZM20 80H100V25H20V80ZM20 80V25V80Z" fill="#328CC1"/>
</svg>
