<svg width="19" height="18" viewBox="0 0 19 18" fill="none" xmlns="http://www.w3.org/2000/svg">
<path fill-rule="evenodd" clip-rule="evenodd" d="M2.66663 0H16.6666C17.7712 0 18.6666 0.89543 18.6666 2V16C18.6666 17.1046 17.7712 18 16.6666 18H2.66663C1.56206 18 0.666626 17.1046 0.666626 16V2C0.666626 0.89543 1.56206 0 2.66663 0ZM5.66663 15C5.94277 15 6.16663 14.7761 6.16663 14.5V7.5C6.16663 7.2239 5.94277 7 5.66663 7H4.16663C3.89049 7 3.66663 7.2239 3.66663 7.5V14.5C3.66663 14.7761 3.89049 15 4.16663 15H5.66663ZM4.91663 6C4.0882 6 3.41663 5.32843 3.41663 4.5C3.41663 3.67157 4.0882 3 4.91663 3C5.74506 3 6.41663 3.67157 6.41663 4.5C6.41663 5.32843 5.74506 6 4.91663 6ZM15.1666 15C15.4427 15 15.6666 14.7761 15.6666 14.5V9.9C15.6991 8.3108 14.5242 6.95452 12.9466 6.76C11.8436 6.65925 10.7749 7.1744 10.1666 8.1V7.5C10.1666 7.2239 9.94273 7 9.66663 7H8.16663C7.89053 7 7.66663 7.2239 7.66663 7.5V14.5C7.66663 14.7761 7.89053 15 8.16663 15H9.66663C9.94273 15 10.1666 14.7761 10.1666 14.5V10.75C10.1666 9.9216 10.8382 9.25 11.6666 9.25C12.495 9.25 13.1666 9.9216 13.1666 10.75V14.5C13.1666 14.7761 13.3905 15 13.6666 15H15.1666Z" fill="#393A32"/>
</svg>
