<svg width="19" height="18" viewBox="0 0 19 18" fill="none" xmlns="http://www.w3.org/2000/svg">
<path fill-rule="evenodd" clip-rule="evenodd" d="M2.66797 0H16.668C17.7726 0 18.668 0.89543 18.668 2V16C18.668 17.1046 17.7726 18 16.668 18H2.66797C1.5634 18 0.667969 17.1046 0.667969 16V2C0.667969 0.89543 1.5634 0 2.66797 0ZM5.66797 15C5.94411 15 6.16797 14.7761 6.16797 14.5V7.5C6.16797 7.2239 5.94411 7 5.66797 7H4.16797C3.89183 7 3.66797 7.2239 3.66797 7.5V14.5C3.66797 14.7761 3.89183 15 4.16797 15H5.66797ZM4.91797 6C4.08954 6 3.41797 5.32843 3.41797 4.5C3.41797 3.67157 4.08954 3 4.91797 3C5.7464 3 6.41797 3.67157 6.41797 4.5C6.41797 5.32843 5.7464 6 4.91797 6ZM15.168 15C15.4441 15 15.668 14.7761 15.668 14.5V9.9C15.7005 8.3108 14.5256 6.95452 12.948 6.76C11.845 6.65925 10.7763 7.1744 10.168 8.1V7.5C10.168 7.2239 9.94407 7 9.66797 7H8.16797C7.89187 7 7.66797 7.2239 7.66797 7.5V14.5C7.66797 14.7761 7.89187 15 8.16797 15H9.66797C9.94407 15 10.168 14.7761 10.168 14.5V10.75C10.168 9.9216 10.8396 9.25 11.668 9.25C12.4964 9.25 13.168 9.9216 13.168 10.75V14.5C13.168 14.7761 13.3919 15 13.668 15H15.168Z" fill="#393A32"/>
</svg>
