<svg width="120" height="120" viewBox="0 0 120 120" fill="none" xmlns="http://www.w3.org/2000/svg">
<g clip-path="url(#clip0_528_13811)">
<path d="M67.2656 67.5C64.0234 65.0781 60.5273 63.2227 56.7773 61.9336C53.0273 60.6445 49.1016 60 45 60C41.5625 60 38.2422 60.4492 35.0391 61.3477C31.8359 62.2461 28.8477 63.4961 26.0742 65.0977C23.3008 66.6992 20.7812 68.6523 18.5156 70.957C16.25 73.2617 14.2969 75.8008 12.6562 78.5742C11.0156 81.3477 9.74609 84.3359 8.84766 87.5391C7.94922 90.7422 7.5 94.0625 7.5 97.5H0C0 92.8125 0.683594 88.3008 2.05078 83.9648C3.41797 79.6289 5.39062 75.625 7.96875 71.9531C10.5469 68.2812 13.5938 65.0195 17.1094 62.168C20.625 59.3164 24.6094 57.0703 29.0625 55.4297C26.875 54.0625 24.9219 52.4609 23.2031 50.625C21.4844 48.7891 20 46.7578 18.75 44.5312C17.5 42.3047 16.582 39.9805 15.9961 37.5586C15.4102 35.1367 15.0781 32.6172 15 30C15 25.8594 15.7812 21.9727 17.3438 18.3398C18.9062 14.707 21.0547 11.543 23.7891 8.84766C26.5234 6.15234 29.707 4.00391 33.3398 2.40234C36.9727 0.800781 40.8594 0 45 0C49.1406 0 53.0273 0.78125 56.6602 2.34375C60.293 3.90625 63.457 6.05469 66.1523 8.78906C68.8477 11.5234 70.9961 14.707 72.5977 18.3398C74.1992 21.9727 75 25.8594 75 30C75 32.5781 74.6875 35.0977 74.0625 37.5586C73.4375 40.0195 72.5 42.3438 71.25 44.5312C70 46.7188 68.5156 48.7305 66.7969 50.5664C65.0781 52.4023 63.1055 54.0234 60.8789 55.4297C63.2227 56.3281 65.4297 57.3828 67.5 58.5938V67.5H67.2656ZM22.5 30C22.5 33.125 23.0859 36.0352 24.2578 38.7305C25.4297 41.4258 27.0312 43.8086 29.0625 45.8789C31.0938 47.9492 33.4766 49.5703 36.2109 50.7422C38.9453 51.9141 41.875 52.5 45 52.5C48.0859 52.5 50.9961 51.9141 53.7305 50.7422C56.4648 49.5703 58.8477 47.9688 60.8789 45.9375C62.9102 43.9062 64.5312 41.5234 65.7422 38.7891C66.9531 36.0547 67.5391 33.125 67.5 30C67.5 26.9141 66.9141 24.0039 65.7422 21.2695C64.5703 18.5352 62.9688 16.1523 60.9375 14.1211C58.9062 12.0898 56.5039 10.4688 53.7305 9.25781C50.957 8.04688 48.0469 7.46094 45 7.5C41.875 7.5 38.9648 8.08594 36.2695 9.25781C33.5742 10.4297 31.1914 12.0312 29.1211 14.0625C27.0508 16.0938 25.4297 18.4961 24.2578 21.2695C23.0859 24.043 22.5 26.9531 22.5 30ZM120 75V120H60V75H75V60H105V75H120ZM82.5 75H97.5V67.5H82.5V75ZM112.5 97.5H105V105H97.5V97.5H82.5V105H75V97.5H67.5V112.5H112.5V97.5ZM112.5 82.5H67.5V90H112.5V82.5Z" fill="#328CC1"/>
</g>
<defs>
<clipPath id="clip0_528_13811">
<rect width="120" height="120" fill="white"/>
</clipPath>
</defs>
</svg>
