<svg width="20" height="20" viewBox="0 0 20 20" fill="none" xmlns="http://www.w3.org/2000/svg">
<path d="M10.0167 2.42499C7.25841 2.42499 5.01674 4.66665 5.01674 7.42499V9.83332C5.01674 10.3417 4.80007 11.1167 4.54174 11.55L3.58341 13.1417C2.99174 14.125 3.40007 15.2167 4.48341 15.5833C8.07507 16.7833 11.9501 16.7833 15.5417 15.5833C16.5501 15.25 16.9917 14.0583 16.4417 13.1417L15.4834 11.55C15.2334 11.1167 15.0167 10.3417 15.0167 9.83332V7.42499C15.0167 4.67499 12.7667 2.42499 10.0167 2.42499Z" stroke="#323130" stroke-width="1.5" stroke-miterlimit="10" stroke-linecap="round"/>
<path d="M11.5584 2.66664C11.3001 2.59164 11.0334 2.5333 10.7584 2.49997C9.95843 2.39997 9.19176 2.4583 8.4751 2.66664C8.71676 2.04997 9.31676 1.61664 10.0168 1.61664C10.7168 1.61664 11.3168 2.04997 11.5584 2.66664Z" stroke="#323130" stroke-width="1.5" stroke-miterlimit="10" stroke-linecap="round" stroke-linejoin="round"/>
<path d="M12.5166 15.8834C12.5166 17.2584 11.3916 18.3834 10.0166 18.3834C9.33327 18.3834 8.69993 18.1 8.24993 17.65C7.79993 17.2 7.5166 16.5667 7.5166 15.8834" stroke="#323130" stroke-width="1.5" stroke-miterlimit="10"/>
</svg>
