<svg width="14" height="19" viewBox="0 0 14 19" fill="none" xmlns="http://www.w3.org/2000/svg">
<path d="M7.13314 8.53662C7.0498 8.52829 6.9498 8.52829 6.85814 8.53662C4.8748 8.46996 3.2998 6.84496 3.2998 4.84496C3.2998 2.80329 4.9498 1.14496 6.9998 1.14496C9.04147 1.14496 10.6998 2.80329 10.6998 4.84496C10.6915 6.84496 9.11647 8.46996 7.13314 8.53662Z" stroke="#605E5C" stroke-width="1.5" stroke-linecap="round" stroke-linejoin="round"/>
<path d="M2.9666 11.6116C0.949935 12.9616 0.949935 15.1616 2.9666 16.5032C5.25827 18.0366 9.0166 18.0366 11.3083 16.5032C13.3249 15.1533 13.3249 12.9533 11.3083 11.6116C9.02494 10.0866 5.2666 10.0866 2.9666 11.6116Z" stroke="#605E5C" stroke-width="1.5" stroke-linecap="round" stroke-linejoin="round"/>
</svg>
