<svg width="20" height="21" viewBox="0 0 20 21" fill="none" xmlns="http://www.w3.org/2000/svg">
<path d="M10.1331 9.5362C10.0498 9.52786 9.9498 9.52786 9.85814 9.5362C7.8748 9.46953 6.2998 7.84453 6.2998 5.84453C6.2998 3.80286 7.9498 2.14453 9.9998 2.14453C12.0415 2.14453 13.6998 3.80286 13.6998 5.84453C13.6915 7.84453 12.1165 9.46953 10.1331 9.5362Z" stroke="#605E5C" stroke-width="1.5" stroke-linecap="round" stroke-linejoin="round"/>
<path d="M5.9666 12.6115C3.94993 13.9615 3.94993 16.1615 5.9666 17.5032C8.25827 19.0365 12.0166 19.0365 14.3083 17.5032C16.3249 16.1532 16.3249 13.9532 14.3083 12.6115C12.0249 11.0865 8.2666 11.0865 5.9666 12.6115Z" stroke="#605E5C" stroke-width="1.5" stroke-linecap="round" stroke-linejoin="round"/>
</svg>
