<svg width="205" height="200" viewBox="0 0 205 200" fill="none" xmlns="http://www.w3.org/2000/svg">
<path d="M79.167 133.333C79.167 144.833 88.5003 154.167 100 154.167C111.5 154.167 120.834 144.833 120.834 133.333C120.834 121.833 111.5 112.5 100 112.5" stroke="#107C10" stroke-width="8" stroke-linecap="round" stroke-linejoin="round"/>
<path d="M183.334 141.667V125.001C183.334 91.6673 175 83.334 141.667 83.334H58.3337C25.0003 83.334 16.667 91.6673 16.667 125.001V141.667C16.667 175.001 25.0003 183.334 58.3337 183.334H141.667C156.334 183.334 166.167 181.751 172.584 177.084" stroke="#107C10" stroke-width="8" stroke-linecap="round" stroke-linejoin="round"/>
<path d="M50 83.3327V66.666C50 39.0827 58.3333 16.666 100 16.666C137.5 16.666 150 33.3327 150 58.3327" stroke="#107C10" stroke-width="8" stroke-linecap="round" stroke-linejoin="round"/>
<path d="M170 155.083L180.042 165.167L200.167 145" stroke="#107C10" stroke-width="8" stroke-linecap="round" stroke-linejoin="round"/>
</svg>
