<svg width="120" height="120" viewBox="0 0 120 120" fill="none" xmlns="http://www.w3.org/2000/svg">
<path d="M35.5 56.75C36.6667 54.4167 37.875 52.1667 39.125 50C40.375 47.8334 41.75 45.6667 43.25 43.5L36.25 42.125L25.75 52.625L35.5 56.75ZM95.75 22.375C89.9167 22.5417 83.6883 24.25 77.065 27.5C70.4383 30.75 64.4167 35.0834 59 40.5C55.5 44 52.375 47.75 49.625 51.75C46.875 55.75 44.8333 59.5 43.5 63L57.75 77.125C61.25 75.7917 65 73.75 69 71C73 68.25 76.75 65.125 80.25 61.625C85.6667 56.2084 90 50.2084 93.25 43.625C96.5 37.0417 98.2083 30.8334 98.375 25C98.375 24.6667 98.3133 24.3334 98.19 24C98.0633 23.6667 97.875 23.375 97.625 23.125C97.375 22.875 97.0833 22.6867 96.75 22.56C96.4167 22.4367 96.0833 22.375 95.75 22.375ZM68.25 52.375C66.3333 50.4584 65.375 48.1034 65.375 45.31C65.375 42.52 66.3333 40.1667 68.25 38.25C70.1667 36.3334 72.5417 35.375 75.375 35.375C78.2083 35.375 80.5833 36.3334 82.5 38.25C84.4167 40.1667 85.375 42.52 85.375 45.31C85.375 48.1034 84.4167 50.4584 82.5 52.375C80.5833 54.2917 78.2083 55.25 75.375 55.25C72.5417 55.25 70.1667 54.2917 68.25 52.375ZM64 85.125L68.125 95L78.625 84.5L77.25 77.5C75.0833 79 72.9167 80.3534 70.75 81.56C68.5833 82.77 66.3333 83.9584 64 85.125ZM107.875 18.375C108.542 27.5417 107.042 36.4784 103.375 45.185C99.7083 53.895 93.9167 62.2084 86 70.125L88.5 82.5C88.8333 84.1667 88.75 85.7917 88.25 87.375C87.75 88.9584 86.9167 90.3334 85.75 91.5L70 107.25C68.75 108.5 67.25 108.978 65.5 108.685C63.75 108.395 62.5417 107.417 61.875 105.75L54.25 87.875L32.875 66.5L15 58.875C13.3333 58.2084 12.3333 57 12 55.25C11.6667 53.5 12.125 52 13.375 50.75L29.125 35C30.2917 33.8334 31.6883 33 33.315 32.5C34.9383 32 36.5833 31.9167 38.25 32.25L50.625 34.75C58.5417 26.8334 66.855 21.0417 75.565 17.375C84.2717 13.7084 93.2083 12.2084 102.375 12.875C103.042 12.9584 103.708 13.145 104.375 13.435C105.042 13.7284 105.625 14.125 106.125 14.625C106.625 15.125 107.02 15.7084 107.31 16.375C107.603 17.0417 107.792 17.7084 107.875 18.375ZM19.625 79.875C22.5417 76.9584 26.1033 75.4784 30.31 75.435C34.52 75.395 38.0833 76.8334 41 79.75C43.9167 82.6667 45.3533 86.2284 45.31 90.435C45.27 94.645 43.7917 98.2084 40.875 101.125C38.7917 103.208 35.3133 105 30.44 106.5C25.5633 108 18.8333 109.333 10.25 110.5C11.4167 101.917 12.75 95.1867 14.25 90.31C15.75 85.4367 17.5417 81.9584 19.625 79.875ZM26.75 86.875C25.9167 87.7084 25.0833 89.23 24.25 91.44C23.4167 93.6467 22.8333 95.875 22.5 98.125C24.75 97.7917 26.98 97.23 29.19 96.44C31.3967 95.6467 32.9167 94.8334 33.75 94C34.75 93 35.2917 91.7917 35.375 90.375C35.4583 88.9584 35 87.75 34 86.75C33 85.75 31.7917 85.27 30.375 85.31C28.9583 85.3534 27.75 85.875 26.75 86.875Z" fill="#328CC1"/>
</svg>
