<svg width="200" height="200" viewBox="0 0 200 200" fill="none" xmlns="http://www.w3.org/2000/svg">
<path d="M25.75 56.0824C25.75 49.2491 30.9168 41.4991 37.3335 38.9158L83.7499 19.916C94.1666 15.666 105.917 15.666 116.333 19.916L162.75 38.9158C169.083 41.4991 174.333 49.2491 174.333 56.0824V92.6659C174.333 133.416 144.75 171.583 104.333 182.749C101.583 183.499 98.5834 183.499 95.8334 182.749C55.4167 171.583 25.8334 133.416 25.8334 92.6659" stroke="#78C0E0" stroke-width="8" stroke-linecap="round" stroke-linejoin="round"/>
<path d="M99.9997 104.167C109.204 104.167 116.666 96.7054 116.666 87.5007C116.666 78.2959 109.204 70.834 99.9997 70.834C90.7949 70.834 83.333 78.2959 83.333 87.5007C83.333 96.7054 90.7949 104.167 99.9997 104.167Z" stroke="#78C0E0" stroke-width="8" stroke-miterlimit="10" stroke-linecap="round" stroke-linejoin="round"/>
<path d="M100 104.168V129.168" stroke="#78C0E0" stroke-width="8" stroke-miterlimit="10" stroke-linecap="round" stroke-linejoin="round"/>
</svg>
