<svg width="20" height="21" viewBox="0 0 20 21" fill="none" xmlns="http://www.w3.org/2000/svg">
<path d="M10 12.978C11.3807 12.978 12.5 11.8587 12.5 10.478C12.5 9.09732 11.3807 7.97803 10 7.97803C8.61929 7.97803 7.5 9.09732 7.5 10.478C7.5 11.8587 8.61929 12.978 10 12.978Z" stroke="#323130" stroke-width="1.5" stroke-miterlimit="10" stroke-linecap="round" stroke-linejoin="round"/>
<path d="M1.66699 11.2114V9.74472C1.66699 8.87806 2.37533 8.16139 3.25033 8.16139C4.75866 8.16139 5.37533 7.09472 4.61699 5.78639C4.18366 5.03639 4.44199 4.06139 5.20033 3.62806L6.64199 2.80306C7.30033 2.41139 8.15033 2.64472 8.54199 3.30306L8.63366 3.46139C9.38366 4.76972 10.617 4.76972 11.3753 3.46139L11.467 3.30306C11.8587 2.64472 12.7087 2.41139 13.367 2.80306L14.8087 3.62806C15.567 4.06139 15.8253 5.03639 15.392 5.78639C14.6337 7.09472 15.2503 8.16139 16.7587 8.16139C17.6253 8.16139 18.342 8.86972 18.342 9.74472V11.2114C18.342 12.0781 17.6337 12.7947 16.7587 12.7947C15.2503 12.7947 14.6337 13.8614 15.392 15.1697C15.8253 15.9281 15.567 16.8947 14.8087 17.3281L13.367 18.1531C12.7087 18.5447 11.8587 18.3114 11.467 17.6531L11.3753 17.4947C10.6253 16.1864 9.39199 16.1864 8.63366 17.4947L8.54199 17.6531C8.15033 18.3114 7.30033 18.5447 6.64199 18.1531L5.20033 17.3281C4.44199 16.8947 4.18366 15.9197 4.61699 15.1697C5.37533 13.8614 4.75866 12.7947 3.25033 12.7947C2.37533 12.7947 1.66699 12.0781 1.66699 11.2114Z" stroke="#323130" stroke-width="1.5" stroke-miterlimit="10" stroke-linecap="round" stroke-linejoin="round"/>
</svg>
