<svg width="114" height="31" viewBox="0 0 114 31" fill="none" xmlns="http://www.w3.org/2000/svg">
<path d="M58.1923 16.3881L64.8912 9.90334H59.4347L54.4109 14.8642C54.3716 14.9028 54.3218 14.9291 54.2677 14.9399C54.2136 14.9508 54.1575 14.9457 54.1063 14.9252C54.055 14.9048 54.0109 14.8699 53.9792 14.8249C53.9475 14.7798 53.9297 14.7265 53.9279 14.6715V2.73853H49.6577V25.4409H53.926V19.1796C53.92 19.1362 53.929 19.0921 53.9515 19.0545C53.9741 19.0169 54.0089 18.988 54.0501 18.9728C54.0913 18.9575 54.1365 18.9567 54.1782 18.9705C54.2199 18.9843 54.2557 19.0119 54.2795 19.0486L59.8636 25.4409H65.4187L58.1594 17.2955C58.0462 17.1693 57.9864 17.0044 57.9926 16.8352C57.9987 16.666 58.0703 16.5058 58.1923 16.3881V16.3881Z" fill="#323130"/>
<path fill-rule="evenodd" clip-rule="evenodd" d="M21.0397 10.0613L21.0146 19.7518C20.9991 25.2443 15.2373 29.608 5.31543 29.6311V15.839C14.0896 15.1627 20.6378 12.847 21.0397 10.0593V10.0613Z" fill="#C7E0F4"/>
<path fill-rule="evenodd" clip-rule="evenodd" d="M21.061 9.78967C21.061 12.6968 14.3717 15.1397 5.31549 15.839V21.8113C2.51186 19.8212 0 18.7308 0 15.5038V-0.5C9.52383 3.38776 21.061 0.759959 21.061 9.78967Z" fill="#141AE9"/>
<path d="M40.8311 13.2825C36.9223 12.4079 36.9223 11.4754 36.9223 10.9707C36.9223 9.27726 39.3008 9.14626 40.0293 9.14626C42.2378 9.14626 43.4029 10.0094 43.4879 11.7143L43.5555 13.0167H47.7929L47.7407 11.5949C47.5881 7.49906 44.6337 4.9541 40.0293 4.9541C35.6103 4.9541 32.6425 7.37191 32.6425 10.9707C32.6425 15.1686 36.4895 16.5981 39.8418 17.3765H39.8592C43.7372 18.2261 43.7372 19.1893 43.7372 19.7076C43.7372 21.4935 41.2253 21.6341 40.4524 21.6341C39.3491 21.6341 36.7638 21.3625 36.617 18.8541L36.5416 17.5633H32.3159L32.3681 18.9851C32.5227 23.1407 35.6973 25.8243 40.4544 25.8243C42.6281 25.8243 44.4869 25.2811 45.8278 24.2504C46.5293 23.715 47.0951 23.023 47.4797 22.23C47.8642 21.437 48.0569 20.5652 48.0421 19.6844C48.0421 15.4904 44.1932 14.0589 40.8311 13.2825Z" fill="#323130"/>
<path d="M70.3205 10.6971L70.276 9.85327H66.3672V25.5084H70.5717V18.1875C70.5717 14.3806 72.4304 13.9491 73.8294 13.9491H76.3316V9.85327H73.8796C72.4768 9.85327 71.2982 10.1307 70.3205 10.6971Z" fill="#323130"/>
<path d="M82.8256 9.85327H78.6211V25.5064H82.8256V9.85327Z" fill="#323130"/>
<path d="M94.0382 9.52771C92.5097 9.50909 91.0066 9.91896 89.7004 10.7106L89.654 9.85329H85.749V30.5001H89.9535V24.784C91.2 25.4825 92.6083 25.8431 94.0382 25.8301C98.6755 25.8301 102.051 22.397 102.051 17.6674C102.051 12.9377 98.6813 9.52771 94.0382 9.52771ZM93.8875 13.6698C96.2931 13.6698 97.8465 15.238 97.8465 17.6674C97.8465 20.0967 96.3008 21.69 93.8875 21.69C91.4741 21.69 89.9033 20.1141 89.9033 17.6674C89.9033 15.2765 91.5051 13.6698 93.8875 13.6698Z" fill="#323130"/>
<path d="M110.796 21.3643C109.807 21.3643 109.341 21.1909 109.341 19.615V13.9201H113.824V9.85319H109.341V6.68018H105.521L105.328 9.85319H102.308V13.9201H105.137V19.6651C105.137 23.3255 107.233 25.5064 110.74 25.5064H114V21.3643H110.796Z" fill="#323130"/>
</svg>
