<svg width="19" height="16" viewBox="0 0 19 16" fill="none" xmlns="http://www.w3.org/2000/svg">
<path d="M18.6416 2.7174C18.1772 3.33692 17.6158 3.87733 16.9791 4.31776C16.9791 4.47959 16.9791 4.64142 16.9791 4.81225C16.9842 7.7511 15.8103 10.5691 13.7206 12.6345C11.6308 14.6999 8.80002 15.8399 5.86287 15.7989C4.16481 15.8046 2.4885 15.4169 0.965245 14.6661C0.883105 14.6302 0.830135 14.549 0.830445 14.4593V14.3604C0.830445 14.2313 0.935055 14.1267 1.0641 14.1267C2.73325 14.0716 4.34284 13.4929 5.66516 12.4724C4.15436 12.4419 2.79502 11.5469 2.16943 10.1707C2.13784 10.0956 2.14767 10.0093 2.1954 9.9432C2.24312 9.8771 2.32183 9.8407 2.40308 9.8471C2.86225 9.8932 3.32601 9.8505 3.76903 9.7212C2.10122 9.375 0.848035 7.9904 0.668685 6.2957C0.662315 6.2144 0.698745 6.1357 0.764825 6.0879C0.830895 6.0402 0.917065 6.0303 0.992205 6.062C1.43977 6.2595 1.92292 6.3635 2.41207 6.3676C0.950665 5.40846 0.319435 3.58405 0.875375 1.92622C0.932765 1.76513 1.07064 1.64612 1.23833 1.61294C1.40601 1.57975 1.57879 1.63728 1.69315 1.76439C3.66522 3.86325 6.37486 5.11396 9.25072 5.25279C9.17712 4.95885 9.14093 4.65676 9.14293 4.35372C9.16983 2.76472 10.153 1.34921 11.6322 0.769872C13.1113 0.190542 14.7937 0.562032 15.8918 1.71044C16.6402 1.56785 17.3638 1.31645 18.0395 0.964212C18.089 0.933312 18.1518 0.933312 18.2013 0.964212C18.2322 1.01373 18.2322 1.07652 18.2013 1.12604C17.874 1.87552 17.3211 2.50412 16.6197 2.92419C17.2339 2.85296 17.8373 2.70807 18.417 2.49264C18.4658 2.45942 18.5299 2.45942 18.5787 2.49264C18.6196 2.51134 18.6502 2.54711 18.6623 2.59042C18.6744 2.63373 18.6668 2.68018 18.6416 2.7174Z" fill="#393A32"/>
</svg>
