<svg width="19" height="16" viewBox="0 0 19 16" fill="none" xmlns="http://www.w3.org/2000/svg">
<path d="M18.6394 2.7174C18.175 3.33692 17.6136 3.87733 16.9769 4.31776C16.9769 4.47959 16.9769 4.64142 16.9769 4.81225C16.982 7.7511 15.8081 10.5691 13.7184 12.6345C11.6286 14.6999 8.79783 15.8399 5.86068 15.7989C4.16262 15.8046 2.4863 15.4169 0.963048 14.6661C0.880908 14.6302 0.827938 14.549 0.828248 14.4593V14.3604C0.828248 14.2313 0.932858 14.1267 1.0619 14.1267C2.73105 14.0716 4.34065 13.4929 5.66297 12.4724C4.15216 12.4419 2.79282 11.5469 2.16723 10.1707C2.13564 10.0956 2.14547 10.0093 2.1932 9.9432C2.24092 9.8771 2.31963 9.8407 2.40088 9.8471C2.86005 9.8932 3.32381 9.8505 3.76683 9.7212C2.09902 9.375 0.845838 7.9904 0.666488 6.2957C0.660118 6.2144 0.696548 6.1357 0.762628 6.0879C0.828698 6.0402 0.914868 6.0303 0.990008 6.062C1.43757 6.2595 1.92072 6.3635 2.40987 6.3676C0.948468 5.40846 0.317238 3.58405 0.873178 1.92622C0.930568 1.76513 1.06844 1.64612 1.23613 1.61294C1.40381 1.57975 1.57659 1.63728 1.69095 1.76439C3.66302 3.86325 6.37267 5.11396 9.24853 5.25279C9.17493 4.95885 9.13873 4.65676 9.14073 4.35372C9.16763 2.76472 10.1508 1.34921 11.63 0.769872C13.1091 0.190542 14.7915 0.562032 15.8896 1.71044C16.638 1.56785 17.3616 1.31645 18.0373 0.964212C18.0868 0.933312 18.1496 0.933312 18.1991 0.964212C18.23 1.01373 18.23 1.07652 18.1991 1.12604C17.8718 1.87552 17.3189 2.50412 16.6175 2.92419C17.2317 2.85296 17.8351 2.70807 18.4148 2.49264C18.4636 2.45942 18.5277 2.45942 18.5765 2.49264C18.6174 2.51134 18.648 2.54711 18.6601 2.59042C18.6722 2.63373 18.6646 2.68018 18.6394 2.7174Z" fill="#393A32"/>
</svg>
