<svg width="11" height="18" viewBox="0 0 11 18" fill="none" xmlns="http://www.w3.org/2000/svg">
<path d="M10.168 3H7.16797C6.61567 3 6.16797 3.44772 6.16797 4V7H10.168C10.2817 6.99748 10.3896 7.0504 10.4572 7.1419C10.5248 7.2334 10.5438 7.352 10.508 7.46L9.76797 9.66C9.69977 9.8619 9.51107 9.9984 9.29797 10H6.16797V17.5C6.16797 17.7761 5.94407 18 5.66797 18H3.16797C2.89183 18 2.66797 17.7761 2.66797 17.5V10H1.16797C0.891829 10 0.667969 9.7761 0.667969 9.5V7.5C0.667969 7.2239 0.891829 7 1.16797 7H2.66797V4C2.66797 1.79086 4.45887 0 6.66797 0H10.168C10.4441 0 10.668 0.22386 10.668 0.5V2.5C10.668 2.77614 10.4441 3 10.168 3Z" fill="#393A32"/>
</svg>
