<svg width="147" height="146" viewBox="0 0 147 146" fill="none" xmlns="http://www.w3.org/2000/svg">
<path d="M1.25 145C57.6808 145 145.75 145 145.75 145L98.25 102.5L93.8205 98.5134C93.4532 98.1829 92.9766 98 92.4825 98H55.8556C55.4607 98 55.0747 98.1169 54.7462 98.3359L47.75 103C47.75 103 19.7999 128.207 1.25 145Z" fill="#9FD8F3"/>
<path d="M4.70074 57.6363C3.45676 56.3254 1.25 57.2058 1.25 59.013V145C19.7999 128.207 47.75 103 47.75 103L4.70074 57.6363Z" fill="#9FD8F3"/>
<path d="M145.75 145V58.9005C145.75 57.1086 143.575 56.2209 142.321 57.5011L98.25 102.5L145.75 145Z" fill="#9FD8F3"/>
<path d="M1.25 145V59.013C1.25 57.2058 3.45676 56.3254 4.70074 57.6363L47.75 103M1.25 145C57.6808 145 145.75 145 145.75 145M1.25 145C19.7999 128.207 47.75 103 47.75 103M145.75 145V58.9005C145.75 57.1086 143.575 56.2209 142.321 57.5011L98.25 102.5M145.75 145L98.25 102.5M98.25 102.5L93.8205 98.5134C93.4532 98.1829 92.9766 98 92.4825 98H55.8556C55.4607 98 55.0747 98.1169 54.7462 98.3359L47.75 103" stroke="#3F8EFC" stroke-width="2"/>
<path d="M2.03779 58.7792C1.61639 58.3624 1.64797 57.6726 2.1057 57.296L65.5484 5.102C69.171 2.12169 74.3784 2.0601 78.0705 4.9539L144.852 57.2962C145.328 57.669 145.366 58.3753 144.934 58.798L99.25 103.5L92.75 98H54.75L47.25 103.5L2.03779 58.7792Z" fill="#D7EEF3" stroke="#3F8EFC" stroke-width="2"/>
<path d="M31.25 87.5L32.25 22H114.75V88.32L99.25 103.5L94.0429 98.2929C93.8554 98.1054 93.601 98 93.3358 98H55.5606C55.3583 98 55.1608 98.0614 54.9941 98.176L47.25 103.5L31.25 87.5Z" fill="#FCFFFD" stroke="#507C95" stroke-width="2"/>
<path d="M55.75 56.5L49.25 64.5L70.25 81L96.25 51.5L88.75 44L69.25 66.5L55.75 56.5Z" fill="#107C10" stroke="#3F8EFC"/>
</svg>
