<svg width="399" height="323" viewBox="0 0 399 323" fill="none" xmlns="http://www.w3.org/2000/svg">
<path opacity="0.2" d="M45.5662 97.2119L158.215 32.1743L270.863 97.2119V227.287L158.215 292.325L45.5662 227.287V97.2119Z" stroke="#323130" stroke-width="0.894464"/>
<path opacity="0.2" d="M67.2558 109.734L158.215 57.2193L249.174 109.734V214.765L158.215 267.28L67.2558 214.765V109.734Z" stroke="#323130" stroke-width="0.894464"/>
<path opacity="0.2" d="M87.3959 121.362L158.214 80.4753L229.033 121.362V203.137L158.214 244.024L87.3959 203.137V121.362Z" stroke="#323130" stroke-width="0.894464"/>
<path opacity="0.2" d="M109.085 133.885L158.214 105.52L207.343 133.885V190.614L158.214 218.979L109.085 190.614V133.885Z" stroke="#323130" stroke-width="0.894464"/>
<line opacity="0.2" x1="158.662" y1="31.6578" x2="158.662" y2="292.841" stroke="#323130" stroke-width="0.894464"/>
<line opacity="0.2" x1="45.2898" y1="226.263" x2="270.695" y2="97.4598" stroke="#323130" stroke-width="0.894464"/>
<line opacity="0.2" x1="47.524" y1="97.4606" x2="271.14" y2="226.263" stroke="#323130" stroke-width="0.894464"/>
<path d="M158.214 69.2253L46.4062 96.9537L67.8734 214.128L158.214 243.646L250.344 214.128L227.088 121.104L158.214 69.2253Z" fill="#5FD255" fill-opacity="0.2" stroke="#107C10" stroke-width="1.78893"/>
<path d="M283.241 8.9651V7.5675H292.998V8.9651H288.907V20.5779H287.332V8.9651H283.241ZM297.903 20.7812C296.963 20.7812 296.152 20.5736 295.47 20.1586C294.792 19.7393 294.269 19.1549 293.901 18.4052C293.536 17.6514 293.354 16.7747 293.354 15.7752C293.354 14.7757 293.536 13.8948 293.901 13.1325C294.269 12.3659 294.781 11.7688 295.438 11.341C296.099 10.909 296.869 10.693 297.75 10.693C298.259 10.693 298.76 10.7777 299.256 10.9471C299.751 11.1166 300.202 11.3918 300.609 11.773C301.016 12.1499 301.34 12.6497 301.581 13.2722C301.822 13.8948 301.943 14.6614 301.943 15.5719V16.2072H294.421V14.9113H300.418C300.418 14.3607 300.308 13.8694 300.088 13.4374C299.872 13.0054 299.563 12.6645 299.161 12.4146C298.762 12.1648 298.292 12.0398 297.75 12.0398C297.153 12.0398 296.636 12.188 296.2 12.4845C295.768 12.7767 295.436 13.1579 295.203 13.628C294.97 14.0981 294.853 14.6021 294.853 15.1399V16.0039C294.853 16.7408 294.98 17.3655 295.235 17.878C295.493 18.3862 295.851 18.7737 296.308 19.0405C296.766 19.3031 297.297 19.4344 297.903 19.4344C298.297 19.4344 298.652 19.3793 298.97 19.2692C299.292 19.1549 299.569 18.9855 299.802 18.761C300.035 18.5323 300.215 18.2485 300.342 17.9097L301.791 18.3163C301.638 18.8076 301.382 19.2396 301.022 19.6123C300.662 19.9807 300.217 20.2687 299.688 20.4762C299.158 20.6795 298.563 20.7812 297.903 20.7812ZM308.188 20.7812C307.273 20.7812 306.485 20.5652 305.825 20.1332C305.164 19.7012 304.656 19.1062 304.3 18.3481C303.944 17.59 303.766 16.7239 303.766 15.7498C303.766 14.7588 303.948 13.8842 304.313 13.1261C304.681 12.3638 305.194 11.7688 305.85 11.341C306.511 10.909 307.281 10.693 308.162 10.693C308.848 10.693 309.467 10.8201 310.017 11.0742C310.568 11.3283 311.019 11.6841 311.371 12.1415C311.722 12.5989 311.94 13.1325 312.025 13.7423H310.526C310.411 13.2977 310.157 12.9038 309.763 12.5607C309.374 12.2135 308.848 12.0398 308.188 12.0398C307.603 12.0398 307.091 12.1923 306.65 12.4972C306.214 12.7979 305.873 13.2235 305.628 13.7741C305.386 14.3204 305.266 14.9621 305.266 15.699C305.266 16.4528 305.384 17.1093 305.621 17.6683C305.863 18.2274 306.202 18.6615 306.638 18.9706C307.078 19.2798 307.595 19.4344 308.188 19.4344C308.577 19.4344 308.931 19.3666 309.249 19.2311C309.566 19.0956 309.835 18.9008 310.056 18.6467C310.276 18.3925 310.432 18.0876 310.526 17.7319H312.025C311.94 18.3078 311.731 18.8266 311.396 19.2883C311.066 19.7457 310.627 20.1099 310.081 20.3809C309.539 20.6478 308.908 20.7812 308.188 20.7812ZM315.716 14.708V20.5779H314.217V7.5675H315.716V12.3447H315.843C316.072 11.8408 316.415 11.4405 316.872 11.1441C317.334 10.8434 317.948 10.693 318.714 10.693C319.379 10.693 319.962 10.8264 320.461 11.0933C320.961 11.3558 321.349 11.7603 321.624 12.3066C321.903 12.8487 322.043 13.5391 322.043 14.3776V20.5779H320.544V14.4793C320.544 13.7042 320.343 13.105 319.94 12.6814C319.542 12.2537 318.99 12.0398 318.282 12.0398C317.791 12.0398 317.351 12.1436 316.961 12.3511C316.576 12.5586 316.271 12.8614 316.046 13.2595C315.826 13.6576 315.716 14.1405 315.716 14.708ZM326.285 14.708V20.5779H324.786V10.8201H326.234V12.3447H326.361C326.59 11.8492 326.937 11.4511 327.403 11.1504C327.869 10.8455 328.47 10.693 329.207 10.693C329.868 10.693 330.446 10.8286 330.942 11.0996C331.437 11.3664 331.823 11.773 332.098 12.3193C332.373 12.8614 332.511 13.5475 332.511 14.3776V20.5779H331.012V14.4793C331.012 13.7127 330.813 13.1155 330.414 12.6878C330.016 12.2558 329.47 12.0398 328.775 12.0398C328.297 12.0398 327.869 12.1436 327.492 12.3511C327.119 12.5586 326.825 12.8614 326.609 13.2595C326.393 13.6576 326.285 14.1405 326.285 14.708ZM335.25 20.5779V10.8201H336.75V20.5779H335.25ZM336.013 9.1938C335.721 9.1938 335.469 9.09427 335.257 8.89522C335.049 8.69617 334.945 8.45688 334.945 8.17736C334.945 7.89784 335.049 7.65856 335.257 7.4595C335.469 7.26045 335.721 7.16093 336.013 7.16093C336.305 7.16093 336.555 7.26045 336.762 7.4595C336.974 7.65856 337.08 7.89784 337.08 8.17736C337.08 8.45688 336.974 8.69617 336.762 8.89522C336.555 9.09427 336.305 9.1938 336.013 9.1938ZM343.46 20.7812C342.545 20.7812 341.757 20.5652 341.097 20.1332C340.436 19.7012 339.928 19.1062 339.572 18.3481C339.216 17.59 339.038 16.7239 339.038 15.7498C339.038 14.7588 339.22 13.8842 339.585 13.1261C339.953 12.3638 340.465 11.7688 341.122 11.341C341.783 10.909 342.553 10.693 343.434 10.693C344.12 10.693 344.739 10.8201 345.289 11.0742C345.84 11.3283 346.291 11.6841 346.642 12.1415C346.994 12.5989 347.212 13.1325 347.297 13.7423H345.798C345.683 13.2977 345.429 12.9038 345.035 12.5607C344.646 12.2135 344.12 12.0398 343.46 12.0398C342.875 12.0398 342.363 12.1923 341.922 12.4972C341.486 12.7979 341.145 13.2235 340.9 13.7741C340.658 14.3204 340.537 14.9621 340.537 15.699C340.537 16.4528 340.656 17.1093 340.893 17.6683C341.135 18.2274 341.473 18.6615 341.91 18.9706C342.35 19.2798 342.867 19.4344 343.46 19.4344C343.849 19.4344 344.203 19.3666 344.521 19.2311C344.838 19.0956 345.107 18.9008 345.327 18.6467C345.548 18.3925 345.704 18.0876 345.798 17.7319H347.297C347.212 18.3078 347.002 18.8266 346.668 19.2883C346.338 19.7457 345.899 20.1099 345.353 20.3809C344.811 20.6478 344.18 20.7812 343.46 20.7812ZM352.36 20.8066C351.742 20.8066 351.18 20.6901 350.676 20.4572C350.172 20.22 349.772 19.8791 349.476 19.4344C349.179 18.9855 349.031 18.4434 349.031 17.8081C349.031 17.2491 349.141 16.7959 349.361 16.4486C349.582 16.0971 349.876 15.8218 350.244 15.6228C350.613 15.4237 351.019 15.2755 351.464 15.1781C351.913 15.0764 352.364 14.996 352.817 14.9367C353.41 14.8604 353.891 14.8033 354.259 14.7651C354.632 14.7228 354.903 14.6529 355.073 14.5555C355.246 14.4581 355.333 14.2887 355.333 14.0473V13.9965C355.333 13.3697 355.161 12.8826 354.818 12.5353C354.48 12.188 353.965 12.0144 353.275 12.0144C352.559 12.0144 351.998 12.1711 351.591 12.4845C351.185 12.7979 350.899 13.1325 350.734 13.4882L349.311 12.98C349.565 12.3871 349.904 11.9255 350.327 11.5951C350.755 11.2606 351.221 11.0276 351.725 10.8963C352.233 10.7608 352.733 10.693 353.224 10.693C353.537 10.693 353.897 10.7312 354.304 10.8074C354.715 10.8794 355.111 11.0297 355.492 11.2584C355.877 11.4871 356.197 11.8323 356.451 12.2939C356.705 12.7556 356.832 13.3739 356.832 14.1489V20.5779H355.333V19.2565H355.257C355.155 19.4683 354.986 19.6949 354.749 19.9363C354.511 20.1777 354.196 20.3831 353.802 20.5525C353.408 20.7219 352.927 20.8066 352.36 20.8066ZM352.589 19.4598C353.182 19.4598 353.681 19.3433 354.088 19.1104C354.499 18.8775 354.808 18.5768 355.015 18.2083C355.227 17.8399 355.333 17.4523 355.333 17.0458V15.6736C355.269 15.7498 355.13 15.8197 354.914 15.8832C354.702 15.9425 354.456 15.9954 354.177 16.042C353.901 16.0844 353.633 16.1225 353.37 16.1564C353.112 16.186 352.902 16.2114 352.741 16.2326C352.351 16.2834 351.987 16.366 351.648 16.4804C351.314 16.5905 351.043 16.7578 350.835 16.9822C350.632 17.2025 350.53 17.5032 350.53 17.8843C350.53 18.4052 350.723 18.7991 351.108 19.0659C351.498 19.3285 351.991 19.4598 352.589 19.4598ZM361.068 7.5675V20.5779H359.569V7.5675H361.068Z" fill="#323130"/>
<path d="M387.954 19.9446L377.221 9.21106H398.688L387.954 19.9446Z" fill="#2667FF"/>
<path d="M276.094 85.2253V72.215H280.49C281.511 72.215 282.345 72.3992 282.993 72.7676C283.645 73.1319 284.128 73.6253 284.441 74.2478C284.755 74.8704 284.912 75.565 284.912 76.3315C284.912 77.0981 284.755 77.7948 284.441 78.4216C284.132 79.0484 283.654 79.5481 283.006 79.9208C282.358 80.2893 281.528 80.4735 280.515 80.4735H277.365V79.0759H280.465C281.163 79.0759 281.725 78.9552 282.148 78.7138C282.572 78.4724 282.879 78.1463 283.069 77.7355C283.264 77.3204 283.361 76.8525 283.361 76.3315C283.361 75.8106 283.264 75.3447 283.069 74.9339C282.879 74.5231 282.57 74.2012 282.142 73.9683C281.714 73.7311 281.147 73.6126 280.439 73.6126H277.669V85.2253H276.094ZM287.449 85.2253V72.215H289.025V78.0086H295.962V72.215H297.538V85.2253H295.962V79.4062H289.025V85.2253H287.449ZM300.692 85.2253V72.215H305.088C306.108 72.215 306.943 72.3992 307.591 72.7676C308.243 73.1319 308.726 73.6253 309.039 74.2478C309.353 74.8704 309.509 75.565 309.509 76.3315C309.509 77.0981 309.353 77.7948 309.039 78.4216C308.73 79.0484 308.251 79.5481 307.603 79.9208C306.956 80.2893 306.125 80.4735 305.113 80.4735H301.962V79.0759H305.062C305.761 79.0759 306.322 78.9552 306.746 78.7138C307.169 78.4724 307.476 78.1463 307.667 77.7355C307.862 77.3204 307.959 76.8525 307.959 76.3315C307.959 75.8106 307.862 75.3447 307.667 74.9339C307.476 74.5231 307.167 74.2012 306.74 73.9683C306.312 73.7311 305.744 73.6126 305.037 73.6126H302.267V85.2253H300.692Z" fill="#323130"/>
<path d="M290.382 242.651V229.64H291.958V241.253H298.005V242.651H290.382ZM303.113 242.88C302.495 242.88 301.933 242.763 301.43 242.53C300.926 242.293 300.525 241.952 300.229 241.507C299.932 241.058 299.784 240.516 299.784 239.881C299.784 239.322 299.894 238.869 300.114 238.522C300.335 238.17 300.629 237.895 300.998 237.696C301.366 237.497 301.773 237.348 302.217 237.251C302.666 237.149 303.117 237.069 303.57 237.01C304.163 236.933 304.644 236.876 305.012 236.838C305.385 236.796 305.656 236.726 305.826 236.628C305.999 236.531 306.086 236.362 306.086 236.12V236.069C306.086 235.443 305.915 234.956 305.571 234.608C305.233 234.261 304.718 234.087 304.028 234.087C303.312 234.087 302.751 234.244 302.344 234.558C301.938 234.871 301.652 235.205 301.487 235.561L300.064 235.053C300.318 234.46 300.657 233.998 301.08 233.668C301.508 233.334 301.974 233.101 302.478 232.969C302.986 232.834 303.486 232.766 303.977 232.766C304.29 232.766 304.65 232.804 305.057 232.88C305.468 232.952 305.864 233.103 306.245 233.331C306.63 233.56 306.95 233.905 307.204 234.367C307.458 234.829 307.585 235.447 307.585 236.222V242.651H306.086V241.33H306.01C305.908 241.541 305.739 241.768 305.502 242.009C305.264 242.251 304.949 242.456 304.555 242.625C304.161 242.795 303.68 242.88 303.113 242.88ZM303.342 241.533C303.935 241.533 304.434 241.416 304.841 241.183C305.252 240.95 305.561 240.65 305.768 240.281C305.98 239.913 306.086 239.525 306.086 239.119V237.747C306.023 237.823 305.883 237.893 305.667 237.956C305.455 238.016 305.209 238.068 304.93 238.115C304.655 238.157 304.386 238.196 304.123 238.229C303.865 238.259 303.655 238.284 303.494 238.306C303.105 238.356 302.74 238.439 302.401 238.553C302.067 238.663 301.796 238.831 301.588 239.055C301.385 239.275 301.283 239.576 301.283 239.957C301.283 240.478 301.476 240.872 301.861 241.139C302.251 241.402 302.745 241.533 303.342 241.533ZM317.951 232.893L314.343 242.651H312.818L309.21 232.893H310.836L313.53 240.669H313.632L316.325 232.893H317.951ZM322.505 242.88C321.886 242.88 321.325 242.763 320.821 242.53C320.317 242.293 319.917 241.952 319.621 241.507C319.324 241.058 319.176 240.516 319.176 239.881C319.176 239.322 319.286 238.869 319.506 238.522C319.726 238.17 320.021 237.895 320.389 237.696C320.758 237.497 321.164 237.348 321.609 237.251C322.058 237.149 322.509 237.069 322.962 237.01C323.555 236.933 324.036 236.876 324.404 236.838C324.777 236.796 325.048 236.726 325.217 236.628C325.391 236.531 325.478 236.362 325.478 236.12V236.069C325.478 235.443 325.306 234.956 324.963 234.608C324.624 234.261 324.11 234.087 323.419 234.087C322.704 234.087 322.143 234.244 321.736 234.558C321.329 234.871 321.044 235.205 320.878 235.561L319.455 235.053C319.709 234.46 320.048 233.998 320.472 233.668C320.9 233.334 321.365 233.101 321.869 232.969C322.378 232.834 322.877 232.766 323.369 232.766C323.682 232.766 324.042 232.804 324.449 232.88C324.859 232.952 325.255 233.103 325.637 233.331C326.022 233.56 326.342 233.905 326.596 234.367C326.85 234.829 326.977 235.447 326.977 236.222V242.651H325.478V241.33H325.402C325.3 241.541 325.13 241.768 324.893 242.009C324.656 242.251 324.341 242.456 323.947 242.625C323.553 242.795 323.072 242.88 322.505 242.88ZM322.733 241.533C323.326 241.533 323.826 241.416 324.233 241.183C324.643 240.95 324.953 240.65 325.16 240.281C325.372 239.913 325.478 239.525 325.478 239.119V237.747C325.414 237.823 325.274 237.893 325.058 237.956C324.847 238.016 324.601 238.068 324.322 238.115C324.046 238.157 323.777 238.196 323.515 238.229C323.256 238.259 323.047 238.284 322.886 238.306C322.496 238.356 322.132 238.439 321.793 238.553C321.459 238.663 321.188 238.831 320.98 239.055C320.777 239.275 320.675 239.576 320.675 239.957C320.675 240.478 320.868 240.872 321.253 241.139C321.643 241.402 322.136 241.533 322.733 241.533ZM329.713 242.651V232.893H331.162V234.367H331.263C331.441 233.884 331.763 233.492 332.229 233.192C332.695 232.891 333.22 232.741 333.805 232.741C333.915 232.741 334.052 232.743 334.218 232.747C334.383 232.751 334.508 232.758 334.592 232.766V234.291C334.541 234.278 334.425 234.259 334.243 234.234C334.065 234.204 333.877 234.189 333.678 234.189C333.203 234.189 332.78 234.289 332.407 234.488C332.039 234.682 331.746 234.953 331.53 235.301C331.319 235.644 331.213 236.036 331.213 236.476V242.651H329.713ZM340.164 242.854C339.223 242.854 338.412 242.647 337.731 242.232C337.053 241.812 336.53 241.228 336.161 240.478C335.797 239.724 335.615 238.848 335.615 237.848C335.615 236.849 335.797 235.968 336.161 235.205C336.53 234.439 337.042 233.842 337.699 233.414C338.359 232.982 339.13 232.766 340.011 232.766C340.519 232.766 341.021 232.851 341.517 233.02C342.012 233.19 342.463 233.465 342.87 233.846C343.276 234.223 343.6 234.723 343.842 235.345C344.083 235.968 344.204 236.734 344.204 237.645V238.28H336.682V236.984H342.679C342.679 236.434 342.569 235.942 342.349 235.51C342.133 235.078 341.824 234.738 341.421 234.488C341.023 234.238 340.553 234.113 340.011 234.113C339.414 234.113 338.897 234.261 338.461 234.558C338.029 234.85 337.697 235.231 337.464 235.701C337.231 236.171 337.114 236.675 337.114 237.213V238.077C337.114 238.814 337.241 239.439 337.496 239.951C337.754 240.459 338.112 240.847 338.569 241.114C339.027 241.376 339.558 241.507 340.164 241.507C340.558 241.507 340.913 241.452 341.231 241.342C341.553 241.228 341.83 241.058 342.063 240.834C342.296 240.605 342.476 240.322 342.603 239.983L344.052 240.389C343.899 240.881 343.643 241.313 343.283 241.685C342.923 242.054 342.478 242.342 341.949 242.549C341.419 242.753 340.824 242.854 340.164 242.854ZM347.984 229.64V242.651H346.485V229.64H347.984Z" fill="#323130"/>
<path d="M132.956 317.786V304.776H137.352C138.373 304.776 139.207 304.96 139.855 305.328C140.508 305.692 140.99 306.186 141.304 306.808C141.617 307.431 141.774 308.126 141.774 308.892C141.774 309.659 141.617 310.355 141.304 310.982C140.995 311.609 140.516 312.109 139.868 312.481C139.22 312.85 138.39 313.034 137.378 313.034H134.227V311.636H137.327C138.026 311.636 138.587 311.516 139.01 311.274C139.434 311.033 139.741 310.707 139.932 310.296C140.126 309.881 140.224 309.413 140.224 308.892C140.224 308.371 140.126 307.905 139.932 307.494C139.741 307.084 139.432 306.762 139.004 306.529C138.576 306.292 138.009 306.173 137.302 306.173H134.532V317.786H132.956ZM145.074 321.445C144.82 321.445 144.593 321.424 144.394 321.382C144.195 321.343 144.058 321.305 143.981 321.267L144.363 319.946C144.727 320.039 145.049 320.073 145.328 320.047C145.608 320.022 145.856 319.897 146.072 319.673C146.292 319.452 146.493 319.095 146.675 318.599L146.955 317.837L143.346 308.028H144.973L147.666 315.804H147.768L150.461 308.028H152.088L147.946 319.209C147.759 319.713 147.528 320.13 147.253 320.46C146.978 320.795 146.658 321.043 146.294 321.204C145.934 321.365 145.527 321.445 145.074 321.445ZM158.31 308.028V309.299H153.253V308.028H158.31ZM154.727 305.69H156.226V314.991C156.226 315.414 156.288 315.732 156.411 315.944C156.538 316.151 156.699 316.291 156.893 316.363C157.092 316.431 157.302 316.465 157.522 316.465C157.687 316.465 157.823 316.456 157.929 316.439C158.035 316.418 158.119 316.401 158.183 316.388L158.488 317.735C158.386 317.773 158.244 317.811 158.062 317.849C157.88 317.892 157.649 317.913 157.37 317.913C156.946 317.913 156.531 317.822 156.125 317.64C155.722 317.458 155.388 317.18 155.121 316.808C154.858 316.435 154.727 315.965 154.727 315.397V305.69ZM162.274 311.916V317.786H160.775V304.776H162.274V309.553H162.401C162.63 309.049 162.973 308.649 163.43 308.352C163.892 308.051 164.506 307.901 165.273 307.901C165.938 307.901 166.52 308.034 167.02 308.301C167.519 308.564 167.907 308.968 168.182 309.515C168.462 310.057 168.601 310.747 168.601 311.586V317.786H167.102V311.687C167.102 310.912 166.901 310.313 166.499 309.889C166.101 309.462 165.548 309.248 164.841 309.248C164.349 309.248 163.909 309.352 163.519 309.559C163.134 309.767 162.829 310.069 162.605 310.468C162.384 310.866 162.274 311.348 162.274 311.916ZM175.308 317.989C174.427 317.989 173.655 317.78 172.99 317.36C172.329 316.941 171.812 316.354 171.44 315.601C171.071 314.847 170.887 313.966 170.887 312.958C170.887 311.941 171.071 311.054 171.44 310.296C171.812 309.538 172.329 308.949 172.99 308.53C173.655 308.111 174.427 307.901 175.308 307.901C176.189 307.901 176.96 308.111 177.621 308.53C178.286 308.949 178.802 309.538 179.171 310.296C179.544 311.054 179.73 311.941 179.73 312.958C179.73 313.966 179.544 314.847 179.171 315.601C178.802 316.354 178.286 316.941 177.621 317.36C176.96 317.78 176.189 317.989 175.308 317.989ZM175.308 316.642C175.978 316.642 176.528 316.471 176.96 316.128C177.392 315.785 177.712 315.334 177.919 314.775C178.127 314.216 178.231 313.61 178.231 312.958C178.231 312.306 178.127 311.698 177.919 311.135C177.712 310.571 177.392 310.116 176.96 309.769C176.528 309.421 175.978 309.248 175.308 309.248C174.639 309.248 174.089 309.421 173.657 309.769C173.225 310.116 172.905 310.571 172.697 311.135C172.49 311.698 172.386 312.306 172.386 312.958C172.386 313.61 172.49 314.216 172.697 314.775C172.905 315.334 173.225 315.785 173.657 316.128C174.089 316.471 174.639 316.642 175.308 316.642ZM183.518 311.916V317.786H182.018V308.028H183.467V309.553H183.594C183.823 309.057 184.17 308.659 184.636 308.358C185.102 308.054 185.703 307.901 186.44 307.901C187.101 307.901 187.679 308.037 188.174 308.308C188.67 308.574 189.055 308.981 189.33 309.527C189.606 310.069 189.743 310.756 189.743 311.586V317.786H188.244V311.687C188.244 310.921 188.045 310.324 187.647 309.896C187.249 309.464 186.703 309.248 186.008 309.248C185.529 309.248 185.102 309.352 184.725 309.559C184.352 309.767 184.058 310.069 183.842 310.468C183.626 310.866 183.518 311.348 183.518 311.916Z" fill="#323130"/>
<path d="M15.7919 233.706H14.2165C14.1233 233.253 13.9602 232.855 13.7273 232.512C13.4986 232.169 13.2191 231.881 12.8887 231.648C12.5626 231.411 12.2005 231.233 11.8024 231.114C11.4043 230.996 10.9893 230.936 10.5573 230.936C9.76955 230.936 9.05593 231.136 8.41642 231.534C7.78115 231.932 7.27505 232.518 6.89812 233.293C6.52543 234.068 6.33908 235.019 6.33908 236.146C6.33908 237.272 6.52543 238.223 6.89812 238.998C7.27505 239.773 7.78115 240.36 8.41642 240.758C9.05593 241.156 9.76955 241.355 10.5573 241.355C10.9893 241.355 11.4043 241.296 11.8024 241.177C12.2005 241.058 12.5626 240.883 12.8887 240.65C13.2191 240.413 13.4986 240.122 13.7273 239.779C13.9602 239.432 14.1233 239.034 14.2165 238.585H15.7919C15.6734 239.25 15.4574 239.845 15.144 240.37C14.8306 240.895 14.4409 241.342 13.9751 241.711C13.5092 242.075 12.9861 242.352 12.4059 242.543C11.83 242.733 11.2137 242.829 10.5573 242.829C9.44768 242.829 8.46089 242.558 7.59692 242.016C6.73295 241.474 6.05321 240.703 5.5577 239.703C5.06218 238.704 4.81443 237.518 4.81443 236.146C4.81443 234.774 5.06218 233.588 5.5577 232.588C6.05321 231.589 6.73295 230.818 7.59692 230.276C8.46089 229.734 9.44768 229.463 10.5573 229.463C11.2137 229.463 11.83 229.558 12.4059 229.748C12.9861 229.939 13.5092 230.219 13.9751 230.587C14.4409 230.951 14.8306 231.396 15.144 231.921C15.4574 232.442 15.6734 233.037 15.7919 233.706ZM25.4528 232.893C25.3766 232.249 25.0674 231.75 24.5253 231.394C23.9832 231.038 23.3183 230.86 22.5306 230.86C21.9546 230.86 21.4506 230.953 21.0186 231.14C20.5909 231.326 20.2563 231.582 20.0149 231.908C19.7777 232.235 19.6592 232.605 19.6592 233.02C19.6592 233.367 19.7417 233.666 19.9069 233.916C20.0763 234.162 20.2923 234.367 20.5549 234.532C20.8175 234.693 21.0928 234.826 21.3807 234.932C21.6687 235.034 21.9334 235.117 22.1748 235.18L23.4962 235.536C23.835 235.625 24.2119 235.748 24.627 235.904C25.0463 236.061 25.4465 236.275 25.8277 236.546C26.2131 236.813 26.5307 237.156 26.7806 237.575C27.0304 237.994 27.1554 238.509 27.1554 239.119C27.1554 239.822 26.9711 240.457 26.6027 241.025C26.2385 241.592 25.7048 242.043 25.0018 242.378C24.303 242.712 23.4539 242.88 22.4544 242.88C21.5226 242.88 20.7158 242.729 20.034 242.429C19.3563 242.128 18.8227 241.709 18.4331 241.171C18.0477 240.633 17.8296 240.008 17.7787 239.297H19.405C19.4474 239.788 19.6126 240.194 19.9006 240.516C20.1928 240.834 20.5612 241.071 21.0059 241.228C21.4549 241.38 21.9377 241.457 22.4544 241.457C23.0557 241.457 23.5957 241.359 24.0743 241.164C24.5529 240.965 24.9319 240.69 25.2114 240.338C25.491 239.983 25.6307 239.568 25.6307 239.093C25.6307 238.661 25.51 238.31 25.2686 238.039C25.0272 237.768 24.7096 237.548 24.3157 237.378C23.9218 237.209 23.4962 237.06 23.0388 236.933L21.4379 236.476C20.4215 236.184 19.6168 235.767 19.0239 235.225C18.431 234.682 18.1345 233.973 18.1345 233.096C18.1345 232.368 18.3314 231.733 18.7253 231.191C19.1234 230.644 19.657 230.221 20.3262 229.92C20.9996 229.615 21.7513 229.463 22.5814 229.463C23.42 229.463 24.1654 229.613 24.8176 229.914C25.4698 230.21 25.9865 230.617 26.3676 231.133C26.753 231.65 26.9563 232.237 26.9775 232.893H25.4528ZM36.8607 232.893C36.7845 232.249 36.4753 231.75 35.9332 231.394C35.3912 231.038 34.7262 230.86 33.9385 230.86C33.3625 230.86 32.8585 230.953 32.4265 231.14C31.9988 231.326 31.6642 231.582 31.4228 231.908C31.1856 232.235 31.0671 232.605 31.0671 233.02C31.0671 233.367 31.1496 233.666 31.3148 233.916C31.4842 234.162 31.7002 234.367 31.9628 234.532C32.2254 234.693 32.5007 234.826 32.7887 234.932C33.0766 235.034 33.3413 235.117 33.5827 235.18L34.9041 235.536C35.2429 235.625 35.6198 235.748 36.0349 235.904C36.4542 236.061 36.8544 236.275 37.2356 236.546C37.621 236.813 37.9386 237.156 38.1885 237.575C38.4383 237.994 38.5633 238.509 38.5633 239.119C38.5633 239.822 38.379 240.457 38.0106 241.025C37.6464 241.592 37.1127 242.043 36.4097 242.378C35.7109 242.712 34.8618 242.88 33.8623 242.88C32.9305 242.88 32.1237 242.729 31.4419 242.429C30.7642 242.128 30.2306 241.709 29.841 241.171C29.4556 240.633 29.2375 240.008 29.1867 239.297H30.813C30.8553 239.788 31.0205 240.194 31.3085 240.516C31.6007 240.834 31.9691 241.071 32.4138 241.228C32.8628 241.38 33.3456 241.457 33.8623 241.457C34.4637 241.457 35.0036 241.359 35.4822 241.164C35.9608 240.965 36.3398 240.69 36.6193 240.338C36.8989 239.983 37.0386 239.568 37.0386 239.093C37.0386 238.661 36.9179 238.31 36.6765 238.039C36.4351 237.768 36.1175 237.548 35.7236 237.378C35.3297 237.209 34.9041 237.06 34.4467 236.933L32.8458 236.476C31.8294 236.184 31.0247 235.767 30.4318 235.225C29.8389 234.682 29.5424 233.973 29.5424 233.096C29.5424 232.368 29.7393 231.733 30.1332 231.191C30.5313 230.644 31.0649 230.221 31.7341 229.92C32.4075 229.615 33.1592 229.463 33.9893 229.463C34.8279 229.463 35.5733 229.613 36.2255 229.914C36.8777 230.21 37.3944 230.617 37.7755 231.133C38.1609 231.65 38.3642 232.237 38.3854 232.893H36.8607Z" fill="#323130"/>
<path d="M2.04088 85.2253V72.215H3.61636V78.0086H10.5535V72.215H12.129V85.2253H10.5535V79.4062H3.61636V85.2253H2.04088ZM19.3235 75.4676V76.7381H14.2667V75.4676H19.3235ZM15.7405 73.1298H17.2398V82.4301C17.2398 82.8537 17.3012 83.1713 17.424 83.3831C17.5511 83.5906 17.712 83.7303 17.9068 83.8023C18.1059 83.8701 18.3155 83.904 18.5357 83.904C18.7009 83.904 18.8364 83.8955 18.9423 83.8786C19.0482 83.8574 19.1329 83.8404 19.1964 83.8277L19.5013 85.1745C19.3997 85.2126 19.2578 85.2508 19.0757 85.2889C18.8936 85.3312 18.6628 85.3524 18.3833 85.3524C17.9597 85.3524 17.5447 85.2613 17.1381 85.0792C16.7358 84.8971 16.4012 84.6197 16.1344 84.247C15.8718 83.8743 15.7405 83.4042 15.7405 82.8367V73.1298ZM21.5787 85.2253V75.4676H23.0271V76.9922H23.1542C23.3574 76.4713 23.6857 76.0668 24.1388 75.7788C24.592 75.4866 25.1362 75.3405 25.7715 75.3405C26.4152 75.3405 26.951 75.4866 27.3787 75.7788C27.8107 76.0668 28.1474 76.4713 28.3888 76.9922H28.4905C28.7403 76.4882 29.1151 76.088 29.6149 75.7915C30.1146 75.4909 30.7139 75.3405 31.4127 75.3405C32.2851 75.3405 32.9988 75.6137 33.5536 76.16C34.1084 76.7021 34.3858 77.547 34.3858 78.6947V85.2253H32.8865V78.6947C32.8865 77.9748 32.6896 77.4602 32.2957 77.151C31.9019 76.8419 31.4381 76.6873 30.9045 76.6873C30.2184 76.6873 29.6869 76.8948 29.31 77.3098C28.933 77.7207 28.7446 78.2416 28.7446 78.8726V85.2253H27.2199V78.5423C27.2199 77.9875 27.0399 77.5407 26.6799 77.2019C26.3199 76.8588 25.8562 76.6873 25.2887 76.6873C24.899 76.6873 24.5348 76.791 24.196 76.9986C23.8614 77.2061 23.5904 77.4941 23.3829 77.8625C23.1796 78.2268 23.0779 78.6482 23.0779 79.1267V85.2253H21.5787ZM38.6262 72.215V85.2253H37.127V72.215H38.6262Z" fill="#323130"/>
<path d="M122.82 17.2461H121.168L125.946 4.23571H127.572L132.349 17.2461H130.697L126.809 6.294H126.708L122.82 17.2461ZM123.43 12.1639H130.087V13.5615H123.43V12.1639ZM140.928 7.48831L137.32 17.2461H135.795L132.187 7.48831H133.813L136.507 15.264H136.609L139.302 7.48831H140.928ZM146.649 17.4494C145.709 17.4494 144.898 17.2419 144.216 16.8268C143.538 16.4075 143.015 15.8231 142.647 15.0735C142.283 14.3196 142.1 13.4429 142.1 12.4434C142.1 11.4439 142.283 10.563 142.647 9.8007C143.015 9.03414 143.528 8.43698 144.184 8.00923C144.845 7.57725 145.616 7.36125 146.497 7.36125C147.005 7.36125 147.507 7.44596 148.002 7.61536C148.498 7.78477 148.949 8.06005 149.355 8.44122C149.762 8.81815 150.086 9.31789 150.327 9.94046C150.569 10.563 150.689 11.3296 150.689 12.2401V12.8754H143.168V11.5795H149.165C149.165 11.0289 149.055 10.5376 148.834 10.1056C148.618 9.67365 148.309 9.33272 147.907 9.08284C147.509 8.83297 147.039 8.70803 146.497 8.70803C145.899 8.70803 145.383 8.85626 144.947 9.15272C144.515 9.44495 144.182 9.82611 143.949 10.2962C143.716 10.7663 143.6 11.2703 143.6 11.8082V12.6721C143.6 13.409 143.727 14.0337 143.981 14.5462C144.239 15.0544 144.597 15.4419 145.055 15.7087C145.512 15.9713 146.043 16.1026 146.649 16.1026C147.043 16.1026 147.399 16.0475 147.716 15.9374C148.038 15.8231 148.316 15.6537 148.549 15.4292C148.781 15.2005 148.961 14.9168 149.088 14.5779L150.537 14.9845C150.384 15.4758 150.128 15.9078 149.768 16.2805C149.408 16.6489 148.964 16.9369 148.434 17.1445C147.905 17.3477 147.31 17.4494 146.649 17.4494ZM152.97 17.2461V7.48831H154.418V8.96214H154.52C154.698 8.47933 155.02 8.08758 155.486 7.78689C155.952 7.48619 156.477 7.33584 157.061 7.33584C157.171 7.33584 157.309 7.33796 157.474 7.3422C157.639 7.34643 157.764 7.35278 157.849 7.36125V8.88591C157.798 8.8732 157.682 8.85414 157.499 8.82873C157.322 8.79909 157.133 8.78426 156.934 8.78426C156.46 8.78426 156.036 8.88379 155.664 9.08284C155.295 9.27766 155.003 9.54871 154.787 9.89599C154.575 10.239 154.469 10.6308 154.469 11.0712V17.2461H152.97ZM162.498 17.4748C161.879 17.4748 161.318 17.3583 160.814 17.1254C160.31 16.8882 159.91 16.5473 159.613 16.1026C159.317 15.6537 159.169 15.1116 159.169 14.4763C159.169 13.9173 159.279 13.4641 159.499 13.1168C159.719 12.7653 160.014 12.49 160.382 12.291C160.751 12.0919 161.157 11.9437 161.602 11.8463C162.051 11.7446 162.502 11.6642 162.955 11.6049C163.548 11.5286 164.029 11.4715 164.397 11.4334C164.77 11.391 165.041 11.3211 165.21 11.2237C165.384 11.1263 165.471 10.9569 165.471 10.7155V10.6647C165.471 10.0379 165.299 9.55083 164.956 9.20354C164.617 8.85626 164.103 8.68262 163.412 8.68262C162.697 8.68262 162.135 8.83932 161.729 9.15272C161.322 9.46612 161.036 9.8007 160.871 10.1565L159.448 9.64823C159.702 9.05531 160.041 8.59368 160.465 8.26334C160.892 7.92876 161.358 7.69583 161.862 7.56454C162.37 7.42902 162.87 7.36125 163.361 7.36125C163.675 7.36125 164.035 7.39937 164.441 7.4756C164.852 7.5476 165.248 7.69795 165.629 7.92665C166.015 8.15534 166.335 8.50051 166.589 8.96214C166.843 9.42377 166.97 10.0421 166.97 10.8171V17.2461H165.471V15.9247H165.394C165.293 16.1365 165.123 16.3631 164.886 16.6045C164.649 16.8459 164.333 17.0513 163.94 17.2207C163.546 17.3901 163.065 17.4748 162.498 17.4748ZM162.726 16.128C163.319 16.128 163.819 16.0115 164.225 15.7786C164.636 15.5457 164.945 15.245 165.153 14.8765C165.365 14.5081 165.471 14.1206 165.471 13.714V12.3418C165.407 12.418 165.267 12.4879 165.051 12.5514C164.84 12.6107 164.594 12.6637 164.314 12.7102C164.039 12.7526 163.77 12.7907 163.508 12.8246C163.249 12.8542 163.04 12.8797 162.879 12.9008C162.489 12.9517 162.125 13.0342 161.786 13.1486C161.451 13.2587 161.18 13.426 160.973 13.6505C160.77 13.8707 160.668 14.1714 160.668 14.5525C160.668 15.0735 160.861 15.4673 161.246 15.7341C161.636 15.9967 162.129 16.128 162.726 16.128ZM173.645 21.1086C172.921 21.1086 172.298 21.0154 171.777 20.829C171.256 20.6469 170.822 20.4055 170.475 20.1048C170.132 19.8084 169.859 19.4907 169.655 19.1519L170.85 18.3134C170.985 18.4912 171.157 18.6945 171.364 18.9232C171.572 19.1561 171.856 19.3573 172.216 19.5267C172.58 19.7004 173.056 19.7872 173.645 19.7872C174.433 19.7872 175.083 19.5966 175.595 19.2154C176.108 18.8343 176.364 18.2371 176.364 17.424V15.4419H176.237C176.127 15.6198 175.97 15.84 175.767 16.1026C175.568 16.3609 175.28 16.5918 174.903 16.7951C174.53 16.9941 174.026 17.0936 173.391 17.0936C172.603 17.0936 171.896 16.9073 171.269 16.5346C170.646 16.1619 170.153 15.6198 169.789 14.9083C169.429 14.1968 169.249 13.3328 169.249 12.3164C169.249 11.3169 169.425 10.4466 169.776 9.70541C170.128 8.96002 170.617 8.38404 171.244 7.97747C171.87 7.56666 172.595 7.36125 173.416 7.36125C174.052 7.36125 174.556 7.46713 174.928 7.67889C175.305 7.88641 175.593 8.12358 175.792 8.3904C175.995 8.65297 176.152 8.86897 176.262 9.03837H176.415V7.48831H177.863V17.5256C177.863 18.3642 177.673 19.046 177.291 19.5712C176.914 20.1006 176.406 20.4881 175.767 20.7337C175.131 20.9836 174.424 21.1086 173.645 21.1086ZM173.594 15.7469C174.196 15.7469 174.704 15.6092 175.119 15.3339C175.534 15.0586 175.849 14.6627 176.065 14.146C176.281 13.6293 176.389 13.0109 176.389 12.291C176.389 11.5879 176.283 10.9675 176.072 10.4296C175.86 9.89176 175.547 9.47036 175.131 9.16543C174.716 8.8605 174.204 8.70803 173.594 8.70803C172.959 8.70803 172.429 8.86897 172.006 9.19084C171.587 9.51271 171.271 9.9447 171.059 10.4868C170.852 11.0289 170.748 11.6303 170.748 12.291C170.748 12.9686 170.854 13.5679 171.066 14.0888C171.282 14.6055 171.599 15.0121 172.019 15.3085C172.442 15.6007 172.967 15.7469 173.594 15.7469ZM184.699 17.4494C183.758 17.4494 182.947 17.2419 182.266 16.8268C181.588 16.4075 181.065 15.8231 180.696 15.0735C180.332 14.3196 180.15 13.4429 180.15 12.4434C180.15 11.4439 180.332 10.563 180.696 9.8007C181.065 9.03414 181.577 8.43698 182.234 8.00923C182.895 7.57725 183.665 7.36125 184.546 7.36125C185.054 7.36125 185.556 7.44596 186.052 7.61536C186.547 7.78477 186.998 8.06005 187.405 8.44122C187.812 8.81815 188.136 9.31789 188.377 9.94046C188.618 10.563 188.739 11.3296 188.739 12.2401V12.8754H181.217V11.5795H187.214C187.214 11.0289 187.104 10.5376 186.884 10.1056C186.668 9.67365 186.359 9.33272 185.957 9.08284C185.558 8.83297 185.088 8.70803 184.546 8.70803C183.949 8.70803 183.432 8.85626 182.996 9.15272C182.564 9.44495 182.232 9.82611 181.999 10.2962C181.766 10.7663 181.649 11.2703 181.649 11.8082V12.6721C181.649 13.409 181.776 14.0337 182.031 14.5462C182.289 15.0544 182.647 15.4419 183.104 15.7087C183.562 15.9713 184.093 16.1026 184.699 16.1026C185.093 16.1026 185.448 16.0475 185.766 15.9374C186.088 15.8231 186.365 15.6537 186.598 15.4292C186.831 15.2005 187.011 14.9168 187.138 14.5779L188.587 14.9845C188.434 15.4758 188.178 15.9078 187.818 16.2805C187.458 16.6489 187.013 16.9369 186.484 17.1445C185.954 17.3477 185.359 17.4494 184.699 17.4494Z" fill="#323130"/>
</svg>
