<svg width="25" height="25" viewBox="0 0 25 25" fill="none" xmlns="http://www.w3.org/2000/svg">
<path d="M22.9688 6.5332V11.6332C22.9688 12.9032 22.5488 13.9732 21.7988 14.7132C21.0588 15.4632 19.9887 15.8832 18.7188 15.8832V17.6932C18.7188 18.3732 17.9587 18.7832 17.3987 18.4032L16.4288 17.7632C16.5188 17.4532 16.5587 17.1132 16.5587 16.7532V12.6832C16.5587 10.6432 15.1988 9.2832 13.1588 9.2832H6.36874C6.22874 9.2832 6.09875 9.29322 5.96875 9.30322V6.5332C5.96875 3.9832 7.66875 2.2832 10.2188 2.2832H18.7188C21.2687 2.2832 22.9688 3.9832 22.9688 6.5332Z" stroke="#141AE9" stroke-width="1.5" stroke-miterlimit="10" stroke-linecap="round" stroke-linejoin="round"/>
<path d="M16.5587 12.6832V16.7532C16.5587 17.1132 16.5188 17.4532 16.4288 17.7632C16.0588 19.2332 14.8388 20.1532 13.1588 20.1532H10.4388L7.41875 22.1632C6.96875 22.4732 6.36874 22.1432 6.36874 21.6032V20.1532C5.34874 20.1532 4.49875 19.8132 3.90875 19.2232C3.30875 18.6232 2.96875 17.7732 2.96875 16.7532V12.6832C2.96875 10.7832 4.14875 9.47322 5.96875 9.30322C6.09875 9.29322 6.22874 9.2832 6.36874 9.2832H13.1588C15.1988 9.2832 16.5587 10.6432 16.5587 12.6832Z" stroke="#141AE9" stroke-width="1.5" stroke-miterlimit="10" stroke-linecap="round" stroke-linejoin="round"/>
</svg>
