<svg width="114" height="32" viewBox="0 0 114 32" fill="none" xmlns="http://www.w3.org/2000/svg">
<g clip-path="url(#clip0_768_2690)">
<path d="M58.1908 17.3878L64.8897 10.9031H59.4332L54.4095 15.8639C54.3701 15.9025 54.3204 15.9288 54.2663 15.9397C54.2122 15.9505 54.1561 15.9454 54.1048 15.925C54.0536 15.9045 54.0094 15.8697 53.9777 15.8246C53.9461 15.7796 53.9282 15.7263 53.9264 15.6713V3.73828H49.6562V26.4407H53.9245V20.1794C53.9185 20.136 53.9275 20.0918 53.9501 20.0542C53.9726 20.0166 54.0074 19.9878 54.0486 19.9725C54.0898 19.9573 54.135 19.9565 54.1767 19.9703C54.2184 19.984 54.2542 20.0116 54.2781 20.0484L59.8622 26.4407H65.4172L58.1579 18.2952C58.0448 18.1691 57.985 18.0041 57.9911 17.8349C57.9972 17.6658 58.0688 17.5055 58.1908 17.3878Z" fill="#201F1E"/>
<path fill-rule="evenodd" clip-rule="evenodd" d="M21.0407 11.0615L21.0156 20.752C21.0001 26.2446 15.2383 30.6082 5.31641 30.6313V16.8392C14.0905 16.163 20.6388 13.8473 21.0407 11.0596V11.0615Z" fill="#C7E0F4"/>
<path fill-rule="evenodd" clip-rule="evenodd" d="M21.061 10.7897C21.061 13.6968 14.3717 16.1397 5.31549 16.839V22.8113C2.51186 20.8212 0 19.7308 0 16.5038V0.5C9.52383 4.38776 21.061 1.75996 21.061 10.7897Z" fill="#141AE9"/>
<path d="M40.8316 14.2825C36.9228 13.4079 36.9228 12.4754 36.9228 11.9707C36.9228 10.2773 39.3013 10.1463 40.0298 10.1463C42.2383 10.1463 43.4034 11.0094 43.4884 12.7143L43.556 14.0167H47.7934L47.7412 12.5949C47.5885 8.49906 44.6342 5.9541 40.0298 5.9541C35.6108 5.9541 32.6429 8.37191 32.6429 11.9707C32.6429 16.1686 36.49 17.5981 39.8423 18.3765H39.8597C43.7377 19.2261 43.7377 20.1893 43.7377 20.7076C43.7377 22.4935 41.2258 22.6341 40.4529 22.6341C39.3496 22.6341 36.7643 22.3625 36.6175 19.8541L36.5421 18.5633H32.3164L32.3686 19.9851C32.5232 24.1407 35.6978 26.8243 40.4548 26.8243C42.6286 26.8243 44.4874 26.2811 45.8283 25.2504C46.5298 24.715 47.0956 24.023 47.4802 23.23C47.8647 22.437 48.0574 21.5652 48.0426 20.6844C48.0426 16.4904 44.1937 15.0589 40.8316 14.2825Z" fill="#201F1E"/>
<path d="M70.3205 11.6973L70.276 10.8535H66.3672V26.5086H70.5717V19.1877C70.5717 15.3809 72.4304 14.9493 73.8294 14.9493H76.3316V10.8535H73.8796C72.4768 10.8535 71.2982 11.1309 70.3205 11.6973Z" fill="#201F1E"/>
<path d="M80.725 3.68853C80.3694 3.67858 80.0154 3.74064 79.6845 3.87096C79.3535 4.00127 79.0526 4.19715 78.7997 4.44674C78.5469 4.69633 78.3474 4.99445 78.2134 5.32308C78.0793 5.65171 78.0135 6.00402 78.02 6.35872C78.02 7.07405 78.305 7.76009 78.8123 8.2659C79.3196 8.77172 80.0076 9.05588 80.725 9.05588C81.4425 9.05588 82.1305 8.77172 82.6378 8.2659C83.1451 7.76009 83.4301 7.07405 83.4301 6.35872C83.4365 6.00402 83.3707 5.65171 83.2367 5.32308C83.1027 4.99445 82.9032 4.69633 82.6504 4.44674C82.3975 4.19715 82.0966 4.00127 81.7656 3.87096C81.4347 3.74064 81.0807 3.67858 80.725 3.68853Z" fill="#201F1E"/>
<path d="M82.8256 10.8535H78.6211V26.5067H82.8256V10.8535Z" fill="#201F1E"/>
<path d="M94.0392 10.528C92.5106 10.5093 91.0076 10.9192 89.7014 11.7108L89.655 10.8535H85.75V31.5003H89.9545V25.7842C91.201 26.4827 92.6093 26.8434 94.0392 26.8304C98.6764 26.8304 102.052 23.3973 102.052 18.6676C102.052 13.9379 98.6822 10.528 94.0392 10.528ZM93.8884 14.67C96.294 14.67 97.8475 16.2382 97.8475 18.6676C97.8475 21.097 96.3018 22.6902 93.8884 22.6902C91.4751 22.6902 89.9042 21.1143 89.9042 18.6676C89.9042 16.2768 91.506 14.67 93.8884 14.67Z" fill="#201F1E"/>
<path d="M110.797 22.3648C109.807 22.3648 109.342 22.1914 109.342 20.6155V14.9206H113.825V10.8537H109.342V7.68066H105.522L105.329 10.8537H102.309V14.9206H105.137V20.6656C105.137 24.326 107.234 26.5068 110.741 26.5068H114V22.3648H110.797Z" fill="#201F1E"/>
</g>
<defs>
<clipPath id="clip0_768_2690">
<rect width="114" height="31" fill="white" transform="translate(0 0.5)"/>
</clipPath>
</defs>
</svg>
