<svg width="7" height="12" viewBox="0 0 7 12" fill="none" xmlns="http://www.w3.org/2000/svg">
<path d="M1.43974 11.78C1.31307 11.78 1.18641 11.7333 1.08641 11.6333C0.893073 11.44 0.893073 11.12 1.08641 10.9267L5.43307 6.58001C5.75307 6.26001 5.75307 5.74001 5.43307 5.42001L1.08641 1.07335C0.893073 0.880013 0.893073 0.560013 1.08641 0.36668C1.27974 0.173346 1.59974 0.173346 1.79307 0.36668L6.13974 4.71335C6.47974 5.05335 6.67307 5.51335 6.67307 6.00001C6.67307 6.48668 6.48641 6.94668 6.13974 7.28668L1.79307 11.6333C1.69307 11.7267 1.56641 11.78 1.43974 11.78Z" fill="#605E5C"/>
</svg>
