<svg width="295" height="231" viewBox="0 0 295 231" fill="none" xmlns="http://www.w3.org/2000/svg">
<path opacity="0.2" d="M61.0301 104.644L124 68.2887L186.97 104.644V177.356L124 213.711L61.0301 177.356V104.644Z" stroke="#323130" stroke-width="0.5"/>
<path opacity="0.2" d="M73.1545 111.644L124 82.2887L174.845 111.644V170.356L124 199.711L73.1545 170.356V111.644Z" stroke="#323130" stroke-width="0.5"/>
<path opacity="0.2" d="M84.4128 118.144L124 95.2887L163.587 118.144V163.856L124 186.711L84.4128 163.856V118.144Z" stroke="#323130" stroke-width="0.5"/>
<path opacity="0.2" d="M96.5372 125.144L124 109.289L151.463 125.144V156.856L124 172.711L96.5372 156.856V125.144Z" stroke="#323130" stroke-width="0.5"/>
<line opacity="0.2" x1="124.25" y1="68" x2="124.25" y2="214" stroke="#323130" stroke-width="0.5"/>
<line opacity="0.2" x1="60.876" y1="176.783" x2="186.876" y2="104.783" stroke="#323130" stroke-width="0.5"/>
<line opacity="0.2" x1="62.1248" y1="104.783" x2="187.125" y2="176.783" stroke="#323130" stroke-width="0.5"/>
<path d="M124 82.5L73.5 111.5V170L124 213L150.5 156L175.5 111.5L124 82.5Z" fill="#5FD255" fill-opacity="0.2" stroke="#107C10"/>
<rect x="160" width="135" height="24" rx="2" fill="white"/>
<path d="M174.102 11.9091C174.102 13.0062 173.897 13.9458 173.486 14.728C173.078 15.5069 172.521 16.1035 171.815 16.5178C171.113 16.9321 170.316 17.1392 169.424 17.1392C168.532 17.1392 167.734 16.9321 167.028 16.5178C166.325 16.1001 165.768 15.5019 165.357 14.723C164.95 13.9408 164.746 13.0028 164.746 11.9091C164.746 10.812 164.95 9.87405 165.357 9.09517C165.768 8.31297 166.325 7.71473 167.028 7.30043C167.734 6.88613 168.532 6.67898 169.424 6.67898C170.316 6.67898 171.113 6.88613 171.815 7.30043C172.521 7.71473 173.078 8.31297 173.486 9.09517C173.897 9.87405 174.102 10.812 174.102 11.9091ZM172.248 11.9091C172.248 11.1368 172.127 10.4856 171.885 9.95526C171.646 9.42164 171.315 9.01894 170.891 8.74716C170.466 8.47206 169.978 8.33452 169.424 8.33452C168.871 8.33452 168.382 8.47206 167.957 8.74716C167.533 9.01894 167.2 9.42164 166.958 9.95526C166.719 10.4856 166.6 11.1368 166.6 11.9091C166.6 12.6813 166.719 13.3343 166.958 13.8679C167.2 14.3982 167.533 14.8009 167.957 15.076C168.382 15.3478 168.871 15.4837 169.424 15.4837C169.978 15.4837 170.466 15.3478 170.891 15.076C171.315 14.8009 171.646 14.3982 171.885 13.8679C172.127 13.3343 172.248 12.6813 172.248 11.9091ZM182.588 9.36364L179.868 17H177.879L175.16 9.36364H177.079L178.834 15.0362H178.914L180.673 9.36364H182.588ZM186.954 17.1491C186.188 17.1491 185.527 16.9901 184.97 16.6719C184.417 16.3504 183.991 15.8963 183.692 15.3097C183.394 14.7197 183.245 14.0253 183.245 13.2266C183.245 12.4411 183.394 11.7517 183.692 11.1584C183.994 10.5618 184.415 10.0978 184.955 9.76633C185.496 9.43158 186.13 9.2642 186.859 9.2642C187.33 9.2642 187.774 9.34044 188.192 9.4929C188.613 9.64205 188.984 9.87405 189.305 10.1889C189.63 10.5038 189.885 10.9048 190.071 11.392C190.257 11.8759 190.349 12.4527 190.349 13.1222V13.674H184.09V12.4609H188.624C188.621 12.1162 188.546 11.8097 188.401 11.5412C188.255 11.2694 188.051 11.0556 187.789 10.8999C187.531 10.7441 187.229 10.6662 186.884 10.6662C186.516 10.6662 186.193 10.7557 185.915 10.9347C185.636 11.1103 185.419 11.3423 185.263 11.6307C185.111 11.9157 185.033 12.2289 185.03 12.5703V13.6293C185.03 14.0734 185.111 14.4545 185.273 14.7727C185.436 15.0876 185.663 15.3295 185.955 15.4986C186.246 15.6643 186.588 15.7472 186.979 15.7472C187.241 15.7472 187.478 15.7107 187.69 15.6378C187.902 15.5616 188.086 15.4505 188.241 15.3047C188.397 15.1589 188.515 14.9782 188.594 14.7628L190.275 14.9517C190.169 15.3958 189.967 15.7836 189.668 16.1151C189.373 16.4432 188.996 16.6984 188.535 16.8807C188.074 17.0597 187.547 17.1491 186.954 17.1491ZM191.872 17V9.36364H193.617V10.6364H193.697C193.836 10.1955 194.074 9.85582 194.412 9.61719C194.754 9.37524 195.143 9.25426 195.581 9.25426C195.68 9.25426 195.791 9.25923 195.914 9.26918C196.04 9.2758 196.144 9.2874 196.227 9.30398V10.9595C196.151 10.933 196.03 10.9098 195.864 10.8899C195.702 10.8667 195.544 10.8551 195.392 10.8551C195.064 10.8551 194.769 10.9264 194.507 11.0689C194.248 11.2081 194.045 11.402 193.895 11.6506C193.746 11.8991 193.672 12.1858 193.672 12.5107V17H191.872ZM199.483 17.1541C199 17.1541 198.564 17.0679 198.176 16.8956C197.791 16.7199 197.487 16.4614 197.261 16.12C197.039 15.7786 196.928 15.3577 196.928 14.8572C196.928 14.4264 197.008 14.0701 197.167 13.7884C197.326 13.5066 197.543 13.2812 197.818 13.1122C198.093 12.9432 198.403 12.8156 198.748 12.7294C199.096 12.6399 199.455 12.5753 199.827 12.5355C200.274 12.4891 200.637 12.4477 200.915 12.4112C201.194 12.3714 201.396 12.3118 201.522 12.2322C201.651 12.1494 201.716 12.0218 201.716 11.8494V11.8196C201.716 11.4451 201.605 11.1551 201.383 10.9496C201.161 10.7441 200.841 10.6413 200.423 10.6413C199.982 10.6413 199.633 10.7375 199.374 10.9297C199.119 11.1219 198.947 11.349 198.857 11.6108L197.177 11.3722C197.309 10.9081 197.528 10.5204 197.833 10.2088C198.138 9.89394 198.511 9.65862 198.952 9.50284C199.392 9.34375 199.88 9.2642 200.413 9.2642C200.781 9.2642 201.147 9.30729 201.512 9.39347C201.876 9.47964 202.21 9.62216 202.511 9.82102C202.813 10.0166 203.055 10.2834 203.237 10.6214C203.423 10.9595 203.515 11.3821 203.515 11.8892V17H201.785V15.951H201.726C201.616 16.1631 201.462 16.362 201.263 16.5476C201.068 16.7299 200.821 16.8774 200.523 16.9901C200.228 17.0994 199.881 17.1541 199.483 17.1541ZM199.951 15.8317C200.312 15.8317 200.625 15.7604 200.89 15.6179C201.156 15.4721 201.359 15.2798 201.502 15.0412C201.648 14.8026 201.721 14.5424 201.721 14.2607V13.3608C201.664 13.4072 201.568 13.4503 201.432 13.4901C201.3 13.5298 201.151 13.5646 200.985 13.5945C200.819 13.6243 200.655 13.6508 200.493 13.674C200.33 13.6972 200.189 13.7171 200.07 13.7337C199.802 13.7701 199.561 13.8298 199.349 13.9126C199.137 13.9955 198.97 14.1115 198.847 14.2607C198.724 14.4065 198.663 14.5954 198.663 14.8274C198.663 15.1589 198.784 15.4091 199.026 15.5781C199.268 15.7472 199.576 15.8317 199.951 15.8317ZM207.125 6.81818V17H205.325V6.81818H207.125ZM210.775 6.81818V17H208.975V6.81818H210.775Z" fill="#323130"/>
<path d="M285 15L279 9H291L285 15Z" fill="#2667FF"/>
<path d="M202.228 98H201.347C201.295 97.7467 201.204 97.5241 201.074 97.3324C200.946 97.1406 200.79 96.9796 200.605 96.8494C200.423 96.7169 200.22 96.6174 199.998 96.5511C199.775 96.4848 199.543 96.4517 199.302 96.4517C198.862 96.4517 198.463 96.563 198.105 96.7855C197.75 97.008 197.467 97.3359 197.256 97.7692C197.048 98.2024 196.944 98.7339 196.944 99.3636C196.944 99.9934 197.048 100.525 197.256 100.958C197.467 101.391 197.75 101.719 198.105 101.942C198.463 102.164 198.862 102.276 199.302 102.276C199.543 102.276 199.775 102.242 199.998 102.176C200.22 102.11 200.423 102.012 200.605 101.881C200.79 101.749 200.946 101.587 201.074 101.395C201.204 101.201 201.295 100.978 201.347 100.727H202.228C202.162 101.099 202.041 101.432 201.866 101.725C201.691 102.019 201.473 102.268 201.212 102.474C200.952 102.678 200.66 102.833 200.335 102.94C200.013 103.046 199.669 103.099 199.302 103.099C198.682 103.099 198.13 102.948 197.647 102.645C197.164 102.342 196.784 101.911 196.507 101.352C196.23 100.794 196.092 100.131 196.092 99.3636C196.092 98.5966 196.23 97.9337 196.507 97.375C196.784 96.8163 197.164 96.3854 197.647 96.0824C198.13 95.7794 198.682 95.6278 199.302 95.6278C199.669 95.6278 200.013 95.6811 200.335 95.7876C200.66 95.8942 200.952 96.0504 201.212 96.2564C201.473 96.46 201.691 96.7086 201.866 97.0021C202.041 97.2933 202.162 97.6259 202.228 98ZM205.753 103.114C205.261 103.114 204.829 102.996 204.457 102.762C204.088 102.528 203.799 102.2 203.591 101.778C203.385 101.357 203.282 100.865 203.282 100.301C203.282 99.733 203.385 99.237 203.591 98.8132C203.799 98.3894 204.088 98.0604 204.457 97.826C204.829 97.5916 205.261 97.4744 205.753 97.4744C206.246 97.4744 206.677 97.5916 207.046 97.826C207.418 98.0604 207.707 98.3894 207.913 98.8132C208.121 99.237 208.225 99.733 208.225 100.301C208.225 100.865 208.121 101.357 207.913 101.778C207.707 102.2 207.418 102.528 207.046 102.762C206.677 102.996 206.246 103.114 205.753 103.114ZM205.753 102.361C206.128 102.361 206.435 102.265 206.677 102.073C206.918 101.881 207.097 101.629 207.213 101.317C207.329 101.004 207.387 100.666 207.387 100.301C207.387 99.9366 207.329 99.5968 207.213 99.282C207.097 98.9671 206.918 98.7126 206.677 98.5185C206.435 98.3243 206.128 98.2273 205.753 98.2273C205.379 98.2273 205.072 98.3243 204.83 98.5185C204.589 98.7126 204.41 98.9671 204.294 99.282C204.178 99.5968 204.12 99.9366 204.12 100.301C204.12 100.666 204.178 101.004 204.294 101.317C204.41 101.629 204.589 101.881 204.83 102.073C205.072 102.265 205.379 102.361 205.753 102.361ZM209.504 103V97.5455H210.314V98.3977H210.385C210.499 98.1065 210.682 97.8804 210.935 97.7195C211.189 97.5561 211.493 97.4744 211.848 97.4744C212.208 97.4744 212.507 97.5561 212.747 97.7195C212.988 97.8804 213.176 98.1065 213.311 98.3977H213.368C213.508 98.116 213.717 97.8923 213.997 97.7266C214.276 97.5585 214.611 97.4744 215.002 97.4744C215.489 97.4744 215.888 97.6271 216.198 97.9325C216.508 98.2356 216.663 98.7079 216.663 99.3494V103H215.825V99.3494C215.825 98.947 215.715 98.6593 215.495 98.4865C215.275 98.3137 215.016 98.2273 214.717 98.2273C214.334 98.2273 214.037 98.3433 213.826 98.5753C213.615 98.8049 213.51 99.0961 213.51 99.4489V103H212.658V99.2642C212.658 98.9541 212.557 98.7043 212.356 98.5149C212.155 98.3232 211.895 98.2273 211.578 98.2273C211.36 98.2273 211.157 98.2853 210.967 98.4013C210.78 98.5173 210.629 98.6783 210.513 98.8842C210.399 99.0878 210.342 99.3234 210.342 99.5909V103H209.504ZM221.633 100.77V97.5455H222.471V103H221.633V102.077H221.576C221.449 102.354 221.25 102.589 220.98 102.783C220.71 102.975 220.369 103.071 219.957 103.071C219.616 103.071 219.313 102.996 219.048 102.847C218.783 102.696 218.575 102.469 218.423 102.165C218.272 101.86 218.196 101.475 218.196 101.011V97.5455H219.034V100.955C219.034 101.352 219.145 101.67 219.368 101.906C219.593 102.143 219.879 102.261 220.227 102.261C220.435 102.261 220.647 102.208 220.863 102.102C221.08 101.995 221.263 101.832 221.41 101.612C221.559 101.391 221.633 101.111 221.633 100.77ZM224.844 99.7188V103H224.006V97.5455H224.816V98.3977H224.887C225.015 98.1207 225.209 97.8982 225.469 97.7301C225.73 97.5597 226.066 97.4744 226.478 97.4744C226.847 97.4744 227.17 97.5502 227.447 97.7017C227.724 97.8509 227.94 98.0781 228.094 98.3835C228.248 98.6866 228.324 99.0701 228.324 99.5341V103H227.486V99.5909C227.486 99.1624 227.375 98.8286 227.153 98.5895C226.93 98.348 226.625 98.2273 226.236 98.2273C225.969 98.2273 225.73 98.2853 225.519 98.4013C225.311 98.5173 225.146 98.6866 225.025 98.9091C224.905 99.1316 224.844 99.4015 224.844 99.7188ZM229.856 103V97.5455H230.694V103H229.856ZM230.282 96.6364C230.119 96.6364 229.978 96.5807 229.859 96.4695C229.743 96.3582 229.685 96.2244 229.685 96.0682C229.685 95.9119 229.743 95.7782 229.859 95.6669C229.978 95.5556 230.119 95.5 230.282 95.5C230.445 95.5 230.585 95.5556 230.701 95.6669C230.819 95.7782 230.879 95.9119 230.879 96.0682C230.879 96.2244 230.819 96.3582 230.701 96.4695C230.585 96.5807 230.445 96.6364 230.282 96.6364ZM234.445 103.114C233.934 103.114 233.493 102.993 233.124 102.751C232.755 102.51 232.47 102.177 232.272 101.754C232.073 101.33 231.973 100.846 231.973 100.301C231.973 99.7472 232.075 99.2583 232.279 98.8345C232.485 98.4084 232.771 98.0758 233.138 97.8366C233.507 97.5952 233.938 97.4744 234.431 97.4744C234.814 97.4744 235.16 97.5455 235.468 97.6875C235.775 97.8295 236.027 98.0284 236.224 98.2841C236.42 98.5398 236.542 98.8381 236.59 99.179H235.752C235.688 98.9304 235.546 98.7102 235.326 98.5185C235.108 98.3243 234.814 98.2273 234.445 98.2273C234.118 98.2273 233.832 98.3125 233.585 98.483C233.342 98.651 233.151 98.889 233.014 99.1967C232.879 99.5021 232.811 99.8608 232.811 100.273C232.811 100.694 232.878 101.061 233.01 101.374C233.145 101.686 233.335 101.929 233.578 102.102C233.825 102.274 234.113 102.361 234.445 102.361C234.663 102.361 234.86 102.323 235.038 102.247C235.215 102.171 235.366 102.062 235.489 101.92C235.612 101.778 235.7 101.608 235.752 101.409H236.59C236.542 101.731 236.425 102.021 236.238 102.279C236.054 102.535 235.809 102.738 235.503 102.89C235.2 103.039 234.847 103.114 234.445 103.114ZM239.42 103.128C239.074 103.128 238.761 103.063 238.479 102.933C238.197 102.8 237.974 102.609 237.808 102.361C237.642 102.11 237.559 101.807 237.559 101.452C237.559 101.139 237.621 100.886 237.744 100.692C237.867 100.495 238.032 100.341 238.237 100.23C238.443 100.119 238.671 100.036 238.919 99.9815C239.17 99.9247 239.422 99.8797 239.676 99.8466C240.007 99.804 240.276 99.772 240.482 99.7507C240.69 99.727 240.842 99.688 240.936 99.6335C241.033 99.5791 241.082 99.4844 241.082 99.3494V99.321C241.082 98.9706 240.986 98.6984 240.794 98.5043C240.605 98.3101 240.317 98.2131 239.931 98.2131C239.531 98.2131 239.218 98.3007 238.99 98.4759C238.763 98.651 238.603 98.8381 238.511 99.0369L237.715 98.7528C237.858 98.4214 238.047 98.1634 238.284 97.9787C238.523 97.7917 238.783 97.6615 239.065 97.5881C239.349 97.5123 239.628 97.4744 239.903 97.4744C240.078 97.4744 240.279 97.4957 240.507 97.5384C240.736 97.5786 240.958 97.6626 241.171 97.7905C241.386 97.9183 241.565 98.1113 241.707 98.3693C241.849 98.6274 241.92 98.973 241.92 99.4062V103H241.082V102.261H241.039C240.983 102.38 240.888 102.506 240.755 102.641C240.623 102.776 240.446 102.891 240.226 102.986C240.006 103.08 239.737 103.128 239.42 103.128ZM239.548 102.375C239.879 102.375 240.159 102.31 240.386 102.18C240.616 102.049 240.788 101.881 240.904 101.675C241.023 101.469 241.082 101.253 241.082 101.026V100.259C241.046 100.301 240.968 100.34 240.848 100.376C240.729 100.409 240.592 100.438 240.436 100.464C240.282 100.488 240.131 100.509 239.985 100.528C239.84 100.545 239.723 100.559 239.633 100.571C239.415 100.599 239.212 100.646 239.022 100.71C238.835 100.771 238.684 100.865 238.568 100.99C238.454 101.113 238.397 101.281 238.397 101.494C238.397 101.786 238.505 102.006 238.72 102.155C238.938 102.302 239.214 102.375 239.548 102.375ZM245.822 97.5455V98.2557H242.995V97.5455H245.822ZM243.819 96.2386H244.657V101.438C244.657 101.674 244.691 101.852 244.76 101.97C244.831 102.086 244.921 102.164 245.03 102.205C245.141 102.242 245.258 102.261 245.381 102.261C245.474 102.261 245.55 102.257 245.609 102.247C245.668 102.235 245.715 102.226 245.751 102.219L245.921 102.972C245.864 102.993 245.785 103.014 245.683 103.036C245.582 103.059 245.453 103.071 245.296 103.071C245.06 103.071 244.828 103.02 244.6 102.918C244.375 102.817 244.188 102.661 244.039 102.453C243.892 102.245 243.819 101.982 243.819 101.665V96.2386ZM247.082 103V97.5455H247.921V103H247.082ZM247.509 96.6364C247.345 96.6364 247.204 96.5807 247.086 96.4695C246.97 96.3582 246.912 96.2244 246.912 96.0682C246.912 95.9119 246.97 95.7782 247.086 95.6669C247.204 95.5556 247.345 95.5 247.509 95.5C247.672 95.5 247.812 95.5556 247.928 95.6669C248.046 95.7782 248.105 95.9119 248.105 96.0682C248.105 96.2244 248.046 96.3582 247.928 96.4695C247.812 96.5807 247.672 96.6364 247.509 96.6364ZM251.671 103.114C251.179 103.114 250.747 102.996 250.375 102.762C250.006 102.528 249.717 102.2 249.509 101.778C249.303 101.357 249.2 100.865 249.2 100.301C249.2 99.733 249.303 99.237 249.509 98.8132C249.717 98.3894 250.006 98.0604 250.375 97.826C250.747 97.5916 251.179 97.4744 251.671 97.4744C252.164 97.4744 252.595 97.5916 252.964 97.826C253.336 98.0604 253.625 98.3894 253.831 98.8132C254.039 99.237 254.143 99.733 254.143 100.301C254.143 100.865 254.039 101.357 253.831 101.778C253.625 102.2 253.336 102.528 252.964 102.762C252.595 102.996 252.164 103.114 251.671 103.114ZM251.671 102.361C252.045 102.361 252.353 102.265 252.595 102.073C252.836 101.881 253.015 101.629 253.131 101.317C253.247 101.004 253.305 100.666 253.305 100.301C253.305 99.9366 253.247 99.5968 253.131 99.282C253.015 98.9671 252.836 98.7126 252.595 98.5185C252.353 98.3243 252.045 98.2273 251.671 98.2273C251.297 98.2273 250.99 98.3243 250.748 98.5185C250.507 98.7126 250.328 98.9671 250.212 99.282C250.096 99.5968 250.038 99.9366 250.038 100.301C250.038 100.666 250.096 101.004 250.212 101.317C250.328 101.629 250.507 101.881 250.748 102.073C250.99 102.265 251.297 102.361 251.671 102.361ZM256.26 99.7188V103H255.422V97.5455H256.232V98.3977H256.303C256.431 98.1207 256.625 97.8982 256.885 97.7301C257.146 97.5597 257.482 97.4744 257.894 97.4744C258.263 97.4744 258.586 97.5502 258.863 97.7017C259.14 97.8509 259.356 98.0781 259.51 98.3835C259.664 98.6866 259.741 99.0701 259.741 99.5341V103H258.902V99.5909C258.902 99.1624 258.791 98.8286 258.569 98.5895C258.346 98.348 258.041 98.2273 257.652 98.2273C257.385 98.2273 257.146 98.2853 256.935 98.4013C256.727 98.5173 256.562 98.6866 256.441 98.9091C256.321 99.1316 256.26 99.4015 256.26 99.7188Z" fill="#323130"/>
<path d="M197.881 181V173.727H202.27V174.509H198.761V176.966H202.043V177.747H198.761V180.219H202.327V181H197.881ZM204.369 175.545L205.675 177.776L206.982 175.545H207.948L206.187 178.273L207.948 181H206.982L205.675 178.884L204.369 181H203.403L205.136 178.273L203.403 175.545H204.369ZM209.144 183.045V175.545H209.954V176.412H210.053C210.115 176.317 210.2 176.196 210.309 176.05C210.42 175.901 210.579 175.768 210.785 175.652C210.993 175.534 211.275 175.474 211.63 175.474C212.089 175.474 212.494 175.589 212.844 175.819C213.195 176.049 213.468 176.374 213.665 176.795C213.861 177.217 213.959 177.714 213.959 178.287C213.959 178.865 213.861 179.365 213.665 179.789C213.468 180.21 213.196 180.537 212.848 180.769C212.5 180.999 212.099 181.114 211.644 181.114C211.294 181.114 211.013 181.056 210.802 180.94C210.592 180.821 210.43 180.687 210.316 180.538C210.202 180.387 210.115 180.261 210.053 180.162H209.982V183.045H209.144ZM209.968 178.273C209.968 178.685 210.028 179.048 210.149 179.363C210.27 179.675 210.446 179.92 210.678 180.098C210.91 180.273 211.194 180.361 211.53 180.361C211.881 180.361 212.173 180.268 212.407 180.084C212.644 179.897 212.822 179.646 212.94 179.331C213.061 179.014 213.121 178.661 213.121 178.273C213.121 177.889 213.062 177.544 212.944 177.236C212.828 176.926 212.651 176.681 212.415 176.501C212.18 176.318 211.885 176.227 211.53 176.227C211.189 176.227 210.903 176.314 210.671 176.487C210.439 176.657 210.264 176.896 210.145 177.204C210.027 177.509 209.968 177.866 209.968 178.273ZM217.525 181.114C216.999 181.114 216.546 180.998 216.165 180.766C215.786 180.531 215.493 180.205 215.287 179.786C215.084 179.364 214.982 178.874 214.982 178.315C214.982 177.757 215.084 177.264 215.287 176.838C215.493 176.41 215.78 176.076 216.147 175.837C216.516 175.595 216.947 175.474 217.439 175.474C217.724 175.474 218.004 175.522 218.281 175.616C218.558 175.711 218.81 175.865 219.037 176.078C219.265 176.289 219.446 176.568 219.581 176.916C219.716 177.264 219.783 177.693 219.783 178.202V178.557H215.579V177.832H218.931C218.931 177.525 218.869 177.25 218.746 177.009C218.626 176.767 218.453 176.576 218.228 176.437C218.005 176.297 217.742 176.227 217.439 176.227C217.106 176.227 216.817 176.31 216.573 176.476C216.331 176.639 216.146 176.852 216.015 177.115C215.885 177.378 215.82 177.66 215.82 177.96V178.443C215.82 178.855 215.891 179.204 216.033 179.491C216.178 179.775 216.378 179.991 216.633 180.141C216.889 180.287 217.186 180.361 217.525 180.361C217.745 180.361 217.944 180.33 218.121 180.268C218.301 180.205 218.456 180.11 218.586 179.984C218.717 179.857 218.817 179.698 218.888 179.509L219.698 179.736C219.613 180.01 219.47 180.252 219.268 180.46C219.067 180.666 218.818 180.827 218.523 180.943C218.227 181.057 217.894 181.114 217.525 181.114ZM221.058 181V175.545H221.868V176.369H221.925C222.024 176.099 222.204 175.88 222.464 175.712C222.725 175.544 223.018 175.46 223.345 175.46C223.407 175.46 223.483 175.461 223.576 175.464C223.668 175.466 223.738 175.47 223.785 175.474V176.327C223.757 176.32 223.692 176.309 223.59 176.295C223.491 176.278 223.385 176.27 223.274 176.27C223.009 176.27 222.772 176.326 222.564 176.437C222.358 176.546 222.194 176.697 222.074 176.891C221.955 177.083 221.896 177.302 221.896 177.548V181H221.058ZM224.779 181V175.545H225.617V181H224.779ZM225.205 174.636C225.042 174.636 224.901 174.581 224.782 174.469C224.666 174.358 224.608 174.224 224.608 174.068C224.608 173.912 224.666 173.778 224.782 173.667C224.901 173.556 225.042 173.5 225.205 173.5C225.368 173.5 225.508 173.556 225.624 173.667C225.742 173.778 225.801 173.912 225.801 174.068C225.801 174.224 225.742 174.358 225.624 174.469C225.508 174.581 225.368 174.636 225.205 174.636ZM229.439 181.114C228.913 181.114 228.46 180.998 228.079 180.766C227.7 180.531 227.407 180.205 227.202 179.786C226.998 179.364 226.896 178.874 226.896 178.315C226.896 177.757 226.998 177.264 227.202 176.838C227.407 176.41 227.694 176.076 228.061 175.837C228.43 175.595 228.861 175.474 229.354 175.474C229.638 175.474 229.918 175.522 230.195 175.616C230.472 175.711 230.724 175.865 230.952 176.078C231.179 176.289 231.36 176.568 231.495 176.916C231.63 177.264 231.697 177.693 231.697 178.202V178.557H227.493V177.832H230.845C230.845 177.525 230.783 177.25 230.66 177.009C230.54 176.767 230.367 176.576 230.142 176.437C229.919 176.297 229.657 176.227 229.354 176.227C229.02 176.227 228.731 176.31 228.487 176.476C228.246 176.639 228.06 176.852 227.93 177.115C227.799 177.378 227.734 177.66 227.734 177.96V178.443C227.734 178.855 227.805 179.204 227.947 179.491C228.092 179.775 228.292 179.991 228.547 180.141C228.803 180.287 229.1 180.361 229.439 180.361C229.659 180.361 229.858 180.33 230.035 180.268C230.215 180.205 230.37 180.11 230.501 179.984C230.631 179.857 230.731 179.698 230.802 179.509L231.612 179.736C231.527 180.01 231.384 180.252 231.182 180.46C230.981 180.666 230.733 180.827 230.437 180.943C230.141 181.057 229.808 181.114 229.439 181.114ZM233.81 177.719V181H232.972V175.545H233.782V176.398H233.853C233.981 176.121 234.175 175.898 234.435 175.73C234.696 175.56 235.032 175.474 235.444 175.474C235.813 175.474 236.136 175.55 236.413 175.702C236.69 175.851 236.906 176.078 237.059 176.384C237.213 176.687 237.29 177.07 237.29 177.534V181H236.452V177.591C236.452 177.162 236.341 176.829 236.118 176.589C235.896 176.348 235.59 176.227 235.202 176.227C234.935 176.227 234.696 176.285 234.485 176.401C234.277 176.517 234.112 176.687 233.991 176.909C233.871 177.132 233.81 177.402 233.81 177.719ZM241.038 181.114C240.526 181.114 240.086 180.993 239.717 180.751C239.347 180.51 239.063 180.177 238.864 179.754C238.665 179.33 238.566 178.846 238.566 178.301C238.566 177.747 238.668 177.258 238.871 176.835C239.077 176.408 239.364 176.076 239.731 175.837C240.1 175.595 240.531 175.474 241.023 175.474C241.407 175.474 241.753 175.545 242.06 175.688C242.368 175.83 242.62 176.028 242.817 176.284C243.013 176.54 243.135 176.838 243.183 177.179H242.344C242.281 176.93 242.138 176.71 241.918 176.518C241.701 176.324 241.407 176.227 241.038 176.227C240.711 176.227 240.424 176.312 240.178 176.483C239.934 176.651 239.744 176.889 239.607 177.197C239.472 177.502 239.404 177.861 239.404 178.273C239.404 178.694 239.47 179.061 239.603 179.374C239.738 179.686 239.927 179.929 240.171 180.102C240.417 180.274 240.706 180.361 241.038 180.361C241.255 180.361 241.453 180.323 241.631 180.247C241.808 180.171 241.959 180.062 242.082 179.92C242.205 179.778 242.292 179.608 242.344 179.409H243.183C243.135 179.731 243.018 180.021 242.831 180.279C242.646 180.535 242.401 180.738 242.096 180.89C241.793 181.039 241.44 181.114 241.038 181.114ZM246.695 181.114C246.169 181.114 245.716 180.998 245.335 180.766C244.956 180.531 244.663 180.205 244.457 179.786C244.254 179.364 244.152 178.874 244.152 178.315C244.152 177.757 244.254 177.264 244.457 176.838C244.663 176.41 244.95 176.076 245.317 175.837C245.686 175.595 246.117 175.474 246.609 175.474C246.893 175.474 247.174 175.522 247.451 175.616C247.728 175.711 247.98 175.865 248.207 176.078C248.435 176.289 248.616 176.568 248.751 176.916C248.886 177.264 248.953 177.693 248.953 178.202V178.557H244.749V177.832H248.101C248.101 177.525 248.039 177.25 247.916 177.009C247.795 176.767 247.623 176.576 247.398 176.437C247.175 176.297 246.912 176.227 246.609 176.227C246.276 176.227 245.987 176.31 245.743 176.476C245.501 176.639 245.316 176.852 245.185 177.115C245.055 177.378 244.99 177.66 244.99 177.96V178.443C244.99 178.855 245.061 179.204 245.203 179.491C245.348 179.775 245.548 179.991 245.803 180.141C246.059 180.287 246.356 180.361 246.695 180.361C246.915 180.361 247.114 180.33 247.291 180.268C247.471 180.205 247.626 180.11 247.756 179.984C247.887 179.857 247.987 179.698 248.058 179.509L248.868 179.736C248.783 180.01 248.639 180.252 248.438 180.46C248.237 180.666 247.988 180.827 247.692 180.943C247.397 181.057 247.064 181.114 246.695 181.114Z" fill="#323130"/>
<path d="M113.858 223.545C113.815 223.186 113.643 222.906 113.339 222.707C113.036 222.509 112.665 222.409 112.224 222.409C111.902 222.409 111.621 222.461 111.379 222.565C111.14 222.67 110.953 222.813 110.818 222.995C110.686 223.177 110.619 223.384 110.619 223.616C110.619 223.811 110.665 223.978 110.758 224.117C110.853 224.254 110.973 224.369 111.12 224.462C111.267 224.552 111.421 224.626 111.582 224.685C111.743 224.742 111.891 224.788 112.026 224.824L112.764 225.023C112.954 225.072 113.164 225.141 113.396 225.229C113.631 225.316 113.854 225.436 114.067 225.587C114.283 225.737 114.46 225.928 114.6 226.163C114.74 226.397 114.81 226.685 114.81 227.026C114.81 227.419 114.707 227.774 114.501 228.091C114.297 228.408 113.999 228.66 113.606 228.847C113.215 229.034 112.741 229.128 112.182 229.128C111.661 229.128 111.21 229.044 110.829 228.876C110.45 228.708 110.152 228.473 109.934 228.173C109.719 227.872 109.597 227.523 109.568 227.125H110.477C110.501 227.4 110.593 227.627 110.754 227.807C110.918 227.984 111.124 228.117 111.372 228.205C111.623 228.29 111.893 228.332 112.182 228.332C112.518 228.332 112.82 228.278 113.087 228.169C113.355 228.058 113.567 227.904 113.723 227.707C113.879 227.509 113.957 227.277 113.957 227.011C113.957 226.77 113.89 226.573 113.755 226.422C113.62 226.27 113.442 226.147 113.222 226.053C113.002 225.958 112.764 225.875 112.509 225.804L111.614 225.548C111.045 225.385 110.596 225.152 110.264 224.849C109.933 224.546 109.767 224.149 109.767 223.659C109.767 223.252 109.877 222.897 110.097 222.594C110.32 222.288 110.618 222.052 110.992 221.884C111.369 221.713 111.789 221.628 112.253 221.628C112.722 221.628 113.138 221.712 113.503 221.88C113.867 222.046 114.156 222.273 114.369 222.562C114.585 222.851 114.698 223.179 114.71 223.545H113.858ZM118.36 229.114C117.867 229.114 117.435 228.996 117.064 228.762C116.694 228.528 116.406 228.2 116.197 227.778C115.991 227.357 115.888 226.865 115.888 226.301C115.888 225.733 115.991 225.237 116.197 224.813C116.406 224.389 116.694 224.06 117.064 223.826C117.435 223.592 117.867 223.474 118.36 223.474C118.852 223.474 119.283 223.592 119.653 223.826C120.024 224.06 120.313 224.389 120.519 224.813C120.727 225.237 120.831 225.733 120.831 226.301C120.831 226.865 120.727 227.357 120.519 227.778C120.313 228.2 120.024 228.528 119.653 228.762C119.283 228.996 118.852 229.114 118.36 229.114ZM118.36 228.361C118.734 228.361 119.042 228.265 119.283 228.073C119.525 227.881 119.703 227.629 119.819 227.317C119.935 227.004 119.993 226.666 119.993 226.301C119.993 225.937 119.935 225.597 119.819 225.282C119.703 224.967 119.525 224.713 119.283 224.518C119.042 224.324 118.734 224.227 118.36 224.227C117.986 224.227 117.678 224.324 117.437 224.518C117.195 224.713 117.016 224.967 116.9 225.282C116.784 225.597 116.726 225.937 116.726 226.301C116.726 226.666 116.784 227.004 116.9 227.317C117.016 227.629 117.195 227.881 117.437 228.073C117.678 228.265 117.986 228.361 118.36 228.361ZM124.54 223.545V224.256H121.599V223.545H124.54ZM122.48 229V222.793C122.48 222.48 122.554 222.22 122.7 222.011C122.847 221.803 123.038 221.647 123.272 221.543C123.506 221.438 123.754 221.386 124.014 221.386C124.22 221.386 124.388 221.403 124.518 221.436C124.649 221.469 124.746 221.5 124.81 221.528L124.568 222.253C124.526 222.239 124.466 222.221 124.391 222.2C124.317 222.178 124.22 222.168 124.099 222.168C123.822 222.168 123.622 222.237 123.499 222.377C123.379 222.517 123.318 222.722 123.318 222.991V229H122.48ZM128.086 223.545V224.256H125.26V223.545H128.086ZM126.084 222.239H126.922V227.438C126.922 227.674 126.956 227.852 127.025 227.97C127.096 228.086 127.186 228.164 127.295 228.205C127.406 228.242 127.523 228.261 127.646 228.261C127.738 228.261 127.814 228.257 127.873 228.247C127.933 228.235 127.98 228.226 128.015 228.219L128.186 228.972C128.129 228.993 128.05 229.014 127.948 229.036C127.846 229.059 127.717 229.071 127.561 229.071C127.324 229.071 127.092 229.02 126.865 228.918C126.64 228.817 126.453 228.661 126.304 228.453C126.157 228.245 126.084 227.982 126.084 227.665V222.239ZM136.251 223.545C136.208 223.186 136.035 222.906 135.732 222.707C135.429 222.509 135.057 222.409 134.617 222.409C134.295 222.409 134.013 222.461 133.772 222.565C133.533 222.67 133.346 222.813 133.211 222.995C133.078 223.177 133.012 223.384 133.012 223.616C133.012 223.811 133.058 223.978 133.15 224.117C133.245 224.254 133.366 224.369 133.513 224.462C133.659 224.552 133.813 224.626 133.974 224.685C134.135 224.742 134.283 224.788 134.418 224.824L135.157 225.023C135.346 225.072 135.557 225.141 135.789 225.229C136.023 225.316 136.247 225.436 136.46 225.587C136.675 225.737 136.853 225.928 136.993 226.163C137.132 226.397 137.202 226.685 137.202 227.026C137.202 227.419 137.099 227.774 136.893 228.091C136.69 228.408 136.391 228.66 135.998 228.847C135.608 229.034 135.133 229.128 134.574 229.128C134.054 229.128 133.603 229.044 133.221 228.876C132.843 228.708 132.544 228.473 132.327 228.173C132.111 227.872 131.989 227.523 131.961 227.125H132.87C132.894 227.4 132.986 227.627 133.147 227.807C133.31 227.984 133.516 228.117 133.765 228.205C134.016 228.29 134.286 228.332 134.574 228.332C134.911 228.332 135.212 228.278 135.48 228.169C135.747 228.058 135.959 227.904 136.116 227.707C136.272 227.509 136.35 227.277 136.35 227.011C136.35 226.77 136.282 226.573 136.148 226.422C136.013 226.27 135.835 226.147 135.615 226.053C135.395 225.958 135.157 225.875 134.901 225.804L134.006 225.548C133.438 225.385 132.988 225.152 132.657 224.849C132.325 224.546 132.16 224.149 132.16 223.659C132.16 223.252 132.27 222.897 132.49 222.594C132.712 222.288 133.011 222.052 133.385 221.884C133.761 221.713 134.181 221.628 134.645 221.628C135.114 221.628 135.531 221.712 135.895 221.88C136.26 222.046 136.549 222.273 136.762 222.562C136.977 222.851 137.091 223.179 137.103 223.545H136.251ZM139.318 227.011L139.304 225.974H139.474L141.86 223.545H142.897L140.355 226.116H140.284L139.318 227.011ZM138.537 229V221.727H139.375V229H138.537ZM142.002 229L139.872 226.301L140.468 225.719L143.068 229H142.002ZM143.976 229V223.545H144.814V229H143.976ZM144.402 222.636C144.239 222.636 144.098 222.581 143.98 222.469C143.864 222.358 143.806 222.224 143.806 222.068C143.806 221.912 143.864 221.778 143.98 221.667C144.098 221.556 144.239 221.5 144.402 221.5C144.566 221.5 144.705 221.556 144.821 221.667C144.94 221.778 144.999 221.912 144.999 222.068C144.999 222.224 144.94 222.358 144.821 222.469C144.705 222.581 144.566 222.636 144.402 222.636ZM147.187 221.727V229H146.349V221.727H147.187ZM149.56 221.727V229H148.722V221.727H149.56Z" fill="#323130"/>
<path d="M1.09357 183V175.727H1.97425V182.219H5.35494V183H1.09357ZM8.21005 183.128C7.86441 183.128 7.55072 183.063 7.269 182.933C6.98728 182.8 6.76355 182.609 6.59783 182.361C6.43211 182.11 6.34925 181.807 6.34925 181.452C6.34925 181.139 6.41081 180.886 6.53391 180.692C6.65702 180.495 6.82156 180.341 7.02752 180.23C7.23349 180.119 7.46076 180.036 7.70934 179.982C7.96029 179.925 8.21242 179.88 8.46573 179.847C8.79717 179.804 9.06587 179.772 9.27184 179.751C9.48017 179.727 9.63169 179.688 9.72638 179.634C9.82345 179.579 9.87198 179.484 9.87198 179.349V179.321C9.87198 178.971 9.7761 178.698 9.58434 178.504C9.39495 178.31 9.1073 178.213 8.72141 178.213C8.32132 178.213 8.00764 178.301 7.78036 178.476C7.55309 178.651 7.39329 178.838 7.30096 179.037L6.5055 178.753C6.64755 178.421 6.83694 178.163 7.07369 177.979C7.3128 177.792 7.57321 177.661 7.85494 177.588C8.13903 177.512 8.41838 177.474 8.693 177.474C8.86819 177.474 9.06942 177.496 9.2967 177.538C9.52634 177.579 9.74769 177.663 9.96076 177.79C10.1762 177.918 10.3549 178.111 10.497 178.369C10.639 178.627 10.71 178.973 10.71 179.406V183H9.87198V182.261H9.82937C9.77255 182.38 9.67785 182.506 9.54528 182.641C9.4127 182.776 9.23633 182.891 9.01616 182.986C8.79599 183.08 8.52728 183.128 8.21005 183.128ZM8.33789 182.375C8.66933 182.375 8.94869 182.31 9.17596 182.18C9.4056 182.049 9.57842 181.881 9.69442 181.675C9.8128 181.469 9.87198 181.253 9.87198 181.026V180.259C9.83647 180.301 9.75835 180.34 9.63761 180.376C9.51924 180.409 9.38192 180.438 9.22567 180.464C9.07179 180.488 8.92146 180.509 8.77468 180.528C8.63027 180.545 8.51308 180.559 8.42312 180.571C8.20531 180.599 8.00172 180.646 7.81232 180.71C7.6253 180.771 7.47378 180.865 7.35778 180.99C7.24414 181.113 7.18732 181.281 7.18732 181.494C7.18732 181.786 7.29504 182.006 7.51048 182.155C7.72828 182.302 8.00408 182.375 8.33789 182.375ZM13.0778 179.719V183H12.2397V177.545H13.0494V178.398H13.1204C13.2482 178.121 13.4424 177.898 13.7028 177.73C13.9632 177.56 14.2994 177.474 14.7113 177.474C15.0806 177.474 15.4038 177.55 15.6808 177.702C15.9577 177.851 16.1732 178.078 16.3271 178.384C16.4809 178.687 16.5579 179.07 16.5579 179.534V183H15.7198V179.591C15.7198 179.162 15.6085 178.829 15.386 178.589C15.1635 178.348 14.8581 178.227 14.4698 178.227C14.2023 178.227 13.9632 178.285 13.7525 178.401C13.5442 178.517 13.3796 178.687 13.2589 178.909C13.1381 179.132 13.0778 179.402 13.0778 179.719ZM20.291 185.159C19.8862 185.159 19.5382 185.107 19.247 185.003C18.9558 184.901 18.7131 184.766 18.519 184.598C18.3272 184.432 18.1745 184.255 18.0609 184.065L18.7285 183.597C18.8043 183.696 18.9002 183.81 19.0162 183.938C19.1322 184.068 19.2908 184.18 19.492 184.275C19.6956 184.372 19.9619 184.42 20.291 184.42C20.7314 184.42 21.0948 184.314 21.3812 184.101C21.6677 183.888 21.8109 183.554 21.8109 183.099V181.991H21.7399C21.6783 182.091 21.5907 182.214 21.4771 182.361C21.3658 182.505 21.2048 182.634 20.9941 182.748C20.7858 182.859 20.5041 182.915 20.149 182.915C19.7086 182.915 19.3133 182.811 18.9629 182.602C18.6149 182.394 18.3391 182.091 18.1355 181.693C17.9342 181.295 17.8336 180.812 17.8336 180.244C17.8336 179.686 17.9319 179.199 18.1284 178.785C18.3249 178.368 18.5983 178.046 18.9487 177.819C19.2991 177.589 19.7039 177.474 20.1632 177.474C20.5183 177.474 20.8 177.534 21.0083 177.652C21.219 177.768 21.38 177.901 21.4913 178.05C21.6049 178.196 21.6925 178.317 21.7541 178.412H21.8393V177.545H22.649V183.156C22.649 183.625 22.5424 184.006 22.3294 184.3C22.1187 184.596 21.8346 184.812 21.4771 184.95C21.122 185.089 20.7266 185.159 20.291 185.159ZM20.2626 182.162C20.5988 182.162 20.8829 182.085 21.1149 181.931C21.3469 181.777 21.5233 181.556 21.644 181.267C21.7647 180.978 21.8251 180.633 21.8251 180.23C21.8251 179.837 21.7659 179.49 21.6475 179.19C21.5292 178.889 21.354 178.653 21.122 178.483C20.89 178.312 20.6035 178.227 20.2626 178.227C19.9075 178.227 19.6116 178.317 19.3748 178.497C19.1404 178.677 18.9641 178.919 18.8457 179.222C18.7297 179.525 18.6717 179.861 18.6717 180.23C18.6717 180.609 18.7309 180.944 18.8493 181.235C18.97 181.524 19.1475 181.751 19.3819 181.917C19.6187 182.08 19.9122 182.162 20.2626 182.162ZM27.6206 180.77V177.545H28.4586V183H27.6206V182.077H27.5637C27.4359 182.354 27.237 182.589 26.9672 182.783C26.6973 182.975 26.3564 183.071 25.9444 183.071C25.6035 183.071 25.3005 182.996 25.0353 182.847C24.7702 182.696 24.5618 182.469 24.4103 182.165C24.2588 181.86 24.1831 181.475 24.1831 181.011V177.545H25.0211V180.955C25.0211 181.352 25.1324 181.67 25.3549 181.906C25.5798 182.143 25.8663 182.261 26.2143 182.261C26.4226 182.261 26.6345 182.208 26.85 182.102C27.0678 181.995 27.2501 181.832 27.3968 181.612C27.546 181.391 27.6206 181.111 27.6206 180.77ZM31.5987 183.128C31.2531 183.128 30.9394 183.063 30.6577 182.933C30.3759 182.8 30.1522 182.609 29.9865 182.361C29.8208 182.11 29.7379 181.807 29.7379 181.452C29.7379 181.139 29.7995 180.886 29.9226 180.692C30.0457 180.495 30.2102 180.341 30.4162 180.23C30.6222 180.119 30.8494 180.036 31.098 179.982C31.349 179.925 31.6011 179.88 31.8544 179.847C32.1858 179.804 32.4545 179.772 32.6605 179.751C32.8688 179.727 33.0204 179.688 33.1151 179.634C33.2121 179.579 33.2607 179.484 33.2607 179.349V179.321C33.2607 178.971 33.1648 178.698 32.973 178.504C32.7836 178.31 32.496 178.213 32.1101 178.213C31.71 178.213 31.3963 178.301 31.169 178.476C30.9418 178.651 30.782 178.838 30.6896 179.037L29.8942 178.753C30.0362 178.421 30.2256 178.163 30.4624 177.979C30.7015 177.792 30.9619 177.661 31.2436 177.588C31.5277 177.512 31.8071 177.474 32.0817 177.474C32.2569 177.474 32.4581 177.496 32.6854 177.538C32.915 177.579 33.1364 177.663 33.3494 177.79C33.5649 177.918 33.7436 178.111 33.8857 178.369C34.0277 178.627 34.0987 178.973 34.0987 179.406V183H33.2607V182.261H33.218C33.1612 182.38 33.0665 182.506 32.9339 182.641C32.8014 182.776 32.625 182.891 32.4048 182.986C32.1847 183.08 31.916 183.128 31.5987 183.128ZM31.7266 182.375C32.058 182.375 32.3374 182.31 32.5646 182.18C32.7943 182.049 32.9671 181.881 33.0831 181.675C33.2015 181.469 33.2607 181.253 33.2607 181.026V180.259C33.2251 180.301 33.147 180.34 33.0263 180.376C32.9079 180.409 32.7706 180.438 32.6143 180.464C32.4605 180.488 32.3101 180.509 32.1634 180.528C32.0189 180.545 31.9018 180.559 31.8118 180.571C31.594 180.599 31.3904 180.646 31.201 180.71C31.014 180.771 30.8625 180.865 30.7464 180.99C30.6328 181.113 30.576 181.281 30.576 181.494C30.576 181.786 30.6837 182.006 30.8991 182.155C31.117 182.302 31.3928 182.375 31.7266 182.375ZM37.8301 185.159C37.4252 185.159 37.0772 185.107 36.786 185.003C36.4949 184.901 36.2522 184.766 36.0581 184.598C35.8663 184.432 35.7136 184.255 35.6 184.065L36.2676 183.597C36.3433 183.696 36.4392 183.81 36.5552 183.938C36.6712 184.068 36.8298 184.18 37.0311 184.275C37.2347 184.372 37.501 184.42 37.8301 184.42C38.2704 184.42 38.6338 184.314 38.9203 184.101C39.2067 183.888 39.35 183.554 39.35 183.099V181.991H39.2789C39.2174 182.091 39.1298 182.214 39.0162 182.361C38.9049 182.505 38.7439 182.634 38.5332 182.748C38.3249 182.859 38.0431 182.915 37.688 182.915C37.2477 182.915 36.8523 182.811 36.502 182.602C36.1539 182.394 35.8781 182.091 35.6745 181.693C35.4733 181.295 35.3727 180.812 35.3727 180.244C35.3727 179.686 35.4709 179.199 35.6674 178.785C35.8639 178.368 36.1374 178.046 36.4877 177.819C36.8381 177.589 37.243 177.474 37.7022 177.474C38.0574 177.474 38.3391 177.534 38.5474 177.652C38.7581 177.768 38.9191 177.901 39.0304 178.05C39.144 178.196 39.2316 178.317 39.2931 178.412H39.3784V177.545H40.188V183.156C40.188 183.625 40.0815 184.006 39.8684 184.3C39.6577 184.596 39.3736 184.812 39.0162 184.95C38.661 185.089 38.2657 185.159 37.8301 185.159ZM37.8017 182.162C38.1378 182.162 38.4219 182.085 38.6539 181.931C38.8859 181.777 39.0623 181.556 39.1831 181.267C39.3038 180.978 39.3642 180.633 39.3642 180.23C39.3642 179.837 39.305 179.49 39.1866 179.19C39.0682 178.889 38.8931 178.653 38.661 178.483C38.429 178.312 38.1426 178.227 37.8017 178.227C37.4466 178.227 37.1506 178.317 36.9139 178.497C36.6795 178.677 36.5031 178.919 36.3848 179.222C36.2688 179.525 36.2108 179.861 36.2108 180.23C36.2108 180.609 36.2699 180.944 36.3883 181.235C36.5091 181.524 36.6866 181.751 36.921 181.917C37.1577 182.08 37.4513 182.162 37.8017 182.162ZM44.0091 183.114C43.4835 183.114 43.0301 182.998 42.649 182.766C42.2702 182.531 41.9778 182.205 41.7718 181.786C41.5682 181.364 41.4664 180.874 41.4664 180.315C41.4664 179.757 41.5682 179.264 41.7718 178.838C41.9778 178.41 42.2643 178.076 42.6312 177.837C43.0005 177.595 43.4314 177.474 43.9238 177.474C44.2079 177.474 44.4885 177.522 44.7654 177.616C45.0424 177.711 45.2946 177.865 45.5218 178.078C45.7491 178.289 45.9302 178.568 46.0652 178.916C46.2001 179.264 46.2676 179.693 46.2676 180.202V180.557H42.063V179.832H45.4153C45.4153 179.525 45.3538 179.25 45.2306 179.009C45.1099 178.767 44.9371 178.576 44.7122 178.437C44.4896 178.297 44.2269 178.227 43.9238 178.227C43.59 178.227 43.3012 178.31 43.0574 178.476C42.8159 178.639 42.63 178.852 42.4998 179.115C42.3696 179.378 42.3045 179.66 42.3045 179.96V180.443C42.3045 180.855 42.3755 181.204 42.5176 181.491C42.662 181.775 42.862 181.991 43.1177 182.141C43.3734 182.287 43.6705 182.361 44.0091 182.361C44.2292 182.361 44.4281 182.33 44.6056 182.268C44.7856 182.205 44.9406 182.11 45.0708 181.984C45.2011 181.857 45.3017 181.698 45.3727 181.509L46.1824 181.736C46.0971 182.01 45.9539 182.252 45.7527 182.46C45.5514 182.666 45.3029 182.827 45.0069 182.943C44.711 183.057 44.3784 183.114 44.0091 183.114ZM51.4061 178.767L50.6532 178.98C50.6059 178.855 50.536 178.733 50.4437 178.614C50.3538 178.494 50.2306 178.394 50.0744 178.316C49.9181 178.238 49.7181 178.199 49.4743 178.199C49.1404 178.199 48.8623 178.276 48.6397 178.43C48.4196 178.581 48.3095 178.774 48.3095 179.009C48.3095 179.217 48.3852 179.381 48.5368 179.502C48.6883 179.623 48.925 179.723 49.247 179.804L50.0566 180.003C50.5443 180.121 50.9077 180.302 51.1468 180.546C51.3859 180.788 51.5055 181.099 51.5055 181.48C51.5055 181.793 51.4155 182.072 51.2356 182.318C51.0581 182.564 50.8095 182.759 50.4899 182.901C50.1703 183.043 49.7986 183.114 49.3748 183.114C48.8185 183.114 48.358 182.993 47.9934 182.751C47.6288 182.51 47.398 182.157 47.301 181.693L48.0964 181.494C48.1722 181.788 48.3154 182.008 48.5261 182.155C48.7392 182.302 49.0173 182.375 49.3606 182.375C49.7512 182.375 50.0614 182.292 50.291 182.126C50.523 181.958 50.639 181.757 50.639 181.523C50.639 181.333 50.5727 181.175 50.4402 181.047C50.3076 180.917 50.104 180.82 49.8294 180.756L48.9203 180.543C48.4208 180.424 48.0538 180.241 47.8194 179.992C47.5874 179.741 47.4714 179.428 47.4714 179.051C47.4714 178.743 47.5578 178.471 47.7306 178.234C47.9058 177.998 48.1438 177.812 48.4444 177.677C48.7475 177.542 49.0907 177.474 49.4743 177.474C50.014 177.474 50.4378 177.593 50.7456 177.83C51.0557 178.066 51.2759 178.379 51.4061 178.767Z" fill="#323130"/>
<path d="M0.727095 96.5085V95.7273H6.18164V96.5085H3.89471V103H3.01403V96.5085H0.727095ZM8.92312 103.114C8.39755 103.114 7.94419 102.998 7.56303 102.766C7.18424 102.531 6.89187 102.205 6.6859 101.786C6.4823 101.364 6.3805 100.874 6.3805 100.315C6.3805 99.7566 6.4823 99.2642 6.6859 98.8381C6.89187 98.4096 7.17833 98.0758 7.54528 97.8366C7.9146 97.5952 8.34547 97.4744 8.83789 97.4744C9.12198 97.4744 9.40252 97.5218 9.67951 97.6165C9.9565 97.7112 10.2086 97.8651 10.4359 98.0781C10.6632 98.2888 10.8443 98.5682 10.9792 98.9162C11.1142 99.2642 11.1816 99.6927 11.1816 100.202V100.557H6.9771V99.8324H10.3294C10.3294 99.5246 10.2678 99.25 10.1447 99.0085C10.024 98.767 9.85115 98.5765 9.62624 98.4368C9.40371 98.2971 9.14092 98.2273 8.83789 98.2273C8.50408 98.2273 8.21526 98.3101 7.97141 98.4759C7.72994 98.6392 7.54409 98.8523 7.41388 99.1151C7.28368 99.3778 7.21857 99.6596 7.21857 99.9602V100.443C7.21857 100.855 7.2896 101.204 7.43164 101.491C7.57605 101.775 7.7761 101.991 8.03178 102.141C8.28746 102.287 8.58458 102.361 8.92312 102.361C9.14329 102.361 9.34215 102.33 9.51971 102.268C9.69963 102.205 9.8547 102.11 9.98491 101.984C10.1151 101.857 10.2157 101.698 10.2868 101.509L11.0964 101.736C11.0112 102.01 10.868 102.252 10.6667 102.46C10.4655 102.666 10.2169 102.827 9.92099 102.943C9.62506 103.057 9.29244 103.114 8.92312 103.114ZM14.6724 103.114C14.161 103.114 13.7207 102.993 13.3514 102.751C12.9821 102.51 12.698 102.177 12.4991 101.754C12.3002 101.33 12.2008 100.846 12.2008 100.301C12.2008 99.7472 12.3026 99.2583 12.5062 98.8345C12.7122 98.4084 12.9986 98.0758 13.3656 97.8366C13.7349 97.5952 14.1658 97.4744 14.6582 97.4744C15.0417 97.4744 15.3874 97.5455 15.6951 97.6875C16.0029 97.8295 16.255 98.0284 16.4515 98.2841C16.648 98.5398 16.7699 98.8381 16.8173 99.179H15.9792C15.9153 98.9304 15.7733 98.7102 15.5531 98.5185C15.3353 98.3243 15.0417 98.2273 14.6724 98.2273C14.3457 98.2273 14.0592 98.3125 13.813 98.483C13.5692 98.651 13.3786 98.889 13.2413 99.1967C13.1064 99.5021 13.0389 99.8608 13.0389 100.273C13.0389 100.694 13.1052 101.061 13.2377 101.374C13.3727 101.686 13.5621 101.929 13.8059 102.102C14.0521 102.274 14.341 102.361 14.6724 102.361C14.8902 102.361 15.0879 102.323 15.2654 102.247C15.443 102.171 15.5933 102.062 15.7164 101.92C15.8395 101.778 15.9271 101.608 15.9792 101.409H16.8173C16.7699 101.731 16.6528 102.021 16.4657 102.279C16.2811 102.535 16.036 102.738 15.7306 102.89C15.4276 103.039 15.0749 103.114 14.6724 103.114ZM18.8805 99.7188V103H18.0424V95.7273H18.8805V98.3977H18.9515C19.0794 98.116 19.2711 97.8923 19.5268 97.7266C19.7849 97.5585 20.1281 97.4744 20.5566 97.4744C20.9283 97.4744 21.2538 97.549 21.5332 97.6982C21.8126 97.8449 22.0292 98.071 22.1831 98.3764C22.3393 98.6795 22.4174 99.0653 22.4174 99.5341V103H21.5794V99.5909C21.5794 99.1577 21.4669 98.8227 21.242 98.5859C21.0195 98.3468 20.7105 98.2273 20.3152 98.2273C20.0405 98.2273 19.7943 98.2853 19.5765 98.4013C19.3611 98.5173 19.1906 98.6866 19.0652 98.9091C18.9421 99.1316 18.8805 99.4015 18.8805 99.7188ZM24.7887 99.7188V103H23.9506V97.5455H24.7603V98.3977H24.8313C24.9592 98.1207 25.1533 97.8982 25.4137 97.7301C25.6741 97.5597 26.0103 97.4744 26.4222 97.4744C26.7915 97.4744 27.1147 97.5502 27.3917 97.7017C27.6687 97.8509 27.8841 98.0781 28.038 98.3835C28.1919 98.6866 28.2688 99.0701 28.2688 99.5341V103H27.4308V99.5909C27.4308 99.1624 27.3195 98.8286 27.0969 98.5895C26.8744 98.348 26.569 98.2273 26.1808 98.2273C25.9132 98.2273 25.6741 98.2853 25.4634 98.4013C25.2551 98.5173 25.0906 98.6866 24.9698 98.9091C24.8491 99.1316 24.7887 99.4015 24.7887 99.7188ZM29.8002 103V97.5455H30.6383V103H29.8002ZM30.2264 96.6364C30.063 96.6364 29.9222 96.5807 29.8038 96.4695C29.6878 96.3582 29.6298 96.2244 29.6298 96.0682C29.6298 95.9119 29.6878 95.7782 29.8038 95.6669C29.9222 95.5556 30.063 95.5 30.2264 95.5C30.3897 95.5 30.5294 95.5556 30.6454 95.6669C30.7638 95.7782 30.823 95.9119 30.823 96.0682C30.823 96.2244 30.7638 96.3582 30.6454 96.4695C30.5294 96.5807 30.3897 96.6364 30.2264 96.6364ZM34.3892 103.114C33.8778 103.114 33.4375 102.993 33.0682 102.751C32.6989 102.51 32.4148 102.177 32.2159 101.754C32.017 101.33 31.9176 100.846 31.9176 100.301C31.9176 99.7472 32.0194 99.2583 32.223 98.8345C32.429 98.4084 32.7154 98.0758 33.0824 97.8366C33.4517 97.5952 33.8826 97.4744 34.375 97.4744C34.7585 97.4744 35.1042 97.5455 35.4119 97.6875C35.7197 97.8295 35.9718 98.0284 36.1683 98.2841C36.3648 98.5398 36.4867 98.8381 36.5341 99.179H35.696C35.6321 98.9304 35.4901 98.7102 35.2699 98.5185C35.0521 98.3243 34.7585 98.2273 34.3892 98.2273C34.0625 98.2273 33.776 98.3125 33.5298 98.483C33.286 98.651 33.0954 98.889 32.9581 99.1967C32.8232 99.5021 32.7557 99.8608 32.7557 100.273C32.7557 100.694 32.822 101.061 32.9545 101.374C33.0895 101.686 33.2789 101.929 33.5227 102.102C33.7689 102.274 34.0578 102.361 34.3892 102.361C34.607 102.361 34.8047 102.323 34.9822 102.247C35.1598 102.171 35.3101 102.062 35.4332 101.92C35.5563 101.778 35.6439 101.608 35.696 101.409H36.5341C36.4867 101.731 36.3696 102.021 36.1825 102.279C35.9979 102.535 35.7528 102.738 35.4474 102.89C35.1444 103.039 34.7917 103.114 34.3892 103.114ZM39.3643 103.128C39.0187 103.128 38.705 103.063 38.4233 102.933C38.1416 102.8 37.9179 102.609 37.7521 102.361C37.5864 102.11 37.5036 101.807 37.5036 101.452C37.5036 101.139 37.5651 100.886 37.6882 100.692C37.8113 100.495 37.9759 100.341 38.1818 100.23C38.3878 100.119 38.6151 100.036 38.8636 99.9815C39.1146 99.9247 39.3667 99.8797 39.62 99.8466C39.9515 99.804 40.2202 99.772 40.4261 99.7507C40.6345 99.727 40.786 99.688 40.8807 99.6335C40.9777 99.5791 41.0263 99.4844 41.0263 99.3494V99.321C41.0263 98.9706 40.9304 98.6984 40.7386 98.5043C40.5492 98.3101 40.2616 98.2131 39.8757 98.2131C39.4756 98.2131 39.1619 98.3007 38.9347 98.4759C38.7074 98.651 38.5476 98.8381 38.4553 99.0369L37.6598 98.7528C37.8018 98.4214 37.9912 98.1634 38.228 97.9787C38.4671 97.7917 38.7275 97.6615 39.0092 97.5881C39.2933 97.5123 39.5727 97.4744 39.8473 97.4744C40.0225 97.4744 40.2237 97.4957 40.451 97.5384C40.6806 97.5786 40.902 97.6626 41.1151 97.7905C41.3305 97.9183 41.5092 98.1113 41.6513 98.3693C41.7933 98.6274 41.8643 98.973 41.8643 99.4062V103H41.0263V102.261H40.9837C40.9268 102.38 40.8321 102.506 40.6996 102.641C40.567 102.776 40.3906 102.891 40.1705 102.986C39.9503 103.08 39.6816 103.128 39.3643 103.128ZM39.4922 102.375C39.8236 102.375 40.103 102.31 40.3303 102.18C40.5599 102.049 40.7327 101.881 40.8487 101.675C40.9671 101.469 41.0263 101.253 41.0263 101.026V100.259C40.9908 100.301 40.9126 100.34 40.7919 100.376C40.6735 100.409 40.5362 100.438 40.38 100.464C40.2261 100.488 40.0758 100.509 39.929 100.528C39.7846 100.545 39.6674 100.559 39.5774 100.571C39.3596 100.599 39.156 100.646 38.9666 100.71C38.7796 100.771 38.6281 100.865 38.5121 100.99C38.3984 101.113 38.3416 101.281 38.3416 101.494C38.3416 101.786 38.4493 102.006 38.6648 102.155C38.8826 102.302 39.1584 102.375 39.4922 102.375ZM44.2321 95.7273V103H43.394V95.7273H44.2321Z" fill="#323130"/>
<path d="M104.644 61H103.721L106.391 53.7273H107.3L109.971 61H109.047L106.874 54.8778H106.817L104.644 61ZM104.985 58.1591H108.706V58.9403H104.985V58.1591ZM114.766 55.5455L112.749 61H111.897L109.88 55.5455H110.789L112.295 59.892H112.352L113.857 55.5455H114.766ZM117.964 61.1136C117.439 61.1136 116.985 60.9976 116.604 60.7656C116.225 60.5312 115.933 60.2045 115.727 59.7855C115.523 59.3641 115.422 58.8741 115.422 58.3153C115.422 57.7566 115.523 57.2642 115.727 56.8381C115.933 56.4096 116.219 56.0758 116.586 55.8366C116.956 55.5952 117.386 55.4744 117.879 55.4744C118.163 55.4744 118.444 55.5218 118.721 55.6165C118.998 55.7112 119.25 55.8651 119.477 56.0781C119.704 56.2888 119.885 56.5682 120.02 56.9162C120.155 57.2642 120.223 57.6927 120.223 58.2017V58.5568H116.018V57.8324H119.37C119.37 57.5246 119.309 57.25 119.186 57.0085C119.065 56.767 118.892 56.5765 118.667 56.4368C118.445 56.2971 118.182 56.2273 117.879 56.2273C117.545 56.2273 117.256 56.3101 117.012 56.4759C116.771 56.6392 116.585 56.8523 116.455 57.1151C116.325 57.3778 116.26 57.6596 116.26 57.9602V58.4432C116.26 58.8551 116.331 59.2043 116.473 59.4908C116.617 59.7749 116.817 59.9915 117.073 60.1406C117.328 60.2874 117.626 60.3608 117.964 60.3608C118.184 60.3608 118.383 60.33 118.561 60.2685C118.741 60.2045 118.896 60.1098 119.026 59.9844C119.156 59.8565 119.257 59.6979 119.328 59.5085L120.137 59.7358C120.052 60.0104 119.909 60.2519 119.708 60.4602C119.507 60.6662 119.258 60.8272 118.962 60.9432C118.666 61.0568 118.333 61.1136 117.964 61.1136ZM121.498 61V55.5455H122.307V56.3693H122.364C122.463 56.0994 122.643 55.8804 122.904 55.7124C123.164 55.5443 123.458 55.4602 123.784 55.4602C123.846 55.4602 123.923 55.4614 124.015 55.4638C124.108 55.4661 124.177 55.4697 124.225 55.4744V56.3267C124.196 56.3196 124.131 56.3089 124.029 56.2947C123.93 56.2782 123.825 56.2699 123.713 56.2699C123.448 56.2699 123.212 56.3255 123.003 56.4368C122.797 56.5457 122.634 56.6972 122.513 56.8913C122.395 57.0831 122.336 57.3021 122.336 57.5483V61H121.498ZM126.823 61.1278C126.478 61.1278 126.164 61.0627 125.882 60.9325C125.601 60.8 125.377 60.6094 125.211 60.3608C125.045 60.1098 124.963 59.8068 124.963 59.4517C124.963 59.1392 125.024 58.8859 125.147 58.6918C125.27 58.4953 125.435 58.3414 125.641 58.2301C125.847 58.1188 126.074 58.036 126.323 57.9815C126.574 57.9247 126.826 57.8797 127.079 57.8466C127.41 57.804 127.679 57.772 127.885 57.7507C128.093 57.727 128.245 57.688 128.34 57.6335C128.437 57.5791 128.485 57.4844 128.485 57.3494V57.321C128.485 56.9706 128.389 56.6984 128.198 56.5043C128.008 56.3101 127.721 56.2131 127.335 56.2131C126.935 56.2131 126.621 56.3007 126.394 56.4759C126.166 56.651 126.007 56.8381 125.914 57.0369L125.119 56.7528C125.261 56.4214 125.45 56.1634 125.687 55.9787C125.926 55.7917 126.186 55.6615 126.468 55.5881C126.752 55.5123 127.032 55.4744 127.306 55.4744C127.481 55.4744 127.683 55.4957 127.91 55.5384C128.14 55.5786 128.361 55.6626 128.574 55.7905C128.789 55.9183 128.968 56.1113 129.11 56.3693C129.252 56.6274 129.323 56.973 129.323 57.4062V61H128.485V60.2614H128.443C128.386 60.3797 128.291 60.5064 128.159 60.6413C128.026 60.7763 127.85 60.8911 127.629 60.9858C127.409 61.0805 127.141 61.1278 126.823 61.1278ZM126.951 60.375C127.283 60.375 127.562 60.3099 127.789 60.1797C128.019 60.0495 128.192 59.8814 128.308 59.6754C128.426 59.4695 128.485 59.2528 128.485 59.0256V58.2585C128.45 58.3011 128.372 58.3402 128.251 58.3757C128.133 58.4089 127.995 58.4384 127.839 58.4645C127.685 58.4882 127.535 58.5095 127.388 58.5284C127.244 58.545 127.126 58.5592 127.036 58.571C126.819 58.5994 126.615 58.6456 126.426 58.7095C126.239 58.7711 126.087 58.8646 125.971 58.9901C125.857 59.1132 125.801 59.2812 125.801 59.4943C125.801 59.7855 125.908 60.0057 126.124 60.1548C126.342 60.3016 126.617 60.375 126.951 60.375ZM133.055 63.1591C132.65 63.1591 132.302 63.107 132.011 63.0028C131.719 62.901 131.477 62.7661 131.283 62.598C131.091 62.4323 130.938 62.2547 130.825 62.0653L131.492 61.5966C131.568 61.696 131.664 61.8097 131.78 61.9375C131.896 62.0677 132.054 62.1802 132.256 62.2749C132.459 62.3719 132.726 62.4205 133.055 62.4205C133.495 62.4205 133.858 62.3139 134.145 62.1009C134.431 61.8878 134.575 61.554 134.575 61.0994V59.9915H134.504C134.442 60.0909 134.354 60.214 134.241 60.3608C134.129 60.5052 133.969 60.6342 133.758 60.7479C133.549 60.8591 133.268 60.9148 132.913 60.9148C132.472 60.9148 132.077 60.8106 131.727 60.6023C131.379 60.3939 131.103 60.0909 130.899 59.6932C130.698 59.2955 130.597 58.8125 130.597 58.2443C130.597 57.6856 130.696 57.1991 130.892 56.7848C131.089 56.3681 131.362 56.0462 131.712 55.8189C132.063 55.5893 132.468 55.4744 132.927 55.4744C133.282 55.4744 133.564 55.5336 133.772 55.652C133.983 55.768 134.144 55.9006 134.255 56.0497C134.369 56.1965 134.456 56.3172 134.518 56.4119H134.603V55.5455H135.413V61.1562C135.413 61.625 135.306 62.0062 135.093 62.2997C134.882 62.5956 134.598 62.8123 134.241 62.9496C133.886 63.0893 133.49 63.1591 133.055 63.1591ZM133.026 60.1619C133.362 60.1619 133.647 60.085 133.879 59.9311C134.111 59.7772 134.287 59.5559 134.408 59.267C134.528 58.9782 134.589 58.6326 134.589 58.2301C134.589 57.8371 134.53 57.4903 134.411 57.1896C134.293 56.889 134.118 56.6534 133.886 56.483C133.654 56.3125 133.367 56.2273 133.026 56.2273C132.671 56.2273 132.375 56.3172 132.138 56.4972C131.904 56.6771 131.728 56.9186 131.609 57.2216C131.493 57.5246 131.435 57.8608 131.435 58.2301C131.435 58.6089 131.495 58.9439 131.613 59.2351C131.734 59.5239 131.911 59.7512 132.146 59.9169C132.382 60.0803 132.676 60.1619 133.026 60.1619ZM139.234 61.1136C138.708 61.1136 138.255 60.9976 137.874 60.7656C137.495 60.5312 137.202 60.2045 136.996 59.7855C136.793 59.3641 136.691 58.8741 136.691 58.3153C136.691 57.7566 136.793 57.2642 136.996 56.8381C137.202 56.4096 137.489 56.0758 137.856 55.8366C138.225 55.5952 138.656 55.4744 139.148 55.4744C139.433 55.4744 139.713 55.5218 139.99 55.6165C140.267 55.7112 140.519 55.8651 140.746 56.0781C140.974 56.2888 141.155 56.5682 141.29 56.9162C141.425 57.2642 141.492 57.6927 141.492 58.2017V58.5568H137.288V57.8324H140.64C140.64 57.5246 140.578 57.25 140.455 57.0085C140.335 56.767 140.162 56.5765 139.937 56.4368C139.714 56.2971 139.451 56.2273 139.148 56.2273C138.815 56.2273 138.526 56.3101 138.282 56.4759C138.04 56.6392 137.855 56.8523 137.724 57.1151C137.594 57.3778 137.529 57.6596 137.529 57.9602V58.4432C137.529 58.8551 137.6 59.2043 137.742 59.4908C137.887 59.7749 138.087 59.9915 138.342 60.1406C138.598 60.2874 138.895 60.3608 139.234 60.3608C139.454 60.3608 139.653 60.33 139.83 60.2685C140.01 60.2045 140.165 60.1098 140.295 59.9844C140.426 59.8565 140.526 59.6979 140.597 59.5085L141.407 59.7358C141.322 60.0104 141.179 60.2519 140.977 60.4602C140.776 60.6662 140.527 60.8272 140.232 60.9432C139.936 61.0568 139.603 61.1136 139.234 61.1136Z" fill="#323130"/>
</svg>
