<svg width="16" height="16" viewBox="0 0 16 16" fill="none" xmlns="http://www.w3.org/2000/svg">
<path d="M7.99967 15.1663C4.04634 15.1663 0.833008 11.953 0.833008 7.99967C0.833008 4.04634 4.04634 0.833008 7.99967 0.833008C11.953 0.833008 15.1663 4.04634 15.1663 7.99967C15.1663 11.953 11.953 15.1663 7.99967 15.1663ZM7.99967 1.83301C4.59967 1.83301 1.83301 4.59967 1.83301 7.99967C1.83301 11.3997 4.59967 14.1663 7.99967 14.1663C11.3997 14.1663 14.1663 11.3997 14.1663 7.99967C14.1663 4.59967 11.3997 1.83301 7.99967 1.83301Z" fill="#C8C6C4"/>
<path d="M10.4731 10.6202C10.3864 10.6202 10.2998 10.6002 10.2198 10.5468L8.1531 9.3135C7.63977 9.00684 7.25977 8.3335 7.25977 7.74017V5.00684C7.25977 4.7335 7.48643 4.50684 7.75977 4.50684C8.0331 4.50684 8.25977 4.7335 8.25977 5.00684V7.74017C8.25977 7.98017 8.45977 8.3335 8.66643 8.4535L10.7331 9.68684C10.9731 9.82684 11.0464 10.1335 10.9064 10.3735C10.8064 10.5335 10.6398 10.6202 10.4731 10.6202Z" fill="#C8C6C4"/>
</svg>
