<svg width="16" height="16" viewBox="0 0 16 16" fill="none" xmlns="http://www.w3.org/2000/svg">
<g clip-path="url(#clip0_532_11499)">
<path d="M1.77778 2.22266C1.30628 2.22266 0.854097 2.40996 0.520699 2.74336C0.187301 3.07675 0 3.52894 0 4.00043L0 12.0004C0 12.4719 0.187301 12.9241 0.520699 13.2575C0.854097 13.5909 1.30628 13.7782 1.77778 13.7782H5.33333V2.22266H1.77778Z" fill="#009A49"/>
<path d="M5.33301 2.22266H10.6663V13.7782H5.33301V2.22266Z" fill="#EEEEEE"/>
<path d="M14.2225 2.22266H10.667V13.7782H14.2225C14.694 13.7782 15.1462 13.5909 15.4796 13.2575C15.813 12.9241 16.0003 12.4719 16.0003 12.0004V4.00043C16.0003 3.52894 15.813 3.07675 15.4796 2.74336C15.1462 2.40996 14.694 2.22266 14.2225 2.22266Z" fill="#009A49"/>
</g>
<defs>
<clipPath id="clip0_532_11499">
<rect width="16" height="16" fill="white"/>
</clipPath>
</defs>
</svg>
