<svg width="374" height="302" viewBox="0 0 374 302" fill="none" xmlns="http://www.w3.org/2000/svg">
<path opacity="0.2" d="M68.693 107.144L171.5 47.7887L274.307 107.144V225.856L171.5 285.211L68.693 225.856V107.144Z" stroke="#323130" stroke-width="0.5"/>
<path opacity="0.2" d="M88.6116 118.644L171.5 70.7887L254.388 118.644V214.356L171.5 262.211L88.6116 214.356V118.644Z" stroke="#323130" stroke-width="0.5"/>
<path opacity="0.2" d="M106.798 129.144L171.5 91.7887L236.202 129.144V203.856L171.5 241.211L106.798 203.856V129.144Z" stroke="#323130" stroke-width="0.5"/>
<path opacity="0.2" d="M126.717 140.644L171.5 114.789L216.283 140.644V192.356L171.5 218.211L126.717 192.356V140.644Z" stroke="#323130" stroke-width="0.5"/>
<line opacity="0.2" x1="171.75" y1="47.5" x2="171.75" y2="285.5" stroke="#323130" stroke-width="0.5"/>
<line opacity="0.2" x1="68.3753" y1="225.283" x2="273.375" y2="107.283" stroke="#323130" stroke-width="0.5"/>
<line opacity="0.2" x1="68.6247" y1="107.283" x2="273.625" y2="225.283" stroke="#323130" stroke-width="0.5"/>
<path d="M172 118L119 138L107 203L172 192.5L235.5 203L254 118H172Z" fill="#5FD255" fill-opacity="0.2" stroke="#107C10"/>
<rect width="135" height="24" transform="translate(238.5 0.5)" fill="#FAF9F8"/>
<path d="M252.602 12.4091C252.602 13.5062 252.397 14.4458 251.986 15.228C251.578 16.0069 251.021 16.6035 250.315 17.0178C249.613 17.4321 248.816 17.6392 247.924 17.6392C247.032 17.6392 246.234 17.4321 245.528 17.0178C244.825 16.6001 244.268 16.0019 243.857 15.223C243.45 14.4408 243.246 13.5028 243.246 12.4091C243.246 11.312 243.45 10.3741 243.857 9.59517C244.268 8.81297 244.825 8.21473 245.528 7.80043C246.234 7.38613 247.032 7.17898 247.924 7.17898C248.816 7.17898 249.613 7.38613 250.315 7.80043C251.021 8.21473 251.578 8.81297 251.986 9.59517C252.397 10.3741 252.602 11.312 252.602 12.4091ZM250.748 12.4091C250.748 11.6368 250.627 10.9856 250.385 10.4553C250.146 9.92164 249.815 9.51894 249.391 9.24716C248.966 8.97206 248.478 8.83452 247.924 8.83452C247.371 8.83452 246.882 8.97206 246.457 9.24716C246.033 9.51894 245.7 9.92164 245.458 10.4553C245.219 10.9856 245.1 11.6368 245.1 12.4091C245.1 13.1813 245.219 13.8343 245.458 14.3679C245.7 14.8982 246.033 15.3009 246.457 15.576C246.882 15.8478 247.371 15.9837 247.924 15.9837C248.478 15.9837 248.966 15.8478 249.391 15.576C249.815 15.3009 250.146 14.8982 250.385 14.3679C250.627 13.8343 250.748 13.1813 250.748 12.4091ZM261.088 9.86364L258.368 17.5H256.379L253.66 9.86364H255.579L257.334 15.5362H257.414L259.173 9.86364H261.088ZM265.454 17.6491C264.688 17.6491 264.027 17.4901 263.47 17.1719C262.917 16.8504 262.491 16.3963 262.192 15.8097C261.894 15.2197 261.745 14.5253 261.745 13.7266C261.745 12.9411 261.894 12.2517 262.192 11.6584C262.494 11.0618 262.915 10.5978 263.455 10.2663C263.996 9.93158 264.63 9.7642 265.359 9.7642C265.83 9.7642 266.274 9.84044 266.692 9.9929C267.113 10.142 267.484 10.3741 267.805 10.6889C268.13 11.0038 268.385 11.4048 268.571 11.892C268.757 12.3759 268.849 12.9527 268.849 13.6222V14.174H262.59V12.9609H267.124C267.121 12.6162 267.046 12.3097 266.901 12.0412C266.755 11.7694 266.551 11.5556 266.289 11.3999C266.031 11.2441 265.729 11.1662 265.384 11.1662C265.016 11.1662 264.693 11.2557 264.415 11.4347C264.136 11.6103 263.919 11.8423 263.763 12.1307C263.611 12.4157 263.533 12.7289 263.53 13.0703V14.1293C263.53 14.5734 263.611 14.9545 263.773 15.2727C263.936 15.5876 264.163 15.8295 264.455 15.9986C264.746 16.1643 265.088 16.2472 265.479 16.2472C265.741 16.2472 265.978 16.2107 266.19 16.1378C266.402 16.0616 266.586 15.9505 266.741 15.8047C266.897 15.6589 267.015 15.4782 267.094 15.2628L268.775 15.4517C268.669 15.8958 268.467 16.2836 268.168 16.6151C267.873 16.9432 267.496 17.1984 267.035 17.3807C266.574 17.5597 266.047 17.6491 265.454 17.6491ZM270.372 17.5V9.86364H272.117V11.1364H272.197C272.336 10.6955 272.574 10.3558 272.912 10.1172C273.254 9.87524 273.643 9.75426 274.081 9.75426C274.18 9.75426 274.291 9.75923 274.414 9.76918C274.54 9.7758 274.644 9.7874 274.727 9.80398V11.4595C274.651 11.433 274.53 11.4098 274.364 11.3899C274.202 11.3667 274.044 11.3551 273.892 11.3551C273.564 11.3551 273.269 11.4264 273.007 11.5689C272.748 11.7081 272.545 11.902 272.395 12.1506C272.246 12.3991 272.172 12.6858 272.172 13.0107V17.5H270.372ZM277.983 17.6541C277.5 17.6541 277.064 17.5679 276.676 17.3956C276.291 17.2199 275.987 16.9614 275.761 16.62C275.539 16.2786 275.428 15.8577 275.428 15.3572C275.428 14.9264 275.508 14.5701 275.667 14.2884C275.826 14.0066 276.043 13.7812 276.318 13.6122C276.593 13.4432 276.903 13.3156 277.248 13.2294C277.596 13.1399 277.955 13.0753 278.327 13.0355C278.774 12.9891 279.137 12.9477 279.415 12.9112C279.694 12.8714 279.896 12.8118 280.022 12.7322C280.151 12.6494 280.216 12.5218 280.216 12.3494V12.3196C280.216 11.9451 280.105 11.6551 279.883 11.4496C279.661 11.2441 279.341 11.1413 278.923 11.1413C278.482 11.1413 278.133 11.2375 277.874 11.4297C277.619 11.6219 277.447 11.849 277.357 12.1108L275.677 11.8722C275.809 11.4081 276.028 11.0204 276.333 10.7088C276.638 10.3939 277.011 10.1586 277.452 10.0028C277.892 9.84375 278.38 9.7642 278.913 9.7642C279.281 9.7642 279.647 9.80729 280.012 9.89347C280.376 9.97964 280.71 10.1222 281.011 10.321C281.313 10.5166 281.555 10.7834 281.737 11.1214C281.923 11.4595 282.015 11.8821 282.015 12.3892V17.5H280.285V16.451H280.226C280.116 16.6631 279.962 16.862 279.763 17.0476C279.568 17.2299 279.321 17.3774 279.023 17.4901C278.728 17.5994 278.381 17.6541 277.983 17.6541ZM278.451 16.3317C278.812 16.3317 279.125 16.2604 279.39 16.1179C279.656 15.9721 279.859 15.7798 280.002 15.5412C280.148 15.3026 280.221 15.0424 280.221 14.7607V13.8608C280.164 13.9072 280.068 13.9503 279.932 13.9901C279.8 14.0298 279.651 14.0646 279.485 14.0945C279.319 14.1243 279.155 14.1508 278.993 14.174C278.83 14.1972 278.689 14.2171 278.57 14.2337C278.302 14.2701 278.061 14.3298 277.849 14.4126C277.637 14.4955 277.47 14.6115 277.347 14.7607C277.224 14.9065 277.163 15.0954 277.163 15.3274C277.163 15.6589 277.284 15.9091 277.526 16.0781C277.768 16.2472 278.076 16.3317 278.451 16.3317ZM285.625 7.31818V17.5H283.825V7.31818H285.625ZM289.275 7.31818V17.5H287.475V7.31818H289.275Z" fill="#323130"/>
<path d="M363.5 15.5L357.5 9.5H369.5L363.5 15.5Z" fill="#2667FF"/>
<path d="M283.728 100.5H282.847C282.795 100.247 282.704 100.024 282.574 99.8324C282.446 99.6406 282.29 99.4796 282.105 99.3494C281.923 99.2169 281.72 99.1174 281.498 99.0511C281.275 98.9848 281.043 98.9517 280.802 98.9517C280.362 98.9517 279.963 99.063 279.605 99.2855C279.25 99.508 278.967 99.8359 278.756 100.269C278.548 100.702 278.444 101.234 278.444 101.864C278.444 102.493 278.548 103.025 278.756 103.458C278.967 103.891 279.25 104.219 279.605 104.442C279.963 104.664 280.362 104.776 280.802 104.776C281.043 104.776 281.275 104.742 281.498 104.676C281.72 104.61 281.923 104.512 282.105 104.381C282.29 104.249 282.446 104.087 282.574 103.895C282.704 103.701 282.795 103.478 282.847 103.227H283.728C283.662 103.599 283.541 103.932 283.366 104.225C283.191 104.519 282.973 104.768 282.712 104.974C282.452 105.178 282.16 105.333 281.835 105.44C281.513 105.546 281.169 105.599 280.802 105.599C280.182 105.599 279.63 105.448 279.147 105.145C278.664 104.842 278.284 104.411 278.007 103.852C277.73 103.294 277.592 102.631 277.592 101.864C277.592 101.097 277.73 100.434 278.007 99.875C278.284 99.3163 278.664 98.8854 279.147 98.5824C279.63 98.2794 280.182 98.1278 280.802 98.1278C281.169 98.1278 281.513 98.1811 281.835 98.2876C282.16 98.3942 282.452 98.5504 282.712 98.7564C282.973 98.96 283.191 99.2086 283.366 99.5021C283.541 99.7933 283.662 100.126 283.728 100.5ZM287.253 105.614C286.761 105.614 286.329 105.496 285.957 105.262C285.588 105.028 285.299 104.7 285.091 104.278C284.885 103.857 284.782 103.365 284.782 102.801C284.782 102.233 284.885 101.737 285.091 101.313C285.299 100.889 285.588 100.56 285.957 100.326C286.329 100.092 286.761 99.9744 287.253 99.9744C287.746 99.9744 288.177 100.092 288.546 100.326C288.918 100.56 289.207 100.889 289.413 101.313C289.621 101.737 289.725 102.233 289.725 102.801C289.725 103.365 289.621 103.857 289.413 104.278C289.207 104.7 288.918 105.028 288.546 105.262C288.177 105.496 287.746 105.614 287.253 105.614ZM287.253 104.861C287.628 104.861 287.935 104.765 288.177 104.573C288.418 104.381 288.597 104.129 288.713 103.817C288.829 103.504 288.887 103.166 288.887 102.801C288.887 102.437 288.829 102.097 288.713 101.782C288.597 101.467 288.418 101.213 288.177 101.018C287.935 100.824 287.628 100.727 287.253 100.727C286.879 100.727 286.572 100.824 286.33 101.018C286.089 101.213 285.91 101.467 285.794 101.782C285.678 102.097 285.62 102.437 285.62 102.801C285.62 103.166 285.678 103.504 285.794 103.817C285.91 104.129 286.089 104.381 286.33 104.573C286.572 104.765 286.879 104.861 287.253 104.861ZM291.004 105.5V100.045H291.814V100.898H291.885C291.999 100.607 292.182 100.38 292.435 100.219C292.689 100.056 292.993 99.9744 293.348 99.9744C293.708 99.9744 294.007 100.056 294.247 100.219C294.488 100.38 294.676 100.607 294.811 100.898H294.868C295.008 100.616 295.217 100.392 295.497 100.227C295.776 100.058 296.111 99.9744 296.502 99.9744C296.989 99.9744 297.388 100.127 297.698 100.433C298.008 100.736 298.163 101.208 298.163 101.849V105.5H297.325V101.849C297.325 101.447 297.215 101.159 296.995 100.987C296.775 100.814 296.516 100.727 296.217 100.727C295.834 100.727 295.537 100.843 295.326 101.075C295.115 101.305 295.01 101.596 295.01 101.949V105.5H294.158V101.764C294.158 101.454 294.057 101.204 293.856 101.015C293.655 100.823 293.395 100.727 293.078 100.727C292.86 100.727 292.657 100.785 292.467 100.901C292.28 101.017 292.129 101.178 292.013 101.384C291.899 101.588 291.842 101.823 291.842 102.091V105.5H291.004ZM303.133 103.27V100.045H303.971V105.5H303.133V104.577H303.076C302.949 104.854 302.75 105.089 302.48 105.283C302.21 105.475 301.869 105.571 301.457 105.571C301.116 105.571 300.813 105.496 300.548 105.347C300.283 105.196 300.075 104.969 299.923 104.665C299.772 104.36 299.696 103.975 299.696 103.511V100.045H300.534V103.455C300.534 103.852 300.645 104.17 300.868 104.406C301.093 104.643 301.379 104.761 301.727 104.761C301.935 104.761 302.147 104.708 302.363 104.602C302.58 104.495 302.763 104.332 302.91 104.112C303.059 103.891 303.133 103.611 303.133 103.27ZM306.344 102.219V105.5H305.506V100.045H306.316V100.898H306.387C306.515 100.621 306.709 100.398 306.969 100.23C307.23 100.06 307.566 99.9744 307.978 99.9744C308.347 99.9744 308.67 100.05 308.947 100.202C309.224 100.351 309.44 100.578 309.594 100.884C309.748 101.187 309.824 101.57 309.824 102.034V105.5H308.986V102.091C308.986 101.662 308.875 101.329 308.653 101.089C308.43 100.848 308.125 100.727 307.736 100.727C307.469 100.727 307.23 100.785 307.019 100.901C306.811 101.017 306.646 101.187 306.525 101.409C306.405 101.632 306.344 101.902 306.344 102.219ZM311.356 105.5V100.045H312.194V105.5H311.356ZM311.782 99.1364C311.619 99.1364 311.478 99.0807 311.359 98.9695C311.243 98.8582 311.185 98.7244 311.185 98.5682C311.185 98.4119 311.243 98.2782 311.359 98.1669C311.478 98.0556 311.619 98 311.782 98C311.945 98 312.085 98.0556 312.201 98.1669C312.319 98.2782 312.379 98.4119 312.379 98.5682C312.379 98.7244 312.319 98.8582 312.201 98.9695C312.085 99.0807 311.945 99.1364 311.782 99.1364ZM315.945 105.614C315.434 105.614 314.993 105.493 314.624 105.251C314.255 105.01 313.97 104.677 313.772 104.254C313.573 103.83 313.473 103.346 313.473 102.801C313.473 102.247 313.575 101.758 313.779 101.335C313.985 100.908 314.271 100.576 314.638 100.337C315.007 100.095 315.438 99.9744 315.931 99.9744C316.314 99.9744 316.66 100.045 316.968 100.188C317.275 100.33 317.527 100.528 317.724 100.784C317.92 101.04 318.042 101.338 318.09 101.679H317.252C317.188 101.43 317.046 101.21 316.826 101.018C316.608 100.824 316.314 100.727 315.945 100.727C315.618 100.727 315.332 100.812 315.085 100.983C314.842 101.151 314.651 101.389 314.514 101.697C314.379 102.002 314.311 102.361 314.311 102.773C314.311 103.194 314.378 103.561 314.51 103.874C314.645 104.186 314.835 104.429 315.078 104.602C315.325 104.774 315.613 104.861 315.945 104.861C316.163 104.861 316.36 104.823 316.538 104.747C316.715 104.671 316.866 104.562 316.989 104.42C317.112 104.278 317.2 104.108 317.252 103.909H318.09C318.042 104.231 317.925 104.521 317.738 104.779C317.554 105.035 317.309 105.238 317.003 105.39C316.7 105.539 316.347 105.614 315.945 105.614ZM320.92 105.628C320.574 105.628 320.261 105.563 319.979 105.433C319.697 105.3 319.474 105.109 319.308 104.861C319.142 104.61 319.059 104.307 319.059 103.952C319.059 103.639 319.121 103.386 319.244 103.192C319.367 102.995 319.532 102.841 319.737 102.73C319.943 102.619 320.171 102.536 320.419 102.482C320.67 102.425 320.922 102.38 321.176 102.347C321.507 102.304 321.776 102.272 321.982 102.251C322.19 102.227 322.342 102.188 322.436 102.134C322.533 102.079 322.582 101.984 322.582 101.849V101.821C322.582 101.471 322.486 101.198 322.294 101.004C322.105 100.81 321.817 100.713 321.431 100.713C321.031 100.713 320.718 100.801 320.49 100.976C320.263 101.151 320.103 101.338 320.011 101.537L319.215 101.253C319.358 100.921 319.547 100.663 319.784 100.479C320.023 100.292 320.283 100.161 320.565 100.088C320.849 100.012 321.128 99.9744 321.403 99.9744C321.578 99.9744 321.779 99.9957 322.007 100.038C322.236 100.079 322.458 100.163 322.671 100.29C322.886 100.418 323.065 100.611 323.207 100.869C323.349 101.127 323.42 101.473 323.42 101.906V105.5H322.582V104.761H322.539C322.483 104.88 322.388 105.006 322.255 105.141C322.123 105.276 321.946 105.391 321.726 105.486C321.506 105.58 321.237 105.628 320.92 105.628ZM321.048 104.875C321.379 104.875 321.659 104.81 321.886 104.68C322.116 104.549 322.288 104.381 322.404 104.175C322.523 103.969 322.582 103.753 322.582 103.526V102.759C322.546 102.801 322.468 102.84 322.348 102.876C322.229 102.909 322.092 102.938 321.936 102.964C321.782 102.988 321.631 103.009 321.485 103.028C321.34 103.045 321.223 103.059 321.133 103.071C320.915 103.099 320.712 103.146 320.522 103.21C320.335 103.271 320.184 103.365 320.068 103.49C319.954 103.613 319.897 103.781 319.897 103.994C319.897 104.286 320.005 104.506 320.22 104.655C320.438 104.802 320.714 104.875 321.048 104.875ZM327.322 100.045V100.756H324.495V100.045H327.322ZM325.319 98.7386H326.157V103.938C326.157 104.174 326.191 104.352 326.26 104.47C326.331 104.586 326.421 104.664 326.53 104.705C326.641 104.742 326.758 104.761 326.881 104.761C326.974 104.761 327.05 104.757 327.109 104.747C327.168 104.735 327.215 104.726 327.251 104.719L327.421 105.472C327.364 105.493 327.285 105.514 327.183 105.536C327.082 105.559 326.953 105.571 326.796 105.571C326.56 105.571 326.328 105.52 326.1 105.418C325.875 105.317 325.688 105.161 325.539 104.953C325.392 104.745 325.319 104.482 325.319 104.165V98.7386ZM328.582 105.5V100.045H329.421V105.5H328.582ZM329.009 99.1364C328.845 99.1364 328.704 99.0807 328.586 98.9695C328.47 98.8582 328.412 98.7244 328.412 98.5682C328.412 98.4119 328.47 98.2782 328.586 98.1669C328.704 98.0556 328.845 98 329.009 98C329.172 98 329.312 98.0556 329.428 98.1669C329.546 98.2782 329.605 98.4119 329.605 98.5682C329.605 98.7244 329.546 98.8582 329.428 98.9695C329.312 99.0807 329.172 99.1364 329.009 99.1364ZM333.171 105.614C332.679 105.614 332.247 105.496 331.875 105.262C331.506 105.028 331.217 104.7 331.009 104.278C330.803 103.857 330.7 103.365 330.7 102.801C330.7 102.233 330.803 101.737 331.009 101.313C331.217 100.889 331.506 100.56 331.875 100.326C332.247 100.092 332.679 99.9744 333.171 99.9744C333.664 99.9744 334.095 100.092 334.464 100.326C334.836 100.56 335.125 100.889 335.331 101.313C335.539 101.737 335.643 102.233 335.643 102.801C335.643 103.365 335.539 103.857 335.331 104.278C335.125 104.7 334.836 105.028 334.464 105.262C334.095 105.496 333.664 105.614 333.171 105.614ZM333.171 104.861C333.545 104.861 333.853 104.765 334.095 104.573C334.336 104.381 334.515 104.129 334.631 103.817C334.747 103.504 334.805 103.166 334.805 102.801C334.805 102.437 334.747 102.097 334.631 101.782C334.515 101.467 334.336 101.213 334.095 101.018C333.853 100.824 333.545 100.727 333.171 100.727C332.797 100.727 332.49 100.824 332.248 101.018C332.007 101.213 331.828 101.467 331.712 101.782C331.596 102.097 331.538 102.437 331.538 102.801C331.538 103.166 331.596 103.504 331.712 103.817C331.828 104.129 332.007 104.381 332.248 104.573C332.49 104.765 332.797 104.861 333.171 104.861ZM337.76 102.219V105.5H336.922V100.045H337.732V100.898H337.803C337.931 100.621 338.125 100.398 338.385 100.23C338.646 100.06 338.982 99.9744 339.394 99.9744C339.763 99.9744 340.086 100.05 340.363 100.202C340.64 100.351 340.856 100.578 341.01 100.884C341.164 101.187 341.241 101.57 341.241 102.034V105.5H340.402V102.091C340.402 101.662 340.291 101.329 340.069 101.089C339.846 100.848 339.541 100.727 339.152 100.727C338.885 100.727 338.646 100.785 338.435 100.901C338.227 101.017 338.062 101.187 337.941 101.409C337.821 101.632 337.76 101.902 337.76 102.219Z" fill="#323130"/>
<path d="M279.381 233.5V226.227H283.77V227.009H280.261V229.466H283.543V230.247H280.261V232.719H283.827V233.5H279.381ZM285.869 228.045L287.175 230.276L288.482 228.045H289.448L287.687 230.773L289.448 233.5H288.482L287.175 231.384L285.869 233.5H284.903L286.636 230.773L284.903 228.045H285.869ZM290.644 235.545V228.045H291.454V228.912H291.553C291.615 228.817 291.7 228.696 291.809 228.55C291.92 228.401 292.079 228.268 292.285 228.152C292.493 228.034 292.775 227.974 293.13 227.974C293.589 227.974 293.994 228.089 294.344 228.319C294.695 228.549 294.968 228.874 295.165 229.295C295.361 229.717 295.459 230.214 295.459 230.787C295.459 231.365 295.361 231.865 295.165 232.289C294.968 232.71 294.696 233.037 294.348 233.269C294 233.499 293.599 233.614 293.144 233.614C292.794 233.614 292.513 233.556 292.302 233.44C292.092 233.321 291.93 233.187 291.816 233.038C291.702 232.887 291.615 232.761 291.553 232.662H291.482V235.545H290.644ZM291.468 230.773C291.468 231.185 291.528 231.548 291.649 231.863C291.77 232.175 291.946 232.42 292.178 232.598C292.41 232.773 292.694 232.861 293.03 232.861C293.381 232.861 293.673 232.768 293.907 232.584C294.144 232.397 294.322 232.146 294.44 231.831C294.561 231.514 294.621 231.161 294.621 230.773C294.621 230.389 294.562 230.044 294.444 229.736C294.328 229.426 294.151 229.181 293.915 229.001C293.68 228.818 293.385 228.727 293.03 228.727C292.689 228.727 292.403 228.814 292.171 228.987C291.939 229.157 291.764 229.396 291.645 229.704C291.527 230.009 291.468 230.366 291.468 230.773ZM299.025 233.614C298.499 233.614 298.046 233.498 297.665 233.266C297.286 233.031 296.993 232.705 296.787 232.286C296.584 231.864 296.482 231.374 296.482 230.815C296.482 230.257 296.584 229.764 296.787 229.338C296.993 228.91 297.28 228.576 297.647 228.337C298.016 228.095 298.447 227.974 298.939 227.974C299.224 227.974 299.504 228.022 299.781 228.116C300.058 228.211 300.31 228.365 300.537 228.578C300.765 228.789 300.946 229.068 301.081 229.416C301.216 229.764 301.283 230.193 301.283 230.702V231.057H297.079V230.332H300.431C300.431 230.025 300.369 229.75 300.246 229.509C300.126 229.267 299.953 229.076 299.728 228.937C299.505 228.797 299.242 228.727 298.939 228.727C298.606 228.727 298.317 228.81 298.073 228.976C297.831 229.139 297.646 229.352 297.515 229.615C297.385 229.878 297.32 230.16 297.32 230.46V230.943C297.32 231.355 297.391 231.704 297.533 231.991C297.678 232.275 297.878 232.491 298.133 232.641C298.389 232.787 298.686 232.861 299.025 232.861C299.245 232.861 299.444 232.83 299.621 232.768C299.801 232.705 299.956 232.61 300.086 232.484C300.217 232.357 300.317 232.198 300.388 232.009L301.198 232.236C301.113 232.51 300.97 232.752 300.768 232.96C300.567 233.166 300.318 233.327 300.023 233.443C299.727 233.557 299.394 233.614 299.025 233.614ZM302.558 233.5V228.045H303.368V228.869H303.425C303.524 228.599 303.704 228.38 303.964 228.212C304.225 228.044 304.518 227.96 304.845 227.96C304.907 227.96 304.983 227.961 305.076 227.964C305.168 227.966 305.238 227.97 305.285 227.974V228.827C305.257 228.82 305.192 228.809 305.09 228.795C304.991 228.778 304.885 228.77 304.774 228.77C304.509 228.77 304.272 228.826 304.064 228.937C303.858 229.046 303.694 229.197 303.574 229.391C303.455 229.583 303.396 229.802 303.396 230.048V233.5H302.558ZM306.279 233.5V228.045H307.117V233.5H306.279ZM306.705 227.136C306.542 227.136 306.401 227.081 306.282 226.969C306.166 226.858 306.108 226.724 306.108 226.568C306.108 226.412 306.166 226.278 306.282 226.167C306.401 226.056 306.542 226 306.705 226C306.868 226 307.008 226.056 307.124 226.167C307.242 226.278 307.301 226.412 307.301 226.568C307.301 226.724 307.242 226.858 307.124 226.969C307.008 227.081 306.868 227.136 306.705 227.136ZM310.939 233.614C310.413 233.614 309.96 233.498 309.579 233.266C309.2 233.031 308.907 232.705 308.702 232.286C308.498 231.864 308.396 231.374 308.396 230.815C308.396 230.257 308.498 229.764 308.702 229.338C308.907 228.91 309.194 228.576 309.561 228.337C309.93 228.095 310.361 227.974 310.854 227.974C311.138 227.974 311.418 228.022 311.695 228.116C311.972 228.211 312.224 228.365 312.452 228.578C312.679 228.789 312.86 229.068 312.995 229.416C313.13 229.764 313.197 230.193 313.197 230.702V231.057H308.993V230.332H312.345C312.345 230.025 312.283 229.75 312.16 229.509C312.04 229.267 311.867 229.076 311.642 228.937C311.419 228.797 311.157 228.727 310.854 228.727C310.52 228.727 310.231 228.81 309.987 228.976C309.746 229.139 309.56 229.352 309.43 229.615C309.299 229.878 309.234 230.16 309.234 230.46V230.943C309.234 231.355 309.305 231.704 309.447 231.991C309.592 232.275 309.792 232.491 310.047 232.641C310.303 232.787 310.6 232.861 310.939 232.861C311.159 232.861 311.358 232.83 311.535 232.768C311.715 232.705 311.87 232.61 312.001 232.484C312.131 232.357 312.231 232.198 312.302 232.009L313.112 232.236C313.027 232.51 312.884 232.752 312.682 232.96C312.481 233.166 312.233 233.327 311.937 233.443C311.641 233.557 311.308 233.614 310.939 233.614ZM315.31 230.219V233.5H314.472V228.045H315.282V228.898H315.353C315.481 228.621 315.675 228.398 315.935 228.23C316.196 228.06 316.532 227.974 316.944 227.974C317.313 227.974 317.636 228.05 317.913 228.202C318.19 228.351 318.406 228.578 318.559 228.884C318.713 229.187 318.79 229.57 318.79 230.034V233.5H317.952V230.091C317.952 229.662 317.841 229.329 317.618 229.089C317.396 228.848 317.09 228.727 316.702 228.727C316.435 228.727 316.196 228.785 315.985 228.901C315.777 229.017 315.612 229.187 315.491 229.409C315.371 229.632 315.31 229.902 315.31 230.219ZM322.538 233.614C322.026 233.614 321.586 233.493 321.217 233.251C320.847 233.01 320.563 232.677 320.364 232.254C320.165 231.83 320.066 231.346 320.066 230.801C320.066 230.247 320.168 229.758 320.371 229.335C320.577 228.908 320.864 228.576 321.231 228.337C321.6 228.095 322.031 227.974 322.523 227.974C322.907 227.974 323.253 228.045 323.56 228.188C323.868 228.33 324.12 228.528 324.317 228.784C324.513 229.04 324.635 229.338 324.683 229.679H323.844C323.781 229.43 323.638 229.21 323.418 229.018C323.201 228.824 322.907 228.727 322.538 228.727C322.211 228.727 321.924 228.812 321.678 228.983C321.434 229.151 321.244 229.389 321.107 229.697C320.972 230.002 320.904 230.361 320.904 230.773C320.904 231.194 320.97 231.561 321.103 231.874C321.238 232.186 321.427 232.429 321.671 232.602C321.917 232.774 322.206 232.861 322.538 232.861C322.755 232.861 322.953 232.823 323.131 232.747C323.308 232.671 323.459 232.562 323.582 232.42C323.705 232.278 323.792 232.108 323.844 231.909H324.683C324.635 232.231 324.518 232.521 324.331 232.779C324.146 233.035 323.901 233.238 323.596 233.39C323.293 233.539 322.94 233.614 322.538 233.614ZM328.195 233.614C327.669 233.614 327.216 233.498 326.835 233.266C326.456 233.031 326.163 232.705 325.957 232.286C325.754 231.864 325.652 231.374 325.652 230.815C325.652 230.257 325.754 229.764 325.957 229.338C326.163 228.91 326.45 228.576 326.817 228.337C327.186 228.095 327.617 227.974 328.109 227.974C328.393 227.974 328.674 228.022 328.951 228.116C329.228 228.211 329.48 228.365 329.707 228.578C329.935 228.789 330.116 229.068 330.251 229.416C330.386 229.764 330.453 230.193 330.453 230.702V231.057H326.249V230.332H329.601C329.601 230.025 329.539 229.75 329.416 229.509C329.295 229.267 329.123 229.076 328.898 228.937C328.675 228.797 328.412 228.727 328.109 228.727C327.776 228.727 327.487 228.81 327.243 228.976C327.001 229.139 326.816 229.352 326.685 229.615C326.555 229.878 326.49 230.16 326.49 230.46V230.943C326.49 231.355 326.561 231.704 326.703 231.991C326.848 232.275 327.048 232.491 327.303 232.641C327.559 232.787 327.856 232.861 328.195 232.861C328.415 232.861 328.614 232.83 328.791 232.768C328.971 232.705 329.126 232.61 329.256 232.484C329.387 232.357 329.487 232.198 329.558 232.009L330.368 232.236C330.283 232.51 330.139 232.752 329.938 232.96C329.737 233.166 329.488 233.327 329.192 233.443C328.897 233.557 328.564 233.614 328.195 233.614Z" fill="#323130"/>
<path d="M158.358 294.045C158.315 293.686 158.143 293.406 157.839 293.207C157.536 293.009 157.165 292.909 156.724 292.909C156.402 292.909 156.121 292.961 155.879 293.065C155.64 293.17 155.453 293.313 155.318 293.495C155.186 293.677 155.119 293.884 155.119 294.116C155.119 294.311 155.165 294.478 155.258 294.617C155.353 294.754 155.473 294.869 155.62 294.962C155.767 295.052 155.921 295.126 156.082 295.185C156.243 295.242 156.391 295.288 156.526 295.324L157.264 295.523C157.454 295.572 157.664 295.641 157.896 295.729C158.131 295.816 158.354 295.936 158.567 296.087C158.783 296.237 158.96 296.428 159.1 296.663C159.24 296.897 159.31 297.185 159.31 297.526C159.31 297.919 159.207 298.274 159.001 298.591C158.797 298.908 158.499 299.16 158.106 299.347C157.715 299.534 157.241 299.628 156.682 299.628C156.161 299.628 155.71 299.544 155.329 299.376C154.95 299.208 154.652 298.973 154.434 298.673C154.219 298.372 154.097 298.023 154.068 297.625H154.977C155.001 297.9 155.093 298.127 155.254 298.307C155.418 298.484 155.624 298.617 155.872 298.705C156.123 298.79 156.393 298.832 156.682 298.832C157.018 298.832 157.32 298.778 157.587 298.669C157.855 298.558 158.067 298.404 158.223 298.207C158.379 298.009 158.457 297.777 158.457 297.511C158.457 297.27 158.39 297.073 158.255 296.922C158.12 296.77 157.942 296.647 157.722 296.553C157.502 296.458 157.264 296.375 157.009 296.304L156.114 296.048C155.545 295.885 155.096 295.652 154.764 295.349C154.433 295.046 154.267 294.649 154.267 294.159C154.267 293.752 154.377 293.397 154.597 293.094C154.82 292.788 155.118 292.552 155.492 292.384C155.869 292.213 156.289 292.128 156.753 292.128C157.222 292.128 157.638 292.212 158.003 292.38C158.367 292.546 158.656 292.773 158.869 293.062C159.085 293.351 159.198 293.679 159.21 294.045H158.358ZM162.86 299.614C162.367 299.614 161.935 299.496 161.564 299.262C161.194 299.028 160.906 298.7 160.697 298.278C160.491 297.857 160.388 297.365 160.388 296.801C160.388 296.233 160.491 295.737 160.697 295.313C160.906 294.889 161.194 294.56 161.564 294.326C161.935 294.092 162.367 293.974 162.86 293.974C163.352 293.974 163.783 294.092 164.153 294.326C164.524 294.56 164.813 294.889 165.019 295.313C165.227 295.737 165.331 296.233 165.331 296.801C165.331 297.365 165.227 297.857 165.019 298.278C164.813 298.7 164.524 299.028 164.153 299.262C163.783 299.496 163.352 299.614 162.86 299.614ZM162.86 298.861C163.234 298.861 163.542 298.765 163.783 298.573C164.025 298.381 164.203 298.129 164.319 297.817C164.435 297.504 164.493 297.166 164.493 296.801C164.493 296.437 164.435 296.097 164.319 295.782C164.203 295.467 164.025 295.213 163.783 295.018C163.542 294.824 163.234 294.727 162.86 294.727C162.486 294.727 162.178 294.824 161.937 295.018C161.695 295.213 161.516 295.467 161.4 295.782C161.284 296.097 161.226 296.437 161.226 296.801C161.226 297.166 161.284 297.504 161.4 297.817C161.516 298.129 161.695 298.381 161.937 298.573C162.178 298.765 162.486 298.861 162.86 298.861ZM169.04 294.045V294.756H166.099V294.045H169.04ZM166.98 299.5V293.293C166.98 292.98 167.054 292.72 167.2 292.511C167.347 292.303 167.538 292.147 167.772 292.043C168.006 291.938 168.254 291.886 168.514 291.886C168.72 291.886 168.888 291.903 169.018 291.936C169.149 291.969 169.246 292 169.31 292.028L169.068 292.753C169.026 292.739 168.966 292.721 168.891 292.7C168.817 292.678 168.72 292.668 168.599 292.668C168.322 292.668 168.122 292.737 167.999 292.877C167.879 293.017 167.818 293.222 167.818 293.491V299.5H166.98ZM172.586 294.045V294.756H169.76V294.045H172.586ZM170.584 292.739H171.422V297.938C171.422 298.174 171.456 298.352 171.525 298.47C171.596 298.586 171.686 298.664 171.795 298.705C171.906 298.742 172.023 298.761 172.146 298.761C172.238 298.761 172.314 298.757 172.373 298.747C172.433 298.735 172.48 298.726 172.515 298.719L172.686 299.472C172.629 299.493 172.55 299.514 172.448 299.536C172.346 299.559 172.217 299.571 172.061 299.571C171.824 299.571 171.592 299.52 171.365 299.418C171.14 299.317 170.953 299.161 170.804 298.953C170.657 298.745 170.584 298.482 170.584 298.165V292.739ZM180.751 294.045C180.708 293.686 180.535 293.406 180.232 293.207C179.929 293.009 179.557 292.909 179.117 292.909C178.795 292.909 178.513 292.961 178.272 293.065C178.033 293.17 177.846 293.313 177.711 293.495C177.578 293.677 177.512 293.884 177.512 294.116C177.512 294.311 177.558 294.478 177.65 294.617C177.745 294.754 177.866 294.869 178.013 294.962C178.159 295.052 178.313 295.126 178.474 295.185C178.635 295.242 178.783 295.288 178.918 295.324L179.657 295.523C179.846 295.572 180.057 295.641 180.289 295.729C180.523 295.816 180.747 295.936 180.96 296.087C181.175 296.237 181.353 296.428 181.493 296.663C181.632 296.897 181.702 297.185 181.702 297.526C181.702 297.919 181.599 298.274 181.393 298.591C181.19 298.908 180.891 299.16 180.498 299.347C180.108 299.534 179.633 299.628 179.074 299.628C178.554 299.628 178.103 299.544 177.721 299.376C177.343 299.208 177.044 298.973 176.827 298.673C176.611 298.372 176.489 298.023 176.461 297.625H177.37C177.394 297.9 177.486 298.127 177.647 298.307C177.81 298.484 178.016 298.617 178.265 298.705C178.516 298.79 178.786 298.832 179.074 298.832C179.411 298.832 179.712 298.778 179.98 298.669C180.247 298.558 180.459 298.404 180.616 298.207C180.772 298.009 180.85 297.777 180.85 297.511C180.85 297.27 180.782 297.073 180.648 296.922C180.513 296.77 180.335 296.647 180.115 296.553C179.895 296.458 179.657 296.375 179.401 296.304L178.506 296.048C177.938 295.885 177.488 295.652 177.157 295.349C176.825 295.046 176.66 294.649 176.66 294.159C176.66 293.752 176.77 293.397 176.99 293.094C177.212 292.788 177.511 292.552 177.885 292.384C178.261 292.213 178.681 292.128 179.145 292.128C179.614 292.128 180.031 292.212 180.395 292.38C180.76 292.546 181.049 292.773 181.262 293.062C181.477 293.351 181.591 293.679 181.603 294.045H180.751ZM183.818 297.511L183.804 296.474H183.974L186.36 294.045H187.397L184.855 296.616H184.784L183.818 297.511ZM183.037 299.5V292.227H183.875V299.5H183.037ZM186.502 299.5L184.372 296.801L184.968 296.219L187.568 299.5H186.502ZM188.476 299.5V294.045H189.314V299.5H188.476ZM188.902 293.136C188.739 293.136 188.598 293.081 188.48 292.969C188.364 292.858 188.306 292.724 188.306 292.568C188.306 292.412 188.364 292.278 188.48 292.167C188.598 292.056 188.739 292 188.902 292C189.066 292 189.205 292.056 189.321 292.167C189.44 292.278 189.499 292.412 189.499 292.568C189.499 292.724 189.44 292.858 189.321 292.969C189.205 293.081 189.066 293.136 188.902 293.136ZM191.687 292.227V299.5H190.849V292.227H191.687ZM194.06 292.227V299.5H193.222V292.227H194.06Z" fill="#323130"/>
<path d="M1.59357 233.5V226.227H2.47425V232.719H5.85494V233.5H1.59357ZM8.71005 233.628C8.36441 233.628 8.05072 233.563 7.769 233.433C7.48728 233.3 7.26355 233.109 7.09783 232.861C6.93211 232.61 6.84925 232.307 6.84925 231.952C6.84925 231.639 6.91081 231.386 7.03391 231.192C7.15702 230.995 7.32156 230.841 7.52752 230.73C7.73349 230.619 7.96076 230.536 8.20934 230.482C8.46029 230.425 8.71242 230.38 8.96573 230.347C9.29717 230.304 9.56587 230.272 9.77184 230.251C9.98017 230.227 10.1317 230.188 10.2264 230.134C10.3234 230.079 10.372 229.984 10.372 229.849V229.821C10.372 229.471 10.2761 229.198 10.0843 229.004C9.89495 228.81 9.6073 228.713 9.22141 228.713C8.82132 228.713 8.50764 228.801 8.28036 228.976C8.05309 229.151 7.89329 229.338 7.80096 229.537L7.0055 229.253C7.14755 228.921 7.33694 228.663 7.57369 228.479C7.8128 228.292 8.07321 228.161 8.35494 228.088C8.63903 228.012 8.91838 227.974 9.193 227.974C9.36819 227.974 9.56942 227.996 9.7967 228.038C10.0263 228.079 10.2477 228.163 10.4608 228.29C10.6762 228.418 10.8549 228.611 10.997 228.869C11.139 229.127 11.21 229.473 11.21 229.906V233.5H10.372V232.761H10.3294C10.2725 232.88 10.1779 233.006 10.0453 233.141C9.9127 233.276 9.73633 233.391 9.51616 233.486C9.29599 233.58 9.02728 233.628 8.71005 233.628ZM8.83789 232.875C9.16933 232.875 9.44869 232.81 9.67596 232.68C9.9056 232.549 10.0784 232.381 10.1944 232.175C10.3128 231.969 10.372 231.753 10.372 231.526V230.759C10.3365 230.801 10.2583 230.84 10.1376 230.876C10.0192 230.909 9.88192 230.938 9.72567 230.964C9.57179 230.988 9.42146 231.009 9.27468 231.028C9.13027 231.045 9.01308 231.059 8.92312 231.071C8.70531 231.099 8.50172 231.146 8.31232 231.21C8.1253 231.271 7.97378 231.365 7.85778 231.49C7.74414 231.613 7.68732 231.781 7.68732 231.994C7.68732 232.286 7.79504 232.506 8.01048 232.655C8.22828 232.802 8.50408 232.875 8.83789 232.875ZM13.5778 230.219V233.5H12.7397V228.045H13.5494V228.898H13.6204C13.7482 228.621 13.9424 228.398 14.2028 228.23C14.4632 228.06 14.7994 227.974 15.2113 227.974C15.5806 227.974 15.9038 228.05 16.1808 228.202C16.4577 228.351 16.6732 228.578 16.8271 228.884C16.9809 229.187 17.0579 229.57 17.0579 230.034V233.5H16.2198V230.091C16.2198 229.662 16.1085 229.329 15.886 229.089C15.6635 228.848 15.3581 228.727 14.9698 228.727C14.7023 228.727 14.4632 228.785 14.2525 228.901C14.0442 229.017 13.8796 229.187 13.7589 229.409C13.6381 229.632 13.5778 229.902 13.5778 230.219ZM20.791 235.659C20.3862 235.659 20.0382 235.607 19.747 235.503C19.4558 235.401 19.2131 235.266 19.019 235.098C18.8272 234.932 18.6745 234.755 18.5609 234.565L19.2285 234.097C19.3043 234.196 19.4002 234.31 19.5162 234.438C19.6322 234.568 19.7908 234.68 19.992 234.775C20.1956 234.872 20.4619 234.92 20.791 234.92C21.2314 234.92 21.5948 234.814 21.8812 234.601C22.1677 234.388 22.3109 234.054 22.3109 233.599V232.491H22.2399C22.1783 232.591 22.0907 232.714 21.9771 232.861C21.8658 233.005 21.7048 233.134 21.4941 233.248C21.2858 233.359 21.0041 233.415 20.649 233.415C20.2086 233.415 19.8133 233.311 19.4629 233.102C19.1149 232.894 18.8391 232.591 18.6355 232.193C18.4342 231.795 18.3336 231.312 18.3336 230.744C18.3336 230.186 18.4319 229.699 18.6284 229.285C18.8249 228.868 19.0983 228.546 19.4487 228.319C19.7991 228.089 20.2039 227.974 20.6632 227.974C21.0183 227.974 21.3 228.034 21.5083 228.152C21.719 228.268 21.88 228.401 21.9913 228.55C22.1049 228.696 22.1925 228.817 22.2541 228.912H22.3393V228.045H23.149V233.656C23.149 234.125 23.0424 234.506 22.8294 234.8C22.6187 235.096 22.3346 235.312 21.9771 235.45C21.622 235.589 21.2266 235.659 20.791 235.659ZM20.7626 232.662C21.0988 232.662 21.3829 232.585 21.6149 232.431C21.8469 232.277 22.0233 232.056 22.144 231.767C22.2647 231.478 22.3251 231.133 22.3251 230.73C22.3251 230.337 22.2659 229.99 22.1475 229.69C22.0292 229.389 21.854 229.153 21.622 228.983C21.39 228.812 21.1035 228.727 20.7626 228.727C20.4075 228.727 20.1116 228.817 19.8748 228.997C19.6404 229.177 19.4641 229.419 19.3457 229.722C19.2297 230.025 19.1717 230.361 19.1717 230.73C19.1717 231.109 19.2309 231.444 19.3493 231.735C19.47 232.024 19.6475 232.251 19.8819 232.417C20.1187 232.58 20.4122 232.662 20.7626 232.662ZM28.1206 231.27V228.045H28.9586V233.5H28.1206V232.577H28.0637C27.9359 232.854 27.737 233.089 27.4672 233.283C27.1973 233.475 26.8564 233.571 26.4444 233.571C26.1035 233.571 25.8005 233.496 25.5353 233.347C25.2702 233.196 25.0618 232.969 24.9103 232.665C24.7588 232.36 24.6831 231.975 24.6831 231.511V228.045H25.5211V231.455C25.5211 231.852 25.6324 232.17 25.8549 232.406C26.0798 232.643 26.3663 232.761 26.7143 232.761C26.9226 232.761 27.1345 232.708 27.35 232.602C27.5678 232.495 27.7501 232.332 27.8968 232.112C28.046 231.891 28.1206 231.611 28.1206 231.27ZM32.0987 233.628C31.7531 233.628 31.4394 233.563 31.1577 233.433C30.8759 233.3 30.6522 233.109 30.4865 232.861C30.3208 232.61 30.2379 232.307 30.2379 231.952C30.2379 231.639 30.2995 231.386 30.4226 231.192C30.5457 230.995 30.7102 230.841 30.9162 230.73C31.1222 230.619 31.3494 230.536 31.598 230.482C31.849 230.425 32.1011 230.38 32.3544 230.347C32.6858 230.304 32.9545 230.272 33.1605 230.251C33.3688 230.227 33.5204 230.188 33.6151 230.134C33.7121 230.079 33.7607 229.984 33.7607 229.849V229.821C33.7607 229.471 33.6648 229.198 33.473 229.004C33.2836 228.81 32.996 228.713 32.6101 228.713C32.21 228.713 31.8963 228.801 31.669 228.976C31.4418 229.151 31.282 229.338 31.1896 229.537L30.3942 229.253C30.5362 228.921 30.7256 228.663 30.9624 228.479C31.2015 228.292 31.4619 228.161 31.7436 228.088C32.0277 228.012 32.3071 227.974 32.5817 227.974C32.7569 227.974 32.9581 227.996 33.1854 228.038C33.415 228.079 33.6364 228.163 33.8494 228.29C34.0649 228.418 34.2436 228.611 34.3857 228.869C34.5277 229.127 34.5987 229.473 34.5987 229.906V233.5H33.7607V232.761H33.718C33.6612 232.88 33.5665 233.006 33.4339 233.141C33.3014 233.276 33.125 233.391 32.9048 233.486C32.6847 233.58 32.416 233.628 32.0987 233.628ZM32.2266 232.875C32.558 232.875 32.8374 232.81 33.0646 232.68C33.2943 232.549 33.4671 232.381 33.5831 232.175C33.7015 231.969 33.7607 231.753 33.7607 231.526V230.759C33.7251 230.801 33.647 230.84 33.5263 230.876C33.4079 230.909 33.2706 230.938 33.1143 230.964C32.9605 230.988 32.8101 231.009 32.6634 231.028C32.5189 231.045 32.4018 231.059 32.3118 231.071C32.094 231.099 31.8904 231.146 31.701 231.21C31.514 231.271 31.3625 231.365 31.2464 231.49C31.1328 231.613 31.076 231.781 31.076 231.994C31.076 232.286 31.1837 232.506 31.3991 232.655C31.617 232.802 31.8928 232.875 32.2266 232.875ZM38.3301 235.659C37.9252 235.659 37.5772 235.607 37.286 235.503C36.9949 235.401 36.7522 235.266 36.5581 235.098C36.3663 234.932 36.2136 234.755 36.1 234.565L36.7676 234.097C36.8433 234.196 36.9392 234.31 37.0552 234.438C37.1712 234.568 37.3298 234.68 37.5311 234.775C37.7347 234.872 38.001 234.92 38.3301 234.92C38.7704 234.92 39.1338 234.814 39.4203 234.601C39.7067 234.388 39.85 234.054 39.85 233.599V232.491H39.7789C39.7174 232.591 39.6298 232.714 39.5162 232.861C39.4049 233.005 39.2439 233.134 39.0332 233.248C38.8249 233.359 38.5431 233.415 38.188 233.415C37.7477 233.415 37.3523 233.311 37.002 233.102C36.6539 232.894 36.3781 232.591 36.1745 232.193C35.9733 231.795 35.8727 231.312 35.8727 230.744C35.8727 230.186 35.9709 229.699 36.1674 229.285C36.3639 228.868 36.6374 228.546 36.9877 228.319C37.3381 228.089 37.743 227.974 38.2022 227.974C38.5574 227.974 38.8391 228.034 39.0474 228.152C39.2581 228.268 39.4191 228.401 39.5304 228.55C39.644 228.696 39.7316 228.817 39.7931 228.912H39.8784V228.045H40.688V233.656C40.688 234.125 40.5815 234.506 40.3684 234.8C40.1577 235.096 39.8736 235.312 39.5162 235.45C39.161 235.589 38.7657 235.659 38.3301 235.659ZM38.3017 232.662C38.6378 232.662 38.9219 232.585 39.1539 232.431C39.3859 232.277 39.5623 232.056 39.6831 231.767C39.8038 231.478 39.8642 231.133 39.8642 230.73C39.8642 230.337 39.805 229.99 39.6866 229.69C39.5682 229.389 39.3931 229.153 39.161 228.983C38.929 228.812 38.6426 228.727 38.3017 228.727C37.9466 228.727 37.6506 228.817 37.4139 228.997C37.1795 229.177 37.0031 229.419 36.8848 229.722C36.7688 230.025 36.7108 230.361 36.7108 230.73C36.7108 231.109 36.7699 231.444 36.8883 231.735C37.0091 232.024 37.1866 232.251 37.421 232.417C37.6577 232.58 37.9513 232.662 38.3017 232.662ZM44.5091 233.614C43.9835 233.614 43.5301 233.498 43.149 233.266C42.7702 233.031 42.4778 232.705 42.2718 232.286C42.0682 231.864 41.9664 231.374 41.9664 230.815C41.9664 230.257 42.0682 229.764 42.2718 229.338C42.4778 228.91 42.7643 228.576 43.1312 228.337C43.5005 228.095 43.9314 227.974 44.4238 227.974C44.7079 227.974 44.9885 228.022 45.2654 228.116C45.5424 228.211 45.7946 228.365 46.0218 228.578C46.2491 228.789 46.4302 229.068 46.5652 229.416C46.7001 229.764 46.7676 230.193 46.7676 230.702V231.057H42.563V230.332H45.9153C45.9153 230.025 45.8538 229.75 45.7306 229.509C45.6099 229.267 45.4371 229.076 45.2122 228.937C44.9896 228.797 44.7269 228.727 44.4238 228.727C44.09 228.727 43.8012 228.81 43.5574 228.976C43.3159 229.139 43.13 229.352 42.9998 229.615C42.8696 229.878 42.8045 230.16 42.8045 230.46V230.943C42.8045 231.355 42.8755 231.704 43.0176 231.991C43.162 232.275 43.362 232.491 43.6177 232.641C43.8734 232.787 44.1705 232.861 44.5091 232.861C44.7292 232.861 44.9281 232.83 45.1056 232.768C45.2856 232.705 45.4406 232.61 45.5708 232.484C45.7011 232.357 45.8017 232.198 45.8727 232.009L46.6824 232.236C46.5971 232.51 46.4539 232.752 46.2527 232.96C46.0514 233.166 45.8029 233.327 45.5069 233.443C45.211 233.557 44.8784 233.614 44.5091 233.614ZM51.9061 229.267L51.1532 229.48C51.1059 229.355 51.036 229.233 50.9437 229.114C50.8538 228.994 50.7306 228.894 50.5744 228.816C50.4181 228.738 50.2181 228.699 49.9743 228.699C49.6404 228.699 49.3623 228.776 49.1397 228.93C48.9196 229.081 48.8095 229.274 48.8095 229.509C48.8095 229.717 48.8852 229.881 49.0368 230.002C49.1883 230.123 49.425 230.223 49.747 230.304L50.5566 230.503C51.0443 230.621 51.4077 230.802 51.6468 231.046C51.8859 231.288 52.0055 231.599 52.0055 231.98C52.0055 232.293 51.9155 232.572 51.7356 232.818C51.5581 233.064 51.3095 233.259 50.9899 233.401C50.6703 233.543 50.2986 233.614 49.8748 233.614C49.3185 233.614 48.858 233.493 48.4934 233.251C48.1288 233.01 47.898 232.657 47.801 232.193L48.5964 231.994C48.6722 232.288 48.8154 232.508 49.0261 232.655C49.2392 232.802 49.5173 232.875 49.8606 232.875C50.2512 232.875 50.5614 232.792 50.791 232.626C51.023 232.458 51.139 232.257 51.139 232.023C51.139 231.833 51.0727 231.675 50.9402 231.547C50.8076 231.417 50.604 231.32 50.3294 231.256L49.4203 231.043C48.9208 230.924 48.5538 230.741 48.3194 230.492C48.0874 230.241 47.9714 229.928 47.9714 229.551C47.9714 229.243 48.0578 228.971 48.2306 228.734C48.4058 228.498 48.6438 228.312 48.9444 228.177C49.2475 228.042 49.5907 227.974 49.9743 227.974C50.514 227.974 50.9378 228.093 51.2456 228.33C51.5557 228.566 51.7759 228.879 51.9061 229.267Z" fill="#323130"/>
<path d="M8.2271 101.009V100.227H13.6816V101.009H11.3947V107.5H10.514V101.009H8.2271ZM16.4231 107.614C15.8975 107.614 15.4442 107.498 15.063 107.266C14.6842 107.031 14.3919 106.705 14.1859 106.286C13.9823 105.864 13.8805 105.374 13.8805 104.815C13.8805 104.257 13.9823 103.764 14.1859 103.338C14.3919 102.91 14.6783 102.576 15.0453 102.337C15.4146 102.095 15.8455 101.974 16.3379 101.974C16.622 101.974 16.9025 102.022 17.1795 102.116C17.4565 102.211 17.7086 102.365 17.9359 102.578C18.1632 102.789 18.3443 103.068 18.4792 103.416C18.6142 103.764 18.6816 104.193 18.6816 104.702V105.057H14.4771V104.332H17.8294C17.8294 104.025 17.7678 103.75 17.6447 103.509C17.524 103.267 17.3511 103.076 17.1262 102.937C16.9037 102.797 16.6409 102.727 16.3379 102.727C16.0041 102.727 15.7153 102.81 15.4714 102.976C15.2299 103.139 15.0441 103.352 14.9139 103.615C14.7837 103.878 14.7186 104.16 14.7186 104.46V104.943C14.7186 105.355 14.7896 105.704 14.9316 105.991C15.0761 106.275 15.2761 106.491 15.5318 106.641C15.7875 106.787 16.0846 106.861 16.4231 106.861C16.6433 106.861 16.8422 106.83 17.0197 106.768C17.1996 106.705 17.3547 106.61 17.4849 106.484C17.6151 106.357 17.7157 106.198 17.7868 106.009L18.5964 106.236C18.5112 106.51 18.368 106.752 18.1667 106.96C17.9655 107.166 17.7169 107.327 17.421 107.443C17.1251 107.557 16.7924 107.614 16.4231 107.614ZM22.1724 107.614C21.661 107.614 21.2207 107.493 20.8514 107.251C20.4821 107.01 20.198 106.677 19.9991 106.254C19.8002 105.83 19.7008 105.346 19.7008 104.801C19.7008 104.247 19.8026 103.758 20.0062 103.335C20.2122 102.908 20.4986 102.576 20.8656 102.337C21.2349 102.095 21.6658 101.974 22.1582 101.974C22.5417 101.974 22.8874 102.045 23.1951 102.188C23.5029 102.33 23.755 102.528 23.9515 102.784C24.148 103.04 24.2699 103.338 24.3173 103.679H23.4792C23.4153 103.43 23.2733 103.21 23.0531 103.018C22.8353 102.824 22.5417 102.727 22.1724 102.727C21.8457 102.727 21.5592 102.812 21.313 102.983C21.0692 103.151 20.8786 103.389 20.7413 103.697C20.6064 104.002 20.5389 104.361 20.5389 104.773C20.5389 105.194 20.6052 105.561 20.7377 105.874C20.8727 106.186 21.0621 106.429 21.3059 106.602C21.5521 106.774 21.841 106.861 22.1724 106.861C22.3902 106.861 22.5879 106.823 22.7654 106.747C22.943 106.671 23.0933 106.562 23.2164 106.42C23.3395 106.278 23.4271 106.108 23.4792 105.909H24.3173C24.2699 106.231 24.1528 106.521 23.9657 106.779C23.7811 107.035 23.536 107.238 23.2306 107.39C22.9276 107.539 22.5749 107.614 22.1724 107.614ZM26.3805 104.219V107.5H25.5424V100.227H26.3805V102.898H26.4515C26.5794 102.616 26.7711 102.392 27.0268 102.227C27.2849 102.058 27.6281 101.974 28.0566 101.974C28.4283 101.974 28.7538 102.049 29.0332 102.198C29.3126 102.345 29.5292 102.571 29.6831 102.876C29.8393 103.179 29.9174 103.565 29.9174 104.034V107.5H29.0794V104.091C29.0794 103.658 28.9669 103.323 28.742 103.086C28.5195 102.847 28.2105 102.727 27.8152 102.727C27.5405 102.727 27.2943 102.785 27.0765 102.901C26.8611 103.017 26.6906 103.187 26.5652 103.409C26.4421 103.632 26.3805 103.902 26.3805 104.219ZM32.2887 104.219V107.5H31.4506V102.045H32.2603V102.898H32.3313C32.4592 102.621 32.6533 102.398 32.9137 102.23C33.1741 102.06 33.5103 101.974 33.9222 101.974C34.2915 101.974 34.6147 102.05 34.8917 102.202C35.1687 102.351 35.3841 102.578 35.538 102.884C35.6919 103.187 35.7688 103.57 35.7688 104.034V107.5H34.9308V104.091C34.9308 103.662 34.8195 103.329 34.5969 103.089C34.3744 102.848 34.069 102.727 33.6808 102.727C33.4132 102.727 33.1741 102.785 32.9634 102.901C32.7551 103.017 32.5906 103.187 32.4698 103.409C32.3491 103.632 32.2887 103.902 32.2887 104.219ZM37.3002 107.5V102.045H38.1383V107.5H37.3002ZM37.7264 101.136C37.563 101.136 37.4222 101.081 37.3038 100.969C37.1878 100.858 37.1298 100.724 37.1298 100.568C37.1298 100.412 37.1878 100.278 37.3038 100.167C37.4222 100.056 37.563 100 37.7264 100C37.8897 100 38.0294 100.056 38.1454 100.167C38.2638 100.278 38.323 100.412 38.323 100.568C38.323 100.724 38.2638 100.858 38.1454 100.969C38.0294 101.081 37.8897 101.136 37.7264 101.136ZM41.8892 107.614C41.3778 107.614 40.9375 107.493 40.5682 107.251C40.1989 107.01 39.9148 106.677 39.7159 106.254C39.517 105.83 39.4176 105.346 39.4176 104.801C39.4176 104.247 39.5194 103.758 39.723 103.335C39.929 102.908 40.2154 102.576 40.5824 102.337C40.9517 102.095 41.3826 101.974 41.875 101.974C42.2585 101.974 42.6042 102.045 42.9119 102.188C43.2197 102.33 43.4718 102.528 43.6683 102.784C43.8648 103.04 43.9867 103.338 44.0341 103.679H43.196C43.1321 103.43 42.9901 103.21 42.7699 103.018C42.5521 102.824 42.2585 102.727 41.8892 102.727C41.5625 102.727 41.276 102.812 41.0298 102.983C40.786 103.151 40.5954 103.389 40.4581 103.697C40.3232 104.002 40.2557 104.361 40.2557 104.773C40.2557 105.194 40.322 105.561 40.4545 105.874C40.5895 106.186 40.7789 106.429 41.0227 106.602C41.2689 106.774 41.5578 106.861 41.8892 106.861C42.107 106.861 42.3047 106.823 42.4822 106.747C42.6598 106.671 42.8101 106.562 42.9332 106.42C43.0563 106.278 43.1439 106.108 43.196 105.909H44.0341C43.9867 106.231 43.8696 106.521 43.6825 106.779C43.4979 107.035 43.2528 107.238 42.9474 107.39C42.6444 107.539 42.2917 107.614 41.8892 107.614ZM46.8643 107.628C46.5187 107.628 46.205 107.563 45.9233 107.433C45.6416 107.3 45.4179 107.109 45.2521 106.861C45.0864 106.61 45.0036 106.307 45.0036 105.952C45.0036 105.639 45.0651 105.386 45.1882 105.192C45.3113 104.995 45.4759 104.841 45.6818 104.73C45.8878 104.619 46.1151 104.536 46.3636 104.482C46.6146 104.425 46.8667 104.38 47.12 104.347C47.4515 104.304 47.7202 104.272 47.9261 104.251C48.1345 104.227 48.286 104.188 48.3807 104.134C48.4777 104.079 48.5263 103.984 48.5263 103.849V103.821C48.5263 103.471 48.4304 103.198 48.2386 103.004C48.0492 102.81 47.7616 102.713 47.3757 102.713C46.9756 102.713 46.6619 102.801 46.4347 102.976C46.2074 103.151 46.0476 103.338 45.9553 103.537L45.1598 103.253C45.3018 102.921 45.4912 102.663 45.728 102.479C45.9671 102.292 46.2275 102.161 46.5092 102.088C46.7933 102.012 47.0727 101.974 47.3473 101.974C47.5225 101.974 47.7237 101.996 47.951 102.038C48.1806 102.079 48.402 102.163 48.6151 102.29C48.8305 102.418 49.0092 102.611 49.1513 102.869C49.2933 103.127 49.3643 103.473 49.3643 103.906V107.5H48.5263V106.761H48.4837C48.4268 106.88 48.3321 107.006 48.1996 107.141C48.067 107.276 47.8906 107.391 47.6705 107.486C47.4503 107.58 47.1816 107.628 46.8643 107.628ZM46.9922 106.875C47.3236 106.875 47.603 106.81 47.8303 106.68C48.0599 106.549 48.2327 106.381 48.3487 106.175C48.4671 105.969 48.5263 105.753 48.5263 105.526V104.759C48.4908 104.801 48.4126 104.84 48.2919 104.876C48.1735 104.909 48.0362 104.938 47.88 104.964C47.7261 104.988 47.5758 105.009 47.429 105.028C47.2846 105.045 47.1674 105.059 47.0774 105.071C46.8596 105.099 46.656 105.146 46.4666 105.21C46.2796 105.271 46.1281 105.365 46.0121 105.49C45.8984 105.613 45.8416 105.781 45.8416 105.994C45.8416 106.286 45.9493 106.506 46.1648 106.655C46.3826 106.802 46.6584 106.875 46.9922 106.875ZM51.7321 100.227V107.5H50.894V100.227H51.7321Z" fill="#323130"/>
<path d="M153.144 38.5H152.221L154.891 31.2273H155.8L158.471 38.5H157.547L155.374 32.3778H155.317L153.144 38.5ZM153.485 35.6591H157.206V36.4403H153.485V35.6591ZM163.266 33.0455L161.249 38.5H160.397L158.38 33.0455H159.289L160.795 37.392H160.852L162.357 33.0455H163.266ZM166.464 38.6136C165.939 38.6136 165.485 38.4976 165.104 38.2656C164.725 38.0312 164.433 37.7045 164.227 37.2855C164.023 36.8641 163.922 36.3741 163.922 35.8153C163.922 35.2566 164.023 34.7642 164.227 34.3381C164.433 33.9096 164.719 33.5758 165.086 33.3366C165.456 33.0952 165.886 32.9744 166.379 32.9744C166.663 32.9744 166.944 33.0218 167.221 33.1165C167.498 33.2112 167.75 33.3651 167.977 33.5781C168.204 33.7888 168.385 34.0682 168.52 34.4162C168.655 34.7642 168.723 35.1927 168.723 35.7017V36.0568H164.518V35.3324H167.87C167.87 35.0246 167.809 34.75 167.686 34.5085C167.565 34.267 167.392 34.0765 167.167 33.9368C166.945 33.7971 166.682 33.7273 166.379 33.7273C166.045 33.7273 165.756 33.8101 165.512 33.9759C165.271 34.1392 165.085 34.3523 164.955 34.6151C164.825 34.8778 164.76 35.1596 164.76 35.4602V35.9432C164.76 36.3551 164.831 36.7043 164.973 36.9908C165.117 37.2749 165.317 37.4915 165.573 37.6406C165.828 37.7874 166.126 37.8608 166.464 37.8608C166.684 37.8608 166.883 37.83 167.061 37.7685C167.241 37.7045 167.396 37.6098 167.526 37.4844C167.656 37.3565 167.757 37.1979 167.828 37.0085L168.637 37.2358C168.552 37.5104 168.409 37.7519 168.208 37.9602C168.007 38.1662 167.758 38.3272 167.462 38.4432C167.166 38.5568 166.833 38.6136 166.464 38.6136ZM169.998 38.5V33.0455H170.807V33.8693H170.864C170.963 33.5994 171.143 33.3804 171.404 33.2124C171.664 33.0443 171.958 32.9602 172.284 32.9602C172.346 32.9602 172.423 32.9614 172.515 32.9638C172.608 32.9661 172.677 32.9697 172.725 32.9744V33.8267C172.696 33.8196 172.631 33.8089 172.529 33.7947C172.43 33.7782 172.325 33.7699 172.213 33.7699C171.948 33.7699 171.712 33.8255 171.503 33.9368C171.297 34.0457 171.134 34.1972 171.013 34.3913C170.895 34.5831 170.836 34.8021 170.836 35.0483V38.5H169.998ZM175.323 38.6278C174.978 38.6278 174.664 38.5627 174.382 38.4325C174.101 38.3 173.877 38.1094 173.711 37.8608C173.545 37.6098 173.463 37.3068 173.463 36.9517C173.463 36.6392 173.524 36.3859 173.647 36.1918C173.77 35.9953 173.935 35.8414 174.141 35.7301C174.347 35.6188 174.574 35.536 174.823 35.4815C175.074 35.4247 175.326 35.3797 175.579 35.3466C175.91 35.304 176.179 35.272 176.385 35.2507C176.593 35.227 176.745 35.188 176.84 35.1335C176.937 35.0791 176.985 34.9844 176.985 34.8494V34.821C176.985 34.4706 176.889 34.1984 176.698 34.0043C176.508 33.8101 176.221 33.7131 175.835 33.7131C175.435 33.7131 175.121 33.8007 174.894 33.9759C174.666 34.151 174.507 34.3381 174.414 34.5369L173.619 34.2528C173.761 33.9214 173.95 33.6634 174.187 33.4787C174.426 33.2917 174.686 33.1615 174.968 33.0881C175.252 33.0123 175.532 32.9744 175.806 32.9744C175.981 32.9744 176.183 32.9957 176.41 33.0384C176.64 33.0786 176.861 33.1626 177.074 33.2905C177.289 33.4183 177.468 33.6113 177.61 33.8693C177.752 34.1274 177.823 34.473 177.823 34.9062V38.5H176.985V37.7614H176.943C176.886 37.8797 176.791 38.0064 176.659 38.1413C176.526 38.2763 176.35 38.3911 176.129 38.4858C175.909 38.5805 175.641 38.6278 175.323 38.6278ZM175.451 37.875C175.783 37.875 176.062 37.8099 176.289 37.6797C176.519 37.5495 176.692 37.3814 176.808 37.1754C176.926 36.9695 176.985 36.7528 176.985 36.5256V35.7585C176.95 35.8011 176.872 35.8402 176.751 35.8757C176.633 35.9089 176.495 35.9384 176.339 35.9645C176.185 35.9882 176.035 36.0095 175.888 36.0284C175.744 36.045 175.626 36.0592 175.536 36.071C175.319 36.0994 175.115 36.1456 174.926 36.2095C174.739 36.2711 174.587 36.3646 174.471 36.4901C174.357 36.6132 174.301 36.7812 174.301 36.9943C174.301 37.2855 174.408 37.5057 174.624 37.6548C174.842 37.8016 175.117 37.875 175.451 37.875ZM181.555 40.6591C181.15 40.6591 180.802 40.607 180.511 40.5028C180.219 40.401 179.977 40.2661 179.783 40.098C179.591 39.9323 179.438 39.7547 179.325 39.5653L179.992 39.0966C180.068 39.196 180.164 39.3097 180.28 39.4375C180.396 39.5677 180.554 39.6802 180.756 39.7749C180.959 39.8719 181.226 39.9205 181.555 39.9205C181.995 39.9205 182.358 39.8139 182.645 39.6009C182.931 39.3878 183.075 39.054 183.075 38.5994V37.4915H183.004C182.942 37.5909 182.854 37.714 182.741 37.8608C182.629 38.0052 182.469 38.1342 182.258 38.2479C182.049 38.3591 181.768 38.4148 181.413 38.4148C180.972 38.4148 180.577 38.3106 180.227 38.1023C179.879 37.8939 179.603 37.5909 179.399 37.1932C179.198 36.7955 179.097 36.3125 179.097 35.7443C179.097 35.1856 179.196 34.6991 179.392 34.2848C179.589 33.8681 179.862 33.5462 180.212 33.3189C180.563 33.0893 180.968 32.9744 181.427 32.9744C181.782 32.9744 182.064 33.0336 182.272 33.152C182.483 33.268 182.644 33.4006 182.755 33.5497C182.869 33.6965 182.956 33.8172 183.018 33.9119H183.103V33.0455H183.913V38.6562C183.913 39.125 183.806 39.5062 183.593 39.7997C183.382 40.0956 183.098 40.3123 182.741 40.4496C182.386 40.5893 181.99 40.6591 181.555 40.6591ZM181.526 37.6619C181.862 37.6619 182.147 37.585 182.379 37.4311C182.611 37.2772 182.787 37.0559 182.908 36.767C183.028 36.4782 183.089 36.1326 183.089 35.7301C183.089 35.3371 183.03 34.9903 182.911 34.6896C182.793 34.389 182.618 34.1534 182.386 33.983C182.154 33.8125 181.867 33.7273 181.526 33.7273C181.171 33.7273 180.875 33.8172 180.638 33.9972C180.404 34.1771 180.228 34.4186 180.109 34.7216C179.993 35.0246 179.935 35.3608 179.935 35.7301C179.935 36.1089 179.995 36.4439 180.113 36.7351C180.234 37.0239 180.411 37.2512 180.646 37.4169C180.882 37.5803 181.176 37.6619 181.526 37.6619ZM187.734 38.6136C187.208 38.6136 186.755 38.4976 186.374 38.2656C185.995 38.0312 185.702 37.7045 185.496 37.2855C185.293 36.8641 185.191 36.3741 185.191 35.8153C185.191 35.2566 185.293 34.7642 185.496 34.3381C185.702 33.9096 185.989 33.5758 186.356 33.3366C186.725 33.0952 187.156 32.9744 187.648 32.9744C187.933 32.9744 188.213 33.0218 188.49 33.1165C188.767 33.2112 189.019 33.3651 189.246 33.5781C189.474 33.7888 189.655 34.0682 189.79 34.4162C189.925 34.7642 189.992 35.1927 189.992 35.7017V36.0568H185.788V35.3324H189.14C189.14 35.0246 189.078 34.75 188.955 34.5085C188.835 34.267 188.662 34.0765 188.437 33.9368C188.214 33.7971 187.951 33.7273 187.648 33.7273C187.315 33.7273 187.026 33.8101 186.782 33.9759C186.54 34.1392 186.355 34.3523 186.224 34.6151C186.094 34.8778 186.029 35.1596 186.029 35.4602V35.9432C186.029 36.3551 186.1 36.7043 186.242 36.9908C186.387 37.2749 186.587 37.4915 186.842 37.6406C187.098 37.7874 187.395 37.8608 187.734 37.8608C187.954 37.8608 188.153 37.83 188.33 37.7685C188.51 37.7045 188.665 37.6098 188.795 37.4844C188.926 37.3565 189.026 37.1979 189.097 37.0085L189.907 37.2358C189.822 37.5104 189.679 37.7519 189.477 37.9602C189.276 38.1662 189.027 38.3272 188.732 38.4432C188.436 38.5568 188.103 38.6136 187.734 38.6136Z" fill="#323130"/>
</svg>
