<svg width="42" height="42" viewBox="0 0 42 42" fill="none" xmlns="http://www.w3.org/2000/svg">
<path d="M37.9979 31.7025C37.9979 32.3252 37.8596 32.9651 37.5656 33.5877C37.2715 34.2104 36.891 34.7984 36.3895 35.3519C35.542 36.2858 34.608 36.9603 33.553 37.3927C32.5153 37.8251 31.3911 38.05 30.1804 38.05C28.4163 38.05 26.5311 37.6349 24.5421 36.7874C22.5531 35.9399 20.5642 34.7984 18.5925 33.3629C16.6035 31.9101 14.7183 30.3016 12.9196 28.5202C11.1382 26.7215 9.52968 24.8363 8.09416 22.8646C6.67593 20.8929 5.53444 18.9212 4.70426 16.9668C3.87407 14.9952 3.45898 13.11 3.45898 11.3112C3.45898 10.1351 3.66653 9.01094 4.08162 7.97321C4.49671 6.91819 5.15394 5.94965 6.07059 5.08488C7.1775 3.99526 8.38818 3.45911 9.66804 3.45911C10.1523 3.45911 10.6366 3.56288 11.069 3.77042C11.5187 3.97797 11.9164 4.28929 12.2278 4.73897L16.2403 10.3946C16.5516 10.827 16.7765 11.2248 16.9321 11.6053C17.0878 11.9685 17.1743 12.3317 17.1743 12.6603C17.1743 13.0754 17.0532 13.4905 16.8111 13.8882C16.5862 14.286 16.2576 14.7011 15.8425 15.1162L14.5281 16.4826C14.3378 16.6728 14.2513 16.8977 14.2513 17.1744C14.2513 17.3127 14.2686 17.4338 14.3032 17.5722C14.3551 17.7105 14.407 17.8143 14.4416 17.9181C14.7529 18.4888 15.2891 19.2325 16.0501 20.1319C16.8283 21.0313 17.6585 21.9479 18.5579 22.8646C19.4918 23.7812 20.3912 24.6287 21.3079 25.407C22.2072 26.168 22.9509 26.6869 23.539 26.9982C23.6254 27.0328 23.7292 27.0847 23.8503 27.1365C23.9887 27.1884 24.127 27.2057 24.2827 27.2057C24.5767 27.2057 24.8015 27.102 24.9918 26.9117L26.3062 25.6145C26.7386 25.1822 27.1537 24.8535 27.5515 24.646C27.9493 24.4039 28.3471 24.2828 28.7795 24.2828C29.1081 24.2828 29.454 24.352 29.8345 24.5076C30.215 24.6633 30.6128 24.8881 31.0452 25.1822L36.77 29.2466C37.2197 29.5579 37.531 29.9211 37.7212 30.3535C37.8942 30.7859 37.9979 31.2183 37.9979 31.7025Z" stroke="white" stroke-width="2.59431" stroke-miterlimit="10"/>
</svg>
