<svg width="24" height="24" viewBox="0 0 24 24" fill="none" xmlns="http://www.w3.org/2000/svg">
<g clip-path="url(#clip0_460_13037)">
<path d="M19.6667 7H15.6667C14.9303 7 14.3333 7.59696 14.3333 8.33333V12.3333H19.6667C19.8183 12.33 19.9621 12.4005 20.0523 12.5225C20.1424 12.6445 20.1677 12.8027 20.12 12.9467L19.1333 15.88C19.0424 16.1492 18.7908 16.3312 18.5067 16.3333H14.3333V26.3333C14.3333 26.7015 14.0348 27 13.6667 27H10.3333C9.96515 27 9.66667 26.7015 9.66667 26.3333V16.3333H7.66667C7.29848 16.3333 7 16.0348 7 15.6667V13C7 12.6319 7.29848 12.3333 7.66667 12.3333H9.66667V8.33333C9.66667 5.38781 12.0545 3 15 3H19.6667C20.0348 3 20.3333 3.29848 20.3333 3.66667V6.33333C20.3333 6.70152 20.0348 7 19.6667 7Z" fill="white"/>
</g>
<defs>
<clipPath id="clip0_460_13037">
<rect width="24" height="24" fill="white"/>
</clipPath>
</defs>
</svg>
