<svg width="24" height="24" viewBox="0 0 24 24" fill="none" xmlns="http://www.w3.org/2000/svg">
<path fill-rule="evenodd" clip-rule="evenodd" d="M17.3333 0H6.66667C2.98477 0 0 2.98477 0 6.66667V17.3333C0 21.0152 2.98477 24 6.66667 24H17.3333C21.0152 24 24 21.0152 24 17.3333V6.66667C24 2.98477 21.0152 0 17.3333 0ZM21.6667 17.3333C21.6593 19.7235 19.7235 21.6593 17.3333 21.6667H6.66667C4.27647 21.6593 2.34065 19.7235 2.33333 17.3333V6.66667C2.34065 4.27647 4.27647 2.34065 6.66667 2.33333H17.3333C19.7235 2.34065 21.6593 4.27647 21.6667 6.66667V17.3333ZM18.3333 7C19.0697 7 19.6667 6.40304 19.6667 5.66667C19.6667 4.93029 19.0697 4.33333 18.3333 4.33333C17.5969 4.33333 17 4.93029 17 5.66667C17 6.40304 17.5969 7 18.3333 7ZM12 6C8.68629 6 6 8.68629 6 12C6 15.3137 8.68629 18 12 18C15.3137 18 18 15.3137 18 12C18.0036 10.4076 17.3725 8.87943 16.2465 7.75344C15.1205 6.62745 13.5924 5.99645 12 6ZM8.33333 12C8.33333 14.0251 9.97493 15.6667 12 15.6667C14.0251 15.6667 15.6667 14.0251 15.6667 12C15.6667 9.97493 14.0251 8.33333 12 8.33333C9.97493 8.33333 8.33333 9.97493 8.33333 12Z" fill="white"/>
</svg>
