<svg width="24" height="24" viewBox="0 0 24 24" fill="none" xmlns="http://www.w3.org/2000/svg">
<path fill-rule="evenodd" clip-rule="evenodd" d="M2.66667 0H21.3333C22.8061 0 24 1.19391 24 2.66667V21.3333C24 22.8061 22.8061 24 21.3333 24H2.66667C1.19391 24 0 22.8061 0 21.3333V2.66667C0 1.19391 1.19391 0 2.66667 0ZM6.66667 20C7.03485 20 7.33333 19.7015 7.33333 19.3333V10C7.33333 9.63187 7.03485 9.33333 6.66667 9.33333H4.66667C4.29848 9.33333 4 9.63187 4 10V19.3333C4 19.7015 4.29848 20 4.66667 20H6.66667ZM5.66667 8C4.56209 8 3.66667 7.10457 3.66667 6C3.66667 4.89543 4.56209 4 5.66667 4C6.77124 4 7.66667 4.89543 7.66667 6C7.66667 7.10457 6.77124 8 5.66667 8ZM19.3333 20C19.7015 20 20 19.7015 20 19.3333V13.2C20.0433 11.0811 18.4768 9.27269 16.3733 9.01333C14.9027 8.879 13.4777 9.56587 12.6667 10.8V10C12.6667 9.63187 12.3681 9.33333 12 9.33333H10C9.63187 9.33333 9.33333 9.63187 9.33333 10V19.3333C9.33333 19.7015 9.63187 20 10 20H12C12.3681 20 12.6667 19.7015 12.6667 19.3333V14.3333C12.6667 13.2288 13.5621 12.3333 14.6667 12.3333C15.7712 12.3333 16.6667 13.2288 16.6667 14.3333V19.3333C16.6667 19.7015 16.9652 20 17.3333 20H19.3333Z" fill="white"/>
</svg>
