<svg width="42" height="42" viewBox="0 0 42 42" fill="none" xmlns="http://www.w3.org/2000/svg">
<path d="M3.95898 13.4558V30.2843C3.95898 33.5704 6.29387 34.9195 9.13032 33.2937L13.1947 30.9761C14.0768 30.4745 15.5469 30.4227 16.4636 30.8896L25.5437 35.4383C26.4603 35.888 27.9304 35.8534 28.8125 35.3519L36.3014 31.0626C37.2527 30.5091 38.0483 29.1601 38.0483 28.0532V11.2247C38.0483 7.93861 35.7134 6.58956 32.8769 8.21533L28.8125 10.5329C27.9304 11.0345 26.4603 11.0864 25.5437 10.6194L16.4636 6.08799C15.5469 5.63831 14.0768 5.6729 13.1947 6.17447L5.70582 10.4637C4.73728 11.0172 3.95898 12.3662 3.95898 13.4558Z" stroke="white" stroke-width="2.59431" stroke-linecap="round" stroke-linejoin="round"/>
<path d="M14.8059 6.91821V29.4023" stroke="white" stroke-width="2.59431" stroke-linecap="round" stroke-linejoin="round"/>
<path d="M27.2065 11.4496V34.5909" stroke="white" stroke-width="2.59431" stroke-linecap="round" stroke-linejoin="round"/>
</svg>
