<svg width="42" height="42" viewBox="0 0 42 42" fill="none" xmlns="http://www.w3.org/2000/svg">
<path d="M20.7544 35.4556H12.1067C6.91807 35.4556 3.45898 32.8613 3.45898 26.8079V14.7011C3.45898 8.64766 6.91807 6.05334 12.1067 6.05334H29.4021C34.5907 6.05334 38.0498 8.64766 38.0498 14.7011V19.8897" stroke="white" stroke-width="2.59431" stroke-miterlimit="10" stroke-linecap="round" stroke-linejoin="round"/>
<path d="M29.4021 15.5659L23.9886 19.8898C22.2072 21.308 19.2843 21.308 17.5029 19.8898L12.1067 15.5659" stroke="white" stroke-width="2.59431" stroke-miterlimit="10" stroke-linecap="round" stroke-linejoin="round"/>
<path d="M33.2236 25.5455L27.1011 31.6681C26.859 31.9102 26.6341 32.3599 26.5822 32.6885L26.2536 35.0234C26.1325 35.8709 26.7206 36.4589 27.5681 36.3379L29.9029 36.0093C30.2316 35.9574 30.6985 35.7325 30.9234 35.4904L37.046 29.3678C38.101 28.3128 38.6026 27.0848 37.046 25.5282C35.5067 23.9889 34.2787 24.4905 33.2236 25.5455Z" stroke="white" stroke-width="2.59431" stroke-miterlimit="10" stroke-linecap="round" stroke-linejoin="round"/>
<path d="M32.3418 26.4276C32.8607 28.2955 34.3135 29.7483 36.1814 30.2672" stroke="white" stroke-width="2.59431" stroke-miterlimit="10" stroke-linecap="round" stroke-linejoin="round"/>
</svg>
