<svg width="24" height="24" viewBox="0 0 24 24" fill="none" xmlns="http://www.w3.org/2000/svg">
<path d="M23.9649 3.47828C23.3457 4.45008 22.5972 5.29779 21.7482 5.98866C21.7482 6.24251 21.7482 6.49636 21.7482 6.76433C21.755 11.3743 20.1898 15.7947 17.4035 19.0345C14.6171 22.2744 10.8427 24.0626 6.92654 23.9983C4.66246 24.0073 2.42737 23.3991 0.396369 22.2214C0.286849 22.1651 0.216222 22.0377 0.216635 21.897V21.7418C0.216635 21.5393 0.356116 21.3753 0.528169 21.3753C2.7537 21.2888 4.89984 20.3811 6.66293 18.7803C4.64852 18.7324 2.83606 17.3285 2.00194 15.1698C1.95982 15.052 1.97293 14.9166 2.03657 14.8129C2.1002 14.7092 2.20514 14.6521 2.31348 14.6621C2.9257 14.7345 3.54405 14.6675 4.13474 14.4647C1.911 13.9216 0.240089 11.7497 0.000955413 9.09131C-0.00753792 8.96378 0.0410353 8.84033 0.129142 8.76535C0.217235 8.69053 0.332129 8.675 0.432316 8.72473C1.02906 9.03453 1.67326 9.19767 2.32546 9.2041C0.376929 7.69956 -0.464712 4.83774 0.276542 2.23722C0.353062 1.98452 0.536889 1.79784 0.760476 1.74579C0.984049 1.69373 1.21442 1.78398 1.3669 1.98336C3.99633 5.2757 7.6092 7.2376 11.4437 7.45537C11.3455 6.99429 11.2973 6.52042 11.2999 6.04506C11.3358 3.55251 12.6467 1.3321 14.619 0.423329C16.5911 -0.485426 18.8343 0.0973056 20.2985 1.89874C21.2963 1.67507 22.2612 1.28071 23.1621 0.728177C23.2281 0.679706 23.3118 0.679706 23.3778 0.728177C23.419 0.805856 23.419 0.90435 23.3778 0.982028C22.9414 2.15769 22.2042 3.14373 21.269 3.80266C22.0879 3.69093 22.8925 3.46365 23.6654 3.12572C23.7305 3.07361 23.816 3.07361 23.881 3.12572C23.9356 3.15505 23.9764 3.21116 23.9925 3.2791C24.0086 3.34704 23.9985 3.4199 23.9649 3.47828Z" fill="white"/>
</svg>
