<svg width="168" height="125" viewBox="0 0 168 125" fill="none" xmlns="http://www.w3.org/2000/svg">
<path d="M129.171 49.75C131.029 49.75 132.812 50.0333 134.587 50.2917C134.012 48.3583 133.421 46.3917 132.471 44.625C131.521 42.0583 130.037 39.8333 128.562 37.5917C127.329 35.1667 125.154 33.525 123.554 31.45C121.879 29.4333 119.596 28.0917 117.787 26.4167C116.012 24.6667 113.687 23.7917 111.837 22.5583C109.904 21.45 108.221 20.225 106.421 19.6417L101.929 17.7917L97.9788 16.15L102.021 0L106.995 1.2C108.587 1.6 110.529 2.06666 112.737 2.625C114.996 3.04166 117.404 4.18333 120.087 5.225C122.737 6.40833 125.804 7.20833 128.654 9.10833C131.521 10.925 134.829 12.4417 137.746 14.875C140.571 17.3833 143.979 19.5583 146.496 22.75C149.246 25.7333 151.962 28.8667 154.071 32.4333C156.512 35.8333 158.171 39.5667 159.921 43.2583C161.504 46.95 162.779 50.725 163.821 54.3917C165.796 61.7417 166.679 68.725 167.021 74.7C167.304 80.6833 167.137 85.6583 166.787 89.2583C166.662 90.9583 166.429 92.6083 166.262 93.75L166.054 95.15L165.837 95.1C164.355 102.024 160.943 108.386 155.996 113.451C151.049 118.517 144.768 122.078 137.882 123.724C130.995 125.369 123.783 125.031 117.081 122.749C110.378 120.466 104.459 116.333 100.007 110.827C95.5554 105.321 92.7535 98.6677 91.9254 91.6358C91.0973 84.6039 92.2769 77.4813 95.3277 71.0918C98.3786 64.7024 103.176 59.3072 109.165 55.5304C115.154 51.7536 122.09 49.7495 129.171 49.75ZM37.5038 49.75C39.3622 49.75 41.1455 50.0333 42.9205 50.2917C42.3455 48.3583 41.7538 46.3917 40.8038 44.625C39.8538 42.0583 38.3705 39.8333 36.8955 37.5917C35.6622 35.1667 33.4872 33.525 31.8872 31.45C30.2122 29.4333 27.9288 28.0917 26.1205 26.4167C24.3455 24.6667 22.0205 23.7917 20.1705 22.5583C18.2372 21.45 16.5538 20.225 14.7538 19.6417L10.2622 17.7917L6.31218 16.15L10.3539 0L15.3288 1.2C16.9205 1.6 18.8622 2.06666 21.0705 2.625C23.3288 3.04166 25.7372 4.18333 28.4205 5.225C31.0622 6.41667 34.1372 7.20833 36.9872 9.11666C39.8538 10.9333 43.1622 12.45 46.0788 14.8833C48.9038 17.3917 52.3122 19.5667 54.8288 22.75C57.5788 25.7333 60.2955 28.8667 62.4038 32.4333C64.8455 35.8333 66.5038 39.5667 68.2538 43.2583C69.8372 46.95 71.1122 50.725 72.1538 54.3917C74.1288 61.7417 75.0122 68.725 75.3538 74.7C75.6372 80.6833 75.4705 85.6583 75.1205 89.2583C74.9955 90.9583 74.7622 92.6083 74.5955 93.75L74.3872 95.15L74.1705 95.1C72.6883 102.024 69.2763 108.386 64.3291 113.451C59.382 118.517 53.1018 122.078 46.2152 123.724C39.3285 125.369 32.1168 125.031 25.4142 122.749C18.7117 120.466 12.7921 116.333 8.34045 110.827C3.88876 105.321 1.08679 98.6677 0.258698 91.6358C-0.569397 84.6039 0.610214 77.4813 3.66107 71.0918C6.71193 64.7024 11.5094 59.3072 17.4984 55.5304C23.4875 51.7536 30.4234 49.7495 37.5038 49.75Z" fill="#F3F2F1"/>
</svg>
