<svg width="168" height="125" viewBox="0 0 168 125" fill="none" xmlns="http://www.w3.org/2000/svg">
<path d="M129.17 49.75C131.028 49.75 132.811 50.0333 134.586 50.2917C134.011 48.3583 133.42 46.3917 132.47 44.625C131.52 42.0583 130.036 39.8333 128.561 37.5917C127.328 35.1667 125.153 33.525 123.553 31.45C121.878 29.4333 119.595 28.0917 117.786 26.4167C116.011 24.6667 113.686 23.7917 111.836 22.5583C109.903 21.45 108.22 20.225 106.42 19.6417L101.928 17.7917L97.9779 16.15L102.02 0L106.995 1.2C108.586 1.6 110.528 2.06666 112.736 2.625C114.995 3.04166 117.403 4.18333 120.086 5.225C122.736 6.40833 125.803 7.20833 128.653 9.10833C131.52 10.925 134.828 12.4417 137.745 14.875C140.57 17.3833 143.978 19.5583 146.495 22.75C149.245 25.7333 151.961 28.8667 154.07 32.4333C156.511 35.8333 158.17 39.5667 159.92 43.2583C161.503 46.95 162.778 50.725 163.82 54.3917C165.795 61.7417 166.678 68.725 167.02 74.7C167.303 80.6833 167.136 85.6583 166.786 89.2583C166.661 90.9583 166.428 92.6083 166.261 93.75L166.053 95.15L165.836 95.1C164.354 102.024 160.942 108.386 155.995 113.451C151.048 118.517 144.768 122.078 137.881 123.724C130.994 125.369 123.782 125.031 117.08 122.749C110.377 120.466 104.458 116.333 100.006 110.827C95.5544 105.321 92.7525 98.6677 91.9244 91.6358C91.0963 84.6039 92.2759 77.4813 95.3268 71.0918C98.3776 64.7024 103.175 59.3072 109.164 55.5304C115.153 51.7536 122.089 49.7495 129.17 49.75ZM37.5029 49.75C39.3612 49.75 41.1445 50.0333 42.9195 50.2917C42.3445 48.3583 41.7529 46.3917 40.8029 44.625C39.8529 42.0583 38.3695 39.8333 36.8945 37.5917C35.6612 35.1667 33.4862 33.525 31.8862 31.45C30.2112 29.4333 27.9279 28.0917 26.1195 26.4167C24.3445 24.6667 22.0195 23.7917 20.1695 22.5583C18.2362 21.45 16.5529 20.225 14.7529 19.6417L10.2612 17.7917L6.3112 16.15L10.3529 0L15.3279 1.2C16.9195 1.6 18.8612 2.06666 21.0695 2.625C23.3279 3.04166 25.7362 4.18333 28.4195 5.225C31.0612 6.41667 34.1362 7.20833 36.9862 9.11666C39.8529 10.9333 43.1612 12.45 46.0779 14.8833C48.9029 17.3917 52.3112 19.5667 54.8279 22.75C57.5779 25.7333 60.2945 28.8667 62.4029 32.4333C64.8445 35.8333 66.5029 39.5667 68.2529 43.2583C69.8362 46.95 71.1112 50.725 72.1529 54.3917C74.1279 61.7417 75.0112 68.725 75.3529 74.7C75.6362 80.6833 75.4695 85.6583 75.1195 89.2583C74.9945 90.9583 74.7612 92.6083 74.5945 93.75L74.3862 95.15L74.1695 95.1C72.6874 102.024 69.2753 108.386 64.3282 113.451C59.381 118.517 53.1009 122.078 46.2142 123.724C39.3276 125.369 32.1158 125.031 25.4133 122.749C18.7107 120.466 12.7912 116.333 8.33948 110.827C3.88779 105.321 1.08582 98.6677 0.257721 91.6358C-0.570374 84.6039 0.609238 77.4813 3.6601 71.0918C6.71095 64.7024 11.5084 59.3072 17.4974 55.5304C23.4865 51.7536 30.4224 49.7495 37.5029 49.75Z" fill="#F3F2F1"/>
</svg>
